G04 DipTrace 2.4.0.2*
%IN1_Layer_Top_PMask.gbr*%
%MOIN*%
%ADD68R,0.374X0.4016*%
%ADD70R,0.1476X0.0512*%
%ADD72R,0.1102X0.0157*%
%ADD74O,0.0041X0.0421*%
%ADD76O,0.0421X0.0041*%
%ADD78R,0.0098X0.0335*%
%ADD80R,0.0102X0.0335*%
%ADD82R,0.0177X0.0335*%
%ADD84R,0.0335X0.0098*%
%ADD86R,0.0335X0.0102*%
%ADD88R,0.0335X0.0177*%
%ADD89C,0.0433*%
%ADD91R,0.0512X0.1063*%
%ADD94R,0.0472X0.126*%
%ADD96R,0.0512X0.0433*%
%ADD98R,0.0551X0.063*%
%ADD104R,0.0271X0.0321*%
%ADD106R,0.0433X0.0512*%
%ADD108R,0.0321X0.0271*%
%FSLAX44Y44*%
G04*
G70*
G90*
G75*
G01*
%LNTopPaste*%
%LPD*%
D108*
X34488Y21260D3*
Y21929D3*
Y19803D3*
Y20472D3*
D106*
X35945Y18780D3*
X35197D3*
D104*
X51890Y17362D3*
X51220D3*
D108*
X49724Y16732D3*
Y16063D3*
X49646Y15197D3*
Y14528D3*
X20866Y13130D3*
Y13799D3*
X28425Y13130D3*
Y13799D3*
X35984Y13130D3*
Y13799D3*
X43543Y13130D3*
Y13799D3*
D98*
X20039Y13583D3*
X18937D3*
X27598D3*
X26496D3*
X35157D3*
X34055D3*
X42717D3*
X41614D3*
D108*
X49764Y13701D3*
Y13031D3*
D104*
X16496Y13189D3*
X15827D3*
X22795D3*
X22126D3*
X24055D3*
X23386D3*
X30354D3*
X29685D3*
X31614D3*
X30945D3*
X37913D3*
X37244D3*
X39173D3*
X38504D3*
X45472D3*
X44803D3*
X53465Y12638D3*
X52795D3*
X54764D3*
X54094D3*
X16496Y12559D3*
X15827D3*
X22795D3*
X22126D3*
X24055D3*
X23386D3*
X30354D3*
X29685D3*
X31614D3*
X30945D3*
X37913D3*
X37244D3*
X39173D3*
X38504D3*
X45472D3*
X44803D3*
X51890Y12362D3*
X51220D3*
X53465Y12008D3*
X52795D3*
D108*
X17126Y11969D3*
Y11299D3*
X21496Y11969D3*
Y11299D3*
X24685Y11969D3*
Y11299D3*
X29055Y11969D3*
Y11299D3*
X32244Y11969D3*
Y11299D3*
X36614Y11969D3*
Y11299D3*
X39803Y11969D3*
Y11299D3*
X44173Y11969D3*
Y11299D3*
D96*
X53307Y10945D3*
Y10197D3*
D104*
X16496Y10669D3*
X17165D3*
X24055D3*
X24724D3*
X31614D3*
X32283D3*
X39173D3*
X39843D3*
D98*
X19016Y10079D3*
X17913D3*
D96*
X19961Y9449D3*
Y10197D3*
X20827Y9449D3*
Y10197D3*
D98*
X26575Y10079D3*
X25472D3*
D96*
X27480Y9449D3*
Y10197D3*
X28346Y9449D3*
Y10197D3*
D98*
X34134Y10079D3*
X33031D3*
D96*
X35039Y9449D3*
Y10197D3*
X35906Y9449D3*
Y10197D3*
D98*
X41693Y10079D3*
X40591D3*
D96*
X42598Y9449D3*
Y10197D3*
X43465Y9449D3*
Y10197D3*
D104*
X54134Y9016D3*
X53465D3*
D94*
X8661Y9252D3*
X10276D3*
D91*
X39181Y22638D3*
X40181D3*
X41181D3*
X42181D3*
X43181D3*
X44181D3*
X45181D3*
X46181D3*
X47181D3*
X48181D3*
X49181D3*
X50181D3*
X51181D3*
X52173D3*
X6992Y22008D3*
X7992D3*
X8992D3*
X9992D3*
X10992D3*
X11992D3*
D89*
X6299Y19291D3*
X53307Y6496D3*
X48701Y5197D3*
D104*
X54961Y23110D3*
X54291D3*
D88*
X54449Y21063D3*
D86*
Y21409D3*
Y21724D3*
D88*
Y22067D3*
X53819D3*
D84*
Y21724D3*
Y21409D3*
D88*
Y21063D3*
X54449Y19409D3*
D86*
Y19756D3*
Y20071D3*
D88*
Y20413D3*
X53819D3*
D84*
Y20071D3*
Y19756D3*
D88*
Y19409D3*
D82*
X52835Y17244D3*
D80*
X53181D3*
X53496D3*
D82*
X53839D3*
Y17874D3*
D78*
X53496D3*
X53181D3*
D82*
X52835D3*
D108*
X15827Y13819D3*
Y14488D3*
X16496Y13819D3*
Y14488D3*
X17126Y13819D3*
Y14488D3*
X21496Y13819D3*
Y14488D3*
X22126Y13819D3*
Y14488D3*
X22756Y13819D3*
Y14488D3*
X23386Y13819D3*
Y14488D3*
X24055Y13819D3*
Y14488D3*
X24685Y13819D3*
Y14488D3*
X29055Y13819D3*
Y14488D3*
X29685Y13819D3*
Y14488D3*
X30315Y13819D3*
Y14488D3*
X30945Y13819D3*
Y14488D3*
X31614Y13819D3*
Y14488D3*
X32244Y13819D3*
Y14488D3*
X36614Y13819D3*
Y14488D3*
X37244Y13819D3*
Y14488D3*
X37874Y13819D3*
Y14488D3*
X38504Y13819D3*
Y14488D3*
X39173Y13819D3*
Y14488D3*
X39803Y13819D3*
Y14488D3*
X44173Y13819D3*
Y14488D3*
X44803Y13819D3*
Y14488D3*
X45433Y13819D3*
Y14488D3*
X17126Y12559D3*
Y13228D3*
X21496Y12559D3*
Y13228D3*
X24685Y12559D3*
Y13228D3*
X29055Y12559D3*
Y13228D3*
X32244Y12559D3*
Y13228D3*
X36614Y12559D3*
Y13228D3*
X39803Y12559D3*
Y13228D3*
X44173Y12559D3*
Y13228D3*
D104*
X15827Y11929D3*
X16496D3*
X22126D3*
X22795D3*
X23386D3*
X24055D3*
X29685D3*
X30354D3*
X30945D3*
X31614D3*
X37244D3*
X37913D3*
X38504D3*
X39173D3*
X44803D3*
X45472D3*
X15827Y11299D3*
X16496D3*
X22126D3*
X22795D3*
X23386D3*
X24055D3*
X29685D3*
X30354D3*
X30945D3*
X31614D3*
X37244D3*
X37913D3*
X38504D3*
X39173D3*
X44803D3*
X45472D3*
D108*
X49055Y8740D3*
Y9409D3*
D76*
X53701Y13780D3*
Y13976D3*
Y14173D3*
Y14370D3*
Y14567D3*
Y14764D3*
Y14961D3*
Y15157D3*
Y15354D3*
Y15551D3*
Y15748D3*
Y15945D3*
D74*
X53363Y16283D3*
X53166D3*
X52969D3*
X52772D3*
X52575D3*
X52378D3*
X52182D3*
X51985D3*
X51788D3*
X51591D3*
X51394D3*
X51197D3*
D76*
X50857Y15945D3*
Y15748D3*
Y15551D3*
Y15354D3*
Y15157D3*
Y14961D3*
Y14764D3*
Y14567D3*
Y14370D3*
Y14173D3*
Y13976D3*
Y13780D3*
D74*
X51197Y13441D3*
X51394D3*
X51591D3*
X51788D3*
X51985D3*
X52182D3*
X52378D3*
X52575D3*
X52777Y13423D3*
X52969Y13441D3*
X53166D3*
X53363D3*
D72*
X20551Y11065D3*
Y11565D3*
Y12065D3*
Y12565D3*
X18031D3*
Y12065D3*
Y11565D3*
Y11065D3*
X28110D3*
Y11565D3*
Y12065D3*
Y12565D3*
X25591D3*
Y12065D3*
Y11565D3*
Y11065D3*
X35669D3*
Y11565D3*
Y12065D3*
Y12565D3*
X33150D3*
Y12065D3*
Y11565D3*
Y11065D3*
X43228D3*
Y11565D3*
Y12065D3*
Y12565D3*
X40709D3*
Y12065D3*
Y11565D3*
Y11065D3*
D70*
X33189Y19882D3*
Y21882D3*
D68*
X29134Y20882D3*
M02*
