G04 DipTrace 2.4.0.2*
%IN1_Layer_Top_Silk.gbr*%
%MOIN*%
%ADD10C,0.0098*%
%ADD12C,0.003*%
%ADD14C,0.0118*%
%ADD15C,0.0079*%
%ADD16C,0.0067*%
%ADD17C,0.0157*%
%ADD19C,0.0197*%
%ADD24C,0.0276*%
%ADD27C,0.0059*%
%ADD51C,0.0154*%
%ADD115C,0.0046*%
%ADD116C,0.0109*%
%ADD119C,0.0087*%
%ADD120C,0.0093*%
%FSLAX44Y44*%
G04*
G70*
G90*
G75*
G01*
%LNTopSilk*%
%LPD*%
X16732Y3937D2*
D10*
X6102D1*
Y7638D2*
X9567D1*
X6102Y3937D2*
Y7638D1*
X16732Y3937D2*
Y7638D1*
X6929Y3937D2*
Y4173D1*
X12441Y3937D2*
Y4173D1*
X16141Y3937D2*
Y4213D1*
X12205D1*
X10630Y3937D2*
Y4213D1*
X6693D1*
Y3937D2*
Y4213D1*
X10945Y7638D2*
X15039D1*
X16457D2*
X16732D1*
X7323Y3977D2*
Y4213D1*
X7992Y3977D2*
Y4213D1*
X8661Y3937D2*
Y4213D1*
X9409Y3977D2*
Y4213D1*
X10000Y3977D2*
Y4213D1*
X10433Y3977D2*
Y4213D1*
X12205Y3937D2*
Y4213D1*
X12834Y3977D2*
Y4213D1*
X13504Y3977D2*
Y4213D1*
X14174Y3937D2*
Y4213D1*
X14921Y3977D2*
Y4213D1*
X15512Y3977D2*
Y4213D1*
X15945Y3977D2*
Y4213D1*
X27756Y3937D2*
X17126D1*
Y7638D2*
X20590D1*
X17126Y3937D2*
Y7638D1*
X27756Y3937D2*
Y7638D1*
X17953Y3937D2*
Y4173D1*
X23465Y3937D2*
Y4173D1*
X27165Y3937D2*
Y4213D1*
X23229D1*
X21653Y3937D2*
Y4213D1*
X17717D1*
Y3937D2*
Y4213D1*
X21969Y7638D2*
X26063D1*
X27481D2*
X27756D1*
X18346Y3977D2*
Y4213D1*
X19016Y3977D2*
Y4213D1*
X19685Y3937D2*
Y4213D1*
X20433Y3977D2*
Y4213D1*
X21024Y3977D2*
Y4213D1*
X21457Y3977D2*
Y4213D1*
X23229Y3937D2*
Y4213D1*
X23858Y3977D2*
Y4213D1*
X24528Y3977D2*
Y4213D1*
X25197Y3937D2*
Y4213D1*
X25945Y3977D2*
Y4213D1*
X26536Y3977D2*
Y4213D1*
X26968Y3977D2*
Y4213D1*
X38780Y3937D2*
X28150D1*
Y7638D2*
X31614D1*
X28150Y3937D2*
Y7638D1*
X38780Y3937D2*
Y7638D1*
X28977Y3937D2*
Y4173D1*
X34488Y3937D2*
Y4173D1*
X38189Y3937D2*
Y4213D1*
X34252D1*
X32677Y3937D2*
Y4213D1*
X28741D1*
Y3937D2*
Y4213D1*
X32993Y7638D2*
X37086D1*
X38504D2*
X38780D1*
X29370Y3977D2*
Y4213D1*
X30040Y3977D2*
Y4213D1*
X30708Y3937D2*
Y4213D1*
X31457Y3977D2*
Y4213D1*
X32048Y3977D2*
Y4213D1*
X32480Y3977D2*
Y4213D1*
X34252Y3937D2*
Y4213D1*
X34882Y3977D2*
Y4213D1*
X35551Y3977D2*
Y4213D1*
X36221Y3937D2*
Y4213D1*
X36968Y3977D2*
Y4213D1*
X37559Y3977D2*
Y4213D1*
X37992Y3977D2*
Y4213D1*
X49803Y3937D2*
X39173D1*
Y7638D2*
X42638D1*
X39173Y3937D2*
Y7638D1*
X49803Y3937D2*
Y7638D1*
X40000Y3937D2*
Y4173D1*
X45512Y3937D2*
Y4173D1*
X49212Y3937D2*
Y4213D1*
X45276D1*
X43701Y3937D2*
Y4213D1*
X39764D1*
Y3937D2*
Y4213D1*
X44016Y7638D2*
X48110D1*
X49528D2*
X49803D1*
X40394Y3977D2*
Y4213D1*
X41063Y3977D2*
Y4213D1*
X41732Y3937D2*
Y4213D1*
X42480Y3977D2*
Y4213D1*
X43071Y3977D2*
Y4213D1*
X43504Y3977D2*
Y4213D1*
X45276Y3937D2*
Y4213D1*
X45905Y3977D2*
Y4213D1*
X46575Y3977D2*
Y4213D1*
X47245Y3937D2*
Y4213D1*
X47992Y3977D2*
Y4213D1*
X48583Y3977D2*
Y4213D1*
X49015Y3977D2*
Y4213D1*
X16516Y22205D2*
G02X16516Y22205I-1575J0D01*
G01*
X13681Y22087D2*
Y22323D1*
X13563Y22205D2*
X13799D1*
X16057Y21579D2*
D24*
G03X16037Y22878I-1046J634D01*
G01*
X36929Y22500D2*
D10*
G02X36929Y22500I0J-1575D01*
G01*
X37047Y19665D2*
X36811D1*
X36929Y19547D2*
Y19783D1*
X37555Y22041D2*
D24*
G03X36256Y22021I-634J-1046D01*
G01*
X34232Y21024D2*
D27*
X34744D1*
Y22165D1*
X34232D1*
Y21024D1*
X22433Y17972D2*
D10*
G02X22433Y17972I0J1575D01*
G01*
X22315Y20807D2*
X22552D1*
X22433Y20925D2*
Y20689D1*
X21807Y18432D2*
D24*
G03X23107Y18451I634J1046D01*
G01*
X19087Y17933D2*
D10*
G02X19087Y17933I0J1575D01*
G01*
X18969Y20768D2*
X19205D1*
X19087Y20886D2*
Y20650D1*
X18461Y18392D2*
D24*
G03X19760Y18412I634J1046D01*
G01*
X52461Y19291D2*
D10*
G02X52461Y19291I-1575J0D01*
G01*
X49626Y19173D2*
Y19410D1*
X49508Y19291D2*
X49744D1*
X52001Y18665D2*
D24*
G03X51982Y19964I-1046J634D01*
G01*
X34232Y19567D2*
D27*
X34744D1*
Y20709D1*
X34232D1*
Y19567D1*
X49030Y16674D2*
D10*
G02X49030Y16674I-1133J1094D01*
G01*
X46909Y18558D2*
X47073Y18728D1*
X46906Y18725D2*
X47075Y18561D1*
X48265Y16542D2*
D24*
G03X49153Y17491I-312J1183D01*
G01*
X36260Y18425D2*
D27*
X34882D1*
Y19134D1*
X36260D1*
Y18425D1*
X52126Y17106D2*
X50984D1*
Y17618D1*
X52126D1*
Y17106D1*
X49980Y16969D2*
X49469D1*
Y15827D1*
X49980D1*
Y16969D1*
X48307Y13858D2*
D10*
X48071D1*
X48189Y13740D2*
Y13976D1*
X47906Y13799D2*
G02X48472Y13799I283J1044D01*
G01*
X49902Y15433D2*
D27*
X49390D1*
Y14291D1*
X49902D1*
Y15433D1*
X20610Y12894D2*
X21122D1*
Y14035D1*
X20610D1*
Y12894D1*
X28169D2*
X28681D1*
Y14035D1*
X28169D1*
Y12894D1*
X35728D2*
X36240D1*
Y14035D1*
X35728D1*
Y12894D1*
X43287D2*
X43799D1*
Y14035D1*
X43287D1*
Y12894D1*
X20433Y13150D2*
X18543D1*
Y14016D1*
X20433D1*
Y13150D1*
X27992D2*
X26102D1*
Y14016D1*
X27992D1*
Y13150D1*
X35551D2*
X33661D1*
Y14016D1*
X35551D1*
Y13150D1*
X43110D2*
X41220D1*
Y14016D1*
X43110D1*
Y13150D1*
X50020Y13937D2*
X49508D1*
Y12795D1*
X50020D1*
Y13937D1*
X49074Y13046D2*
D10*
G02X49074Y13046I-1094J-1133D01*
G01*
X47190Y10924D2*
X47020Y11088D1*
X47023Y10921D2*
X47187Y11091D1*
X49206Y12280D2*
D24*
G03X48257Y13169I-1183J-312D01*
G01*
X16732Y12933D2*
D27*
X15591D1*
Y13445D1*
X16732D1*
Y12933D1*
X23031D2*
X21890D1*
Y13445D1*
X23031D1*
Y12933D1*
X24291D2*
X23150D1*
Y13445D1*
X24291D1*
Y12933D1*
X30591D2*
X29449D1*
Y13445D1*
X30591D1*
Y12933D1*
X31850D2*
X30709D1*
Y13445D1*
X31850D1*
Y12933D1*
X38150D2*
X37008D1*
Y13445D1*
X38150D1*
Y12933D1*
X39409D2*
X38268D1*
Y13445D1*
X39409D1*
Y12933D1*
X45709D2*
X44567D1*
Y13445D1*
X45709D1*
Y12933D1*
X53701Y12382D2*
X52559D1*
Y12894D1*
X53701D1*
Y12382D1*
X55000D2*
X53858D1*
Y12894D1*
X55000D1*
Y12382D1*
X16732Y12303D2*
X15591D1*
Y12815D1*
X16732D1*
Y12303D1*
X23031D2*
X21890D1*
Y12815D1*
X23031D1*
Y12303D1*
X24291D2*
X23150D1*
Y12815D1*
X24291D1*
Y12303D1*
X30591D2*
X29449D1*
Y12815D1*
X30591D1*
Y12303D1*
X31850D2*
X30709D1*
Y12815D1*
X31850D1*
Y12303D1*
X38150D2*
X37008D1*
Y12815D1*
X38150D1*
Y12303D1*
X39409D2*
X38268D1*
Y12815D1*
X39409D1*
Y12303D1*
X45709D2*
X44567D1*
Y12815D1*
X45709D1*
Y12303D1*
X52126Y12106D2*
X50984D1*
Y12618D1*
X52126D1*
Y12106D1*
X53701Y11752D2*
X52559D1*
Y12264D1*
X53701D1*
Y11752D1*
X17382Y12205D2*
X16870D1*
Y11063D1*
X17382D1*
Y12205D1*
X21752D2*
X21240D1*
Y11063D1*
X21752D1*
Y12205D1*
X24941D2*
X24429D1*
Y11063D1*
X24941D1*
Y12205D1*
X29311D2*
X28799D1*
Y11063D1*
X29311D1*
Y12205D1*
X32500D2*
X31988D1*
Y11063D1*
X32500D1*
Y12205D1*
X36870D2*
X36358D1*
Y11063D1*
X36870D1*
Y12205D1*
X40059D2*
X39547D1*
Y11063D1*
X40059D1*
Y12205D1*
X44429D2*
X43917D1*
Y11063D1*
X44429D1*
Y12205D1*
X52163Y11511D2*
D10*
G02X52163Y11511I-1094J-1133D01*
G01*
X50279Y9389D2*
X50109Y9553D1*
X50112Y9386D2*
X50276Y9556D1*
X52295Y10745D2*
D24*
G03X51346Y11634I-1183J-312D01*
G01*
X55000Y9567D2*
D10*
X54764D1*
X54882Y9449D2*
Y9685D1*
X54598Y9508D2*
G02X55165Y9508I283J1044D01*
G01*
X53661Y11260D2*
D27*
X52953D1*
Y9882D1*
X53661D1*
Y11260D1*
X16260Y10925D2*
X17402D1*
Y10413D1*
X16260D1*
Y10925D1*
X23819D2*
X24961D1*
Y10413D1*
X23819D1*
Y10925D1*
X31378D2*
X32520D1*
Y10413D1*
X31378D1*
Y10925D1*
X38937D2*
X40079D1*
Y10413D1*
X38937D1*
Y10925D1*
X19409Y9646D2*
X17520D1*
Y10512D1*
X19409D1*
Y9646D1*
X19606Y9134D2*
X20315D1*
Y10512D1*
X19606D1*
Y9134D1*
X20472D2*
X21181D1*
Y10512D1*
X20472D1*
Y9134D1*
X26969Y9646D2*
X25079D1*
Y10512D1*
X26969D1*
Y9646D1*
X27126Y9134D2*
X27835D1*
Y10512D1*
X27126D1*
Y9134D1*
X27992D2*
X28701D1*
Y10512D1*
X27992D1*
Y9134D1*
X34528Y9646D2*
X32638D1*
Y10512D1*
X34528D1*
Y9646D1*
X34685Y9134D2*
X35394D1*
Y10512D1*
X34685D1*
Y9134D1*
X35551D2*
X36260D1*
Y10512D1*
X35551D1*
Y9134D1*
X42087Y9646D2*
X40197D1*
Y10512D1*
X42087D1*
Y9646D1*
X42244Y9134D2*
X42953D1*
Y10512D1*
X42244D1*
Y9134D1*
X43110D2*
X43819D1*
Y10512D1*
X43110D1*
Y9134D1*
X54370Y8760D2*
X53228D1*
Y9272D1*
X54370D1*
Y8760D1*
X9153Y9882D2*
D10*
X9784D1*
X9153Y8622D2*
X9784D1*
X9193Y9469D2*
D15*
X9764D1*
Y9055D1*
X9193D1*
Y9469D1*
X9016Y9252D2*
X9941D1*
X10630Y10000D2*
D27*
X8327D1*
Y8504D1*
X10630D1*
Y10000D1*
X45681Y8594D2*
D10*
Y9594D1*
X48681D1*
Y8594D2*
Y9594D1*
X45681Y8594D2*
X48681D1*
X55197Y22854D2*
D27*
X54055D1*
Y23366D1*
X55197D1*
Y22854D1*
X54449Y20831D2*
D10*
X53819D1*
X54449Y22287D2*
X53819D1*
D14*
X54833Y21087D3*
X54449Y19177D2*
D10*
X53819D1*
X54449Y20634D2*
X53819D1*
D14*
X54833Y19433D3*
X52602Y17244D2*
D10*
Y17874D1*
X54059Y17244D2*
Y17874D1*
D14*
X52858Y16860D3*
X15571Y13583D2*
D27*
X16083D1*
Y14724D1*
X15571D1*
Y13583D1*
X16240D2*
X16752D1*
Y14724D1*
X16240D1*
Y13583D1*
X16870D2*
X17382D1*
Y14724D1*
X16870D1*
Y13583D1*
X21240D2*
X21752D1*
Y14724D1*
X21240D1*
Y13583D1*
X21870D2*
X22382D1*
Y14724D1*
X21870D1*
Y13583D1*
X22500D2*
X23012D1*
Y14724D1*
X22500D1*
Y13583D1*
X23130D2*
X23642D1*
Y14724D1*
X23130D1*
Y13583D1*
X23799D2*
X24311D1*
Y14724D1*
X23799D1*
Y13583D1*
X24429D2*
X24941D1*
Y14724D1*
X24429D1*
Y13583D1*
X28799D2*
X29311D1*
Y14724D1*
X28799D1*
Y13583D1*
X29429D2*
X29941D1*
Y14724D1*
X29429D1*
Y13583D1*
X30059D2*
X30571D1*
Y14724D1*
X30059D1*
Y13583D1*
X30689D2*
X31201D1*
Y14724D1*
X30689D1*
Y13583D1*
X31358D2*
X31870D1*
Y14724D1*
X31358D1*
Y13583D1*
X31988D2*
X32500D1*
Y14724D1*
X31988D1*
Y13583D1*
X36358D2*
X36870D1*
Y14724D1*
X36358D1*
Y13583D1*
X36988D2*
X37500D1*
Y14724D1*
X36988D1*
Y13583D1*
X37618D2*
X38130D1*
Y14724D1*
X37618D1*
Y13583D1*
X38248D2*
X38760D1*
Y14724D1*
X38248D1*
Y13583D1*
X38917D2*
X39429D1*
Y14724D1*
X38917D1*
Y13583D1*
X39547D2*
X40059D1*
Y14724D1*
X39547D1*
Y13583D1*
X43917D2*
X44429D1*
Y14724D1*
X43917D1*
Y13583D1*
X44547D2*
X45059D1*
Y14724D1*
X44547D1*
Y13583D1*
X45177D2*
X45689D1*
Y14724D1*
X45177D1*
Y13583D1*
X16870Y12323D2*
X17382D1*
Y13465D1*
X16870D1*
Y12323D1*
X21240D2*
X21752D1*
Y13465D1*
X21240D1*
Y12323D1*
X24429D2*
X24941D1*
Y13465D1*
X24429D1*
Y12323D1*
X28799D2*
X29311D1*
Y13465D1*
X28799D1*
Y12323D1*
X31988D2*
X32500D1*
Y13465D1*
X31988D1*
Y12323D1*
X36358D2*
X36870D1*
Y13465D1*
X36358D1*
Y12323D1*
X39547D2*
X40059D1*
Y13465D1*
X39547D1*
Y12323D1*
X43917D2*
X44429D1*
Y13465D1*
X43917D1*
Y12323D1*
X15591Y12185D2*
X16732D1*
Y11673D1*
X15591D1*
Y12185D1*
X21890D2*
X23031D1*
Y11673D1*
X21890D1*
Y12185D1*
X23150D2*
X24291D1*
Y11673D1*
X23150D1*
Y12185D1*
X29449D2*
X30591D1*
Y11673D1*
X29449D1*
Y12185D1*
X30709D2*
X31850D1*
Y11673D1*
X30709D1*
Y12185D1*
X37008D2*
X38150D1*
Y11673D1*
X37008D1*
Y12185D1*
X38268D2*
X39409D1*
Y11673D1*
X38268D1*
Y12185D1*
X44567D2*
X45709D1*
Y11673D1*
X44567D1*
Y12185D1*
X15591Y11555D2*
X16732D1*
Y11043D1*
X15591D1*
Y11555D1*
X21890D2*
X23031D1*
Y11043D1*
X21890D1*
Y11555D1*
X23150D2*
X24291D1*
Y11043D1*
X23150D1*
Y11555D1*
X29449D2*
X30591D1*
Y11043D1*
X29449D1*
Y11555D1*
X30709D2*
X31850D1*
Y11043D1*
X30709D1*
Y11555D1*
X37008D2*
X38150D1*
Y11043D1*
X37008D1*
Y11555D1*
X38268D2*
X39409D1*
Y11043D1*
X38268D1*
Y11555D1*
X44567D2*
X45709D1*
Y11043D1*
X44567D1*
Y11555D1*
X48799Y8504D2*
X49311D1*
Y9646D1*
X48799D1*
Y8504D1*
X53658Y16083D2*
D10*
Y16240D1*
X53500D1*
X50902Y13485D2*
X51059D1*
X50902D2*
Y13642D1*
X51059Y16240D2*
X50902D1*
Y16083D2*
Y16240D1*
D17*
X53723Y13405D3*
X18701Y10789D2*
D10*
Y12837D1*
X19882D2*
X18701D1*
X19882Y10789D2*
X19567D1*
X19016D2*
X18701D1*
X19567Y10791D2*
G03X19016Y10791I-276J0D01*
G01*
X19882Y12837D2*
Y10789D1*
X26260D2*
Y12837D1*
X27441D2*
X26260D1*
X27441Y10789D2*
X27126D1*
X26575D2*
X26260D1*
X27126Y10791D2*
G03X26575Y10791I-276J0D01*
G01*
X27441Y12837D2*
Y10789D1*
X33819D2*
Y12837D1*
X35000D2*
X33819D1*
X35000Y10789D2*
X34685D1*
X34134D2*
X33819D1*
X34685Y10791D2*
G03X34134Y10791I-276J0D01*
G01*
X35000Y12837D2*
Y10789D1*
X41378D2*
Y12837D1*
X42559D2*
X41378D1*
X42559Y10789D2*
X42244D1*
X41693D2*
X41378D1*
X42244Y10791D2*
G03X41693Y10791I-276J0D01*
G01*
X42559Y12837D2*
Y10789D1*
X32244Y18874D2*
Y22890D1*
Y18874D2*
X31221D1*
X32244Y22890D2*
X31221D1*
D51*
X33826Y19395D3*
X15331Y20331D2*
D10*
X5331D1*
Y10331D1*
X15331D1*
Y20331D1*
X51378Y8524D2*
X55315D1*
Y3209D1*
X51378D1*
Y8524D1*
X38898Y21969D2*
D14*
X52638D1*
X56102Y23780D2*
Y4528D1*
X38386Y23701D2*
Y22520D1*
X53189Y23740D2*
Y22362D1*
X53622Y24173D2*
X55669D1*
X12992Y23661D2*
Y21772D1*
X6575Y21339D2*
X12441D1*
X37992Y24134D2*
X13425D1*
X6063Y23701D2*
Y21850D1*
X5591Y24173D2*
D3*
X5118Y23740D2*
Y4488D1*
X6063Y23740D2*
G03X5591Y24173I-469J-38D01*
G01*
G03X5118Y23740I-3J-471D01*
G01*
X6575Y21339D2*
G02X6063Y21850I-39J472D01*
G01*
X12441Y21339D2*
G03X12992Y21772I72J476D01*
G01*
X13465Y24134D2*
G03X12992Y23701I-61J-408D01*
G01*
X38898Y21969D2*
G02X38386Y22480I-39J472D01*
G01*
X53661Y24173D2*
G03X53189Y23740I-3J-471D01*
G01*
X52638Y21969D2*
G03X53189Y22402I72J476D01*
G01*
X38386Y23701D2*
G03X37913Y24134I-469J-38D01*
G01*
X56102Y23740D2*
G03X55630Y24173I-469J-38D01*
G01*
X55551Y4094D2*
G03X56102Y4528I72J476D01*
G01*
X55551Y4094D2*
X55315D1*
X5630D2*
G02X5118Y4606I-39J472D01*
G01*
X5630Y4094D2*
X6102D1*
X51378D2*
D10*
X49823D1*
X39173D2*
X38780D1*
X28130D2*
X27776D1*
X18635Y23698D2*
D12*
X19502D1*
X20998D2*
X21178D1*
X16989Y23668D2*
X19532D1*
X20969D2*
X23841D1*
X16989Y23638D2*
X19562D1*
X20939D2*
X23602D1*
X17707Y23608D2*
X19593D1*
X20909D2*
X22913D1*
X18186Y23578D2*
X19627D1*
X20879D2*
X22465D1*
X18934Y23548D2*
X19664D1*
X20848D2*
X21776D1*
X19472Y23518D2*
X19702D1*
X20814D2*
X21129D1*
X19502Y23488D2*
X19737D1*
X20777D2*
X21060D1*
X19532Y23458D2*
X19771D1*
X20739D2*
X21003D1*
X19562Y23428D2*
X19805D1*
X20704D2*
X20956D1*
X19592Y23398D2*
X19840D1*
X20671D2*
X20916D1*
X19622Y23369D2*
X19874D1*
X20640D2*
X20882D1*
X19653Y23339D2*
X19909D1*
X20609D2*
X20849D1*
X19687Y23309D2*
X19944D1*
X20576D2*
X20814D1*
X21447D2*
X21746D1*
X16989Y23279D2*
X17647D1*
X18545D2*
X19054D1*
X19724D2*
X19977D1*
X20541D2*
X20777D1*
X21375D2*
X21819D1*
X22435D2*
X23003D1*
X23243D2*
X23811D1*
X16989Y23249D2*
X17724D1*
X18545D2*
X19067D1*
X19762D2*
X20010D1*
X20507D2*
X20739D1*
X21311D2*
X21882D1*
X22435D2*
X23018D1*
X23228D2*
X23811D1*
X16989Y23219D2*
X17790D1*
X18545D2*
X19076D1*
X19797D2*
X20041D1*
X20472D2*
X20704D1*
X21259D2*
X21934D1*
X22435D2*
X23032D1*
X23215D2*
X23811D1*
X16989Y23189D2*
X17844D1*
X18545D2*
X19080D1*
X19829D2*
X20075D1*
X20437D2*
X20671D1*
X21219D2*
X21976D1*
X22435D2*
X23047D1*
X23202D2*
X23811D1*
X16989Y23159D2*
X17886D1*
X18545D2*
X19082D1*
X19861D2*
X20109D1*
X20403D2*
X20640D1*
X21187D2*
X22011D1*
X22435D2*
X23064D1*
X23189D2*
X23811D1*
X16990Y23129D2*
X17917D1*
X18547D2*
X19083D1*
X19891D2*
X20147D1*
X20369D2*
X20609D1*
X21163D2*
X22039D1*
X22437D2*
X23079D1*
X23175D2*
X23809D1*
X16994Y23099D2*
X17943D1*
X18552D2*
X19083D1*
X19921D2*
X20196D1*
X20329D2*
X20575D1*
X21144D2*
X22062D1*
X22442D2*
X23092D1*
X23159D2*
X23804D1*
X17002Y23069D2*
X17964D1*
X18568D2*
X19083D1*
X19951D2*
X20263D1*
X20278D2*
X20537D1*
X21127D2*
X21579D1*
X21615D2*
X22079D1*
X22458D2*
X23106D1*
X23142D2*
X23787D1*
X17015Y23039D2*
X17408D1*
X17517D2*
X17982D1*
X18584D2*
X18994D1*
X19981D2*
X20500D1*
X21112D2*
X21538D1*
X21655D2*
X22093D1*
X22474D2*
X23772D1*
X17031Y23009D2*
X17408D1*
X17556D2*
X17998D1*
X18595D2*
X18994D1*
X20011D2*
X20465D1*
X21100D2*
X21522D1*
X21671D2*
X22104D1*
X22485D2*
X23761D1*
X17049Y22980D2*
X17408D1*
X17583D2*
X18012D1*
X18600D2*
X18994D1*
X20040D2*
X20432D1*
X21089D2*
X21514D1*
X21680D2*
X22115D1*
X22490D2*
X23755D1*
X17019Y22950D2*
X17408D1*
X17603D2*
X18024D1*
X18603D2*
X18994D1*
X20063D2*
X20400D1*
X21079D2*
X21510D1*
X21684D2*
X22124D1*
X22493D2*
X23753D1*
X17033Y22920D2*
X17408D1*
X17611D2*
X18030D1*
X18604D2*
X18994D1*
X20081D2*
X20366D1*
X21069D2*
X21508D1*
X21686D2*
X22130D1*
X22494D2*
X22734D1*
X22798D2*
X23328D1*
X23392D2*
X23752D1*
X17041Y22890D2*
X17408D1*
X17614D2*
X18034D1*
X18604D2*
X18994D1*
X20078D2*
X20332D1*
X21065D2*
X21507D1*
X21686D2*
X22132D1*
X22494D2*
X22734D1*
X22807D2*
X23320D1*
X23392D2*
X23751D1*
X17044Y22860D2*
X17408D1*
X17615D2*
X18034D1*
X18605D2*
X18994D1*
X20056D2*
X20298D1*
X21065D2*
X21507D1*
X21687D2*
X22130D1*
X22494D2*
X22734D1*
X22818D2*
X23311D1*
X23392D2*
X23751D1*
X17042Y22830D2*
X17408D1*
X17612D2*
X18031D1*
X18605D2*
X18994D1*
X20025D2*
X20263D1*
X21071D2*
X21507D1*
X21686D2*
X22123D1*
X22494D2*
X22734D1*
X22831D2*
X23301D1*
X23392D2*
X23751D1*
X17032Y22800D2*
X17408D1*
X17602D2*
X18024D1*
X18605D2*
X18994D1*
X19993D2*
X20228D1*
X21080D2*
X21509D1*
X21685D2*
X22114D1*
X22494D2*
X22734D1*
X22842D2*
X23287D1*
X23392D2*
X23751D1*
X17019Y22770D2*
X17412D1*
X17587D2*
X18015D1*
X18605D2*
X18996D1*
X19963D2*
X20194D1*
X20520D2*
X20550D1*
X21089D2*
X21513D1*
X21681D2*
X22105D1*
X22494D2*
X22734D1*
X22853D2*
X23271D1*
X23390D2*
X23751D1*
X17049Y22740D2*
X17420D1*
X17539D2*
X18006D1*
X18605D2*
X19001D1*
X19931D2*
X20161D1*
X20486D2*
X20576D1*
X21100D2*
X21535D1*
X21659D2*
X22094D1*
X22494D2*
X22734D1*
X22864D2*
X23257D1*
X23384D2*
X23751D1*
X17025Y22710D2*
X17455D1*
X17466D2*
X17995D1*
X18605D2*
X19022D1*
X19897D2*
X20126D1*
X20456D2*
X20606D1*
X21113D2*
X21591D1*
X21603D2*
X22080D1*
X22494D2*
X22734D1*
X22877D2*
X23245D1*
X23364D2*
X23751D1*
X17007Y22680D2*
X17981D1*
X18545D2*
X19045D1*
X19864D2*
X20089D1*
X20444D2*
X20637D1*
X21130D2*
X22062D1*
X22435D2*
X22794D1*
X22890D2*
X23233D1*
X23341D2*
X23811D1*
X16997Y22650D2*
X17963D1*
X18545D2*
X19064D1*
X19833D2*
X20051D1*
X20449D2*
X20668D1*
X21150D2*
X22040D1*
X22435D2*
X22794D1*
X22902D2*
X23223D1*
X23322D2*
X23811D1*
X16992Y22620D2*
X17940D1*
X18545D2*
X19074D1*
X19802D2*
X20016D1*
X20469D2*
X20699D1*
X21175D2*
X22013D1*
X22435D2*
X22794D1*
X22914D2*
X23213D1*
X23311D2*
X23811D1*
X16990Y22591D2*
X17913D1*
X18545D2*
X19080D1*
X19772D2*
X19983D1*
X20494D2*
X20729D1*
X21207D2*
X21982D1*
X22435D2*
X22794D1*
X22928D2*
X23202D1*
X23306D2*
X23811D1*
X16989Y22561D2*
X17879D1*
X18545D2*
X19082D1*
X19741D2*
X19952D1*
X20521D2*
X20759D1*
X21250D2*
X21946D1*
X22435D2*
X22794D1*
X22944D2*
X23189D1*
X23305D2*
X23811D1*
X16989Y22531D2*
X17838D1*
X18545D2*
X19083D1*
X19707D2*
X19921D1*
X20550D2*
X20790D1*
X21297D2*
X21901D1*
X22435D2*
X22794D1*
X22958D2*
X23175D1*
X23309D2*
X23811D1*
X16989Y22501D2*
X17789D1*
X18545D2*
X19083D1*
X19670D2*
X19890D1*
X20580D2*
X20824D1*
X21343D2*
X21853D1*
X22435D2*
X22794D1*
X22967D2*
X23163D1*
X23319D2*
X23811D1*
X16989Y22471D2*
X17737D1*
X18545D2*
X19083D1*
X19632D2*
X19856D1*
X20611D2*
X20860D1*
X21387D2*
X21806D1*
X22435D2*
X22794D1*
X22973D2*
X23153D1*
X23332D2*
X23811D1*
X19597Y22441D2*
X19819D1*
X20643D2*
X20895D1*
X19564Y22411D2*
X19782D1*
X20678D2*
X20927D1*
X19533Y22381D2*
X19747D1*
X20712D2*
X20959D1*
X19503Y22351D2*
X19714D1*
X20747D2*
X20992D1*
X19473Y22321D2*
X19683D1*
X20782D2*
X21025D1*
X19443Y22291D2*
X19651D1*
X20815D2*
X21057D1*
X18934Y22261D2*
X19617D1*
X20847D2*
X21627D1*
X18425Y22231D2*
X19580D1*
X20878D2*
X22135D1*
X17707Y22202D2*
X19542D1*
X20908D2*
X22854D1*
X16959Y22172D2*
X19507D1*
X20938D2*
X23602D1*
X16959Y22142D2*
X19474D1*
X20968D2*
X23811D1*
X19293Y22112D2*
X19443D1*
X20998D2*
X22016D1*
X18635Y23698D2*
Y23668D1*
X19502Y23698D2*
X19532Y23668D1*
X19562Y23638D1*
X19593Y23608D1*
X19627Y23578D1*
X19664Y23548D1*
X19702Y23518D1*
X19737Y23488D1*
X19771Y23458D1*
X19805Y23428D1*
X19840Y23398D1*
X19874Y23369D1*
X19909Y23339D1*
X19944Y23309D1*
X19977Y23279D1*
X20010Y23249D1*
X20041Y23219D1*
X20075Y23189D1*
X20109Y23159D1*
X20147Y23129D1*
X20196Y23099D1*
X20263Y23069D1*
X20340Y23039D1*
X20998Y23698D2*
X20969Y23668D1*
X20939Y23638D1*
X20909Y23608D1*
X20879Y23578D1*
X20848Y23548D1*
X20814Y23518D1*
X20777Y23488D1*
X20739Y23458D1*
X20704Y23428D1*
X20671Y23398D1*
X20640Y23369D1*
X20609Y23339D1*
X20576Y23309D1*
X20541Y23279D1*
X20507Y23249D1*
X20472Y23219D1*
X20437Y23189D1*
X20403Y23159D1*
X20369Y23129D1*
X20329Y23099D1*
X20278Y23069D1*
X20220Y23039D1*
X21178Y23698D2*
Y23668D1*
X16989D2*
Y23638D1*
X23841Y23668D2*
X23602Y23638D1*
X17677D2*
X17707Y23608D1*
X22943Y23638D2*
X22913Y23608D1*
X18156D2*
X18186Y23578D1*
X22494Y23608D2*
X22465Y23578D1*
X18904D2*
X18934Y23548D1*
X21806Y23578D2*
X21776Y23548D1*
X19443D2*
X19472Y23518D1*
X19502Y23488D1*
X19532Y23458D1*
X19562Y23428D1*
X19592Y23398D1*
X19622Y23369D1*
X19653Y23339D1*
X19687Y23309D1*
X19724Y23279D1*
X19762Y23249D1*
X19797Y23219D1*
X19829Y23189D1*
X19861Y23159D1*
X19891Y23129D1*
X19921Y23099D1*
X19951Y23069D1*
X19981Y23039D1*
X20011Y23009D1*
X20040Y22980D1*
X20063Y22950D1*
X20081Y22920D1*
X20078Y22890D1*
X20056Y22860D1*
X20025Y22830D1*
X19993Y22800D1*
X19963Y22770D1*
X19931Y22740D1*
X19897Y22710D1*
X19864Y22680D1*
X19833Y22650D1*
X19802Y22620D1*
X19772Y22591D1*
X19741Y22561D1*
X19707Y22531D1*
X19670Y22501D1*
X19632Y22471D1*
X19597Y22441D1*
X19564Y22411D1*
X19533Y22381D1*
X19503Y22351D1*
X19473Y22321D1*
X19443Y22291D1*
X19413Y22261D1*
X21208Y23548D2*
X21129Y23518D1*
X21060Y23488D1*
X21003Y23458D1*
X20956Y23428D1*
X20916Y23398D1*
X20882Y23369D1*
X20849Y23339D1*
X20814Y23309D1*
X20777Y23279D1*
X20739Y23249D1*
X20704Y23219D1*
X20671Y23189D1*
X20640Y23159D1*
X20609Y23129D1*
X20575Y23099D1*
X20537Y23069D1*
X20500Y23039D1*
X20465Y23009D1*
X20432Y22980D1*
X20400Y22950D1*
X20366Y22920D1*
X20332Y22890D1*
X20298Y22860D1*
X20263Y22830D1*
X20228Y22800D1*
X20194Y22770D1*
X20161Y22740D1*
X20126Y22710D1*
X20089Y22680D1*
X20051Y22650D1*
X20016Y22620D1*
X19983Y22591D1*
X19952Y22561D1*
X19921Y22531D1*
X19890Y22501D1*
X19856Y22471D1*
X19819Y22441D1*
X19782Y22411D1*
X19747Y22381D1*
X19714Y22351D1*
X19683Y22321D1*
X19651Y22291D1*
X19617Y22261D1*
X19580Y22231D1*
X19542Y22202D1*
X19507Y22172D1*
X19474Y22142D1*
X19443Y22112D1*
X21447Y23309D2*
X21375Y23279D1*
X21311Y23249D1*
X21259Y23219D1*
X21219Y23189D1*
X21187Y23159D1*
X21163Y23129D1*
X21144Y23099D1*
X21127Y23069D1*
X21112Y23039D1*
X21100Y23009D1*
X21089Y22980D1*
X21079Y22950D1*
X21069Y22920D1*
X21065Y22890D1*
Y22860D1*
X21071Y22830D1*
X21080Y22800D1*
X21089Y22770D1*
X21100Y22740D1*
X21113Y22710D1*
X21130Y22680D1*
X21150Y22650D1*
X21175Y22620D1*
X21207Y22591D1*
X21250Y22561D1*
X21297Y22531D1*
X21343Y22501D1*
X21387Y22471D1*
X21746Y23309D2*
X21819Y23279D1*
X21882Y23249D1*
X21934Y23219D1*
X21976Y23189D1*
X22011Y23159D1*
X22039Y23129D1*
X22062Y23099D1*
X22079Y23069D1*
X22093Y23039D1*
X22104Y23009D1*
X22115Y22980D1*
X22124Y22950D1*
X22130Y22920D1*
X22132Y22890D1*
X22130Y22860D1*
X22123Y22830D1*
X22114Y22800D1*
X22105Y22770D1*
X22094Y22740D1*
X22080Y22710D1*
X22062Y22680D1*
X22040Y22650D1*
X22013Y22620D1*
X21982Y22591D1*
X21946Y22561D1*
X21901Y22531D1*
X21853Y22501D1*
X21806Y22471D1*
X16989Y23279D2*
Y23249D1*
Y23219D1*
Y23189D1*
Y23159D1*
X16990Y23129D1*
X16994Y23099D1*
X17002Y23069D1*
X17015Y23039D1*
X17031Y23009D1*
X17049Y22980D1*
X17019Y22950D1*
X17033Y22920D1*
X17041Y22890D1*
X17044Y22860D1*
X17042Y22830D1*
X17032Y22800D1*
X17019Y22770D1*
X17049Y22740D1*
X17025Y22710D1*
X17007Y22680D1*
X16997Y22650D1*
X16992Y22620D1*
X16990Y22591D1*
X16989Y22561D1*
Y22531D1*
Y22501D1*
Y22471D1*
X17647Y23279D2*
X17724Y23249D1*
X17790Y23219D1*
X17844Y23189D1*
X17886Y23159D1*
X17917Y23129D1*
X17943Y23099D1*
X17964Y23069D1*
X17982Y23039D1*
X17998Y23009D1*
X18012Y22980D1*
X18024Y22950D1*
X18030Y22920D1*
X18034Y22890D1*
Y22860D1*
X18031Y22830D1*
X18024Y22800D1*
X18015Y22770D1*
X18006Y22740D1*
X17995Y22710D1*
X17981Y22680D1*
X17963Y22650D1*
X17940Y22620D1*
X17913Y22591D1*
X17879Y22561D1*
X17838Y22531D1*
X17789Y22501D1*
X17737Y22471D1*
X18545Y23279D2*
Y23249D1*
Y23219D1*
Y23189D1*
Y23159D1*
X18547Y23129D1*
X18552Y23099D1*
X18568Y23069D1*
X18584Y23039D1*
X18595Y23009D1*
X18600Y22980D1*
X18603Y22950D1*
X18604Y22920D1*
Y22890D1*
X18605Y22860D1*
Y22830D1*
Y22800D1*
Y22770D1*
Y22740D1*
Y22710D1*
Y22680D1*
X18545D1*
Y22650D1*
Y22620D1*
Y22591D1*
Y22561D1*
Y22531D1*
Y22501D1*
Y22471D1*
X19054Y23279D2*
X19067Y23249D1*
X19076Y23219D1*
X19080Y23189D1*
X19082Y23159D1*
X19083Y23129D1*
Y23099D1*
Y23069D1*
Y23039D1*
X18994D1*
Y23009D1*
Y22980D1*
Y22950D1*
Y22920D1*
Y22890D1*
Y22860D1*
Y22830D1*
Y22800D1*
X18996Y22770D1*
X19001Y22740D1*
X19022Y22710D1*
X19045Y22680D1*
X19064Y22650D1*
X19074Y22620D1*
X19080Y22591D1*
X19082Y22561D1*
X19083Y22531D1*
Y22501D1*
Y22471D1*
X22435Y23279D2*
Y23249D1*
Y23219D1*
Y23189D1*
Y23159D1*
X22437Y23129D1*
X22442Y23099D1*
X22458Y23069D1*
X22474Y23039D1*
X22485Y23009D1*
X22490Y22980D1*
X22493Y22950D1*
X22494Y22920D1*
Y22890D1*
Y22860D1*
Y22830D1*
Y22800D1*
Y22770D1*
Y22740D1*
Y22710D1*
Y22680D1*
X22435D1*
Y22650D1*
Y22620D1*
Y22591D1*
Y22561D1*
Y22531D1*
Y22501D1*
Y22471D1*
X23003Y23279D2*
X23018Y23249D1*
X23032Y23219D1*
X23047Y23189D1*
X23064Y23159D1*
X23079Y23129D1*
X23092Y23099D1*
X23106Y23069D1*
X23123Y23039D1*
X23243Y23279D2*
X23228Y23249D1*
X23215Y23219D1*
X23202Y23189D1*
X23189Y23159D1*
X23175Y23129D1*
X23159Y23099D1*
X23142Y23069D1*
X23123Y23039D1*
X23811Y23279D2*
Y23249D1*
Y23219D1*
Y23189D1*
Y23159D1*
X23809Y23129D1*
X23804Y23099D1*
X23787Y23069D1*
X23772Y23039D1*
X23761Y23009D1*
X23755Y22980D1*
X23753Y22950D1*
X23752Y22920D1*
X23751Y22890D1*
Y22860D1*
Y22830D1*
Y22800D1*
Y22770D1*
Y22740D1*
Y22710D1*
Y22680D1*
X23811D1*
Y22650D1*
Y22620D1*
Y22591D1*
Y22561D1*
Y22531D1*
Y22501D1*
Y22471D1*
X21627Y23099D2*
X21579Y23069D1*
X21538Y23039D1*
X21522Y23009D1*
X21514Y22980D1*
X21510Y22950D1*
X21508Y22920D1*
X21507Y22890D1*
Y22860D1*
Y22830D1*
X21509Y22800D1*
X21513Y22770D1*
X21535Y22740D1*
X21591Y22710D1*
X21657Y22680D1*
X21567Y23099D2*
X21615Y23069D1*
X21655Y23039D1*
X21671Y23009D1*
X21680Y22980D1*
X21684Y22950D1*
X21686Y22920D1*
Y22890D1*
X21687Y22860D1*
X21686Y22830D1*
X21685Y22800D1*
X21681Y22770D1*
X21659Y22740D1*
X21603Y22710D1*
X21537Y22680D1*
X17408Y23069D2*
Y23039D1*
Y23009D1*
Y22980D1*
Y22950D1*
Y22920D1*
Y22890D1*
Y22860D1*
Y22830D1*
Y22800D1*
X17412Y22770D1*
X17420Y22740D1*
X17455Y22710D1*
X17498Y22680D1*
X17468Y23069D2*
X17517Y23039D1*
X17556Y23009D1*
X17583Y22980D1*
X17603Y22950D1*
X17611Y22920D1*
X17614Y22890D1*
X17615Y22860D1*
X17612Y22830D1*
X17602Y22800D1*
X17587Y22770D1*
X17539Y22740D1*
X17466Y22710D1*
X17378Y22680D1*
X22734Y22950D2*
Y22920D1*
Y22890D1*
Y22860D1*
Y22830D1*
Y22800D1*
Y22770D1*
Y22740D1*
Y22710D1*
Y22680D1*
X22794D1*
Y22650D1*
Y22620D1*
Y22591D1*
Y22561D1*
Y22531D1*
Y22501D1*
Y22471D1*
Y22950D2*
X22798Y22920D1*
X22807Y22890D1*
X22818Y22860D1*
X22831Y22830D1*
X22842Y22800D1*
X22853Y22770D1*
X22864Y22740D1*
X22877Y22710D1*
X22890Y22680D1*
X22902Y22650D1*
X22914Y22620D1*
X22928Y22591D1*
X22944Y22561D1*
X22958Y22531D1*
X22967Y22501D1*
X22973Y22471D1*
X23332Y22950D2*
X23328Y22920D1*
X23320Y22890D1*
X23311Y22860D1*
X23301Y22830D1*
X23287Y22800D1*
X23271Y22770D1*
X23257Y22740D1*
X23245Y22710D1*
X23233Y22680D1*
X23223Y22650D1*
X23213Y22620D1*
X23202Y22591D1*
X23189Y22561D1*
X23175Y22531D1*
X23163Y22501D1*
X23153Y22471D1*
X23392Y22950D2*
Y22920D1*
Y22890D1*
Y22860D1*
Y22830D1*
Y22800D1*
X23390Y22770D1*
X23384Y22740D1*
X23364Y22710D1*
X23341Y22680D1*
X23322Y22650D1*
X23311Y22620D1*
X23306Y22591D1*
X23305Y22561D1*
X23309Y22531D1*
X23319Y22501D1*
X23332Y22471D1*
X20520Y22770D2*
X20486Y22740D1*
X20456Y22710D1*
X20444Y22680D1*
X20449Y22650D1*
X20469Y22620D1*
X20494Y22591D1*
X20521Y22561D1*
X20550Y22531D1*
X20580Y22501D1*
X20611Y22471D1*
X20643Y22441D1*
X20678Y22411D1*
X20712Y22381D1*
X20747Y22351D1*
X20782Y22321D1*
X20815Y22291D1*
X20847Y22261D1*
X20878Y22231D1*
X20908Y22202D1*
X20938Y22172D1*
X20968Y22142D1*
X20998Y22112D1*
X20550Y22770D2*
X20576Y22740D1*
X20606Y22710D1*
X20637Y22680D1*
X20668Y22650D1*
X20699Y22620D1*
X20729Y22591D1*
X20759Y22561D1*
X20790Y22531D1*
X20824Y22501D1*
X20860Y22471D1*
X20895Y22441D1*
X20927Y22411D1*
X20959Y22381D1*
X20992Y22351D1*
X21025Y22321D1*
X21057Y22291D1*
X21088Y22261D1*
X18934D2*
Y22231D1*
X21627Y22261D2*
Y22231D1*
X18425D2*
Y22202D1*
X22135Y22231D2*
Y22202D1*
X17707D2*
Y22172D1*
X22854Y22202D2*
Y22172D1*
X16959D2*
Y22142D1*
X23602Y22172D2*
X23811Y22142D1*
X19263D2*
X19293Y22112D1*
X22046Y22142D2*
X22016Y22112D1*
X6284Y7795D2*
D115*
X6169Y8097D1*
X6054Y7795D1*
X6097Y7896D2*
X6240D1*
X6376Y8097D2*
Y7882D1*
X6391Y7838D1*
X6419Y7810D1*
X6462Y7795D1*
X6491D1*
X6534Y7810D1*
X6563Y7838D1*
X6577Y7882D1*
Y8097D1*
X6670D2*
Y7795D1*
X6770D1*
X6813Y7810D1*
X6842Y7838D1*
X6857Y7867D1*
X6871Y7910D1*
Y7982D1*
X6857Y8025D1*
X6842Y8054D1*
X6813Y8083D1*
X6770Y8097D1*
X6670D1*
X6963D2*
Y7795D1*
X7142Y8097D2*
X7113Y8083D1*
X7085Y8054D1*
X7070Y8025D1*
X7056Y7982D1*
Y7910D1*
X7070Y7867D1*
X7085Y7838D1*
X7113Y7810D1*
X7142Y7795D1*
X7200D1*
X7228Y7810D1*
X7257Y7838D1*
X7271Y7867D1*
X7286Y7910D1*
Y7982D1*
X7271Y8025D1*
X7257Y8054D1*
X7228Y8083D1*
X7200Y8097D1*
X7142D1*
X7378Y8039D2*
X7407Y8054D1*
X7450Y8096D1*
Y7795D1*
X17302Y7815D2*
X17187Y8117D1*
X17072Y7815D1*
X17115Y7916D2*
X17259D1*
X17394Y8117D2*
Y7901D1*
X17409Y7858D1*
X17438Y7830D1*
X17481Y7815D1*
X17509D1*
X17552Y7830D1*
X17581Y7858D1*
X17595Y7901D1*
Y8117D1*
X17688D2*
Y7815D1*
X17788D1*
X17832Y7830D1*
X17860Y7858D1*
X17875Y7887D1*
X17889Y7930D1*
Y8002D1*
X17875Y8045D1*
X17860Y8073D1*
X17832Y8102D1*
X17788Y8117D1*
X17688D1*
X17982D2*
Y7815D1*
X18160Y8117D2*
X18132Y8102D1*
X18103Y8073D1*
X18089Y8045D1*
X18074Y8002D1*
Y7930D1*
X18089Y7887D1*
X18103Y7858D1*
X18132Y7830D1*
X18160Y7815D1*
X18218D1*
X18246Y7830D1*
X18275Y7858D1*
X18289Y7887D1*
X18304Y7930D1*
Y8002D1*
X18289Y8045D1*
X18275Y8073D1*
X18246Y8102D1*
X18218Y8117D1*
X18160D1*
X18411Y8045D2*
Y8059D1*
X18425Y8088D1*
X18439Y8102D1*
X18468Y8116D1*
X18526D1*
X18554Y8102D1*
X18568Y8088D1*
X18583Y8059D1*
Y8030D1*
X18568Y8001D1*
X18540Y7959D1*
X18396Y7815D1*
X18597D1*
X28936Y7854D2*
X28821Y8156D1*
X28706Y7854D1*
X28749Y7955D2*
X28893D1*
X29028Y8156D2*
Y7941D1*
X29043Y7898D1*
X29071Y7869D1*
X29114Y7854D1*
X29143D1*
X29186Y7869D1*
X29215Y7898D1*
X29229Y7941D1*
Y8156D1*
X29322D2*
Y7854D1*
X29422D1*
X29465Y7869D1*
X29494Y7898D1*
X29509Y7926D1*
X29523Y7969D1*
Y8041D1*
X29509Y8084D1*
X29494Y8113D1*
X29465Y8142D1*
X29422Y8156D1*
X29322D1*
X29615D2*
Y7854D1*
X29794Y8156D2*
X29765Y8142D1*
X29737Y8113D1*
X29722Y8084D1*
X29708Y8041D1*
Y7969D1*
X29722Y7926D1*
X29737Y7898D1*
X29765Y7869D1*
X29794Y7854D1*
X29852D1*
X29880Y7869D1*
X29909Y7898D1*
X29923Y7926D1*
X29938Y7969D1*
Y8041D1*
X29923Y8084D1*
X29909Y8113D1*
X29880Y8142D1*
X29852Y8156D1*
X29794D1*
X30059D2*
X30217D1*
X30131Y8041D1*
X30174D1*
X30202Y8027D1*
X30217Y8012D1*
X30231Y7969D1*
Y7941D1*
X30217Y7898D1*
X30188Y7869D1*
X30145Y7854D1*
X30102D1*
X30059Y7869D1*
X30045Y7883D1*
X30030Y7912D1*
X39401Y7776D2*
X39286Y8077D1*
X39171Y7776D1*
X39214Y7876D2*
X39358D1*
X39494Y8077D2*
Y7862D1*
X39508Y7819D1*
X39537Y7790D1*
X39580Y7776D1*
X39608D1*
X39651Y7790D1*
X39680Y7819D1*
X39695Y7862D1*
Y8077D1*
X39787D2*
Y7776D1*
X39888D1*
X39931Y7790D1*
X39960Y7819D1*
X39974Y7848D1*
X39988Y7890D1*
Y7962D1*
X39974Y8006D1*
X39960Y8034D1*
X39931Y8063D1*
X39888Y8077D1*
X39787D1*
X40081D2*
Y7776D1*
X40260Y8077D2*
X40231Y8063D1*
X40202Y8034D1*
X40188Y8006D1*
X40173Y7962D1*
Y7890D1*
X40188Y7848D1*
X40202Y7819D1*
X40231Y7790D1*
X40260Y7776D1*
X40317D1*
X40346Y7790D1*
X40374Y7819D1*
X40389Y7848D1*
X40403Y7890D1*
Y7962D1*
X40389Y8006D1*
X40374Y8034D1*
X40346Y8063D1*
X40317Y8077D1*
X40260D1*
X40639Y7776D2*
Y8077D1*
X40496Y7876D1*
X40711D1*
X16254Y20706D2*
X16240Y20735D1*
X16211Y20764D1*
X16182Y20778D1*
X16125D1*
X16096Y20764D1*
X16067Y20735D1*
X16053Y20706D1*
X16039Y20663D1*
Y20591D1*
X16053Y20548D1*
X16067Y20519D1*
X16096Y20491D1*
X16125Y20476D1*
X16182D1*
X16211Y20491D1*
X16240Y20519D1*
X16254Y20548D1*
X16346Y20720D2*
X16375Y20735D1*
X16418Y20777D1*
Y20476D1*
X36839Y19072D2*
X36825Y19101D1*
X36796Y19130D1*
X36767Y19144D1*
X36710D1*
X36681Y19130D1*
X36653Y19101D1*
X36638Y19072D1*
X36624Y19029D1*
Y18957D1*
X36638Y18914D1*
X36653Y18886D1*
X36681Y18857D1*
X36710Y18842D1*
X36767D1*
X36796Y18857D1*
X36825Y18886D1*
X36839Y18914D1*
X36946Y19072D2*
Y19086D1*
X36960Y19115D1*
X36975Y19129D1*
X37003Y19144D1*
X37061D1*
X37089Y19129D1*
X37104Y19115D1*
X37118Y19086D1*
Y19058D1*
X37104Y19029D1*
X37075Y18986D1*
X36932Y18842D1*
X37132D1*
X34967Y21378D2*
X34938Y21364D1*
X34910Y21335D1*
X34895Y21307D1*
Y21249D1*
X34910Y21220D1*
X34938Y21192D1*
X34967Y21177D1*
X35010Y21163D1*
X35082D1*
X35125Y21177D1*
X35154Y21192D1*
X35182Y21220D1*
X35197Y21249D1*
Y21307D1*
X35182Y21335D1*
X35154Y21364D1*
X35125Y21378D1*
X34896Y21500D2*
Y21657D1*
X35010Y21571D1*
Y21614D1*
X35025Y21643D1*
X35039Y21657D1*
X35082Y21672D1*
X35111D1*
X35154Y21657D1*
X35182Y21629D1*
X35197Y21586D1*
Y21542D1*
X35182Y21500D1*
X35168Y21485D1*
X35139Y21471D1*
X22336Y17694D2*
X22322Y17723D1*
X22293Y17752D1*
X22265Y17766D1*
X22207D1*
X22178Y17752D1*
X22150Y17723D1*
X22135Y17694D1*
X22121Y17651D1*
Y17579D1*
X22135Y17536D1*
X22150Y17508D1*
X22178Y17479D1*
X22207Y17464D1*
X22265D1*
X22293Y17479D1*
X22322Y17508D1*
X22336Y17536D1*
X22572Y17464D2*
Y17766D1*
X22429Y17565D1*
X22644D1*
X18997Y17655D2*
X18983Y17683D1*
X18954Y17712D1*
X18925Y17727D1*
X18868D1*
X18839Y17712D1*
X18810Y17683D1*
X18796Y17655D1*
X18782Y17612D1*
Y17540D1*
X18796Y17497D1*
X18810Y17468D1*
X18839Y17440D1*
X18868Y17425D1*
X18925D1*
X18954Y17440D1*
X18983Y17468D1*
X18997Y17497D1*
X19262Y17726D2*
X19118D1*
X19104Y17597D1*
X19118Y17611D1*
X19161Y17626D1*
X19204D1*
X19247Y17611D1*
X19276Y17583D1*
X19290Y17540D1*
Y17511D1*
X19276Y17468D1*
X19247Y17439D1*
X19204Y17425D1*
X19161D1*
X19118Y17439D1*
X19104Y17454D1*
X19089Y17482D1*
X48953Y20391D2*
X48938Y20420D1*
X48909Y20449D1*
X48881Y20463D1*
X48824D1*
X48795Y20449D1*
X48766Y20420D1*
X48752Y20391D1*
X48737Y20348D1*
Y20276D1*
X48752Y20233D1*
X48766Y20204D1*
X48795Y20176D1*
X48824Y20161D1*
X48881D1*
X48909Y20176D1*
X48938Y20204D1*
X48953Y20233D1*
X49217Y20420D2*
X49203Y20448D1*
X49160Y20462D1*
X49131D1*
X49088Y20448D1*
X49059Y20405D1*
X49045Y20333D1*
Y20262D1*
X49059Y20204D1*
X49088Y20176D1*
X49131Y20161D1*
X49146D1*
X49188Y20176D1*
X49217Y20204D1*
X49232Y20248D1*
Y20262D1*
X49217Y20305D1*
X49188Y20333D1*
X49146Y20348D1*
X49131D1*
X49088Y20333D1*
X49059Y20305D1*
X49045Y20262D1*
X34967Y19921D2*
X34938Y19907D1*
X34910Y19878D1*
X34895Y19850D1*
Y19792D1*
X34910Y19764D1*
X34938Y19735D1*
X34967Y19720D1*
X35010Y19706D1*
X35082D1*
X35125Y19720D1*
X35154Y19735D1*
X35182Y19764D1*
X35197Y19792D1*
Y19850D1*
X35182Y19878D1*
X35154Y19907D1*
X35125Y19921D1*
X35197Y20071D2*
X34896Y20215D1*
Y20014D1*
X46902Y16033D2*
X46887Y16062D1*
X46858Y16091D1*
X46830Y16105D1*
X46773D1*
X46744Y16091D1*
X46715Y16062D1*
X46701Y16033D1*
X46686Y15990D1*
Y15918D1*
X46701Y15875D1*
X46715Y15847D1*
X46744Y15818D1*
X46773Y15803D1*
X46830D1*
X46858Y15818D1*
X46887Y15847D1*
X46902Y15875D1*
X47066Y16105D2*
X47023Y16090D1*
X47008Y16062D1*
Y16033D1*
X47023Y16004D1*
X47052Y15990D1*
X47109Y15976D1*
X47152Y15961D1*
X47181Y15932D1*
X47195Y15904D1*
Y15861D1*
X47181Y15832D1*
X47166Y15818D1*
X47123Y15803D1*
X47066D1*
X47023Y15818D1*
X47008Y15832D1*
X46994Y15861D1*
Y15904D1*
X47008Y15932D1*
X47037Y15961D1*
X47080Y15976D1*
X47137Y15990D1*
X47166Y16004D1*
X47181Y16033D1*
Y16062D1*
X47166Y16090D1*
X47123Y16105D1*
X47066D1*
X35486Y18215D2*
X35472Y18244D1*
X35443Y18273D1*
X35415Y18287D1*
X35357D1*
X35329Y18273D1*
X35300Y18244D1*
X35285Y18215D1*
X35271Y18172D1*
Y18100D1*
X35285Y18057D1*
X35300Y18028D1*
X35329Y18000D1*
X35357Y17985D1*
X35415D1*
X35443Y18000D1*
X35472Y18028D1*
X35486Y18057D1*
X35766Y18186D2*
X35751Y18143D1*
X35723Y18114D1*
X35680Y18100D1*
X35665D1*
X35622Y18114D1*
X35594Y18143D1*
X35579Y18186D1*
Y18201D1*
X35594Y18244D1*
X35622Y18272D1*
X35665Y18286D1*
X35680D1*
X35723Y18272D1*
X35751Y18244D1*
X35766Y18186D1*
Y18114D1*
X35751Y18043D1*
X35723Y18000D1*
X35680Y17985D1*
X35651D1*
X35608Y18000D1*
X35594Y18028D1*
X51375Y16962D2*
X51360Y16991D1*
X51331Y17020D1*
X51303Y17034D1*
X51246D1*
X51217Y17020D1*
X51188Y16991D1*
X51174Y16962D1*
X51159Y16919D1*
Y16847D1*
X51174Y16804D1*
X51188Y16775D1*
X51217Y16747D1*
X51246Y16732D1*
X51303D1*
X51331Y16747D1*
X51360Y16775D1*
X51375Y16804D1*
X51467Y16976D2*
X51496Y16991D1*
X51539Y17033D1*
Y16732D1*
X51718Y17033D2*
X51675Y17019D1*
X51646Y16976D1*
X51632Y16904D1*
Y16861D1*
X51646Y16790D1*
X51675Y16747D1*
X51718Y16732D1*
X51747D1*
X51790Y16747D1*
X51818Y16790D1*
X51833Y16861D1*
Y16904D1*
X51818Y16976D1*
X51790Y17019D1*
X51747Y17033D1*
X51718D1*
X51818Y16976D2*
X51646Y16790D1*
X50164Y16360D2*
X50135Y16346D1*
X50106Y16317D1*
X50092Y16289D1*
Y16231D1*
X50106Y16202D1*
X50135Y16174D1*
X50164Y16159D1*
X50207Y16145D1*
X50279D1*
X50322Y16159D1*
X50350Y16174D1*
X50379Y16202D1*
X50394Y16231D1*
Y16289D1*
X50379Y16317D1*
X50350Y16346D1*
X50322Y16360D1*
X50150Y16453D2*
X50135Y16482D1*
X50092Y16525D1*
X50394D1*
X50150Y16618D2*
X50135Y16646D1*
X50092Y16690D1*
X50394D1*
X46414Y14954D2*
X46400Y14983D1*
X46371Y15012D1*
X46342Y15026D1*
X46285D1*
X46256Y15012D1*
X46228Y14983D1*
X46213Y14954D1*
X46199Y14911D1*
Y14839D1*
X46213Y14796D1*
X46228Y14768D1*
X46256Y14739D1*
X46285Y14725D1*
X46342D1*
X46371Y14739D1*
X46400Y14768D1*
X46414Y14796D1*
X46507Y14968D2*
X46535Y14983D1*
X46579Y15026D1*
Y14725D1*
X46686Y14954D2*
Y14968D1*
X46700Y14997D1*
X46714Y15011D1*
X46743Y15026D1*
X46801D1*
X46829Y15011D1*
X46843Y14997D1*
X46858Y14968D1*
Y14940D1*
X46843Y14911D1*
X46815Y14868D1*
X46671Y14725D1*
X46872D1*
X50085Y14721D2*
X50057Y14707D1*
X50028Y14678D1*
X50013Y14649D1*
Y14592D1*
X50028Y14563D1*
X50057Y14535D1*
X50085Y14520D1*
X50128Y14506D1*
X50200D1*
X50243Y14520D1*
X50272Y14535D1*
X50300Y14563D1*
X50315Y14592D1*
Y14649D1*
X50300Y14678D1*
X50272Y14707D1*
X50243Y14721D1*
X50071Y14814D2*
X50057Y14843D1*
X50014Y14886D1*
X50315D1*
X50014Y15007D2*
Y15165D1*
X50128Y15079D1*
Y15122D1*
X50143Y15150D1*
X50157Y15165D1*
X50200Y15179D1*
X50229D1*
X50272Y15165D1*
X50301Y15136D1*
X50315Y15093D1*
Y15050D1*
X50301Y15007D1*
X50286Y14993D1*
X50257Y14978D1*
X20833Y14340D2*
X20805Y14326D1*
X20776Y14297D1*
X20761Y14268D1*
Y14211D1*
X20776Y14182D1*
X20805Y14154D1*
X20833Y14139D1*
X20876Y14125D1*
X20948D1*
X20991Y14139D1*
X21020Y14154D1*
X21048Y14182D1*
X21063Y14211D1*
Y14268D1*
X21048Y14297D1*
X21020Y14326D1*
X20991Y14340D1*
X20819Y14433D2*
X20805Y14461D1*
X20762Y14504D1*
X21063D1*
Y14741D2*
X20762D1*
X20962Y14597D1*
Y14812D1*
X28392Y14347D2*
X28364Y14333D1*
X28335Y14304D1*
X28321Y14275D1*
Y14218D1*
X28335Y14189D1*
X28364Y14161D1*
X28392Y14146D1*
X28435Y14132D1*
X28507D1*
X28550Y14146D1*
X28579Y14161D1*
X28607Y14189D1*
X28622Y14218D1*
Y14275D1*
X28607Y14304D1*
X28579Y14333D1*
X28550Y14347D1*
X28378Y14440D2*
X28364Y14469D1*
X28321Y14512D1*
X28622D1*
X28321Y14776D2*
Y14633D1*
X28450Y14619D1*
X28436Y14633D1*
X28421Y14676D1*
Y14719D1*
X28436Y14762D1*
X28464Y14791D1*
X28507Y14805D1*
X28536D1*
X28579Y14791D1*
X28608Y14762D1*
X28622Y14719D1*
Y14676D1*
X28608Y14633D1*
X28593Y14619D1*
X28565Y14604D1*
X35951Y14354D2*
X35923Y14340D1*
X35894Y14311D1*
X35880Y14283D1*
Y14225D1*
X35894Y14196D1*
X35923Y14168D1*
X35951Y14153D1*
X35994Y14139D1*
X36066D1*
X36109Y14153D1*
X36138Y14168D1*
X36166Y14196D1*
X36181Y14225D1*
Y14283D1*
X36166Y14311D1*
X36138Y14340D1*
X36109Y14354D1*
X35937Y14447D2*
X35923Y14476D1*
X35880Y14519D1*
X36181D1*
X35923Y14784D2*
X35894Y14769D1*
X35880Y14726D1*
Y14698D1*
X35894Y14655D1*
X35937Y14626D1*
X36009Y14612D1*
X36081D1*
X36138Y14626D1*
X36167Y14655D1*
X36181Y14698D1*
Y14712D1*
X36167Y14755D1*
X36138Y14784D1*
X36095Y14798D1*
X36081D1*
X36037Y14784D1*
X36009Y14755D1*
X35995Y14712D1*
Y14698D1*
X36009Y14655D1*
X36037Y14626D1*
X36081Y14612D1*
X43471Y14426D2*
X43442Y14411D1*
X43414Y14383D1*
X43399Y14354D1*
Y14297D1*
X43414Y14268D1*
X43442Y14239D1*
X43471Y14225D1*
X43514Y14211D1*
X43586D1*
X43629Y14225D1*
X43658Y14239D1*
X43686Y14268D1*
X43701Y14297D1*
Y14354D1*
X43686Y14383D1*
X43658Y14411D1*
X43629Y14426D1*
X43457Y14518D2*
X43442Y14547D1*
X43400Y14590D1*
X43701D1*
Y14740D2*
X43400Y14884D1*
Y14683D1*
X19327Y14423D2*
X19313Y14451D1*
X19284Y14480D1*
X19256Y14494D1*
X19198D1*
X19170Y14480D1*
X19141Y14451D1*
X19127Y14423D1*
X19112Y14380D1*
Y14308D1*
X19127Y14265D1*
X19141Y14236D1*
X19170Y14208D1*
X19198Y14193D1*
X19256D1*
X19284Y14208D1*
X19313Y14236D1*
X19327Y14265D1*
X19420Y14437D2*
X19449Y14451D1*
X19492Y14494D1*
Y14193D1*
X19656Y14494D2*
X19614Y14480D1*
X19599Y14451D1*
Y14422D1*
X19614Y14394D1*
X19642Y14379D1*
X19699Y14365D1*
X19743Y14351D1*
X19771Y14322D1*
X19785Y14293D1*
Y14250D1*
X19771Y14222D1*
X19757Y14207D1*
X19714Y14193D1*
X19656D1*
X19614Y14207D1*
X19599Y14222D1*
X19585Y14250D1*
Y14293D1*
X19599Y14322D1*
X19628Y14351D1*
X19671Y14365D1*
X19728Y14379D1*
X19757Y14394D1*
X19771Y14422D1*
Y14451D1*
X19757Y14480D1*
X19714Y14494D1*
X19656D1*
X26894Y14423D2*
X26879Y14451D1*
X26850Y14480D1*
X26822Y14494D1*
X26765D1*
X26736Y14480D1*
X26707Y14451D1*
X26693Y14423D1*
X26678Y14380D1*
Y14308D1*
X26693Y14265D1*
X26707Y14236D1*
X26736Y14208D1*
X26765Y14193D1*
X26822D1*
X26850Y14208D1*
X26879Y14236D1*
X26894Y14265D1*
X26986Y14437D2*
X27015Y14451D1*
X27058Y14494D1*
Y14193D1*
X27337Y14394D2*
X27323Y14351D1*
X27294Y14322D1*
X27251Y14308D1*
X27237D1*
X27194Y14322D1*
X27165Y14351D1*
X27151Y14394D1*
Y14408D1*
X27165Y14451D1*
X27194Y14480D1*
X27237Y14494D1*
X27251D1*
X27294Y14480D1*
X27323Y14451D1*
X27337Y14394D1*
Y14322D1*
X27323Y14250D1*
X27294Y14207D1*
X27251Y14193D1*
X27223D1*
X27180Y14207D1*
X27165Y14236D1*
X34381Y14423D2*
X34367Y14451D1*
X34338Y14480D1*
X34309Y14494D1*
X34252D1*
X34223Y14480D1*
X34195Y14451D1*
X34180Y14423D1*
X34166Y14380D1*
Y14308D1*
X34180Y14265D1*
X34195Y14236D1*
X34223Y14208D1*
X34252Y14193D1*
X34309D1*
X34338Y14208D1*
X34367Y14236D1*
X34381Y14265D1*
X34488Y14422D2*
Y14437D1*
X34502Y14466D1*
X34517Y14480D1*
X34546Y14494D1*
X34603D1*
X34631Y14480D1*
X34646Y14466D1*
X34660Y14437D1*
Y14408D1*
X34646Y14379D1*
X34617Y14337D1*
X34474Y14193D1*
X34675D1*
X34853Y14494D2*
X34810Y14480D1*
X34781Y14437D1*
X34767Y14365D1*
Y14322D1*
X34781Y14250D1*
X34810Y14207D1*
X34853Y14193D1*
X34882D1*
X34925Y14207D1*
X34954Y14250D1*
X34968Y14322D1*
Y14365D1*
X34954Y14437D1*
X34925Y14480D1*
X34882Y14494D1*
X34853D1*
X34954Y14437D2*
X34781Y14250D1*
X42004Y14423D2*
X41990Y14451D1*
X41961Y14480D1*
X41933Y14494D1*
X41875D1*
X41847Y14480D1*
X41818Y14451D1*
X41804Y14423D1*
X41789Y14380D1*
Y14308D1*
X41804Y14265D1*
X41818Y14236D1*
X41847Y14208D1*
X41875Y14193D1*
X41933D1*
X41961Y14208D1*
X41990Y14236D1*
X42004Y14265D1*
X42112Y14422D2*
Y14437D1*
X42126Y14466D1*
X42140Y14480D1*
X42169Y14494D1*
X42226D1*
X42255Y14480D1*
X42269Y14466D1*
X42284Y14437D1*
Y14408D1*
X42269Y14379D1*
X42241Y14337D1*
X42097Y14193D1*
X42298D1*
X42391Y14437D2*
X42420Y14451D1*
X42463Y14494D1*
Y14193D1*
X50203Y13160D2*
X50175Y13146D1*
X50146Y13117D1*
X50132Y13089D1*
Y13031D1*
X50146Y13003D1*
X50175Y12974D1*
X50203Y12960D1*
X50246Y12945D1*
X50318D1*
X50361Y12960D1*
X50390Y12974D1*
X50418Y13003D1*
X50433Y13031D1*
Y13089D1*
X50418Y13117D1*
X50390Y13146D1*
X50361Y13160D1*
X50203Y13268D2*
X50189D1*
X50160Y13282D1*
X50146Y13296D1*
X50132Y13325D1*
Y13382D1*
X50146Y13411D1*
X50160Y13425D1*
X50189Y13440D1*
X50218D1*
X50247Y13425D1*
X50289Y13397D1*
X50433Y13253D1*
Y13454D1*
X50203Y13561D2*
X50189D1*
X50160Y13576D1*
X50146Y13590D1*
X50132Y13619D1*
Y13676D1*
X50146Y13705D1*
X50160Y13719D1*
X50189Y13733D1*
X50218D1*
X50247Y13719D1*
X50289Y13690D1*
X50433Y13547D1*
Y13748D1*
X47861Y10060D2*
X47847Y10089D1*
X47818Y10118D1*
X47790Y10132D1*
X47732D1*
X47704Y10118D1*
X47675Y10089D1*
X47660Y10060D1*
X47646Y10017D1*
Y9945D1*
X47660Y9902D1*
X47675Y9873D1*
X47704Y9845D1*
X47732Y9830D1*
X47790D1*
X47818Y9845D1*
X47847Y9873D1*
X47861Y9902D1*
X47969Y10060D2*
Y10074D1*
X47983Y10103D1*
X47997Y10117D1*
X48026Y10131D1*
X48083D1*
X48112Y10117D1*
X48126Y10103D1*
X48141Y10074D1*
Y10046D1*
X48126Y10017D1*
X48098Y9974D1*
X47954Y9830D1*
X48155D1*
X48276Y10131D2*
X48434D1*
X48348Y10017D1*
X48391D1*
X48420Y10002D1*
X48434Y9988D1*
X48449Y9945D1*
Y9917D1*
X48434Y9873D1*
X48405Y9845D1*
X48362Y9830D1*
X48319D1*
X48276Y9845D1*
X48262Y9859D1*
X48248Y9888D1*
X15752Y10230D2*
X15738Y10258D1*
X15709Y10287D1*
X15680Y10302D1*
X15623D1*
X15594Y10287D1*
X15565Y10258D1*
X15551Y10230D1*
X15537Y10187D1*
Y10115D1*
X15551Y10072D1*
X15565Y10043D1*
X15594Y10015D1*
X15623Y10000D1*
X15680D1*
X15709Y10015D1*
X15738Y10043D1*
X15752Y10072D1*
X15859Y10230D2*
Y10244D1*
X15873Y10273D1*
X15888Y10287D1*
X15916Y10301D1*
X15974D1*
X16002Y10287D1*
X16017Y10273D1*
X16031Y10244D1*
Y10215D1*
X16017Y10186D1*
X15988Y10144D1*
X15844Y10000D1*
X16045D1*
X16282D2*
Y10301D1*
X16138Y10101D1*
X16353D1*
X22097Y10860D2*
X22083Y10888D1*
X22054Y10917D1*
X22026Y10931D1*
X21968D1*
X21940Y10917D1*
X21911Y10888D1*
X21897Y10860D1*
X21882Y10817D1*
Y10745D1*
X21897Y10702D1*
X21911Y10673D1*
X21940Y10645D1*
X21968Y10630D1*
X22026D1*
X22054Y10645D1*
X22083Y10673D1*
X22097Y10702D1*
X22205Y10860D2*
Y10874D1*
X22219Y10903D1*
X22233Y10917D1*
X22262Y10931D1*
X22319D1*
X22348Y10917D1*
X22362Y10903D1*
X22377Y10874D1*
Y10845D1*
X22362Y10816D1*
X22334Y10774D1*
X22190Y10630D1*
X22391D1*
X22656Y10931D2*
X22513D1*
X22498Y10802D1*
X22513Y10816D1*
X22556Y10831D1*
X22598D1*
X22642Y10816D1*
X22670Y10788D1*
X22685Y10745D1*
Y10716D1*
X22670Y10673D1*
X22642Y10644D1*
X22598Y10630D1*
X22556D1*
X22513Y10644D1*
X22498Y10659D1*
X22484Y10687D1*
X23168Y10269D2*
X23154Y10298D1*
X23125Y10327D1*
X23096Y10341D1*
X23039D1*
X23010Y10327D1*
X22981Y10298D1*
X22967Y10269D1*
X22953Y10226D1*
Y10154D1*
X22967Y10111D1*
X22981Y10083D1*
X23010Y10054D1*
X23039Y10039D1*
X23096D1*
X23125Y10054D1*
X23154Y10083D1*
X23168Y10111D1*
X23275Y10269D2*
Y10283D1*
X23289Y10312D1*
X23304Y10326D1*
X23332Y10341D1*
X23390D1*
X23418Y10326D1*
X23433Y10312D1*
X23447Y10283D1*
Y10255D1*
X23433Y10226D1*
X23404Y10183D1*
X23260Y10039D1*
X23461D1*
X23726Y10298D2*
X23712Y10326D1*
X23669Y10341D1*
X23640D1*
X23597Y10326D1*
X23568Y10283D1*
X23554Y10212D1*
Y10140D1*
X23568Y10083D1*
X23597Y10054D1*
X23640Y10039D1*
X23654D1*
X23697Y10054D1*
X23726Y10083D1*
X23740Y10126D1*
Y10140D1*
X23726Y10183D1*
X23697Y10212D1*
X23654Y10226D1*
X23640D1*
X23597Y10212D1*
X23568Y10183D1*
X23554Y10140D1*
X29617Y10820D2*
X29603Y10849D1*
X29574Y10878D1*
X29546Y10892D1*
X29488D1*
X29459Y10878D1*
X29431Y10849D1*
X29416Y10820D1*
X29402Y10777D1*
Y10705D1*
X29416Y10663D1*
X29431Y10634D1*
X29459Y10605D1*
X29488Y10591D1*
X29546D1*
X29574Y10605D1*
X29603Y10634D1*
X29617Y10663D1*
X29724Y10820D2*
Y10834D1*
X29739Y10863D1*
X29753Y10878D1*
X29782Y10892D1*
X29839D1*
X29868Y10878D1*
X29882Y10863D1*
X29896Y10834D1*
Y10806D1*
X29882Y10777D1*
X29853Y10734D1*
X29710Y10591D1*
X29911D1*
X30061D2*
X30204Y10892D1*
X30003D1*
X30759Y10269D2*
X30745Y10298D1*
X30716Y10327D1*
X30687Y10341D1*
X30630D1*
X30601Y10327D1*
X30573Y10298D1*
X30558Y10269D1*
X30544Y10226D1*
Y10154D1*
X30558Y10111D1*
X30573Y10083D1*
X30601Y10054D1*
X30630Y10039D1*
X30687D1*
X30716Y10054D1*
X30745Y10083D1*
X30759Y10111D1*
X30866Y10269D2*
Y10283D1*
X30881Y10312D1*
X30895Y10326D1*
X30924Y10341D1*
X30981D1*
X31010Y10326D1*
X31024Y10312D1*
X31038Y10283D1*
Y10255D1*
X31024Y10226D1*
X30995Y10183D1*
X30852Y10039D1*
X31053D1*
X31217Y10341D2*
X31174Y10326D1*
X31160Y10298D1*
Y10269D1*
X31174Y10240D1*
X31203Y10226D1*
X31260Y10212D1*
X31303Y10197D1*
X31332Y10168D1*
X31346Y10140D1*
Y10097D1*
X31332Y10068D1*
X31317Y10054D1*
X31274Y10039D1*
X31217D1*
X31174Y10054D1*
X31160Y10068D1*
X31145Y10097D1*
Y10140D1*
X31160Y10168D1*
X31188Y10197D1*
X31231Y10212D1*
X31289Y10226D1*
X31317Y10240D1*
X31332Y10269D1*
Y10298D1*
X31317Y10326D1*
X31274Y10341D1*
X31217D1*
X37183Y10820D2*
X37169Y10849D1*
X37140Y10878D1*
X37112Y10892D1*
X37054D1*
X37025Y10878D1*
X36997Y10849D1*
X36982Y10820D1*
X36968Y10777D1*
Y10705D1*
X36982Y10663D1*
X36997Y10634D1*
X37025Y10605D1*
X37054Y10591D1*
X37112D1*
X37140Y10605D1*
X37169Y10634D1*
X37183Y10663D1*
X37291Y10820D2*
Y10834D1*
X37305Y10863D1*
X37319Y10878D1*
X37348Y10892D1*
X37405D1*
X37434Y10878D1*
X37448Y10863D1*
X37463Y10834D1*
Y10806D1*
X37448Y10777D1*
X37420Y10734D1*
X37276Y10591D1*
X37477D1*
X37756Y10792D2*
X37742Y10749D1*
X37713Y10720D1*
X37670Y10705D1*
X37656D1*
X37613Y10720D1*
X37584Y10749D1*
X37570Y10792D1*
Y10806D1*
X37584Y10849D1*
X37613Y10878D1*
X37656Y10892D1*
X37670D1*
X37713Y10878D1*
X37742Y10849D1*
X37756Y10792D1*
Y10720D1*
X37742Y10648D1*
X37713Y10605D1*
X37670Y10591D1*
X37642D1*
X37598Y10605D1*
X37584Y10634D1*
X38279Y10309D2*
X38264Y10337D1*
X38235Y10366D1*
X38207Y10380D1*
X38150D1*
X38121Y10366D1*
X38092Y10337D1*
X38078Y10309D1*
X38063Y10266D1*
Y10194D1*
X38078Y10151D1*
X38092Y10122D1*
X38121Y10093D1*
X38150Y10079D1*
X38207D1*
X38235Y10093D1*
X38264Y10122D1*
X38279Y10151D1*
X38400Y10380D2*
X38558D1*
X38472Y10265D1*
X38515D1*
X38543Y10251D1*
X38558Y10237D1*
X38572Y10194D1*
Y10165D1*
X38558Y10122D1*
X38529Y10093D1*
X38486Y10079D1*
X38443D1*
X38400Y10093D1*
X38386Y10108D1*
X38371Y10136D1*
X38751Y10380D2*
X38708Y10366D1*
X38679Y10323D1*
X38665Y10251D1*
Y10208D1*
X38679Y10136D1*
X38708Y10093D1*
X38751Y10079D1*
X38780D1*
X38823Y10093D1*
X38851Y10136D1*
X38866Y10208D1*
Y10251D1*
X38851Y10323D1*
X38823Y10366D1*
X38780Y10380D1*
X38751D1*
X38851Y10323D2*
X38679Y10136D1*
X44800Y10820D2*
X44786Y10849D1*
X44757Y10878D1*
X44728Y10892D1*
X44671D1*
X44642Y10878D1*
X44613Y10849D1*
X44599Y10820D1*
X44585Y10777D1*
Y10705D1*
X44599Y10663D1*
X44613Y10634D1*
X44642Y10605D1*
X44671Y10591D1*
X44728D1*
X44757Y10605D1*
X44786Y10634D1*
X44800Y10663D1*
X44921Y10892D2*
X45079D1*
X44993Y10777D1*
X45036D1*
X45065Y10763D1*
X45079Y10749D1*
X45093Y10705D1*
Y10677D1*
X45079Y10634D1*
X45050Y10605D1*
X45007Y10591D1*
X44964D1*
X44921Y10605D1*
X44907Y10620D1*
X44892Y10648D1*
X45186Y10834D2*
X45215Y10849D1*
X45258Y10892D1*
Y10591D1*
X54460Y14600D2*
X54445Y14629D1*
X54417Y14657D1*
X54388Y14672D1*
X54331D1*
X54302Y14657D1*
X54273Y14629D1*
X54259Y14600D1*
X54244Y14557D1*
Y14485D1*
X54259Y14442D1*
X54273Y14413D1*
X54302Y14385D1*
X54331Y14370D1*
X54388D1*
X54417Y14385D1*
X54445Y14413D1*
X54460Y14442D1*
X54581Y14671D2*
X54739D1*
X54653Y14557D1*
X54696D1*
X54724Y14542D1*
X54739Y14528D1*
X54753Y14485D1*
Y14456D1*
X54739Y14413D1*
X54710Y14384D1*
X54667Y14370D1*
X54624D1*
X54581Y14384D1*
X54567Y14399D1*
X54552Y14428D1*
X54861Y14600D2*
Y14614D1*
X54875Y14643D1*
X54889Y14657D1*
X54918Y14671D1*
X54975D1*
X55004Y14657D1*
X55018Y14643D1*
X55033Y14614D1*
Y14585D1*
X55018Y14557D1*
X54990Y14514D1*
X54846Y14370D1*
X55047D1*
X54223Y13301D2*
X54209Y13329D1*
X54180Y13358D1*
X54152Y13372D1*
X54094D1*
X54066Y13358D1*
X54037Y13329D1*
X54023Y13301D1*
X54008Y13258D1*
Y13186D1*
X54023Y13143D1*
X54037Y13114D1*
X54066Y13086D1*
X54094Y13071D1*
X54152D1*
X54180Y13086D1*
X54209Y13114D1*
X54223Y13143D1*
X54345Y13372D2*
X54502D1*
X54417Y13257D1*
X54460D1*
X54488Y13243D1*
X54502Y13229D1*
X54517Y13186D1*
Y13157D1*
X54502Y13114D1*
X54474Y13085D1*
X54431Y13071D1*
X54388D1*
X54345Y13085D1*
X54331Y13100D1*
X54316Y13128D1*
X54639Y13372D2*
X54796D1*
X54710Y13257D1*
X54753D1*
X54782Y13243D1*
X54796Y13229D1*
X54811Y13186D1*
Y13157D1*
X54796Y13114D1*
X54768Y13085D1*
X54724Y13071D1*
X54681D1*
X54639Y13085D1*
X54624Y13100D1*
X54610Y13128D1*
X15752Y9797D2*
X15738Y9825D1*
X15709Y9854D1*
X15680Y9868D1*
X15623D1*
X15594Y9854D1*
X15565Y9825D1*
X15551Y9797D1*
X15537Y9754D1*
Y9682D1*
X15551Y9639D1*
X15565Y9610D1*
X15594Y9582D1*
X15623Y9567D1*
X15680D1*
X15709Y9582D1*
X15738Y9610D1*
X15752Y9639D1*
X15873Y9868D2*
X16031D1*
X15945Y9753D1*
X15988D1*
X16017Y9739D1*
X16031Y9725D1*
X16045Y9682D1*
Y9653D1*
X16031Y9610D1*
X16002Y9581D1*
X15959Y9567D1*
X15916D1*
X15873Y9581D1*
X15859Y9596D1*
X15844Y9624D1*
X16282Y9567D2*
Y9868D1*
X16138Y9668D1*
X16353D1*
X22097Y10427D2*
X22083Y10455D1*
X22054Y10484D1*
X22026Y10498D1*
X21968D1*
X21940Y10484D1*
X21911Y10455D1*
X21897Y10427D1*
X21882Y10384D1*
Y10312D1*
X21897Y10269D1*
X21911Y10240D1*
X21940Y10212D1*
X21968Y10197D1*
X22026D1*
X22054Y10212D1*
X22083Y10240D1*
X22097Y10269D1*
X22219Y10498D2*
X22376D1*
X22291Y10383D1*
X22334D1*
X22362Y10369D1*
X22376Y10355D1*
X22391Y10312D1*
Y10283D1*
X22376Y10240D1*
X22348Y10211D1*
X22305Y10197D1*
X22262D1*
X22219Y10211D1*
X22205Y10226D1*
X22190Y10254D1*
X22656Y10498D2*
X22513D1*
X22498Y10369D1*
X22513Y10383D1*
X22556Y10398D1*
X22598D1*
X22642Y10383D1*
X22670Y10355D1*
X22685Y10312D1*
Y10283D1*
X22670Y10240D1*
X22642Y10211D1*
X22598Y10197D1*
X22556D1*
X22513Y10211D1*
X22498Y10226D1*
X22484Y10254D1*
X23168Y9836D2*
X23154Y9865D1*
X23125Y9894D1*
X23096Y9908D1*
X23039D1*
X23010Y9894D1*
X22981Y9865D1*
X22967Y9836D1*
X22953Y9793D1*
Y9721D1*
X22967Y9678D1*
X22981Y9650D1*
X23010Y9621D1*
X23039Y9606D1*
X23096D1*
X23125Y9621D1*
X23154Y9650D1*
X23168Y9678D1*
X23289Y9908D2*
X23447D1*
X23361Y9793D1*
X23404D1*
X23433Y9779D1*
X23447Y9764D1*
X23461Y9721D1*
Y9693D1*
X23447Y9650D1*
X23418Y9621D1*
X23375Y9606D1*
X23332D1*
X23289Y9621D1*
X23275Y9635D1*
X23260Y9664D1*
X23726Y9865D2*
X23712Y9893D1*
X23669Y9908D1*
X23640D1*
X23597Y9893D1*
X23568Y9850D1*
X23554Y9779D1*
Y9707D1*
X23568Y9650D1*
X23597Y9621D1*
X23640Y9606D1*
X23654D1*
X23697Y9621D1*
X23726Y9650D1*
X23740Y9693D1*
Y9707D1*
X23726Y9750D1*
X23697Y9779D1*
X23654Y9793D1*
X23640D1*
X23597Y9779D1*
X23568Y9750D1*
X23554Y9707D1*
X29617Y10309D2*
X29603Y10337D1*
X29574Y10366D1*
X29546Y10380D1*
X29488D1*
X29459Y10366D1*
X29431Y10337D1*
X29416Y10309D1*
X29402Y10266D1*
Y10194D1*
X29416Y10151D1*
X29431Y10122D1*
X29459Y10093D1*
X29488Y10079D1*
X29546D1*
X29574Y10093D1*
X29603Y10122D1*
X29617Y10151D1*
X29739Y10380D2*
X29896D1*
X29810Y10265D1*
X29853D1*
X29882Y10251D1*
X29896Y10237D1*
X29911Y10194D1*
Y10165D1*
X29896Y10122D1*
X29868Y10093D1*
X29825Y10079D1*
X29781D1*
X29739Y10093D1*
X29724Y10108D1*
X29710Y10136D1*
X30061Y10079D2*
X30204Y10380D1*
X30003D1*
X30720Y9797D2*
X30705Y9825D1*
X30677Y9854D1*
X30648Y9868D1*
X30591D1*
X30562Y9854D1*
X30533Y9825D1*
X30519Y9797D1*
X30504Y9754D1*
Y9682D1*
X30519Y9639D1*
X30533Y9610D1*
X30562Y9582D1*
X30591Y9567D1*
X30648D1*
X30677Y9582D1*
X30705Y9610D1*
X30720Y9639D1*
X30841Y9868D2*
X30999D1*
X30913Y9753D1*
X30956D1*
X30984Y9739D1*
X30999Y9725D1*
X31013Y9682D1*
Y9653D1*
X30999Y9610D1*
X30970Y9581D1*
X30927Y9567D1*
X30884D1*
X30841Y9581D1*
X30827Y9596D1*
X30812Y9624D1*
X31178Y9868D2*
X31135Y9854D1*
X31120Y9825D1*
Y9797D1*
X31135Y9768D1*
X31163Y9753D1*
X31221Y9739D1*
X31264Y9725D1*
X31292Y9696D1*
X31307Y9668D1*
Y9624D1*
X31292Y9596D1*
X31278Y9581D1*
X31235Y9567D1*
X31178D1*
X31135Y9581D1*
X31120Y9596D1*
X31106Y9624D1*
Y9668D1*
X31120Y9696D1*
X31149Y9725D1*
X31192Y9739D1*
X31249Y9753D1*
X31278Y9768D1*
X31292Y9797D1*
Y9825D1*
X31278Y9854D1*
X31235Y9868D1*
X31178D1*
X37183Y10348D2*
X37169Y10377D1*
X37140Y10405D1*
X37112Y10420D1*
X37054D1*
X37025Y10405D1*
X36997Y10377D1*
X36982Y10348D1*
X36968Y10305D1*
Y10233D1*
X36982Y10190D1*
X36997Y10161D1*
X37025Y10133D1*
X37054Y10118D1*
X37112D1*
X37140Y10133D1*
X37169Y10161D1*
X37183Y10190D1*
X37305Y10419D2*
X37462D1*
X37376Y10305D1*
X37420D1*
X37448Y10290D1*
X37462Y10276D1*
X37477Y10233D1*
Y10204D1*
X37462Y10161D1*
X37434Y10132D1*
X37391Y10118D1*
X37348D1*
X37305Y10132D1*
X37291Y10147D1*
X37276Y10176D1*
X37756Y10319D2*
X37742Y10276D1*
X37713Y10247D1*
X37670Y10233D1*
X37656D1*
X37613Y10247D1*
X37584Y10276D1*
X37570Y10319D1*
Y10333D1*
X37584Y10377D1*
X37613Y10405D1*
X37656Y10419D1*
X37670D1*
X37713Y10405D1*
X37742Y10377D1*
X37756Y10319D1*
Y10247D1*
X37742Y10176D1*
X37713Y10132D1*
X37670Y10118D1*
X37642D1*
X37598Y10132D1*
X37584Y10161D1*
X38271Y9876D2*
X38257Y9904D1*
X38228Y9933D1*
X38200Y9947D1*
X38142D1*
X38114Y9933D1*
X38085Y9904D1*
X38070Y9876D1*
X38056Y9832D1*
Y9761D1*
X38070Y9718D1*
X38085Y9689D1*
X38114Y9660D1*
X38142Y9646D1*
X38200D1*
X38228Y9660D1*
X38257Y9689D1*
X38271Y9718D1*
X38508Y9646D2*
Y9947D1*
X38364Y9746D1*
X38579D1*
X38758Y9947D2*
X38715Y9933D1*
X38686Y9890D1*
X38672Y9818D1*
Y9775D1*
X38686Y9703D1*
X38715Y9660D1*
X38758Y9646D1*
X38787D1*
X38830Y9660D1*
X38858Y9703D1*
X38873Y9775D1*
Y9818D1*
X38858Y9890D1*
X38830Y9933D1*
X38787Y9947D1*
X38758D1*
X38858Y9890D2*
X38686Y9703D1*
X44793Y10387D2*
X44778Y10416D1*
X44750Y10445D1*
X44721Y10459D1*
X44664D1*
X44635Y10445D1*
X44606Y10416D1*
X44592Y10387D1*
X44577Y10344D1*
Y10272D1*
X44592Y10230D1*
X44606Y10201D1*
X44635Y10172D1*
X44664Y10158D1*
X44721D1*
X44750Y10172D1*
X44778Y10201D1*
X44793Y10230D1*
X45029Y10158D2*
Y10459D1*
X44885Y10258D1*
X45100D1*
X45193Y10401D2*
X45222Y10416D1*
X45265Y10459D1*
Y10158D1*
X51264Y12946D2*
X51249Y12975D1*
X51220Y13004D1*
X51192Y13018D1*
X51135D1*
X51106Y13004D1*
X51077Y12975D1*
X51063Y12946D1*
X51048Y12903D1*
Y12831D1*
X51063Y12789D1*
X51077Y12760D1*
X51106Y12731D1*
X51135Y12717D1*
X51192D1*
X51220Y12731D1*
X51249Y12760D1*
X51264Y12789D1*
X51500Y12717D2*
Y13018D1*
X51356Y12817D1*
X51571D1*
X51679Y12946D2*
Y12960D1*
X51693Y12989D1*
X51707Y13003D1*
X51736Y13018D1*
X51793D1*
X51822Y13003D1*
X51836Y12989D1*
X51851Y12960D1*
Y12932D1*
X51836Y12903D1*
X51808Y12860D1*
X51664Y12717D1*
X51865D1*
X54059Y12080D2*
X54045Y12109D1*
X54016Y12138D1*
X53987Y12152D1*
X53930D1*
X53901Y12138D1*
X53872Y12109D1*
X53858Y12080D1*
X53844Y12037D1*
Y11965D1*
X53858Y11922D1*
X53872Y11894D1*
X53901Y11865D1*
X53930Y11850D1*
X53987D1*
X54016Y11865D1*
X54045Y11894D1*
X54059Y11922D1*
X54295Y11850D2*
Y12152D1*
X54151Y11951D1*
X54367D1*
X54488Y12152D2*
X54646D1*
X54560Y12037D1*
X54603D1*
X54631Y12023D1*
X54646Y12008D1*
X54660Y11965D1*
Y11937D1*
X54646Y11894D1*
X54617Y11865D1*
X54574Y11850D1*
X54531D1*
X54488Y11865D1*
X54474Y11879D1*
X54459Y11908D1*
X17014Y8579D2*
X16986Y8565D1*
X16957Y8536D1*
X16943Y8508D1*
Y8450D1*
X16957Y8421D1*
X16986Y8393D1*
X17014Y8378D1*
X17057Y8364D1*
X17129D1*
X17172Y8378D1*
X17201Y8393D1*
X17229Y8421D1*
X17244Y8450D1*
Y8508D1*
X17229Y8536D1*
X17201Y8565D1*
X17172Y8579D1*
X17244Y8816D2*
X16943D1*
X17144Y8672D1*
Y8887D1*
X17244Y9123D2*
X16943D1*
X17144Y8980D1*
Y9195D1*
X21424Y9256D2*
X21395Y9241D1*
X21366Y9213D1*
X21352Y9184D1*
Y9127D1*
X21366Y9098D1*
X21395Y9069D1*
X21424Y9055D1*
X21467Y9040D1*
X21539D1*
X21581Y9055D1*
X21610Y9069D1*
X21639Y9098D1*
X21653Y9127D1*
Y9184D1*
X21639Y9213D1*
X21610Y9241D1*
X21581Y9256D1*
X21653Y9492D2*
X21352D1*
X21553Y9348D1*
Y9564D1*
X21352Y9828D2*
Y9685D1*
X21481Y9671D1*
X21467Y9685D1*
X21452Y9728D1*
Y9771D1*
X21467Y9814D1*
X21496Y9843D1*
X21539Y9857D1*
X21567D1*
X21610Y9843D1*
X21639Y9814D1*
X21653Y9771D1*
Y9728D1*
X21639Y9685D1*
X21625Y9671D1*
X21596Y9656D1*
X24691Y8672D2*
X24663Y8658D1*
X24634Y8629D1*
X24620Y8601D1*
Y8543D1*
X24634Y8515D1*
X24663Y8486D1*
X24691Y8471D1*
X24734Y8457D1*
X24806D1*
X24849Y8471D1*
X24878Y8486D1*
X24907Y8515D1*
X24921Y8543D1*
Y8601D1*
X24907Y8629D1*
X24878Y8658D1*
X24849Y8672D1*
X24921Y8909D2*
X24620D1*
X24821Y8765D1*
Y8980D1*
X24663Y9245D2*
X24634Y9231D1*
X24620Y9188D1*
Y9159D1*
X24634Y9116D1*
X24677Y9087D1*
X24749Y9073D1*
X24821D1*
X24878Y9087D1*
X24907Y9116D1*
X24921Y9159D1*
Y9173D1*
X24907Y9216D1*
X24878Y9245D1*
X24835Y9259D1*
X24821D1*
X24778Y9245D1*
X24749Y9216D1*
X24735Y9173D1*
Y9159D1*
X24749Y9116D1*
X24778Y9087D1*
X24821Y9073D1*
X28983Y9256D2*
X28954Y9241D1*
X28925Y9213D1*
X28911Y9184D1*
Y9127D1*
X28925Y9098D1*
X28954Y9069D1*
X28983Y9055D1*
X29026Y9040D1*
X29098D1*
X29141Y9055D1*
X29169Y9069D1*
X29198Y9098D1*
X29212Y9127D1*
Y9184D1*
X29198Y9213D1*
X29169Y9241D1*
X29141Y9256D1*
X29212Y9492D2*
X28911D1*
X29112Y9348D1*
Y9564D1*
X29212Y9714D2*
X28911Y9857D1*
Y9656D1*
X32250Y8626D2*
X32222Y8612D1*
X32193Y8583D1*
X32179Y8554D1*
Y8497D1*
X32193Y8468D1*
X32222Y8440D1*
X32250Y8425D1*
X32294Y8411D1*
X32365D1*
X32408Y8425D1*
X32437Y8440D1*
X32466Y8468D1*
X32480Y8497D1*
Y8554D1*
X32466Y8583D1*
X32437Y8612D1*
X32408Y8626D1*
X32480Y8862D2*
X32179D1*
X32380Y8719D1*
Y8934D1*
X32179Y9098D2*
X32193Y9055D1*
X32222Y9041D1*
X32251D1*
X32279Y9055D1*
X32294Y9084D1*
X32308Y9141D1*
X32322Y9184D1*
X32351Y9213D1*
X32380Y9227D1*
X32423D1*
X32451Y9213D1*
X32466Y9199D1*
X32480Y9155D1*
Y9098D1*
X32466Y9055D1*
X32451Y9041D1*
X32423Y9026D1*
X32380D1*
X32351Y9041D1*
X32322Y9070D1*
X32308Y9112D1*
X32294Y9170D1*
X32279Y9199D1*
X32251Y9213D1*
X32222D1*
X32193Y9199D1*
X32179Y9155D1*
Y9098D1*
X36542Y9302D2*
X36513Y9288D1*
X36484Y9259D1*
X36470Y9231D1*
Y9173D1*
X36484Y9144D1*
X36513Y9116D1*
X36542Y9101D1*
X36585Y9087D1*
X36657D1*
X36700Y9101D1*
X36728Y9116D1*
X36757Y9144D1*
X36772Y9173D1*
Y9231D1*
X36757Y9259D1*
X36728Y9288D1*
X36700Y9302D1*
X36772Y9538D2*
X36470D1*
X36671Y9395D1*
Y9610D1*
X36571Y9889D2*
X36614Y9875D1*
X36643Y9846D1*
X36657Y9803D1*
Y9789D1*
X36643Y9746D1*
X36614Y9717D1*
X36571Y9703D1*
X36556D1*
X36513Y9717D1*
X36485Y9746D1*
X36470Y9789D1*
Y9803D1*
X36485Y9846D1*
X36513Y9875D1*
X36571Y9889D1*
X36643D1*
X36714Y9875D1*
X36757Y9846D1*
X36772Y9803D1*
Y9775D1*
X36757Y9732D1*
X36728Y9717D1*
X39809Y8594D2*
X39781Y8579D1*
X39752Y8550D1*
X39738Y8522D1*
Y8465D1*
X39752Y8436D1*
X39781Y8407D1*
X39809Y8393D1*
X39853Y8378D1*
X39925D1*
X39967Y8393D1*
X39996Y8407D1*
X40025Y8436D1*
X40039Y8465D1*
Y8522D1*
X40025Y8550D1*
X39996Y8579D1*
X39967Y8594D1*
X39738Y8858D2*
Y8715D1*
X39867Y8701D1*
X39853Y8715D1*
X39838Y8758D1*
Y8801D1*
X39853Y8844D1*
X39881Y8873D1*
X39925Y8887D1*
X39953D1*
X39996Y8873D1*
X40025Y8844D1*
X40039Y8801D1*
Y8758D1*
X40025Y8715D1*
X40010Y8701D1*
X39982Y8686D1*
X39738Y9066D2*
X39752Y9023D1*
X39796Y8994D1*
X39867Y8980D1*
X39910D1*
X39982Y8994D1*
X40025Y9023D1*
X40039Y9066D1*
Y9095D1*
X40025Y9138D1*
X39982Y9166D1*
X39910Y9181D1*
X39867D1*
X39796Y9166D1*
X39752Y9138D1*
X39738Y9095D1*
Y9066D1*
X39796Y9166D2*
X39982Y8994D1*
X44101Y9406D2*
X44072Y9392D1*
X44043Y9363D1*
X44029Y9334D1*
Y9277D1*
X44043Y9248D1*
X44072Y9220D1*
X44101Y9205D1*
X44144Y9191D1*
X44216D1*
X44259Y9205D1*
X44287Y9220D1*
X44316Y9248D1*
X44331Y9277D1*
Y9334D1*
X44316Y9363D1*
X44287Y9392D1*
X44259Y9406D1*
X44029Y9671D2*
Y9528D1*
X44158Y9513D1*
X44144Y9528D1*
X44130Y9571D1*
Y9613D1*
X44144Y9657D1*
X44173Y9685D1*
X44216Y9700D1*
X44244D1*
X44287Y9685D1*
X44316Y9657D1*
X44331Y9613D1*
Y9571D1*
X44316Y9528D1*
X44302Y9513D1*
X44273Y9499D1*
X44087Y9792D2*
X44072Y9821D1*
X44029Y9864D1*
X44331D1*
X50399Y8604D2*
X50385Y8632D1*
X50356Y8661D1*
X50327Y8675D1*
X50270D1*
X50241Y8661D1*
X50213Y8632D1*
X50198Y8604D1*
X50184Y8561D1*
Y8489D1*
X50198Y8446D1*
X50213Y8417D1*
X50241Y8388D1*
X50270Y8374D1*
X50327D1*
X50356Y8388D1*
X50385Y8417D1*
X50399Y8446D1*
X50664Y8675D2*
X50521D1*
X50506Y8546D1*
X50521Y8560D1*
X50564Y8575D1*
X50606D1*
X50650Y8560D1*
X50678Y8532D1*
X50693Y8489D1*
Y8460D1*
X50678Y8417D1*
X50650Y8388D1*
X50606Y8374D1*
X50564D1*
X50521Y8388D1*
X50506Y8403D1*
X50492Y8431D1*
X50800Y8603D2*
Y8618D1*
X50814Y8646D1*
X50828Y8661D1*
X50857Y8675D1*
X50915D1*
X50943Y8661D1*
X50957Y8646D1*
X50972Y8618D1*
Y8589D1*
X50957Y8560D1*
X50929Y8517D1*
X50785Y8374D1*
X50986D1*
X55286Y11962D2*
X55272Y11991D1*
X55243Y12020D1*
X55215Y12034D1*
X55157D1*
X55129Y12020D1*
X55100Y11991D1*
X55085Y11962D1*
X55071Y11919D1*
Y11847D1*
X55085Y11804D1*
X55100Y11775D1*
X55129Y11747D1*
X55157Y11732D1*
X55215D1*
X55243Y11747D1*
X55272Y11775D1*
X55286Y11804D1*
X55551Y12033D2*
X55408D1*
X55394Y11904D1*
X55408Y11919D1*
X55451Y11933D1*
X55494D1*
X55537Y11919D1*
X55566Y11890D1*
X55580Y11847D1*
Y11819D1*
X55566Y11775D1*
X55537Y11747D1*
X55494Y11732D1*
X55451D1*
X55408Y11747D1*
X55394Y11761D1*
X55379Y11790D1*
X55702Y12033D2*
X55859D1*
X55773Y11919D1*
X55816D1*
X55845Y11904D1*
X55859Y11890D1*
X55874Y11847D1*
Y11819D1*
X55859Y11775D1*
X55831Y11747D1*
X55787Y11732D1*
X55744D1*
X55702Y11747D1*
X55687Y11761D1*
X55673Y11790D1*
X52730Y9262D2*
X52701Y9248D1*
X52672Y9219D1*
X52658Y9191D1*
Y9133D1*
X52672Y9104D1*
X52701Y9076D1*
X52730Y9061D1*
X52773Y9047D1*
X52845D1*
X52888Y9061D1*
X52916Y9076D1*
X52945Y9104D1*
X52960Y9133D1*
Y9191D1*
X52945Y9219D1*
X52916Y9248D1*
X52888Y9262D1*
X52658Y9527D2*
Y9384D1*
X52787Y9370D1*
X52773Y9384D1*
X52759Y9427D1*
Y9470D1*
X52773Y9513D1*
X52802Y9542D1*
X52845Y9556D1*
X52873D1*
X52916Y9542D1*
X52945Y9513D1*
X52960Y9470D1*
Y9427D1*
X52945Y9384D1*
X52931Y9370D1*
X52902Y9355D1*
X52960Y9792D2*
X52658D1*
X52859Y9649D1*
Y9864D1*
X15680Y8498D2*
X15666Y8526D1*
X15637Y8555D1*
X15609Y8569D1*
X15551D1*
X15522Y8555D1*
X15494Y8526D1*
X15479Y8498D1*
X15465Y8455D1*
Y8383D1*
X15479Y8340D1*
X15494Y8311D1*
X15522Y8282D1*
X15551Y8268D1*
X15609D1*
X15637Y8282D1*
X15666Y8311D1*
X15680Y8340D1*
X15945Y8569D2*
X15802D1*
X15787Y8440D1*
X15802Y8454D1*
X15845Y8469D1*
X15888D1*
X15931Y8454D1*
X15959Y8426D1*
X15974Y8383D1*
Y8354D1*
X15959Y8311D1*
X15931Y8282D1*
X15888Y8268D1*
X15845D1*
X15802Y8282D1*
X15787Y8297D1*
X15773Y8325D1*
X16238Y8569D2*
X16095D1*
X16081Y8440D1*
X16095Y8454D1*
X16138Y8469D1*
X16181D1*
X16224Y8454D1*
X16253Y8426D1*
X16267Y8383D1*
Y8354D1*
X16253Y8311D1*
X16224Y8282D1*
X16181Y8268D1*
X16138D1*
X16095Y8282D1*
X16081Y8297D1*
X16066Y8325D1*
X23168Y8458D2*
X23154Y8487D1*
X23125Y8516D1*
X23096Y8530D1*
X23039D1*
X23010Y8516D1*
X22981Y8487D1*
X22967Y8458D1*
X22953Y8415D1*
Y8343D1*
X22967Y8300D1*
X22981Y8272D1*
X23010Y8243D1*
X23039Y8228D1*
X23096D1*
X23125Y8243D1*
X23154Y8272D1*
X23168Y8300D1*
X23433Y8530D2*
X23289D1*
X23275Y8401D1*
X23289Y8415D1*
X23332Y8429D1*
X23375D1*
X23418Y8415D1*
X23447Y8386D1*
X23461Y8343D1*
Y8315D1*
X23447Y8272D1*
X23418Y8243D1*
X23375Y8228D1*
X23332D1*
X23289Y8243D1*
X23275Y8257D1*
X23260Y8286D1*
X23726Y8487D2*
X23712Y8515D1*
X23669Y8530D1*
X23640D1*
X23597Y8515D1*
X23568Y8472D1*
X23554Y8401D1*
Y8329D1*
X23568Y8272D1*
X23597Y8243D1*
X23640Y8228D1*
X23654D1*
X23697Y8243D1*
X23726Y8272D1*
X23740Y8315D1*
Y8329D1*
X23726Y8372D1*
X23697Y8401D1*
X23654Y8415D1*
X23640D1*
X23597Y8401D1*
X23568Y8372D1*
X23554Y8329D1*
X30759Y8340D2*
X30745Y8369D1*
X30716Y8398D1*
X30687Y8412D1*
X30630D1*
X30601Y8398D1*
X30573Y8369D1*
X30558Y8340D1*
X30544Y8297D1*
Y8225D1*
X30558Y8182D1*
X30573Y8153D1*
X30601Y8125D1*
X30630Y8110D1*
X30687D1*
X30716Y8125D1*
X30745Y8153D1*
X30759Y8182D1*
X31024Y8411D2*
X30880D1*
X30866Y8282D1*
X30880Y8297D1*
X30923Y8311D1*
X30966D1*
X31009Y8297D1*
X31038Y8268D1*
X31052Y8225D1*
Y8197D1*
X31038Y8153D1*
X31009Y8125D1*
X30966Y8110D1*
X30923D1*
X30880Y8125D1*
X30866Y8139D1*
X30852Y8168D1*
X31202Y8110D2*
X31346Y8411D1*
X31145D1*
X38279Y8458D2*
X38264Y8487D1*
X38236Y8516D1*
X38207Y8530D1*
X38150D1*
X38121Y8516D1*
X38092Y8487D1*
X38078Y8458D1*
X38064Y8415D1*
Y8343D1*
X38078Y8300D1*
X38092Y8272D1*
X38121Y8243D1*
X38150Y8228D1*
X38207D1*
X38236Y8243D1*
X38264Y8272D1*
X38279Y8300D1*
X38543Y8530D2*
X38400D1*
X38386Y8401D1*
X38400Y8415D1*
X38443Y8429D1*
X38486D1*
X38529Y8415D1*
X38558Y8386D1*
X38572Y8343D1*
Y8315D1*
X38558Y8272D1*
X38529Y8243D1*
X38486Y8228D1*
X38443D1*
X38400Y8243D1*
X38386Y8257D1*
X38371Y8286D1*
X38737Y8530D2*
X38694Y8515D1*
X38679Y8487D1*
Y8458D1*
X38694Y8429D1*
X38722Y8415D1*
X38780Y8401D1*
X38823Y8386D1*
X38851Y8357D1*
X38866Y8329D1*
Y8286D1*
X38851Y8257D1*
X38837Y8243D1*
X38794Y8228D1*
X38737D1*
X38694Y8243D1*
X38679Y8257D1*
X38665Y8286D1*
Y8329D1*
X38679Y8357D1*
X38708Y8386D1*
X38751Y8401D1*
X38808Y8415D1*
X38837Y8429D1*
X38851Y8458D1*
Y8487D1*
X38837Y8515D1*
X38794Y8530D1*
X38737D1*
X18207Y8990D2*
X18193Y9018D1*
X18164Y9047D1*
X18135Y9061D1*
X18078D1*
X18049Y9047D1*
X18021Y9018D1*
X18006Y8990D1*
X17992Y8947D1*
Y8875D1*
X18006Y8832D1*
X18021Y8803D1*
X18049Y8775D1*
X18078Y8760D1*
X18135D1*
X18164Y8775D1*
X18193Y8803D1*
X18207Y8832D1*
X18472Y9061D2*
X18328D1*
X18314Y8932D1*
X18328Y8946D1*
X18372Y8961D1*
X18414D1*
X18457Y8946D1*
X18486Y8918D1*
X18501Y8875D1*
Y8846D1*
X18486Y8803D1*
X18457Y8774D1*
X18414Y8760D1*
X18372D1*
X18328Y8774D1*
X18314Y8789D1*
X18300Y8817D1*
X18780Y8961D2*
X18765Y8918D1*
X18737Y8889D1*
X18694Y8875D1*
X18679D1*
X18636Y8889D1*
X18608Y8918D1*
X18593Y8961D1*
Y8975D1*
X18608Y9018D1*
X18636Y9047D1*
X18679Y9061D1*
X18694D1*
X18737Y9047D1*
X18765Y9018D1*
X18780Y8961D1*
Y8889D1*
X18765Y8817D1*
X18737Y8774D1*
X18694Y8760D1*
X18665D1*
X18622Y8774D1*
X18608Y8803D1*
X19856Y8411D2*
X19827Y8396D1*
X19798Y8368D1*
X19784Y8339D1*
Y8282D1*
X19798Y8253D1*
X19827Y8224D1*
X19856Y8210D1*
X19899Y8195D1*
X19971D1*
X20014Y8210D1*
X20042Y8224D1*
X20071Y8253D1*
X20086Y8282D1*
Y8339D1*
X20071Y8368D1*
X20042Y8396D1*
X20014Y8411D1*
X19827Y8675D2*
X19799Y8661D1*
X19784Y8618D1*
Y8589D1*
X19799Y8546D1*
X19842Y8518D1*
X19913Y8503D1*
X19985D1*
X20042Y8518D1*
X20071Y8546D1*
X20086Y8589D1*
Y8604D1*
X20071Y8647D1*
X20042Y8675D1*
X19999Y8690D1*
X19985D1*
X19942Y8675D1*
X19913Y8647D1*
X19899Y8604D1*
Y8589D1*
X19913Y8546D1*
X19942Y8518D1*
X19985Y8503D1*
X19784Y8868D2*
X19799Y8825D1*
X19842Y8797D1*
X19913Y8782D1*
X19957D1*
X20028Y8797D1*
X20071Y8825D1*
X20086Y8868D1*
Y8897D1*
X20071Y8940D1*
X20028Y8969D1*
X19957Y8983D1*
X19913D1*
X19842Y8969D1*
X19799Y8940D1*
X19784Y8897D1*
Y8868D1*
X19842Y8969D2*
X20028Y8797D1*
X20722Y8554D2*
X20693Y8540D1*
X20665Y8511D1*
X20650Y8482D1*
Y8425D1*
X20665Y8396D1*
X20693Y8367D1*
X20722Y8353D1*
X20765Y8339D1*
X20837D1*
X20880Y8353D1*
X20909Y8367D1*
X20937Y8396D1*
X20952Y8425D1*
Y8482D1*
X20937Y8511D1*
X20909Y8540D1*
X20880Y8554D1*
X20693Y8819D2*
X20665Y8804D1*
X20651Y8761D1*
Y8733D1*
X20665Y8690D1*
X20708Y8661D1*
X20780Y8647D1*
X20851D1*
X20909Y8661D1*
X20937Y8690D1*
X20952Y8733D1*
Y8747D1*
X20937Y8790D1*
X20909Y8819D1*
X20865Y8833D1*
X20851D1*
X20808Y8819D1*
X20780Y8790D1*
X20765Y8747D1*
Y8733D1*
X20780Y8690D1*
X20808Y8661D1*
X20851Y8647D1*
X20708Y8926D2*
X20693Y8954D1*
X20651Y8997D1*
X20952D1*
X25884Y9344D2*
X25870Y9373D1*
X25841Y9401D1*
X25813Y9416D1*
X25755D1*
X25726Y9401D1*
X25698Y9373D1*
X25683Y9344D1*
X25669Y9301D1*
Y9229D1*
X25683Y9186D1*
X25698Y9157D1*
X25726Y9129D1*
X25755Y9114D1*
X25813D1*
X25841Y9129D1*
X25870Y9157D1*
X25884Y9186D1*
X26149Y9373D2*
X26135Y9401D1*
X26092Y9415D1*
X26063D1*
X26020Y9401D1*
X25991Y9358D1*
X25977Y9286D1*
Y9215D1*
X25991Y9157D1*
X26020Y9129D1*
X26063Y9114D1*
X26077D1*
X26120Y9129D1*
X26149Y9157D1*
X26163Y9200D1*
Y9215D1*
X26149Y9258D1*
X26120Y9286D1*
X26077Y9301D1*
X26063D1*
X26020Y9286D1*
X25991Y9258D1*
X25977Y9215D1*
X26271Y9344D2*
Y9358D1*
X26285Y9387D1*
X26299Y9401D1*
X26328Y9415D1*
X26385D1*
X26414Y9401D1*
X26428Y9387D1*
X26443Y9358D1*
Y9329D1*
X26428Y9301D1*
X26400Y9258D1*
X26256Y9114D1*
X26457D1*
X27375Y8411D2*
X27347Y8396D1*
X27318Y8368D1*
X27304Y8339D1*
Y8282D1*
X27318Y8253D1*
X27347Y8224D1*
X27375Y8210D1*
X27419Y8195D1*
X27490D1*
X27533Y8210D1*
X27562Y8224D1*
X27591Y8253D1*
X27605Y8282D1*
Y8339D1*
X27591Y8368D1*
X27562Y8396D1*
X27533Y8411D1*
X27347Y8675D2*
X27318Y8661D1*
X27304Y8618D1*
Y8589D1*
X27318Y8546D1*
X27361Y8518D1*
X27433Y8503D1*
X27505D1*
X27562Y8518D1*
X27591Y8546D1*
X27605Y8589D1*
Y8604D1*
X27591Y8647D1*
X27562Y8675D1*
X27519Y8690D1*
X27505D1*
X27462Y8675D1*
X27433Y8647D1*
X27419Y8604D1*
Y8589D1*
X27433Y8546D1*
X27462Y8518D1*
X27505Y8503D1*
X27304Y8811D2*
Y8969D1*
X27419Y8883D1*
Y8926D1*
X27433Y8954D1*
X27447Y8969D1*
X27490Y8983D1*
X27519D1*
X27562Y8969D1*
X27591Y8940D1*
X27605Y8897D1*
Y8854D1*
X27591Y8811D1*
X27576Y8797D1*
X27548Y8782D1*
X28242Y8403D2*
X28213Y8389D1*
X28184Y8360D1*
X28170Y8332D1*
Y8274D1*
X28184Y8246D1*
X28213Y8217D1*
X28242Y8203D1*
X28285Y8188D1*
X28357D1*
X28399Y8203D1*
X28428Y8217D1*
X28457Y8246D1*
X28471Y8274D1*
Y8332D1*
X28457Y8360D1*
X28428Y8389D1*
X28399Y8403D1*
X28213Y8668D2*
X28185Y8654D1*
X28170Y8611D1*
Y8582D1*
X28185Y8539D1*
X28228Y8510D1*
X28299Y8496D1*
X28371D1*
X28428Y8510D1*
X28457Y8539D1*
X28471Y8582D1*
Y8597D1*
X28457Y8639D1*
X28428Y8668D1*
X28385Y8683D1*
X28371D1*
X28328Y8668D1*
X28299Y8639D1*
X28285Y8597D1*
Y8582D1*
X28299Y8539D1*
X28328Y8510D1*
X28371Y8496D1*
X28471Y8919D2*
X28170D1*
X28371Y8775D1*
Y8990D1*
X33404Y9383D2*
X33390Y9412D1*
X33361Y9441D1*
X33332Y9455D1*
X33275D1*
X33246Y9441D1*
X33218Y9412D1*
X33203Y9383D1*
X33189Y9340D1*
Y9268D1*
X33203Y9226D1*
X33218Y9197D1*
X33246Y9168D1*
X33275Y9154D1*
X33332D1*
X33361Y9168D1*
X33390Y9197D1*
X33404Y9226D1*
X33669Y9412D2*
X33654Y9440D1*
X33611Y9455D1*
X33583D1*
X33540Y9440D1*
X33511Y9397D1*
X33497Y9326D1*
Y9254D1*
X33511Y9197D1*
X33540Y9168D1*
X33583Y9154D1*
X33597D1*
X33640Y9168D1*
X33669Y9197D1*
X33683Y9240D1*
Y9254D1*
X33669Y9297D1*
X33640Y9326D1*
X33597Y9340D1*
X33583D1*
X33540Y9326D1*
X33511Y9297D1*
X33497Y9254D1*
X33948Y9455D2*
X33804D1*
X33790Y9326D1*
X33804Y9340D1*
X33848Y9355D1*
X33890D1*
X33933Y9340D1*
X33962Y9311D1*
X33977Y9268D1*
Y9240D1*
X33962Y9197D1*
X33933Y9168D1*
X33890Y9154D1*
X33848D1*
X33804Y9168D1*
X33790Y9182D1*
X33776Y9211D1*
X34934Y8497D2*
X34906Y8482D1*
X34877Y8454D1*
X34863Y8425D1*
Y8368D1*
X34877Y8339D1*
X34906Y8310D1*
X34934Y8296D1*
X34978Y8281D1*
X35050D1*
X35092Y8296D1*
X35121Y8310D1*
X35150Y8339D1*
X35164Y8368D1*
Y8425D1*
X35150Y8454D1*
X35121Y8482D1*
X35092Y8497D1*
X34906Y8761D2*
X34877Y8747D1*
X34863Y8704D1*
Y8676D1*
X34877Y8632D1*
X34921Y8604D1*
X34992Y8589D1*
X35064D1*
X35121Y8604D1*
X35150Y8632D1*
X35164Y8676D1*
Y8690D1*
X35150Y8733D1*
X35121Y8761D1*
X35078Y8776D1*
X35064D1*
X35021Y8761D1*
X34992Y8733D1*
X34978Y8690D1*
Y8676D1*
X34992Y8632D1*
X35021Y8604D1*
X35064Y8589D1*
X34906Y9040D2*
X34877Y9026D1*
X34863Y8983D1*
Y8955D1*
X34877Y8911D1*
X34921Y8883D1*
X34992Y8868D1*
X35064D1*
X35121Y8883D1*
X35150Y8911D1*
X35164Y8955D1*
Y8969D1*
X35150Y9012D1*
X35121Y9040D1*
X35078Y9055D1*
X35064D1*
X35021Y9040D1*
X34992Y9012D1*
X34978Y8969D1*
Y8955D1*
X34992Y8911D1*
X35021Y8883D1*
X35064Y8868D1*
X35801Y8489D2*
X35772Y8475D1*
X35743Y8446D1*
X35729Y8418D1*
Y8360D1*
X35743Y8332D1*
X35772Y8303D1*
X35801Y8288D1*
X35844Y8274D1*
X35916D1*
X35958Y8288D1*
X35987Y8303D1*
X36016Y8332D1*
X36030Y8360D1*
Y8418D1*
X36016Y8446D1*
X35987Y8475D1*
X35958Y8489D1*
X35772Y8754D2*
X35744Y8740D1*
X35729Y8697D1*
Y8668D1*
X35744Y8625D1*
X35787Y8596D1*
X35858Y8582D1*
X35930D1*
X35987Y8596D1*
X36016Y8625D1*
X36030Y8668D1*
Y8682D1*
X36016Y8725D1*
X35987Y8754D1*
X35944Y8768D1*
X35930D1*
X35887Y8754D1*
X35858Y8725D1*
X35844Y8682D1*
Y8668D1*
X35858Y8625D1*
X35887Y8596D1*
X35930Y8582D1*
X36030Y8918D2*
X35729Y9062D1*
Y8861D1*
X40884Y9423D2*
X40870Y9451D1*
X40841Y9480D1*
X40813Y9494D1*
X40755D1*
X40727Y9480D1*
X40698Y9451D1*
X40684Y9423D1*
X40669Y9380D1*
Y9308D1*
X40684Y9265D1*
X40698Y9236D1*
X40727Y9208D1*
X40755Y9193D1*
X40813D1*
X40841Y9208D1*
X40870Y9236D1*
X40884Y9265D1*
X41149Y9451D2*
X41135Y9480D1*
X41092Y9494D1*
X41063D1*
X41020Y9480D1*
X40991Y9437D1*
X40977Y9365D1*
Y9293D1*
X40991Y9236D1*
X41020Y9207D1*
X41063Y9193D1*
X41078D1*
X41120Y9207D1*
X41149Y9236D1*
X41163Y9279D1*
Y9293D1*
X41149Y9337D1*
X41120Y9365D1*
X41078Y9379D1*
X41063D1*
X41020Y9365D1*
X40991Y9337D1*
X40977Y9293D1*
X41328Y9494D2*
X41285Y9480D1*
X41270Y9451D1*
Y9422D1*
X41285Y9394D1*
X41313Y9379D1*
X41371Y9365D1*
X41414Y9351D1*
X41442Y9322D1*
X41457Y9293D1*
Y9250D1*
X41442Y9222D1*
X41428Y9207D1*
X41385Y9193D1*
X41328D1*
X41285Y9207D1*
X41270Y9222D1*
X41256Y9250D1*
Y9293D1*
X41270Y9322D1*
X41299Y9351D1*
X41342Y9365D1*
X41399Y9379D1*
X41428Y9394D1*
X41442Y9422D1*
Y9451D1*
X41428Y9480D1*
X41385Y9494D1*
X41328D1*
X42494Y8457D2*
X42465Y8443D1*
X42436Y8414D1*
X42422Y8385D1*
Y8328D1*
X42436Y8299D1*
X42465Y8271D1*
X42494Y8256D1*
X42537Y8242D1*
X42609D1*
X42651Y8256D1*
X42680Y8271D1*
X42709Y8299D1*
X42723Y8328D1*
Y8385D1*
X42709Y8414D1*
X42680Y8443D1*
X42651Y8457D1*
X42465Y8722D2*
X42436Y8708D1*
X42422Y8665D1*
Y8636D1*
X42436Y8593D1*
X42480Y8564D1*
X42551Y8550D1*
X42623D1*
X42680Y8564D1*
X42709Y8593D1*
X42723Y8636D1*
Y8650D1*
X42709Y8693D1*
X42680Y8722D1*
X42637Y8736D1*
X42623D1*
X42580Y8722D1*
X42551Y8693D1*
X42537Y8650D1*
Y8636D1*
X42551Y8593D1*
X42580Y8564D1*
X42623Y8550D1*
X42522Y9015D2*
X42565Y9001D1*
X42594Y8972D1*
X42609Y8929D1*
Y8915D1*
X42594Y8872D1*
X42565Y8843D1*
X42522Y8829D1*
X42508D1*
X42465Y8843D1*
X42436Y8872D1*
X42422Y8915D1*
Y8929D1*
X42436Y8972D1*
X42465Y9001D1*
X42522Y9015D1*
X42594D1*
X42666Y9001D1*
X42709Y8972D1*
X42723Y8929D1*
Y8901D1*
X42709Y8858D1*
X42680Y8843D1*
X43360Y8443D2*
X43331Y8428D1*
X43302Y8400D1*
X43288Y8371D1*
Y8314D1*
X43302Y8285D1*
X43331Y8256D1*
X43360Y8242D1*
X43403Y8227D1*
X43475D1*
X43518Y8242D1*
X43546Y8256D1*
X43575Y8285D1*
X43589Y8314D1*
Y8371D1*
X43575Y8400D1*
X43546Y8428D1*
X43518Y8443D1*
X43589Y8593D2*
X43288Y8736D1*
Y8535D1*
Y8915D2*
X43303Y8872D1*
X43346Y8843D1*
X43417Y8829D1*
X43460D1*
X43532Y8843D1*
X43575Y8872D1*
X43589Y8915D1*
Y8944D1*
X43575Y8987D1*
X43532Y9015D1*
X43460Y9030D1*
X43417D1*
X43346Y9015D1*
X43303Y8987D1*
X43288Y8944D1*
Y8915D1*
X43346Y9015D2*
X43532Y8843D1*
X54721Y9088D2*
X54707Y9117D1*
X54678Y9146D1*
X54649Y9160D1*
X54592D1*
X54563Y9146D1*
X54535Y9117D1*
X54520Y9088D1*
X54506Y9045D1*
Y8973D1*
X54520Y8930D1*
X54535Y8901D1*
X54563Y8873D1*
X54592Y8858D1*
X54649D1*
X54678Y8873D1*
X54707Y8901D1*
X54721Y8930D1*
X54871Y8858D2*
X55015Y9159D1*
X54814D1*
X55107Y9102D2*
X55136Y9117D1*
X55179Y9159D1*
Y8858D1*
X11025Y9376D2*
X10838D1*
Y9075D1*
Y9233D2*
X10953D1*
X11117Y9319D2*
X11146Y9333D1*
X11189Y9376D1*
Y9075D1*
X47171Y10034D2*
Y9804D1*
X47156Y9761D1*
X47142Y9747D1*
X47113Y9732D1*
X47084D1*
X47056Y9747D1*
X47042Y9761D1*
X47027Y9804D1*
Y9833D1*
X47263Y9976D2*
X47292Y9991D1*
X47335Y10033D1*
Y9732D1*
X54443Y23662D2*
X54572D1*
X54615Y23676D1*
X54630Y23691D1*
X54644Y23719D1*
Y23748D1*
X54630Y23777D1*
X54615Y23791D1*
X54572Y23805D1*
X54443D1*
Y23504D1*
X54544Y23662D2*
X54644Y23504D1*
X54737Y23748D2*
X54766Y23762D1*
X54809Y23805D1*
Y23504D1*
X54844Y21595D2*
X54973D1*
X55016Y21609D1*
X55031Y21624D1*
X55045Y21652D1*
Y21681D1*
X55031Y21709D1*
X55016Y21724D1*
X54973Y21738D1*
X54844D1*
Y21437D1*
X54945Y21595D2*
X55045Y21437D1*
X55152Y21666D2*
Y21681D1*
X55167Y21709D1*
X55181Y21724D1*
X55210Y21738D1*
X55267D1*
X55296Y21724D1*
X55310Y21709D1*
X55325Y21681D1*
Y21652D1*
X55310Y21623D1*
X55281Y21580D1*
X55138Y21437D1*
X55339D1*
X54844Y19902D2*
X54973D1*
X55016Y19916D1*
X55031Y19931D1*
X55045Y19959D1*
Y19988D1*
X55031Y20017D1*
X55016Y20031D1*
X54973Y20045D1*
X54844D1*
Y19744D1*
X54945Y19902D2*
X55045Y19744D1*
X55167Y20045D2*
X55324D1*
X55238Y19930D1*
X55281D1*
X55310Y19916D1*
X55324Y19902D1*
X55339Y19859D1*
Y19830D1*
X55324Y19787D1*
X55296Y19758D1*
X55253Y19744D1*
X55209D1*
X55167Y19758D1*
X55152Y19773D1*
X55138Y19801D1*
X53168Y18412D2*
X53297D1*
X53340Y18426D1*
X53355Y18440D1*
X53369Y18469D1*
Y18498D1*
X53355Y18526D1*
X53340Y18541D1*
X53297Y18555D1*
X53168D1*
Y18254D1*
X53268Y18412D2*
X53369Y18254D1*
X53605D2*
Y18555D1*
X53461Y18354D1*
X53677D1*
X15826Y14851D2*
Y14980D1*
X15812Y15023D1*
X15797Y15038D1*
X15769Y15052D1*
X15740D1*
X15712Y15038D1*
X15697Y15023D1*
X15683Y14980D1*
Y14851D1*
X15984D1*
X15826Y14952D2*
X15984Y15052D1*
X15683Y15317D2*
Y15174D1*
X15812Y15159D1*
X15798Y15174D1*
X15783Y15217D1*
Y15259D1*
X15798Y15303D1*
X15826Y15331D1*
X15869Y15346D1*
X15898D1*
X15941Y15331D1*
X15970Y15303D1*
X15984Y15259D1*
Y15217D1*
X15970Y15174D1*
X15955Y15159D1*
X15927Y15145D1*
X16496Y14858D2*
Y14987D1*
X16481Y15031D1*
X16467Y15045D1*
X16438Y15059D1*
X16409D1*
X16381Y15045D1*
X16366Y15031D1*
X16352Y14987D1*
Y14858D1*
X16653D1*
X16496Y14959D2*
X16653Y15059D1*
X16395Y15324D2*
X16367Y15310D1*
X16352Y15267D1*
Y15238D1*
X16367Y15195D1*
X16410Y15166D1*
X16481Y15152D1*
X16553D1*
X16610Y15166D1*
X16639Y15195D1*
X16653Y15238D1*
Y15253D1*
X16639Y15295D1*
X16610Y15324D1*
X16567Y15338D1*
X16553D1*
X16510Y15324D1*
X16481Y15295D1*
X16467Y15253D1*
Y15238D1*
X16481Y15195D1*
X16510Y15166D1*
X16553Y15152D1*
X17165Y14851D2*
Y14980D1*
X17150Y15023D1*
X17136Y15038D1*
X17108Y15052D1*
X17079D1*
X17050Y15038D1*
X17036Y15023D1*
X17021Y14980D1*
Y14851D1*
X17323D1*
X17165Y14952D2*
X17323Y15052D1*
Y15202D2*
X17022Y15346D1*
Y15145D1*
X21496Y14851D2*
Y14980D1*
X21481Y15023D1*
X21467Y15038D1*
X21438Y15052D1*
X21409D1*
X21381Y15038D1*
X21366Y15023D1*
X21352Y14980D1*
Y14851D1*
X21653D1*
X21496Y14952D2*
X21653Y15052D1*
X21352Y15217D2*
X21367Y15174D1*
X21395Y15159D1*
X21424D1*
X21452Y15174D1*
X21467Y15202D1*
X21481Y15260D1*
X21496Y15303D1*
X21524Y15331D1*
X21553Y15346D1*
X21596D1*
X21625Y15331D1*
X21639Y15317D1*
X21653Y15274D1*
Y15217D1*
X21639Y15174D1*
X21625Y15159D1*
X21596Y15145D1*
X21553D1*
X21524Y15159D1*
X21496Y15188D1*
X21481Y15231D1*
X21467Y15288D1*
X21452Y15317D1*
X21424Y15331D1*
X21395D1*
X21367Y15317D1*
X21352Y15274D1*
Y15217D1*
X22126Y14858D2*
Y14987D1*
X22111Y15030D1*
X22097Y15045D1*
X22068Y15059D1*
X22039D1*
X22011Y15045D1*
X21996Y15030D1*
X21982Y14987D1*
Y14858D1*
X22283D1*
X22126Y14959D2*
X22283Y15059D1*
X22082Y15339D2*
X22126Y15324D1*
X22154Y15295D1*
X22169Y15252D1*
Y15238D1*
X22154Y15195D1*
X22126Y15166D1*
X22082Y15152D1*
X22068D1*
X22025Y15166D1*
X21997Y15195D1*
X21982Y15238D1*
Y15252D1*
X21997Y15295D1*
X22025Y15324D1*
X22082Y15339D1*
X22154D1*
X22226Y15324D1*
X22269Y15295D1*
X22283Y15252D1*
Y15224D1*
X22269Y15181D1*
X22240Y15166D1*
X22755Y14848D2*
Y14977D1*
X22741Y15020D1*
X22727Y15034D1*
X22698Y15049D1*
X22669D1*
X22641Y15034D1*
X22626Y15020D1*
X22612Y14977D1*
Y14848D1*
X22913D1*
X22755Y14948D2*
X22913Y15049D1*
X22670Y15141D2*
X22655Y15170D1*
X22612Y15213D1*
X22913D1*
X22612Y15392D2*
X22626Y15349D1*
X22670Y15320D1*
X22741Y15306D1*
X22784D1*
X22856Y15320D1*
X22899Y15349D1*
X22913Y15392D1*
Y15421D1*
X22899Y15464D1*
X22856Y15492D1*
X22784Y15507D1*
X22741D1*
X22670Y15492D1*
X22626Y15464D1*
X22612Y15421D1*
Y15392D1*
X22670Y15492D2*
X22856Y15320D1*
X23385Y14833D2*
Y14962D1*
X23371Y15005D1*
X23357Y15020D1*
X23328Y15034D1*
X23299D1*
X23271Y15020D1*
X23256Y15005D1*
X23242Y14962D1*
Y14833D1*
X23543D1*
X23385Y14934D2*
X23543Y15034D1*
X23299Y15127D2*
X23285Y15156D1*
X23242Y15199D1*
X23543D1*
X23299Y15292D2*
X23285Y15320D1*
X23242Y15364D1*
X23543D1*
X24015Y14848D2*
Y14977D1*
X24001Y15020D1*
X23986Y15034D1*
X23958Y15049D1*
X23929D1*
X23901Y15034D1*
X23886Y15020D1*
X23872Y14977D1*
Y14848D1*
X24173D1*
X24015Y14948D2*
X24173Y15049D1*
X23929Y15141D2*
X23915Y15170D1*
X23872Y15213D1*
X24173D1*
X23944Y15320D2*
X23929D1*
X23901Y15335D1*
X23886Y15349D1*
X23872Y15378D1*
Y15435D1*
X23886Y15464D1*
X23901Y15478D1*
X23929Y15492D1*
X23958D1*
X23987Y15478D1*
X24030Y15449D1*
X24173Y15306D1*
Y15507D1*
X24645Y14848D2*
Y14977D1*
X24631Y15020D1*
X24616Y15034D1*
X24588Y15049D1*
X24559D1*
X24530Y15034D1*
X24516Y15020D1*
X24502Y14977D1*
Y14848D1*
X24803D1*
X24645Y14948D2*
X24803Y15049D1*
X24559Y15141D2*
X24545Y15170D1*
X24502Y15213D1*
X24803D1*
X24502Y15335D2*
Y15492D1*
X24617Y15406D1*
Y15449D1*
X24631Y15478D1*
X24645Y15492D1*
X24688Y15507D1*
X24717D1*
X24760Y15492D1*
X24789Y15464D1*
X24803Y15421D1*
Y15377D1*
X24789Y15335D1*
X24774Y15320D1*
X24746Y15306D1*
X29055Y14840D2*
Y14969D1*
X29040Y15013D1*
X29026Y15027D1*
X28997Y15041D1*
X28968D1*
X28940Y15027D1*
X28925Y15013D1*
X28911Y14969D1*
Y14840D1*
X29212D1*
X29055Y14941D2*
X29212Y15041D1*
X28969Y15134D2*
X28954Y15163D1*
X28911Y15206D1*
X29212D1*
Y15442D2*
X28911D1*
X29112Y15299D1*
Y15514D1*
X29685Y14848D2*
Y14977D1*
X29670Y15020D1*
X29656Y15034D1*
X29627Y15049D1*
X29598D1*
X29570Y15034D1*
X29555Y15020D1*
X29541Y14977D1*
Y14848D1*
X29842D1*
X29685Y14948D2*
X29842Y15049D1*
X29599Y15141D2*
X29584Y15170D1*
X29541Y15213D1*
X29842D1*
X29541Y15478D2*
Y15335D1*
X29670Y15320D1*
X29656Y15335D1*
X29641Y15378D1*
Y15421D1*
X29656Y15464D1*
X29685Y15492D1*
X29728Y15507D1*
X29756D1*
X29799Y15492D1*
X29828Y15464D1*
X29842Y15421D1*
Y15378D1*
X29828Y15335D1*
X29814Y15320D1*
X29785Y15306D1*
X30314Y14855D2*
Y14984D1*
X30300Y15027D1*
X30286Y15042D1*
X30257Y15056D1*
X30228D1*
X30200Y15042D1*
X30185Y15027D1*
X30171Y14984D1*
Y14855D1*
X30472D1*
X30314Y14955D2*
X30472Y15056D1*
X30229Y15148D2*
X30214Y15177D1*
X30171Y15220D1*
X30472D1*
X30214Y15485D2*
X30185Y15471D1*
X30171Y15428D1*
Y15399D1*
X30185Y15356D1*
X30229Y15327D1*
X30300Y15313D1*
X30372D1*
X30429Y15327D1*
X30458Y15356D1*
X30472Y15399D1*
Y15414D1*
X30458Y15456D1*
X30429Y15485D1*
X30386Y15499D1*
X30372D1*
X30329Y15485D1*
X30300Y15456D1*
X30286Y15414D1*
Y15399D1*
X30300Y15356D1*
X30329Y15327D1*
X30372Y15313D1*
X30944Y14848D2*
Y14977D1*
X30930Y15020D1*
X30916Y15034D1*
X30887Y15049D1*
X30858D1*
X30830Y15034D1*
X30815Y15020D1*
X30801Y14977D1*
Y14848D1*
X31102D1*
X30944Y14948D2*
X31102Y15049D1*
X30859Y15141D2*
X30844Y15170D1*
X30801Y15213D1*
X31102D1*
Y15363D2*
X30801Y15507D1*
Y15306D1*
X31614Y14848D2*
Y14977D1*
X31599Y15020D1*
X31585Y15034D1*
X31556Y15049D1*
X31527D1*
X31499Y15034D1*
X31484Y15020D1*
X31470Y14977D1*
Y14848D1*
X31772D1*
X31614Y14948D2*
X31772Y15049D1*
X31528Y15141D2*
X31513Y15170D1*
X31470Y15213D1*
X31772D1*
X31470Y15378D2*
X31485Y15335D1*
X31513Y15320D1*
X31542D1*
X31571Y15335D1*
X31585Y15363D1*
X31599Y15421D1*
X31614Y15464D1*
X31643Y15492D1*
X31671Y15507D1*
X31714D1*
X31743Y15492D1*
X31757Y15478D1*
X31772Y15435D1*
Y15378D1*
X31757Y15335D1*
X31743Y15320D1*
X31714Y15306D1*
X31671D1*
X31643Y15320D1*
X31614Y15349D1*
X31599Y15392D1*
X31585Y15449D1*
X31571Y15478D1*
X31542Y15492D1*
X31513D1*
X31485Y15478D1*
X31470Y15435D1*
Y15378D1*
X32244Y14855D2*
Y14984D1*
X32229Y15027D1*
X32215Y15041D1*
X32186Y15056D1*
X32157D1*
X32129Y15041D1*
X32114Y15027D1*
X32100Y14984D1*
Y14855D1*
X32401D1*
X32244Y14955D2*
X32401Y15056D1*
X32158Y15148D2*
X32143Y15177D1*
X32100Y15220D1*
X32401D1*
X32201Y15500D2*
X32244Y15485D1*
X32272Y15457D1*
X32287Y15413D1*
Y15399D1*
X32272Y15356D1*
X32244Y15328D1*
X32201Y15313D1*
X32186D1*
X32143Y15328D1*
X32115Y15356D1*
X32100Y15399D1*
Y15413D1*
X32115Y15457D1*
X32143Y15485D1*
X32201Y15500D1*
X32272D1*
X32344Y15485D1*
X32387Y15457D1*
X32401Y15413D1*
Y15385D1*
X32387Y15342D1*
X32358Y15328D1*
X36614Y14862D2*
Y14991D1*
X36599Y15034D1*
X36585Y15049D1*
X36556Y15063D1*
X36527D1*
X36499Y15049D1*
X36484Y15034D1*
X36470Y14991D1*
Y14862D1*
X36772D1*
X36614Y14962D2*
X36772Y15063D1*
X36542Y15170D2*
X36528D1*
X36499Y15184D1*
X36485Y15199D1*
X36470Y15227D1*
Y15285D1*
X36485Y15313D1*
X36499Y15328D1*
X36528Y15342D1*
X36556D1*
X36585Y15328D1*
X36628Y15299D1*
X36772Y15155D1*
Y15356D1*
X36470Y15535D2*
X36485Y15492D1*
X36528Y15463D1*
X36599Y15449D1*
X36643D1*
X36714Y15463D1*
X36757Y15492D1*
X36772Y15535D1*
Y15564D1*
X36757Y15607D1*
X36714Y15635D1*
X36643Y15650D1*
X36599D1*
X36528Y15635D1*
X36485Y15607D1*
X36470Y15564D1*
Y15535D1*
X36528Y15635D2*
X36714Y15463D1*
X37244Y14848D2*
Y14977D1*
X37229Y15020D1*
X37215Y15034D1*
X37186Y15049D1*
X37157D1*
X37129Y15034D1*
X37114Y15020D1*
X37100Y14977D1*
Y14848D1*
X37401D1*
X37244Y14948D2*
X37401Y15049D1*
X37172Y15156D2*
X37158D1*
X37129Y15170D1*
X37115Y15184D1*
X37100Y15213D1*
Y15271D1*
X37115Y15299D1*
X37129Y15313D1*
X37158Y15328D1*
X37186D1*
X37215Y15313D1*
X37258Y15285D1*
X37401Y15141D1*
Y15342D1*
X37158Y15435D2*
X37143Y15464D1*
X37100Y15507D1*
X37401D1*
X37874Y14862D2*
Y14991D1*
X37859Y15034D1*
X37845Y15049D1*
X37816Y15063D1*
X37787D1*
X37759Y15049D1*
X37744Y15034D1*
X37730Y14991D1*
Y14862D1*
X38031D1*
X37874Y14962D2*
X38031Y15063D1*
X37802Y15170D2*
X37788D1*
X37759Y15184D1*
X37745Y15199D1*
X37730Y15227D1*
Y15285D1*
X37745Y15313D1*
X37759Y15328D1*
X37788Y15342D1*
X37816D1*
X37845Y15328D1*
X37888Y15299D1*
X38031Y15155D1*
Y15356D1*
X37802Y15464D2*
X37788D1*
X37759Y15478D1*
X37745Y15492D1*
X37730Y15521D1*
Y15578D1*
X37745Y15607D1*
X37759Y15621D1*
X37788Y15636D1*
X37816D1*
X37845Y15621D1*
X37888Y15593D1*
X38031Y15449D1*
Y15650D1*
X38503Y14862D2*
Y14991D1*
X38489Y15034D1*
X38475Y15049D1*
X38446Y15063D1*
X38417D1*
X38389Y15049D1*
X38374Y15034D1*
X38360Y14991D1*
Y14862D1*
X38661D1*
X38503Y14962D2*
X38661Y15063D1*
X38432Y15170D2*
X38418D1*
X38389Y15184D1*
X38374Y15199D1*
X38360Y15227D1*
Y15285D1*
X38374Y15313D1*
X38389Y15328D1*
X38418Y15342D1*
X38446D1*
X38475Y15328D1*
X38518Y15299D1*
X38661Y15155D1*
Y15356D1*
X38360Y15478D2*
Y15635D1*
X38475Y15550D1*
Y15593D1*
X38489Y15621D1*
X38503Y15635D1*
X38547Y15650D1*
X38575D1*
X38618Y15635D1*
X38647Y15607D1*
X38661Y15564D1*
Y15521D1*
X38647Y15478D1*
X38632Y15464D1*
X38604Y15449D1*
X39173Y14855D2*
Y14984D1*
X39158Y15027D1*
X39144Y15041D1*
X39115Y15056D1*
X39087D1*
X39058Y15041D1*
X39043Y15027D1*
X39029Y14984D1*
Y14855D1*
X39331D1*
X39173Y14955D2*
X39331Y15056D1*
X39101Y15163D2*
X39087D1*
X39058Y15177D1*
X39044Y15191D1*
X39029Y15220D1*
Y15278D1*
X39044Y15306D1*
X39058Y15320D1*
X39087Y15335D1*
X39115D1*
X39144Y15320D1*
X39187Y15292D1*
X39331Y15148D1*
Y15349D1*
Y15585D2*
X39029D1*
X39230Y15442D1*
Y15657D1*
X39803Y14862D2*
Y14991D1*
X39788Y15034D1*
X39774Y15049D1*
X39745Y15063D1*
X39716D1*
X39688Y15049D1*
X39673Y15034D1*
X39659Y14991D1*
Y14862D1*
X39961D1*
X39803Y14962D2*
X39961Y15063D1*
X39731Y15170D2*
X39717D1*
X39688Y15184D1*
X39674Y15199D1*
X39659Y15227D1*
Y15285D1*
X39674Y15313D1*
X39688Y15328D1*
X39717Y15342D1*
X39745D1*
X39774Y15328D1*
X39817Y15299D1*
X39961Y15155D1*
Y15356D1*
X39659Y15621D2*
Y15478D1*
X39788Y15464D1*
X39774Y15478D1*
X39760Y15521D1*
Y15564D1*
X39774Y15607D1*
X39803Y15636D1*
X39846Y15650D1*
X39874D1*
X39917Y15636D1*
X39946Y15607D1*
X39961Y15564D1*
Y15521D1*
X39946Y15478D1*
X39932Y15464D1*
X39903Y15449D1*
X44173Y14830D2*
Y14959D1*
X44158Y15002D1*
X44144Y15016D1*
X44115Y15031D1*
X44087D1*
X44058Y15016D1*
X44043Y15002D1*
X44029Y14959D1*
Y14830D1*
X44331D1*
X44173Y14930D2*
X44331Y15031D1*
X44101Y15138D2*
X44087D1*
X44058Y15152D1*
X44044Y15166D1*
X44029Y15195D1*
Y15253D1*
X44044Y15281D1*
X44058Y15295D1*
X44087Y15310D1*
X44115D1*
X44144Y15295D1*
X44187Y15267D1*
X44331Y15123D1*
Y15324D1*
X44072Y15589D2*
X44044Y15575D1*
X44029Y15532D1*
Y15503D1*
X44044Y15460D1*
X44087Y15431D1*
X44158Y15417D1*
X44230D1*
X44287Y15431D1*
X44316Y15460D1*
X44331Y15503D1*
Y15517D1*
X44316Y15560D1*
X44287Y15589D1*
X44244Y15603D1*
X44230D1*
X44187Y15589D1*
X44158Y15560D1*
X44144Y15517D1*
Y15503D1*
X44158Y15460D1*
X44187Y15431D1*
X44230Y15417D1*
X44803Y14822D2*
Y14951D1*
X44788Y14995D1*
X44774Y15009D1*
X44745Y15023D1*
X44716D1*
X44688Y15009D1*
X44673Y14995D1*
X44659Y14951D1*
Y14822D1*
X44961D1*
X44803Y14923D2*
X44961Y15023D1*
X44731Y15131D2*
X44717D1*
X44688Y15145D1*
X44674Y15159D1*
X44659Y15188D1*
Y15245D1*
X44674Y15274D1*
X44688Y15288D1*
X44717Y15303D1*
X44745D1*
X44774Y15288D1*
X44817Y15260D1*
X44961Y15116D1*
Y15317D1*
Y15467D2*
X44659Y15611D1*
Y15410D1*
X45433Y14823D2*
Y14952D1*
X45418Y14995D1*
X45404Y15009D1*
X45375Y15024D1*
X45346D1*
X45318Y15009D1*
X45303Y14995D1*
X45289Y14952D1*
Y14823D1*
X45590D1*
X45433Y14923D2*
X45590Y15024D1*
X45361Y15131D2*
X45347D1*
X45318Y15145D1*
X45304Y15159D1*
X45289Y15188D1*
Y15246D1*
X45304Y15274D1*
X45318Y15288D1*
X45347Y15303D1*
X45375D1*
X45404Y15288D1*
X45447Y15260D1*
X45590Y15116D1*
Y15317D1*
X45289Y15481D2*
X45304Y15439D1*
X45332Y15424D1*
X45361D1*
X45389Y15439D1*
X45404Y15467D1*
X45418Y15525D1*
X45433Y15568D1*
X45461Y15596D1*
X45490Y15610D1*
X45533D1*
X45562Y15596D1*
X45576Y15582D1*
X45590Y15539D1*
Y15481D1*
X45576Y15439D1*
X45562Y15424D1*
X45533Y15410D1*
X45490D1*
X45461Y15424D1*
X45433Y15453D1*
X45418Y15496D1*
X45404Y15553D1*
X45389Y15582D1*
X45361Y15596D1*
X45332D1*
X45304Y15582D1*
X45289Y15539D1*
Y15481D1*
X17126Y9475D2*
Y9604D1*
X17111Y9647D1*
X17097Y9662D1*
X17068Y9676D1*
X17039D1*
X17011Y9662D1*
X16996Y9647D1*
X16982Y9604D1*
Y9475D1*
X17283D1*
X17126Y9576D2*
X17283Y9676D1*
X17054Y9783D2*
X17040D1*
X17011Y9798D1*
X16997Y9812D1*
X16982Y9841D1*
Y9898D1*
X16997Y9927D1*
X17011Y9941D1*
X17040Y9956D1*
X17068D1*
X17097Y9941D1*
X17140Y9912D1*
X17283Y9769D1*
Y9970D1*
X17082Y10249D2*
X17126Y10235D1*
X17154Y10206D1*
X17169Y10163D1*
Y10149D1*
X17154Y10106D1*
X17126Y10077D1*
X17082Y10062D1*
X17068D1*
X17025Y10077D1*
X16997Y10106D1*
X16982Y10149D1*
Y10163D1*
X16997Y10206D1*
X17025Y10235D1*
X17082Y10249D1*
X17154D1*
X17226Y10235D1*
X17269Y10206D1*
X17283Y10163D1*
Y10134D1*
X17269Y10091D1*
X17240Y10077D1*
X21496Y10137D2*
Y10266D1*
X21481Y10310D1*
X21467Y10324D1*
X21438Y10338D1*
X21409D1*
X21381Y10324D1*
X21366Y10310D1*
X21352Y10266D1*
Y10137D1*
X21653D1*
X21496Y10238D2*
X21653Y10338D1*
X21352Y10460D2*
Y10617D1*
X21467Y10531D1*
Y10575D1*
X21481Y10603D1*
X21496Y10617D1*
X21539Y10632D1*
X21567D1*
X21610Y10617D1*
X21639Y10589D1*
X21653Y10546D1*
Y10503D1*
X21639Y10460D1*
X21625Y10446D1*
X21596Y10431D1*
X21352Y10811D2*
X21367Y10768D1*
X21410Y10739D1*
X21481Y10725D1*
X21524D1*
X21596Y10739D1*
X21639Y10768D1*
X21653Y10811D1*
Y10839D1*
X21639Y10882D1*
X21596Y10911D1*
X21524Y10926D1*
X21481D1*
X21410Y10911D1*
X21367Y10882D1*
X21352Y10839D1*
Y10811D1*
X21410Y10911D2*
X21596Y10739D1*
X24763Y9533D2*
Y9662D1*
X24749Y9705D1*
X24734Y9719D1*
X24706Y9734D1*
X24677D1*
X24649Y9719D1*
X24634Y9705D1*
X24620Y9662D1*
Y9533D1*
X24921D1*
X24763Y9633D2*
X24921Y9734D1*
X24620Y9855D2*
Y10013D1*
X24735Y9927D1*
Y9970D1*
X24749Y9998D1*
X24763Y10013D1*
X24806Y10027D1*
X24835D1*
X24878Y10013D1*
X24907Y9984D1*
X24921Y9941D1*
Y9898D1*
X24907Y9855D1*
X24892Y9841D1*
X24864Y9826D1*
X24677Y10120D2*
X24663Y10149D1*
X24620Y10192D1*
X24921D1*
X29055Y10098D2*
Y10227D1*
X29040Y10270D1*
X29026Y10285D1*
X28997Y10299D1*
X28968D1*
X28940Y10285D1*
X28925Y10270D1*
X28911Y10227D1*
Y10098D1*
X29212D1*
X29055Y10199D2*
X29212Y10299D1*
X28911Y10420D2*
Y10578D1*
X29026Y10492D1*
Y10535D1*
X29040Y10564D1*
X29055Y10578D1*
X29098Y10593D1*
X29126D1*
X29169Y10578D1*
X29198Y10549D1*
X29212Y10506D1*
Y10463D1*
X29198Y10420D1*
X29184Y10406D1*
X29155Y10392D1*
X28983Y10700D2*
X28969D1*
X28940Y10714D1*
X28926Y10728D1*
X28911Y10757D1*
Y10815D1*
X28926Y10843D1*
X28940Y10857D1*
X28969Y10872D1*
X28997D1*
X29026Y10857D1*
X29069Y10829D1*
X29212Y10685D1*
Y10886D1*
X32322Y9468D2*
Y9597D1*
X32308Y9640D1*
X32294Y9655D1*
X32265Y9669D1*
X32236D1*
X32208Y9655D1*
X32193Y9640D1*
X32179Y9597D1*
Y9468D1*
X32480D1*
X32322Y9569D2*
X32480Y9669D1*
X32179Y9791D2*
Y9948D1*
X32294Y9862D1*
Y9905D1*
X32308Y9934D1*
X32322Y9948D1*
X32365Y9963D1*
X32394D1*
X32437Y9948D1*
X32466Y9920D1*
X32480Y9876D1*
Y9833D1*
X32466Y9791D1*
X32451Y9776D1*
X32423Y9762D1*
X32179Y10084D2*
Y10242D1*
X32294Y10156D1*
Y10199D1*
X32308Y10227D1*
X32322Y10242D1*
X32365Y10256D1*
X32394D1*
X32437Y10242D1*
X32466Y10213D1*
X32480Y10170D1*
Y10127D1*
X32466Y10084D1*
X32451Y10070D1*
X32423Y10055D1*
X36614Y10170D2*
Y10299D1*
X36599Y10342D1*
X36585Y10356D1*
X36556Y10371D1*
X36527D1*
X36499Y10356D1*
X36484Y10342D1*
X36470Y10299D1*
Y10170D1*
X36772D1*
X36614Y10270D2*
X36772Y10371D1*
X36470Y10492D2*
Y10650D1*
X36585Y10564D1*
Y10607D1*
X36599Y10635D1*
X36614Y10650D1*
X36657Y10664D1*
X36685D1*
X36728Y10650D1*
X36757Y10621D1*
X36772Y10578D1*
Y10535D1*
X36757Y10492D1*
X36743Y10478D1*
X36714Y10463D1*
X36772Y10900D2*
X36470D1*
X36671Y10757D1*
Y10972D1*
X39881Y9468D2*
Y9597D1*
X39867Y9640D1*
X39853Y9655D1*
X39824Y9669D1*
X39795D1*
X39767Y9655D1*
X39752Y9640D1*
X39738Y9597D1*
Y9468D1*
X40039D1*
X39881Y9569D2*
X40039Y9669D1*
X39738Y9791D2*
Y9948D1*
X39853Y9862D1*
Y9905D1*
X39867Y9934D1*
X39881Y9948D1*
X39925Y9963D1*
X39953D1*
X39996Y9948D1*
X40025Y9920D1*
X40039Y9876D1*
Y9833D1*
X40025Y9791D1*
X40010Y9776D1*
X39982Y9762D1*
X39738Y10227D2*
Y10084D1*
X39867Y10070D1*
X39853Y10084D1*
X39838Y10127D1*
Y10170D1*
X39853Y10213D1*
X39881Y10242D1*
X39925Y10256D1*
X39953D1*
X39996Y10242D1*
X40025Y10213D1*
X40039Y10170D1*
Y10127D1*
X40025Y10084D1*
X40010Y10070D1*
X39982Y10055D1*
X44173Y10184D2*
Y10313D1*
X44158Y10356D1*
X44144Y10371D1*
X44115Y10385D1*
X44087D1*
X44058Y10371D1*
X44043Y10356D1*
X44029Y10313D1*
Y10184D1*
X44331D1*
X44173Y10285D2*
X44331Y10385D1*
X44029Y10507D2*
Y10664D1*
X44144Y10578D1*
Y10621D1*
X44158Y10650D1*
X44173Y10664D1*
X44216Y10679D1*
X44244D1*
X44287Y10664D1*
X44316Y10636D1*
X44331Y10592D1*
Y10549D1*
X44316Y10507D1*
X44302Y10492D1*
X44273Y10478D1*
X44072Y10943D2*
X44044Y10929D1*
X44029Y10886D1*
Y10857D1*
X44044Y10814D1*
X44087Y10786D1*
X44158Y10771D1*
X44230D1*
X44287Y10786D1*
X44316Y10814D1*
X44331Y10857D1*
Y10872D1*
X44316Y10915D1*
X44287Y10943D1*
X44244Y10958D1*
X44230D1*
X44187Y10943D1*
X44158Y10915D1*
X44144Y10872D1*
Y10857D1*
X44158Y10814D1*
X44187Y10786D1*
X44230Y10771D1*
X15531Y9292D2*
X15660D1*
X15703Y9306D1*
X15718Y9321D1*
X15732Y9349D1*
Y9378D1*
X15718Y9407D1*
X15703Y9421D1*
X15660Y9435D1*
X15531D1*
Y9134D1*
X15632Y9292D2*
X15732Y9134D1*
X15854Y9435D2*
X16011D1*
X15925Y9320D1*
X15968D1*
X15997Y9306D1*
X16011Y9292D1*
X16026Y9249D1*
Y9220D1*
X16011Y9177D1*
X15983Y9148D1*
X15939Y9134D1*
X15896D1*
X15854Y9148D1*
X15839Y9163D1*
X15825Y9191D1*
X16176Y9134D2*
X16319Y9435D1*
X16118D1*
X21909Y9410D2*
X22038D1*
X22081Y9425D1*
X22096Y9439D1*
X22110Y9467D1*
Y9496D1*
X22096Y9525D1*
X22081Y9539D1*
X22038Y9554D1*
X21909D1*
Y9252D1*
X22010Y9410D2*
X22110Y9252D1*
X22232Y9553D2*
X22389D1*
X22303Y9438D1*
X22346D1*
X22375Y9424D1*
X22389Y9410D1*
X22404Y9367D1*
Y9338D1*
X22389Y9295D1*
X22361Y9266D1*
X22318Y9252D1*
X22274D1*
X22232Y9266D1*
X22217Y9281D1*
X22203Y9309D1*
X22568Y9553D2*
X22525Y9539D1*
X22511Y9510D1*
Y9482D1*
X22525Y9453D1*
X22554Y9438D1*
X22611Y9424D1*
X22654Y9410D1*
X22683Y9381D1*
X22697Y9353D1*
Y9309D1*
X22683Y9281D1*
X22669Y9266D1*
X22625Y9252D1*
X22568D1*
X22525Y9266D1*
X22511Y9281D1*
X22496Y9309D1*
Y9353D1*
X22511Y9381D1*
X22540Y9410D1*
X22582Y9424D1*
X22640Y9438D1*
X22669Y9453D1*
X22683Y9482D1*
Y9510D1*
X22669Y9539D1*
X22625Y9553D1*
X22568D1*
X22979Y9331D2*
X23108D1*
X23151Y9346D1*
X23166Y9360D1*
X23180Y9389D1*
Y9417D1*
X23166Y9446D1*
X23151Y9461D1*
X23108Y9475D1*
X22979D1*
Y9173D1*
X23080Y9331D2*
X23180Y9173D1*
X23302Y9474D2*
X23459D1*
X23373Y9360D1*
X23416D1*
X23445Y9345D1*
X23459Y9331D1*
X23474Y9288D1*
Y9260D1*
X23459Y9216D1*
X23431Y9188D1*
X23388Y9173D1*
X23344D1*
X23302Y9188D1*
X23287Y9202D1*
X23273Y9231D1*
X23753Y9374D2*
X23738Y9331D1*
X23710Y9302D1*
X23667Y9288D1*
X23653D1*
X23609Y9302D1*
X23581Y9331D1*
X23566Y9374D1*
Y9389D1*
X23581Y9432D1*
X23609Y9460D1*
X23653Y9474D1*
X23667D1*
X23710Y9460D1*
X23738Y9432D1*
X23753Y9374D1*
Y9302D1*
X23738Y9231D1*
X23710Y9188D1*
X23667Y9173D1*
X23638D1*
X23595Y9188D1*
X23581Y9216D1*
X29422Y9213D2*
X29551D1*
X29594Y9228D1*
X29608Y9242D1*
X29623Y9270D1*
Y9299D1*
X29608Y9328D1*
X29594Y9342D1*
X29551Y9357D1*
X29422D1*
Y9055D1*
X29522Y9213D2*
X29623Y9055D1*
X29859D2*
Y9356D1*
X29715Y9156D1*
X29930D1*
X30109Y9356D2*
X30066Y9342D1*
X30037Y9299D1*
X30023Y9227D1*
Y9184D1*
X30037Y9113D1*
X30066Y9069D1*
X30109Y9055D1*
X30138D1*
X30181Y9069D1*
X30209Y9113D1*
X30224Y9184D1*
Y9227D1*
X30209Y9299D1*
X30181Y9342D1*
X30138Y9356D1*
X30109D1*
X30209Y9299D2*
X30037Y9113D1*
X30549Y9213D2*
X30678D1*
X30721Y9228D1*
X30736Y9242D1*
X30750Y9270D1*
Y9299D1*
X30736Y9328D1*
X30721Y9342D1*
X30678Y9357D1*
X30549D1*
Y9055D1*
X30650Y9213D2*
X30750Y9055D1*
X30986D2*
Y9356D1*
X30843Y9156D1*
X31058D1*
X31151Y9299D2*
X31179Y9314D1*
X31223Y9356D1*
Y9055D1*
X36941Y9252D2*
X37070D1*
X37113Y9267D1*
X37128Y9281D1*
X37142Y9310D1*
Y9339D1*
X37128Y9367D1*
X37113Y9382D1*
X37070Y9396D1*
X36941D1*
Y9095D1*
X37042Y9252D2*
X37142Y9095D1*
X37379D2*
Y9396D1*
X37235Y9195D1*
X37450D1*
X37557Y9324D2*
Y9338D1*
X37572Y9367D1*
X37586Y9381D1*
X37615Y9396D1*
X37672D1*
X37701Y9381D1*
X37715Y9367D1*
X37729Y9338D1*
Y9310D1*
X37715Y9281D1*
X37686Y9238D1*
X37543Y9095D1*
X37744D1*
X38083Y9331D2*
X38212D1*
X38255Y9346D1*
X38270Y9360D1*
X38284Y9389D1*
Y9417D1*
X38270Y9446D1*
X38255Y9461D1*
X38212Y9475D1*
X38083D1*
Y9173D1*
X38184Y9331D2*
X38284Y9173D1*
X38520D2*
Y9474D1*
X38377Y9274D1*
X38592D1*
X38713Y9474D2*
X38871D1*
X38785Y9360D1*
X38828D1*
X38857Y9345D1*
X38871Y9331D1*
X38885Y9288D1*
Y9260D1*
X38871Y9216D1*
X38842Y9188D1*
X38799Y9173D1*
X38756D1*
X38713Y9188D1*
X38699Y9202D1*
X38684Y9231D1*
X44572Y9331D2*
X44701D1*
X44744Y9346D1*
X44759Y9360D1*
X44773Y9389D1*
Y9417D1*
X44759Y9446D1*
X44744Y9461D1*
X44701Y9475D1*
X44572D1*
Y9173D1*
X44672Y9331D2*
X44773Y9173D1*
X45009D2*
Y9474D1*
X44866Y9274D1*
X45081D1*
X45317Y9173D2*
Y9474D1*
X45173Y9274D1*
X45389D1*
X15524Y8859D2*
X15653D1*
X15696Y8873D1*
X15711Y8888D1*
X15725Y8916D1*
Y8945D1*
X15711Y8973D1*
X15696Y8988D1*
X15653Y9002D1*
X15524D1*
Y8701D1*
X15624Y8859D2*
X15725Y8701D1*
X15961D2*
Y9002D1*
X15818Y8801D1*
X16033D1*
X16298Y9002D2*
X16154D1*
X16140Y8873D1*
X16154Y8887D1*
X16197Y8902D1*
X16240D1*
X16283Y8887D1*
X16312Y8859D1*
X16326Y8816D1*
Y8787D1*
X16312Y8744D1*
X16283Y8715D1*
X16240Y8701D1*
X16197D1*
X16154Y8715D1*
X16140Y8730D1*
X16125Y8758D1*
X21909Y9922D2*
X22038D1*
X22081Y9936D1*
X22096Y9951D1*
X22110Y9979D1*
Y10008D1*
X22096Y10036D1*
X22081Y10051D1*
X22038Y10065D1*
X21909D1*
Y9764D1*
X22010Y9922D2*
X22110Y9764D1*
X22346D2*
Y10065D1*
X22203Y9864D1*
X22418D1*
X22683Y10022D2*
X22669Y10051D1*
X22625Y10065D1*
X22597D1*
X22554Y10051D1*
X22525Y10008D1*
X22511Y9936D1*
Y9864D1*
X22525Y9807D1*
X22554Y9778D1*
X22597Y9764D1*
X22611D1*
X22654Y9778D1*
X22683Y9807D1*
X22697Y9850D1*
Y9864D1*
X22683Y9907D1*
X22654Y9936D1*
X22611Y9950D1*
X22597D1*
X22554Y9936D1*
X22525Y9907D1*
X22511Y9864D1*
X23004Y8859D2*
X23133D1*
X23176Y8873D1*
X23191Y8888D1*
X23205Y8916D1*
Y8945D1*
X23191Y8973D1*
X23176Y8988D1*
X23133Y9002D1*
X23004D1*
Y8701D1*
X23105Y8859D2*
X23205Y8701D1*
X23441D2*
Y9002D1*
X23298Y8801D1*
X23513D1*
X23663Y8701D2*
X23807Y9002D1*
X23606D1*
X29422Y9725D2*
X29551D1*
X29594Y9739D1*
X29608Y9754D1*
X29623Y9782D1*
Y9811D1*
X29608Y9840D1*
X29594Y9854D1*
X29551Y9868D1*
X29422D1*
Y9567D1*
X29522Y9725D2*
X29623Y9567D1*
X29859D2*
Y9868D1*
X29715Y9668D1*
X29931D1*
X30095Y9868D2*
X30052Y9854D1*
X30038Y9825D1*
Y9797D1*
X30052Y9768D1*
X30081Y9753D1*
X30138Y9739D1*
X30181Y9725D1*
X30210Y9696D1*
X30224Y9668D1*
Y9624D1*
X30210Y9596D1*
X30195Y9581D1*
X30152Y9567D1*
X30095D1*
X30052Y9581D1*
X30038Y9596D1*
X30023Y9624D1*
Y9668D1*
X30038Y9696D1*
X30066Y9725D1*
X30109Y9739D1*
X30167Y9753D1*
X30195Y9768D1*
X30210Y9797D1*
Y9825D1*
X30195Y9854D1*
X30152Y9868D1*
X30095D1*
X30570Y8741D2*
X30699D1*
X30743Y8755D1*
X30757Y8769D1*
X30771Y8798D1*
Y8827D1*
X30757Y8855D1*
X30743Y8870D1*
X30699Y8884D1*
X30570D1*
Y8583D1*
X30671Y8741D2*
X30771Y8583D1*
X31008D2*
Y8884D1*
X30864Y8683D1*
X31079D1*
X31359Y8784D2*
X31344Y8741D1*
X31316Y8712D1*
X31272Y8698D1*
X31258D1*
X31215Y8712D1*
X31187Y8741D1*
X31172Y8784D1*
Y8798D1*
X31187Y8841D1*
X31215Y8870D1*
X31258Y8884D1*
X31272D1*
X31316Y8870D1*
X31344Y8841D1*
X31359Y8784D1*
Y8712D1*
X31344Y8640D1*
X31316Y8597D1*
X31272Y8583D1*
X31244D1*
X31201Y8597D1*
X31187Y8626D1*
X36948Y9764D2*
X37077D1*
X37121Y9779D1*
X37135Y9793D1*
X37149Y9822D1*
Y9850D1*
X37135Y9879D1*
X37121Y9894D1*
X37077Y9908D1*
X36948D1*
Y9606D1*
X37049Y9764D2*
X37149Y9606D1*
X37414Y9908D2*
X37271D1*
X37257Y9779D1*
X37271Y9793D1*
X37314Y9807D1*
X37357D1*
X37400Y9793D1*
X37429Y9764D1*
X37443Y9721D1*
Y9693D1*
X37429Y9650D1*
X37400Y9621D1*
X37357Y9606D1*
X37314D1*
X37271Y9621D1*
X37257Y9635D1*
X37242Y9664D1*
X37622Y9908D2*
X37579Y9893D1*
X37550Y9850D1*
X37536Y9779D1*
Y9735D1*
X37550Y9664D1*
X37579Y9621D1*
X37622Y9606D1*
X37650D1*
X37693Y9621D1*
X37722Y9664D1*
X37737Y9735D1*
Y9779D1*
X37722Y9850D1*
X37693Y9893D1*
X37650Y9908D1*
X37622D1*
X37722Y9850D2*
X37550Y9664D1*
X38076Y8859D2*
X38205D1*
X38248Y8873D1*
X38263Y8888D1*
X38277Y8916D1*
Y8945D1*
X38263Y8973D1*
X38248Y8988D1*
X38205Y9002D1*
X38076D1*
Y8701D1*
X38176Y8859D2*
X38277Y8701D1*
X38542Y9002D2*
X38398D1*
X38384Y8873D1*
X38398Y8887D1*
X38441Y8902D1*
X38484D1*
X38527Y8887D1*
X38556Y8859D1*
X38570Y8816D1*
Y8787D1*
X38556Y8744D1*
X38527Y8715D1*
X38484Y8701D1*
X38441D1*
X38398Y8715D1*
X38384Y8730D1*
X38370Y8758D1*
X38663Y8945D2*
X38692Y8959D1*
X38735Y9002D1*
Y8701D1*
X44586Y9843D2*
X44715D1*
X44758Y9858D1*
X44773Y9872D1*
X44787Y9900D1*
Y9929D1*
X44773Y9958D1*
X44758Y9972D1*
X44715Y9987D1*
X44586D1*
Y9685D1*
X44687Y9843D2*
X44787Y9685D1*
X45052Y9986D2*
X44909D1*
X44894Y9857D1*
X44909Y9872D1*
X44952Y9886D1*
X44995D1*
X45038Y9872D1*
X45067Y9843D1*
X45081Y9800D1*
Y9771D1*
X45067Y9728D1*
X45038Y9699D1*
X44995Y9685D1*
X44952D1*
X44909Y9699D1*
X44894Y9714D1*
X44880Y9743D1*
X45188Y9915D2*
Y9929D1*
X45202Y9958D1*
X45217Y9972D1*
X45245Y9986D1*
X45303D1*
X45331Y9972D1*
X45346Y9958D1*
X45360Y9929D1*
Y9900D1*
X45346Y9872D1*
X45317Y9829D1*
X45173Y9685D1*
X45374D1*
X49566Y8405D2*
Y8534D1*
X49552Y8577D1*
X49538Y8592D1*
X49509Y8606D1*
X49480D1*
X49452Y8592D1*
X49437Y8577D1*
X49423Y8534D1*
Y8405D1*
X49724D1*
X49566Y8506D2*
X49724Y8606D1*
X49423Y8871D2*
Y8728D1*
X49552Y8713D1*
X49538Y8728D1*
X49523Y8771D1*
Y8813D1*
X49538Y8857D1*
X49566Y8885D1*
X49610Y8900D1*
X49638D1*
X49681Y8885D1*
X49710Y8857D1*
X49724Y8813D1*
Y8771D1*
X49710Y8728D1*
X49695Y8713D1*
X49667Y8699D1*
X49423Y9021D2*
Y9179D1*
X49538Y9093D1*
Y9136D1*
X49552Y9164D1*
X49566Y9179D1*
X49610Y9193D1*
X49638D1*
X49681Y9179D1*
X49710Y9150D1*
X49724Y9107D1*
Y9064D1*
X49710Y9021D1*
X49695Y9007D1*
X49667Y8992D1*
X54143Y16146D2*
Y15930D1*
X54158Y15887D1*
X54187Y15859D1*
X54230Y15844D1*
X54258D1*
X54301Y15859D1*
X54330Y15887D1*
X54344Y15930D1*
Y16146D1*
X54437Y16088D2*
X54466Y16102D1*
X54509Y16145D1*
Y15844D1*
X19005Y12095D2*
Y11880D1*
X19019Y11837D1*
X19048Y11808D1*
X19091Y11793D1*
X19119D1*
X19163Y11808D1*
X19191Y11837D1*
X19206Y11880D1*
Y12095D1*
X19313Y12023D2*
Y12037D1*
X19327Y12066D1*
X19341Y12080D1*
X19370Y12095D1*
X19428D1*
X19456Y12080D1*
X19470Y12066D1*
X19485Y12037D1*
Y12009D1*
X19470Y11980D1*
X19442Y11937D1*
X19298Y11793D1*
X19499D1*
X26564Y12095D2*
Y11880D1*
X26578Y11837D1*
X26607Y11808D1*
X26650Y11793D1*
X26678D1*
X26722Y11808D1*
X26750Y11837D1*
X26765Y11880D1*
Y12095D1*
X26886D2*
X27044D1*
X26958Y11980D1*
X27001D1*
X27029Y11966D1*
X27044Y11951D1*
X27058Y11908D1*
Y11880D1*
X27044Y11837D1*
X27015Y11808D1*
X26972Y11793D1*
X26929D1*
X26886Y11808D1*
X26872Y11822D1*
X26857Y11851D1*
X34116Y12095D2*
Y11880D1*
X34130Y11837D1*
X34159Y11808D1*
X34202Y11793D1*
X34230D1*
X34274Y11808D1*
X34302Y11837D1*
X34317Y11880D1*
Y12095D1*
X34553Y11793D2*
Y12095D1*
X34409Y11894D1*
X34624D1*
X41682Y12095D2*
Y11880D1*
X41696Y11837D1*
X41725Y11808D1*
X41768Y11793D1*
X41797D1*
X41840Y11808D1*
X41869Y11837D1*
X41883Y11880D1*
Y12095D1*
X42148D2*
X42004D1*
X41990Y11966D1*
X42004Y11980D1*
X42047Y11994D1*
X42090D1*
X42133Y11980D1*
X42162Y11951D1*
X42176Y11908D1*
Y11880D1*
X42162Y11837D1*
X42133Y11808D1*
X42090Y11793D1*
X42047D1*
X42004Y11808D1*
X41990Y11822D1*
X41975Y11851D1*
X30355Y23368D2*
Y23153D1*
X30370Y23110D1*
X30399Y23082D1*
X30442Y23067D1*
X30470D1*
X30513Y23082D1*
X30542Y23110D1*
X30556Y23153D1*
Y23368D1*
X30821Y23325D2*
X30807Y23354D1*
X30764Y23368D1*
X30735D1*
X30692Y23354D1*
X30663Y23311D1*
X30649Y23239D1*
Y23168D1*
X30663Y23110D1*
X30692Y23081D1*
X30735Y23067D1*
X30750D1*
X30792Y23081D1*
X30821Y23110D1*
X30835Y23153D1*
Y23168D1*
X30821Y23211D1*
X30792Y23239D1*
X30750Y23253D1*
X30735D1*
X30692Y23239D1*
X30663Y23211D1*
X30649Y23168D1*
X52312Y8924D2*
Y8708D1*
X52326Y8665D1*
X52355Y8637D1*
X52398Y8622D1*
X52427D1*
X52470Y8637D1*
X52499Y8665D1*
X52513Y8708D1*
Y8924D1*
X52677Y8923D2*
X52634Y8909D1*
X52620Y8880D1*
Y8852D1*
X52634Y8823D1*
X52663Y8809D1*
X52720Y8794D1*
X52763Y8780D1*
X52792Y8751D1*
X52806Y8723D1*
Y8680D1*
X52792Y8651D1*
X52778Y8636D1*
X52735Y8622D1*
X52677D1*
X52634Y8636D1*
X52620Y8651D1*
X52606Y8680D1*
Y8723D1*
X52620Y8751D1*
X52649Y8780D1*
X52691Y8794D1*
X52749Y8809D1*
X52778Y8823D1*
X52792Y8852D1*
Y8880D1*
X52778Y8909D1*
X52735Y8923D1*
X52677D1*
X38387Y17855D2*
D19*
X38042Y18760D1*
X37698Y17855D1*
X37827Y18157D2*
X38258D1*
X38781Y18760D2*
Y17855D1*
X39384Y18760D2*
X38781Y18157D1*
X38996Y18373D2*
X39384Y17855D1*
X40208D2*
Y18759D1*
X39777Y18157D1*
X40423D1*
X41247Y17855D2*
Y18759D1*
X40817Y18157D1*
X41462D1*
X42372Y18759D2*
X41943D1*
X41900Y18372D1*
X41943Y18414D1*
X42072Y18458D1*
X42200D1*
X42330Y18414D1*
X42416Y18329D1*
X42459Y18199D1*
Y18114D1*
X42416Y17985D1*
X42330Y17898D1*
X42200Y17855D1*
X42072D1*
X41943Y17898D1*
X41900Y17942D1*
X41856Y18027D1*
X43068Y18759D2*
X42939Y18716D1*
X42895Y18630D1*
Y18544D1*
X42939Y18458D1*
X43025Y18414D1*
X43197Y18372D1*
X43326Y18329D1*
X43412Y18242D1*
X43455Y18157D1*
Y18027D1*
X43412Y17942D1*
X43369Y17898D1*
X43240Y17855D1*
X43068D1*
X42939Y17898D1*
X42895Y17942D1*
X42853Y18027D1*
Y18157D1*
X42895Y18242D1*
X42982Y18329D1*
X43110Y18372D1*
X43282Y18414D1*
X43369Y18458D1*
X43412Y18544D1*
Y18630D1*
X43369Y18716D1*
X43240Y18759D1*
X43068D1*
X43848Y18760D2*
X44192Y17855D1*
X44537Y18760D1*
X45533D2*
Y17855D1*
X44930Y18760D1*
Y17855D1*
X39113Y21173D2*
D115*
X39085Y21145D1*
X39070Y21101D1*
Y21044D1*
X39085Y21001D1*
X39113Y20972D1*
X39142D1*
X39171Y20987D1*
X39185Y21001D1*
X39199Y21030D1*
X39228Y21116D1*
X39242Y21145D1*
X39257Y21159D1*
X39286Y21173D1*
X39329D1*
X39357Y21145D1*
X39372Y21101D1*
Y21044D1*
X39357Y21001D1*
X39329Y20972D1*
X39142Y21481D2*
X39113Y21467D1*
X39085Y21438D1*
X39070Y21409D1*
Y21352D1*
X39085Y21323D1*
X39113Y21295D1*
X39142Y21280D1*
X39185Y21266D1*
X39257D1*
X39300Y21280D1*
X39329Y21295D1*
X39357Y21323D1*
X39372Y21352D1*
Y21409D1*
X39357Y21438D1*
X39329Y21467D1*
X39300Y21481D1*
X39070Y21574D2*
X39372D1*
Y21746D1*
X40015Y20342D2*
X40317D1*
Y20514D1*
X40159Y20607D2*
Y20736D1*
X40144Y20779D1*
X40130Y20794D1*
X40101Y20808D1*
X40073D1*
X40044Y20794D1*
X40029Y20779D1*
X40015Y20736D1*
Y20607D1*
X40317D1*
X40159Y20707D2*
X40317Y20808D1*
X40087Y21116D2*
X40058Y21102D1*
X40029Y21073D1*
X40015Y21044D1*
Y20987D1*
X40029Y20958D1*
X40058Y20929D1*
X40087Y20915D1*
X40130Y20901D1*
X40202D1*
X40245Y20915D1*
X40273Y20929D1*
X40302Y20958D1*
X40317Y20987D1*
Y21044D1*
X40302Y21073D1*
X40273Y21102D1*
X40245Y21116D1*
X40015Y21208D2*
X40317D1*
X40015Y21409D2*
X40216Y21208D1*
X40144Y21280D2*
X40317Y21409D1*
X40015Y21588D2*
X40030Y21545D1*
X40073Y21516D1*
X40144Y21502D1*
X40188D1*
X40259Y21516D1*
X40302Y21545D1*
X40317Y21588D1*
Y21617D1*
X40302Y21660D1*
X40259Y21688D1*
X40188Y21703D1*
X40144D1*
X40073Y21688D1*
X40030Y21660D1*
X40015Y21617D1*
Y21588D1*
X40073Y21688D2*
X40259Y21516D1*
X33997Y17421D2*
D19*
X34341Y16517D1*
X34685Y17421D1*
X35638D2*
X35079D1*
Y16517D1*
X35638D1*
X35079Y16990D2*
X35423D1*
X36032Y17421D2*
Y16517D1*
X36548D1*
X36942Y17421D2*
X37286Y16517D1*
X37630Y17421D1*
X38583D2*
X38024D1*
Y16517D1*
X38583D1*
X38024Y16990D2*
X38368D1*
X39278Y17421D2*
Y16517D1*
X38977Y17421D2*
X39580D1*
X41567Y17292D2*
X41481Y17378D1*
X41352Y17421D1*
X41180D1*
X41051Y17378D1*
X40964Y17292D1*
Y17206D1*
X41008Y17119D1*
X41051Y17077D1*
X41136Y17034D1*
X41395Y16947D1*
X41481Y16905D1*
X41524Y16861D1*
X41567Y16775D1*
Y16646D1*
X41481Y16560D1*
X41352Y16517D1*
X41180D1*
X41051Y16560D1*
X40964Y16646D1*
X42219Y17421D2*
X42133Y17378D1*
X42047Y17292D1*
X42003Y17206D1*
X41961Y17077D1*
Y16861D1*
X42003Y16732D1*
X42047Y16646D1*
X42133Y16560D1*
X42219Y16517D1*
X42391D1*
X42477Y16560D1*
X42563Y16646D1*
X42606Y16732D1*
X42649Y16861D1*
Y17077D1*
X42606Y17206D1*
X42563Y17292D1*
X42477Y17378D1*
X42391Y17421D1*
X42219D1*
X43043D2*
Y16775D1*
X43085Y16646D1*
X43172Y16560D1*
X43301Y16517D1*
X43387D1*
X43516Y16560D1*
X43603Y16646D1*
X43646Y16775D1*
Y17421D1*
X44642D2*
Y16517D1*
X44039Y17421D1*
Y16517D1*
X45036Y17421D2*
Y16517D1*
X45337D1*
X45467Y16560D1*
X45553Y16646D1*
X45596Y16732D1*
X45639Y16861D1*
Y17077D1*
X45596Y17206D1*
X45553Y17292D1*
X45467Y17378D1*
X45337Y17421D1*
X45036D1*
X41039Y20027D2*
D115*
X41340D1*
Y20128D1*
X41326Y20171D1*
X41297Y20200D1*
X41268Y20214D1*
X41225Y20228D1*
X41154D1*
X41110Y20214D1*
X41082Y20200D1*
X41053Y20171D1*
X41039Y20128D1*
Y20027D1*
X41340Y20551D2*
X41039Y20436D1*
X41340Y20321D1*
X41240Y20364D2*
Y20508D1*
X41039Y20744D2*
X41340D1*
X41039Y20643D2*
Y20844D1*
X41340Y21167D2*
X41039Y21052D1*
X41340Y20937D1*
X41240Y20980D2*
Y21124D1*
X41039Y21346D2*
X41053Y21302D1*
X41096Y21274D1*
X41168Y21259D1*
X41211D1*
X41283Y21274D1*
X41326Y21302D1*
X41340Y21346D1*
Y21374D1*
X41326Y21417D1*
X41283Y21446D1*
X41211Y21460D1*
X41168D1*
X41096Y21446D1*
X41053Y21417D1*
X41039Y21374D1*
Y21346D1*
X41096Y21446D2*
X41283Y21274D1*
X42023Y20460D2*
X42324D1*
Y20590D1*
X42310Y20633D1*
X42296Y20647D1*
X42267Y20661D1*
X42224D1*
X42195Y20647D1*
X42181Y20633D1*
X42167Y20590D1*
X42152Y20633D1*
X42138Y20647D1*
X42109Y20661D1*
X42080D1*
X42052Y20647D1*
X42037Y20633D1*
X42023Y20590D1*
Y20460D1*
X42167D2*
Y20590D1*
X42095Y20969D2*
X42066Y20955D1*
X42037Y20926D1*
X42023Y20898D1*
Y20840D1*
X42037Y20811D1*
X42066Y20783D1*
X42095Y20768D1*
X42138Y20754D1*
X42210D1*
X42253Y20768D1*
X42281Y20783D1*
X42310Y20811D1*
X42324Y20840D1*
Y20898D1*
X42310Y20926D1*
X42281Y20955D1*
X42253Y20969D1*
X42023Y21062D2*
X42324D1*
Y21234D1*
X42023Y21327D2*
X42324D1*
X42023Y21528D2*
X42224Y21327D1*
X42152Y21398D2*
X42324Y21528D1*
X42081Y21620D2*
X42066Y21649D1*
X42023Y21692D1*
X42324D1*
X43309Y21202D2*
X43007D1*
X43309Y21087D1*
X43007Y20972D1*
X43309D1*
X43165Y21294D2*
Y21424D1*
X43151Y21466D1*
X43136Y21481D1*
X43108Y21495D1*
X43065D1*
X43036Y21481D1*
X43022Y21466D1*
X43007Y21424D1*
Y21294D1*
X43309D1*
X43050Y21760D2*
X43022Y21746D1*
X43008Y21703D1*
Y21674D1*
X43022Y21631D1*
X43065Y21602D1*
X43137Y21588D1*
X43208D1*
X43266Y21602D1*
X43294Y21631D1*
X43309Y21674D1*
Y21688D1*
X43294Y21731D1*
X43266Y21760D1*
X43223Y21774D1*
X43208D1*
X43165Y21760D1*
X43137Y21731D1*
X43122Y21688D1*
Y21674D1*
X43137Y21631D1*
X43165Y21602D1*
X43208Y21588D1*
X44031Y20421D2*
X44332D1*
Y20593D1*
X44175Y20686D2*
Y20815D1*
X44160Y20858D1*
X44146Y20872D1*
X44117Y20887D1*
X44088D1*
X44060Y20872D1*
X44045Y20858D1*
X44031Y20815D1*
Y20686D1*
X44332D1*
X44175Y20786D2*
X44332Y20887D1*
X44103Y21195D2*
X44074Y21180D1*
X44045Y21151D1*
X44031Y21123D1*
Y21066D1*
X44045Y21037D1*
X44074Y21008D1*
X44103Y20994D1*
X44146Y20979D1*
X44218D1*
X44260Y20994D1*
X44289Y21008D1*
X44318Y21037D1*
X44332Y21066D1*
Y21123D1*
X44318Y21151D1*
X44289Y21180D1*
X44260Y21195D1*
X44031Y21287D2*
X44332D1*
X44031Y21488D2*
X44232Y21287D1*
X44160Y21359D2*
X44332Y21488D1*
X44103Y21595D2*
X44089D1*
X44060Y21610D1*
X44046Y21624D1*
X44031Y21653D1*
Y21710D1*
X44046Y21739D1*
X44060Y21753D1*
X44089Y21767D1*
X44117D1*
X44146Y21753D1*
X44189Y21724D1*
X44332Y21581D1*
Y21782D1*
X45015Y20342D2*
X45317D1*
Y20443D1*
X45302Y20486D1*
X45273Y20515D1*
X45245Y20529D1*
X45202Y20543D1*
X45130D1*
X45087Y20529D1*
X45058Y20515D1*
X45029Y20486D1*
X45015Y20443D1*
Y20342D1*
X45317Y20866D2*
X45015Y20751D1*
X45317Y20636D1*
X45216Y20679D2*
Y20823D1*
X45015Y21059D2*
X45317D1*
X45015Y20958D2*
Y21159D1*
X45317Y21482D2*
X45015Y21367D1*
X45317Y21252D1*
X45216Y21295D2*
Y21439D1*
X45087Y21589D2*
X45073D1*
X45044Y21603D1*
X45030Y21617D1*
X45015Y21646D1*
Y21704D1*
X45030Y21732D1*
X45044Y21746D1*
X45073Y21761D1*
X45101D1*
X45130Y21746D1*
X45173Y21718D1*
X45317Y21574D1*
Y21775D1*
X46039Y20421D2*
X46340D1*
Y20550D1*
X46326Y20593D1*
X46311Y20608D1*
X46283Y20622D1*
X46240D1*
X46211Y20608D1*
X46197Y20593D1*
X46182Y20550D1*
X46168Y20593D1*
X46154Y20608D1*
X46125Y20622D1*
X46096D1*
X46068Y20608D1*
X46053Y20593D1*
X46039Y20550D1*
Y20421D1*
X46182D2*
Y20550D1*
X46110Y20930D2*
X46082Y20916D1*
X46053Y20887D1*
X46039Y20858D1*
Y20801D1*
X46053Y20772D1*
X46082Y20743D1*
X46110Y20729D1*
X46154Y20715D1*
X46225D1*
X46268Y20729D1*
X46297Y20743D1*
X46326Y20772D1*
X46340Y20801D1*
Y20858D1*
X46326Y20887D1*
X46297Y20916D1*
X46268Y20930D1*
X46039Y21022D2*
X46340D1*
Y21195D1*
X46039Y21287D2*
X46340D1*
X46039Y21488D2*
X46240Y21287D1*
X46168Y21359D2*
X46340Y21488D1*
X46039Y21610D2*
Y21767D1*
X46154Y21681D1*
Y21724D1*
X46168Y21753D1*
X46182Y21767D1*
X46225Y21782D1*
X46254D1*
X46297Y21767D1*
X46326Y21739D1*
X46340Y21696D1*
Y21652D1*
X46326Y21610D1*
X46311Y21595D1*
X46283Y21581D1*
X47023Y20088D2*
X47324D1*
X47023Y19988D2*
Y20189D1*
X47167Y20282D2*
Y20411D1*
X47152Y20454D1*
X47138Y20468D1*
X47109Y20482D1*
X47080D1*
X47052Y20468D1*
X47037Y20454D1*
X47023Y20411D1*
Y20282D1*
X47324D1*
X47167Y20382D2*
X47324Y20482D1*
X47023Y20575D2*
X47324D1*
X47095Y20883D2*
X47066Y20869D1*
X47037Y20840D1*
X47023Y20811D1*
Y20754D1*
X47037Y20725D1*
X47066Y20697D1*
X47095Y20682D1*
X47138Y20668D1*
X47210D1*
X47253Y20682D1*
X47281Y20697D1*
X47310Y20725D1*
X47324Y20754D1*
Y20811D1*
X47310Y20840D1*
X47281Y20869D1*
X47253Y20883D1*
X47210D1*
Y20811D1*
X47095Y21191D2*
X47066Y21177D1*
X47037Y21148D1*
X47023Y21119D1*
Y21062D1*
X47037Y21033D1*
X47066Y21004D1*
X47095Y20990D1*
X47138Y20976D1*
X47210D1*
X47253Y20990D1*
X47281Y21004D1*
X47310Y21033D1*
X47324Y21062D1*
Y21119D1*
X47310Y21148D1*
X47281Y21177D1*
X47253Y21191D1*
X47210D1*
Y21119D1*
X47023Y21470D2*
Y21283D1*
X47324D1*
Y21470D1*
X47167Y21283D2*
Y21398D1*
Y21562D2*
Y21691D1*
X47152Y21735D1*
X47138Y21749D1*
X47109Y21763D1*
X47080D1*
X47052Y21749D1*
X47037Y21735D1*
X47023Y21691D1*
Y21562D1*
X47324D1*
X47167Y21663D2*
X47324Y21763D1*
X48079Y21187D2*
X48050Y21173D1*
X48022Y21144D1*
X48007Y21116D1*
Y21058D1*
X48022Y21030D1*
X48050Y21001D1*
X48079Y20986D1*
X48122Y20972D1*
X48194D1*
X48237Y20986D1*
X48266Y21001D1*
X48294Y21030D1*
X48309Y21058D1*
Y21116D1*
X48294Y21144D1*
X48266Y21173D1*
X48237Y21187D1*
X48194D1*
Y21116D1*
X48007Y21481D2*
X48309D1*
X48007Y21280D1*
X48309D1*
X48007Y21574D2*
X48309D1*
Y21674D1*
X48294Y21717D1*
X48266Y21746D1*
X48237Y21760D1*
X48194Y21775D1*
X48122D1*
X48079Y21760D1*
X48050Y21746D1*
X48022Y21717D1*
X48007Y21674D1*
Y21574D1*
X49031Y21380D2*
Y21237D1*
X49160Y21223D1*
X49146Y21237D1*
X49131Y21280D1*
Y21323D1*
X49146Y21366D1*
X49175Y21395D1*
X49218Y21409D1*
X49246D1*
X49289Y21395D1*
X49318Y21366D1*
X49332Y21323D1*
Y21280D1*
X49318Y21237D1*
X49304Y21223D1*
X49275Y21208D1*
X49031Y21502D2*
X49332Y21617D1*
X49031Y21731D1*
X50055Y20922D2*
Y21080D1*
X50170Y20994D1*
Y21037D1*
X50184Y21066D1*
X50198Y21080D1*
X50241Y21094D1*
X50270D1*
X50313Y21080D1*
X50342Y21051D1*
X50356Y21008D1*
Y20965D1*
X50342Y20922D1*
X50327Y20908D1*
X50299Y20893D1*
X50327Y21201D2*
X50342Y21187D1*
X50356Y21201D1*
X50342Y21216D1*
X50327Y21201D1*
X50055Y21337D2*
Y21495D1*
X50170Y21409D1*
Y21452D1*
X50184Y21481D1*
X50198Y21495D1*
X50241Y21509D1*
X50270D1*
X50313Y21495D1*
X50342Y21466D1*
X50356Y21423D1*
Y21380D1*
X50342Y21337D1*
X50327Y21323D1*
X50299Y21309D1*
X50055Y21602D2*
X50356Y21717D1*
X50055Y21832D1*
X51110Y21227D2*
X51082Y21212D1*
X51053Y21184D1*
X51039Y21155D1*
Y21098D1*
X51053Y21069D1*
X51082Y21040D1*
X51110Y21026D1*
X51154Y21012D1*
X51225D1*
X51268Y21026D1*
X51297Y21040D1*
X51326Y21069D1*
X51340Y21098D1*
Y21155D1*
X51326Y21184D1*
X51297Y21212D1*
X51268Y21227D1*
X51225D1*
Y21155D1*
X51039Y21520D2*
X51340D1*
X51039Y21319D1*
X51340D1*
X51039Y21613D2*
X51340D1*
Y21713D1*
X51326Y21757D1*
X51297Y21785D1*
X51268Y21800D1*
X51225Y21814D1*
X51154D1*
X51110Y21800D1*
X51082Y21785D1*
X51053Y21757D1*
X51039Y21713D1*
Y21613D1*
X52718Y20296D2*
X52417D1*
X52718Y20181D1*
X52417Y20067D1*
X52718D1*
X52488Y20604D2*
X52460Y20590D1*
X52431Y20561D1*
X52417Y20532D1*
Y20475D1*
X52431Y20446D1*
X52460Y20418D1*
X52488Y20403D1*
X52531Y20389D1*
X52603D1*
X52646Y20403D1*
X52675Y20418D1*
X52704Y20446D1*
X52718Y20475D1*
Y20532D1*
X52704Y20561D1*
X52675Y20590D1*
X52646Y20604D1*
X52417Y20697D2*
X52718D1*
Y20869D1*
X52417Y20961D2*
X52718D1*
X52417Y21162D2*
X52618Y20961D1*
X52546Y21033D2*
X52718Y21162D1*
X52417Y21547D2*
X52718D1*
X52417Y21840D2*
X52718D1*
X52417Y21639D1*
X52718D1*
X5954Y18309D2*
D16*
X5939Y18338D1*
X5896Y18352D1*
X5868D1*
X5825Y18338D1*
X5796Y18295D1*
X5782Y18223D1*
Y18151D1*
X5796Y18094D1*
X5825Y18065D1*
X5868Y18051D1*
X5882D1*
X5925Y18065D1*
X5954Y18094D1*
X5968Y18137D1*
Y18151D1*
X5954Y18195D1*
X5925Y18223D1*
X5882Y18237D1*
X5868D1*
X5825Y18223D1*
X5796Y18195D1*
X5782Y18151D1*
X6099Y18252D2*
X6257Y18051D1*
Y18252D2*
X6099Y18051D1*
X6417Y18352D2*
X6575D1*
X6489Y18237D1*
X6532D1*
X6560Y18223D1*
X6575Y18209D1*
X6589Y18166D1*
Y18137D1*
X6575Y18094D1*
X6546Y18065D1*
X6503Y18051D1*
X6460D1*
X6417Y18065D1*
X6403Y18080D1*
X6388Y18108D1*
X6907Y18252D2*
X6893Y18209D1*
X6864Y18180D1*
X6821Y18166D1*
X6807D1*
X6764Y18180D1*
X6735Y18209D1*
X6720Y18252D1*
Y18266D1*
X6735Y18309D1*
X6764Y18338D1*
X6807Y18352D1*
X6821D1*
X6864Y18338D1*
X6893Y18309D1*
X6907Y18252D1*
Y18180D1*
X6893Y18108D1*
X6864Y18065D1*
X6821Y18051D1*
X6792D1*
X6749Y18065D1*
X6735Y18094D1*
X52199Y8255D2*
X52228Y8270D1*
X52271Y8313D1*
Y8012D1*
X52417Y8241D2*
Y8255D1*
X52431Y8284D1*
X52445Y8298D1*
X52474Y8313D1*
X52531D1*
X52560Y8298D1*
X52574Y8284D1*
X52589Y8255D1*
Y8227D1*
X52574Y8198D1*
X52546Y8155D1*
X52402Y8012D1*
X52603D1*
X52906Y8313D2*
X52763D1*
X52749Y8184D1*
X52763Y8198D1*
X52806Y8213D1*
X52849D1*
X52892Y8198D1*
X52921Y8169D1*
X52935Y8126D1*
Y8098D1*
X52921Y8055D1*
X52892Y8026D1*
X52849Y8012D1*
X52806D1*
X52763Y8026D1*
X52749Y8040D1*
X52734Y8069D1*
X53095Y8026D2*
X53081Y8012D1*
X53067Y8026D1*
X53081Y8040D1*
X53095Y8026D1*
Y7997D1*
X53081Y7968D1*
X53067Y7954D1*
X53370Y8012D2*
Y8313D1*
X53227Y8112D1*
X53442D1*
X53573Y8213D2*
X53731Y8012D1*
Y8213D2*
X53573Y8012D1*
X54034Y8270D2*
X54020Y8298D1*
X53977Y8313D1*
X53948D1*
X53905Y8298D1*
X53876Y8255D1*
X53862Y8184D1*
Y8112D1*
X53876Y8055D1*
X53905Y8026D1*
X53948Y8012D1*
X53963D1*
X54005Y8026D1*
X54034Y8055D1*
X54049Y8098D1*
Y8112D1*
X54034Y8155D1*
X54005Y8184D1*
X53963Y8198D1*
X53948D1*
X53905Y8184D1*
X53876Y8155D1*
X53862Y8112D1*
X54209Y8026D2*
X54194Y8012D1*
X54180Y8026D1*
X54194Y8040D1*
X54209Y8026D1*
Y7997D1*
X54194Y7968D1*
X54180Y7954D1*
X54512Y8313D2*
X54369D1*
X54354Y8184D1*
X54369Y8198D1*
X54412Y8213D1*
X54455D1*
X54498Y8198D1*
X54527Y8169D1*
X54541Y8126D1*
Y8098D1*
X54527Y8055D1*
X54498Y8026D1*
X54455Y8012D1*
X54412D1*
X54369Y8026D1*
X54354Y8040D1*
X54340Y8069D1*
X46254Y7192D2*
X46283Y7207D1*
X46326Y7250D1*
Y6949D1*
X46457Y7192D2*
X46486Y7207D1*
X46529Y7250D1*
Y6949D1*
X46689Y7250D2*
X46847D1*
X46761Y7135D1*
X46804D1*
X46833Y7121D1*
X46847Y7106D1*
X46861Y7063D1*
Y7035D1*
X46847Y6992D1*
X46818Y6963D1*
X46775Y6949D1*
X46732D1*
X46689Y6963D1*
X46675Y6977D1*
X46660Y7006D1*
X47021Y6963D2*
X47007Y6949D1*
X46993Y6963D1*
X47007Y6977D1*
X47021Y6963D1*
Y6934D1*
X47007Y6905D1*
X46993Y6891D1*
X47210Y6949D2*
X47354Y7250D1*
X47153D1*
X47485Y7150D2*
X47643Y6949D1*
Y7150D2*
X47485Y6949D1*
X47803Y7250D2*
X47960D1*
X47874Y7135D1*
X47918D1*
X47946Y7121D1*
X47960Y7106D1*
X47975Y7063D1*
Y7035D1*
X47960Y6992D1*
X47932Y6963D1*
X47889Y6949D1*
X47846D1*
X47803Y6963D1*
X47789Y6977D1*
X47774Y7006D1*
X48135Y6963D2*
X48120Y6949D1*
X48106Y6963D1*
X48120Y6977D1*
X48135Y6963D1*
Y6934D1*
X48120Y6905D1*
X48106Y6891D1*
X48281Y7178D2*
Y7192D1*
X48295Y7221D1*
X48309Y7235D1*
X48338Y7250D1*
X48396D1*
X48424Y7235D1*
X48438Y7221D1*
X48453Y7192D1*
Y7164D1*
X48438Y7135D1*
X48410Y7092D1*
X48266Y6949D1*
X48467D1*
X34848Y23709D2*
D119*
Y23307D1*
X34982D1*
X35039Y23326D1*
X35078Y23365D1*
X35097Y23403D1*
X35116Y23460D1*
Y23556D1*
X35097Y23613D1*
X35078Y23651D1*
X35039Y23690D1*
X34982Y23709D1*
X34848D1*
X35291D2*
X35310Y23690D1*
X35329Y23709D1*
X35310Y23728D1*
X35291Y23709D1*
X35310Y23575D2*
Y23307D1*
X35504Y23575D2*
X35715Y23307D1*
Y23575D2*
X35504Y23307D1*
X35985Y23575D2*
X35947Y23556D1*
X35908Y23518D1*
X35889Y23460D1*
Y23422D1*
X35908Y23365D1*
X35947Y23326D1*
X35985Y23307D1*
X36042D1*
X36081Y23326D1*
X36119Y23365D1*
X36138Y23422D1*
Y23460D1*
X36119Y23518D1*
X36081Y23556D1*
X36042Y23575D1*
X35985D1*
X36313D2*
Y23307D1*
Y23498D2*
X36371Y23556D1*
X36409Y23575D1*
X36466D1*
X36505Y23556D1*
X36524Y23498D1*
Y23307D1*
Y23498D2*
X36581Y23556D1*
X36620Y23575D1*
X36677D1*
X36715Y23556D1*
X36735Y23498D1*
Y23307D1*
X36929Y23346D2*
X36910Y23326D1*
X36929Y23307D1*
X36948Y23326D1*
X36929Y23346D1*
X37123Y23518D2*
X37295D1*
X37353Y23537D1*
X37372Y23556D1*
X37391Y23594D1*
Y23632D1*
X37372Y23670D1*
X37353Y23690D1*
X37295Y23709D1*
X37123D1*
Y23307D1*
X37257Y23518D2*
X37391Y23307D1*
X37566Y23709D2*
Y23422D1*
X37585Y23365D1*
X37624Y23326D1*
X37681Y23307D1*
X37719D1*
X37777Y23326D1*
X37815Y23365D1*
X37834Y23422D1*
Y23709D1*
X9590Y5832D2*
D120*
X9848D1*
X9934Y5861D1*
X9963Y5889D1*
X9992Y5946D1*
Y6004D1*
X9963Y6061D1*
X9934Y6090D1*
X9848Y6119D1*
X9590D1*
Y5516D1*
X9791Y5832D2*
X9992Y5516D1*
X10607Y5976D2*
X10579Y6033D1*
X10521Y6090D1*
X10464Y6119D1*
X10349D1*
X10292Y6090D1*
X10234Y6033D1*
X10205Y5976D1*
X10177Y5889D1*
Y5746D1*
X10205Y5660D1*
X10234Y5602D1*
X10292Y5545D1*
X10349Y5516D1*
X10464D1*
X10521Y5545D1*
X10579Y5602D1*
X10607Y5660D1*
X11252Y5516D2*
X11022Y6119D1*
X10792Y5516D1*
X10879Y5717D2*
X11166D1*
X11437Y5817D2*
X11769D1*
X11983Y5975D2*
Y6003D1*
X12012Y6061D1*
X12040Y6090D1*
X12098Y6118D1*
X12213D1*
X12270Y6090D1*
X12298Y6061D1*
X12328Y6003D1*
Y5946D1*
X12298Y5889D1*
X12241Y5803D1*
X11954Y5516D1*
X12356D1*
X12541Y6003D2*
X12599Y6033D1*
X12685Y6118D1*
Y5516D1*
X13043Y6118D2*
X12957Y6090D1*
X12899Y6003D1*
X12871Y5860D1*
Y5774D1*
X12899Y5631D1*
X12957Y5545D1*
X13043Y5516D1*
X13100D1*
X13186Y5545D1*
X13243Y5631D1*
X13273Y5774D1*
Y5860D1*
X13243Y6003D1*
X13186Y6090D1*
X13100Y6118D1*
X13043D1*
X13243Y6003D2*
X12899Y5631D1*
X20613Y5832D2*
X20871D1*
X20957Y5861D1*
X20987Y5889D1*
X21015Y5946D1*
Y6004D1*
X20987Y6061D1*
X20957Y6090D1*
X20871Y6119D1*
X20613D1*
Y5516D1*
X20814Y5832D2*
X21015Y5516D1*
X21631Y5976D2*
X21602Y6033D1*
X21545Y6090D1*
X21488Y6119D1*
X21373D1*
X21315Y6090D1*
X21258Y6033D1*
X21229Y5976D1*
X21200Y5889D1*
Y5746D1*
X21229Y5660D1*
X21258Y5602D1*
X21315Y5545D1*
X21373Y5516D1*
X21488D1*
X21545Y5545D1*
X21602Y5602D1*
X21631Y5660D1*
X22276Y5516D2*
X22046Y6119D1*
X21816Y5516D1*
X21902Y5717D2*
X22190D1*
X22461Y5817D2*
X22793D1*
X23007Y5975D2*
Y6003D1*
X23036Y6061D1*
X23064Y6090D1*
X23122Y6118D1*
X23237D1*
X23294Y6090D1*
X23322Y6061D1*
X23351Y6003D1*
Y5946D1*
X23322Y5889D1*
X23265Y5803D1*
X22978Y5516D1*
X23380D1*
X23565Y6003D2*
X23623Y6033D1*
X23709Y6118D1*
Y5516D1*
X24067Y6118D2*
X23980Y6090D1*
X23923Y6003D1*
X23894Y5860D1*
Y5774D1*
X23923Y5631D1*
X23980Y5545D1*
X24067Y5516D1*
X24124D1*
X24210Y5545D1*
X24267Y5631D1*
X24296Y5774D1*
Y5860D1*
X24267Y6003D1*
X24210Y6090D1*
X24124Y6118D1*
X24067D1*
X24267Y6003D2*
X23923Y5631D1*
X31637Y5832D2*
X31895D1*
X31981Y5861D1*
X32010Y5889D1*
X32039Y5946D1*
Y6004D1*
X32010Y6061D1*
X31981Y6090D1*
X31895Y6119D1*
X31637D1*
Y5516D1*
X31838Y5832D2*
X32039Y5516D1*
X32654Y5976D2*
X32626Y6033D1*
X32568Y6090D1*
X32511Y6119D1*
X32396D1*
X32339Y6090D1*
X32282Y6033D1*
X32253Y5976D1*
X32224Y5889D1*
Y5746D1*
X32253Y5660D1*
X32282Y5602D1*
X32339Y5545D1*
X32396Y5516D1*
X32511D1*
X32568Y5545D1*
X32626Y5602D1*
X32654Y5660D1*
X33299Y5516D2*
X33069Y6119D1*
X32840Y5516D1*
X32926Y5717D2*
X33213D1*
X33485Y5817D2*
X33816D1*
X34031Y5975D2*
Y6003D1*
X34059Y6061D1*
X34088Y6090D1*
X34145Y6118D1*
X34260D1*
X34317Y6090D1*
X34346Y6061D1*
X34375Y6003D1*
Y5946D1*
X34346Y5889D1*
X34289Y5803D1*
X34002Y5516D1*
X34403D1*
X34589Y6003D2*
X34646Y6033D1*
X34733Y6118D1*
Y5516D1*
X35090Y6118D2*
X35004Y6090D1*
X34946Y6003D1*
X34918Y5860D1*
Y5774D1*
X34946Y5631D1*
X35004Y5545D1*
X35090Y5516D1*
X35147D1*
X35234Y5545D1*
X35291Y5631D1*
X35320Y5774D1*
Y5860D1*
X35291Y6003D1*
X35234Y6090D1*
X35147Y6118D1*
X35090D1*
X35291Y6003D2*
X34946Y5631D1*
X42660Y5832D2*
X42918D1*
X43005Y5861D1*
X43034Y5889D1*
X43062Y5946D1*
Y6004D1*
X43034Y6061D1*
X43005Y6090D1*
X42918Y6119D1*
X42660D1*
Y5516D1*
X42861Y5832D2*
X43062Y5516D1*
X43678Y5976D2*
X43650Y6033D1*
X43592Y6090D1*
X43535Y6119D1*
X43420D1*
X43362Y6090D1*
X43305Y6033D1*
X43276Y5976D1*
X43248Y5889D1*
Y5746D1*
X43276Y5660D1*
X43305Y5602D1*
X43362Y5545D1*
X43420Y5516D1*
X43535D1*
X43592Y5545D1*
X43650Y5602D1*
X43678Y5660D1*
X44323Y5516D2*
X44093Y6119D1*
X43863Y5516D1*
X43950Y5717D2*
X44237D1*
X44508Y5817D2*
X44840D1*
X45054Y5975D2*
Y6003D1*
X45083Y6061D1*
X45111Y6090D1*
X45169Y6118D1*
X45284D1*
X45341Y6090D1*
X45369Y6061D1*
X45399Y6003D1*
Y5946D1*
X45369Y5889D1*
X45312Y5803D1*
X45025Y5516D1*
X45427D1*
X45612Y6003D2*
X45670Y6033D1*
X45756Y6118D1*
Y5516D1*
X46114Y6118D2*
X46028Y6090D1*
X45970Y6003D1*
X45942Y5860D1*
Y5774D1*
X45970Y5631D1*
X46028Y5545D1*
X46114Y5516D1*
X46171D1*
X46257Y5545D1*
X46314Y5631D1*
X46343Y5774D1*
Y5860D1*
X46314Y6003D1*
X46257Y6090D1*
X46171Y6118D1*
X46114D1*
X46314Y6003D2*
X45970Y5631D1*
X13417Y20152D2*
D119*
Y19931D1*
X13618Y19641D2*
X13599Y19679D1*
X13561Y19717D1*
X13523Y19737D1*
X13465Y19756D1*
X13369D1*
X13312Y19737D1*
X13274Y19717D1*
X13236Y19679D1*
X13216Y19641D1*
Y19564D1*
X13236Y19526D1*
X13274Y19488D1*
X13312Y19469D1*
X13369Y19450D1*
X13465D1*
X13523Y19469D1*
X13561Y19488D1*
X13599Y19526D1*
X13618Y19564D1*
Y19641D1*
Y19275D2*
X13331D1*
X13274Y19256D1*
X13236Y19217D1*
X13216Y19160D1*
Y19122D1*
X13236Y19064D1*
X13274Y19026D1*
X13331Y19007D1*
X13618D1*
Y18698D2*
X13216D1*
X13618Y18832D2*
Y18564D1*
X13484Y15731D2*
X13522Y15750D1*
X13560Y15788D1*
X13579Y15827D1*
Y15903D1*
X13560Y15941D1*
X13522Y15979D1*
X13484Y15999D1*
X13426Y16018D1*
X13330D1*
X13273Y15999D1*
X13235Y15979D1*
X13197Y15941D1*
X13177Y15903D1*
Y15827D1*
X13197Y15788D1*
X13235Y15750D1*
X13273Y15731D1*
X13579Y15441D2*
X13560Y15480D1*
X13522Y15518D1*
X13484Y15537D1*
X13426Y15556D1*
X13330D1*
X13273Y15537D1*
X13235Y15518D1*
X13197Y15480D1*
X13177Y15441D1*
Y15365D1*
X13197Y15327D1*
X13235Y15288D1*
X13273Y15269D1*
X13330Y15250D1*
X13426D1*
X13484Y15269D1*
X13522Y15288D1*
X13560Y15327D1*
X13579Y15365D1*
Y15441D1*
X13177Y14769D2*
X13579D1*
X13177Y14922D1*
X13579Y15075D1*
X13177D1*
X13589Y12106D2*
X13245D1*
X13417Y12278D2*
Y11934D1*
X13618Y11644D2*
X13599Y11682D1*
X13561Y11720D1*
X13523Y11740D1*
X13465Y11759D1*
X13369D1*
X13312Y11740D1*
X13274Y11720D1*
X13236Y11682D1*
X13216Y11644D1*
Y11567D1*
X13236Y11529D1*
X13274Y11491D1*
X13312Y11472D1*
X13369Y11453D1*
X13465D1*
X13523Y11472D1*
X13561Y11491D1*
X13599Y11529D1*
X13618Y11567D1*
Y11644D1*
Y11278D2*
X13331D1*
X13274Y11259D1*
X13236Y11220D1*
X13216Y11163D1*
Y11125D1*
X13236Y11067D1*
X13274Y11029D1*
X13331Y11010D1*
X13618D1*
Y10701D2*
X13216D1*
X13618Y10835D2*
Y10567D1*
X10830Y19686D2*
D51*
X10126Y19518D1*
X10830Y19351D1*
X10126Y19184D1*
X10830Y19016D1*
X10461Y18710D2*
Y18408D1*
X10495Y18308D1*
X10529Y18274D1*
X10595Y18241D1*
X10696D1*
X10762Y18274D1*
X10796Y18308D1*
X10830Y18408D1*
Y18710D1*
X10126D1*
Y17399D2*
X10830Y17667D1*
X10126Y17935D1*
X10361Y17834D2*
Y17499D1*
X10695Y17092D2*
X10729Y17025D1*
X10829Y16924D1*
X10126D1*
X10662Y16584D2*
X10695D1*
X10762Y16551D1*
X10796Y16518D1*
X10829Y16450D1*
Y16316D1*
X10796Y16250D1*
X10762Y16217D1*
X10695Y16183D1*
X10629D1*
X10561Y16217D1*
X10461Y16283D1*
X10126Y16618D1*
Y16149D1*
X10695Y15843D2*
X10729Y15776D1*
X10829Y15675D1*
X10126D1*
X10829Y14967D2*
Y15302D1*
X10528Y15335D1*
X10561Y15302D1*
X10595Y15201D1*
Y15101D1*
X10561Y15001D1*
X10495Y14933D1*
X10394Y14900D1*
X10328D1*
X10227Y14933D1*
X10160Y15001D1*
X10126Y15101D1*
Y15201D1*
X10160Y15302D1*
X10194Y15335D1*
X10260Y15369D1*
X10126Y14058D2*
X10830D1*
X10126Y14326D1*
X10830Y14594D1*
X10126D1*
X10830Y13752D2*
X10126D1*
Y13518D1*
X10160Y13417D1*
X10227Y13350D1*
X10294Y13317D1*
X10394Y13283D1*
X10562D1*
X10663Y13317D1*
X10729Y13350D1*
X10796Y13417D1*
X10830Y13518D1*
Y13752D1*
X10478Y12977D2*
Y12590D1*
X10729Y11882D2*
X10796Y11916D1*
X10829Y12016D1*
Y12083D1*
X10796Y12183D1*
X10695Y12251D1*
X10528Y12284D1*
X10361D1*
X10227Y12251D1*
X10160Y12183D1*
X10126Y12083D1*
Y12049D1*
X10160Y11950D1*
X10227Y11882D1*
X10328Y11849D1*
X10361D1*
X10461Y11882D1*
X10528Y11950D1*
X10561Y12049D1*
Y12083D1*
X10528Y12183D1*
X10461Y12251D1*
X10361Y12284D1*
X10830Y11543D2*
X10126Y11375D1*
X10830Y11208D1*
X10126Y11041D1*
X10830Y10873D1*
X7315Y16806D2*
D119*
Y16585D1*
X7516Y16410D2*
X7114D1*
X7516Y15967D2*
X7114D1*
X7516Y16235D1*
X7114D1*
X7487Y14744D2*
X7143D1*
X7315Y14916D2*
Y14572D1*
X7516Y14397D2*
X7114D1*
X7516Y13954D2*
X7114D1*
X7516Y14222D1*
X7114D1*
X8542Y17425D2*
D116*
X8040D1*
X8542Y16871D2*
X8040D1*
X8542Y17206D1*
X8040D1*
X8375Y16628D2*
X8350Y16653D1*
X8326Y16628D1*
X8350Y16605D1*
X8375Y16628D1*
X8088D2*
X8063Y16653D1*
X8040Y16628D1*
X8063Y16605D1*
X8088Y16628D1*
X8375Y16075D2*
X8303Y16099D1*
X8255Y16147D1*
X8231Y16218D1*
Y16242D1*
X8255Y16314D1*
X8303Y16362D1*
X8375Y16386D1*
X8398D1*
X8470Y16362D1*
X8518Y16314D1*
X8541Y16242D1*
Y16218D1*
X8518Y16147D1*
X8470Y16099D1*
X8375Y16075D1*
X8255D1*
X8135Y16099D1*
X8063Y16147D1*
X8040Y16218D1*
Y16266D1*
X8063Y16338D1*
X8111Y16362D1*
X8291Y15856D2*
Y15580D1*
X8446Y15361D2*
X8470Y15313D1*
X8541Y15241D1*
X8040D1*
X8541Y14903D2*
X8518Y14974D1*
X8470Y14998D1*
X8422D1*
X8375Y14974D1*
X8350Y14927D1*
X8326Y14831D1*
X8303Y14759D1*
X8255Y14712D1*
X8207Y14688D1*
X8135D1*
X8088Y14712D1*
X8063Y14735D1*
X8040Y14807D1*
Y14903D1*
X8063Y14974D1*
X8088Y14998D1*
X8135Y15022D1*
X8207D1*
X8255Y14998D1*
X8303Y14950D1*
X8326Y14879D1*
X8350Y14783D1*
X8375Y14735D1*
X8422Y14712D1*
X8470D1*
X8518Y14735D1*
X8541Y14807D1*
Y14903D1*
X8542Y14469D2*
X8040Y14278D1*
X8542Y14087D1*
Y13581D2*
X8040D1*
X8303D2*
X8351Y13629D1*
X8375Y13677D1*
Y13749D1*
X8351Y13796D1*
X8303Y13844D1*
X8231Y13868D1*
X8183D1*
X8111Y13844D1*
X8064Y13796D1*
X8040Y13749D1*
Y13677D1*
X8064Y13629D1*
X8111Y13581D1*
X8303Y13075D2*
X8351Y13123D1*
X8375Y13171D1*
Y13242D1*
X8351Y13291D1*
X8303Y13338D1*
X8231Y13362D1*
X8183D1*
X8111Y13338D1*
X8064Y13291D1*
X8040Y13242D1*
Y13171D1*
X8064Y13123D1*
X8111Y13075D1*
X12555Y18777D2*
D119*
X12536Y18815D1*
X12498Y18853D1*
X12460Y18873D1*
X12402Y18892D1*
X12306D1*
X12249Y18873D1*
X12211Y18853D1*
X12173Y18815D1*
X12153Y18777D1*
Y18701D1*
X12173Y18662D1*
X12211Y18624D1*
X12249Y18605D1*
X12306Y18586D1*
X12402D1*
X12460Y18605D1*
X12498Y18624D1*
X12536Y18662D1*
X12555Y18701D1*
Y18777D1*
Y18411D2*
X12268D1*
X12211Y18392D1*
X12173Y18354D1*
X12153Y18296D1*
Y18258D1*
X12173Y18201D1*
X12211Y18162D1*
X12268Y18143D1*
X12555D1*
Y17834D2*
X12153D1*
X12555Y17968D2*
Y17700D1*
X12421Y17506D2*
X12402Y17525D1*
X12383Y17506D1*
X12402Y17487D1*
X12421Y17506D1*
X12192D2*
X12172Y17525D1*
X12153Y17506D1*
X12172Y17487D1*
X12192Y17506D1*
X12526Y17140D2*
X12182D1*
X12354Y17312D2*
Y16967D1*
Y16792D2*
Y16571D1*
X12478Y16396D2*
X12498Y16358D1*
X12555Y16300D1*
X12153D1*
X12555Y15896D2*
Y16087D1*
X12383Y16106D1*
X12402Y16087D1*
X12421Y16029D1*
Y15972D1*
X12402Y15915D1*
X12364Y15876D1*
X12306Y15857D1*
X12268D1*
X12211Y15876D1*
X12172Y15915D1*
X12153Y15972D1*
Y16029D1*
X12172Y16087D1*
X12192Y16106D1*
X12230Y16125D1*
X12555Y15682D2*
X12153Y15529D1*
X12555Y15376D1*
Y14972D2*
X12153D1*
X12364D2*
X12402Y15010D1*
X12421Y15048D1*
Y15106D1*
X12402Y15144D1*
X12364Y15182D1*
X12306Y15201D1*
X12268D1*
X12211Y15182D1*
X12173Y15144D1*
X12153Y15106D1*
Y15048D1*
X12173Y15010D1*
X12211Y14972D1*
X12364Y14567D2*
X12402Y14606D1*
X12421Y14644D1*
Y14701D1*
X12402Y14740D1*
X12364Y14778D1*
X12306Y14797D1*
X12268D1*
X12211Y14778D1*
X12173Y14740D1*
X12153Y14701D1*
Y14644D1*
X12173Y14606D1*
X12211Y14567D1*
X12526Y13780D2*
X12182D1*
X12354Y13952D2*
Y13607D1*
Y13432D2*
Y13211D1*
X12555Y12921D2*
X12536Y12979D1*
X12478Y13017D1*
X12383Y13036D1*
X12325D1*
X12230Y13017D1*
X12172Y12979D1*
X12153Y12921D1*
Y12883D1*
X12172Y12826D1*
X12230Y12788D1*
X12325Y12768D1*
X12383D1*
X12478Y12788D1*
X12536Y12826D1*
X12555Y12883D1*
Y12921D1*
X12478Y12788D2*
X12230Y13017D1*
X12192Y12574D2*
X12172Y12593D1*
X12153Y12574D1*
X12172Y12555D1*
X12192Y12574D1*
X12459Y12361D2*
X12478D1*
X12517Y12342D1*
X12536Y12322D1*
X12555Y12284D1*
Y12208D1*
X12536Y12170D1*
X12517Y12150D1*
X12478Y12131D1*
X12440D1*
X12402Y12150D1*
X12345Y12189D1*
X12153Y12380D1*
Y12112D1*
Y11631D2*
X12555Y11784D1*
X12153Y11937D1*
X12287Y11880D2*
Y11688D1*
X51925Y5338D2*
D120*
X52184D1*
X52269Y5367D1*
X52298Y5396D1*
X52327Y5453D1*
Y5539D1*
X52298Y5596D1*
X52269Y5626D1*
X52184Y5654D1*
X51925D1*
Y5051D1*
X52512Y5654D2*
Y5051D1*
X52856D1*
X53243Y5654D2*
Y5051D1*
X53042Y5654D2*
X53444D1*
X53629Y5539D2*
X53687Y5568D1*
X53773Y5653D1*
Y5051D1*
X54016Y5653D2*
X54331D1*
X54159Y5424D1*
X54245D1*
X54302Y5395D1*
X54331Y5367D1*
X54360Y5281D1*
Y5224D1*
X54331Y5137D1*
X54274Y5080D1*
X54188Y5051D1*
X54101D1*
X54016Y5080D1*
X53987Y5109D1*
X53958Y5166D1*
X54603Y5653D2*
X54918D1*
X54746Y5424D1*
X54832D1*
X54890Y5395D1*
X54918Y5367D1*
X54947Y5281D1*
Y5224D1*
X54918Y5137D1*
X54861Y5080D1*
X54775Y5051D1*
X54689D1*
X54603Y5080D1*
X54574Y5109D1*
X54545Y5166D1*
M02*
