G04 DipTrace 2.4.0.2*
%IN1_Layer_Top.gbr*%
%MOIN*%
%ADD10C,0.0098*%
%ADD14C,0.0118*%
%ADD15C,0.0079*%
%ADD16C,0.0067*%
%ADD17C,0.0157*%
%ADD18C,0.013*%
%ADD19C,0.0197*%
%ADD20C,0.0236*%
%ADD21C,0.0394*%
%ADD22C,0.0138*%
%ADD23C,0.0591*%
%ADD24C,0.0276*%
%ADD25C,0.025*%
%ADD28O,0.122X0.0827*%
%ADD29O,0.1024X0.0669*%
%ADD30C,0.0787*%
%ADD31R,0.04X0.035*%
%ADD32R,0.0512X0.0591*%
%ADD33R,0.035X0.04*%
%ADD34R,0.0551X0.0551*%
%ADD35C,0.0551*%
%ADD36R,0.063X0.0709*%
%ADD37R,0.0591X0.0512*%
%ADD38R,0.0551X0.1339*%
%ADD39C,0.0591*%
%ADD40R,0.0591X0.1142*%
%ADD41C,0.0512*%
%ADD42R,0.0413X0.0256*%
%ADD43R,0.0413X0.0181*%
%ADD44R,0.0413X0.0177*%
%ADD45R,0.0256X0.0413*%
%ADD46R,0.0181X0.0413*%
%ADD47R,0.0177X0.0413*%
%ADD48O,0.05X0.012*%
%ADD49O,0.012X0.05*%
%ADD50R,0.1181X0.0236*%
%ADD52R,0.1555X0.0591*%
%ADD53R,0.3819X0.4094*%
%ADD54C,0.0984*%
%ADD55C,0.04*%
%FSLAX44Y44*%
G04*
G70*
G90*
G75*
G01*
%LNTop*%
%LPD*%
X18031Y11565D2*
D14*
X17392D1*
X17126Y11299D1*
X16496D1*
X18031Y11565D2*
X18632D1*
G02X19724Y10472I0J-1093D01*
G01*
Y10433D1*
G03X19961Y10197I236J0D01*
G01*
X29685Y14488D2*
D15*
Y14291D1*
G03X29803Y14173I118J0D01*
G01*
X30512D1*
G03X30630Y14291I0J118D01*
G01*
Y16063D1*
G02X31063Y16496I433J0D01*
G01*
X47598D1*
X48583Y15512D1*
X49843D1*
G02X50000Y15354I0J-157D01*
G01*
G03X50197Y15157I197J0D01*
G01*
X50857D1*
X52575Y16283D2*
D16*
Y17497D1*
X52638Y17559D1*
X54055D1*
X54134Y17638D1*
Y22559D1*
X50197Y22283D2*
D15*
Y22638D1*
Y22992D1*
Y22638D2*
X50181D1*
X50197Y22283D2*
Y22008D1*
X50315Y21890D1*
X52677D1*
X53346Y22559D1*
X54134D1*
X53287Y7579D2*
D18*
Y8917D1*
G02X53465Y9016I121J-9D01*
G01*
X54882Y10157D2*
D17*
X53346D1*
X53307Y10197D1*
X52795Y12008D2*
D19*
Y12638D1*
X52777Y13423D2*
D14*
Y12656D1*
X52795Y12638D1*
X52575Y13441D2*
D15*
Y12858D1*
X52795Y12638D1*
Y12008D2*
D17*
X52756D1*
Y10394D1*
G03X52992Y10197I272J86D01*
G01*
X53307D1*
X20866Y13130D2*
D19*
Y12565D1*
X20551D1*
X28425Y13130D2*
Y12565D1*
X28110D1*
X35984Y13130D2*
Y12565D1*
X35669D1*
X43543Y13130D2*
Y12565D1*
X43228D1*
X20866Y13130D2*
D20*
X20492D1*
X20039Y13583D1*
X19803Y14291D2*
D19*
X20039D1*
X20276D1*
X20039Y13583D2*
Y14291D1*
X28425Y13130D2*
D20*
X28051D1*
X27598Y13583D1*
X27362Y14291D2*
D19*
X27598D1*
X27835D1*
X27598Y13583D2*
Y14291D1*
X35984Y13130D2*
D20*
X35610D1*
X35157Y13583D1*
X34921Y14291D2*
D19*
X35157D1*
X35394D1*
X35157Y13583D2*
Y14291D1*
X43543Y13130D2*
D20*
X43169D1*
X42717Y13583D1*
X42480Y14291D2*
D19*
X42717D1*
X42953D1*
X42717Y13583D2*
Y14291D1*
X24724Y10669D2*
D20*
X25000D1*
G03X25591Y11065I-266J1035D01*
G01*
X32283Y10669D2*
X32559D1*
G03X33150Y11065I-266J1035D01*
G01*
X39843Y10669D2*
X40118D1*
G03X40709Y11065I-266J1035D01*
G01*
X32795Y9370D2*
D19*
X33031D1*
X33268D1*
X33031Y10079D2*
Y9370D1*
Y10079D2*
D20*
X32598Y10039D1*
G02X32283Y10354I0J315D01*
G01*
Y10669D1*
X25236Y9370D2*
D19*
X25472D1*
X25709D1*
X25472Y10079D2*
Y9370D1*
Y10079D2*
D20*
X25039Y10039D1*
G02X24724Y10354I0J315D01*
G01*
Y10669D1*
X40354Y9370D2*
D19*
X40591D1*
X40827D1*
X40591Y10079D2*
Y9370D1*
Y10079D2*
D20*
X40157Y10039D1*
G02X39843Y10354I0J315D01*
G01*
Y10669D1*
X17165D2*
X17441D1*
G03X18031Y11065I-266J1035D01*
G01*
X17677Y9331D2*
D19*
X17913D1*
X18150D1*
X17913Y10079D2*
Y9331D1*
Y10079D2*
D20*
X17441Y10039D1*
G02X17165Y10315I0J276D01*
G01*
Y10669D1*
X18031Y12065D2*
D14*
X17222D1*
X17126Y11969D1*
X16535D1*
X16496Y11929D1*
X23386Y14488D2*
D15*
X23425D1*
X51197Y16480D2*
Y16283D1*
Y16480D2*
G03X51063Y16614I-134J0D01*
G01*
X50669D1*
G02X50512Y16772I0J157D01*
G01*
Y17047D1*
X48504Y19055D1*
X46890D1*
G03X46496Y18661I0J-394D01*
G01*
Y17362D1*
G02X46102Y16969I-394J0D01*
G01*
X24016D1*
G03X23386Y16339I0J-630D01*
G01*
Y14488D1*
X42598Y9449D2*
D18*
Y7848D1*
G03X42730Y7717I132J0D01*
G01*
X43307D1*
X53701Y23110D2*
X54291D1*
X35039Y9449D2*
Y8504D1*
G02X34252Y7717I-787J0D01*
G01*
X32283D1*
X10236D2*
X14331D1*
G03X14724Y8110I0J394D01*
G01*
Y8228D1*
G02X15276Y8780I551J0D01*
G01*
X19291D1*
G03X19961Y9449I0J669D01*
G01*
X16496Y12559D2*
D14*
X18031D1*
Y12565D1*
X16496Y12559D2*
D15*
X17126D1*
X54961Y23110D2*
D18*
X55551D1*
X46181Y9094D2*
X46693Y8583D1*
X48543D1*
X48701Y8740D1*
X49055D1*
X53819Y19409D2*
D15*
X53583D1*
X52362Y20630D1*
X45157D1*
X45039Y20512D1*
Y20472D1*
X35906Y9449D2*
D18*
Y8465D1*
G03X36654Y7717I748J0D01*
G01*
X37795D1*
X48819D2*
X44843D1*
G02X44213Y8346I0J630D01*
G01*
Y8701D1*
G03X43465Y9449I-748J0D01*
G01*
X21260Y7717D2*
X25118D1*
G03X25551Y8150I0J433D01*
G01*
G02X26063Y8661I512J0D01*
G01*
X27087D1*
G03X27520Y9094I0J433D01*
G01*
Y9409D1*
G03X27480Y9449I-39J0D01*
G01*
X20827D2*
Y9213D1*
G02X20079Y8465I-748J0D01*
G01*
X16496D1*
G03X15748Y7717I0J-748D01*
G01*
X12008Y21654D2*
Y21969D1*
Y22323D1*
Y21969D2*
X11992D1*
Y22008D1*
X12008Y21969D2*
D21*
X12953D1*
X13189Y22205D1*
X14252D1*
Y21929D1*
G03X14803Y21378I551J0D01*
G01*
X22480D1*
G02X24331Y19528I0J-1850D01*
G01*
Y19331D1*
G03X25433Y18228I1102J0D01*
G01*
X32205D1*
G03X33031Y19055I0J827D01*
G01*
Y19724D1*
G02X33189Y19882I157J0D01*
G01*
X34488Y19803D2*
D18*
X33268D1*
X33189Y19882D1*
X6331Y14331D2*
D21*
X7205D1*
G03X7835Y14961I0J630D01*
G01*
Y18976D1*
G02X9213Y20354I1378J0D01*
G01*
X11299D1*
G03X12008Y21063I0J709D01*
G01*
Y21654D1*
X8661Y5787D2*
Y5669D1*
G03X9488Y4843I827J0D01*
G01*
X14173D1*
X19685D1*
X25197D1*
X30709D1*
X36220D1*
X41732D1*
X46299D1*
G03X47244Y5787I0J945D01*
G01*
X14173D2*
Y4843D1*
X19685Y5787D2*
Y4843D1*
X25197Y5787D2*
Y4843D1*
X30709Y5787D2*
Y4843D1*
X36220Y5787D2*
Y4843D1*
X41732Y5787D2*
Y4843D1*
X8661Y5787D2*
Y9252D1*
X15827Y11299D2*
D14*
Y11929D1*
Y13189D2*
Y13819D1*
Y13189D2*
X16024D1*
G02X16142Y13071I0J-118D01*
G01*
Y12047D1*
G02X16024Y11929I-118J0D01*
G01*
X15827D1*
X53363Y16283D2*
D15*
Y16473D1*
G02X53583Y16693I220J0D01*
G01*
G03X53780Y16890I0J197D01*
G01*
Y17185D1*
G02X53839Y17244I59J0D01*
G01*
X20551Y12065D2*
D14*
X20963D1*
X21457Y12559D1*
X21496D1*
X22126D1*
X9016Y21654D2*
D18*
Y22008D1*
Y22362D1*
Y22008D2*
X8992D1*
X25591Y11565D2*
D15*
X25928D1*
D22*
X25421Y11535D1*
X25394Y11563D1*
X25591Y11565D2*
D14*
X24951D1*
X24685Y11299D1*
X24055D1*
X25591Y11565D2*
X26152D1*
G02X27244Y10472I0J-1093D01*
G01*
Y10433D1*
G03X27480Y10197I236J0D01*
G01*
X28110Y11065D2*
X28821D1*
X29055Y11299D1*
X29685D1*
X28110Y11065D2*
Y11024D1*
X28307D1*
Y10236D1*
X28346Y10197D1*
X33150Y11565D2*
D15*
X33467D1*
D22*
X32980Y11535D1*
G02X32953Y11563I0J28D01*
G01*
X33150Y11565D2*
D14*
X32510D1*
X32244Y11299D1*
X31614D1*
X33150Y11565D2*
X33711D1*
G02X34803Y10472I0J-1093D01*
G01*
Y10433D1*
G03X35039Y10197I236J0D01*
G01*
X35669Y11065D2*
X36380D1*
X36614Y11299D1*
X37244D1*
X35669Y11065D2*
Y11102D1*
X35906D1*
X35945Y11063D1*
Y10236D1*
X35906Y10197D1*
X40709Y11565D2*
D15*
D3*
D22*
D3*
D14*
X40069D1*
X39803Y11299D1*
X39173D1*
X40709Y11565D2*
X41270D1*
G02X42362Y10472I0J-1093D01*
G01*
Y10433D1*
G03X42598Y10197I236J0D01*
G01*
X43228Y11065D2*
X43939D1*
X44173Y11299D1*
X44803D1*
X43228Y11065D2*
Y11024D1*
X43465D1*
Y10197D1*
X21496Y13228D2*
Y13819D1*
Y13228D2*
X22126D1*
Y13189D1*
Y13819D1*
X17126D2*
Y13228D1*
X16496Y13189D2*
Y13819D1*
Y13189D2*
D18*
X17126D1*
Y13228D1*
X54449Y21724D2*
D15*
X54811D1*
G02X55787Y20748I0J-976D01*
G01*
Y14685D1*
G02X54882Y13780I-906J0D01*
G01*
X53701D1*
X25591Y12065D2*
D14*
X24781D1*
X24685Y11969D1*
X24094D1*
X24055Y11929D1*
Y12559D2*
X25591D1*
Y12565D1*
X24055Y12559D2*
D15*
X24685D1*
X23386Y11299D2*
D14*
Y11929D1*
Y13189D2*
Y13819D1*
Y13189D2*
X23583D1*
G02X23701Y13071I0J-118D01*
G01*
Y12047D1*
G02X23583Y11929I-118J0D01*
G01*
X23386D1*
X28110Y12065D2*
X28522D1*
X29016Y12559D1*
X29055D1*
X29685D1*
X29055Y13228D2*
Y13819D1*
Y13228D2*
X29685D1*
Y13189D1*
Y13819D1*
X24685D2*
Y13228D1*
X24055Y13189D2*
Y13819D1*
Y13189D2*
D18*
X24685D1*
Y13228D1*
X54449Y20413D2*
D15*
X54469Y20433D1*
X54803D1*
G02X55197Y20039I0J-394D01*
G01*
Y14961D1*
G02X54606Y14370I-591J0D01*
G01*
X53701D1*
X51181Y22283D2*
D18*
Y22638D1*
Y22992D1*
X54287Y7579D2*
Y8783D1*
G03X54134Y9016I-286J-22D01*
G01*
X54449Y19756D2*
D15*
X54457Y19764D1*
X54685D1*
G02X54803Y19646I0J-118D01*
G01*
Y15079D1*
G02X54488Y14764I-315J0D01*
G01*
X53701D1*
X53819Y19756D2*
X53551D1*
X52520Y20787D1*
X44646D1*
X44488Y20630D1*
Y20394D1*
X44449D1*
X44488Y20354D1*
X45181Y22638D2*
Y21992D1*
X45079Y21890D1*
X43898D1*
X43701Y21693D1*
X41181Y22638D2*
D18*
Y21654D1*
X43268Y20354D2*
D15*
X43189D1*
X43268Y20276D1*
Y20354D1*
X43661Y20748D1*
X44055D1*
X44409Y21102D1*
X52874D1*
X53563Y20413D1*
X53819D1*
X30354Y13189D2*
D14*
Y13780D1*
X30315Y13819D1*
X30354Y11299D2*
D15*
Y11929D1*
D14*
X30197D1*
G02X30039Y12087I0J157D01*
G01*
Y13110D1*
G02X30157Y13228I118J0D01*
G01*
X30354Y13189D1*
X28110Y11565D2*
X28652D1*
X29055Y11969D1*
X29646D1*
X29685Y11929D1*
X49173Y22283D2*
D18*
Y22638D1*
Y22992D1*
Y22638D2*
X49181D1*
X53166Y16283D2*
D15*
Y16630D1*
G02X53346Y16811I181J0D01*
G01*
X53386D1*
G03X53504Y16929I0J118D01*
G01*
Y17236D1*
G03X53496Y17244I-8J0D01*
G01*
X50857Y13780D2*
X50787D1*
Y13425D1*
X49685Y12323D1*
Y11024D1*
G02X49409Y10748I-276J0D01*
G01*
X47008D1*
G02X46732Y11024I0J276D01*
G01*
Y14803D1*
G03X45512Y16024I-1220J0D01*
G01*
X38661D1*
G03X37874Y15236I0J-787D01*
G01*
Y14488D1*
X54449Y22067D2*
X54823D1*
G02X55984Y20906I0J-1161D01*
G01*
Y14606D1*
G02X54803Y13425I-1181J0D01*
G01*
X53379D1*
X53363Y13441D1*
X47181Y22638D2*
Y21992D1*
X47441Y21732D1*
X52835D1*
X53150Y22047D1*
X53799D1*
X53819Y22067D1*
X28346Y9449D2*
D18*
Y8715D1*
G02X27348Y7717I-998J0D01*
G01*
X26772D1*
X33189Y21882D2*
D21*
X34792D1*
X35283D1*
X36929Y20236D1*
X51788Y16283D2*
D14*
Y16598D1*
G03X51260Y17165I-633J-60D01*
G01*
D15*
Y17323D1*
X51220Y17362D1*
D19*
Y17756D1*
X50197Y18780D1*
Y19291D1*
X50857Y14764D2*
D14*
X49921D1*
X49685Y14528D1*
X49646D1*
D19*
X48268D1*
X48189Y14449D1*
X47502Y11417D2*
Y12856D1*
X48150Y13504D1*
X49134D1*
X49331Y13701D1*
X49764D1*
X50857Y14173D2*
D14*
X50591D1*
G03X50236Y13819I0J-354D01*
G01*
G02X50118Y13701I-118J0D01*
G01*
X49764D1*
X51788Y13441D2*
Y12969D1*
G02X51496Y12677I-292J0D01*
G01*
X51339D1*
G03X51220Y12559I0J-118D01*
G01*
Y12362D1*
D19*
Y11890D1*
X50748Y11417D1*
Y10039D1*
X50591Y9882D1*
X50857Y15551D2*
D14*
X50512D1*
G02X50118Y15945I0J394D01*
G01*
G03X49961Y16102I-157J0D01*
G01*
X49764D1*
G03X49724Y16063I0J-39D01*
G01*
D19*
X48701D1*
X47323Y17441D1*
Y18168D1*
X47401Y18246D1*
X34488Y21929D2*
D18*
X34744D1*
X34792Y21882D1*
X35945Y18780D2*
D19*
Y19252D1*
X36929Y20236D1*
X10000Y21654D2*
D18*
Y22008D1*
Y22362D1*
Y22008D2*
X9992D1*
X33150Y12065D2*
D14*
X32341D1*
X32244Y11969D1*
X31654D1*
X31614Y11929D1*
Y12559D2*
X33150D1*
Y12565D1*
X31614Y12559D2*
D15*
X32244D1*
X30945Y11299D2*
D14*
Y11929D1*
Y13189D2*
Y13819D1*
Y13189D2*
X31142D1*
G02X31260Y13071I0J-118D01*
G01*
Y12047D1*
G02X31142Y11929I-118J0D01*
G01*
X30945D1*
X35669Y12065D2*
X36081D1*
X36575Y12559D1*
X36614D1*
X37244D1*
X36614Y13228D2*
Y13819D1*
Y13228D2*
X37244D1*
Y13189D1*
Y13819D1*
X32244D2*
Y13228D1*
X31614Y13189D2*
Y13819D1*
Y13189D2*
D18*
X32244D1*
Y13228D1*
X37913Y13189D2*
D14*
Y13780D1*
X37874Y13819D1*
X37913Y11299D2*
D15*
Y11929D1*
D14*
X37756D1*
G02X37598Y12087I0J157D01*
G01*
Y13110D1*
G02X37717Y13228I118J0D01*
G01*
X37913Y13189D1*
X35669Y11565D2*
X36211D1*
X36614Y11969D1*
X37205D1*
X37244Y11929D1*
X30945Y14488D2*
D15*
Y14567D1*
Y14488D2*
X30984D1*
X50857Y14567D2*
X50236D1*
G03X50039Y14370I0J-197D01*
G01*
G02X49882Y14213I-157J0D01*
G01*
X48898D1*
X48701Y14016D1*
X47835D1*
G02X47047Y14803I0J787D01*
G01*
Y15039D1*
G03X45748Y16339I-1299J0D01*
G01*
X31654D1*
G03X30945Y15630I0J-709D01*
G01*
Y14488D1*
X40709Y12065D2*
D14*
X39900D1*
X39803Y11969D1*
X39213D1*
X39173Y11929D1*
Y12559D2*
X40709D1*
Y12565D1*
X39173Y12559D2*
D15*
X39803D1*
X38504Y11299D2*
D14*
Y11929D1*
Y13189D2*
Y13819D1*
Y13189D2*
X38701D1*
G02X38819Y13071I0J-118D01*
G01*
Y12047D1*
G02X38701Y11929I-118J0D01*
G01*
X38504D1*
X43228Y12065D2*
X43640D1*
X44134Y12559D1*
X44173D1*
X44803D1*
X44173Y13228D2*
Y13819D1*
Y13228D2*
X44803D1*
Y13189D1*
Y13819D1*
X39803D2*
Y13228D1*
X39173Y13189D2*
Y13819D1*
Y13189D2*
D18*
X39803D1*
Y13228D1*
X45472Y13189D2*
D14*
Y13780D1*
X45433Y13819D1*
X45472Y11299D2*
D15*
Y11929D1*
D14*
X45315D1*
G02X45157Y12087I0J157D01*
G01*
Y13110D1*
G02X45276Y13228I118J0D01*
G01*
X45472Y13189D1*
X43228Y11565D2*
X43770D1*
X44173Y11969D1*
X44764D1*
X44803Y11929D1*
X38504Y14488D2*
D15*
X38543D1*
X51394Y13441D2*
Y13126D1*
G02X51339Y13071I-56J0D01*
G01*
X50984D1*
X50236Y12323D1*
Y10827D1*
G02X49843Y10433I-394J0D01*
G01*
X46890D1*
G02X46417Y10906I0J472D01*
G01*
Y14724D1*
G03X45433Y15709I-984J0D01*
G01*
X39173D1*
G03X38504Y15039I0J-669D01*
G01*
Y14488D1*
X39181Y22638D2*
Y21764D1*
X41142Y19803D1*
X45118D1*
X45630Y20315D1*
X52205D1*
X52795Y19724D1*
Y19213D1*
X53496Y18512D1*
Y17874D1*
X53819Y21063D2*
X53189D1*
X52992Y21260D1*
X44331D1*
X44016Y20945D1*
X40827D1*
X40157Y21614D1*
Y22614D1*
X40181Y22638D1*
X54449Y20071D2*
X54457Y20079D1*
X54685D1*
G02X55000Y19764I0J-315D01*
G01*
Y15039D1*
G02X54528Y14567I-472J0D01*
G01*
X53701D1*
X7008Y21654D2*
D18*
Y22008D1*
Y22362D1*
Y22008D2*
X6992D1*
X54449Y19409D2*
D15*
Y19488D1*
X54606Y19331D1*
Y15118D1*
G02X54449Y14961I-157J0D01*
G01*
X53701D1*
X43898Y20354D2*
X43937D1*
X44528Y20945D1*
X52677D1*
X53551Y20071D1*
X53819D1*
Y21409D2*
X53118D1*
X53110Y21417D1*
X44252D1*
X43976Y21142D1*
X42677D1*
X42283Y21535D1*
Y21417D1*
X42323Y21457D1*
X53819Y21724D2*
X53102D1*
X52953Y21575D1*
X44134D1*
X43898Y21339D1*
X43150D1*
X42717Y21772D1*
X41929D1*
X41417Y21260D1*
X40945D1*
X40591Y21614D1*
X51591Y16283D2*
Y16598D1*
G03X51260Y16929I-331J0D01*
G01*
X51024D1*
G02X50827Y17126I0J197D01*
G01*
Y17475D1*
X48931Y19370D1*
X46614D1*
G03X46181Y18937I0J-433D01*
G01*
Y17638D1*
G02X45827Y17283I-354J0D01*
G01*
X23386D1*
G03X22756Y16654I0J-630D01*
G01*
Y14488D1*
X51394Y16283D2*
Y16637D1*
G03X51260Y16772I-134J0D01*
G01*
X50945D1*
G02X50669Y17047I0J276D01*
G01*
Y17362D1*
X48819Y19213D1*
X46732D1*
G03X46339Y18780I43J-435D01*
G01*
Y17480D1*
G02X45984Y17126I-354J0D01*
G01*
X23543D1*
G03X23071Y16654I0J-472D01*
G01*
Y14291D1*
G02X22953Y14173I-118J0D01*
G01*
X22283D1*
G02X22126Y14331I0J157D01*
G01*
Y14488D1*
X50857Y15945D2*
X50827D1*
Y16299D1*
G03X50669Y16457I-157J0D01*
G01*
X50630D1*
G02X50354Y16732I0J276D01*
G01*
Y16969D1*
X48425Y18898D1*
X46969D1*
G03X46654Y18583I0J-315D01*
G01*
Y17283D1*
G02X46181Y16811I-472J0D01*
G01*
X24528D1*
G03X24055Y16339I0J-472D01*
G01*
Y14488D1*
X52182Y16283D2*
Y19275D1*
G03X51614Y19843I-567J0D01*
G01*
X46535D1*
G03X46024Y19331I20J-531D01*
G01*
Y17953D1*
G02X45512Y17441I-512J0D01*
G01*
X17205D1*
G03X16496Y16732I0J-709D01*
G01*
Y14488D1*
X50857Y15354D2*
X50236D1*
G02X50157Y15433I-20J59D01*
G01*
G03X49921Y15669I-453J-217D01*
G01*
X48661D1*
X47677Y16654D1*
X30984D1*
G03X30315Y15984I0J-669D01*
G01*
Y14488D1*
X22795Y13189D2*
D14*
Y13780D1*
X22756Y13819D1*
X22795Y11299D2*
D15*
Y11929D1*
D14*
X22638D1*
G02X22480Y12087I0J157D01*
G01*
Y13110D1*
G02X22598Y13228I118J0D01*
G01*
X22795Y13189D1*
X20551Y11565D2*
X21093D1*
X21496Y11969D1*
X22087D1*
X22126Y11929D1*
X20551Y11065D2*
X21262D1*
X21496Y11299D1*
X22126D1*
X20551Y11065D2*
Y11024D1*
X20827D1*
Y10197D1*
X15827Y14488D2*
D15*
X15866D1*
X52378Y16283D2*
Y19236D1*
G03X51614Y20000I-764J0D01*
G01*
X46378D1*
G03X45866Y19488I28J-539D01*
G01*
Y18110D1*
G02X45354Y17598I-512J0D01*
G01*
X17087D1*
G03X15827Y16339I0J-1260D01*
G01*
Y14488D1*
X39685Y21811D2*
X41496Y20000D1*
X45079D1*
X45551Y20472D1*
X52283D1*
X52992Y19764D1*
Y19291D1*
X53839Y18445D1*
Y17874D1*
X50857Y14370D2*
X50315D1*
G03X50157Y14213I0J-157D01*
G01*
G02X50000Y14055I-157J0D01*
G01*
X49016D1*
X48819Y13858D1*
X47795D1*
G02X46890Y14764I0J906D01*
G01*
Y14961D1*
G03X45669Y16181I-1220J0D01*
G01*
X32008D1*
G03X31614Y15787I0J-394D01*
G01*
Y14488D1*
X51197Y13441D2*
X50945D1*
Y13346D1*
X49843Y12244D1*
Y10945D1*
G02X49488Y10591I-354J0D01*
G01*
X46969D1*
G02X46575Y10984I0J394D01*
G01*
Y14724D1*
G03X45433Y15866I-1142J0D01*
G01*
X38740D1*
G03X38189Y15315I0J-551D01*
G01*
Y14291D1*
G02X38071Y14173I-118J0D01*
G01*
X37402D1*
G02X37244Y14331I0J157D01*
G01*
Y14488D1*
X51591Y13441D2*
Y13087D1*
G02X51417Y12913I-174J0D01*
G01*
X51102D1*
X50394Y12205D1*
Y10827D1*
G02X49843Y10276I-551J0D01*
G01*
X46890D1*
G02X46260Y10906I0J630D01*
G01*
Y14646D1*
G03X45354Y15551I-906J0D01*
G01*
X39488D1*
G03X39173Y15236I0J-315D01*
G01*
Y14488D1*
X52182Y13441D2*
Y10922D1*
G02X50591Y9252I-1734J59D01*
G01*
X50079D1*
G02X49685Y9724I88J473D01*
G01*
Y9764D1*
G03X49331Y10118I-354J0D01*
G01*
X46850D1*
G02X46102Y10866I0J748D01*
G01*
Y14252D1*
G03X45866Y14488I-236J0D01*
G01*
X45433D1*
X52378Y13441D2*
Y10961D1*
G02X50591Y9094I-1930J59D01*
G01*
X50079D1*
G02X49528Y9724I43J594D01*
G01*
G03X49291Y9961I-236J0D01*
G01*
X46811D1*
G02X45945Y10827I0J866D01*
G01*
Y13976D1*
G03X45748Y14173I-197J0D01*
G01*
X44921D1*
G02X44803Y14291I0J118D01*
G01*
Y14488D1*
X54449Y21063D2*
X54803D1*
G02X55394Y20472I0J-591D01*
G01*
Y14843D1*
G02X54724Y14173I-669J0D01*
G01*
X53701D1*
X54449Y21409D2*
X54457Y21417D1*
X54803D1*
G02X55591Y20630I0J-787D01*
G01*
Y14764D1*
G02X54803Y13976I-787J0D01*
G01*
X53701D1*
X53166Y13441D2*
Y13173D1*
X53307Y13031D1*
X53976D1*
X54094Y12913D1*
Y12638D1*
X18701Y14291D2*
D19*
X18963D1*
X19173D1*
X18937Y13583D2*
Y14265D1*
X18963Y14291D1*
X16496Y10669D2*
D15*
Y10630D1*
X16063D1*
X17126Y14488D2*
X17598D1*
X24685D2*
X25157D1*
X32244D2*
X32717D1*
X39803D2*
X40276D1*
X21024D2*
X21496D1*
X28583D2*
X29055D1*
X36142D2*
X36614D1*
X43701D2*
X44173D1*
X15827Y12559D2*
X15709D1*
G03X15472Y12323I0J-236D01*
G01*
Y10669D1*
G03X15630Y10630I-25J-434D01*
G01*
X23543Y10669D2*
X24055D1*
X31142D2*
X31614D1*
X38701D2*
X39173D1*
X45472Y12559D2*
X45591D1*
G02X45787Y12362I0J-197D01*
G01*
Y11024D1*
G02X45512Y10748I-276J0D01*
G01*
X23071Y12559D2*
X22795D1*
X23110D2*
D18*
X22795D1*
X23110D2*
X23386D1*
X30669D2*
D15*
X30354D1*
X30669D2*
D18*
X30354D1*
X30669D2*
X30945D1*
X38228D2*
D15*
X37913D1*
X38189D2*
D18*
X37913D1*
X38189D2*
X38504D1*
X26339Y9370D2*
D19*
X26602D1*
X26811D1*
X26575Y10079D2*
Y9398D1*
X26602Y9370D1*
X26260Y14291D2*
X26522D1*
X26732D1*
X26496Y13583D2*
Y14265D1*
X26522Y14291D1*
X33819D2*
X34081D1*
X34291D1*
X34055Y13583D2*
Y14265D1*
X34081Y14291D1*
X33898Y9370D2*
X34161D1*
X34370D1*
X34134Y10079D2*
Y9398D1*
X34161Y9370D1*
X41378Y14291D2*
X41640D1*
X41850D1*
X41614Y13583D2*
Y14265D1*
X41640Y14291D1*
X41457Y9370D2*
X41720D1*
X41929D1*
X41693Y10079D2*
Y9398D1*
X41720Y9370D1*
X18780Y9331D2*
X19016D1*
X19252D1*
X19016Y10079D2*
Y9331D1*
X10276Y9252D2*
D21*
X10984D1*
G03X12598Y10866I0J1614D01*
G01*
Y14134D1*
G02X13780Y15315I1181J0D01*
G01*
X14331Y15331D1*
X7992Y21654D2*
D18*
Y22008D1*
Y22362D1*
X11024Y21654D2*
Y22008D1*
Y22362D1*
Y22008D2*
X10992D1*
X48189Y22283D2*
Y22638D1*
Y22992D1*
Y22638D2*
X48181D1*
X54764Y12638D2*
Y12244D1*
X54882Y12126D1*
Y10945D1*
X28602Y21669D2*
Y21413D1*
G03X29134Y20882I531J0D01*
G01*
X36929Y21614D2*
D24*
Y21654D1*
X35906Y22677D1*
X30791D1*
X30571Y22457D1*
X34488Y20472D2*
D18*
Y20858D1*
Y21260D1*
Y20858D2*
D19*
X30595D1*
X30571Y20882D1*
X15630Y22205D2*
D21*
X27366D1*
X27618Y22457D1*
X52835Y17874D2*
D15*
Y18071D1*
X52598Y18307D1*
Y19685D1*
X52126Y20157D1*
X45748D1*
X45197Y19606D1*
X41063D1*
X39055Y21614D1*
X36929D1*
X35197Y18780D2*
D19*
Y20394D1*
X34733Y20858D1*
X34488D1*
X54882Y10945D2*
D17*
X53307D1*
X53701Y15945D2*
D15*
Y16220D1*
X53780Y16299D1*
X51985Y16283D2*
D14*
Y17267D1*
X51890Y17362D1*
X51985Y16283D2*
Y15564D1*
X51969Y15548D1*
X50857Y15748D2*
X51394D1*
X51594Y15548D1*
X50857Y14961D2*
X49921D1*
X49665Y15217D1*
X49646Y15197D1*
D19*
X48228D1*
X48189Y15236D1*
X50857Y14961D2*
D14*
X51494D1*
X51594Y14861D1*
X50857Y13976D2*
X51397D1*
X51594Y14173D1*
X51985Y13441D2*
Y14157D1*
X51969Y14173D1*
X52969Y13441D2*
Y13094D1*
X53445Y12618D1*
X53465Y12638D1*
Y12008D2*
Y12638D1*
X52969Y13441D2*
Y14173D1*
X51985Y13441D2*
Y12457D1*
G02X51890Y12362I-95J0D01*
G01*
X50857Y13976D2*
X50591D1*
G03X50433Y13819I0J-157D01*
G01*
Y13701D1*
G02X49764Y13031I-669J0D01*
G01*
X50857Y15748D2*
X50551D1*
G02X50315Y15984I0J236D01*
G01*
Y16142D1*
G03X49724Y16732I-591J0D01*
G01*
X53701Y15157D2*
D10*
X52984D1*
X52969Y15173D1*
X53701Y15354D2*
X53150D1*
X52969Y15173D1*
X53701Y15551D2*
X52969D1*
Y15548D1*
X52772Y16283D2*
D15*
Y17182D1*
X52835Y17244D1*
X52969Y16283D2*
Y16749D1*
X53189Y16969D1*
Y17236D1*
X53181Y17244D1*
X51890Y17362D2*
D19*
Y18976D1*
X51575Y19291D1*
X52772Y16283D2*
D15*
Y15745D1*
X52969Y15548D1*
Y16283D2*
Y15548D1*
X49764Y13031D2*
D19*
X49082D1*
X48459Y12408D1*
X51890Y12362D2*
Y11215D1*
X51548Y10873D1*
X49724Y16732D2*
X48949D1*
X48393Y17289D1*
X49055Y9409D2*
D18*
X48496D1*
X48181Y9094D1*
X53465Y12008D2*
Y11102D1*
G02X53307Y10945I-157J0D01*
G01*
D21*
X53701Y23110D3*
X55551D3*
X48189Y22992D3*
X49173D3*
X50197D3*
X51181D3*
X48189Y22638D3*
X49173D3*
X50197D3*
X51181D3*
X54134Y22559D3*
X27618Y22457D3*
X28602D3*
X29587D3*
X30571D3*
X7008Y22362D3*
X7992D3*
X9016D3*
X10000D3*
X11024D3*
X12008Y22323D3*
X48189Y22283D3*
X49173D3*
X50197D3*
X51181D3*
X7008Y22008D3*
X7992D3*
X9016D3*
X10000D3*
X11024D3*
X12008Y21969D3*
X39685Y21811D3*
X43701Y21693D3*
X27618Y21669D3*
X28602D3*
X29587D3*
X30571D3*
X7008Y21654D3*
X7992D3*
X9016D3*
X10000D3*
X11024D3*
X12008D3*
X41181D3*
X40591Y21614D3*
X42323Y21457D3*
X27618Y20882D3*
X28602D3*
X29587D3*
X30571D3*
X45039Y20472D3*
X43268Y20354D3*
X43898D3*
X44488D3*
X27618Y20095D3*
X28602D3*
X29587D3*
X30571D3*
X27618Y19307D3*
X28602D3*
X29587D3*
X30571D3*
X53780Y16299D3*
D55*
X51594Y15548D3*
X51969D3*
X52969D3*
Y15173D3*
X51594Y14861D3*
X51969D3*
X52969Y14548D3*
D21*
X17598Y14488D3*
X21024D3*
X25157D3*
X28583D3*
X32717D3*
X36142D3*
X40276D3*
X43701D3*
X18701Y14291D3*
X19173D3*
X19803D3*
X20276D3*
X26260D3*
X26732D3*
X27362D3*
X27835D3*
X33819D3*
X34291D3*
X34921D3*
X35394D3*
X41378D3*
X41850D3*
X42480D3*
X42953D3*
D55*
X51594Y14173D3*
X51969D3*
X52969D3*
D21*
X23110Y12559D3*
X30669D3*
X38189D3*
X45512Y10748D3*
X23071Y10669D3*
X23543D3*
X30669D3*
X31142D3*
X38228D3*
X38701D3*
X15630Y10630D3*
X16063D3*
X25236Y9370D3*
X25709D3*
X26339D3*
X26811D3*
X32795D3*
X33268D3*
X33898D3*
X34370D3*
X40354D3*
X40827D3*
X41457D3*
X41929D3*
X17677Y9331D3*
X18150D3*
X18780D3*
X19252D3*
X4284Y23898D2*
D25*
X4869D1*
X4284Y23649D2*
X4869D1*
X4284Y23401D2*
X4869D1*
X4284Y23152D2*
X4869D1*
X4284Y22903D2*
X4869D1*
X4284Y22655D2*
X4869D1*
X4284Y22406D2*
X4869D1*
X4284Y22157D2*
X4869D1*
X4284Y21908D2*
X4869D1*
X4284Y21660D2*
X4869D1*
X4284Y21411D2*
X4869D1*
X4594Y21162D2*
X4869D1*
X4782Y20914D2*
X4869D1*
X4649Y19919D2*
X4869D1*
X4284Y19670D2*
X4869D1*
X4284Y19422D2*
X4869D1*
X4284Y19173D2*
X4869D1*
X4284Y18924D2*
X4869D1*
X4284Y18676D2*
X4869D1*
X4284Y18427D2*
X4869D1*
X4284Y18178D2*
X4869D1*
X4284Y17929D2*
X4869D1*
X4284Y17681D2*
X4869D1*
X4284Y17432D2*
X4869D1*
X4284Y17183D2*
X4869D1*
X4284Y16935D2*
X4869D1*
X4284Y16686D2*
X4869D1*
X4284Y16437D2*
X4869D1*
X4284Y16189D2*
X4869D1*
X4284Y15940D2*
X4869D1*
X4284Y15691D2*
X4869D1*
X4284Y15443D2*
X4869D1*
X4284Y15194D2*
X4869D1*
X4284Y14945D2*
X4869D1*
X4284Y14697D2*
X4869D1*
X4284Y14448D2*
X4869D1*
X4284Y14199D2*
X4869D1*
X4284Y13950D2*
X4869D1*
X4284Y13702D2*
X4869D1*
X4284Y13453D2*
X4869D1*
X4284Y13204D2*
X4869D1*
X4284Y12956D2*
X4869D1*
X4284Y12707D2*
X4869D1*
X4284Y12458D2*
X4869D1*
X4284Y12210D2*
X4869D1*
X4284Y11961D2*
X4869D1*
X4284Y11712D2*
X4869D1*
X4284Y11464D2*
X4869D1*
X4284Y11215D2*
X4869D1*
X4284Y10966D2*
X4869D1*
X4284Y10718D2*
X4869D1*
X4284Y10469D2*
X4869D1*
X4284Y10220D2*
X4869D1*
X4284Y9971D2*
X4869D1*
X4284Y9723D2*
X4869D1*
X4284Y9474D2*
X4869D1*
X4284Y9225D2*
X4869D1*
X4284Y8977D2*
X4869D1*
X4329Y8728D2*
X4869D1*
X4676Y8479D2*
X4869D1*
X4673Y7236D2*
X4869D1*
X4284Y6987D2*
X4869D1*
X4284Y6739D2*
X4869D1*
X4284Y6490D2*
X4869D1*
X4284Y6241D2*
X4869D1*
X4284Y5992D2*
X4869D1*
X4284Y5744D2*
X4869D1*
X4284Y5495D2*
X4869D1*
X4284Y5246D2*
X4869D1*
X4284Y4998D2*
X4869D1*
X4284Y4749D2*
X4869D1*
X4284Y4500D2*
X4869D1*
X4770Y24147D2*
X4259D1*
Y21346D1*
X4415Y21288D1*
X4667Y21079D1*
X4803Y20829D1*
X4866Y20513D1*
X4895Y20509D1*
Y24147D1*
X4770D1*
X4259Y7005D2*
Y4259D1*
X4895D1*
Y20509D1*
X4838Y20342D1*
X4792Y20172D1*
X4655Y19951D1*
X4498Y19794D1*
X4347Y19711D1*
X4259Y19686D1*
Y8739D1*
X4358Y8708D1*
X4537Y8592D1*
X4718Y8402D1*
X4828Y8167D1*
X4869Y7863D1*
X4843Y7618D1*
X4750Y7353D1*
X4583Y7164D1*
X4391Y7056D1*
X4261Y7003D1*
X56370Y23878D2*
X56936D1*
X56370Y23630D2*
X56936D1*
X56370Y23381D2*
X56936D1*
X56370Y23132D2*
X56936D1*
X56370Y22884D2*
X56936D1*
X56370Y22635D2*
X56936D1*
X56370Y22386D2*
X56936D1*
X56370Y22137D2*
X56936D1*
X56370Y21889D2*
X56936D1*
X56370Y21640D2*
X56936D1*
X56370Y21391D2*
X56936D1*
X56370Y21143D2*
X56631D1*
X56370Y19899D2*
X56596D1*
X56370Y19651D2*
X56936D1*
X56370Y19402D2*
X56936D1*
X56370Y19153D2*
X56936D1*
X56370Y18905D2*
X56936D1*
X56370Y18656D2*
X56936D1*
X56370Y18407D2*
X56936D1*
X56370Y18158D2*
X56936D1*
X56370Y17910D2*
X56936D1*
X56370Y17661D2*
X56936D1*
X56370Y17412D2*
X56936D1*
X56370Y17164D2*
X56936D1*
X56370Y16915D2*
X56936D1*
X56370Y16666D2*
X56936D1*
X56370Y16418D2*
X56936D1*
X56370Y16169D2*
X56936D1*
X56370Y15920D2*
X56936D1*
X56370Y15672D2*
X56936D1*
X56370Y15423D2*
X56936D1*
X56370Y15174D2*
X56936D1*
X56370Y14926D2*
X56936D1*
X56370Y14677D2*
X56936D1*
X56370Y14428D2*
X56936D1*
X56370Y14179D2*
X56936D1*
X56370Y13931D2*
X56936D1*
X56370Y13682D2*
X56936D1*
X56370Y13433D2*
X56936D1*
X56370Y13185D2*
X56936D1*
X56370Y12936D2*
X56936D1*
X56370Y12687D2*
X56936D1*
X56370Y12439D2*
X56936D1*
X56370Y12190D2*
X56936D1*
X56370Y11941D2*
X56936D1*
X56370Y11693D2*
X56936D1*
X56370Y11444D2*
X56936D1*
X56370Y11195D2*
X56936D1*
X56370Y10947D2*
X56936D1*
X56370Y10698D2*
X56936D1*
X56370Y10449D2*
X56936D1*
X56370Y10200D2*
X56936D1*
X56370Y9952D2*
X56936D1*
X56370Y9703D2*
X56936D1*
X56370Y9454D2*
X56936D1*
X56370Y9206D2*
X56936D1*
X56370Y8957D2*
X56936D1*
X56370Y8708D2*
X56842D1*
X56370Y8460D2*
X56533D1*
X56370Y7216D2*
X56596D1*
X56370Y6968D2*
X56936D1*
X56370Y6719D2*
X56936D1*
X56370Y6470D2*
X56936D1*
X56370Y6221D2*
X56936D1*
X56370Y5973D2*
X56936D1*
X56370Y5724D2*
X56936D1*
X56370Y5475D2*
X56936D1*
X56370Y5227D2*
X56936D1*
X56370Y4978D2*
X56936D1*
X56370Y4729D2*
X56936D1*
X56370Y4481D2*
X56936D1*
X56837Y24127D2*
X56345D1*
Y4279D1*
X56962D1*
Y7001D1*
X56867Y7037D1*
X56703Y7136D1*
X56524Y7322D1*
X56396Y7562D1*
X56351Y7854D1*
X56397Y8169D1*
X56505Y8387D1*
X56649Y8577D1*
X56827Y8691D1*
X56962Y8746D1*
Y19688D1*
X56830Y19733D1*
X56636Y19881D1*
X56522Y20023D1*
X56412Y20253D1*
X56371Y20497D1*
X56413Y20734D1*
X56500Y20970D1*
X56526Y21014D1*
X56671Y21158D1*
X56843Y21297D1*
X56962Y21345D1*
Y24127D1*
X56837D1*
X16725Y23563D2*
X32095D1*
X16725Y23315D2*
X32095D1*
X16725Y23066D2*
X32095D1*
X16725Y22817D2*
X32095D1*
X16725Y22569D2*
X32095D1*
X16725Y22320D2*
X32095D1*
X16725Y22071D2*
X32095D1*
X22778Y21823D2*
X32095D1*
X23578Y21574D2*
X32095D1*
X23957Y21325D2*
X32095D1*
X24223Y21076D2*
X32095D1*
X24414Y20828D2*
X32095D1*
X24563Y20579D2*
X32095D1*
X24672Y20330D2*
X32095D1*
X24746Y20082D2*
X32095D1*
X24797Y19833D2*
X32095D1*
X24817Y19584D2*
X32095D1*
X24817Y19336D2*
X32095D1*
X24867Y19087D2*
X32095D1*
X25051Y18838D2*
X32095D1*
X16698Y21840D2*
X22504Y21839D1*
X22746Y21824D1*
X22985Y21784D1*
X23218Y21718D1*
X23443Y21629D1*
X23657Y21517D1*
X23859Y21383D1*
X24045Y21229D1*
X24214Y21056D1*
X24365Y20867D1*
X24494Y20662D1*
X24602Y20446D1*
X24686Y20219D1*
X24746Y19985D1*
X24782Y19745D1*
X24792Y19342D1*
X24812Y19183D1*
X24843Y19084D1*
X24927Y18940D1*
X25045Y18822D1*
X25190Y18739D1*
X25351Y18696D1*
X25683Y18690D1*
X32117D1*
X32119Y19846D1*
Y23812D1*
X16700D1*
Y21839D1*
D28*
X14173Y5787D3*
D29*
X15748Y7717D3*
X10236D3*
D28*
X8661Y5787D3*
X25197D3*
D29*
X26772Y7717D3*
X21260D3*
D28*
X19685Y5787D3*
X36220D3*
D29*
X37795Y7717D3*
X32283D3*
D28*
X30709Y5787D3*
X47244D3*
D29*
X48819Y7717D3*
X43307D3*
D28*
X41732Y5787D3*
D30*
X14252Y22205D3*
X15630D3*
X36929Y20236D3*
Y21614D3*
D31*
X34488Y21260D3*
Y21929D3*
D30*
X22433Y20236D3*
Y18858D3*
X19087Y20197D3*
Y18819D3*
X50197Y19291D3*
X51575D3*
D31*
X34488Y19803D3*
Y20472D3*
D30*
X47401Y18246D3*
X48393Y17289D3*
D32*
X35945Y18780D3*
X35197D3*
D33*
X51890Y17362D3*
X51220D3*
D31*
X49724Y16732D3*
Y16063D3*
D34*
X48189Y14449D3*
D35*
Y15236D3*
D31*
X49646Y15197D3*
Y14528D3*
X20866Y13130D3*
Y13799D3*
X28425Y13130D3*
Y13799D3*
X35984Y13130D3*
Y13799D3*
X43543Y13130D3*
Y13799D3*
D36*
X20039Y13583D3*
X18937D3*
X27598D3*
X26496D3*
X35157D3*
X34055D3*
X42717D3*
X41614D3*
D31*
X49764Y13701D3*
Y13031D3*
D30*
X47502Y11417D3*
X48459Y12408D3*
D33*
X16496Y13189D3*
X15827D3*
X22795D3*
X22126D3*
X24055D3*
X23386D3*
X30354D3*
X29685D3*
X31614D3*
X30945D3*
X37913D3*
X37244D3*
X39173D3*
X38504D3*
X45472D3*
X44803D3*
X53465Y12638D3*
X52795D3*
X54764D3*
X54094D3*
X16496Y12559D3*
X15827D3*
X22795D3*
X22126D3*
X24055D3*
X23386D3*
X30354D3*
X29685D3*
X31614D3*
X30945D3*
X37913D3*
X37244D3*
X39173D3*
X38504D3*
X45472D3*
X44803D3*
X51890Y12362D3*
X51220D3*
X53465Y12008D3*
X52795D3*
D31*
X17126Y11969D3*
Y11299D3*
X21496Y11969D3*
Y11299D3*
X24685Y11969D3*
Y11299D3*
X29055Y11969D3*
Y11299D3*
X32244Y11969D3*
Y11299D3*
X36614Y11969D3*
Y11299D3*
X39803Y11969D3*
Y11299D3*
X44173Y11969D3*
Y11299D3*
D30*
X50591Y9882D3*
X51548Y10873D3*
D34*
X54882Y10157D3*
D35*
Y10945D3*
D37*
X53307D3*
Y10197D3*
D33*
X16496Y10669D3*
X17165D3*
X24055D3*
X24724D3*
X31614D3*
X32283D3*
X39173D3*
X39843D3*
D36*
X19016Y10079D3*
X17913D3*
D37*
X19961Y9449D3*
Y10197D3*
X20827Y9449D3*
Y10197D3*
D36*
X26575Y10079D3*
X25472D3*
D37*
X27480Y9449D3*
Y10197D3*
X28346Y9449D3*
Y10197D3*
D36*
X34134Y10079D3*
X33031D3*
D37*
X35039Y9449D3*
Y10197D3*
X35906Y9449D3*
Y10197D3*
D36*
X41693Y10079D3*
X40591D3*
D37*
X42598Y9449D3*
Y10197D3*
X43465Y9449D3*
Y10197D3*
D33*
X54134Y9016D3*
X53465D3*
D38*
X8661Y9252D3*
X10276D3*
D39*
X46181Y9094D3*
X47181D3*
X48181D3*
D40*
X39181Y22638D3*
X40181D3*
X41181D3*
X42181D3*
X43181D3*
X44181D3*
X45181D3*
X46181D3*
X47181D3*
X48181D3*
X49181D3*
X50181D3*
X51181D3*
X52173D3*
X6992Y22008D3*
X7992D3*
X8992D3*
X9992D3*
X10992D3*
X11992D3*
D41*
X6299Y19291D3*
X53307Y6496D3*
D39*
X33661Y5748D3*
D41*
X48701Y5197D3*
D39*
X5630Y5000D3*
X55315D3*
D33*
X54961Y23110D3*
X54291D3*
D42*
X54449Y21063D3*
D43*
Y21409D3*
Y21724D3*
D42*
Y22067D3*
X53819D3*
D44*
Y21724D3*
Y21409D3*
D42*
Y21063D3*
X54449Y19409D3*
D43*
Y19756D3*
Y20071D3*
D42*
Y20413D3*
X53819D3*
D44*
Y20071D3*
Y19756D3*
D42*
Y19409D3*
D45*
X52835Y17244D3*
D46*
X53181D3*
X53496D3*
D45*
X53839D3*
Y17874D3*
D47*
X53496D3*
X53181D3*
D45*
X52835D3*
D31*
X15827Y13819D3*
Y14488D3*
X16496Y13819D3*
Y14488D3*
X17126Y13819D3*
Y14488D3*
X21496Y13819D3*
Y14488D3*
X22126Y13819D3*
Y14488D3*
X22756Y13819D3*
Y14488D3*
X23386Y13819D3*
Y14488D3*
X24055Y13819D3*
Y14488D3*
X24685Y13819D3*
Y14488D3*
X29055Y13819D3*
Y14488D3*
X29685Y13819D3*
Y14488D3*
X30315Y13819D3*
Y14488D3*
X30945Y13819D3*
Y14488D3*
X31614Y13819D3*
Y14488D3*
X32244Y13819D3*
Y14488D3*
X36614Y13819D3*
Y14488D3*
X37244Y13819D3*
Y14488D3*
X37874Y13819D3*
Y14488D3*
X38504Y13819D3*
Y14488D3*
X39173Y13819D3*
Y14488D3*
X39803Y13819D3*
Y14488D3*
X44173Y13819D3*
Y14488D3*
X44803Y13819D3*
Y14488D3*
X45433Y13819D3*
Y14488D3*
X17126Y12559D3*
Y13228D3*
X21496Y12559D3*
Y13228D3*
X24685Y12559D3*
Y13228D3*
X29055Y12559D3*
Y13228D3*
X32244Y12559D3*
Y13228D3*
X36614Y12559D3*
Y13228D3*
X39803Y12559D3*
Y13228D3*
X44173Y12559D3*
Y13228D3*
D33*
X15827Y11929D3*
X16496D3*
X22126D3*
X22795D3*
X23386D3*
X24055D3*
X29685D3*
X30354D3*
X30945D3*
X31614D3*
X37244D3*
X37913D3*
X38504D3*
X39173D3*
X44803D3*
X45472D3*
X15827Y11299D3*
X16496D3*
X22126D3*
X22795D3*
X23386D3*
X24055D3*
X29685D3*
X30354D3*
X30945D3*
X31614D3*
X37244D3*
X37913D3*
X38504D3*
X39173D3*
X44803D3*
X45472D3*
D31*
X49055Y8740D3*
Y9409D3*
D48*
X53701Y13780D3*
Y13976D3*
Y14173D3*
Y14370D3*
Y14567D3*
Y14764D3*
Y14961D3*
Y15157D3*
Y15354D3*
Y15551D3*
Y15748D3*
Y15945D3*
D49*
X53363Y16283D3*
X53166D3*
X52969D3*
X52772D3*
X52575D3*
X52378D3*
X52182D3*
X51985D3*
X51788D3*
X51591D3*
X51394D3*
X51197D3*
D48*
X50857Y15945D3*
Y15748D3*
Y15551D3*
Y15354D3*
Y15157D3*
Y14961D3*
Y14764D3*
Y14567D3*
Y14370D3*
Y14173D3*
Y13976D3*
Y13780D3*
D49*
X51197Y13441D3*
X51394D3*
X51591D3*
X51788D3*
X51985D3*
X52182D3*
X52378D3*
X52575D3*
X52777Y13423D3*
X52969Y13441D3*
X53166D3*
X53363D3*
D50*
X20551Y11065D3*
Y11565D3*
Y12065D3*
Y12565D3*
X18031D3*
Y12065D3*
Y11565D3*
Y11065D3*
X28110D3*
Y11565D3*
Y12065D3*
Y12565D3*
X25591D3*
Y12065D3*
Y11565D3*
Y11065D3*
X35669D3*
Y11565D3*
Y12065D3*
Y12565D3*
X33150D3*
Y12065D3*
Y11565D3*
Y11065D3*
X43228D3*
Y11565D3*
Y12065D3*
Y12565D3*
X40709D3*
Y12065D3*
Y11565D3*
Y11065D3*
D52*
X33189Y19882D3*
Y21882D3*
D53*
X29134Y20882D3*
D54*
X14331Y19331D3*
Y15331D3*
Y11331D3*
X6331Y16331D3*
Y14331D3*
D23*
X52287Y7579D3*
X53287D3*
X54287D3*
X52287Y6547D3*
X54287D3*
G36*
X52500Y13861D2*
Y15861D1*
X53219D1*
X53281Y15798D1*
Y13924D1*
X53219Y13861D1*
X53094D1*
X52500D1*
G37*
G36*
X51344D2*
X51281Y13924D1*
Y15798D1*
X51344Y15861D1*
X52406D1*
Y13861D1*
X51344D1*
G37*
M02*
