G04 DipTrace 2.4.0.2*
%IN2_Layer_Bottom.gbr*%
%MOIN*%
%ADD10C,0.0098*%
%ADD15C,0.0079*%
%ADD17C,0.0157*%
%ADD18C,0.013*%
%ADD21C,0.0394*%
%ADD23C,0.0591*%
%ADD25C,0.025*%
%ADD28O,0.122X0.0827*%
%ADD29O,0.1024X0.0669*%
%ADD30C,0.0787*%
%ADD34R,0.0551X0.0551*%
%ADD35C,0.0551*%
%ADD39C,0.0591*%
%ADD40R,0.0591X0.1142*%
%ADD54C,0.0984*%
%ADD55C,0.04*%
%FSLAX44Y44*%
G04*
G70*
G90*
G75*
G01*
%LNBottom*%
%LPD*%
X50197Y22283D2*
D15*
Y22622D1*
X50181Y22638D1*
X50197Y22283D2*
D17*
Y22047D1*
G03X50709Y21535I512J0D01*
G01*
X54646D1*
G02X55433Y20748I0J-787D01*
G01*
Y10157D1*
Y8543D1*
G02X55000Y8110I-433J0D01*
G01*
X53740D1*
G03X53287Y7657I0J-453D01*
G01*
Y7579D1*
X54882Y10157D2*
X55433D1*
X42480Y14291D2*
D21*
X42953D1*
X42480D2*
X42677D1*
Y14685D1*
X42323Y15039D1*
X35160D1*
X27620D1*
X22433D1*
X20039D1*
Y14291D1*
X20276D1*
X19803D2*
X20276D1*
X27362D2*
X27620D1*
X27835D1*
X34921D2*
X35160D1*
X35394D1*
X27620D2*
Y15039D1*
X35160Y14291D2*
Y15039D1*
X14331Y19331D2*
X14409D1*
X22433Y18858D2*
Y15039D1*
X14409Y19331D2*
G02X15551Y18189I0J-1142D01*
G01*
Y15787D1*
G03X16299Y15039I748J0D01*
G01*
X20039D1*
X25236Y9370D2*
X25473D1*
X25709D1*
X32795D2*
X33025D1*
X33268D1*
X40354D2*
X40588D1*
X40827D1*
X40588D2*
Y8935D1*
X40394Y8740D1*
X33031D1*
X25473D1*
Y9370D1*
X33025D2*
X33031Y8740D1*
X14331Y11331D2*
Y9606D1*
G03X15197Y8740I866J0D01*
G01*
X17910D1*
X25473D1*
X17677Y9331D2*
X18150D1*
X17677D2*
D18*
X17910D1*
D21*
Y8740D1*
X19134Y20197D2*
X19087D1*
Y20244D1*
G03X18425Y20906I-662J0D01*
G01*
X14291D1*
G03X12795Y19449I-39J-1457D01*
G01*
Y12866D1*
G03X14331Y11331I1535J0D01*
G01*
X18150Y9331D2*
D18*
X17910D1*
X53701Y23110D2*
X52654D1*
G03X52181Y22638I0J-472D01*
G01*
X52287Y7579D2*
D10*
G03X52756Y7047I471J-57D01*
G01*
X55079D1*
G03X55945Y7835I-63J939D01*
G01*
Y22717D1*
G03X55551Y23110I-394J0D01*
G01*
X47181Y22638D2*
X47205Y22614D1*
Y21929D1*
G02X46929Y21654I-276J0D01*
G01*
X45315D1*
G03X45039Y21378I0J-276D01*
G01*
Y20472D1*
X12008Y21654D2*
D18*
Y21992D1*
X11992Y22008D1*
X12008Y21654D2*
Y22205D1*
X9016Y21654D2*
Y21953D1*
X8961Y22008D1*
X51181Y22283D2*
Y22638D1*
Y22283D2*
D17*
Y22008D1*
G03X51417Y21772I236J0D01*
G01*
X54764D1*
G02X55709Y20827I0J-945D01*
G01*
Y8071D1*
G02X55177Y7579I-562J74D01*
G01*
X54287D1*
X43701Y21693D2*
D10*
X43976D1*
G02X44488Y21181I0J-512D01*
G01*
Y20354D1*
X43268D2*
Y20709D1*
G03X42913Y21063I-354J0D01*
G01*
X41772D1*
G02X41181Y21654I0J591D01*
G01*
X49173Y22283D2*
D18*
Y22630D1*
X49181Y22638D1*
X47401Y18246D2*
D21*
Y14449D1*
Y11517D1*
X47502Y11417D1*
X48189Y14449D2*
X47401D1*
Y18246D2*
X38919D1*
G02X36929Y20236I0J1990D01*
G01*
X50197Y19291D2*
X48446D1*
G03X47401Y18246I0J-1045D01*
G01*
X50591Y9882D2*
X49037D1*
G02X47502Y11417I0J1535D01*
G01*
X10000Y21654D2*
D18*
Y21992D1*
X9984Y22008D1*
X7008Y21654D2*
Y21992D1*
X6992Y22008D1*
X43898Y20354D2*
D10*
Y20945D1*
G03X43622Y21220I-276J0D01*
G01*
X43598D1*
G02X43197Y21622I0J402D01*
G01*
Y22638D1*
X42323Y21457D2*
X42047D1*
X41299Y22205D1*
Y22488D1*
X41150Y22638D1*
X40165D2*
Y22039D1*
X40591Y21614D1*
X39181Y22638D2*
Y22315D1*
G03X39685Y21811I504J0D01*
G01*
X16063Y10630D2*
D15*
X17087D1*
X18504Y12047D1*
X18701D1*
X19252D1*
X21024D1*
X23071D1*
X25157D1*
X26260D1*
X26339D1*
X28583D1*
X30669D1*
X32717D1*
X33819D1*
X34370D1*
X36142D1*
X38189D1*
X38228D1*
X40276D1*
X41378D1*
X41457D1*
X43701D1*
X45512D1*
Y10748D1*
X21024Y14488D2*
Y12047D1*
X28583Y14488D2*
Y12047D1*
X36142Y14488D2*
Y12047D1*
X43701Y14488D2*
Y12047D1*
X23071Y10669D2*
D18*
Y12047D1*
X30669Y10669D2*
Y12047D1*
X38228Y10669D2*
Y12047D1*
X15630Y10630D2*
D15*
X16063D1*
X23071Y10669D2*
X23543D1*
X30669D2*
X31142D1*
X38228D2*
X38701D1*
X23110Y12559D2*
D18*
Y12087D1*
X23071Y12047D1*
X30669Y12559D2*
Y12047D1*
X38189Y12559D2*
Y12047D1*
X26339Y9370D2*
Y12047D1*
X26260Y14291D2*
Y12047D1*
X33819Y14291D2*
Y12047D1*
X34370Y9370D2*
Y12047D1*
X41378Y14291D2*
Y12047D1*
X41457Y9370D2*
Y12047D1*
X19252Y9331D2*
Y12047D1*
X18780Y9331D2*
X19252D1*
X17598Y14488D2*
Y12953D1*
X18504Y12047D1*
X25157Y14488D2*
Y12047D1*
X32717Y14488D2*
Y12047D1*
X40276Y14488D2*
Y12047D1*
X18701Y14291D2*
Y13809D1*
Y12047D1*
X14331Y15331D2*
D23*
Y14961D1*
G03X15157Y14134I827J0D01*
G01*
X18376D1*
X18701Y13809D1*
X19087Y18819D2*
D21*
X20039D1*
G03X20787Y19567I0J748D01*
G01*
Y19646D1*
G02X21378Y20236I591J0D01*
G01*
X22433D1*
X19087Y18819D2*
X17244D1*
X15827Y20236D1*
X14409D1*
G03X13425Y19331I-74J-908D01*
G01*
Y16236D1*
G03X14331Y15331I906J0D01*
G01*
X47181Y9094D2*
Y9669D1*
G03X46102Y10748I-1079J0D01*
G01*
X45512D1*
X7992Y21654D2*
D18*
Y21992D1*
X7976Y22008D1*
X7992Y21654D2*
D21*
Y16772D1*
X7559Y16339D1*
X6339D1*
X6331Y16331D1*
X11024Y21654D2*
D18*
Y21992D1*
X11008Y22008D1*
X11024Y21654D2*
D21*
Y20600D1*
Y19016D1*
X8858Y16850D1*
X8071D1*
X7992Y16772D1*
X15630Y22205D2*
D18*
Y22913D1*
X15433Y23110D1*
X13583D1*
X13307Y22835D1*
Y21614D1*
X12362Y20669D1*
X11093D1*
X11024Y20600D1*
X48189Y22283D2*
Y22630D1*
X48181Y22638D1*
X48189Y22283D2*
D17*
Y21614D1*
X48622Y21181D1*
X54606D1*
X55157Y20630D1*
Y11339D1*
X54882Y11063D1*
Y10945D1*
X27618Y19307D2*
D18*
X28602D1*
X29587D1*
X30571D1*
X27618D2*
Y20095D1*
Y20882D1*
Y21669D1*
Y22457D1*
X28602D1*
X29587D1*
X30571D1*
X27618Y21669D2*
X28602D1*
X29587D1*
X30571D1*
X27618Y20882D2*
X28602D1*
X29587D1*
X30571D1*
X27618Y20095D2*
X28602D1*
X29587D1*
X30571D1*
X36929Y21614D2*
X37717D1*
X40394Y18937D1*
X46417D1*
X48189Y20709D1*
Y22283D1*
X51969Y15548D2*
Y14882D1*
X52969D1*
Y15548D1*
X51969D2*
Y14861D1*
Y14173D1*
X51594Y15548D2*
Y14861D1*
Y14173D1*
X51969D1*
X52969Y15548D2*
Y15173D1*
Y14548D1*
Y14173D1*
X51548Y10873D2*
X50741D1*
X49206Y12408D1*
X48459D1*
X48393Y17289D2*
X49282D1*
Y15236D1*
Y14861D1*
Y12408D1*
X48459D1*
X51594Y14861D2*
X49282D1*
X52969Y15548D2*
X53029D1*
X53780Y16299D1*
X48189Y15236D2*
X49282D1*
X51575Y19291D2*
Y15567D1*
X51594Y15548D1*
X48181Y9094D2*
D21*
X51063D1*
G03X51575Y9606I0J512D01*
G01*
X51548Y10873D1*
X48393Y17289D2*
D18*
X49573D1*
X51575Y19291D1*
D21*
X53701Y23110D3*
X55551D3*
X48189Y22992D3*
X49173D3*
X50197D3*
X51181D3*
X48189Y22638D3*
X49173D3*
X50197D3*
X51181D3*
X54134Y22559D3*
X27618Y22457D3*
X28602D3*
X29587D3*
X30571D3*
X7008Y22362D3*
X7992D3*
X9016D3*
X10000D3*
X11024D3*
X12008Y22323D3*
X48189Y22283D3*
X49173D3*
X50197D3*
X51181D3*
X7008Y22008D3*
X7992D3*
X9016D3*
X10000D3*
X11024D3*
X12008Y21969D3*
X39685Y21811D3*
X43701Y21693D3*
X27618Y21669D3*
X28602D3*
X29587D3*
X30571D3*
X7008Y21654D3*
X7992D3*
X9016D3*
X10000D3*
X11024D3*
X12008D3*
X41181D3*
X40591Y21614D3*
X42323Y21457D3*
X27618Y20882D3*
X28602D3*
X29587D3*
X30571D3*
X45039Y20472D3*
X43268Y20354D3*
X43898D3*
X44488D3*
X27618Y20095D3*
X28602D3*
X29587D3*
X30571D3*
X27618Y19307D3*
X28602D3*
X29587D3*
X30571D3*
X53780Y16299D3*
D55*
X51594Y15548D3*
X51969D3*
X52969D3*
Y15173D3*
X51594Y14861D3*
X51969D3*
X52969Y14548D3*
D21*
X17598Y14488D3*
X21024D3*
X25157D3*
X28583D3*
X32717D3*
X36142D3*
X40276D3*
X43701D3*
X18701Y14291D3*
X19173D3*
X19803D3*
X20276D3*
X26260D3*
X26732D3*
X27362D3*
X27835D3*
X33819D3*
X34291D3*
X34921D3*
X35394D3*
X41378D3*
X41850D3*
X42480D3*
X42953D3*
D55*
X51594Y14173D3*
X51969D3*
X52969D3*
D21*
X23110Y12559D3*
X30669D3*
X38189D3*
X45512Y10748D3*
X23071Y10669D3*
X23543D3*
X30669D3*
X31142D3*
X38228D3*
X38701D3*
X15630Y10630D3*
X16063D3*
X25236Y9370D3*
X25709D3*
X26339D3*
X26811D3*
X32795D3*
X33268D3*
X33898D3*
X34370D3*
X40354D3*
X40827D3*
X41457D3*
X41929D3*
X17677Y9331D3*
X18150D3*
X18780D3*
X19252D3*
X56370Y23878D2*
D25*
X56936D1*
X56370Y23630D2*
X56936D1*
X56370Y23381D2*
X56936D1*
X56370Y23132D2*
X56936D1*
X56370Y22884D2*
X56936D1*
X56370Y22635D2*
X56936D1*
X56370Y22386D2*
X56936D1*
X56370Y22137D2*
X56936D1*
X56370Y21889D2*
X56936D1*
X56370Y21640D2*
X56936D1*
X56370Y21391D2*
X56936D1*
X56370Y21143D2*
X56631D1*
X56370Y19899D2*
X56596D1*
X56370Y19651D2*
X56936D1*
X56370Y19402D2*
X56936D1*
X56370Y19153D2*
X56936D1*
X56370Y18905D2*
X56936D1*
X56370Y18656D2*
X56936D1*
X56370Y18407D2*
X56936D1*
X56370Y18158D2*
X56936D1*
X56370Y17910D2*
X56936D1*
X56370Y17661D2*
X56936D1*
X56370Y17412D2*
X56936D1*
X56370Y17164D2*
X56936D1*
X56370Y16915D2*
X56936D1*
X56370Y16666D2*
X56936D1*
X56370Y16418D2*
X56936D1*
X56370Y16169D2*
X56936D1*
X56370Y15920D2*
X56936D1*
X56370Y15672D2*
X56936D1*
X56370Y15423D2*
X56936D1*
X56370Y15174D2*
X56936D1*
X56370Y14926D2*
X56936D1*
X56370Y14677D2*
X56936D1*
X56370Y14428D2*
X56936D1*
X56370Y14179D2*
X56936D1*
X56370Y13931D2*
X56936D1*
X56370Y13682D2*
X56936D1*
X56370Y13433D2*
X56936D1*
X56370Y13185D2*
X56936D1*
X56370Y12936D2*
X56936D1*
X56370Y12687D2*
X56936D1*
X56370Y12439D2*
X56936D1*
X56370Y12190D2*
X56936D1*
X56370Y11941D2*
X56936D1*
X56370Y11693D2*
X56936D1*
X56370Y11444D2*
X56936D1*
X56370Y11195D2*
X56936D1*
X56370Y10947D2*
X56936D1*
X56370Y10698D2*
X56936D1*
X56370Y10449D2*
X56936D1*
X56370Y10200D2*
X56936D1*
X56370Y9952D2*
X56936D1*
X56370Y9703D2*
X56936D1*
X56370Y9454D2*
X56936D1*
X56370Y9206D2*
X56936D1*
X56370Y8957D2*
X56936D1*
X56370Y8708D2*
X56842D1*
X56370Y8460D2*
X56533D1*
X56370Y7216D2*
X56596D1*
X56370Y6968D2*
X56936D1*
X56370Y6719D2*
X56936D1*
X56370Y6470D2*
X56936D1*
X56370Y6221D2*
X56936D1*
X56370Y5973D2*
X56936D1*
X56370Y5724D2*
X56936D1*
X56370Y5475D2*
X56936D1*
X56370Y5227D2*
X56936D1*
X56370Y4978D2*
X56936D1*
X56370Y4729D2*
X56936D1*
X56370Y4481D2*
X56936D1*
X56470Y4279D2*
X56962D1*
Y7001D1*
X56867Y7037D1*
X56703Y7136D1*
X56524Y7322D1*
X56396Y7562D1*
X56351Y7854D1*
X56397Y8169D1*
X56505Y8387D1*
X56649Y8577D1*
X56827Y8691D1*
X56962Y8746D1*
Y19688D1*
X56830Y19733D1*
X56636Y19881D1*
X56522Y20023D1*
X56412Y20253D1*
X56371Y20497D1*
X56413Y20734D1*
X56500Y20970D1*
X56526Y21014D1*
X56671Y21158D1*
X56843Y21297D1*
X56962Y21345D1*
Y24127D1*
X56345D1*
Y4279D1*
X56470D1*
X4284Y23898D2*
X4869D1*
X4284Y23649D2*
X4869D1*
X4284Y23401D2*
X4869D1*
X4284Y23152D2*
X4869D1*
X4284Y22903D2*
X4869D1*
X4284Y22655D2*
X4869D1*
X4284Y22406D2*
X4869D1*
X4284Y22157D2*
X4869D1*
X4284Y21908D2*
X4869D1*
X4284Y21660D2*
X4869D1*
X4284Y21411D2*
X4869D1*
X4594Y21162D2*
X4869D1*
X4782Y20914D2*
X4869D1*
X4649Y19919D2*
X4869D1*
X4284Y19670D2*
X4869D1*
X4284Y19422D2*
X4869D1*
X4284Y19173D2*
X4869D1*
X4284Y18924D2*
X4869D1*
X4284Y18676D2*
X4869D1*
X4284Y18427D2*
X4869D1*
X4284Y18178D2*
X4869D1*
X4284Y17929D2*
X4869D1*
X4284Y17681D2*
X4869D1*
X4284Y17432D2*
X4869D1*
X4284Y17183D2*
X4869D1*
X4284Y16935D2*
X4869D1*
X4284Y16686D2*
X4869D1*
X4284Y16437D2*
X4869D1*
X4284Y16189D2*
X4869D1*
X4284Y15940D2*
X4869D1*
X4284Y15691D2*
X4869D1*
X4284Y15443D2*
X4869D1*
X4284Y15194D2*
X4869D1*
X4284Y14945D2*
X4869D1*
X4284Y14697D2*
X4869D1*
X4284Y14448D2*
X4869D1*
X4284Y14199D2*
X4869D1*
X4284Y13950D2*
X4869D1*
X4284Y13702D2*
X4869D1*
X4284Y13453D2*
X4869D1*
X4284Y13204D2*
X4869D1*
X4284Y12956D2*
X4869D1*
X4284Y12707D2*
X4869D1*
X4284Y12458D2*
X4869D1*
X4284Y12210D2*
X4869D1*
X4284Y11961D2*
X4869D1*
X4284Y11712D2*
X4869D1*
X4284Y11464D2*
X4869D1*
X4284Y11215D2*
X4869D1*
X4284Y10966D2*
X4869D1*
X4284Y10718D2*
X4869D1*
X4284Y10469D2*
X4869D1*
X4284Y10220D2*
X4869D1*
X4284Y9971D2*
X4869D1*
X4284Y9723D2*
X4869D1*
X4284Y9474D2*
X4869D1*
X4284Y9225D2*
X4869D1*
X4284Y8977D2*
X4869D1*
X4329Y8728D2*
X4869D1*
X4676Y8479D2*
X4869D1*
X4673Y7236D2*
X4869D1*
X4284Y6987D2*
X4869D1*
X4284Y6739D2*
X4869D1*
X4284Y6490D2*
X4869D1*
X4284Y6241D2*
X4869D1*
X4284Y5992D2*
X4869D1*
X4284Y5744D2*
X4869D1*
X4284Y5495D2*
X4869D1*
X4284Y5246D2*
X4869D1*
X4284Y4998D2*
X4869D1*
X4284Y4749D2*
X4869D1*
X4284Y4500D2*
X4869D1*
X4384Y4259D2*
X4895D1*
Y24147D1*
X4259D1*
Y21356D1*
X4415Y21288D1*
X4667Y21079D1*
X4803Y20829D1*
X4866Y20513D1*
Y20464D1*
X4799Y20185D1*
X4647Y19945D1*
X4498Y19794D1*
X4347Y19711D1*
X4259Y19686D1*
Y8740D1*
X4358Y8708D1*
X4537Y8592D1*
X4718Y8402D1*
X4828Y8167D1*
X4869Y7863D1*
X4843Y7618D1*
X4750Y7353D1*
X4583Y7164D1*
X4377Y7049D1*
X4259Y7002D1*
Y4259D1*
X4384D1*
X15544Y14351D2*
X19320D1*
X20757D2*
X26878D1*
X28319D2*
X34437D1*
X35878D2*
X41996D1*
X43436D2*
X45519D1*
X15544Y14102D2*
X19359D1*
X20721D2*
X26918D1*
X28280D2*
X34476D1*
X35839D2*
X42035D1*
X43397D2*
X45519D1*
X15544Y13853D2*
X19632D1*
X20448D2*
X27191D1*
X28007D2*
X34750D1*
X35565D2*
X42308D1*
X43124D2*
X45519D1*
X15544Y13605D2*
X45519D1*
X15544Y13356D2*
X45519D1*
X15544Y13107D2*
X45519D1*
X15544Y12859D2*
X45519D1*
X15544Y12610D2*
X45519D1*
X15544Y12361D2*
X45519D1*
X15544Y12113D2*
X45519D1*
X15544Y11864D2*
X45519D1*
X15544Y11615D2*
X45519D1*
X15544Y11366D2*
X45519D1*
X15544Y11118D2*
X45519D1*
X15544Y10869D2*
X45519D1*
X15544Y10620D2*
X45519D1*
X15544Y10372D2*
X45519D1*
X15544Y10123D2*
X45519D1*
X15544Y9874D2*
X45519D1*
X15544Y9626D2*
X17296D1*
X18530D2*
X24828D1*
X26120D2*
X32386D1*
X33678D2*
X39945D1*
X41237D2*
X45519D1*
X15544Y9377D2*
X17191D1*
X18635D2*
X24750D1*
X26194D2*
X32308D1*
X33753D2*
X39867D1*
X41315D2*
X45519D1*
X25361Y9832D2*
X25709D1*
X25832Y9815D1*
X25947Y9766D1*
X26044Y9688D1*
X26117Y9587D1*
X26160Y9470D1*
X26170Y9370D1*
X26269Y9259D1*
X32351D1*
X32334Y9395D1*
X32358Y9517D1*
X32413Y9629D1*
X32496Y9722D1*
X32601Y9789D1*
X32720Y9826D1*
X33025Y9832D1*
X33268D1*
X33391Y9815D1*
X33506Y9766D1*
X33603Y9688D1*
X33676Y9587D1*
X33719Y9470D1*
X33729Y9370D1*
X33769Y9259D1*
X39905D1*
X39893Y9395D1*
X39917Y9517D1*
X39972Y9629D1*
X40055Y9722D1*
X40160Y9789D1*
X40279Y9826D1*
X40588Y9832D1*
X40827D1*
X40950Y9815D1*
X41065Y9766D1*
X41162Y9688D1*
X41235Y9587D1*
X41278Y9470D1*
X41289Y9370D1*
X41394Y9259D1*
X45544D1*
Y14599D1*
X43298D1*
X43334Y14552D1*
X43390Y14440D1*
X43415Y14291D1*
X43398Y14168D1*
X43348Y14053D1*
X43270Y13956D1*
X43169Y13883D1*
X43028Y13836D1*
X42703Y13830D1*
X42480D1*
X42357Y13846D1*
X42242Y13896D1*
X42145Y13974D1*
X42072Y14075D1*
X42029Y14192D1*
X42019Y14316D1*
X42043Y14438D1*
X42112Y14570D1*
X42073Y14578D1*
X35756D1*
X35831Y14440D1*
X35855Y14291D1*
X35839Y14168D1*
X35789Y14053D1*
X35711Y13956D1*
X35610Y13883D1*
X35469Y13836D1*
X35160Y13830D1*
X34921D1*
X34798Y13846D1*
X34683Y13896D1*
X34586Y13974D1*
X34513Y14075D1*
X34470Y14192D1*
X34460Y14316D1*
X34484Y14438D1*
X34556Y14573D1*
X34285Y14578D1*
X28195D1*
X28272Y14440D1*
X28296Y14291D1*
X28280Y14168D1*
X28230Y14053D1*
X28152Y13956D1*
X28051Y13883D1*
X27910Y13836D1*
X27620Y13830D1*
X27362D1*
X27239Y13846D1*
X27124Y13896D1*
X27027Y13974D1*
X26954Y14075D1*
X26911Y14192D1*
X26901Y14316D1*
X26924Y14438D1*
X26997Y14573D1*
X26870Y14578D1*
X20640D1*
X20713Y14440D1*
X20737Y14291D1*
X20721Y14168D1*
X20671Y14053D1*
X20593Y13956D1*
X20492Y13883D1*
X20351Y13836D1*
X20026Y13830D1*
X19803D1*
X19680Y13846D1*
X19565Y13896D1*
X19468Y13974D1*
X19395Y14075D1*
X19352Y14192D1*
X19342Y14316D1*
X19365Y14438D1*
X19438Y14573D1*
X19164Y14578D1*
X16204Y14583D1*
X16077Y14600D1*
X15519Y14599D1*
Y9259D1*
X17218D1*
X17216Y9355D1*
X17239Y9478D1*
X17295Y9589D1*
X17378Y9682D1*
X17483Y9750D1*
X17602Y9786D1*
X17927Y9792D1*
X18150D1*
X18273Y9776D1*
X18388Y9726D1*
X18485Y9648D1*
X18557Y9547D1*
X18601Y9430D1*
X18611Y9331D1*
X18609Y9259D1*
X24788D1*
X24775Y9395D1*
X24798Y9517D1*
X24854Y9629D1*
X24937Y9722D1*
X25042Y9789D1*
X25161Y9826D1*
X25361Y9832D1*
X13299Y23563D2*
X37999D1*
X13299Y23315D2*
X37999D1*
X13299Y23066D2*
X37999D1*
X13299Y22817D2*
X13987D1*
X14518D2*
X15362D1*
X15897D2*
X37999D1*
X13299Y22569D2*
X13679D1*
X14826D2*
X15058D1*
X16205D2*
X37999D1*
X5467Y22320D2*
X6405D1*
X12576D2*
X13577D1*
X16303D2*
X37999D1*
X5467Y22071D2*
X6405D1*
X12576D2*
X13581D1*
X16299D2*
X36429D1*
X37428D2*
X37999D1*
X5467Y21823D2*
X6405D1*
X12576D2*
X13690D1*
X14815D2*
X15069D1*
X16190D2*
X36280D1*
X37580D2*
X37999D1*
X5467Y21574D2*
X6405D1*
X12576D2*
X14038D1*
X14467D2*
X15417D1*
X15842D2*
X36245D1*
X37611D2*
X39265D1*
X47424D2*
X49972D1*
X5467Y21325D2*
X6405D1*
X12576D2*
X13835D1*
X24205D2*
X36311D1*
X37545D2*
X40206D1*
X45377D2*
X50226D1*
X5471Y21076D2*
X13218D1*
X24205D2*
X36522D1*
X37334D2*
X41050D1*
X45377D2*
X54917D1*
X5471Y20828D2*
X12893D1*
X24205D2*
X36616D1*
X37244D2*
X41378D1*
X45377D2*
X55058D1*
X5471Y20579D2*
X12679D1*
X24205D2*
X36343D1*
X37518D2*
X42839D1*
X45514D2*
X55065D1*
X5471Y20330D2*
X12526D1*
X24205D2*
X36253D1*
X37608D2*
X42780D1*
X45502D2*
X55065D1*
X5471Y20082D2*
X12421D1*
X24205D2*
X36265D1*
X37596D2*
X42870D1*
X45311D2*
X55065D1*
X5475Y19833D2*
X12351D1*
X24205D2*
X36382D1*
X37475D2*
X49796D1*
X50596D2*
X51175D1*
X51975D2*
X55065D1*
X5475Y19584D2*
X12214D1*
X24205D2*
X36534D1*
X37565D2*
X47733D1*
X50811D2*
X50960D1*
X52190D2*
X55065D1*
X5475Y19336D2*
X12214D1*
X24205D2*
X36616D1*
X37713D2*
X47382D1*
X52760D2*
X55065D1*
X5475Y19087D2*
X12214D1*
X24205D2*
X36729D1*
X37940D2*
X47175D1*
X52776D2*
X55065D1*
X5475Y18838D2*
X12214D1*
X24205D2*
X36882D1*
X38330D2*
X47038D1*
X50701D2*
X51073D1*
X52076D2*
X52186D1*
X52776D2*
X55065D1*
X5479Y18590D2*
X12214D1*
X24205D2*
X37081D1*
X48002D2*
X52186D1*
X52776D2*
X55065D1*
X5479Y18341D2*
X12214D1*
X24205D2*
X37339D1*
X48076D2*
X52186D1*
X52776D2*
X55065D1*
X5479Y18092D2*
X12214D1*
X48068D2*
X52186D1*
X52776D2*
X55065D1*
X5479Y17844D2*
X12214D1*
X48772D2*
X52186D1*
X52776D2*
X55065D1*
X5483Y17595D2*
X12214D1*
X49002D2*
X52186D1*
X52776D2*
X55065D1*
X5483Y17346D2*
X12214D1*
X49072D2*
X52186D1*
X52776D2*
X55065D1*
X5483Y17097D2*
X12214D1*
X49049D2*
X52186D1*
X52776D2*
X55065D1*
X5483Y16849D2*
X5753D1*
X6908D2*
X12214D1*
X48908D2*
X52186D1*
X52776D2*
X55065D1*
X5483Y16600D2*
X5596D1*
X7065D2*
X12214D1*
X47889D2*
X52186D1*
X52776D2*
X55065D1*
X7111Y16351D2*
X12214D1*
X47889D2*
X52186D1*
X52776D2*
X55065D1*
X5486Y16103D2*
X5583D1*
X7076D2*
X12214D1*
X47889D2*
X52186D1*
X52776D2*
X55065D1*
X5486Y15854D2*
X5718D1*
X6943D2*
X12214D1*
X47889D2*
X52186D1*
X52776D2*
X55065D1*
X5486Y15605D2*
X6089D1*
X6572D2*
X12214D1*
X48608D2*
X52186D1*
X52776D2*
X55065D1*
X5486Y15357D2*
X12214D1*
X48740D2*
X52186D1*
X52776D2*
X55065D1*
X5490Y15108D2*
X12214D1*
X48740D2*
X52218D1*
X52740D2*
X55065D1*
X5490Y14859D2*
X5765D1*
X6897D2*
X12214D1*
X48756D2*
X55065D1*
X5490Y14611D2*
X5605D1*
X7061D2*
X12214D1*
X48756D2*
X52241D1*
X52721D2*
X55065D1*
X7111Y14362D2*
X12214D1*
X48756D2*
X52186D1*
X52776D2*
X55065D1*
X5490Y14113D2*
X5577D1*
X7080D2*
X12214D1*
X48756D2*
X52186D1*
X52776D2*
X55065D1*
X5494Y13865D2*
X5710D1*
X6951D2*
X12214D1*
X47889D2*
X52186D1*
X52776D2*
X55065D1*
X5494Y13616D2*
X6058D1*
X6604D2*
X12214D1*
X47889D2*
X52186D1*
X52776D2*
X55065D1*
X5494Y13367D2*
X12214D1*
X47889D2*
X52186D1*
X52776D2*
X55065D1*
X5494Y13118D2*
X12214D1*
X47889D2*
X52186D1*
X52776D2*
X55065D1*
X5494Y12870D2*
X12214D1*
X48955D2*
X52186D1*
X52776D2*
X55065D1*
X5498Y12621D2*
X12214D1*
X49108D2*
X52186D1*
X52776D2*
X55065D1*
X5498Y12372D2*
X12214D1*
X49143D2*
X52186D1*
X52776D2*
X55065D1*
X5498Y12124D2*
X12214D1*
X49076D2*
X52186D1*
X52776D2*
X55065D1*
X5498Y11875D2*
X12214D1*
X48869D2*
X52186D1*
X52776D2*
X55065D1*
X5498Y11626D2*
X12214D1*
X48151D2*
X52186D1*
X52776D2*
X55065D1*
X5502Y11378D2*
X12214D1*
X48186D2*
X51101D1*
X51994D2*
X52186D1*
X52776D2*
X54534D1*
X5502Y11129D2*
X12214D1*
X48119D2*
X50917D1*
X52776D2*
X54351D1*
X5502Y10880D2*
X12214D1*
X48135D2*
X50866D1*
X52776D2*
X54319D1*
X5502Y10632D2*
X12214D1*
X48334D2*
X50909D1*
X52776D2*
X54315D1*
X48783Y10383D2*
X50140D1*
X52014D2*
X52186D1*
X52776D2*
X54315D1*
X51225Y10134D2*
X52186D1*
X52776D2*
X54315D1*
X51276Y9885D2*
X52186D1*
X52776D2*
X54315D1*
X52041Y9637D2*
X52186D1*
X52776D2*
X54315D1*
X52041Y9388D2*
X52186D1*
X52776D2*
X55065D1*
X52041Y9139D2*
X52186D1*
X52776D2*
X55065D1*
X52041Y8891D2*
X52186D1*
X52776D2*
X55065D1*
X14899Y22080D2*
X14864Y21961D1*
X14807Y21850D1*
X14730Y21751D1*
X14636Y21669D1*
X14528Y21607D1*
X14410Y21565D1*
X14287Y21547D1*
X14162Y21552D1*
X14040Y21581D1*
X13926Y21632D1*
X13824Y21704D1*
X13737Y21794D1*
X13669Y21898D1*
X13622Y22013D1*
X13597Y22136D1*
X13596Y22261D1*
X13618Y22383D1*
X13663Y22500D1*
X13729Y22606D1*
X13814Y22697D1*
X13915Y22771D1*
X14028Y22824D1*
X14149Y22855D1*
X14273Y22863D1*
X14397Y22847D1*
X14516Y22808D1*
X14625Y22748D1*
X14721Y22668D1*
X14799Y22571D1*
X14859Y22461D1*
X14896Y22342D1*
X14911Y22205D1*
X14899Y22080D1*
X16288Y22180D2*
X16272Y22056D1*
X16232Y21938D1*
X16171Y21829D1*
X16090Y21734D1*
X15993Y21655D1*
X15883Y21597D1*
X15764Y21560D1*
X15639Y21546D1*
X15515Y21556D1*
X15395Y21590D1*
X15283Y21645D1*
X15184Y21720D1*
X15100Y21813D1*
X15036Y21920D1*
X14993Y22037D1*
X14973Y22161D1*
X14976Y22285D1*
X15003Y22407D1*
X15053Y22522D1*
X15123Y22625D1*
X15211Y22713D1*
X15315Y22783D1*
X15429Y22832D1*
X15551Y22859D1*
X15676Y22862D1*
X15799Y22841D1*
X15916Y22798D1*
X16023Y22733D1*
X16116Y22649D1*
X16191Y22550D1*
X16246Y22438D1*
X16279Y22317D1*
X16288Y22180D1*
X37576Y20112D2*
X37541Y19992D1*
X37484Y19881D1*
X37448Y19835D1*
X37509Y19649D1*
X37624Y19428D1*
X37740Y19265D1*
X37915Y19087D1*
X38073Y18964D1*
X38291Y18845D1*
X38478Y18773D1*
X38722Y18723D1*
X38935Y18708D1*
X46931D1*
X47042Y18796D1*
X47157Y19025D1*
X47270Y19187D1*
X47403Y19332D1*
X47554Y19459D1*
X47720Y19565D1*
X47898Y19649D1*
X48086Y19709D1*
X48280Y19743D1*
X48571Y19753D1*
X49724D1*
X49860Y19857D1*
X49973Y19911D1*
X50094Y19942D1*
X50218Y19950D1*
X50342Y19934D1*
X50461Y19895D1*
X50570Y19834D1*
X50665Y19754D1*
X50744Y19657D1*
X50812Y19522D1*
X50954Y19521D1*
X51052Y19692D1*
X51137Y19784D1*
X51238Y19857D1*
X51351Y19911D1*
X51472Y19942D1*
X51596Y19950D1*
X51720Y19934D1*
X51839Y19895D1*
X51948Y19834D1*
X52043Y19754D1*
X52122Y19657D1*
X52190Y19522D1*
X52480Y19521D1*
X52601Y19492D1*
X52696Y19413D1*
X52745Y19295D1*
X52749Y19002D1*
Y15236D1*
X52720Y15116D1*
X52641Y15021D1*
X52527Y14972D1*
X52403Y14979D1*
X52296Y15041D1*
X52228Y15144D1*
X52212Y15236D1*
Y18982D1*
X52130Y18936D1*
X52053Y18838D1*
X51958Y18756D1*
X51851Y18693D1*
X51733Y18652D1*
X51609Y18634D1*
X51485Y18639D1*
X51363Y18668D1*
X51249Y18719D1*
X51147Y18790D1*
X51060Y18880D1*
X50994Y18981D1*
X50781Y18983D1*
X50675Y18838D1*
X50581Y18756D1*
X50473Y18693D1*
X50355Y18652D1*
X50231Y18634D1*
X50107Y18639D1*
X49985Y18668D1*
X49871Y18719D1*
X49769Y18790D1*
X49729Y18832D1*
X48947Y18830D1*
X48370Y18824D1*
X48223Y18784D1*
X48092Y18708D1*
X47984Y18601D1*
X48046Y18384D1*
X48060Y18246D1*
X48048Y18122D1*
X48013Y18002D1*
X47956Y17891D1*
X47864Y17780D1*
X47863Y17680D1*
X47937Y17764D1*
X48034Y17842D1*
X48145Y17899D1*
X48265Y17935D1*
X48389Y17948D1*
X48513Y17937D1*
X48633Y17902D1*
X48745Y17846D1*
X48843Y17769D1*
X48926Y17676D1*
X48989Y17568D1*
X49031Y17451D1*
X49050Y17327D1*
X49044Y17190D1*
X49013Y17068D1*
X48960Y16955D1*
X48887Y16854D1*
X48796Y16769D1*
X48691Y16702D1*
X48575Y16656D1*
X48452Y16633D1*
X48327Y16634D1*
X48205Y16658D1*
X48089Y16705D1*
X47984Y16772D1*
X47894Y16859D1*
X47863Y16897D1*
X47865Y15669D1*
X47973Y15732D1*
X48092Y15768D1*
X48217Y15776D1*
X48340Y15755D1*
X48455Y15707D1*
X48556Y15633D1*
X48637Y15539D1*
X48694Y15428D1*
X48725Y15307D1*
X48727Y15186D1*
X48701Y15064D1*
X48669Y14989D1*
X48729D1*
Y13908D1*
X47866D1*
X47863Y12824D1*
Y12687D1*
X47921Y12789D1*
X48003Y12884D1*
X48101Y12961D1*
X48211Y13019D1*
X48331Y13054D1*
X48455Y13067D1*
X48580Y13056D1*
X48700Y13021D1*
X48811Y12965D1*
X48910Y12889D1*
X48992Y12795D1*
X49055Y12688D1*
X49097Y12570D1*
X49116Y12447D1*
X49110Y12309D1*
X49079Y12188D1*
X49027Y12075D1*
X48954Y11974D1*
X48863Y11888D1*
X48757Y11821D1*
X48641Y11775D1*
X48518Y11752D1*
X48394Y11753D1*
X48271Y11777D1*
X48155Y11824D1*
X48051Y11892D1*
X47960Y11978D1*
X47888Y12080D1*
X47863Y12127D1*
Y11968D1*
X47970Y11880D1*
X48049Y11783D1*
X48108Y11673D1*
X48146Y11554D1*
X48160Y11417D1*
X48149Y11293D1*
X48113Y11173D1*
X48035Y11034D1*
X48088Y10916D1*
X48156Y10805D1*
X48236Y10704D1*
X48328Y10612D1*
X48430Y10533D1*
X48541Y10466D1*
X48659Y10413D1*
X48783Y10375D1*
X48910Y10352D1*
X49162Y10344D1*
X50119D1*
X50254Y10448D1*
X50366Y10501D1*
X50487Y10532D1*
X50612Y10540D1*
X50736Y10524D1*
X50854Y10485D1*
X50963Y10425D1*
X51059Y10345D1*
X51138Y10248D1*
X51197Y10138D1*
X51235Y10019D1*
X51249Y9882D1*
X51242Y9808D1*
X51890Y9810D1*
X51995Y9749D1*
X52015Y9685D1*
Y8668D1*
X52212D1*
Y14449D1*
X52240Y14569D1*
X52320Y14664D1*
X52433Y14713D1*
X52557Y14706D1*
X52664Y14644D1*
X52733Y14541D1*
X52749Y14449D1*
Y8671D1*
X53265Y8668D1*
X55089D1*
Y9618D1*
X54341Y9617D1*
Y10698D1*
X54400D1*
X54355Y10823D1*
X54341Y10947D1*
X54356Y11071D1*
X54399Y11188D1*
X54468Y11292D1*
X54558Y11378D1*
X54666Y11440D1*
X54785Y11477D1*
X54910Y11485D1*
X55033Y11464D1*
X55089Y11444D1*
X55085Y20806D1*
X55055Y20918D1*
X54997Y21018D1*
X54915Y21099D1*
X54815Y21157D1*
X54703Y21187D1*
X54271Y21192D1*
X50619Y21197D1*
X50466Y21227D1*
X50321Y21286D1*
X50206Y21355D1*
X50088Y21459D1*
X49992Y21582D1*
X49954Y21646D1*
X47447Y21647D1*
X47379Y21549D1*
X47304Y21474D1*
X47221Y21417D1*
X47136Y21377D1*
X47026Y21348D1*
X46929Y21339D1*
X45354D1*
Y20812D1*
X45421Y20733D1*
X45477Y20621D1*
X45501Y20472D1*
X45484Y20349D1*
X45435Y20234D1*
X45357Y20137D1*
X45256Y20065D1*
X45139Y20022D1*
X45015Y20011D1*
X44892Y20035D1*
X44840Y20061D1*
X44806Y20019D1*
X44705Y19946D1*
X44588Y19903D1*
X44464Y19893D1*
X44341Y19917D1*
X44229Y19972D1*
X44198Y20000D1*
X44114Y19946D1*
X43997Y19903D1*
X43873Y19893D1*
X43751Y19917D1*
X43639Y19972D1*
X43584Y20021D1*
X43484Y19946D1*
X43367Y19903D1*
X43243Y19893D1*
X43121Y19917D1*
X43009Y19972D1*
X42916Y20055D1*
X42849Y20160D1*
X42812Y20279D1*
X42809Y20404D1*
X42838Y20525D1*
X42900Y20633D1*
X42952Y20686D1*
X42901Y20749D1*
X41700Y20753D1*
X41556Y20775D1*
X41407Y20826D1*
X41259Y20910D1*
X41146Y21001D1*
X41042Y21120D1*
X40966Y21244D1*
X40908Y21284D1*
X40807Y21206D1*
X40690Y21163D1*
X40566Y21153D1*
X40444Y21176D1*
X40332Y21232D1*
X40239Y21315D1*
X40172Y21420D1*
X40135Y21539D1*
X40132Y21628D1*
X40003Y21476D1*
X39902Y21403D1*
X39785Y21360D1*
X39660Y21350D1*
X39538Y21373D1*
X39426Y21429D1*
X39333Y21512D1*
X39259Y21617D1*
X39215Y21647D1*
X38150D1*
X38044Y21708D1*
X38025Y21772D1*
Y23812D1*
X13275D1*
Y22480D1*
X13213Y22375D1*
X13150Y22355D1*
X12552D1*
Y21172D1*
X11432Y21176D1*
X11443Y21172D1*
X9424Y21176D1*
X9021Y21172D1*
X8400Y21176D1*
X8412Y21172D1*
X6432D1*
Y22356D1*
X5443Y22355D1*
X5450Y19231D1*
X5479Y10401D1*
X12237D1*
X12239Y19649D1*
X12268Y19728D1*
X12373Y19819D1*
X12410Y19983D1*
X12498Y20223D1*
X12616Y20449D1*
X12763Y20657D1*
X12937Y20844D1*
X13133Y21007D1*
X13350Y21141D1*
X13583Y21246D1*
X13827Y21319D1*
X14079Y21359D1*
X14169Y21363D1*
X14253Y21434D1*
X14331Y21464D1*
X24055D1*
X24161Y21402D1*
X24180Y21339D1*
Y18275D1*
X37450D1*
X37347Y18356D1*
X37170Y18519D1*
X37010Y18699D1*
X36868Y18893D1*
X36747Y19101D1*
X36646Y19319D1*
X36567Y19546D1*
X36524Y19717D1*
X36415Y19825D1*
X36346Y19929D1*
X36299Y20045D1*
X36274Y20167D1*
X36273Y20292D1*
X36295Y20415D1*
X36340Y20531D1*
X36406Y20637D1*
X36491Y20728D1*
X36592Y20802D1*
X36705Y20856D1*
X36826Y20887D1*
X36950Y20894D1*
X37074Y20879D1*
X37193Y20840D1*
X37302Y20779D1*
X37398Y20699D1*
X37477Y20602D1*
X37536Y20493D1*
X37573Y20373D1*
X37588Y20236D1*
X37576Y20112D1*
X37587Y21589D2*
X37571Y21465D1*
X37531Y21347D1*
X37470Y21238D1*
X37389Y21143D1*
X37292Y21065D1*
X37182Y21006D1*
X37063Y20969D1*
X36939Y20956D1*
X36814Y20966D1*
X36694Y20999D1*
X36582Y21054D1*
X36483Y21130D1*
X36399Y21223D1*
X36335Y21330D1*
X36292Y21447D1*
X36272Y21570D1*
X36275Y21695D1*
X36302Y21817D1*
X36352Y21931D1*
X36422Y22035D1*
X36510Y22123D1*
X36614Y22192D1*
X36729Y22242D1*
X36851Y22268D1*
X36975Y22271D1*
X37099Y22251D1*
X37216Y22207D1*
X37322Y22143D1*
X37415Y22059D1*
X37490Y21959D1*
X37545Y21847D1*
X37578Y21727D1*
X37587Y21589D1*
X52206Y10848D2*
X52189Y10724D1*
X52150Y10606D1*
X52089Y10497D1*
X52008Y10402D1*
X51911Y10324D1*
X51801Y10265D1*
X51681Y10228D1*
X51557Y10215D1*
X51433Y10225D1*
X51313Y10258D1*
X51201Y10313D1*
X51101Y10389D1*
X51018Y10482D1*
X50954Y10589D1*
X50911Y10706D1*
X50891Y10829D1*
X50894Y10954D1*
X50921Y11076D1*
X50971Y11190D1*
X51041Y11293D1*
X51129Y11382D1*
X51233Y11451D1*
X51347Y11500D1*
X51469Y11527D1*
X51594Y11530D1*
X51717Y11510D1*
X51834Y11466D1*
X51941Y11402D1*
X52034Y11318D1*
X52109Y11218D1*
X52164Y11106D1*
X52197Y10986D1*
X52206Y10848D1*
X7087Y16306D2*
X7068Y16157D1*
X7019Y16016D1*
X6944Y15886D1*
X6844Y15774D1*
X6725Y15684D1*
X6590Y15619D1*
X6444Y15582D1*
X6295Y15575D1*
X6147Y15596D1*
X6006Y15647D1*
X5878Y15724D1*
X5767Y15825D1*
X5679Y15946D1*
X5616Y16082D1*
X5581Y16228D1*
X5575Y16377D1*
X5599Y16525D1*
X5652Y16665D1*
X5731Y16793D1*
X5833Y16902D1*
X5956Y16988D1*
X6092Y17049D1*
X6238Y17082D1*
X6388Y17086D1*
X6536Y17059D1*
X6675Y17005D1*
X6801Y16924D1*
X6909Y16820D1*
X6994Y16696D1*
X7053Y16559D1*
X7083Y16412D1*
X7087Y16306D1*
X7077Y14206D2*
X7047Y14085D1*
X6997Y13971D1*
X6929Y13866D1*
X6844Y13774D1*
X6746Y13698D1*
X6636Y13638D1*
X6518Y13597D1*
X6395Y13576D1*
X6270D1*
X6147Y13596D1*
X6029Y13637D1*
X5919Y13696D1*
X5820Y13772D1*
X5735Y13864D1*
X5666Y13968D1*
X5616Y14082D1*
X5585Y14203D1*
X5574Y14327D1*
X5583Y14452D1*
X5613Y14573D1*
X5663Y14688D1*
X5731Y14793D1*
X5815Y14885D1*
X5913Y14962D1*
X6022Y15022D1*
X6140Y15063D1*
X6263Y15085D1*
X6388Y15086D1*
X6511Y15066D1*
X6630Y15026D1*
X6740Y14968D1*
X6839Y14892D1*
X6924Y14800D1*
X6994Y14696D1*
X7045Y14582D1*
X7076Y14462D1*
X7088Y14331D1*
X7077Y14206D1*
X15630Y22863D2*
D18*
Y21547D1*
X14972Y22205D2*
X16288D1*
X36929Y22272D2*
Y20956D1*
X36271Y21614D2*
X37587D1*
X48393Y17947D2*
Y16631D1*
Y17289D2*
X49051D1*
X48189Y15776D2*
Y15236D1*
X48729D1*
X48459Y13067D2*
Y11750D1*
Y12408D2*
X49117D1*
X51548Y11531D2*
Y10215D1*
X50890Y10873D2*
X52206D1*
X54882Y11485D2*
Y10945D1*
X54342D2*
X54882D1*
X11008Y22008D2*
Y21173D1*
X7976Y22008D2*
Y21173D1*
X6331Y17087D2*
Y15574D1*
X5574Y16331D2*
X7087D1*
D28*
X14173Y5787D3*
D29*
X15748Y7717D3*
X10236D3*
D28*
X8661Y5787D3*
X25197D3*
D29*
X26772Y7717D3*
X21260D3*
D28*
X19685Y5787D3*
X36220D3*
D29*
X37795Y7717D3*
X32283D3*
D28*
X30709Y5787D3*
X47244D3*
D29*
X48819Y7717D3*
X43307D3*
D28*
X41732Y5787D3*
D30*
X14252Y22205D3*
X15630D3*
X36929Y20236D3*
Y21614D3*
X22433Y20236D3*
Y18858D3*
X19087Y20197D3*
Y18819D3*
X50197Y19291D3*
X51575D3*
X47401Y18246D3*
X48393Y17289D3*
D34*
X48189Y14449D3*
D35*
Y15236D3*
D30*
X47502Y11417D3*
X48459Y12408D3*
X50591Y9882D3*
X51548Y10873D3*
D34*
X54882Y10157D3*
D35*
Y10945D3*
D39*
X46181Y9094D3*
X47181D3*
X48181D3*
X33661Y5748D3*
X5630Y5000D3*
X55315D3*
D40*
X52181Y22638D3*
X51181D3*
X50181D3*
X49181D3*
X48181D3*
X47181D3*
X46181D3*
X45181D3*
X44181D3*
X43197D3*
X42173D3*
X41150D3*
X40165D3*
X39181D3*
X11992Y22008D3*
X11008D3*
X9984D3*
X8961D3*
X7976D3*
X6992D3*
D54*
X14331Y19331D3*
Y15331D3*
Y11331D3*
X6331Y16331D3*
Y14331D3*
D23*
X52287Y7579D3*
X53287D3*
X54287D3*
X52287Y6547D3*
X54287D3*
M02*
