M48
INCH
T01C0.02
T02C0.0236
T03C0.0315
T04C0.0354
T05C0.0394
T06C0.0433
%
T01
X+051594Y+015548
X+051969Y+015548
X+051969Y+014861
X+051594Y+014861
X+051594Y+014173
X+051969Y+014173
X+052969Y+014173
X+052969Y+014548
X+052969Y+015173
X+052969Y+015548
T02
X+053701Y+023110
X+054134Y+022559
X+055551Y+023110
X+051181Y+022992
X+051181Y+022638
X+051181Y+022283
X+050197Y+022283
X+050197Y+022638
X+050197Y+022992
X+049173Y+022992
X+049173Y+022638
X+049173Y+022283
X+048189Y+022283
X+048189Y+022638
X+048189Y+022992
X+045039Y+020472
X+044488Y+020354
X+043898Y+020354
X+043268Y+020354
X+043701Y+021693
X+042323Y+021457
X+041181Y+021654
X+040591Y+021614
X+039685Y+021811
X+040276Y+014488
X+041378Y+014291
X+041850Y+014291
X+042480Y+014291
X+042953Y+014291
X+043701Y+014488
X+045512Y+010748
X+041929Y+009370
X+041457Y+009370
X+040827Y+009370
X+040354Y+009370
X+038701Y+010669
X+038228Y+010669
X+038189Y+012559
X+036142Y+014488
X+035394Y+014291
X+034921Y+014291
X+034291Y+014291
X+033819Y+014291
X+032717Y+014488
X+030669Y+012559
X+030669Y+010669
X+031142Y+010669
X+032795Y+009370
X+033268Y+009370
X+033898Y+009370
X+034370Y+009370
X+026811Y+009370
X+026339Y+009370
X+025709Y+009370
X+025236Y+009370
X+023543Y+010669
X+023071Y+010669
X+023110Y+012559
X+025157Y+014488
X+026260Y+014291
X+026732Y+014291
X+027362Y+014291
X+027835Y+014291
X+028583Y+014488
X+028602Y+019307
X+028602Y+020095
X+028602Y+020882
X+028602Y+021669
X+028602Y+022457
X+027618Y+022457
X+027618Y+021669
X+027618Y+020882
X+027618Y+020095
X+027618Y+019307
X+029587Y+019307
X+029587Y+020095
X+029587Y+020882
X+029587Y+021669
X+029587Y+022457
X+030571Y+022457
X+030571Y+021669
X+030571Y+020882
X+030571Y+020095
X+030571Y+019307
X+021024Y+014488
X+020276Y+014291
X+019803Y+014291
X+019173Y+014291
X+018701Y+014291
X+017598Y+014488
X+016063Y+010630
X+015630Y+010630
X+017677Y+009331
X+018150Y+009331
X+018780Y+009331
X+019252Y+009331
X+012008Y+021654
X+012008Y+021969
X+012008Y+022323
X+011024Y+022362
X+011024Y+022008
X+011024Y+021654
X+010000Y+021654
X+010000Y+022008
X+010000Y+022362
X+009016Y+022362
X+009016Y+022008
X+009016Y+021654
X+007992Y+021654
X+007992Y+022008
X+007992Y+022362
X+007008Y+022362
X+007008Y+022008
X+007008Y+021654
X+053780Y+016299
X+053287Y+007579
X+052287Y+007579
X+054287Y+007579
T03
X+048189Y+014449
X+048189Y+015236
X+054882Y+010945
X+054882Y+010157
X+054287Y+006547
X+052287Y+006547
T04
X+015886Y+007717G85X+015610Y+007717
X+010374Y+007717G85X+010098Y+007717
X+005630Y+005000
X+021398Y+007717G85X+021122Y+007717
X+026909Y+007717G85X+026634Y+007717
X+032421Y+007717G85X+032146Y+007717
X+033661Y+005748
X+037933Y+007717G85X+037657Y+007717
X+043445Y+007717G85X+043169Y+007717
X+046181Y+009094
X+047181Y+009094
X+048181Y+009094
X+048957Y+007717G85X+048681Y+007717
X+050591Y+009882
X+051548Y+010873
X+048459Y+012408
X+047502Y+011417
X+048393Y+017289
X+047401Y+018246
X+050197Y+019291
X+051575Y+019291
X+036929Y+020236
X+036929Y+021614
X+022433Y+020236
X+022433Y+018858
X+019087Y+018819
X+019087Y+020197
X+015630Y+022205
X+014252Y+022205
X+055315Y+005000
T05
X+014331Y+019331
X+014331Y+015331
X+014331Y+011331
X+006331Y+014331
X+006331Y+016331
T06
X+014350Y+005787G85X+013996Y+005787
X+008839Y+005787G85X+008484Y+005787
X+019862Y+005787G85X+019508Y+005787
X+025374Y+005787G85X+025020Y+005787
X+030886Y+005787G85X+030531Y+005787
X+036398Y+005787G85X+036043Y+005787
X+041909Y+005787G85X+041555Y+005787
X+047421Y+005787G85X+047067Y+005787
T00
M30
