G04 DipTrace 4.1.2.0*
G04 1_Layer_Top.gbr*
%MOIN*%
G04 #@! TF.FileFunction,Copper,L1,Top*
G04 #@! TF.Part,Single*
%AMOUTLINE0*
4,1,4,
0.03937,0.011811,
0.03937,-0.011811,
-0.03937,-0.011811,
-0.03937,0.011811,
0.03937,0.011811,
0*%
%AMOUTLINE3*
4,1,4,
-0.031497,-0.005906,
-0.031497,0.005906,
0.031497,0.005906,
0.031497,-0.005906,
-0.031497,-0.005906,
0*%
%AMOUTLINE6*
4,1,4,
-0.005906,0.031497,
0.005906,0.031497,
0.005906,-0.031497,
-0.005906,-0.031497,
-0.005906,0.031497,
0*%
%AMOUTLINE9*
4,1,4,
-0.004921,0.021654,
0.004921,0.021654,
0.004921,-0.021654,
-0.004921,-0.021654,
-0.004921,0.021654,
0*%
%AMOUTLINE12*
4,1,4,
-0.021654,-0.004921,
-0.021654,0.004921,
0.021654,0.004921,
0.021654,-0.004921,
-0.021654,-0.004921,
0*%
%AMOUTLINE15*
4,1,4,
-0.104331,-0.104331,
-0.104331,0.104331,
0.104331,0.104331,
0.104331,-0.104331,
-0.104331,-0.104331,
0*%
%AMOUTLINE18*
4,1,4,
0.011811,-0.03937,
-0.011811,-0.03937,
-0.011811,0.03937,
0.011811,0.03937,
0.011811,-0.03937,
0*%
%AMOUTLINE21*
4,1,10,
0.019685,-0.100394,
0.019685,-0.033465,
0.043307,-0.009843,
0.043307,0.076772,
0.019685,0.100394,
-0.019685,0.100394,
-0.043307,0.076772,
-0.043307,-0.009843,
-0.019685,-0.033465,
-0.019685,-0.100394,
0.019685,-0.100394,
0*%
%AMOUTLINE24*
4,1,4,
0.037402,-0.047244,
-0.037402,-0.047244,
-0.037402,0.047244,
0.037402,0.047244,
0.037402,-0.047244,
0*%
G04 #@! TA.AperFunction,Conductor*
%ADD10C,0.009843*%
G04 #@! TA.AperFunction,CopperBalancing*
%ADD16C,0.012992*%
G04 #@! TA.AperFunction,Conductor*
%ADD17C,0.023622*%
%ADD18C,0.007874*%
G04 #@! TA.AperFunction,ViaPad*
%ADD19C,0.03937*%
G04 #@! TA.AperFunction,Conductor*
%ADD20C,0.027559*%
%ADD21C,0.031496*%
%ADD22C,0.011811*%
%ADD23C,0.007087*%
G04 #@! TA.AperFunction,CopperBalancing*
%ADD24C,0.015748*%
%ADD25C,0.019685*%
G04 #@! TA.AperFunction,Conductor*
%ADD27C,0.021654*%
%ADD28C,0.055118*%
%ADD29C,0.047244*%
%ADD30C,0.035433*%
%ADD31C,0.01378*%
%ADD33C,0.059055*%
G04 #@! TA.AperFunction,Conductor*
%ADD34C,0.051181*%
%ADD35C,0.013386*%
%ADD36C,0.006693*%
G04 #@! TA.AperFunction,CopperBalancing*
%ADD37C,0.025*%
%ADD41R,0.04X0.035*%
%ADD42R,0.035X0.04*%
%ADD43R,0.059055X0.03937*%
%ADD44R,0.070866X0.062992*%
%ADD45R,0.03937X0.059055*%
G04 #@! TA.AperFunction,ComponentPad*
%ADD46C,0.059055*%
%ADD47R,0.106299X0.062992*%
%ADD48R,0.055118X0.070866*%
%ADD49R,0.062992X0.106299*%
%ADD50R,0.055118X0.133858*%
G04 #@! TA.AperFunction,ComponentPad*
%ADD51C,0.062992*%
%ADD52C,0.129921*%
%ADD53R,0.11811X0.15748*%
%ADD54C,0.051181*%
%ADD56C,0.043307*%
%ADD57R,0.059055X0.114173*%
%ADD58R,0.025591X0.041339*%
%ADD59R,0.03937X0.082677*%
%ADD60R,0.218504X0.222441*%
%ADD61R,0.041339X0.025591*%
%ADD62R,0.07874X0.023622*%
%ADD63R,0.07874X0.051181*%
G04 #@! TA.AperFunction,ComponentPad*
%ADD64C,0.047244*%
%ADD65O,0.066929X0.106299*%
%ADD66C,0.055118*%
%ADD67R,0.11811X0.023622*%
%ADD68R,0.070866X0.014961*%
%ADD69R,0.023622X0.11811*%
%ADD70O,0.033465X0.011811*%
%ADD71O,0.011811X0.033465*%
%ADD72R,0.220472X0.220472*%
%ADD74R,0.082677X0.125984*%
G04 #@! TA.AperFunction,ComponentPad*
%ADD75O,0.074803X0.086614*%
%ADD76O,0.070866X0.086614*%
%ADD77R,0.094488X0.074803*%
%ADD78R,0.074803X0.094488*%
%ADD79R,0.055118X0.045276*%
%ADD80R,0.045276X0.055118*%
G04 #@! TA.AperFunction,ViaPad*
%ADD81C,0.04*%
%ADD166OUTLINE0*%
%ADD169OUTLINE3*%
%ADD172OUTLINE6*%
%ADD175OUTLINE9*%
%ADD178OUTLINE12*%
%ADD181OUTLINE15*%
%ADD184OUTLINE18*%
%ADD187OUTLINE21*%
%ADD190OUTLINE24*%
%FSLAX26Y26*%
G04*
G70*
G90*
G75*
G01*
G04 Top*
%LPD*%
X4625984Y1244094D2*
D10*
X4654134D1*
D16*
X4688976D1*
X4702756Y1257874D1*
X4740157D1*
D17*
X4807087D1*
X4874016D1*
X4822835Y1456693D2*
D18*
X4866142D1*
X4822835Y1413386D2*
X4866142D1*
Y1456693D1*
Y1413386D2*
D19*
X4923917D1*
X4932283Y1405020D1*
X4657480Y1503937D2*
D20*
X4775591D1*
X4822835Y1456693D1*
X4665354Y1442913D2*
D17*
Y1496063D1*
X4657480Y1503937D1*
X4932283Y1405020D2*
Y1286614D1*
X4903543Y1257874D1*
X4874016D1*
X4096457Y803150D2*
Y870079D1*
Y937008D1*
Y803150D2*
D21*
Y751969D1*
X4098425D1*
D19*
X4059055D1*
X4220472Y948819D2*
D22*
X4181102D1*
X4169291Y937008D1*
X4096457D1*
X4124016Y1354331D2*
D17*
Y1421260D1*
Y1484252D1*
X4125984Y1614173D1*
G02X4153543Y1641732I27560J-1D01*
G01*
X4173228D1*
X4124016Y1354331D2*
D16*
X4145669Y1342520D1*
G02X4169291Y1318898I0J-23622D01*
G01*
Y1267126D1*
G03X4192323Y1244094I23030J-1D01*
G01*
D10*
X4220472D1*
X4173228Y1641732D2*
D19*
X4216535D1*
X4728346Y797244D2*
D17*
X4661417D1*
X4594488D1*
X4570866Y893701D2*
D10*
Y861614D1*
D16*
Y852362D1*
X4594488Y828740D1*
Y797244D1*
X4783465Y777559D2*
D19*
Y816929D1*
D21*
Y797244D1*
X4728346D1*
X4314961Y893701D2*
D18*
Y748031D1*
G02X4271654Y704724I-43305J-2D01*
G01*
X3894488D1*
G03X3674016Y484252I0J-220472D01*
G01*
X4374016Y893701D2*
Y759843D1*
G02X4271654Y657480I-102364J1D01*
G01*
X4023228D1*
G03X3824409Y458661I-1J-198817D01*
G01*
Y401575D1*
X4472441Y893701D2*
Y779528D1*
G02X4271654Y578740I-200789J2D01*
G01*
X4170079D1*
G03X4075591Y484252I-1J-94487D01*
G01*
X4531496Y893701D2*
Y791339D1*
G02X4271654Y531496I-259843J1D01*
G01*
X4267717D1*
G03X4241412Y523496I3J-47256D01*
G01*
G03X4220472Y484252I26306J-39245D01*
G01*
Y405512D1*
X4224409Y401575D1*
X4228346Y507874D2*
Y510430D1*
X4241412Y523496D1*
X2927163Y414173D2*
Y440948D1*
X2885827Y482283D1*
X2897638D1*
X4625984Y1185039D2*
X4763780D1*
G02X4944882Y1003937I1J-181101D01*
G01*
Y845669D1*
G03X5040551Y750000I94836J-833D01*
G01*
X4783465Y675197D2*
Y671260D1*
X4753937Y641732D1*
X4673228D1*
X4661417Y629921D1*
Y547244D1*
X4651575Y537402D1*
X4618110D1*
X4220472Y1125984D2*
D10*
X4003937D1*
G03X3870079Y992126I0J-133858D01*
G01*
Y996063D1*
X3535433Y868110D2*
D18*
G02X3561024Y893701I25589J2D01*
G01*
X3779528D1*
G03X3870079Y984252I-2J90553D01*
G01*
Y992126D1*
X4220472Y988189D2*
X4169291D1*
X4153543Y972441D1*
X2645669Y1185039D2*
X2683071D1*
X2730315Y1137795D1*
X2740157D1*
X4334646Y893701D2*
Y751969D1*
G02X4271654Y688976I-62993J1D01*
G01*
X3954724D1*
G03X3724409Y458661I1J-230316D01*
G01*
Y401575D1*
X4393701Y893701D2*
Y763780D1*
G02X4271654Y641732I-122047J0D01*
G01*
X4032283D1*
G03X3874803Y484252I-1J-157479D01*
G01*
X4492126Y893701D2*
Y783465D1*
G02X4271654Y562992I-220472J0D01*
G01*
X4224409D1*
G03X4122047Y460630I1J-102364D01*
G01*
Y388189D1*
G03X4124409Y401575I13345J4546D01*
G01*
X4276378Y488189D2*
X4275591Y496063D1*
G02X4291339Y511811I15749J-1D01*
G01*
G03X4551181Y755906I-20330J281992D01*
G01*
Y893701D1*
X2887793Y414173D2*
Y433073D1*
X2852362Y468504D1*
Y478346D1*
X2848425Y482283D1*
X4625984Y1224409D2*
X4763780D1*
G02X4984252Y1003937I0J-220472D01*
G01*
Y906299D1*
G03X5040551Y850000I55465J-834D01*
G01*
X2625984Y850394D2*
D16*
Y816929D1*
X2647638Y795276D1*
X2700787D1*
X2196850Y1145669D2*
D22*
X2244094D1*
X2273622Y1175197D1*
Y1216535D1*
X2279528Y1222441D1*
X2273622D1*
X4043307Y1210315D2*
D10*
X4018031Y1185039D1*
X3891732D1*
X3728346D1*
Y1210945D1*
D16*
Y1185039D1*
X3702756Y1159449D1*
X2984252Y604646D2*
D18*
X2996063D1*
Y753937D1*
X3017717Y775591D1*
X3061024Y1425197D2*
D24*
Y1454724D1*
X3226378Y1620079D1*
X3309370D1*
X3306890Y629921D2*
D16*
Y559449D1*
G03X3316614Y551181I8177J-235D01*
G01*
X3317244Y488189D2*
Y550551D1*
X3316614Y551181D1*
X3306890Y629921D2*
Y686811D1*
X3328740Y708661D1*
X3724409D1*
X3757874Y742126D1*
X2719685Y246063D2*
D10*
X2828740D1*
X2858268Y275591D1*
X2769682Y414173D2*
Y364176D1*
X2858268Y275591D1*
X2996850Y364173D2*
X2946850D1*
X2858268Y275591D1*
X2946848Y137008D2*
Y187010D1*
X2858268Y275591D1*
X437008Y1535433D2*
D16*
X425197D1*
Y1523622D1*
Y1318898D1*
X452756Y1291339D1*
Y1254252D1*
X425197Y1523622D2*
X437008Y1535433D1*
X2480315Y1879331D2*
D24*
X2549803D1*
X2582677Y1846457D1*
Y1834646D1*
X4492126Y1299213D2*
D10*
Y1267717D1*
X4480315Y1255906D1*
Y1204724D1*
D16*
X4492126D1*
Y1167008D1*
X4421575Y1096457D1*
X4423228D1*
X4492126Y1167008D2*
Y1141732D1*
G03X4507874Y1125984I15749J1D01*
G01*
X4220472Y929134D2*
D10*
X4255906D1*
Y893701D1*
Y929134D2*
D24*
X4279088Y952316D1*
X4302710D1*
X4346457Y996063D1*
Y1035433D1*
X4423228Y1096457D1*
X4220472Y929134D2*
D22*
X4190945D1*
X4159449Y897638D1*
Y858268D2*
D24*
Y830709D1*
X4187008Y803150D1*
X3476378Y1210945D2*
D16*
Y1175197D1*
X3512795Y1138780D1*
X3539370Y1165354D1*
Y1210945D1*
X3515748Y1161417D2*
X3523622D1*
X3539370Y1177165D1*
Y1210945D1*
X3523622Y1362205D2*
X3570866D1*
X3594488Y1385827D1*
X3669291Y1425197D2*
D19*
X3708661D1*
X3818898Y1362205D2*
D24*
X3771654D1*
X3708661Y1425197D1*
X4019685Y1372047D2*
D16*
Y1354331D1*
X3982598D1*
X4019685Y1372047D2*
Y1358268D1*
X4057087D1*
Y1354331D1*
Y1421260D2*
D24*
X4020942D1*
Y1373304D1*
X4019685Y1372047D1*
X3982598Y1696850D2*
X4015748D1*
X4070866Y1641732D1*
X3982598Y1633858D2*
X4062992D1*
X4070866Y1641732D1*
X4003937Y1559055D2*
X4043307D1*
X4070866Y1586614D1*
Y1641732D1*
X4236220Y1743307D2*
D10*
X4294488Y1685039D1*
X4334646D1*
X4364173Y1655512D1*
Y1562992D1*
Y1517717D1*
X4377953Y1503937D1*
X4393781D1*
X4401575D1*
X4452756D1*
X4464567D1*
X4511811D1*
Y1641732D1*
X4539370Y1669291D1*
X4574803D1*
X4598425Y1645669D1*
Y1633858D1*
X4606299D1*
Y1590551D1*
Y1442913D1*
X4602362D1*
X4515748D2*
D18*
Y1500000D1*
X4511811Y1503937D1*
X4401575Y1564961D2*
Y1503937D1*
X4464567Y1564961D2*
Y1503937D1*
X4192913Y1442913D2*
D22*
Y1535433D1*
X4220472Y1562992D1*
X4364173D1*
X4389764Y1442913D2*
D18*
Y1499920D1*
X4393781Y1503937D1*
X4657480Y1590551D2*
X4606299D1*
X4452756Y1442913D2*
Y1503937D1*
X4728346Y730315D2*
D16*
Y683071D1*
X4661417Y730315D2*
Y683071D1*
X4594488Y730315D2*
Y683071D1*
X4625984Y1263780D2*
D10*
X4590551D1*
Y1299213D1*
Y1263780D2*
D16*
X4423228Y1096457D1*
X4625984Y929134D2*
D10*
X4590551D1*
Y893701D1*
X4653543Y866142D2*
D24*
X4728346D1*
Y864173D1*
X4590551Y929134D2*
D18*
X4625984Y893701D1*
Y1263780D2*
D10*
X4657480D1*
X4685039Y1291339D1*
X4740157Y1324803D2*
D24*
X4718504D1*
X4685039Y1291339D1*
X4740157Y1324803D2*
X4807087D1*
X4842520D1*
X4874016D1*
X4842520Y1366142D2*
Y1324803D1*
X4425197Y401575D2*
D16*
X4424409D1*
X4220472Y1145669D2*
D10*
X4248622D1*
D16*
X4314961D1*
X4346457Y1114173D1*
X4338583Y1125984D1*
X4314961Y1145669D2*
X4318898D1*
G02X4338583Y1125984I2J-19683D01*
G01*
X4334646Y1299213D2*
D10*
Y1265748D1*
D16*
X4322835Y1253937D1*
Y1185039D1*
X4334646D1*
Y1125984D1*
X4346457Y1114173D1*
X4322835Y1185039D2*
G02X4338583Y1181102I-2859J-44900D01*
G01*
X4115354Y1729528D2*
Y1658661D1*
X4102362Y1645669D1*
X4074803D1*
X4070866Y1641732D1*
X4115354Y1729528D2*
D24*
X4023622D1*
Y1688976D1*
X4070866Y1641732D1*
X4115354Y1729528D2*
X4222441D1*
X4236220Y1743307D1*
X4057087Y1484252D2*
X4020942D1*
Y1421260D1*
Y1484252D2*
Y1505194D1*
X4043307Y1527559D1*
Y1559055D1*
X4632677Y1729528D2*
D16*
Y1633858D1*
X4606299D1*
X4632677Y1729528D2*
Y1953150D1*
X4159449Y858268D2*
D19*
Y897638D1*
X4653543Y866142D2*
X4625984Y893701D1*
D24*
X4507874Y1011811D1*
X3594488Y1385827D2*
D19*
Y1425197D1*
X4115354Y1953150D2*
D16*
X4208661D1*
Y1937008D1*
G02X4137795Y1866142I-70865J-1D01*
G01*
X4098425D1*
G02X4011811Y1952756I0J86614D01*
G01*
X4114961D1*
X4115239Y1952871D1*
X4115354Y1953150D1*
X4236220Y1743307D2*
Y1688976D1*
X4159843Y1685039D1*
G02X4115354Y1729528I0J44488D01*
G01*
X5019685Y1685039D2*
X5015748Y1653543D1*
G03X5015748Y1637795I-3261J-7874D01*
G01*
X2222441Y801181D2*
D10*
X2171575D1*
Y787402D1*
X2049213Y399606D2*
D16*
X2007874D1*
Y533465D1*
Y543307D1*
Y653543D1*
X2021654Y667323D1*
X2049213D1*
Y533465D2*
X2007874D1*
Y399606D2*
X2006175D1*
Y375715D1*
X2015748Y366142D1*
X1992126Y543307D2*
X2007874D1*
X1901575Y275591D2*
Y230000D1*
X1897638D1*
X192913Y1053937D2*
X190919D1*
X515748Y1539370D2*
D18*
D3*
X673228Y1543307D2*
D3*
X385827Y514094D2*
D16*
Y453937D1*
Y437008D1*
X405512D1*
Y419291D1*
X517717D1*
Y442913D1*
X608268Y533465D1*
X649606D1*
Y622047D1*
X675442Y620371D2*
X625437D1*
X649606Y622047D2*
Y646207D1*
X625437Y670377D1*
X405512Y299213D2*
Y334646D1*
X704724D2*
X705512D1*
X405512Y370079D2*
D28*
Y419291D1*
X192913Y453937D2*
D29*
X305118D1*
X385827D1*
X1031496Y1879921D2*
D22*
Y1834646D1*
X968504D1*
X905512D1*
X874016D1*
D30*
X838583Y1870079D1*
Y2025591D1*
Y2173228D1*
X1342520D1*
Y2118110D1*
D18*
X1338583D1*
Y2181102D1*
X1346457Y2173228D1*
D30*
X1342520D1*
X2212598Y271654D2*
D16*
Y230000D1*
X2086614Y275591D2*
Y230000D1*
X1710630Y399606D2*
D17*
X1690945D1*
X1669291Y421260D1*
Y533465D1*
Y667323D1*
Y801181D1*
Y935039D1*
Y1066929D1*
X1633858Y1102362D1*
Y1149606D1*
D30*
Y1244094D1*
Y1338583D1*
Y1433071D1*
Y1527743D1*
Y1621997D1*
D17*
X1692913D1*
X1633858Y1527743D2*
D16*
X1692680D1*
X1692913Y1527509D1*
Y1433021D2*
X1633858Y1433071D1*
X1692913Y1338533D2*
X1633858Y1338583D1*
X1692913Y1244045D2*
X1633858Y1244094D1*
X1692913Y1149556D2*
X1633858Y1149606D1*
X1710630Y1068898D2*
X1660810D1*
X1633858Y1102362D1*
X1710630Y935039D2*
X1669291D1*
X1710630Y801181D2*
X1669291D1*
X1710630Y667323D2*
X1669291D1*
X1710630Y533465D2*
X1669291D1*
X1633858Y1527743D2*
D30*
Y1527559D1*
D19*
Y1625984D1*
X1637795D1*
X1710630Y1068898D2*
D18*
X1767402D1*
G02X1771654Y1064646I0J-4252D01*
G01*
X1710630Y935039D2*
X1767402D1*
G02X1771654Y930787I0J-4252D01*
G01*
X1710630Y667323D2*
X1767402D1*
G02X1771654Y663071I0J-4252D01*
G01*
X1710630Y801181D2*
X1767402D1*
G02X1771654Y796929I0J-4252D01*
G01*
X1710630Y533465D2*
X1767402D1*
G02X1771654Y529213I0J-4252D01*
G01*
X1710630Y399606D2*
X1763465D1*
G02X1771654Y391417I-2J-8191D01*
G01*
X3980315Y759843D2*
D19*
Y803150D1*
D16*
Y830709D1*
Y870860D1*
Y921260D1*
X3996063Y937008D1*
X4029528D1*
X3980315Y870860D2*
X4028747D1*
X4029528Y870079D1*
X3980315Y803150D2*
X4029528D1*
X375984Y1887795D2*
D24*
X435039Y1946850D1*
D16*
Y2049213D1*
X468504Y2082677D1*
X657480D1*
Y2179134D1*
X688976Y2210630D1*
X838583D1*
Y2173228D1*
X905512Y1879921D2*
D22*
Y1834646D1*
X968504Y1879921D2*
Y1834646D1*
X1879921Y1529528D2*
D16*
X1921260D1*
X3223622Y1795276D2*
Y1881890D1*
Y1908661D1*
X3236220Y1921260D1*
X3273622D1*
X3309370D1*
Y1858268D2*
D18*
X3255906D1*
Y1881890D1*
X3223622D1*
X3309370Y1795276D2*
X3255906D1*
Y1858268D1*
Y1795276D2*
Y1732283D1*
X3309370D1*
X3062992Y1657480D2*
X3131890D1*
X3427165Y1055118D2*
D22*
X3419291D1*
Y998346D1*
X3417323D1*
X3427165Y1055118D2*
X3356299D1*
X3348425Y1047244D1*
Y1019685D1*
X3346457D1*
X4724409Y366142D2*
D18*
Y401575D1*
X1106299Y1584646D2*
D16*
Y1539370D1*
X1177165D1*
X1185039Y1547244D1*
Y1586614D1*
X1149606Y1539370D2*
X1181102D1*
X1187008Y1551181D1*
X1185039Y1586614D1*
X1149606Y1539370D2*
X1122047D1*
G02X1106299Y1555118I1J15749D01*
G01*
Y1584646D1*
X1149606Y1539370D2*
D24*
X1080709D1*
X1066929Y1553150D1*
Y1629921D1*
X862205Y1834646D1*
X874016D1*
X3223622Y1795276D2*
D16*
Y1734597D1*
Y1727559D1*
X3082677Y1586614D1*
X3062992D1*
Y1657480D1*
X2582677Y1834646D2*
Y1836614D1*
X2610236Y1809055D1*
Y1718819D1*
X2547244Y1651890D2*
D10*
Y1655827D1*
X2610236Y1718819D1*
X1598425Y1879921D2*
X1600394Y1897638D1*
G02X1618110Y1915354I17716J0D01*
G01*
X1651575D1*
G03X1663386Y1927165I0J11811D01*
G01*
X1661417Y1946535D1*
D16*
X1663386Y1974409D1*
G02X1702756Y2013780I39371J-1D01*
G01*
G03X1738189Y2051181I-662J36112D01*
G01*
X1737102Y2117810D1*
X2057087Y1860236D2*
Y1844488D1*
G03X2082677Y1818898I25589J-2D01*
G01*
X2153543D1*
G02X2153543Y1818898I696J-288D01*
G01*
X2181102Y1879921D2*
X2183071Y1848425D1*
G02X2153543Y1818898I-29527J0D01*
G01*
X1921260Y1946535D2*
D10*
X1923228Y1938976D1*
G03X1944882Y1917323I21655J1D01*
G01*
X1990157D1*
G02X2019685Y1887795I0J-29527D01*
G01*
Y1881890D1*
G03X2039370Y1862205I19683J-2D01*
G01*
X2057087Y1860236D1*
X3427165Y1055118D2*
D16*
X3468504D1*
X3492126D1*
X3679134D1*
X3492126D2*
X3545276D1*
Y998346D1*
X3543307D1*
X3757874Y742126D2*
X3812992Y736220D1*
G03X3858268Y781496I-1J45276D01*
G01*
Y785433D1*
G02X3903543Y830709I45276J-1D01*
G01*
X3980315D1*
X385827Y1057402D2*
Y995328D1*
X382625Y992126D1*
X417323D1*
X755906Y1094291D2*
X694824D1*
X675442Y1113673D1*
X649606Y1165354D2*
Y1139509D1*
X675442Y1113673D1*
X826772Y1068583D2*
Y1015748D1*
X850394Y992126D1*
X889764Y1069213D2*
Y1031496D1*
X850394Y992126D1*
X889764Y529843D2*
X830709D1*
X785433D1*
Y550984D1*
X755906D1*
X379921Y1724409D2*
Y1755906D1*
D24*
X413386D1*
Y1787402D1*
X375984D1*
D21*
Y1887795D1*
X748031Y1738504D2*
D24*
Y1753937D1*
X724409Y1777559D1*
X665354D1*
X661417D1*
D25*
X562992D1*
X495102D1*
D24*
X485260Y1787402D1*
D31*
X413386D1*
X665354Y1720472D2*
D24*
Y1777559D1*
X307087Y622047D2*
D25*
X305118Y453937D1*
X382625Y992126D2*
X318898D1*
X307087Y1003937D1*
Y1059055D1*
X850394Y929134D2*
D16*
Y992126D1*
X846457Y779528D2*
D25*
X811024D1*
G02X787402Y803150I0J23622D01*
G01*
Y992126D1*
X755906D1*
X850394Y929134D2*
D16*
Y897638D1*
X848425D1*
X307087Y1003937D2*
D25*
X242913D1*
X192913Y1053937D1*
X846457Y1322835D2*
X807087D1*
G02X781496Y1348425I-2J25589D01*
G01*
Y1533465D1*
G02X789370Y1541339I7872J2D01*
G01*
X850394Y1472441D2*
D16*
Y1511811D1*
X826772Y1535433D1*
X795276D1*
X789370Y1541339D1*
X850394Y1472441D2*
Y1442913D1*
X848425Y1440945D1*
X452756Y710945D2*
Y744094D1*
X417323Y779528D1*
Y992126D1*
X1358268Y1812992D2*
D22*
Y1836614D1*
X1238189D1*
X1220472Y1854331D1*
Y1879921D1*
X1283465D2*
D16*
Y1838583D1*
X1346457D1*
X1358268D1*
X1409449D1*
Y1787402D1*
X1464567D1*
X1409449D2*
Y1879921D1*
X1346457D2*
Y1838583D1*
X1358268Y1812992D2*
Y1838583D1*
X1385827Y1734252D2*
Y1787402D1*
X1409449D1*
X1464567Y1736220D2*
Y1787402D1*
X1830709Y1820866D2*
X1816929D1*
G02X1799213Y1838583I0J17716D01*
G01*
X1797244Y1860236D1*
X830709Y529843D2*
D3*
X4220472Y968504D2*
D10*
X4248031D1*
X4271654Y992126D1*
X2903543Y273622D2*
D16*
X2858268D1*
Y275591D1*
X2354331Y537402D2*
D10*
Y468504D1*
X2403543Y419291D1*
Y322835D1*
X2405512Y320866D1*
X2858268Y604016D2*
D16*
Y631890D1*
X2848425Y641732D1*
X2795276D1*
X2732283D1*
X2669291D1*
X2620079D1*
X2606299Y627953D1*
Y604646D1*
X2669291Y604016D2*
Y641732D1*
X2732283Y604016D2*
Y641732D1*
X2795276Y604331D2*
Y641732D1*
X2848425D2*
X2830709Y659449D1*
Y685039D1*
X2868425D1*
X3102362Y1350394D2*
D25*
Y1368110D1*
X3210630Y1476378D1*
X3309370D1*
X2517717Y326772D2*
D18*
Y289370D1*
X3377953Y94488D2*
D25*
Y185039D1*
Y234252D1*
X3334646Y277559D1*
X3273622D1*
Y301181D1*
X3377953Y185039D2*
D18*
D3*
X2549803Y1879331D2*
D24*
Y1956102D1*
X2527559Y1978346D1*
X2423228D1*
X2342520Y2059055D1*
Y2062992D1*
X2287402Y2118110D1*
X2252850D1*
X2691827Y2120079D2*
D18*
Y2118992D1*
X2734252Y2161417D1*
X2826772D1*
X3088583D1*
X3127953Y2122047D1*
Y2139764D1*
X3128835D1*
Y2120079D1*
X3273622Y301181D2*
D16*
Y255906D1*
X2907478Y137008D2*
D18*
Y226381D1*
X2903543Y230315D1*
X2907478Y137008D2*
D10*
Y122047D1*
G02X2891732Y106299I-15745J-3D01*
G01*
X2846457D1*
G03X2830709Y90551I1J-15749D01*
G01*
X2829055Y70866D1*
X2787402Y1108268D2*
D16*
X2789370Y1073031D1*
G03X2787008Y1051181I33214J-14644D01*
G01*
X1885827Y1474724D2*
D18*
Y1523622D1*
X1879921Y1529528D1*
X1948819Y1474724D2*
Y1501969D1*
X1921260Y1529528D1*
X2015748Y1724409D2*
D16*
Y1674409D1*
Y1624409D1*
Y1572835D1*
X1972441Y1529528D1*
X1921260D1*
X1917323Y1574409D2*
D18*
X2015748Y1572835D1*
X1917323Y1624409D2*
X2015748D1*
X1917323Y1674409D2*
X2015748D1*
X1917323Y1724409D2*
X2015748D1*
X2314961Y1879921D2*
Y1830709D1*
X2326772Y1818898D1*
X2314961Y1879921D2*
D16*
Y1830709D1*
X2326772Y1818898D1*
X3891732Y1185039D2*
X3899606Y1192913D1*
X435039Y1946850D2*
X698819D1*
Y2025591D1*
X838583D1*
X2826772Y2120079D2*
D18*
Y2161417D1*
X3273622Y2023622D2*
D16*
Y1960630D1*
X3259843Y1946850D1*
Y1921260D1*
X3273622D1*
Y2023622D2*
X3220472D1*
G03X3196850Y2000000I0J-23622D01*
G01*
Y1822047D1*
G03X3223622Y1795276I26772J0D01*
G01*
X2517717Y289370D2*
Y121732D1*
X2490472Y94488D1*
X2368110D1*
X2332677Y129921D1*
Y161102D1*
X2334646Y163071D1*
X2490472Y94488D2*
X2531811Y53150D1*
X2608268D1*
X2614173Y59055D1*
Y128268D1*
X2649606Y163701D1*
X2842520Y1880236D2*
D23*
X2830709D1*
Y1828740D1*
X2807087Y1805118D1*
X2614173D1*
X2610236Y1809055D1*
X2293307Y1438976D2*
D22*
Y1476969D1*
D16*
Y1488504D1*
X2277874Y1503937D1*
Y1510157D1*
X2312992Y1545276D1*
Y1632205D1*
X2267717D1*
X2336614D1*
D25*
Y1716535D1*
D16*
X2332362D1*
X2673228Y1490472D2*
X2736220D1*
X2765748D1*
Y1488189D1*
X2816929Y1358268D2*
X2777874D1*
X2196850Y1145669D2*
D10*
X2124016D1*
X2112205Y1133858D1*
X2946848Y137008D2*
Y86932D1*
X2962913Y70866D1*
Y44961D1*
X2976378Y31496D1*
X3090551D1*
X3102362Y43307D1*
Y69213D1*
X4220472Y1263780D2*
X4275591D1*
Y1267507D1*
Y1299213D1*
X4322835Y1253937D2*
D16*
X4289160D1*
X4275591Y1267507D1*
X2647638Y795276D2*
Y779528D1*
X2618110D1*
X2568898Y828740D1*
Y842520D1*
X2561024Y850394D1*
X2700787Y795276D2*
Y840551D1*
X2690945Y850394D1*
X3393701Y1173228D2*
Y1210945D1*
X3102362Y1350394D2*
X3064646D1*
X3037402Y1212598D2*
D24*
X3100709D1*
X3102362Y1210945D1*
Y1171260D1*
X3114173Y1159449D1*
Y986220D1*
X3102362Y974409D1*
X5140551Y350000D2*
X5190945Y299606D1*
Y167323D1*
X5179134Y155512D1*
X5141732D1*
X2064961Y927165D2*
D16*
Y968504D1*
Y927165D2*
X2104331D1*
G03X2106299Y929134I2J1967D01*
G01*
X2108268Y988189D2*
D10*
X2106299D1*
X2120079Y1001969D1*
X2131890D1*
X2155512Y1025591D1*
X2205001D1*
X2252301Y978291D1*
Y955636D1*
G03X2266541Y941395I14242J0D01*
G01*
X2279972D1*
G03X2293307Y954730I0J13334D01*
G01*
Y990157D1*
X2108268Y988189D2*
D16*
X2084646D1*
G03X2064961Y968504I-2J-19683D01*
G01*
X2023622Y956693D2*
X2053150D1*
G03X2064961Y968504I0J11811D01*
G01*
X2169291Y1674409D2*
X2307874D1*
X2336614Y1645669D1*
X4724409Y437008D2*
Y476378D1*
X4704724Y496063D1*
Y537402D1*
X4533465Y511811D2*
X4444882D1*
X4425197Y492126D1*
Y437008D1*
X4956693Y433071D2*
X4976378D1*
X5009843Y399606D1*
X5090945D1*
X5140551Y350000D1*
X2326772Y1818898D2*
Y1814961D1*
X2342520Y1799213D1*
Y1726693D1*
X2332362Y1716535D1*
X5011811Y161417D2*
Y124016D1*
D10*
X5017717D1*
X5033465Y108268D1*
X5108268D1*
X5141732Y141732D1*
Y155512D1*
X3062992Y1657480D2*
D16*
Y1688976D1*
X3108613Y1734597D1*
X3223622D1*
X2484252Y1718189D2*
D10*
Y1714882D1*
X2547244Y1651890D1*
X395669Y1826772D2*
D16*
Y1868110D1*
X375984Y1887795D1*
X562992Y1720472D2*
D24*
Y1777559D1*
X1299213Y730906D2*
D17*
X1376378D1*
G03X1405512Y759843I334J28798D01*
G01*
Y1346457D1*
G02X1492126Y1433071I86614J0D01*
G01*
X1559055Y1433021D1*
X1299213Y680906D2*
X1246260D1*
G02X1228346Y698819I0J17913D01*
G01*
Y730906D1*
Y914370D1*
G02X1262795Y948819I34447J2D01*
G01*
X1299213Y730906D2*
X1228346D1*
X5165354Y1706693D2*
D16*
Y1572441D1*
G02X5140551Y1550000I-21913J-708D01*
G01*
X2535560Y2120079D2*
D10*
G03X2578867Y2076772I43305J-2D01*
G01*
X2877953D1*
X2968504Y1986220D1*
Y1947165D1*
X5098425Y1706693D2*
D16*
Y1605512D1*
G02X5040551Y1550000I-54813J-779D01*
G01*
X2905512Y1947165D2*
D10*
Y1986220D1*
X2836614Y2055118D1*
X2515748D1*
G02X2455606Y2111323I-1242J58951D01*
G01*
Y2120079D1*
X3468504Y391732D2*
D18*
X3513780D1*
X3527559Y377953D1*
Y401575D1*
X3524409D1*
X3468504Y391732D2*
Y387795D1*
X3427165Y346457D1*
X3384173D1*
Y350394D1*
X3356299D1*
X3348425Y358268D1*
Y437008D1*
X3362205Y450787D1*
X3433071D1*
X3472441Y490157D1*
Y561024D1*
X3456890Y576575D1*
Y629921D1*
X2809052Y414173D2*
Y454727D1*
X2781496Y482283D1*
X2769685D1*
X2169291Y1624409D2*
Y1627953D1*
X2068898D1*
X2066929Y1625984D1*
X2509843Y990157D2*
Y1035433D1*
X2490157Y1055118D1*
X3525591Y490157D2*
X3501969D1*
X3425197Y413386D1*
X3384173D1*
X3406890Y629921D2*
Y674606D1*
X3417323Y685039D1*
X3498031D1*
X3527559Y655512D1*
Y492126D1*
X3525591Y490157D1*
X2789367Y414173D2*
Y438979D1*
X2779528Y448819D1*
X2751969D1*
X2718504Y482283D1*
X2169291Y1574409D2*
X2090945D1*
X2086614Y1578740D1*
X2529528Y990157D2*
Y1035433D1*
X2549213Y1055118D1*
X4295276Y893701D2*
Y744094D1*
G02X4271654Y720472I-23622J0D01*
G01*
X3886220D1*
G03X3624409Y458661I-1J-261810D01*
G01*
Y401575D1*
X4354331Y893701D2*
Y755906D1*
G02X4271654Y673228I-82676J-1D01*
G01*
X3961417D1*
G03X3772441Y484252I2J-188978D01*
G01*
X4452756Y893701D2*
Y775591D1*
G02X4271654Y594488I-181101J-1D01*
G01*
X4160236D1*
G03X4024409Y458661I-2J-135825D01*
G01*
Y401575D1*
X4511811Y893701D2*
Y787402D1*
G02X4271654Y547244I-240155J-2D01*
G01*
X4237008D1*
G03X4174016Y484252I1J-62993D01*
G01*
X2946848Y414173D2*
Y474409D1*
X2944882D1*
X4625984Y1204724D2*
X4763780D1*
G02X4964567Y1003937I-2J-200789D01*
G01*
Y874016D1*
G03X5039370Y799213I74804J0D01*
G01*
X5091339D1*
G02X5140551Y750000I836J-48377D01*
G01*
X5141732Y68898D2*
D16*
Y80709D1*
X5187008D1*
X4220472Y1066929D2*
D18*
X4003937D1*
G03X3929134Y992126I0J-74804D01*
G01*
Y984252D1*
G02X3779528Y834646I-149607J1D01*
G01*
X3681102D1*
G03X3657480Y811024I0J-23622D01*
G01*
Y759843D1*
G02X3631890Y734252I-25589J-2D01*
G01*
X3423228D1*
Y744094D1*
X4220472Y1047244D2*
D10*
X4019685D1*
G03X3968504Y1000000I124J-51480D01*
G01*
X2834646Y956693D2*
Y970472D1*
X2870079D1*
G03X2885827Y1023622I-27093J36935D01*
G01*
Y1069488D1*
X2887008Y1068307D1*
Y1051181D1*
X2834646Y970472D2*
D18*
X2832677Y972441D1*
X2775591D1*
X2759843Y988189D1*
Y1066929D1*
G03X2720472Y1106299I-39371J-1D01*
G01*
X2645669D1*
X3490157Y769685D2*
Y814961D1*
G02X3511811Y836614I21655J-1D01*
G01*
X3553150D1*
X3590551Y874016D1*
X3779528D1*
G03X3889764Y984252I0J110236D01*
G01*
Y992126D1*
G02X4003937Y1106299I114175J-1D01*
G01*
X4220472D1*
Y1007874D2*
D10*
X4090551D1*
G03X4074803Y992126I1J-15749D01*
G01*
X2687008Y1013780D2*
X2700787Y1011811D1*
G03X2673228Y1043307I-27720J3550D01*
G01*
X2610236D1*
G02X2594488Y1059055I1J15749D01*
G01*
Y1114173D1*
G02X2607677Y1125984I11925J-47D01*
G01*
X2645669D1*
X2787008Y799213D2*
D18*
Y854331D1*
X2759843D1*
X2732283Y881890D1*
Y938976D1*
X2700787Y970472D1*
Y1011811D1*
X4413386Y893701D2*
Y767717D1*
G02X4271654Y625984I-141730J-2D01*
G01*
X4091732D1*
G03X3924409Y458661I1J-167323D01*
G01*
Y401575D1*
X4433071Y893701D2*
Y771654D1*
G02X4271654Y610236I-161418J1D01*
G01*
X4099213D1*
G03X3973228Y484252I1J-125985D01*
G01*
X4220472Y1086614D2*
X4007874D1*
G03X3909449Y996063I-4501J-93876D01*
G01*
Y984252D1*
G02X3779528Y854331I-129919J-2D01*
G01*
X3612205D1*
X3561024Y803150D1*
X3525591D1*
X4220472Y1027559D2*
D10*
X4055118D1*
G03X4023622Y996063I-2J-31494D01*
G01*
X2837008Y799213D2*
X2835337Y780219D1*
Y875293D1*
X2797244Y913386D1*
X2791339D1*
D18*
Y933071D1*
X2740157Y984252D1*
Y1055118D1*
G03X2708661Y1086614I-31494J2D01*
G01*
X2645669D1*
Y1263780D2*
X2687008D1*
X2700787Y1250000D1*
X2724409D1*
X2645669Y1244094D2*
X2685039D1*
X2710630Y1218504D1*
X2744094D1*
X2773622Y1248031D1*
X2273622Y990157D2*
Y1031496D1*
X2360236Y1118110D1*
X2401575D1*
X2419291Y1135827D1*
X2196850Y1066929D2*
X2250000D1*
X2362205Y1179134D1*
X2862205Y1472441D2*
Y1513780D1*
G03X2836614Y1539370I-25589J2D01*
G01*
X2547244D1*
G03X2509843Y1501969I-2J-37400D01*
G01*
Y1438976D1*
X2812992Y1474409D2*
Y1498031D1*
G03X2787402Y1523622I-25589J2D01*
G01*
X2555118D1*
G03X2529528Y1498031I-2J-25589D01*
G01*
Y1438976D1*
X2470472D2*
Y1509843D1*
G02X2539370Y1578740I68898J0D01*
G01*
X2850394D1*
G03X2904724Y1633071I-1J54332D01*
G01*
Y1761024D1*
X3023937Y1880236D1*
X3031496D1*
X2490157Y1438976D2*
Y1505906D1*
G02X2543307Y1559055I53149J1D01*
G01*
X2862205D1*
G03X2938976Y1635827I1J76771D01*
G01*
Y1771654D1*
X3005906Y1838583D1*
X3052835D1*
X3094488Y1880236D1*
X4958661Y55118D2*
D16*
X4968505D1*
X4970474Y57087D1*
X5011811D1*
X5078741D1*
Y68898D1*
X2887008Y799213D2*
X2937008D1*
Y685039D1*
X2935354D1*
X2921260Y604331D2*
Y665354D1*
X2935354Y679449D1*
Y685039D1*
X2984252Y1084646D2*
D18*
Y1102287D1*
G03X2956693Y1127953I-26573J-905D01*
G01*
X2858268D1*
G03X2837008Y1108661I1893J-23447D01*
G01*
Y1051181D1*
X2984252Y1045276D2*
D24*
Y982283D1*
X2937008Y935039D1*
Y799213D1*
X2397638Y775591D2*
D17*
X2356299D1*
X2320866Y740157D1*
X2397638D2*
X2320866D1*
X2397638Y704724D2*
X2356299D1*
X2320866Y740157D1*
X3291339Y185039D2*
D21*
X3216535D1*
X3200787Y169291D1*
X503937Y334646D2*
D18*
X505512D1*
X385827Y710945D2*
D16*
X377953D1*
Y818898D1*
X326772Y870079D1*
X192913Y853937D2*
D18*
Y953937D1*
Y853937D2*
X310630D1*
X326772Y870079D1*
X307087Y708661D2*
D25*
Y850394D1*
X326772Y870079D1*
X2669291Y482283D2*
D22*
Y537087D1*
X5019685Y1771654D2*
D19*
X4923720D1*
X4842520Y1690453D1*
X5060236Y1950787D2*
D16*
Y1798425D1*
X5033465Y1771654D1*
X5019685D1*
X4515748Y1389764D2*
Y1375984D1*
X4625984Y437008D2*
Y403150D1*
X4624409Y401575D1*
X4728346Y931102D2*
D21*
X4783465D1*
Y933071D1*
Y893701D2*
D19*
Y933071D1*
X4625984Y948819D2*
D10*
X4654134D1*
D16*
X4677165D1*
X4694882Y931102D1*
X4728346D1*
X4326772Y1442913D2*
Y1503937D1*
X4328740D1*
X4326772Y1442913D2*
D22*
Y1425197D1*
G02X4311024Y1409449I-15749J1D01*
G01*
X4208661D1*
G03X4192913Y1393701I1J-15749D01*
G01*
Y1375984D1*
X4255906Y1299213D2*
D10*
Y1326772D1*
D16*
G03X4244094Y1338583I-11811J0D01*
G01*
X4204724D1*
G02X4192913Y1350394I0J11811D01*
G01*
Y1375984D1*
X4169291Y1374016D1*
G02X4157480Y1385827I0J11811D01*
G01*
Y1574803D1*
G02X4185039Y1602362I27560J-1D01*
G01*
X4255906D1*
G03X4271654Y1618110I-1J15749D01*
G01*
Y1641732D1*
D19*
X4314961D1*
X4570866Y1299213D2*
D10*
Y1326772D1*
X4590551Y1346457D1*
Y1375984D1*
X4602362D1*
X4637795Y1307087D2*
D16*
Y1340551D1*
X4602362Y1375984D1*
X4275591Y893701D2*
D10*
Y861614D1*
D16*
Y854331D1*
X4253937Y832677D1*
Y803150D1*
D21*
Y751969D1*
X4255906D1*
D19*
X4216535D1*
X4921260Y1759843D2*
D18*
X4911909D1*
X4842520Y1690453D1*
X3346457Y933071D2*
X3357154Y940945D1*
X3417323Y931417D2*
D16*
X3406890D1*
Y842520D1*
X3417323Y931417D2*
X3348110D1*
X3346457Y933071D1*
X3417323Y931417D2*
D10*
Y954724D1*
X3427165Y964567D1*
X3480315D1*
X3604331D1*
X3633858Y994094D1*
X3480315Y998346D2*
Y964567D1*
X2669291Y482283D2*
Y454724D1*
X2709843Y414173D1*
X2749997D1*
X2996850Y383858D2*
Y522835D1*
X2984252Y535433D1*
Y537717D1*
Y553150D2*
X2972441D1*
Y537717D1*
X2984252D1*
X3074803Y498031D2*
D16*
Y539370D1*
X3072835D1*
X3161417Y169291D2*
X3135512D1*
X3102362Y136142D1*
X2966533Y137008D2*
D10*
X3029843D1*
X3101496D1*
X3102362Y136142D1*
X2984252Y1045276D2*
D19*
Y1084646D1*
X3330709Y1210945D2*
D18*
Y1173228D1*
X2592520Y293307D2*
D22*
Y287717D1*
X2649606Y230630D1*
X2719685Y226378D2*
D10*
X2653858D1*
X2649606Y230630D1*
X2669291Y537087D2*
D22*
X2732283D1*
X3029843Y70866D2*
D10*
Y137008D1*
X4389764Y1375984D2*
D22*
Y1395669D1*
G03X4375984Y1409449I-13778J2D01*
G01*
X4342520D1*
G02X4326772Y1425197I1J15749D01*
G01*
X4314961Y1299213D2*
Y1326772D1*
G02X4326772Y1338583I11811J0D01*
G01*
X4377953D1*
G03X4389764Y1350394I0J11811D01*
G01*
Y1375984D1*
X4452756D2*
D16*
X4515748D1*
X4452756D2*
D10*
Y1348425D1*
X4472441Y1328740D1*
Y1299213D1*
X2950787Y1275589D2*
D24*
Y1322835D1*
X2952756D1*
X2997717Y1350394D2*
D16*
X2962598D1*
X2954724Y1342520D1*
Y1322835D1*
X2952756D1*
X2950787Y1212598D2*
D18*
Y1275589D1*
X4533465Y578740D2*
D22*
Y588583D1*
X4629920D1*
X4618110Y600392D1*
X4533465Y578740D2*
D10*
X4537402D1*
X4574803Y541339D1*
Y478346D1*
X4635827Y417323D1*
Y401575D1*
X4624409D1*
X5165354Y1773622D2*
D16*
X5098425D1*
X5021654D1*
X5019685Y1771654D1*
X1086614Y514370D2*
D17*
X1019213D1*
X1011575Y506732D1*
X950551D1*
Y506299D1*
X899606Y466535D2*
X937008Y503937D1*
X948189D1*
X950551Y506299D1*
X874016Y397638D2*
D19*
Y437008D1*
Y440945D1*
X899606Y466535D1*
X2480315Y1829331D2*
D24*
X2532874D1*
X2564961Y1797244D1*
Y1771654D1*
X2547244Y1718819D2*
D22*
Y1759843D1*
X2559055Y1771654D1*
X2564961D1*
X4523622Y437008D2*
D16*
Y402362D1*
X4524409Y401575D1*
X3915669Y1633858D2*
D17*
Y1593217D1*
Y1560709D1*
X3917323Y1559055D1*
X3913386Y1637795D2*
D18*
Y1593217D1*
X3915669D1*
X3913386Y1637795D2*
D10*
X3929134D1*
G03X3948819Y1657480I2J19683D01*
G01*
Y1736220D1*
G02X3960630Y1748031I11811J0D01*
G01*
X3240157Y74803D2*
D16*
Y114173D1*
X3291339Y94488D2*
D21*
X3220472D1*
G03X3200787Y74803I-2J-19683D01*
G01*
X385827Y1254252D2*
D16*
X377953D1*
Y1362205D1*
X326772Y1413386D1*
X192913Y1153937D2*
D18*
Y1253937D1*
X1150591Y1385827D2*
D16*
X1111220D1*
X1095472Y1401575D1*
Y1433071D1*
X1101378D1*
X1150591D2*
X1101378D1*
X1150591Y1480315D2*
X1119094D1*
X1095472Y1456693D1*
Y1433071D1*
X606299Y334646D2*
X605512D1*
X307087Y1145669D2*
D25*
Y1253937D1*
Y1393701D1*
X326772Y1413386D1*
X192913Y1253937D2*
D16*
X307087D1*
X192913Y1204724D2*
Y1153937D1*
X946850Y120079D2*
D19*
Y181102D1*
X952756Y187008D1*
X974409D1*
X946850Y120079D2*
Y82677D1*
X984252D1*
X1086614Y289961D2*
D17*
X1006496D1*
G03X976378Y259843I0J-30119D01*
G01*
X974409Y187008D1*
X984252Y82677D2*
D16*
X1055118D1*
X1082677Y110236D1*
X3818898Y1566929D2*
D24*
X3909449D1*
X3917323Y1559055D1*
X1323819Y1433071D2*
D25*
X1262795D1*
X1323819Y1480315D2*
X1280512D1*
X1256890Y1456693D1*
Y1433071D1*
X1262795D1*
X1323819Y1385827D2*
X1276575D1*
X1249016Y1413386D1*
Y1433071D1*
X1262795D1*
X1101378Y1110236D2*
D17*
X1066929D1*
G02X1033465Y1155512I7155J40294D01*
G01*
Y1570866D1*
X746063Y1858268D1*
X641732D1*
G02X612205Y1887795I0J29527D01*
G01*
X1101378Y948819D2*
X1055118D1*
G02X1000000Y1023622I29049J79113D01*
G01*
Y1557087D1*
X738189Y1818898D1*
X562992D1*
G02X494094Y1887795I0J68898D01*
G01*
X192913Y1657480D2*
D28*
X277559D1*
X305118Y1685039D1*
X1897638Y163071D2*
D10*
Y78740D1*
X1874016D1*
G02X1834646Y118110I1J39371D01*
G01*
Y163071D1*
X1897638Y78740D2*
X2236220D1*
G03X2293307Y129921I5419J51383D01*
G01*
Y267717D1*
G02X2311024Y285433I17716J0D01*
G01*
X2314961D1*
G03X2348425Y318898I-1J33466D01*
G01*
Y360236D1*
G03X2271654Y437008I-76771J1D01*
G01*
X2196850Y1322835D2*
D18*
X2147638D1*
X2137795Y1332677D1*
Y1387795D1*
X2086614Y1438976D1*
X2490157Y990157D2*
Y966535D1*
Y990157D2*
Y814961D1*
X2452756D1*
X2435039Y797244D1*
Y687008D1*
X2415354Y667323D1*
Y604646D1*
X2417323D1*
X2490157Y814961D2*
X2551181D1*
X2596142Y770000D1*
Y688976D1*
X2692913Y1829331D2*
X2728622D1*
X2779528Y1880236D1*
X3787529Y2121063D2*
D10*
Y2121920D1*
X3746063Y2163386D1*
X3687008D1*
X3663386Y2139764D1*
X3224409D1*
X3167323Y2196850D1*
X2452756D1*
G03X2381890Y2125984I-1J-70865D01*
G01*
Y2096457D1*
G03X2468504Y2009843I86614J0D01*
G01*
X2562992D1*
G02X2592520Y1980315I0J-29527D01*
G01*
Y1935039D1*
D16*
Y1883858D1*
X2647638Y1828740D1*
X2692913D1*
Y1829331D1*
X1031496Y1946850D2*
Y2031496D1*
X1063874Y2063874D1*
Y2120093D1*
X1094488Y1946535D2*
D18*
X1031496D1*
Y1946850D1*
X2196850Y1086615D2*
X2240159D1*
X2328740Y1175197D1*
Y1206693D1*
X2360236Y1238189D1*
Y1269685D1*
X1834646Y997717D2*
X1866457D1*
X1887795Y976378D1*
Y940945D1*
X1885827D1*
X2196850Y1303150D2*
X2127953D1*
X2118110Y1312992D1*
Y1356299D1*
X2086614Y1387795D1*
X1858268Y1879606D2*
D16*
X1860236Y1897638D1*
G03X1844488Y1913386I-15749J-1D01*
G01*
X1811024D1*
G02X1795276Y1929134I1J15749D01*
G01*
Y1935039D1*
G03X1777559Y1952756I-17716J0D01*
G01*
X1759843Y1950787D1*
X1937890Y2118110D2*
X1938976Y2066929D1*
G02X1889764Y2019685I-50459J3308D01*
G01*
G03X1862205Y1992126I1J-27560D01*
G01*
Y1950472D1*
X1858268Y1946535D1*
X543307Y1194291D2*
D18*
X498622D1*
X488189Y1204724D1*
Y1293307D1*
X464567Y1316929D1*
Y1346457D1*
X543307Y650984D2*
X498622D1*
X488189Y661417D1*
Y751969D1*
X464567Y775591D1*
Y913386D1*
X1960630Y594488D2*
D16*
Y629921D1*
X1958661D1*
X2291339Y537087D2*
D10*
Y490157D1*
X2370079Y411417D1*
Y279528D1*
X2352362Y958661D2*
D18*
Y990157D1*
Y915354D1*
G02X2322835Y885827I-29527J0D01*
G01*
X1929134D1*
G03X1874016Y830709I2J-55120D01*
G01*
Y751969D1*
G02X1854331Y732283I-19683J-2D01*
G01*
X1834646Y730000D1*
X2016630Y2118110D2*
D16*
X2017717Y2053150D1*
G03X2043307Y2011811I35028J-6906D01*
G01*
X2082677D1*
G02X2116142Y1978346I-1J-33466D01*
G01*
Y1948504D1*
X2118110Y1946535D1*
X2645669Y1224409D2*
D18*
X2681102D1*
X2718504Y1187008D1*
X2748031D1*
X2789370Y1145669D1*
X3043701D1*
X3062992Y1126378D1*
X2196850Y1185041D2*
X2060710D1*
X2041024Y1165354D1*
X543307Y700984D2*
D16*
Y858268D1*
X555118Y870079D1*
X671575Y799213D2*
X607156D1*
X555118Y851251D1*
Y870079D1*
X685039Y897638D2*
X582677D1*
X555118Y870079D1*
X738504Y799213D2*
Y700984D1*
X755906D1*
X543307Y600984D2*
D10*
X503205D1*
G03X488189Y586614I-1048J-13935D01*
G01*
Y523622D1*
G02X476378Y511811I-11811J0D01*
G01*
X452756Y514094D1*
Y581024D2*
Y644016D1*
X2417323Y537717D2*
D18*
Y557087D1*
G03X2403543Y570866I-13778J2D01*
G01*
X2368110D1*
G02X2356299Y582677I0J11811D01*
G01*
Y602362D1*
G03X2354331Y604331I-1967J2D01*
G01*
X1960630Y460630D2*
D16*
Y496063D1*
X1958661D1*
X3185039Y2098425D2*
D10*
X3346457D1*
X3385827Y2059055D1*
X385827Y644016D2*
D16*
Y581024D1*
D18*
X401575Y578740D1*
G02X421260Y559055I2J-19683D01*
G01*
Y492126D1*
G03X433071Y480315I11811J0D01*
G01*
X472864D1*
G03X543307Y550984I616J69830D01*
G01*
X1559055Y1716585D2*
D17*
Y1775591D1*
X1574714Y1791249D1*
X1643701Y1789370D1*
X2248031Y1879606D2*
D16*
Y1838583D1*
X2246063D1*
X2377953Y1879606D2*
Y1830709D1*
X2375984D1*
X1643701Y1789370D2*
D19*
X1690945D1*
X2110236Y391417D2*
D18*
Y370079D1*
X2122047Y358268D1*
X2204724D1*
X2228346Y381890D1*
X2220472Y629921D2*
D10*
X2125984D1*
G02X2110236Y645669I1J15749D01*
G01*
Y663071D1*
X1960630Y724409D2*
D16*
Y763780D1*
X1958661D1*
X2228346Y496063D2*
D10*
X2125984D1*
G02X2110236Y511811I1J15749D01*
G01*
Y529213D1*
X1559055Y1716585D2*
D17*
X1547294D1*
X1500000Y1669291D1*
X1484252D1*
X1464567Y1649606D1*
X1385827Y1667323D2*
Y1669291D1*
X1303150Y1586614D2*
X1342520D1*
X1385827Y1629921D1*
Y1667323D1*
X1446850D1*
X1464567Y1649606D1*
X1385827Y1667323D2*
D16*
X1334646Y1669291D1*
G02X1314961Y1688976I-2J19683D01*
G01*
Y1738189D1*
G03X1265748Y1787402I-49210J2D01*
G01*
X1151575D1*
G02X1127953Y1811024I0J23622D01*
G01*
Y1844488D1*
X1094488Y1879606D2*
Y1877953D1*
X1127953Y1844488D1*
X1157480Y1879606D2*
Y1870079D1*
X1131890Y1844488D1*
X1127953D1*
X1472441Y1879606D2*
X1474409Y1856299D1*
G03X1500000Y1830709I25589J-2D01*
G01*
X1535256D1*
G02X1574714Y1791249I0J-39458D01*
G01*
X1535433Y1879606D2*
X1535256Y1830709D1*
X2220472Y629921D2*
X2265433D1*
X2291339Y604016D1*
X3421260Y490157D2*
X3384173D1*
Y488189D1*
X3356890Y629921D2*
Y576378D1*
G03X3383543Y551181I24961J-292D01*
G01*
X3384173Y488189D2*
Y550551D1*
X3383543Y551181D1*
X2777559Y1769685D2*
D22*
X2769685D1*
X2718189Y1718189D1*
X2673228D1*
X2196850Y1125984D2*
D10*
X2157480D1*
X2147638Y1116142D1*
Y1092520D1*
X2135827Y1080709D1*
X2125984D1*
X2112205Y1066929D1*
X1559055Y1716585D2*
D31*
Y1763780D1*
G02X1581735Y1789436I31285J-4803D01*
G01*
X1723129Y1790117D1*
G02X1771654Y1740157I-2764J-51230D01*
G01*
Y1214567D1*
G03X1840551Y1141732I81748J8326D01*
G01*
X1846457D1*
G02X1925197Y1082677I-9779J-95060D01*
G01*
G03X1940945Y1066929I15749J1D01*
G01*
X2043307D1*
D16*
X2112205D1*
X3317244Y350394D2*
D10*
Y413386D1*
D18*
Y429449D1*
X3360236Y472441D1*
X3368425D1*
X3384173Y488189D1*
X2196850Y1165354D2*
X2086614D1*
X2074803Y1153543D1*
Y1118110D1*
X2062992Y1106299D1*
X2041654D1*
X1834646Y863858D2*
X1850079D1*
X1893701Y907480D1*
X1966535D1*
X1980315Y921260D1*
Y994094D1*
X1986220Y1000000D1*
X2059055D1*
X2086614Y1027559D1*
X2131890D1*
X2149606Y1045276D1*
X2255906D1*
X2356299Y1145669D1*
X2377953D1*
X2403543Y1171260D1*
Y1232283D1*
X2393701Y1242126D1*
Y1301181D1*
X2330709Y1364173D1*
X2255906D1*
X2234252Y1342520D1*
X2196850D1*
X3023622Y1795276D2*
X2968504Y1740157D1*
Y1529528D1*
X2879921Y1440945D1*
X2779528D1*
X2763780Y1456693D1*
X2645669D1*
X2627953Y1438976D1*
X2568898D1*
X2972568Y2120079D2*
D10*
Y2114046D1*
X3094488Y1992126D1*
Y1947165D1*
X2927163Y137008D2*
Y106297D1*
X2895984Y75118D1*
Y70866D1*
X2663071Y688976D2*
D16*
X2714567D1*
Y690945D1*
X1893701Y1031496D2*
D19*
X2043307D1*
X1893701D2*
D18*
X1944882D1*
D16*
X1992126D1*
X2216535Y952756D2*
Y929134D1*
X2173228D1*
Y940945D2*
Y929134D1*
X2312992Y990157D2*
D22*
Y954724D1*
G02X2279528Y921260I-33466J1D01*
G01*
X2185039D1*
X2177165Y929134D1*
X2173228D1*
X2167323Y1507874D2*
D16*
Y1503937D1*
X2210945D1*
X2167323Y1507874D2*
D19*
X2124016D1*
X2539370Y704724D2*
D17*
X2519685D1*
X2484252Y740157D1*
X2539370D2*
X2484252D1*
X2539370Y775591D2*
X2519685D1*
X2484252Y740157D1*
X1893701Y1031496D2*
Y1043307D1*
G03X1830709Y1116142I-63471J8764D01*
G01*
G02X1744094Y1210630I11954J97900D01*
G01*
Y1692913D1*
G03X1716535Y1718504I-25509J164D01*
G01*
X1692913Y1716585D1*
X2606299Y537717D2*
D10*
X2592520D1*
Y521654D1*
X2545276Y474409D1*
X2606299Y537717D2*
Y527559D1*
X2633858Y500000D1*
Y446850D1*
X2696850Y383858D1*
X2719685D1*
X2196850Y1362205D2*
D22*
Y1405512D1*
X2218504Y1427165D1*
X2273622Y1438976D2*
X2230315D1*
X2218504Y1427165D1*
X2210945Y1503937D2*
D16*
Y1434724D1*
X2218504Y1427165D1*
X1937008Y956693D2*
D19*
Y1023622D1*
X1944882Y1031496D1*
X2267717Y1565276D2*
D16*
Y1560709D1*
X2210945Y1503937D1*
X2175197Y988189D2*
Y931102D1*
X2173228Y929134D1*
X2625984Y917323D2*
Y950787D1*
X2586614Y990157D1*
D22*
X2568898D1*
X2690945Y917323D2*
D16*
X2625984D1*
X2690945D2*
Y940945D1*
X2639764Y992126D1*
X2811024Y1407480D2*
X2781496D1*
X2767717Y1421260D1*
X2738504D1*
X2736220Y1423543D1*
X2673228D1*
X2645669Y1362205D2*
D22*
Y1395984D1*
X2673228Y1423543D1*
X2169291Y1724409D2*
D24*
X2257559D1*
X2265433Y1716535D1*
X2169291Y1724409D2*
X2082677D1*
X2078740Y1720472D1*
Y1679134D2*
D19*
Y1720472D1*
X2719685Y364173D2*
D18*
X2687008D1*
X2600394Y450787D1*
Y470472D1*
X2598425Y472441D1*
X1409449Y1946850D2*
D16*
X1472441D1*
Y1946535D1*
X1474409Y1956693D1*
G02X1519685Y2013780I58158J372D01*
G01*
G03X1578740Y2080709I-15056J72803D01*
G01*
X1579622Y2117810D1*
X2332677Y990157D2*
D18*
Y1059055D1*
X2374016Y1100394D1*
X2435039D1*
X2452756Y1118110D1*
Y1240157D1*
X2425197Y1267717D1*
X2031496Y1521654D2*
D16*
X2011811Y1501969D1*
Y1474724D1*
X2196850Y1106299D2*
D18*
X2236220D1*
X2311024Y1181102D1*
Y1261811D1*
X2312992D1*
X1700787Y230000D2*
Y248031D1*
X1620079Y328740D1*
Y362205D1*
X1086614Y464370D2*
X1157677D1*
G02X1181102Y440945I1J-23425D01*
G01*
Y157480D1*
G03X1259843Y78740I78742J2D01*
G01*
X1586614D1*
G03X1637795Y129921I-1J51182D01*
G01*
Y163071D1*
X950551Y439370D2*
Y452514D1*
G02X970472Y472441I19916J10D01*
G01*
X1078543D1*
G02X1086614Y464370I1J-8070D01*
G01*
X1574803Y230000D2*
X1572520D1*
X1570866Y228346D1*
Y736220D1*
G02X1600394Y765748I29527J0D01*
G01*
X1620079Y763780D1*
X1511811Y230000D2*
Y271654D1*
X1555118Y314961D1*
Y858268D1*
G02X1596457Y899606I41338J1D01*
G01*
X1620079Y897638D1*
X3523622Y1618110D2*
D16*
X3378268D1*
X3376299Y1620079D1*
X1700787Y163071D2*
D18*
X1703594Y160264D1*
X1704724Y122047D1*
G02X1645669Y62992I-59054J-1D01*
G01*
X1251969D1*
G02X1161417Y153543I2J90553D01*
G01*
Y339961D1*
Y395669D1*
G03X1125984Y431102I-35433J1D01*
G01*
X1020276D1*
G02X1011575Y439803I-4J8697D01*
G01*
X1086614Y339961D2*
X1161417D1*
X2645669Y1204724D2*
X2578740D1*
X2523622Y1149606D1*
X2173228Y391417D2*
X2178819D1*
X2200787Y413386D1*
X2244094D1*
X2271654Y385827D1*
X2279528D1*
X2549213Y990157D2*
D22*
Y952165D1*
D16*
Y929134D1*
X2561024Y917323D1*
X1974094Y1165354D2*
D18*
G03X1956693Y1185039I-15995J3395D01*
G01*
X1852362D1*
G02X1807087Y1236220I1188J46667D01*
G01*
Y1744094D1*
G02X1852362Y1789370I43701J1575D01*
G01*
X1950787D1*
G03X1982283Y1820866I2J31494D01*
G01*
Y1860236D1*
D10*
Y1874016D1*
X1942913D1*
G02X1923228Y1881890I-1969J23622D01*
G01*
X1921260Y1879606D1*
X1448819Y230000D2*
D18*
Y232283D1*
X1539370Y322835D1*
Y980315D1*
G02X1592520Y1033465I53149J1D01*
G01*
X1620079Y1031496D1*
X2921260Y537402D2*
Y553150D1*
X2858268Y537087D2*
X2921260D1*
Y537402D1*
X2719685Y265748D2*
D10*
X2687008D1*
G02X2643701Y291339I3040J54584D01*
G01*
X2118110Y1879606D2*
D16*
X2120079Y1895669D1*
G03X2104331Y1911417I-15749J-1D01*
G01*
X2070866D1*
G02X2053150Y1929134I0J17716D01*
G01*
Y1933071D1*
G03X2033465Y1952756I-19683J2D01*
G01*
X2019685Y1950787D1*
X2334646Y230000D2*
D18*
X2381089D1*
X2412060Y199029D1*
X2480315Y537717D2*
X2543307D1*
X2480315D2*
D10*
Y361127D1*
Y322835D1*
G02X2442913Y285433I-37400J-2D01*
G01*
X2438976D1*
G03X2407480Y253937I-2J-31494D01*
G01*
Y203609D1*
X2412060Y199029D1*
X2480315Y361127D2*
D18*
X2648715D1*
G02X2688976Y320866I-1J-40263D01*
G01*
Y318898D1*
G03X2702756Y305118I13778J-2D01*
G01*
X2719685D1*
X4220472Y1224409D2*
D10*
X4192323D1*
G02X4147638Y1263780I-4816J39577D01*
G01*
Y1289370D1*
G03X4122047Y1314961I-25589J2D01*
G01*
X3687008D1*
G03X3669291Y1299213I-1794J-15821D01*
G01*
Y1281811D1*
X3665354Y1277874D1*
X3602362Y1277244D2*
D16*
X3665354Y1277874D1*
X4220472Y1224409D2*
D10*
X4271654D1*
X4883858Y366142D2*
D16*
X4830709D1*
Y401575D1*
X4823622D1*
X4773622Y537402D2*
Y498031D1*
X4823622Y448031D1*
Y401575D1*
X4883858Y366142D2*
X4956693D1*
Y301181D2*
Y366142D1*
X2196850Y1263780D2*
D10*
X2135827D1*
X2116142Y1244094D1*
X1948819D1*
X1895682Y1297231D1*
Y1307109D1*
X1885827Y1407795D2*
Y1316965D1*
X1895682Y1307109D1*
X1834646Y230000D2*
D16*
X1838583D1*
Y275591D1*
X2543307Y604646D2*
D18*
Y641732D1*
X3797244Y1143701D2*
D10*
Y1120079D1*
G02X3775591Y1098425I-21655J1D01*
G01*
X3602362D1*
X3435039D1*
Y1336614D1*
X3456693Y1358268D1*
Y1356299D1*
X2719685Y167323D2*
Y131102D1*
X2661417Y72835D1*
X2719685Y167323D2*
D18*
X2696850D1*
X2688976Y175197D1*
Y198819D1*
X2696850Y206693D1*
X2719685D1*
X3602362Y1210315D2*
D10*
Y1098425D1*
X3435039D2*
X3362702D1*
G03X3271654Y1007874I-844J-90201D01*
G01*
Y452756D1*
X3523622Y1694882D2*
D16*
X3440945D1*
X3419291Y1716535D1*
Y1732283D1*
Y1781496D1*
X3403543Y1797244D1*
X3378268D1*
X3376299Y1795276D1*
Y1732283D2*
X3419291D1*
X3818898Y1413386D2*
D31*
X3775591D1*
X3763780Y1425197D1*
Y1464567D1*
Y1580709D1*
X3775591Y1592520D1*
X3818898D1*
X3763780Y1464567D2*
X3631890D1*
X3523622D1*
X3818898Y1592520D2*
D18*
X3868110D1*
X3879921Y1604331D1*
Y1657480D1*
X3913386Y1690945D1*
Y1694567D1*
X3915669Y1696850D1*
X3523622Y1592520D2*
D31*
X3562992D1*
G03X3576772Y1606299I2J13778D01*
G01*
Y1679134D1*
G03X3561024Y1694882I-15749J-1D01*
G01*
X3523622D1*
Y1464567D2*
D16*
X3388110D1*
X3376299Y1476378D1*
X3523622Y1592520D2*
D10*
X3446850D1*
X3437008Y1582677D1*
X3352362D1*
X3342520Y1572835D1*
Y1486220D1*
X3350394Y1478346D1*
X3374331D1*
X3376299Y1476378D1*
X3539370Y1277874D2*
D31*
Y1307087D1*
X3561024Y1328740D1*
X3612205D1*
X3631890Y1348425D1*
Y1464567D1*
X3476378Y1277874D2*
D25*
X3539370D1*
X3818898Y1413386D2*
D16*
X3907480D1*
G03X3915354Y1421260I2J7872D01*
G01*
X3818898Y1387795D2*
X3862205D1*
X3887795Y1362205D1*
X3915669D1*
Y1354331D1*
Y1420945D1*
X3915577Y1421168D1*
X3915354Y1421260D1*
X543307Y1244291D2*
Y1401575D1*
X555118Y1413386D1*
X667638Y1342520D2*
X607156D1*
X555118Y1394558D1*
Y1413386D1*
X685039Y1440945D2*
X582677D1*
X555118Y1413386D1*
X734567Y1342520D2*
Y1244291D1*
X755906D1*
X950472Y779528D2*
D17*
X946850D1*
Y783465D1*
X755906Y1194291D2*
D20*
X828150D1*
X846457Y1212598D1*
X889764Y1136142D2*
D16*
Y1157480D1*
X868110Y1179134D1*
Y1190945D1*
X846457Y1212598D1*
X1086614Y614370D2*
D17*
X950591D1*
X915354Y649606D1*
Y671260D1*
D19*
Y681102D1*
Y730906D1*
Y797244D1*
X948819Y830709D1*
D34*
Y1212598D1*
D21*
X846457D1*
Y669291D2*
D20*
X915354Y671260D1*
X755906Y650984D2*
X828150D1*
X846457Y669291D1*
X889764Y596772D2*
D16*
Y608268D1*
X864173Y633858D1*
Y651575D1*
X846457Y669291D1*
X950472Y681102D2*
X915354D1*
X950472Y779528D2*
X915354Y797244D1*
X948819Y564961D2*
X950591Y614370D1*
X948819Y1212598D2*
D33*
Y1503937D1*
X842520Y1610236D1*
X748031D1*
X665354D1*
X562992D2*
D28*
X466535D1*
Y1685039D1*
X562992Y1610236D2*
D33*
X665354D1*
X748031Y1671575D2*
D16*
Y1610236D1*
X1106299Y1712598D2*
D24*
Y1651575D1*
X1153543Y1657480D2*
X1112205D1*
X1106299Y1651575D1*
D25*
Y1673228D1*
G02X1137795Y1704724I31494J2D01*
G01*
X1204724D1*
G02X1244094Y1657480I4566J-36221D01*
G01*
X1086614Y830906D2*
D27*
X948819Y830709D1*
X1086614Y730906D2*
X915354D1*
X307087Y334646D2*
D16*
X305512D1*
X192913Y1553937D2*
D19*
X199606D1*
X220472Y1574803D1*
X379921D1*
X409449Y1604331D1*
X466535D1*
Y1685039D1*
X413386Y1614173D2*
D16*
Y1653543D1*
D17*
Y1606299D1*
X466535D1*
Y1685039D1*
X452756Y1057402D2*
D10*
X472441Y1055118D1*
G03X488189Y1070866I-1J15749D01*
G01*
Y1133858D1*
G02X500000Y1145669I11811J0D01*
G01*
X543446D1*
G02X543307Y1144291I15J-698D01*
G01*
X452756Y1124331D2*
Y1187323D1*
X2196850Y1283466D2*
X2080743D1*
X2057100Y1307109D1*
X1974387D1*
X1952756Y1328740D1*
Y1403858D1*
X1948819Y1407795D1*
X2842520Y1248031D2*
D18*
X2883543D1*
X2885827Y1250315D1*
X2320866Y1326772D2*
D10*
Y1330709D1*
X2275591D1*
G03X2244094Y1303150I-1203J-30402D01*
G01*
X2242126Y1295276D1*
G02X2228346Y1283465I-13909J2284D01*
G01*
X2196850D1*
Y1283466D1*
X3818898Y1438976D2*
D16*
X3872047D1*
X3879921Y1446850D1*
Y1486220D1*
X3887795Y1494094D1*
X3905827D1*
X3915669Y1484252D1*
X3818898Y1643701D2*
D24*
X3783465D1*
G02X3765748Y1661417I9843J27559D01*
G01*
Y1833858D1*
X3853150Y1921260D1*
X1086614Y389961D2*
D17*
X1004134D1*
G03X974409Y350394I1921J-32392D01*
G01*
X2996850Y344488D2*
D18*
X3013780D1*
X3037402Y368110D1*
Y421260D1*
X3019685Y438976D1*
Y683071D1*
X3062992Y726378D1*
X1323819Y1271654D2*
D25*
X1262795D1*
X1323819Y1318898D2*
X1260827D1*
Y1271654D1*
X1262795D1*
X1323819Y1224409D2*
X1262795D1*
Y1271654D1*
X1299213Y614370D2*
X1369882D1*
X1377953Y606299D1*
X1299213Y564370D2*
X1375394D1*
X1377953Y566929D1*
D19*
Y606299D1*
Y685039D2*
Y566929D1*
Y645669D2*
D16*
Y685039D1*
X1262795Y1271654D2*
D17*
X1232283D1*
G02X1204724Y1299213I1J27560D01*
G01*
Y1496063D1*
G02X1240157Y1531496I35433J1D01*
G01*
X1362205D1*
X1433071Y1602362D1*
X1539420D1*
X1559055Y1621997D1*
X2750000Y1655512D2*
D22*
X2757874D1*
X2759843Y1657480D1*
X2748031D1*
X2673228Y1651260D2*
X2741811D1*
X2748031Y1657480D1*
X2610236Y1651890D2*
X2673228D1*
Y1651260D1*
X2196850Y1244094D2*
D18*
X2242126D1*
X2277559Y1279528D1*
Y1299213D1*
X4464567Y1631890D2*
D16*
Y1657480D1*
X4511811Y1704724D1*
Y1743307D1*
X4366142Y1917323D2*
D19*
X4405512D1*
D17*
X4539370D1*
X4578740Y1877953D1*
Y1810236D1*
X4511811Y1743307D1*
X1362205Y283465D2*
D16*
X1397638D1*
X1299213Y289961D2*
D25*
X1355709D1*
X1362205Y283465D1*
X1299213Y239961D2*
X1354134D1*
X1362205Y248031D1*
D16*
Y283465D1*
X1397638Y248031D2*
X1362205D1*
X1523622Y1145669D2*
D17*
X1555168D1*
X1559055Y1149556D1*
X1397638Y283465D2*
X1401575D1*
X1559055Y1149556D2*
X1527559D1*
G03X1507874Y1129921I2655J-22347D01*
G01*
Y370079D1*
G02X1409449Y283465I-87650J372D01*
G01*
X1381890Y263780D1*
G02X1362205Y283465I-2J19683D01*
G01*
X2372047Y990157D2*
D18*
Y1051181D1*
X2387795Y1066929D1*
X2251969Y320866D2*
D10*
X2250000Y334646D1*
X2253937Y338583D1*
X2212598Y163071D2*
Y118110D1*
X2173228D1*
G02X2145669Y145669I1J27560D01*
G01*
X2149606Y163071D1*
X2253937Y338583D2*
Y135827D1*
G02X2236220Y118110I-17716J0D01*
G01*
X2212598D1*
X3139764Y539370D2*
D18*
Y602362D1*
X2996850Y285433D2*
X3031496D1*
X3137795Y391732D1*
Y537402D1*
X3139764Y539370D1*
X2452756Y653543D2*
D16*
X2454724D1*
X2480315Y627953D1*
Y604646D1*
X2842520Y1179134D2*
X2881575D1*
X2885827Y1183386D1*
X3309370Y1547244D2*
D10*
X3238189D1*
X3080709Y1389764D1*
X3041339D1*
X3031496Y1379921D1*
Y1281495D1*
X3037402Y1275589D1*
X3027558D1*
X2994094Y1242126D1*
Y1183071D1*
X2984252Y1173228D1*
X2895984D1*
X2885827Y1183386D1*
X2899606Y1173228D2*
D16*
X2889449Y1183386D1*
X2885827D1*
X3102362Y1277874D2*
X3039686D1*
X3037402Y1275589D1*
X2557402Y94488D2*
D18*
Y182953D1*
X2573478Y199029D1*
X2719685Y285433D2*
X2708661D1*
G02X2673228Y320866I-1J35433D01*
G01*
Y322835D1*
G03X2651575Y344488I-21655J-1D01*
G01*
X2576772D1*
G03X2559055Y326772I0J-17716D01*
G01*
Y213451D1*
G03X2573478Y199029I14423J0D01*
G01*
X2996850Y324803D2*
D10*
X3019685D1*
X3064961Y370079D1*
Y442913D1*
X3039370Y468504D1*
Y590551D1*
X3051181Y602362D1*
X3072835D1*
D16*
Y657480D1*
X3074803D1*
X3143701Y659449D2*
D10*
Y685039D1*
X3157480Y698819D1*
Y1348425D1*
X3226378Y1417323D1*
X3523622D1*
Y1413386D1*
X3060630Y826378D2*
D18*
X3062992D1*
X3017323D1*
X2978346Y787402D1*
D36*
Y657480D1*
X2952756Y631890D1*
Y509843D1*
X2956693Y505906D1*
X2966535D1*
X2976378Y496063D1*
Y452756D1*
X2966533Y442911D1*
Y414173D1*
X1157480Y1946535D2*
D16*
Y2066929D1*
X1142614Y2081795D1*
Y2120093D1*
X1157480Y1946535D2*
X1220472D1*
Y1946850D1*
X4551181Y1299213D2*
D10*
Y1330709D1*
X4566929Y1346457D1*
Y1399606D1*
X4576772Y1409449D1*
X4665354D1*
X4752756D1*
Y1405020D1*
X4665354Y1375984D2*
D18*
Y1409449D1*
X2645669Y1322835D2*
X2832677D1*
X2854331Y1344488D1*
Y1391732D1*
X3003937Y1541339D1*
Y1716535D1*
X3015748Y1728346D1*
X3061024D1*
X3127953Y1795276D1*
X3123622D1*
X5078741Y155512D2*
D16*
Y157479D1*
X5035433Y200787D1*
X4990157D1*
X4956693Y234252D1*
X2828738Y414173D2*
D18*
Y458664D1*
X2809055Y478346D1*
Y551181D1*
X2795276Y537402D1*
X2848423Y414173D2*
Y438979D1*
X2828738Y458664D1*
X3982283Y1421260D2*
D16*
Y1483937D1*
X3982375Y1484160D1*
X3982598Y1484252D1*
X4625984Y1086614D2*
D10*
X4590551D1*
X4572835Y1068898D1*
X385827Y1187323D2*
D16*
Y1124331D1*
D18*
X397638Y1122047D1*
G02X421260Y1098425I0J-23622D01*
G01*
Y1035433D1*
G03X433071Y1023622I11811J0D01*
G01*
X472864D1*
G03X543307Y1094291I616J69830D01*
G01*
X4625984Y1106299D2*
D10*
X4590551D1*
X4572835Y1124016D1*
X4374016Y1299213D2*
Y1242126D1*
X4368110D1*
X4433071Y1299213D2*
Y1255906D1*
X4419291Y1242126D1*
X2171575Y724409D2*
X2220472D1*
Y716535D1*
X2027559Y275591D2*
D16*
Y232283D1*
G02X2023622Y230000I-2218J-712D01*
G01*
X1397638Y507874D2*
D18*
X1362205D1*
D25*
Y514370D1*
X1299213D1*
X1362205Y507874D2*
D18*
Y472441D1*
X1299213Y464370D2*
D25*
X1354134D1*
X1362205Y472441D1*
X1397638D2*
D16*
X1362205D1*
X1397638Y507874D2*
D17*
X1401575D1*
X1397638D2*
D18*
Y472441D1*
X1362205Y507874D2*
D17*
G03X1377953Y492126I15749J1D01*
G01*
X1417323D1*
G03X1440945Y515748I0J23622D01*
G01*
Y1291339D1*
G02X1488189Y1338583I47243J1D01*
G01*
X1559055Y1338533D1*
X4401575Y1631890D2*
D22*
Y1657480D1*
X4462598Y1718504D1*
Y1797244D1*
G02X4511811Y1846457I49210J2D01*
G01*
X2352361Y1438976D2*
D18*
Y1503936D1*
X2484252Y1635827D1*
Y1651260D1*
X2312992Y1438976D2*
Y1517717D1*
X2381890Y1586614D1*
Y1761811D1*
X2423228Y1803150D1*
Y1919291D1*
X2433268Y1929331D1*
X2480315D1*
X1299213Y830906D2*
D17*
X1370079D1*
Y1110236D1*
X1262795D1*
X1299213Y780906D2*
X1343701D1*
G03X1370079Y807087I334J26042D01*
G01*
Y830906D1*
Y1110236D2*
Y1433071D1*
G02X1464567Y1527559I94487J1D01*
G01*
X1559055Y1527509D1*
X1397638Y346457D2*
D16*
X1362205D1*
X1397638Y381890D2*
Y346457D1*
X1362205Y381890D2*
X1397638D1*
X1559055Y1244045D2*
D17*
X1507874D1*
G03X1476378Y1212598I-87J-31409D01*
G01*
Y417323D1*
G02X1421260Y362205I-55120J2D01*
G01*
X1377953D1*
G02X1362205Y381890I245J16338D01*
G01*
X1299213Y339961D2*
D25*
X1355709D1*
X1362205Y346457D1*
X1299213Y389961D2*
X1362205D1*
Y381890D1*
X1086614Y239961D2*
D18*
X1132480D1*
G02X1141732Y230709I0J-9252D01*
G01*
Y153543D1*
G03X1248031Y47244I106298J-2D01*
G01*
X1700787D1*
G03X1767717Y114173I-2J66931D01*
G01*
Y157480D1*
G03X1763780Y163071I-8802J-2017D01*
G01*
X1082677Y177165D2*
D16*
Y236024D1*
X1086614Y239961D1*
X1710630Y458661D2*
X1768031D1*
X1771654Y462283D1*
X1834646Y529213D2*
D18*
Y507874D1*
G02X1822835Y496063I-11811J0D01*
G01*
X1783465D1*
G03X1771654Y484252I0J-11811D01*
G01*
Y462283D1*
X1710630Y592520D2*
D16*
X1768031D1*
X1771654Y596142D1*
X1834646Y663071D2*
D18*
Y641732D1*
G02X1822835Y629921I-11811J0D01*
G01*
X1783465D1*
G03X1771654Y618110I0J-11811D01*
G01*
Y596142D1*
X1710630Y726378D2*
D16*
X1768031D1*
X1771654Y730000D1*
X1834646Y796929D2*
D18*
Y775591D1*
G02X1822835Y763780I-11811J0D01*
G01*
X1783465D1*
G03X1771654Y751969I0J-11811D01*
G01*
Y730000D1*
X2470472Y990157D2*
Y905512D1*
G02X2387795Y822835I-82676J-1D01*
G01*
X2299213D1*
G03X2259843Y783465I1J-39371D01*
G01*
Y712598D1*
G02X2212598Y665354I-47243J-1D01*
G01*
X2175512D1*
X2173228Y663071D1*
X4625984Y1027559D2*
X4795276D1*
G02X4885827Y937008I-2J-90553D01*
G01*
Y751969D1*
G03X5039370Y598425I153546J2D01*
G01*
X5092126D1*
G02X5140551Y550000I837J-47588D01*
G01*
X257874Y1887795D2*
D28*
X232283D1*
X200787Y1856299D1*
Y1820866D1*
X192913D1*
X1535433Y1946535D2*
D16*
X1598425D1*
Y1946850D1*
X1600394Y1982283D1*
G02X1627953Y2027559I46326J2827D01*
G01*
G03X1657480Y2062992I-4770J33995D01*
G01*
X1658362Y2117810D1*
X2996850Y305118D2*
D10*
X3025591D1*
X3084646Y364173D1*
Y442913D1*
X3108268Y466535D1*
Y679134D1*
X3139764Y710630D1*
Y1356299D1*
X3218504Y1435039D1*
X3523622D1*
Y1438976D1*
X3108268Y466535D2*
D18*
Y456693D1*
G02X3100394Y448819I-7872J-2D01*
G01*
X2086614Y163071D2*
D10*
Y98425D1*
X2047244D1*
G02X2023622Y122047I0J23622D01*
G01*
Y163071D1*
X2086614Y98425D2*
X2238189D1*
G03X2273622Y133858I1J35433D01*
G01*
Y285433D1*
G02X2311024Y322835I37400J2D01*
G01*
X2411417Y990157D2*
D22*
Y1028151D1*
D16*
Y1029528D1*
X2435039Y1053150D1*
X3818898Y1618110D2*
D24*
X3789370D1*
G02X3742126Y1665354I-1J47243D01*
G01*
Y1909843D1*
G02X3753150Y1921260I11429J-4D01*
G01*
X3448819Y2059055D2*
D35*
Y2072835D1*
G02X3474409Y2098425I25589J2D01*
G01*
X3576378D1*
G02X3753150Y1921260I276J-176497D01*
G01*
X4625984Y1125984D2*
D18*
X4673228D1*
G02X4692913Y1106299I2J-19683D01*
G01*
D3*
X2996850Y187008D2*
D10*
X3045276D1*
X3212598Y354331D1*
Y468504D1*
X3236220Y492126D1*
Y1078740D1*
X3265748Y1108268D1*
Y1279528D1*
X3230315Y1314961D1*
X4324409Y401575D2*
D18*
Y450394D1*
X4362205Y488189D1*
X2559055Y1370079D2*
D10*
X2480315D1*
G02X2450786Y1399608I-2J29527D01*
G01*
Y1438976D1*
X4625984Y1007874D2*
D18*
X4795276D1*
G02X4866142Y937008I1J-70865D01*
G01*
Y681102D1*
X4997244Y550000D1*
X5040551D1*
X1958661Y362205D2*
D10*
Y231969D1*
X1960630Y230000D1*
X4334646Y1846457D2*
D18*
G02X4291339Y1803150I-43305J-2D01*
G01*
X4212598D1*
X4181102Y1834646D1*
D16*
X3933071D1*
G03X3818898Y1720472I1J-114175D01*
G01*
Y1694882D1*
X4551181Y1633858D2*
D18*
X4555118D1*
X4566929Y1572835D2*
Y1598425D1*
X4555118Y1610236D1*
Y1633858D1*
X1960630Y163071D2*
D10*
Y185039D1*
X1948819Y196850D1*
X1805118D1*
X1799213Y202756D1*
Y267717D1*
X1791339Y275591D1*
X4511811Y1299213D2*
Y1242126D1*
X4513780D1*
X3009843Y1421260D2*
Y1442913D1*
X3230315Y1663386D1*
X3405512D1*
X3423228Y1645669D1*
X3523622D1*
Y1643701D1*
X2645669Y1303150D2*
X2844488D1*
X2946850Y1405512D1*
Y1423228D1*
X2944882D1*
X2968504Y1880236D2*
D18*
Y1877953D1*
X2873228Y1782677D1*
Y1640945D1*
G02X2830709Y1598425I-42521J1D01*
G01*
X2503937D1*
X2452756Y1547244D1*
Y1511811D1*
G02X2429134Y1488189I-23622J0D01*
G01*
X2403543D1*
G03X2391732Y1476378I0J-11811D01*
G01*
Y1438976D1*
X2007874Y803150D2*
D16*
X2049213D1*
Y801181D1*
X2076772D1*
X2086614Y791339D1*
X2100709D1*
X2104646Y787402D1*
X2011811Y1407795D2*
Y1375984D1*
X1990157Y1354331D1*
X3728346Y1277874D2*
X3767717Y1279528D1*
G02X3805761Y1250210I-7025J-48459D01*
G01*
X3665354Y1210945D2*
D18*
X3669291Y1222441D1*
G02X3692913Y1246063I23622J0D01*
G01*
X3720472D1*
G03X3734252Y1259843I2J13778D01*
G01*
Y1277559D1*
G03X3728346Y1277874I-2984J-419D01*
G01*
X2149606Y230000D2*
D16*
Y271654D1*
X2905512Y1880236D2*
D18*
Y1856299D1*
X2838583Y1789370D1*
Y1641732D1*
G02X2814961Y1618110I-23622J0D01*
G01*
X2496063D1*
X2437008Y1559055D1*
Y1519685D1*
G02X2421260Y1503937I-15749J1D01*
G01*
X2391732D1*
G03X2372047Y1484252I-2J-19683D01*
G01*
Y1438976D1*
X1710630Y860236D2*
D16*
X1768031D1*
X1771654Y863858D1*
X1834646Y930787D2*
D18*
Y921260D1*
G02X1811024Y897638I-23622J0D01*
G01*
X1783465D1*
G03X1771654Y885827I0J-11811D01*
G01*
Y863858D1*
X4531496Y1299213D2*
Y1334646D1*
X4551181Y1354331D1*
Y1464567D1*
X4566929Y1480315D1*
Y1505906D1*
X2049213Y726378D2*
D16*
X2104646D1*
Y724409D1*
X3665354Y1755906D2*
D22*
Y1618110D1*
G02X3562992Y1515748I-102364J1D01*
G01*
X3523622D1*
X3489948Y1755906D2*
X3539370Y1779528D1*
G02X3610236Y1708661I1J-70865D01*
G01*
Y1614173D1*
G02X3562992Y1566929I-47243J-1D01*
G01*
X3523622D1*
X3489948Y1755906D2*
D16*
X3484252Y1773622D1*
G03X3401575Y1856299I-82676J1D01*
G01*
X3376299Y1858268D1*
X3523622Y1566929D2*
X3454724D1*
X3435039Y1547244D1*
X3376299D1*
X2332677Y1438976D2*
D18*
Y1509843D1*
X2421260Y1598425D1*
Y1651260D1*
X3456890Y842520D2*
Y801378D1*
G02X3437008Y781496I-19880J-1D01*
G01*
X3342520D1*
G03X3318898Y751969I-328J-23950D01*
G01*
X3704724Y1716535D2*
D22*
Y1631890D1*
G02X3562992Y1490157I-141730J-2D01*
G01*
X3523622D1*
X2645669Y1283465D2*
D10*
X2852362D1*
X2976378Y1407480D1*
Y1437008D1*
X3220570Y1681199D1*
X3415257D1*
X3429134Y1667323D1*
X3523622D1*
Y1669291D1*
X2479921Y1779528D2*
D18*
X2480118Y1779331D1*
X2480315Y1779528D2*
Y1779331D1*
X2421260Y1718189D2*
D10*
Y1763780D1*
X2436811Y1779331D1*
X2480315D1*
X2049213Y592520D2*
X2106614D1*
X2110236Y596142D1*
X2173228D1*
X1017402Y779528D2*
D16*
X1085236D1*
X1086614Y780906D1*
D18*
X1163976D1*
G02X1194882Y750000I-2J-30907D01*
G01*
Y647638D1*
G03X1212598Y629921I17716J0D01*
G01*
X1220472D1*
G02X1236220Y614173I-1J-15749D01*
G01*
Y173228D1*
G03X1283465Y125984I47243J-1D01*
G01*
X1433071D1*
G03X1448819Y141732I-1J15749D01*
G01*
Y163071D1*
X2892614Y2120079D2*
D10*
Y2121165D1*
X3027559Y1986220D1*
Y1951102D1*
X3031496Y1947165D1*
X4220472Y1204724D2*
X4106299D1*
Y1210315D1*
X2692913Y1879331D2*
D18*
X2717913D1*
X2779528Y1940945D1*
Y1947165D1*
X3707575Y2121063D2*
D10*
X3213583D1*
X3155512Y2179134D1*
X2462598D1*
G03X2409449Y2125984I-1J-53149D01*
G01*
Y2098425D1*
G03X2474409Y2031496I68446J1443D01*
G01*
X2570866D1*
G02X2622047Y1980315I-1J-51182D01*
G01*
Y1952756D1*
D16*
Y1901575D1*
X2643701Y1879921D1*
X2692913D1*
Y1879331D1*
X1661417Y1879606D2*
D10*
Y1874016D1*
X1708661D1*
X1722441Y1860236D1*
X1974724Y1106299D2*
D18*
X1956693D1*
G02X1944882Y1118110I0J11811D01*
G01*
Y1145669D1*
G03X1925197Y1165354I-19683J2D01*
G01*
X1846457D1*
G02X1791339Y1222441I1178J56290D01*
G01*
Y1765748D1*
G03X1740157Y1812992I-57202J-10624D01*
G01*
G02X1724409Y1828740I1J15749D01*
G01*
X1722441Y1860236D1*
X2842520Y1947165D2*
D10*
Y1990157D1*
X2824803Y2007874D1*
X2718504D1*
X2692913Y1982283D1*
Y1929331D1*
X3330709Y1277874D2*
D18*
X3393701D1*
Y1387795D1*
X3226378D1*
X3177165Y1338583D1*
Y509843D1*
X3155512Y488189D1*
Y387795D1*
X3033465Y265748D1*
X2996850D1*
X3523622Y1387795D2*
X3393701D1*
X2450787Y990157D2*
Y903543D1*
G02X2385827Y838583I-64960J-1D01*
G01*
X1940945D1*
G03X1921260Y818898I-2J-19683D01*
G01*
Y358268D1*
G02X1887795Y324803I-34854J1390D01*
G01*
X1834646Y324488D1*
X2645669Y1342520D2*
D22*
X2695197D1*
X2710945Y1358268D1*
X3480315Y931417D2*
D16*
X3543307D1*
X4220472Y1165354D2*
D10*
X4192913D1*
X4173228Y1145669D1*
X4000000D1*
G03X3894213Y1101850I37J-149693D01*
G01*
G03X3850394Y992126I105822J-105872D01*
G01*
Y984252D1*
G02X3779528Y913386I-70865J-1D01*
G01*
X3610236D1*
X3592205Y931417D1*
X3543307D1*
X3854331Y1078740D2*
D18*
Y1076769D1*
X3862203Y1068896D1*
X3895157Y1101850D1*
X3894213D1*
X2996850Y206693D2*
D10*
X3037402D1*
X3192913Y362205D1*
Y474409D1*
X3216535Y498031D1*
Y1088583D1*
X3230315Y1102362D1*
Y1125984D1*
X4773622Y604331D2*
D16*
X4708663D1*
X4704724Y600392D1*
X4413386Y1846457D2*
D18*
G02X4354331Y1787402I-59054J-1D01*
G01*
X4200787D1*
X4173228Y1814961D1*
D16*
X3944882D1*
G03X3872047Y1740157I-1348J-71548D01*
G01*
Y1683071D1*
G02X3858268Y1669291I-13778J-2D01*
G01*
X3818898D1*
X1150591Y1318898D2*
X1115157D1*
X1091535Y1295276D1*
Y1271654D1*
X1101378D1*
X1150591D2*
X1101378D1*
X1150591Y1224409D2*
X1115157D1*
X1099409Y1240157D1*
Y1271654D1*
X1101378D1*
X807087Y334646D2*
X805512D1*
X755906Y1144291D2*
X823567D1*
G02X826772Y1135512I820J-4675D01*
G01*
X755906Y600984D2*
X826496D1*
X830709Y596772D1*
X3489948Y1917323D2*
D22*
G02X3629921Y1795276I29485J-107475D01*
G01*
Y1608268D1*
G02X3562992Y1541339I-66931J2D01*
G01*
X3523622D1*
X3376299Y1921260D2*
D16*
X3489948D1*
Y1917323D1*
X1283465Y1946850D2*
X1285433Y1956693D1*
G02X1374016Y2045276I88581J1D01*
G01*
X1381890D1*
G03X1423228Y2078740I435J41728D01*
G01*
Y2108268D1*
X1422142Y2117810D1*
X2645669Y1145669D2*
D18*
X2594488D1*
X2547244Y1098425D1*
X2498031D1*
X2470472Y1125984D1*
Y1289370D1*
X2464567Y1295276D1*
Y1303150D1*
X2462598Y1301181D1*
X1346457Y1946850D2*
D16*
X1348425Y1966535D1*
G02X1399606Y2017717I51182J-1D01*
G01*
X1423228D1*
G03X1500882Y2117810I681J79640D01*
G01*
X2645669Y1165354D2*
D18*
X2590551D1*
X2541339Y1116142D1*
X2507874D1*
X2488189Y1135827D1*
Y1279528D1*
X2511811Y1303150D1*
Y1301181D1*
X1017402Y681102D2*
X1086417D1*
X1086556Y681045D1*
X1086614Y680906D1*
X1133858D1*
G02X1149606Y665354I330J-15415D01*
G01*
Y649606D1*
G03X1188976Y610236I39371J1D01*
G01*
X1200787D1*
G02X1220472Y590551I2J-19683D01*
G01*
Y165354D1*
G03X1275591Y110236I55120J2D01*
G01*
X1484252D1*
G03X1511811Y137795I-1J27560D01*
G01*
Y163071D1*
X4625984Y988189D2*
X4791339D1*
G02X4846457Y933071I-2J-55120D01*
G01*
Y671260D1*
X5017717Y500000D1*
X5090551D1*
G02X5140551Y450000I834J-49166D01*
G01*
X4625984Y968504D2*
X4791339D1*
G02X4826772Y933071I1J-35433D01*
G01*
Y663780D1*
X5040551Y450000D1*
X3864173Y1143701D2*
D10*
X3907480D1*
X3929134Y1165354D1*
X4151575D1*
X4171260Y1185039D1*
X4220472D1*
X4259843Y1442913D2*
D16*
Y1503937D1*
X4261811D1*
X2181102Y1946850D2*
X2196047D1*
Y1948819D1*
X2214567D1*
X2248031D1*
Y1946535D1*
X2196850Y1204724D2*
D18*
X1860236D1*
G02X1822835Y1244094I-1914J35632D01*
G01*
Y1744094D1*
G02X1858268Y1771654I32874J-5709D01*
G01*
X2139764D1*
G03X2214567Y1846457I0J74804D01*
G01*
Y1948819D1*
X2181102Y1946850D2*
D16*
Y2003937D1*
G03X2151575Y2041339I-39607J-912D01*
G01*
X2122047D1*
G02X2094488Y2076772I9499J35822D01*
G01*
Y2078740D1*
G02X2095370Y2118110I220140J14764D01*
G01*
X2314961Y1946850D2*
X2377953D1*
Y1946535D1*
X2196850Y1224409D2*
D18*
X1868110D1*
G02X1838583Y1259843I4265J33574D01*
G01*
Y1736220D1*
G02X1860236Y1755906I18661J1225D01*
G01*
X2230315D1*
G03X2281496Y1807087I-1J51182D01*
G01*
Y1913386D1*
G02X2314961Y1946850I33466J-1D01*
G01*
X2174110Y2118110D2*
D16*
X2175197Y2084646D1*
G03X2210630Y2053150I37324J6311D01*
G01*
X2277559D1*
G02X2314961Y2015748I2J-37400D01*
G01*
Y1946850D1*
X1763780Y230000D2*
D18*
Y251969D1*
X1744094Y271654D1*
X1704724D1*
X1657480Y318898D1*
Y381890D1*
X1620079Y419291D1*
Y496063D1*
X1637795Y230000D2*
Y283465D1*
X1586614Y334646D1*
Y618110D1*
G02X1600394Y631890I13778J2D01*
G01*
X1620079Y629921D1*
X1710630Y324803D2*
D16*
X1771654D1*
Y324488D1*
X1834646Y391417D2*
D18*
Y370079D1*
G02X1822835Y358268I-11811J0D01*
G01*
X1783465D1*
G03X1771654Y346457I0J-11811D01*
G01*
Y324488D1*
X1710630Y994094D2*
D16*
X1768031D1*
X1771654Y997717D1*
X1834646Y1064646D2*
D18*
Y1043307D1*
G02X1822835Y1031496I-11811J0D01*
G01*
X1779528D1*
G03X1771654Y1023622I-2J-7872D01*
G01*
Y997717D1*
X1086614Y564370D2*
X1171850D1*
G02X1200787Y535433I1J-28936D01*
G01*
Y161417D1*
G03X1267717Y94488I66931J2D01*
G01*
X1535433D1*
G03X1574803Y133858I-1J39371D01*
G01*
Y163071D1*
X1086614Y564370D2*
D16*
X1016339D1*
X1015748Y564961D1*
X2431102Y990157D2*
D18*
Y911417D1*
G02X2374016Y854331I-57087J1D01*
G01*
X1937008D1*
G03X1905512Y822835I-2J-31494D01*
G01*
Y488189D1*
G02X1881890Y462598I-27341J1540D01*
G01*
X1834646Y462283D1*
X2391732Y990157D2*
Y938976D1*
Y990157D2*
Y907480D1*
G02X2354331Y870079I-37400J-2D01*
G01*
X1933071D1*
G03X1889764Y826772I-2J-43305D01*
G01*
Y622047D1*
G02X1866142Y598425I-23622J0D01*
G01*
X1834646Y596142D1*
X4625984Y1047244D2*
X4799213D1*
G02X4905512Y940945I2J-106298D01*
G01*
Y785039D1*
G03X5040551Y650000I134203J-837D01*
G01*
X2173228Y529213D2*
X2206378D1*
X2228346Y551181D1*
X2549211Y1438976D2*
Y1474408D1*
G02X2562992Y1488189I13782J-1D01*
G01*
X2606299D1*
X4625984Y1066929D2*
X4799213D1*
G02X4925197Y940945I-1J-125985D01*
G01*
Y811024D1*
G03X5035433Y700787I110236J0D01*
G01*
X5089764D1*
G02X5140551Y650000I833J-49954D01*
G01*
X4625984Y1145669D2*
X4708661D1*
G02X4748031Y1106299I-1J-39371D01*
G01*
X2996850Y167323D2*
D10*
X3053150D1*
X3232283Y346457D1*
Y462598D1*
X3253937Y484252D1*
Y1070866D1*
X3285433Y1102362D1*
Y1322835D1*
X3281496D1*
X4625984Y1165354D2*
D18*
X4748031D1*
G02X4807087Y1106299I1J-59054D01*
G01*
X2996850Y226378D2*
D10*
X3029528D1*
X3173228Y370079D1*
Y480315D1*
X3196850Y503937D1*
Y1330709D1*
X3224409Y1358268D1*
X3322835D1*
X3342520Y1338583D1*
X2937008Y1051181D2*
D18*
Y996063D1*
G02X2909449Y962598I-40716J5451D01*
G01*
G03X2862205Y911417I6621J-53508D01*
G01*
Y742126D1*
G02X2850394Y728346I-12795J-984D01*
G01*
X2826772D1*
G02X2811024Y742126I1312J17388D01*
G01*
Y870079D1*
X2801181Y879921D1*
X2763780D1*
X2751969Y891732D1*
Y946850D1*
X2720472Y978346D1*
Y1031496D1*
G03X2681102Y1066929I-39486J-4284D01*
G01*
X2645669D1*
X2049213Y324803D2*
D10*
X2110236D1*
Y324488D1*
X2173228D1*
X2049213Y458661D2*
X2106614D1*
X2110236Y462283D1*
X2173228D1*
X905512Y1946850D2*
D16*
Y2061024D1*
X906394Y2061906D1*
Y2120093D1*
X2411417Y1438976D2*
D10*
Y1399606D1*
X2387795Y1375984D1*
X2374016D1*
X968504Y1946850D2*
D16*
Y2051181D1*
X985134Y2067811D1*
Y2120093D1*
X2431102Y1438976D2*
D10*
Y1368110D1*
X2425197Y1362205D1*
X4106299Y1277244D2*
D16*
X4043307D1*
X3994213D1*
X3967178Y1250210D1*
X4326772Y1375984D2*
X4295276D1*
X4259843D1*
X4295276Y1299213D2*
D10*
Y1375984D1*
D19*
X3102362Y1350394D3*
D3*
X2543307Y641732D3*
X712598Y2196850D3*
X767717Y2194882D3*
X2826772Y2120079D3*
X1342520Y2118110D3*
X3185039Y2098425D3*
X761811Y1944882D3*
X4366142Y1917323D3*
X4405512D3*
X1127953Y1844488D3*
X2246063Y1838583D3*
X2582677Y1834646D3*
X2375984Y1830709D3*
X1830709Y1820866D3*
X2082677Y1818898D3*
X2153543D3*
X2326772D3*
X1322835Y1812992D3*
X1358268D3*
X1643701Y1789370D3*
X1690945D3*
X2564961Y1771654D3*
X303150Y1805118D3*
X2777559Y1769685D3*
X4767717Y1759843D3*
X4818898D3*
X4870079D3*
X4921260D3*
X3665354Y1755906D3*
X3960630Y1748031D3*
X2015748Y1724409D3*
X2078740Y1720472D3*
X3704724Y1716535D3*
X413386Y1653543D3*
X1106299Y1712598D3*
X4767717Y1704724D3*
X4818898D3*
X4870079D3*
X4921260D3*
X2078740Y1679134D3*
X413386Y1614173D3*
X1153543Y1657480D3*
X3131890D3*
X2750000Y1655512D3*
X4767717Y1649606D3*
X4818898D3*
X4870079D3*
X4921260D3*
X4070866Y1641732D3*
X4173228D3*
X4216535D3*
X4271654D3*
X4314961D3*
X3913386Y1637795D3*
X5015748D3*
X4555118Y1633858D3*
X1637795Y1625984D3*
X2066929D3*
X2348425Y1606299D3*
X2086614Y1578740D3*
D81*
X673228Y1543307D3*
X789370Y1541339D3*
X515748Y1539370D3*
D19*
X1149606D3*
D81*
X437008Y1535433D3*
D19*
X1879921Y1529528D3*
X1921260D3*
X1633858Y1527559D3*
X2031496Y1521654D3*
X2124016Y1507874D3*
X2167323D3*
X2606299Y1488189D3*
X2765748D3*
X1150591Y1480315D3*
X1323819D3*
X1633858Y1476378D3*
X2812992Y1474409D3*
D81*
X850394Y1472441D3*
D19*
X2862205D3*
X4822835Y1456693D3*
X4866142D3*
D81*
X850394Y1440945D3*
D19*
X2086614Y1438976D3*
X1150591Y1433071D3*
X1323819D3*
X3061024Y1425197D3*
X3594488D3*
X3669291D3*
X3708661D3*
X2944882Y1423228D3*
X3009843Y1421260D3*
X4822835Y1413386D3*
X4866142D3*
D81*
X850394Y1407480D3*
D19*
X2811024D3*
X4572835Y1124016D3*
X4515748Y1389764D3*
X2086614Y1387795D3*
X1150591Y1385827D3*
X1323819D3*
X3594488D3*
X3696850Y1377953D3*
X2374016Y1375984D3*
X4019685Y1372047D3*
X2559055Y1370079D3*
X4842520Y1366142D3*
X2425197Y1362205D3*
X2816929Y1358268D3*
X3456693Y1356299D3*
X1990157Y1354331D3*
X464567Y1346457D3*
X3342520Y1338583D3*
X2952756Y1322835D3*
X3281496D3*
X2277559Y1299213D3*
X1150591Y1318898D3*
X1323819D3*
X2320866Y1326772D3*
X3230315Y1314961D3*
X4637795Y1307087D3*
X2462598Y1301181D3*
X2511811D3*
X4685039Y1291339D3*
X1150591Y1271654D3*
X1323819D3*
X2360236Y1269685D3*
X2425197Y1267717D3*
X2312992Y1261811D3*
X2724409Y1250000D3*
X2773622Y1248031D3*
X2842520D3*
X4513780Y1242126D3*
X1150591Y1224409D3*
X1323819D3*
X4271654D3*
X2273622Y1222441D3*
D81*
X625437Y1213684D3*
X675442D3*
D19*
X192913Y1204724D3*
X1633858Y1196850D3*
X4338583Y1181102D3*
X4393701D3*
X4452756D3*
X4507874D3*
X2362205Y1179134D3*
X2842520D3*
X3330709Y1173228D3*
X3393701D3*
D81*
X625437Y1163678D3*
X675442D3*
D19*
X3515748Y1161417D3*
X2523622Y1149606D3*
X2740157Y1137795D3*
X2419291Y1135827D3*
X3230315Y1125984D3*
X4338583D3*
X4393701D3*
X4452756D3*
X4507874D3*
D81*
X625437Y1113673D3*
X675442D3*
D19*
X2787402Y1108268D3*
X4692913Y1106299D3*
X4748031D3*
X4807087D3*
X2984252Y1084646D3*
X3854331Y1078740D3*
X2387795Y1066929D3*
X4338583D3*
X4393701D3*
X4452756D3*
X4507874D3*
X2490157Y1055118D3*
X2549213D3*
X3427165D3*
X3492126D3*
X3679134D3*
X2435039Y1053150D3*
X2984252Y1045276D3*
X1893701Y1031496D3*
X1944882D3*
X1992126D3*
X2043307D3*
X2687008Y1013780D3*
X4338583Y1011811D3*
X4393701D3*
X4452756D3*
X4507874D3*
X3968504Y1000000D3*
X4023622Y996063D3*
X417323Y992126D3*
X501969D3*
X586614D3*
X667323D3*
X755906D3*
X850394D3*
X2639764D3*
X4074803D3*
X4271654D3*
X3102362Y974409D3*
X4153543Y972441D3*
X1645669Y960630D3*
X2834646Y956693D3*
X2216535Y952756D3*
X1885827Y940945D3*
X4783465Y933071D3*
X850394Y929134D3*
X464567Y913386D3*
X2791339D3*
X192913Y903543D3*
X4159449Y897638D3*
X850394Y895669D3*
X4625984Y893701D3*
X4783465D3*
X3535433Y868110D3*
X4653543Y866142D3*
X850394Y862205D3*
X4159449Y858268D3*
X2007874Y803150D3*
X3525591D3*
X3980315D3*
X2222441Y801181D3*
X4783465Y816929D3*
X2647638Y795276D3*
X2700787D3*
X2397638Y775591D3*
X2539370D3*
X3017717D3*
X3490157Y769685D3*
X3980315Y759843D3*
X4783465Y777559D3*
X3318898Y751969D3*
X4059055D3*
X4098425D3*
X4216535D3*
X4255906D3*
X2718504Y744094D3*
X3423228D3*
X3757874Y742126D3*
X2397638Y740157D3*
X2539370D3*
X1960630Y724409D3*
X2220472Y716535D3*
X2397638Y704724D3*
X2539370D3*
X2714567Y690945D3*
X1377953Y685039D3*
X2769685Y683071D3*
X4594488D3*
X4661417D3*
X4728346D3*
D81*
X625437Y670377D3*
X675442D3*
D19*
X2818898Y669291D3*
X3143701Y659449D3*
X3074803Y657480D3*
X2452756Y653543D3*
X1377953Y645669D3*
X2220472Y629921D3*
D81*
X625437Y620371D3*
X675442D3*
D19*
X1377953Y606299D3*
X1960630Y594488D3*
D81*
X625437Y570366D3*
X675442D3*
D19*
X1377953Y566929D3*
X2921260Y553150D3*
X2984252D3*
X1645669Y555118D3*
X4879921Y557087D3*
X2228346Y551181D3*
X1992126Y543307D3*
X1362205Y507874D3*
X1397638D3*
X4228346D3*
X4834646Y500000D3*
X4885827Y501969D3*
X3074803Y498031D3*
X2228346Y496063D3*
X3421260Y490157D3*
X3525591D3*
X4276378Y488189D3*
X4362205D3*
X2403543Y486220D3*
X3674016Y484252D3*
X3772441D3*
X3874803D3*
X3973228D3*
X4075591D3*
X4174016D3*
X2669291Y482283D3*
X2718504D3*
X2769685D3*
X2848425D3*
X2897638D3*
X2545276Y474409D3*
X2944882D3*
X1362205Y472441D3*
X1397638D3*
X2598425D3*
X899606Y466535D3*
X1960630Y460630D3*
X3271654Y452756D3*
X874016Y437008D3*
X2271654D3*
X4425197D3*
X4523622D3*
X4625984D3*
X4724409D3*
X4883858Y366142D3*
X4523622Y405512D3*
X4425197Y401575D3*
X4625984D3*
X4724409D3*
X874016Y397638D3*
X2279528Y385827D3*
X3468504Y391732D3*
X1362205Y381890D3*
X1397638D3*
X2228346D3*
X307087Y372047D3*
X405512Y370079D3*
X503937D3*
X606299D3*
X704724D3*
X807087D3*
X4523622D3*
X2015748Y366142D3*
X4425197D3*
X4625984D3*
X4724409D3*
X1362205Y346457D3*
X1397638D3*
X2253937Y338583D3*
X307087Y334646D3*
X405512D3*
X503937D3*
X606299D3*
X704724D3*
X807087D3*
X2517717Y326772D3*
X2311024Y322835D3*
X2405512Y320866D3*
X2812992D3*
X2858268D3*
X2903543Y318898D3*
X3273622Y301181D3*
X3399606D3*
X307087Y299213D3*
X405512D3*
X503937D3*
X606299D3*
X704724D3*
X807087D3*
X2592520Y293307D3*
X2643701Y291339D3*
X2517717Y289370D3*
X1362205Y283465D3*
X1397638D3*
X2370079Y279528D3*
X1791339Y275591D3*
X1838583D3*
X1901575D3*
X2027559D3*
X2086614D3*
X2812992D3*
X2858268D3*
X2903543Y273622D3*
X2149606Y271654D3*
X2212598D3*
X3273622Y255906D3*
X1362205Y248031D3*
X1397638D3*
X2480315Y232283D3*
X2812992Y230315D3*
X2858268D3*
X2903543D3*
X3161417Y208661D3*
X3200787D3*
X3240157D3*
X2480315Y198819D3*
X5011811Y161417D3*
X3161417Y169291D3*
X3200787D3*
X3240157D3*
X2480315Y163386D3*
X946850Y120079D3*
X3161417Y114173D3*
X3200787D3*
X3240157D3*
X946850Y82677D3*
X984252D3*
X3161417Y74803D3*
X3200787D3*
X3240157D3*
X2661417Y72835D3*
X4958661Y55118D3*
X2064961Y968504D3*
Y927165D3*
X2336614Y1645669D3*
X4572835Y1068898D3*
X5187008Y80709D3*
X4783465Y726378D3*
Y675197D3*
X4419291Y1242126D3*
X4368110D3*
D81*
X673228Y1543307D3*
X515748Y1539370D3*
X437008Y1535433D3*
D19*
X3669291Y1425197D3*
X3899606Y1192913D3*
X3702756Y1159449D3*
X4338583Y1125984D3*
D81*
X395669Y1826772D3*
X379921Y1724409D3*
X251222Y1454757D2*
D37*
X378706D1*
X251222Y1429888D2*
X378706D1*
X251222Y1405020D2*
X378706D1*
X251222Y1380151D2*
X378706D1*
X251222Y1355282D2*
X378706D1*
X251222Y1330413D2*
X378706D1*
X251222Y1305545D2*
X378706D1*
X251222Y1280676D2*
X319641D1*
X164615Y1255807D2*
X319641D1*
X164615Y1230938D2*
X319641D1*
X164615Y1206070D2*
X221228D1*
X164615Y1181201D2*
X221228D1*
X164615Y1156332D2*
X221228D1*
X162106Y1270971D2*
Y1134540D1*
X223712Y1134547D1*
X223720Y1196850D1*
X225016Y1202391D1*
X228633Y1206784D1*
X233827Y1209118D1*
X244423Y1209350D1*
X322139D1*
X322146Y1287402D1*
X323441Y1292942D1*
X327058Y1297335D1*
X332252Y1299669D1*
X344488Y1299902D1*
X381207D1*
X381201Y1479618D1*
X283902Y1479626D1*
X248727D1*
X248721Y1283465D1*
X247425Y1277924D1*
X243809Y1273531D1*
X238614Y1271197D1*
X227559Y1270964D1*
X162115D1*
X511072Y1458694D2*
X681851D1*
X511072Y1433825D2*
X681851D1*
X511072Y1408957D2*
X681851D1*
X511072Y1384088D2*
X614927D1*
X511072Y1359219D2*
X614927D1*
X520904Y1334350D2*
X567685D1*
X520904Y1309482D2*
X567685D1*
X520904Y1284613D2*
X567685D1*
X520904Y1259744D2*
X567685D1*
X617421Y1385809D2*
X617419Y1347146D1*
X582677D1*
X577969Y1346225D1*
X573324Y1342938D1*
X570617Y1337928D1*
X570177Y1334633D1*
X570180Y1246752D1*
X518406Y1246756D1*
Y1330709D1*
X517485Y1335417D1*
X514198Y1340062D1*
X509193Y1342769D1*
X508589Y1342921D1*
X508957Y1346567D1*
X508564Y1350217D1*
X508563Y1483563D1*
X684350Y1483566D1*
X684354Y1398327D1*
X629921D1*
X625213Y1397406D1*
X620568Y1394120D1*
X617861Y1389109D1*
X617421Y1385809D1*
X176426Y946883D2*
X221216D1*
X176426Y922014D2*
X370835D1*
X176426Y897146D2*
X370835D1*
X176426Y872277D2*
X370835D1*
X176426Y847408D2*
X370835D1*
X282715Y822539D2*
X370835D1*
X282715Y797671D2*
X370835D1*
X282715Y772802D2*
X370835D1*
X270999Y830958D2*
X276009Y828251D1*
X279296Y823606D1*
X280217Y818898D1*
Y762500D1*
X373318D1*
X373327Y850901D1*
Y936314D1*
X236232Y936319D1*
X232933Y936759D1*
X227928Y939466D1*
X224641Y944111D1*
X223720Y948819D1*
Y971753D1*
X173914Y971752D1*
X173917Y831394D1*
X267700Y831398D1*
X270999Y830958D1*
X512561Y911450D2*
X703507D1*
X512256Y886581D2*
X703507D1*
X511951Y861713D2*
X703507D1*
X511628Y836844D2*
X599173D1*
X511323Y811975D2*
X599173D1*
X518931Y787106D2*
X567685D1*
X518931Y762238D2*
X567685D1*
X519325Y737369D2*
X567685D1*
X519325Y712500D2*
X567685D1*
X516831Y751942D2*
Y705405D1*
X570186Y705413D1*
X570177Y783793D1*
Y791331D1*
X570617Y794626D1*
X573324Y799631D1*
X577969Y802918D1*
X582677Y803839D1*
X601666D1*
X601673Y842502D1*
X602113Y845807D1*
X604820Y850812D1*
X609465Y854099D1*
X614173Y855020D1*
X706002D1*
X706007Y936319D1*
X510385D1*
X509273Y848057D1*
X508708Y802892D1*
X512230Y800692D1*
X515517Y796047D1*
X516437Y791339D1*
Y756699D1*
X516831Y751942D1*
X613421Y651608D2*
X685788D1*
X613421Y626739D2*
X685788D1*
X613421Y601870D2*
X685788D1*
X613421Y577001D2*
X685788D1*
X266977Y552133D2*
X337370D1*
X609887D2*
X685788D1*
X266977Y527264D2*
X337370D1*
X702450D2*
X783500D1*
X266977Y502395D2*
X337370D1*
X562089D2*
X577543D1*
X721666D2*
X783500D1*
X266977Y477526D2*
X337370D1*
X542299D2*
X570187D1*
X729040D2*
X845329D1*
X266977Y452657D2*
X421770D1*
X489675D2*
X571371D1*
X727838D2*
X828696D1*
X266977Y427789D2*
X581257D1*
X717952D2*
X827118D1*
X572231Y471048D2*
X572562Y476111D1*
X572864Y479024D1*
X573214Y481074D1*
X574215Y486103D1*
X574894Y488951D1*
X575509Y490937D1*
X577157Y495793D1*
X578202Y498528D1*
X579071Y500417D1*
X581338Y505016D1*
X582732Y507591D1*
X583840Y509351D1*
X587278Y514468D1*
X565227D1*
X561918Y507183D1*
X559891Y503014D1*
X558002Y499705D1*
X552899Y492000D1*
X550589Y488970D1*
X544512Y482008D1*
X541821Y479310D1*
X534877Y473212D1*
X531853Y470894D1*
X524163Y465768D1*
X520860Y463870D1*
X512560Y459807D1*
X509034Y458362D1*
X500269Y455432D1*
X496583Y454466D1*
X487508Y452721D1*
X483727Y452251D1*
X474604Y451726D1*
X472864Y451673D1*
X433063Y451674D1*
X430427Y451785D1*
X429648Y451837D1*
X425923Y452328D1*
X424419Y452629D1*
X420790Y453602D1*
X419337Y454096D1*
X415866Y455534D1*
X414491Y456214D1*
X411237Y458093D1*
X409962Y458946D1*
X406982Y461234D1*
X405829Y462247D1*
X403173Y464904D1*
X402162Y466058D1*
X400730Y467815D1*
X352362D1*
X346817Y469114D1*
X343128Y471889D1*
X341122D1*
Y474841D1*
X340095Y477922D1*
X339862Y489337D1*
Y576078D1*
X264468Y576083D1*
X264476Y416437D1*
X459744D1*
X559744Y416428D1*
X592358Y416437D1*
X589749Y419405D1*
X587903Y421678D1*
X586701Y423375D1*
X583852Y427638D1*
X582319Y430132D1*
X581348Y431972D1*
X579081Y436570D1*
X577164Y441194D1*
X575516Y446049D1*
X574680Y448855D1*
X574219Y450883D1*
X573219Y455912D1*
X829626Y440920D2*
X829624Y416437D1*
X706861D1*
X709479Y419422D1*
X710812Y421030D1*
X712524Y423394D1*
X715373Y427657D1*
X716484Y429425D1*
X717874Y431992D1*
X720142Y436591D1*
X721013Y438489D1*
X722056Y441215D1*
X723704Y446070D1*
X724320Y448066D1*
X724998Y450905D1*
X725998Y455934D1*
X726348Y457993D1*
X726650Y460896D1*
X726985Y466013D1*
X727064Y468100D1*
X726984Y471018D1*
X726649Y476134D1*
X726454Y478213D1*
X725994Y481096D1*
X724994Y486125D1*
X724529Y488161D1*
X723697Y490959D1*
X722049Y495814D1*
X721322Y497772D1*
X720132Y500438D1*
X717864Y505036D1*
X716889Y506883D1*
X715360Y509370D1*
X712512Y513633D1*
X711304Y515336D1*
X709464Y517603D1*
X706083Y521458D1*
X704663Y522989D1*
X702543Y524996D1*
X698688Y528376D1*
X697080Y529709D1*
X694716Y531422D1*
X690453Y534271D1*
X688685Y535382D1*
X686118Y536772D1*
X681520Y539040D1*
X679622Y539911D1*
X676895Y540954D1*
X672040Y542602D1*
X670044Y543217D1*
X667205Y543896D1*
X662282Y544875D1*
X657236Y545546D1*
X652098Y545883D1*
X650010Y545962D1*
X647092Y545882D1*
X641725Y545528D1*
X637014Y544892D1*
X631985Y543891D1*
X629949Y543427D1*
X627151Y542594D1*
X622296Y540946D1*
X620338Y540220D1*
X617673Y539030D1*
X613074Y536762D1*
X611227Y535786D1*
X608741Y534259D1*
X607382Y533342D1*
Y554280D1*
X609630Y557451D1*
X610925Y562992D1*
X610917Y676476D1*
X688287Y676477D1*
Y571991D1*
X688520Y560593D1*
X690854Y555404D1*
X695247Y551787D1*
X700787Y550492D1*
X786004Y550498D1*
Y487638D1*
X794845D1*
X797153Y482569D1*
X801546Y478952D1*
X807087Y477657D1*
X847957Y477663D1*
X842627Y472333D1*
X841476Y471138D1*
X835966Y463808D1*
X832081Y455502D1*
X829984Y446566D1*
X829626Y440920D1*
X572396Y463443D2*
X572228Y466022D1*
X572396Y463443D1*
X572759Y458794D2*
X572564Y460874D1*
X572396Y463443D1*
X572759Y458794D1*
X609887Y1194915D2*
X685788D1*
X609887Y1170046D2*
X685788D1*
X609887Y1145177D2*
X685788D1*
X609887Y1120308D2*
X685788D1*
X609887Y1095440D2*
X685788D1*
X609887Y1070571D2*
X779571D1*
X609492Y1045702D2*
X779571D1*
X609492Y1020833D2*
X890507D1*
X266977Y995965D2*
X421770D1*
X489675D2*
X890507D1*
X833894Y971096D2*
X890507D1*
X524163Y1009075D2*
X527243Y1011122D1*
X594488D1*
X599196Y1012043D1*
X603841Y1015329D1*
X606548Y1020340D1*
X606988Y1023629D1*
X606996Y1057776D1*
X607382D1*
Y1219781D1*
X688287Y1219784D1*
Y1106299D1*
X689208Y1101591D1*
X692495Y1096946D1*
X697505Y1094239D1*
X700799Y1093799D1*
X782067Y1093800D1*
Y1026378D1*
X871477D1*
X871483Y1027008D1*
X893012Y1026999D1*
X893014Y967778D1*
X876713Y951477D1*
X831398Y951481D1*
Y962598D1*
X830477Y967307D1*
X827190Y971952D1*
X822180Y974659D1*
X818891Y975099D1*
X741240Y975106D1*
Y975492D1*
X628839D1*
X628845Y975099D1*
X264469Y975095D1*
X264464Y1011122D1*
X400734D1*
X402166Y1009358D1*
X403173Y1008211D1*
X405834Y1005547D1*
X406982Y1004541D1*
X409968Y1002248D1*
X411237Y1001400D1*
X414498Y999516D1*
X415866Y998841D1*
X419345Y997399D1*
X420790Y996909D1*
X424426Y995933D1*
X425923Y995635D1*
X429656Y995142D1*
X431178Y995043D1*
X433071Y994980D1*
X472867D1*
X474604Y995033D1*
X483727Y995558D1*
X487517Y996028D1*
X496583Y997773D1*
X500278Y998740D1*
X509034Y1001669D1*
X520860Y1007177D2*
X512560Y1003114D1*
X520860Y1007177D1*
X4557788Y1226411D2*
X4571609D1*
X4312197Y1201542D2*
X4347620D1*
X4388594D2*
X4398809D1*
X4439783D2*
X4493292D1*
X4534266D2*
X4571609D1*
X4278788Y1176673D2*
X4571609D1*
X4278788Y1151804D2*
X4535725D1*
X4278788Y1126936D2*
X4526036D1*
X4278788Y1102067D2*
X4531760D1*
X4278788Y1077198D2*
X4526736D1*
X4278788Y1052329D2*
X4529158D1*
X4301019Y1027461D2*
X4554421D1*
X4317292Y1002592D2*
X4571609D1*
X4316144Y977723D2*
X4571609D1*
X4294847Y952854D2*
X4571609D1*
X4538125Y1096578D2*
X4536988Y1097835D1*
X4532328Y1105860D1*
X4529438Y1114678D1*
X4528445Y1123905D1*
X4529392Y1133137D1*
X4532238Y1141970D1*
X4536858Y1150018D1*
X4543050Y1156930D1*
X4550544Y1162403D1*
X4559012Y1166199D1*
X4568085Y1168151D1*
X4574111Y1168166D1*
X4574114Y1251121D1*
X4557284Y1250921D1*
X4557771Y1248062D1*
X4558169Y1242126D1*
X4557222Y1233005D1*
X4554376Y1224172D1*
X4549757Y1216124D1*
X4543564Y1209212D1*
X4536070Y1203739D1*
X4527602Y1199943D1*
X4518530Y1197991D1*
X4509250Y1197968D1*
X4500168Y1199875D1*
X4491681Y1203628D1*
X4484159Y1209064D1*
X4477933Y1215945D1*
X4473273Y1223970D1*
X4470383Y1232789D1*
X4469390Y1242015D1*
X4470195Y1249868D1*
X4463023Y1249771D1*
X4463679Y1242568D1*
X4463681Y1242126D1*
X4462734Y1233005D1*
X4459888Y1224172D1*
X4455268Y1216124D1*
X4449076Y1209212D1*
X4441582Y1203739D1*
X4433114Y1199943D1*
X4424041Y1197991D1*
X4414761Y1197968D1*
X4405679Y1199875D1*
X4397192Y1203628D1*
X4393909Y1206001D1*
X4390401Y1203739D1*
X4381933Y1199943D1*
X4372860Y1197991D1*
X4363580Y1197968D1*
X4354498Y1199875D1*
X4346011Y1203628D1*
X4338490Y1209064D1*
X4332263Y1215945D1*
X4327603Y1223970D1*
X4324714Y1232789D1*
X4323721Y1242015D1*
X4324343Y1248083D1*
X4309324Y1247897D1*
X4311225Y1244522D1*
X4314542Y1235855D1*
X4315985Y1226688D1*
X4316043Y1224409D1*
X4315096Y1215289D1*
X4312250Y1206456D1*
X4307631Y1198407D1*
X4301438Y1191496D1*
X4293944Y1186022D1*
X4285476Y1182227D1*
X4276404Y1180275D1*
X4276286Y1180274D1*
X4276280Y1036277D1*
X4284949Y1034478D1*
X4293464Y1030788D1*
X4301026Y1025408D1*
X4307304Y1018574D1*
X4312024Y1010584D1*
X4314979Y1001787D1*
X4316041Y992568D1*
X4316043Y992126D1*
X4315096Y983005D1*
X4312250Y974172D1*
X4307631Y966124D1*
X4301438Y959212D1*
X4293944Y953739D1*
X4285476Y949943D1*
X4276404Y947991D1*
X4276286D1*
X4276280Y945579D1*
X4355424Y945571D1*
X4574112D1*
X4574114Y1024531D1*
X4568305Y1024740D1*
X4559223Y1026646D1*
X4550736Y1030400D1*
X4543214Y1035836D1*
X4536988Y1042717D1*
X4532328Y1050742D1*
X4529438Y1059560D1*
X4528445Y1068787D1*
X4529392Y1078019D1*
X4532238Y1086851D1*
X4536858Y1094900D1*
X4538134Y1096324D1*
X4617751Y1830741D2*
X4701528D1*
X4682199Y1805873D2*
X4701528D1*
X3992845Y1781004D2*
X4039429D1*
X4006768Y1756135D2*
X4027228D1*
X4281103Y1706398D2*
X4289757D1*
X4027312Y1681529D2*
X4037114D1*
X4238706D2*
X4249495D1*
X4337118D2*
X4379826D1*
X4535235D2*
X4554439D1*
X4027312Y1656660D2*
X4060601D1*
X4687420D2*
X4701528D1*
X4027312Y1631791D2*
X4089451D1*
X4050834Y1606923D2*
X4086850D1*
X4345013D2*
X4354366D1*
X4050834Y1582054D2*
X4086473D1*
X4288441D2*
X4354366D1*
X4511767D2*
X4519721D1*
X4050834Y1557185D2*
X4086096D1*
X4191177D2*
X4354366D1*
X4511767D2*
X4519721D1*
X4050834Y1532316D2*
X4085719D1*
X4191177D2*
X4217109D1*
X4511767D2*
X4519721D1*
X4191177Y1507448D2*
X4217109D1*
X4373451D2*
X4519721D1*
X3903293Y1741555D2*
X3916714D1*
X3916299Y1745753D1*
X3916794Y1755020D1*
X3919204Y1763981D1*
X3923426Y1772245D1*
X3929273Y1779451D1*
X3930600Y1780722D1*
X3931964Y1781923D1*
X3928217Y1780675D1*
X3923297Y1778249D1*
X3918753Y1775177D1*
X3914667Y1771516D1*
X3911117Y1767334D1*
X3908168Y1762709D1*
X3905875Y1757726D1*
X3904280Y1752478D1*
X3903412Y1747062D1*
X3903288Y1741559D1*
X4089472Y1614704D2*
X4088172Y1528956D1*
X4048327D1*
Y1613287D1*
X4024803Y1613281D1*
Y1741555D1*
X4004347Y1741556D1*
X4005020Y1748031D1*
X4005013Y1748806D1*
X4003882Y1758017D1*
X4000861Y1766791D1*
X3996081Y1774746D1*
X3989753Y1781533D1*
X3986972Y1783760D1*
X4043950Y1783759D1*
X4042103Y1781239D1*
X4040380Y1778708D1*
X4038745Y1776120D1*
X4037199Y1773477D1*
X4035744Y1770783D1*
X4034382Y1768041D1*
X4033114Y1765254D1*
X4031942Y1762426D1*
X4030868Y1759559D1*
X4029892Y1756657D1*
X4029015Y1753723D1*
X4028239Y1750761D1*
X4027565Y1747775D1*
X4026993Y1744767D1*
X4026525Y1741741D1*
X4026159Y1738701D1*
X4025898Y1735651D1*
X4025741Y1732593D1*
X4025689Y1729532D1*
X4025741Y1726470D1*
X4025898Y1723413D1*
X4026159Y1720362D1*
X4026524Y1717322D1*
X4026992Y1714297D1*
X4027564Y1711289D1*
X4028237Y1708302D1*
X4029013Y1705340D1*
X4029889Y1702406D1*
X4030865Y1699504D1*
X4031939Y1696637D1*
X4033111Y1693809D1*
X4034378Y1691022D1*
X4035740Y1688279D1*
X4037195Y1685585D1*
X4038740Y1682942D1*
X4040375Y1680354D1*
X4042098Y1677823D1*
X4043906Y1675352D1*
X4045797Y1672944D1*
X4047770Y1670602D1*
X4049821Y1668329D1*
X4051948Y1666128D1*
X4054150Y1664000D1*
X4056423Y1661948D1*
X4058764Y1659976D1*
X4061172Y1658084D1*
X4063643Y1656276D1*
X4066174Y1654553D1*
X4068762Y1652918D1*
X4071405Y1651372D1*
X4074099Y1649917D1*
X4076841Y1648555D1*
X4079628Y1647287D1*
X4082456Y1646115D1*
X4085323Y1645041D1*
X4088225Y1644065D1*
X4091159Y1643188D1*
X4094121Y1642413D1*
X4095889Y1641999D1*
X4095333Y1640871D1*
X4093600Y1636731D1*
X4092346Y1633044D1*
X4091168Y1628714D1*
X4356340Y1657800D2*
X4355638Y1659504D1*
X4354868Y1661171D1*
X4354029Y1662806D1*
X4353124Y1664405D1*
X4347651Y1671762D1*
X4340783Y1677839D1*
X4332813Y1682374D1*
X4324082Y1685175D1*
X4314961Y1686122D1*
X4271654D1*
X4269994Y1686091D1*
X4260915Y1684804D1*
X4252294Y1681678D1*
X4244500Y1676848D1*
X4242358Y1677839D1*
X4234388Y1682374D1*
X4225656Y1685175D1*
X4216535Y1686122D1*
X4193810D1*
X4194967Y1688275D1*
X4196329Y1691018D1*
X4197596Y1693805D1*
X4198768Y1696633D1*
X4200110Y1700269D1*
X4201378Y1699210D1*
X4203838Y1697373D1*
X4206395Y1695673D1*
X4209041Y1694116D1*
X4211768Y1692705D1*
X4214568Y1691445D1*
X4217432Y1690340D1*
X4220353Y1689393D1*
X4223320Y1688607D1*
X4226327Y1687984D1*
X4229363Y1687526D1*
X4232419Y1687235D1*
X4235487Y1687111D1*
X4238557Y1687155D1*
X4241620Y1687366D1*
X4244666Y1687745D1*
X4247688Y1688289D1*
X4250676Y1688997D1*
X4253620Y1689867D1*
X4256512Y1690897D1*
X4259344Y1692084D1*
X4262107Y1693423D1*
X4264792Y1694911D1*
X4267392Y1696543D1*
X4269900Y1698315D1*
X4272306Y1700222D1*
X4274605Y1702257D1*
X4276790Y1704414D1*
X4278853Y1706688D1*
X4280789Y1709070D1*
X4282592Y1711555D1*
X4284257Y1714135D1*
X4285443Y1716200D1*
X4290361Y1708704D1*
X4296660Y1701887D1*
X4303996Y1696200D1*
X4312167Y1691797D1*
X4320952Y1688800D1*
X4330111Y1687290D1*
X4339393Y1687307D1*
X4348545Y1688852D1*
X4357319Y1691883D1*
X4365474Y1696316D1*
X4372788Y1702031D1*
X4374039Y1703222D1*
X4374295Y1702928D1*
X4381475Y1697045D1*
X4389524Y1692423D1*
X4391200Y1691671D1*
X4392103Y1691298D1*
X4379930Y1679125D1*
X4375862Y1674094D1*
X4356870D1*
Y1656367D1*
X4356340Y1657800D1*
X4537893Y1687604D2*
X4541707Y1695809D1*
X4542639Y1696316D1*
X4547930Y1700249D1*
X4548714Y1698063D1*
X4549837Y1695214D1*
X4550435Y1693805D1*
X4551703Y1691018D1*
X4553065Y1688276D1*
X4554519Y1685582D1*
X4556065Y1682939D1*
X4557700Y1680351D1*
X4559277Y1678015D1*
X4550368Y1677993D1*
X4541296Y1676041D1*
X4532827Y1672246D1*
X4525333Y1666772D1*
X4519141Y1659860D1*
X4514521Y1651812D1*
X4511676Y1642979D1*
X4510728Y1633748D1*
X4511722Y1624521D1*
X4514611Y1615702D1*
X4519271Y1607677D1*
X4522225Y1604058D1*
X4522223Y1485118D1*
X4370945D1*
X4370944Y1522756D1*
X4509272D1*
Y1658063D1*
X4533856Y1682645D1*
X4537893Y1687604D1*
X4606310Y1634941D2*
X4704038D1*
X4704035Y1675225D1*
X4702231Y1672941D1*
X4700259Y1670599D1*
X4698208Y1668326D1*
X4696080Y1666124D1*
X4693878Y1663997D1*
X4691605Y1661945D1*
X4689264Y1659973D1*
X4686856Y1658082D1*
X4684385Y1656274D1*
X4681854Y1654551D1*
X4679266Y1652916D1*
X4676623Y1651370D1*
X4673929Y1649915D1*
X4671187Y1648553D1*
X4668400Y1647285D1*
X4665571Y1646114D1*
X4662704Y1645039D1*
X4659802Y1644063D1*
X4656868Y1643187D1*
X4653906Y1642412D1*
X4650920Y1641738D1*
X4647912Y1641166D1*
X4644886Y1640697D1*
X4641846Y1640332D1*
X4638796Y1640071D1*
X4635738Y1639914D1*
X4632677Y1639862D1*
X4629616Y1639914D1*
X4626558Y1640071D1*
X4623507Y1640332D1*
X4620467Y1640697D1*
X4617442Y1641166D1*
X4614434Y1641738D1*
X4611447Y1642412D1*
X4608486Y1643187D1*
X4605552Y1644064D1*
X4602650Y1645039D1*
X4599783Y1646114D1*
X4597498Y1647060D1*
X4598515Y1643196D1*
X4599508Y1633858D1*
X4598561Y1624737D1*
X4595715Y1615904D1*
X4595214Y1615032D1*
X4603242Y1615039D1*
X4603248Y1634941D1*
X4606310D1*
X4615253Y1817474D2*
X4615941Y1817617D1*
X4618959Y1818137D1*
X4621992Y1818554D1*
X4625038Y1818867D1*
X4628092Y1819076D1*
X4631152Y1819180D1*
X4634214D1*
X4637274Y1819075D1*
X4640328Y1818866D1*
X4643374Y1818553D1*
X4646407Y1818135D1*
X4649424Y1817615D1*
X4652422Y1816992D1*
X4655397Y1816267D1*
X4658345Y1815441D1*
X4661263Y1814514D1*
X4664148Y1813489D1*
X4666996Y1812365D1*
X4669804Y1811145D1*
X4672569Y1809830D1*
X4675287Y1808421D1*
X4677956Y1806921D1*
X4680572Y1805330D1*
X4683132Y1803650D1*
X4685633Y1801885D1*
X4688073Y1800034D1*
X4690448Y1798102D1*
X4692755Y1796090D1*
X4694993Y1794000D1*
X4697157Y1791835D1*
X4699247Y1789597D1*
X4701259Y1787289D1*
X4703191Y1784914D1*
X4704035Y1783801D1*
Y1855615D1*
X4615257Y1855610D1*
X4615256Y1817483D1*
X4089665Y1618361D2*
X4089781Y1620137D1*
X4089665Y1618361D1*
X4089547Y1616558D2*
X4089665Y1618361D1*
X4089547Y1616558D1*
X4090758Y1626663D2*
X4091105Y1628408D1*
X4090758Y1626663D1*
X4089804Y1620448D2*
X4090406Y1624895D1*
X4090758Y1626663D1*
X4089804Y1620448D1*
X4260011Y1571364D2*
X4257940Y1571229D1*
X4255880Y1571161D1*
X4188681Y1571154D1*
X4188683Y1485118D1*
X4219607Y1485114D1*
Y1548642D1*
X4356870Y1548643D1*
Y1627103D1*
X4356274Y1625494D1*
X4355566Y1623798D1*
X4354790Y1622134D1*
X4353945Y1620502D1*
X4353033Y1618907D1*
X4352056Y1617352D1*
X4346255Y1610250D1*
X4339118Y1604491D1*
X4330951Y1600322D1*
X4322101Y1597920D1*
X4314961Y1597342D1*
X4297973D1*
X4297521Y1596429D1*
X4295474Y1592884D1*
X4294335Y1591182D1*
X4291843Y1587936D1*
X4290492Y1586397D1*
X4287597Y1583503D1*
X4286057Y1582154D1*
X4282809Y1579663D1*
X4281106Y1578526D1*
X4277561Y1576480D1*
X4275724Y1575576D1*
X4266049Y1572294D2*
X4264147Y1571916D1*
X4266049Y1572294D1*
X4271942Y1574010D2*
X4270003Y1573353D1*
X4271942Y1574010D1*
X4401575Y1564961D2*
D16*
Y1522732D1*
X4356906Y1564961D2*
X4401575D1*
X4464567Y1522732D2*
Y1564961D1*
X4509236D2*
X4464567D1*
X4657480Y1634915D2*
Y1590551D1*
X4048301Y1559055D2*
X4003937D1*
X4057087Y1528921D2*
Y1484252D1*
X4192913Y1442913D2*
Y1485142D1*
X4389764Y1442913D2*
Y1485142D1*
X4452756Y1442913D2*
Y1485142D1*
X4515748D2*
Y1442913D1*
X4236220Y1743307D2*
D24*
Y1687142D1*
X4632677Y1819157D2*
Y1639898D1*
X4025725Y1729528D2*
D25*
X4115354D1*
X3156741Y190978D2*
D37*
X3244843D1*
X3156741Y166109D2*
X3244843D1*
X3154232Y215852D2*
Y162098D1*
X3232846Y162106D1*
X3247334D1*
X3247342Y215855D1*
X3168729Y215846D1*
X3154241D1*
X3156741Y96490D2*
X3244843D1*
X3156741Y71621D2*
X3244843D1*
X3154232Y121364D2*
Y67610D1*
X3232846Y67618D1*
X3247334D1*
X3247342Y121367D1*
X3168729Y121358D1*
X3154241D1*
X1357529Y364206D2*
X1402318D1*
X1357529Y339337D2*
X1402318D1*
X1355020Y389076D2*
Y339268D1*
X1404826Y339272D1*
X1404823Y389078D1*
X1355016Y389075D1*
X1357529Y265781D2*
X1400398D1*
X1357529Y240912D2*
X1400398D1*
X1402894Y240841D2*
Y273425D1*
X1404823D1*
Y290653D1*
X1355016Y290650D1*
X1355020Y240843D1*
X1402888Y240846D1*
X1357529Y490190D2*
X1402318D1*
X1357529Y465322D2*
X1402318D1*
X1355020Y515060D2*
Y465253D1*
X1404826Y465256D1*
X1404823Y515062D1*
X1355016Y515059D1*
X355560Y1789403D2*
X486974D1*
X361104Y1764534D2*
X410559D1*
X361104Y1739665D2*
X410559D1*
X361104Y1714797D2*
X410559D1*
X361104Y1689928D2*
X383376D1*
X412724Y1540715D2*
X830834D1*
X414249Y1515846D2*
X467632D1*
X744957D2*
X855702D1*
X824477Y1490978D2*
X864924D1*
X353048Y1777894D2*
X358602D1*
Y1620407D1*
X361028Y1620414D1*
X370600Y1629985D1*
X372374Y1633590D1*
X371879Y1634637D1*
X368923Y1643379D1*
X367787Y1652538D1*
X368518Y1661737D1*
X371086Y1670601D1*
X375385Y1678767D1*
X381241Y1685900D1*
X388412Y1691709D1*
X396606Y1695955D1*
X405487Y1698464D1*
X413046Y1699015D1*
X413051Y1777894D1*
X489476D1*
X489468Y1810638D1*
X485836Y1814272D1*
X353044D1*
X353051Y1777891D1*
X388130Y1529939D2*
X396948Y1532490D1*
X405069Y1536752D1*
X412173Y1542552D1*
X428341Y1558720D1*
X436020D1*
X438992Y1558366D1*
X453497D1*
X458722Y1557326D1*
X466564Y1556752D1*
X501634Y1556753D1*
Y1552815D1*
X726713D1*
X726711Y1554783D1*
X819269Y1554785D1*
X867421Y1506629D1*
X867425Y1490847D1*
X822109Y1490844D1*
X802175Y1510779D1*
X799099Y1513046D1*
X793307Y1514469D1*
X742461Y1514467D1*
Y1520020D1*
X627618D1*
X627625Y1518051D1*
X470138D1*
X470132Y1514469D1*
X411752Y1514472D1*
Y1518051D1*
X353051Y1518054D1*
X353058Y1529193D1*
X379895D1*
X388130Y1529939D1*
X3109489Y2059088D2*
X3159464D1*
X3109489Y2034219D2*
X3211729D1*
X3122569Y2009350D2*
X3211729D1*
X3142916Y1984482D2*
X3215013D1*
X3142916Y1959613D2*
X3231591D1*
X3142916Y1934744D2*
X3251866D1*
X3142916Y1909875D2*
X3251740D1*
X3142916Y1885007D2*
X3251597D1*
X3142916Y1860138D2*
X3251471D1*
X3164536Y1835269D2*
X3251346D1*
X3179464Y1810400D2*
X3251202D1*
X3180720Y1785531D2*
X3251076D1*
X3169452Y1760663D2*
X3250951D1*
X3113203Y1735794D2*
X3250807D1*
X3088336Y1710925D2*
X3209827D1*
X3130787Y1686056D2*
X3179308D1*
X3130787Y1661188D2*
X3154440D1*
X3224498Y1611450D2*
X3250161D1*
X3036304Y1586581D2*
X3079819D1*
X3199631D2*
X3250018D1*
X3036304Y1561713D2*
X3054951D1*
X3174763D2*
X3206526D1*
X3149895Y1536844D2*
X3181658D1*
X3125027Y1511975D2*
X3156791D1*
X3100160Y1487106D2*
X3131923D1*
X3224175D2*
X3249497D1*
X3075292Y1462238D2*
X3107055D1*
X3055017Y1437369D2*
X3082187D1*
X3108071Y1373500D2*
Y1362704D1*
X3108677Y1362795D1*
X3110275Y1365350D1*
X3114235Y1373611D1*
X3108071Y1373500D1*
X3101712Y1605964D2*
X3033802D1*
X3033798Y1541330D1*
X3038941Y1543195D1*
X3101710Y1605963D1*
X3232379Y1577537D2*
X3223737Y1574496D1*
X3216377Y1569056D1*
X3067930Y1420610D1*
X3055387Y1420609D1*
X3055453Y1421318D1*
X3054507Y1430498D1*
X3051733Y1439300D1*
X3051063Y1440505D1*
X3239147Y1628594D1*
X3243087Y1632539D1*
X3252768Y1632534D1*
X3252478Y1578091D1*
X3238215D1*
X3232379Y1577537D1*
X3116858Y2013363D2*
X3122110Y2005857D1*
X3124923Y1997147D1*
X3125335Y1992126D1*
X3125328Y1990590D1*
X3140414D1*
Y1848116D1*
X3140831Y1847991D1*
X3149273Y1844439D1*
X3157015Y1839547D1*
X3163846Y1833447D1*
X3169580Y1826305D1*
X3174061Y1818318D1*
X3177166Y1809701D1*
X3178810Y1800692D1*
X3179075Y1795276D1*
X3178316Y1786131D1*
X3176065Y1777254D1*
X3172383Y1768868D1*
X3167371Y1761202D1*
X3161166Y1754466D1*
X3153937Y1748843D1*
X3145881Y1744486D1*
X3137218Y1741515D1*
X3128184Y1740011D1*
X3119025Y1740014D1*
X3115506Y1740602D1*
X3083905Y1708997D1*
X3128288Y1708996D1*
Y1632542D1*
X3199338Y1703577D1*
X3206839Y1708822D1*
X3215548Y1711635D1*
X3220570Y1712046D1*
X3253183D1*
X3254432Y1947887D1*
X3248324Y1950205D1*
X3240348Y1954744D1*
X3233166Y1960457D1*
X3226951Y1967209D1*
X3221850Y1974838D1*
X3217985Y1983161D1*
X3215448Y1991981D1*
X3214301Y2001086D1*
X3214232Y2003937D1*
Y2043307D1*
X3214941Y2052457D1*
X3217051Y2061388D1*
X3217638Y2063129D1*
X3218278Y2064851D1*
X3218971Y2066553D1*
X3219425Y2067578D1*
X3218625D1*
X3217850Y2066743D1*
X3216547Y2065447D1*
X3215194Y2064205D1*
X3213791Y2063019D1*
X3212342Y2061890D1*
X3204429Y2057141D1*
X3195721Y2054083D1*
X3186577Y2052841D1*
X3177369Y2053465D1*
X3168476Y2055929D1*
X3160260Y2060133D1*
X3153059Y2065905D1*
X3149164Y2070601D1*
X3148680Y2070413D1*
X3140001Y2067773D1*
X3131001Y2066638D1*
X3121938Y2067041D1*
X3113074Y2068969D1*
X3106988Y2071429D1*
Y2023251D1*
X3116858Y2013363D1*
X3108065Y1373497D2*
X3250966Y1516397D1*
X3252155D1*
X3251888Y1465886D1*
X3218504D1*
X3213483Y1465474D1*
X3204773Y1462661D1*
X3197267Y1457410D1*
X3189471Y1449630D1*
X3118023Y1378181D1*
X3108065Y1373497D1*
X3062992Y1657480D2*
D16*
X3128252D1*
X3062992Y1606000D2*
Y1657480D1*
X3214210Y2023622D2*
X3273622D1*
X4615501Y686890D2*
D37*
X4579437D1*
X4579429Y671943D1*
X4737976Y671949D1*
X4738083Y679753D1*
X4739541Y686897D1*
X4682421Y686890D1*
X4615492Y686899D1*
X4818159Y1439009D2*
X4870824D1*
X4818159Y1414140D2*
X4870824D1*
X4820998Y1406201D2*
X4822381Y1407065D1*
X4831031Y1410281D1*
X4840152Y1411690D1*
X4849369Y1411235D1*
X4858306Y1408933D1*
X4863900Y1406198D1*
X4873327Y1406201D1*
Y1463878D1*
X4815650D1*
Y1406201D1*
X4820720D1*
X683601Y2226411D2*
X3214985D1*
X3332266D2*
X3502381D1*
X3619663D2*
X5176271D1*
X658733Y2201542D2*
X2387316D1*
X3204160D2*
X3214985D1*
X3332266D2*
X3502381D1*
X3619663D2*
X4315445D1*
X4401095D2*
X5176504D1*
X656741Y2176673D2*
X678260D1*
X778442D2*
X843273D1*
X1184293D2*
X1351142D1*
X1703967D2*
X1866887D1*
X2223660D2*
X2365893D1*
X3617815D2*
X3658782D1*
X3774288D2*
X4291080D1*
X4425460D2*
X4756497D1*
X4863983D2*
X5056489D1*
X5163974D2*
X5176755D1*
X798304Y2151804D2*
X843094D1*
X1262807D2*
X1351142D1*
X1776579D2*
X1866887D1*
X2292594D2*
X2355253D1*
X3986022D2*
X4281678D1*
X4434862D2*
X4731701D1*
X4888779D2*
X5031693D1*
X805822Y2126936D2*
X842932D1*
X1273608D2*
X1351142D1*
X1788995D2*
X1866887D1*
X2304794D2*
X2351808D1*
X3996177D2*
X4281068D1*
X4435472D2*
X4719985D1*
X4900495D2*
X5019977D1*
X804548Y2102067D2*
X842771D1*
X1270738D2*
X1351142D1*
X1787308D2*
X1866887D1*
X2302946D2*
X2351790D1*
X3992786D2*
X4289303D1*
X4427218D2*
X4716182D1*
X4904299D2*
X5016173D1*
X794196Y2077198D2*
X842609D1*
X1249997D2*
X1351142D1*
X1769169D2*
X1864106D1*
X2305656D2*
X2353585D1*
X3734546D2*
X3760550D1*
X3814496D2*
X3838078D1*
X3892024D2*
X3916825D1*
X3970771D2*
X4310762D1*
X4405778D2*
X4719250D1*
X4901213D2*
X5019259D1*
X659056Y2052329D2*
X688810D1*
X767875D2*
X842448D1*
X1235571D2*
X1303039D1*
X1760772D2*
X1839239D1*
X3618927D2*
X3641809D1*
X3738314D2*
X4730033D1*
X4890429D2*
X5030043D1*
X672710Y2027461D2*
X842286D1*
X1260439D2*
X1277418D1*
X1788116D2*
X1814371D1*
X3619663D2*
X3676437D1*
X3755735D2*
X4066409D1*
X4164295D2*
X4583733D1*
X4681619D2*
X4752891D1*
X4867589D2*
X5052883D1*
X5167581D2*
X5178208D1*
X674773Y2002592D2*
X842125D1*
X1789964D2*
X1803893D1*
X3619645D2*
X3696981D1*
X3768259D2*
X4040500D1*
X4190203D2*
X4557825D1*
X4707528D2*
X4851339D1*
X4869132D2*
X4951331D1*
X4969141D2*
X5051340D1*
X5069133D2*
X5178442D1*
X670485Y1977723D2*
X732570D1*
X791056D2*
X841963D1*
X3613168D2*
X3709989D1*
X3777015D2*
X4028730D1*
X4201973D2*
X4546055D1*
X4719298D2*
X4813033D1*
X5107439D2*
X5178675D1*
X656741Y1952854D2*
X717714D1*
X805912D2*
X841784D1*
X3897209D2*
X3909092D1*
X3997200D2*
X4025232D1*
X4205490D2*
X4340582D1*
X4431058D2*
X4542538D1*
X4722814D2*
X4805587D1*
X5114885D2*
X5178926D1*
X662985Y1927986D2*
X720477D1*
X803149D2*
X841622D1*
X4007409D2*
X4028910D1*
X4201794D2*
X4322658D1*
X4719118D2*
X4810790D1*
X5109700D2*
X5179159D1*
X672333Y1903117D2*
X752271D1*
X771355D2*
X841461D1*
X4004592D2*
X4040913D1*
X4189791D2*
X4323734D1*
X4707115D2*
X4836465D1*
X4884006D2*
X4936475D1*
X4983997D2*
X5028571D1*
X5091901D2*
X5179411D1*
X3889009Y1878248D2*
X3921078D1*
X3985215D2*
X4067360D1*
X4163344D2*
X4189868D1*
X4680668D2*
X5028571D1*
X5091901D2*
X5179644D1*
X802216Y1853379D2*
X859977D1*
X827083Y1828510D2*
X1052891D1*
X1274846D2*
X1450326D1*
X851951Y1803642D2*
X1096813D1*
X1311179D2*
X1482496D1*
X876819Y1778773D2*
X1107291D1*
X1335275D2*
X1522220D1*
X901687Y1753904D2*
X1094427D1*
X1118176D2*
X1185877D1*
X926554Y1729035D2*
X1064768D1*
X951422Y1704167D2*
X1062292D1*
X976290Y1679298D2*
X1061126D1*
X1001158Y1654429D2*
X1061126D1*
X1026043Y1629560D2*
X1061126D1*
X1050911Y1604692D2*
X1061126D1*
X1182365Y1747463D2*
X1179204Y1741188D1*
X1178323Y1737238D1*
X1140619Y1737235D1*
X1140024Y1738223D1*
X1133727Y1744874D1*
X1126147Y1750016D1*
X1117640Y1753408D1*
X1108602Y1754891D1*
X1099456Y1754398D1*
X1090631Y1751949D1*
X1082538Y1747661D1*
X1075556Y1741733D1*
X1070011Y1734443D1*
X1066164Y1726132D1*
X1064193Y1717187D1*
X1064191Y1708028D1*
X1066158Y1699083D1*
X1069433Y1691745D1*
X1063629D1*
Y1590407D1*
X1063157Y1588398D1*
X1057847Y1595248D1*
X787643Y1865453D1*
X852408Y1865459D1*
X862841Y1852947D1*
Y1839751D1*
X988828D1*
X1044148Y1839749D1*
X1065964Y1817933D1*
X1067981Y1816297D1*
X1072839Y1814428D1*
X1074817Y1814272D1*
X1098487Y1814271D1*
X1098788Y1814015D1*
X1098786Y1811020D1*
X1098850Y1809100D1*
X1099050Y1806033D1*
X1099552Y1802231D1*
X1100151Y1799220D1*
X1101145Y1795516D1*
X1102132Y1792609D1*
X1103601Y1789066D1*
X1104958Y1786313D1*
X1106877Y1782992D1*
X1108583Y1780439D1*
X1110918Y1777398D1*
X1112943Y1775089D1*
X1115655Y1772379D1*
X1117964Y1770354D1*
X1121007Y1768021D1*
X1123560Y1766315D1*
X1126881Y1764399D1*
X1129635Y1763041D1*
X1133178Y1761574D1*
X1136086Y1760588D1*
X1139790Y1759596D1*
X1142802Y1758997D1*
X1146604Y1758498D1*
X1149671Y1758297D1*
X1151592Y1758235D1*
X1192711Y1758237D1*
X1184774Y1750300D1*
X1182365Y1747463D1*
X1525036Y1781213D2*
X1527515Y1789526D1*
X1531986Y1796951D1*
X1534673Y1799973D1*
X1536118Y1801418D1*
X1534301Y1801542D1*
X1499992Y1801543D1*
X1498073Y1801606D1*
X1494746Y1801825D1*
X1490953Y1802324D1*
X1487681Y1802976D1*
X1483985Y1803967D1*
X1480826Y1805040D1*
X1477291Y1806505D1*
X1474299Y1807982D1*
X1470986Y1809895D1*
X1468211Y1811750D1*
X1465177Y1814079D1*
X1462668Y1816280D1*
X1459964Y1818986D1*
X1457764Y1821496D1*
X1455436Y1824531D1*
X1453582Y1827307D1*
X1451670Y1830620D1*
X1450195Y1833614D1*
X1448732Y1837149D1*
X1447963Y1839436D1*
X1429770D1*
X1429773Y1839750D1*
X1303786D1*
X1272342Y1839751D1*
X1272343Y1826778D1*
X1272273Y1825456D1*
X1270662Y1820511D1*
X1267178Y1816650D1*
X1267150Y1816535D1*
X1274086Y1816084D1*
X1277882Y1815583D1*
X1284182Y1814329D1*
X1287881Y1813337D1*
X1293963Y1811272D1*
X1297501Y1809806D1*
X1303261Y1806964D1*
X1306577Y1805048D1*
X1311917Y1801479D1*
X1314955Y1799147D1*
X1319783Y1794911D1*
X1322491Y1792203D1*
X1326725Y1787373D1*
X1329055Y1784334D1*
X1332623Y1778993D1*
X1334537Y1775676D1*
X1337377Y1769914D1*
X1338841Y1766376D1*
X1340905Y1760293D1*
X1341895Y1756594D1*
X1343156Y1750249D1*
Y1774422D1*
X1412369D1*
Y1778576D1*
X1516765D1*
Y1774691D1*
X1524570Y1774689D1*
X1524573Y1775569D1*
X1525036Y1781213D1*
X1142681Y1544475D2*
X1067946D1*
Y1536117D1*
X1142692Y1536122D1*
X1142684Y1544473D1*
X4423321Y1955751D2*
X4414626Y1958686D1*
X4405512Y1959679D1*
X4366142D1*
X4361694Y1959444D1*
X4352734Y1957501D1*
X4344403Y1953674D1*
X4337090Y1948145D1*
X4331138Y1941171D1*
X4326826Y1933080D1*
X4324356Y1924250D1*
X4323845Y1915096D1*
X4325315Y1906046D1*
X4327447Y1900117D1*
X4318773Y1898246D1*
X4310249Y1894818D1*
X4302427Y1889999D1*
X4295531Y1883928D1*
X4289761Y1876779D1*
X4285444Y1869047D1*
X4285404Y1869026D1*
X4285175Y1869640D1*
X4280553Y1877580D1*
X4274656Y1884624D1*
X4267652Y1890571D1*
X4259745Y1895248D1*
X4251161Y1898522D1*
X4242147Y1900298D1*
X4232962Y1900525D1*
X4223871Y1899197D1*
X4215136Y1896351D1*
X4207007Y1892070D1*
X4199718Y1886477D1*
X4193480Y1879733D1*
X4188471Y1872031D1*
X4186231Y1866831D1*
X4130543Y1866845D1*
X4133549Y1867428D1*
X4136532Y1868116D1*
X4139490Y1868908D1*
X4142419Y1869802D1*
X4145314Y1870799D1*
X4148173Y1871896D1*
X4150991Y1873092D1*
X4153766Y1874386D1*
X4156492Y1875774D1*
X4159167Y1877257D1*
X4161789Y1878832D1*
X4164354Y1880498D1*
X4166860Y1882253D1*
X4169303Y1884093D1*
X4171680Y1886018D1*
X4173989Y1888025D1*
X4176226Y1890111D1*
X4178389Y1892274D1*
X4180475Y1894510D1*
X4182482Y1896819D1*
X4184407Y1899196D1*
X4186248Y1901639D1*
X4188002Y1904144D1*
X4189668Y1906709D1*
X4191244Y1909331D1*
X4192727Y1912006D1*
X4194115Y1914732D1*
X4195408Y1917504D1*
X4196603Y1920319D1*
X4197700Y1923175D1*
X4198696Y1926067D1*
X4199590Y1928992D1*
X4200382Y1931947D1*
X4201070Y1934927D1*
X4201654Y1937929D1*
X4202132Y1940951D1*
X4202505Y1943986D1*
X4202772Y1947034D1*
X4202932Y1950088D1*
X4202986Y1953150D1*
X4202935Y1956118D1*
X4202778Y1959173D1*
X4202515Y1962220D1*
X4202145Y1965257D1*
X4201670Y1968278D1*
X4201089Y1971281D1*
X4200404Y1974262D1*
X4199616Y1977218D1*
X4198724Y1980144D1*
X4197731Y1983037D1*
X4196638Y1985893D1*
X4195446Y1988710D1*
X4194156Y1991484D1*
X4192770Y1994211D1*
X4191290Y1996887D1*
X4189717Y1999511D1*
X4188054Y2002078D1*
X4186302Y2004585D1*
X4184464Y2007030D1*
X4182541Y2009409D1*
X4180537Y2011720D1*
X4178453Y2013959D1*
X4176293Y2016124D1*
X4174058Y2018212D1*
X4171751Y2020221D1*
X4169376Y2022149D1*
X4166935Y2023992D1*
X4164432Y2025749D1*
X4161868Y2027417D1*
X4159248Y2028995D1*
X4156574Y2030481D1*
X4153850Y2031873D1*
X4151079Y2033168D1*
X4148265Y2034366D1*
X4145410Y2035465D1*
X4142519Y2036464D1*
X4139595Y2037361D1*
X4136641Y2038156D1*
X4133662Y2038847D1*
X4130660Y2039434D1*
X4127639Y2039915D1*
X4124604Y2040291D1*
X4121557Y2040561D1*
X4118502Y2040724D1*
X4115444Y2040781D1*
X4112386Y2040731D1*
X4109331Y2040574D1*
X4106284Y2040310D1*
X4103247Y2039940D1*
X4100226Y2039465D1*
X4097223Y2038885D1*
X4094242Y2038200D1*
X4091286Y2037411D1*
X4088360Y2036520D1*
X4085467Y2035527D1*
X4082610Y2034433D1*
X4079794Y2033241D1*
X4077020Y2031951D1*
X4074293Y2030566D1*
X4071617Y2029085D1*
X4068993Y2027513D1*
X4066426Y2025849D1*
X4063919Y2024098D1*
X4061474Y2022259D1*
X4059095Y2020337D1*
X4056784Y2018332D1*
X4054545Y2016249D1*
X4052380Y2014088D1*
X4050292Y2011853D1*
X4048283Y2009547D1*
X4046355Y2007172D1*
X4044512Y2004731D1*
X4042755Y2002227D1*
X4041086Y1999663D1*
X4039508Y1997043D1*
X4038023Y1994369D1*
X4036631Y1991645D1*
X4035336Y1988875D1*
X4034138Y1986060D1*
X4033039Y1983206D1*
X4032040Y1980315D1*
X4031143Y1977390D1*
X4030348Y1974437D1*
X4029657Y1971457D1*
X4029070Y1968455D1*
X4028588Y1965435D1*
X4028213Y1962399D1*
X4027943Y1959352D1*
X4027780Y1956298D1*
X4027723Y1953239D1*
X4027773Y1950181D1*
X4027930Y1947126D1*
X4028194Y1944079D1*
X4028563Y1941043D1*
X4029039Y1938021D1*
X4029619Y1935018D1*
X4030304Y1932037D1*
X4031093Y1929082D1*
X4031984Y1926156D1*
X4032977Y1923262D1*
X4034070Y1920406D1*
X4035263Y1917589D1*
X4036553Y1914815D1*
X4037938Y1912089D1*
X4039419Y1909412D1*
X4040991Y1906788D1*
X4042655Y1904221D1*
X4044406Y1901714D1*
X4046245Y1899269D1*
X4048167Y1896890D1*
X4050172Y1894580D1*
X4052255Y1892341D1*
X4054416Y1890175D1*
X4056651Y1888087D1*
X4058957Y1886078D1*
X4061332Y1884151D1*
X4063773Y1882307D1*
X4066277Y1880550D1*
X4068841Y1878882D1*
X4071461Y1877304D1*
X4074135Y1875818D1*
X4076861Y1874425D1*
X4079635Y1873128D1*
X4082453Y1871929D1*
X4085310Y1870830D1*
X4088205Y1869830D1*
X4091132Y1868933D1*
X4094089Y1868138D1*
X4097072Y1867447D1*
X4100253Y1866831D1*
X3886516Y1866838D1*
X3886520Y1881138D1*
X3886644Y1881225D1*
X3893087Y1887649D1*
X3898316Y1895095D1*
X3902174Y1903336D1*
X3903243Y1906595D1*
X3904073Y1903479D1*
X3907907Y1895227D1*
X3913115Y1887766D1*
X3919539Y1881323D1*
X3926985Y1876093D1*
X3935225Y1872236D1*
X3944011Y1869868D1*
X3953074Y1869062D1*
X3962139Y1869842D1*
X3970931Y1872184D1*
X3979183Y1876017D1*
X3986644Y1881225D1*
X3993087Y1887649D1*
X3998316Y1895095D1*
X4002174Y1903336D1*
X4004542Y1912121D1*
X4005348Y1921260D1*
X4004568Y1930249D1*
X4002226Y1939041D1*
X3998393Y1947293D1*
X3993185Y1954754D1*
X3986760Y1961197D1*
X3979315Y1966427D1*
X3971074Y1970284D1*
X3962289Y1972652D1*
X3953226Y1973458D1*
X3944160Y1972678D1*
X3935368Y1970336D1*
X3927116Y1966503D1*
X3919656Y1961295D1*
X3913212Y1954870D1*
X3907983Y1947425D1*
X3904125Y1939184D1*
X3903056Y1935924D1*
X3902226Y1939041D1*
X3898393Y1947293D1*
X3893185Y1954754D1*
X3886760Y1961197D1*
X3879315Y1966427D1*
X3871074Y1970284D1*
X3862289Y1972652D1*
X3853226Y1973458D1*
X3844160Y1972678D1*
X3835368Y1970336D1*
X3827116Y1966503D1*
X3825061Y1965256D1*
X3780980Y1965257D1*
X3779315Y1966427D1*
X3777456Y1967297D1*
X3776879Y1969446D1*
X3771637Y1987834D1*
X3770548Y1990970D1*
X3762999Y2009322D1*
X3761564Y2012316D1*
X3752001Y2029704D1*
X3750239Y2032517D1*
X3738783Y2048721D1*
X3736716Y2051319D1*
X3723512Y2066132D1*
X3721167Y2068481D1*
X3717242Y2071989D1*
X3721413Y2072777D1*
X3730050Y2076142D1*
X3737922Y2081037D1*
X3744760Y2087295D1*
X3747690Y2090824D1*
X3750473Y2087153D1*
X3757335Y2080921D1*
X3765226Y2076057D1*
X3773875Y2072725D1*
X3782990Y2071039D1*
X3792259Y2071057D1*
X3801367Y2072777D1*
X3810004Y2076142D1*
X3817876Y2081037D1*
X3824714Y2087295D1*
X3826408Y2089252D1*
X3828000Y2087153D1*
X3834862Y2080921D1*
X3842752Y2076057D1*
X3851402Y2072725D1*
X3860516Y2071039D1*
X3869785Y2071057D1*
X3878893Y2072777D1*
X3887530Y2076142D1*
X3895402Y2081037D1*
X3902240Y2087295D1*
X3904440Y2089888D1*
X3905428Y2088644D1*
X3907476Y2086366D1*
X3909659Y2084216D1*
X3911968Y2082203D1*
X3914397Y2080335D1*
X3916934Y2078619D1*
X3919572Y2077060D1*
X3922299Y2075665D1*
X3925107Y2074439D1*
X3927984Y2073387D1*
X3930920Y2072511D1*
X3933904Y2071817D1*
X3936925Y2071305D1*
X3939971Y2070979D1*
X3943031Y2070839D1*
X3946095Y2070886D1*
X3949149Y2071119D1*
X3952184Y2071539D1*
X3955188Y2072142D1*
X3958149Y2072928D1*
X3961057Y2073892D1*
X3963900Y2075032D1*
X3966669Y2076344D1*
X3969353Y2077821D1*
X3971941Y2079460D1*
X3974425Y2081253D1*
X3976795Y2083195D1*
X3979043Y2085277D1*
X3981159Y2087492D1*
X3983136Y2089832D1*
X3984967Y2092289D1*
X3986644Y2094852D1*
X3988162Y2097513D1*
X3989515Y2100262D1*
X3990699Y2103088D1*
X3991707Y2105981D1*
X3992537Y2108930D1*
X3993187Y2111924D1*
X3993652Y2114952D1*
X3993932Y2118003D1*
X3994025Y2121065D1*
X3993931Y2124127D1*
X3993651Y2127178D1*
X3993186Y2130206D1*
X3992537Y2133200D1*
X3991706Y2136149D1*
X3990697Y2139042D1*
X3989514Y2141868D1*
X3988160Y2144616D1*
X3986642Y2147277D1*
X3984964Y2149840D1*
X3983133Y2152297D1*
X3981156Y2154637D1*
X3979040Y2156852D1*
X3976792Y2158934D1*
X3974422Y2160875D1*
X3971938Y2162668D1*
X3969349Y2164307D1*
X3966666Y2165784D1*
X3963897Y2167095D1*
X3961053Y2168235D1*
X3958145Y2169199D1*
X3955184Y2169985D1*
X3952180Y2170588D1*
X3949145Y2171007D1*
X3946091Y2171240D1*
X3943027Y2171287D1*
X3939967Y2171147D1*
X3936921Y2170820D1*
X3933900Y2170308D1*
X3930916Y2169613D1*
X3927980Y2168738D1*
X3925103Y2167685D1*
X3922296Y2166459D1*
X3919568Y2165064D1*
X3916931Y2163505D1*
X3914393Y2161788D1*
X3911965Y2159920D1*
X3909656Y2157907D1*
X3907473Y2155758D1*
X3905425Y2153479D1*
X3904441Y2152239D1*
X3904295Y2152095D1*
X3900643Y2156511D1*
X3893523Y2162446D1*
X3885435Y2166973D1*
X3876652Y2169936D1*
X3867474Y2171234D1*
X3858214Y2170825D1*
X3849187Y2168720D1*
X3840700Y2164993D1*
X3833042Y2159770D1*
X3826475Y2153228D1*
X3826306Y2152982D1*
X3826176Y2152874D1*
X3824584Y2154973D1*
X3817722Y2161205D1*
X3809832Y2166069D1*
X3801182Y2169401D1*
X3792068Y2171087D1*
X3782799Y2171069D1*
X3778253Y2170211D1*
X3765580Y2182890D1*
X3760803Y2186711D1*
X3753735Y2189890D1*
X3746063Y2190978D1*
X3687017D1*
X3680937Y2190302D1*
X3673692Y2187552D1*
X3667497Y2182896D1*
X3651955Y2167356D1*
X3611959Y2167358D1*
X3613116Y2170027D1*
X3614179Y2172898D1*
X3615084Y2175823D1*
X3615828Y2178793D1*
X3616409Y2181799D1*
X3616825Y2184833D1*
X3617075Y2187884D1*
X3617159Y2190945D1*
Y2230315D1*
X3617130Y2232128D1*
X3616947Y2235184D1*
X3616599Y2238226D1*
X3616085Y2241244D1*
X3615407Y2244230D1*
X3614567Y2247175D1*
X3614032Y2248726D1*
X5178565Y2247359D1*
X5179404Y2160697D1*
X5174211Y2166300D1*
X5167370Y2172345D1*
X5159962Y2177678D1*
X5152059Y2182247D1*
X5143740Y2186006D1*
X5135089Y2188919D1*
X5126190Y2190955D1*
X5117133Y2192096D1*
X5108007Y2192329D1*
X5098904Y2191652D1*
X5089913Y2190072D1*
X5081124Y2187605D1*
X5072625Y2184275D1*
X5064499Y2180115D1*
X5056828Y2175167D1*
X5049687Y2169479D1*
X5043149Y2163109D1*
X5037277Y2156120D1*
X5032130Y2148580D1*
X5027760Y2140566D1*
X5024209Y2132156D1*
X5021513Y2123435D1*
X5019699Y2114488D1*
X5018785Y2105406D1*
X5018779Y2096277D1*
X5019683Y2087193D1*
X5021486Y2078245D1*
X5024172Y2069520D1*
X5027713Y2061106D1*
X5032074Y2053087D1*
X5037212Y2045541D1*
X5043075Y2038545D1*
X5049606Y2032167D1*
X5056740Y2026471D1*
X5064405Y2021514D1*
X5072526Y2017345D1*
X5081022Y2014005D1*
X5089808Y2011527D1*
X5098797Y2009937D1*
X5107899Y2009249D1*
X5117025Y2009471D1*
X5126084Y2010601D1*
X5134985Y2012627D1*
X5143640Y2015529D1*
X5151963Y2019279D1*
X5159871Y2023838D1*
X5167286Y2029163D1*
X5174134Y2035199D1*
X5180347Y2041887D1*
X5180558Y2042147D1*
X5182259Y1866831D1*
X5089403D1*
X5089410Y1907737D1*
X5093730Y1910752D1*
X5100173Y1917177D1*
X5105403Y1924622D1*
X5109260Y1932863D1*
X5111628Y1941648D1*
X5112434Y1950787D1*
X5111655Y1959777D1*
X5109312Y1968569D1*
X5105479Y1976821D1*
X5100271Y1984281D1*
X5093847Y1990725D1*
X5086401Y1995954D1*
X5078160Y1999812D1*
X5069375Y2002179D1*
X5060312Y2002986D1*
X5051247Y2002206D1*
X5042455Y1999864D1*
X5034203Y1996030D1*
X5026742Y1990822D1*
X5020299Y1984398D1*
X5015069Y1976952D1*
X5011212Y1968712D1*
X5010235Y1965767D1*
X5009227Y1968803D1*
X5008085Y1971647D1*
X5006778Y1974419D1*
X5005311Y1977110D1*
X5003689Y1979710D1*
X5001917Y1982210D1*
X5000001Y1984602D1*
X4997948Y1986878D1*
X4995765Y1989029D1*
X4993459Y1991048D1*
X4991039Y1992928D1*
X4988513Y1994663D1*
X4985889Y1996247D1*
X4983177Y1997674D1*
X4980386Y1998940D1*
X4977525Y2000039D1*
X4974605Y2000969D1*
X4971635Y2001726D1*
X4968626Y2002307D1*
X4965588Y2002711D1*
X4962531Y2002935D1*
X4959467Y2002980D1*
X4956405Y2002845D1*
X4953357Y2002530D1*
X4950332Y2002037D1*
X4947341Y2001368D1*
X4944395Y2000524D1*
X4941503Y1999508D1*
X4938676Y1998325D1*
X4935924Y1996978D1*
X4933255Y1995471D1*
X4930679Y1993811D1*
X4928205Y1992002D1*
X4925841Y1990051D1*
X4923596Y1987965D1*
X4921478Y1985750D1*
X4919493Y1983416D1*
X4917648Y1980968D1*
X4915950Y1978417D1*
X4914405Y1975770D1*
X4913018Y1973037D1*
X4911793Y1970228D1*
X4910736Y1967351D1*
X4910143Y1965452D1*
X4909312Y1968569D1*
X4905479Y1976821D1*
X4900271Y1984281D1*
X4893847Y1990725D1*
X4886401Y1995954D1*
X4878160Y1999812D1*
X4869375Y2002179D1*
X4860312Y2002986D1*
X4851247Y2002206D1*
X4842455Y1999864D1*
X4834203Y1996030D1*
X4826742Y1990822D1*
X4820299Y1984398D1*
X4815069Y1976952D1*
X4811212Y1968712D1*
X4808844Y1959926D1*
X4808038Y1950863D1*
X4808818Y1941798D1*
X4811160Y1933006D1*
X4814993Y1924754D1*
X4820201Y1917293D1*
X4826626Y1910850D1*
X4834071Y1905621D1*
X4842312Y1901763D1*
X4851097Y1899396D1*
X4860160Y1898589D1*
X4869225Y1899369D1*
X4878018Y1901711D1*
X4886269Y1905544D1*
X4893730Y1910752D1*
X4900173Y1917177D1*
X4905403Y1924622D1*
X4909260Y1932863D1*
X4910141Y1936132D1*
X4910738Y1934218D1*
X4911796Y1931341D1*
X4913020Y1928532D1*
X4914408Y1925799D1*
X4915953Y1923153D1*
X4917651Y1920602D1*
X4919496Y1918154D1*
X4921482Y1915820D1*
X4923601Y1913606D1*
X4925846Y1911520D1*
X4928210Y1909569D1*
X4930684Y1907761D1*
X4933260Y1906100D1*
X4935929Y1904594D1*
X4938682Y1903247D1*
X4941509Y1902064D1*
X4944401Y1901049D1*
X4947347Y1900206D1*
X4950338Y1899536D1*
X4953363Y1899044D1*
X4956411Y1898730D1*
X4959473Y1898595D1*
X4962537Y1898640D1*
X4965594Y1898865D1*
X4968632Y1899269D1*
X4971641Y1899850D1*
X4974611Y1900607D1*
X4977531Y1901538D1*
X4980391Y1902637D1*
X4983182Y1903903D1*
X4985894Y1905331D1*
X4988518Y1906915D1*
X4991044Y1908650D1*
X4993464Y1910531D1*
X4995769Y1912550D1*
X4997952Y1914702D1*
X5000005Y1916977D1*
X5001920Y1919369D1*
X5003692Y1921870D1*
X5005314Y1924470D1*
X5006781Y1927161D1*
X5008088Y1929933D1*
X5009229Y1932778D1*
X5010330Y1936123D1*
X5011160Y1933006D1*
X5014993Y1924754D1*
X5020201Y1917293D1*
X5026626Y1910850D1*
X5031070Y1907500D1*
X5031061Y1866831D1*
X4647866Y1866845D1*
X4650872Y1867428D1*
X4653855Y1868116D1*
X4656813Y1868908D1*
X4659741Y1869802D1*
X4662637Y1870799D1*
X4665495Y1871896D1*
X4668314Y1873092D1*
X4671089Y1874386D1*
X4673815Y1875774D1*
X4676490Y1877257D1*
X4679112Y1878832D1*
X4681677Y1880498D1*
X4684183Y1882253D1*
X4686626Y1884093D1*
X4689003Y1886018D1*
X4691312Y1888025D1*
X4693549Y1890111D1*
X4695712Y1892274D1*
X4697798Y1894510D1*
X4699805Y1896819D1*
X4701730Y1899196D1*
X4703570Y1901639D1*
X4705325Y1904144D1*
X4706991Y1906709D1*
X4708566Y1909331D1*
X4710049Y1912006D1*
X4711438Y1914732D1*
X4712731Y1917504D1*
X4713926Y1920319D1*
X4715022Y1923175D1*
X4716018Y1926067D1*
X4716913Y1928992D1*
X4717705Y1931947D1*
X4718393Y1934927D1*
X4718977Y1937929D1*
X4719455Y1940951D1*
X4719828Y1943986D1*
X4720095Y1947034D1*
X4720255Y1950088D1*
X4720308Y1953150D1*
X4720258Y1956118D1*
X4720101Y1959173D1*
X4719838Y1962220D1*
X4719468Y1965257D1*
X4718993Y1968278D1*
X4718412Y1971281D1*
X4717727Y1974262D1*
X4716938Y1977218D1*
X4716047Y1980144D1*
X4715054Y1983037D1*
X4713961Y1985893D1*
X4712769Y1988710D1*
X4711479Y1991484D1*
X4710093Y1994211D1*
X4708613Y1996887D1*
X4707040Y1999511D1*
X4705377Y2002078D1*
X4703625Y2004585D1*
X4701787Y2007030D1*
X4699864Y2009409D1*
X4697860Y2011720D1*
X4695776Y2013959D1*
X4693616Y2016124D1*
X4691381Y2018212D1*
X4689074Y2020221D1*
X4686699Y2022149D1*
X4684258Y2023992D1*
X4681754Y2025749D1*
X4679191Y2027417D1*
X4676571Y2028995D1*
X4673897Y2030481D1*
X4671173Y2031873D1*
X4668402Y2033168D1*
X4665588Y2034366D1*
X4662733Y2035465D1*
X4659842Y2036464D1*
X4656918Y2037361D1*
X4653964Y2038156D1*
X4650985Y2038847D1*
X4647983Y2039434D1*
X4644962Y2039915D1*
X4641927Y2040291D1*
X4638880Y2040561D1*
X4635825Y2040724D1*
X4632767Y2040781D1*
X4629709Y2040731D1*
X4626654Y2040574D1*
X4623607Y2040310D1*
X4620570Y2039940D1*
X4617549Y2039465D1*
X4614546Y2038885D1*
X4611564Y2038200D1*
X4608609Y2037411D1*
X4605683Y2036520D1*
X4602790Y2035527D1*
X4599933Y2034433D1*
X4597116Y2033241D1*
X4594343Y2031951D1*
X4591616Y2030566D1*
X4588939Y2029085D1*
X4586316Y2027513D1*
X4583749Y2025849D1*
X4581242Y2024098D1*
X4578797Y2022259D1*
X4576418Y2020337D1*
X4574107Y2018332D1*
X4571868Y2016249D1*
X4569703Y2014088D1*
X4567615Y2011853D1*
X4565606Y2009547D1*
X4563678Y2007172D1*
X4561835Y2004731D1*
X4560078Y2002227D1*
X4558409Y1999663D1*
X4556831Y1997043D1*
X4555346Y1994369D1*
X4553954Y1991645D1*
X4552659Y1988875D1*
X4551461Y1986060D1*
X4550362Y1983206D1*
X4549363Y1980315D1*
X4548465Y1977390D1*
X4547671Y1974437D1*
X4546980Y1971457D1*
X4546393Y1968455D1*
X4545911Y1965435D1*
X4545535Y1962399D1*
X4545266Y1959352D1*
X4545102Y1956298D1*
X4545046Y1953239D1*
X4545077Y1951331D1*
X4539352Y1951805D1*
X4430107D1*
X4423321Y1955751D1*
X3625171Y1965260D2*
X3625734Y1965679D1*
X3633864Y1969765D1*
X3642580Y1972377D1*
X3651617Y1973435D1*
X3660700Y1972909D1*
X3669554Y1970813D1*
X3677910Y1967212D1*
X3680887Y1965255D1*
X3717013Y1965256D1*
X3715614Y1970142D1*
X3709316Y1985452D1*
X3701340Y1999954D1*
X3691785Y2013468D1*
X3680772Y2025822D1*
X3668441Y2036862D1*
X3654948Y2046446D1*
X3640464Y2054454D1*
X3625171Y2060783D1*
X3613110Y2064250D1*
X3613568Y2063061D1*
X3616085Y2054237D1*
X3617130Y2045120D1*
X3617159Y2043307D1*
Y2003937D1*
X3616409Y1994792D1*
X3614179Y1985891D1*
X3610529Y1977472D1*
X3605556Y1969760D1*
X3601469Y1965252D1*
X3625060Y1965256D1*
X803174Y1935767D2*
X800248Y1927089D1*
X795524Y1919242D1*
X789224Y1912594D1*
X781642Y1907456D1*
X773133Y1904068D1*
X764095Y1902588D1*
X754949Y1903086D1*
X746125Y1905538D1*
X738034Y1909830D1*
X731054Y1915761D1*
X725513Y1923053D1*
X721670Y1931367D1*
X719703Y1940312D1*
X719705Y1949471D1*
X721676Y1958415D1*
X725523Y1966727D1*
X731068Y1974017D1*
X738049Y1979945D1*
X746142Y1984233D1*
X754968Y1986681D1*
X764114Y1987175D1*
X773152Y1985691D1*
X781659Y1982299D1*
X789239Y1977158D1*
X795536Y1970507D1*
X800256Y1962658D1*
X803178Y1953978D1*
X804167Y1944882D1*
X803174Y1935767D1*
X3505140Y2185728D2*
X3504918Y2189132D1*
X3504888Y2193757D1*
Y2230315D1*
X3504972Y2233376D1*
X3505222Y2236427D1*
X3505638Y2239460D1*
X3506219Y2242466D1*
X3506963Y2245436D1*
X3507868Y2248361D1*
X3508037Y2248818D1*
X3326568Y2248977D1*
X3327166Y2247175D1*
X3328005Y2244230D1*
X3328683Y2241244D1*
X3329197Y2238226D1*
X3329546Y2235184D1*
X3329728Y2232128D1*
X3329757Y2227503D1*
Y2190945D1*
X3329674Y2187884D1*
X3329497Y2185730D1*
X3505135Y2185728D1*
X3186850Y2216344D2*
X3217465Y2185729D1*
X3217738Y2185728D1*
X3217516Y2189132D1*
X3217487Y2193757D1*
Y2230315D1*
X3217570Y2233376D1*
X3217821Y2236427D1*
X3218237Y2239460D1*
X3218818Y2242466D1*
X3219562Y2245436D1*
X3220467Y2248361D1*
X3220729Y2249071D1*
X705961Y2251275D1*
X654235Y2199550D1*
X654232Y2132034D1*
X654885Y2135325D1*
X655221Y2136846D1*
X655685Y2138564D1*
X656940Y2142349D1*
X657761Y2144766D1*
X659576Y2149153D1*
X661844Y2153751D1*
X664216Y2157864D1*
X667065Y2162127D1*
X669954Y2165894D1*
X673335Y2169749D1*
X676691Y2173107D1*
X680545Y2176488D1*
X684311Y2179379D1*
X688574Y2182228D1*
X692685Y2184603D1*
X697283Y2186870D1*
X701669Y2188689D1*
X706524Y2190337D1*
X711110Y2191567D1*
X716138Y2192567D1*
X720845Y2193188D1*
X725993Y2193525D1*
X730817Y2193518D1*
X735825Y2193190D1*
X740532Y2192571D1*
X745561Y2191571D1*
X750147Y2190344D1*
X755002Y2188696D1*
X759389Y2186880D1*
X763988Y2184613D1*
X768100Y2182240D1*
X772363Y2179392D1*
X776130Y2176503D1*
X779985Y2173122D1*
X783343Y2169766D1*
X786724Y2165911D1*
X789615Y2162146D1*
X792464Y2157882D1*
X794839Y2153772D1*
X797107Y2149173D1*
X798925Y2144788D1*
X800573Y2139932D1*
X801803Y2135347D1*
X802803Y2130318D1*
X803425Y2125612D1*
X803760Y2120495D1*
X803761Y2115748D1*
X803426Y2110631D1*
X802808Y2105924D1*
X801808Y2100896D1*
X800580Y2096309D1*
X798932Y2091454D1*
X797117Y2087068D1*
X794849Y2082469D1*
X792476Y2078357D1*
X789628Y2074094D1*
X786739Y2070326D1*
X783358Y2066471D1*
X780002Y2063113D1*
X776147Y2059733D1*
X772382Y2056841D1*
X768119Y2053993D1*
X764008Y2051618D1*
X759381Y2049337D1*
X754921Y2047497D1*
X750169Y2045884D1*
X745583Y2044654D1*
X740555Y2043653D1*
X735848Y2043032D1*
X730732Y2042697D1*
X725984Y2042695D1*
X720868Y2043031D1*
X716161Y2043649D1*
X711132Y2044649D1*
X706546Y2045877D1*
X701691Y2047525D1*
X697304Y2049340D1*
X692705Y2051608D1*
X688593Y2053980D1*
X684330Y2056829D1*
X680563Y2059718D1*
X676708Y2063098D1*
X673350Y2066454D1*
X669969Y2070309D1*
X667078Y2074075D1*
X664229Y2078338D1*
X661854Y2082449D1*
X659586Y2087047D1*
X657768Y2091433D1*
X656120Y2096288D1*
X655650Y2097774D1*
X655193Y2099492D1*
X654387Y2103399D1*
X654232Y2104181D1*
Y2054508D1*
X658349Y2050273D1*
X663670Y2042796D1*
X667789Y2034595D1*
X670611Y2025862D1*
X672069Y2016801D1*
X672277Y2011811D1*
Y2000000D1*
X671576Y1990849D1*
X669489Y1981912D1*
X666066Y1973398D1*
X661385Y1965504D1*
X655556Y1958415D1*
X654227Y1957226D1*
X654232Y1935783D1*
X659764Y1929048D1*
X664426Y1921143D1*
X667786Y1912604D1*
X669759Y1903641D1*
X670308Y1895669D1*
Y1892755D1*
X746063Y1892749D1*
X754669Y1891657D1*
X767192Y1890453D1*
X843885D1*
X845768Y2177231D1*
X845855Y2178639D1*
X847528Y2183562D1*
X851061Y2187379D1*
X855840Y2189427D1*
X858426Y2189664D1*
X1169442Y2185727D1*
X1170607Y2185659D1*
X1175552Y2184048D1*
X1179412Y2180564D1*
X1181522Y2175811D1*
X1181791Y2173228D1*
Y2151525D1*
X1181986Y2151287D1*
X1183974Y2153645D1*
X1186089Y2155862D1*
X1188336Y2157945D1*
X1190705Y2159888D1*
X1193188Y2161682D1*
X1195776Y2163322D1*
X1198458Y2164801D1*
X1201227Y2166114D1*
X1204070Y2167255D1*
X1206977Y2168221D1*
X1209938Y2169008D1*
X1212941Y2169613D1*
X1215976Y2170034D1*
X1219030Y2170269D1*
X1222094Y2170317D1*
X1225154Y2170179D1*
X1228200Y2169854D1*
X1231221Y2169344D1*
X1234205Y2168651D1*
X1237142Y2167777D1*
X1240020Y2166726D1*
X1242828Y2165501D1*
X1245556Y2164108D1*
X1248194Y2162551D1*
X1250733Y2160835D1*
X1253162Y2158969D1*
X1255473Y2156957D1*
X1257657Y2154809D1*
X1259706Y2152531D1*
X1261612Y2150132D1*
X1263368Y2147622D1*
X1264968Y2145010D1*
X1266406Y2142305D1*
X1267677Y2139517D1*
X1268774Y2136657D1*
X1269696Y2133735D1*
X1270438Y2130762D1*
X1270997Y2127750D1*
X1271371Y2124710D1*
X1271560Y2121652D1*
X1271584Y2120093D1*
X1271491Y2117033D1*
X1271211Y2113982D1*
X1270746Y2110954D1*
X1270097Y2107960D1*
X1269266Y2105011D1*
X1268258Y2102118D1*
X1267075Y2099292D1*
X1265721Y2096544D1*
X1264203Y2093883D1*
X1262526Y2091319D1*
X1260695Y2088863D1*
X1258718Y2086522D1*
X1256602Y2084307D1*
X1254354Y2082225D1*
X1251984Y2080283D1*
X1249500Y2078490D1*
X1246912Y2076852D1*
X1244228Y2075374D1*
X1241459Y2074063D1*
X1238616Y2072923D1*
X1235708Y2071958D1*
X1232747Y2071172D1*
X1229743Y2070569D1*
X1226708Y2070150D1*
X1223654Y2069916D1*
X1220590Y2069869D1*
X1217530Y2070009D1*
X1215129Y2070266D1*
X1268675Y2016719D1*
X1269966Y2015205D1*
X1271193Y2013988D1*
X1273049Y2017189D1*
X1279477Y2026809D1*
X1281809Y2029850D1*
X1289438Y2038549D1*
X1292147Y2041259D1*
X1300846Y2048888D1*
X1303886Y2051222D1*
X1313506Y2057650D1*
X1316824Y2059567D1*
X1327201Y2064684D1*
X1330741Y2066152D1*
X1341698Y2069871D1*
X1345399Y2070864D1*
X1353639Y2072503D1*
X1353642Y2173216D1*
X1353711Y2174544D1*
X1355322Y2179489D1*
X1358806Y2183349D1*
X1363559Y2185459D1*
X1366142Y2185729D1*
X1688976D1*
X1694063Y2184647D1*
X1698269Y2181589D1*
X1700867Y2177079D1*
X1701476Y2163878D1*
Y2153200D1*
X1701837Y2153578D1*
X1704084Y2155662D1*
X1706453Y2157604D1*
X1708936Y2159399D1*
X1711524Y2161039D1*
X1714207Y2162518D1*
X1716975Y2163830D1*
X1719818Y2164972D1*
X1722725Y2165938D1*
X1725686Y2166725D1*
X1728689Y2167330D1*
X1731724Y2167751D1*
X1734778Y2167986D1*
X1737842Y2168034D1*
X1740902Y2167895D1*
X1743948Y2167571D1*
X1746969Y2167061D1*
X1749954Y2166368D1*
X1752890Y2165494D1*
X1755768Y2164443D1*
X1758576Y2163218D1*
X1761304Y2161824D1*
X1763942Y2160267D1*
X1766481Y2158552D1*
X1768910Y2156685D1*
X1771221Y2154674D1*
X1773405Y2152525D1*
X1775454Y2150247D1*
X1777360Y2147849D1*
X1779116Y2145339D1*
X1780716Y2142726D1*
X1782154Y2140021D1*
X1783425Y2137233D1*
X1784523Y2134373D1*
X1785444Y2131451D1*
X1786186Y2128479D1*
X1786745Y2125467D1*
X1787119Y2122426D1*
X1787308Y2119368D1*
X1787332Y2117810D1*
X1787239Y2114749D1*
X1786959Y2111699D1*
X1786494Y2108671D1*
X1785845Y2105676D1*
X1785014Y2102728D1*
X1784006Y2099835D1*
X1782823Y2097009D1*
X1781469Y2094260D1*
X1779951Y2091599D1*
X1778274Y2089036D1*
X1776443Y2086579D1*
X1774466Y2084239D1*
X1772350Y2082024D1*
X1770102Y2079941D1*
X1767732Y2078000D1*
X1765248Y2076207D1*
X1762660Y2074568D1*
X1759976Y2073090D1*
X1757207Y2071779D1*
X1754364Y2070639D1*
X1751456Y2069675D1*
X1748495Y2068889D1*
X1745491Y2068286D1*
X1742456Y2067866D1*
X1741272Y2067776D1*
X1783993Y2028939D1*
X1785976Y2026641D1*
X1787908Y2021813D1*
X1788082Y2019222D1*
X1787147Y1994127D1*
X1795309D1*
Y1978437D1*
X1798278Y1977054D1*
X1799324Y1976537D1*
X1804468Y1973400D1*
X1806398Y1971998D1*
Y2011798D1*
X1806554Y2013781D1*
X1808423Y2018633D1*
X1810059Y2020650D1*
X1869390Y2079981D1*
Y2173221D1*
X1869459Y2174544D1*
X1871070Y2179489D1*
X1874554Y2183349D1*
X1879307Y2185459D1*
X1881890Y2185728D1*
X2208646D1*
X2209977Y2185659D1*
X2214922Y2184048D1*
X2218783Y2180564D1*
X2220892Y2175811D1*
X2221162Y2173228D1*
X2221164Y2157055D1*
X2222169Y2157881D1*
X2224651Y2159677D1*
X2227237Y2161319D1*
X2229919Y2162800D1*
X2232686Y2164115D1*
X2235529Y2165259D1*
X2238435Y2166227D1*
X2241395Y2167016D1*
X2244398Y2167624D1*
X2247432Y2168047D1*
X2250487Y2168284D1*
X2253550Y2168335D1*
X2256611Y2168199D1*
X2259657Y2167877D1*
X2262678Y2167369D1*
X2265663Y2166678D1*
X2268600Y2165807D1*
X2271479Y2164758D1*
X2274288Y2163535D1*
X2277017Y2162144D1*
X2279657Y2160589D1*
X2282197Y2158876D1*
X2284627Y2157011D1*
X2286940Y2155001D1*
X2289125Y2152854D1*
X2291176Y2150578D1*
X2293084Y2148181D1*
X2294843Y2145673D1*
X2296445Y2143061D1*
X2297885Y2140357D1*
X2299157Y2137570D1*
X2300257Y2134711D1*
X2301181Y2131790D1*
X2301925Y2128818D1*
X2302487Y2125806D1*
X2302864Y2122766D1*
X2303055Y2119708D1*
X2303080Y2118110D1*
X2302987Y2115050D1*
X2302707Y2111999D1*
X2302242Y2108971D1*
X2301593Y2105977D1*
X2300762Y2103028D1*
X2299754Y2100135D1*
X2298571Y2097309D1*
X2297217Y2094561D1*
X2295699Y2091900D1*
X2294022Y2089336D1*
X2292191Y2086880D1*
X2290214Y2084539D1*
X2288098Y2082324D1*
X2287325Y2081586D1*
X2293042Y2080459D1*
X2296614Y2079495D1*
X2301226Y2077929D1*
X2304772Y2076462D1*
X2309263Y2074247D1*
X2312464Y2072391D1*
X2313713Y2071556D1*
X2357202Y2071559D1*
X2355569Y2079776D1*
X2355097Y2083363D1*
X2354357Y2094660D1*
X2354298Y2096478D1*
X2354299Y2125992D1*
X2354358Y2127811D1*
X2354965Y2137046D1*
X2355438Y2140639D1*
X2357245Y2149716D1*
X2358184Y2153216D1*
X2361160Y2161979D1*
X2362547Y2165327D1*
X2366641Y2173627D1*
X2368454Y2176766D1*
X2373597Y2184460D1*
X2375804Y2187335D1*
X2381907Y2194292D1*
X2384470Y2196854D1*
X2391429Y2202955D1*
X2394305Y2205161D1*
X2402000Y2210302D1*
X2405139Y2212113D1*
X2413440Y2216205D1*
X2416789Y2217591D1*
X2425553Y2220565D1*
X2429054Y2221502D1*
X2438131Y2223306D1*
X2441724Y2223779D1*
X2450959Y2224383D1*
X2452783Y2224442D1*
X3167323D1*
X3174995Y2223354D1*
X3182068Y2220170D1*
X3186850Y2216344D1*
X4901344Y2091616D2*
X4899978Y2082591D1*
X4897720Y2073746D1*
X4894593Y2065169D1*
X4890628Y2056947D1*
X4885863Y2049161D1*
X4880347Y2041887D1*
X4874134Y2035199D1*
X4867286Y2029163D1*
X4859871Y2023838D1*
X4851963Y2019279D1*
X4843640Y2015529D1*
X4834985Y2012627D1*
X4826084Y2010601D1*
X4817025Y2009471D1*
X4807899Y2009249D1*
X4798797Y2009937D1*
X4789808Y2011527D1*
X4781022Y2014005D1*
X4772526Y2017345D1*
X4764405Y2021514D1*
X4756740Y2026471D1*
X4749606Y2032167D1*
X4743075Y2038545D1*
X4737212Y2045541D1*
X4732074Y2053087D1*
X4727713Y2061106D1*
X4724172Y2069520D1*
X4721486Y2078245D1*
X4719683Y2087193D1*
X4718779Y2096277D1*
X4718785Y2105406D1*
X4719699Y2114488D1*
X4721513Y2123435D1*
X4724209Y2132156D1*
X4727760Y2140566D1*
X4732130Y2148580D1*
X4737277Y2156120D1*
X4743149Y2163109D1*
X4749687Y2169479D1*
X4756828Y2175167D1*
X4764499Y2180115D1*
X4772625Y2184275D1*
X4781124Y2187605D1*
X4789913Y2190072D1*
X4798904Y2191652D1*
X4808007Y2192329D1*
X4817133Y2192096D1*
X4826190Y2190955D1*
X4835089Y2188919D1*
X4843740Y2186006D1*
X4852059Y2182247D1*
X4859962Y2177678D1*
X4867370Y2172345D1*
X4874211Y2166300D1*
X4880416Y2159605D1*
X4885924Y2152325D1*
X4890679Y2144533D1*
X4894635Y2136306D1*
X4897752Y2127726D1*
X4900000Y2118878D1*
X4901355Y2109851D1*
X4901804Y2100787D1*
X4901344Y2091616D1*
X4282856Y2140210D2*
X4283188Y2145274D1*
X4282856Y2140210D1*
X4284309Y2152507D2*
X4284807Y2155010D1*
X4284309Y2152507D1*
X4283806Y2149976D2*
X4284309Y2152507D1*
X4283806Y2149976D1*
X4286862Y2162034D2*
X4287682Y2164451D1*
X4286862Y2162034D1*
X4286033Y2159591D2*
X4286862Y2162034D1*
X4286033Y2159591D1*
X4290636Y2171147D2*
X4291765Y2173436D1*
X4290636Y2171147D1*
X4289496Y2168833D2*
X4290636Y2171147D1*
X4289496Y2168833D1*
X4295568Y2179690D2*
X4296986Y2181812D1*
X4295568Y2179690D1*
X4294135Y2177544D2*
X4295568Y2179690D1*
X4294135Y2177544D1*
X4301573Y2187515D2*
X4303256Y2189434D1*
X4301573Y2187515D1*
X4299872Y2185575D2*
X4301573Y2187515D1*
X4299872Y2185575D1*
X4308548Y2194490D2*
X4310467Y2196173D1*
X4308548Y2194490D1*
X4306608Y2192789D2*
X4308548Y2194490D1*
X4306608Y2192789D1*
X4316373Y2200495D2*
X4318495Y2201913D1*
X4316373Y2200495D1*
X4314229Y2199061D2*
X4316373Y2200495D1*
X4314229Y2199061D1*
X4324916Y2205427D2*
X4327205Y2206555D1*
X4324916Y2205427D1*
X4322602Y2204285D2*
X4324916Y2205427D1*
X4322602Y2204285D1*
X4334029Y2209201D2*
X4336445Y2210022D1*
X4334029Y2209201D1*
X4331586Y2208372D2*
X4334029Y2209201D1*
X4331586Y2208372D1*
X4343556Y2211754D2*
X4346060Y2212252D1*
X4343556Y2211754D1*
X4341026Y2211251D2*
X4343556Y2211754D1*
X4341026Y2211251D1*
X4353336Y2213042D2*
X4355883Y2213209D1*
X4353336Y2213042D1*
X4350762Y2212873D2*
X4353336Y2213042D1*
X4350762Y2212873D1*
X4363200Y2213042D2*
X4365746Y2212875D1*
X4363200Y2213042D1*
X4360625Y2213210D2*
X4363200Y2213042D1*
X4360625Y2213210D1*
X4372979Y2211754D2*
X4375482Y2211256D1*
X4372979Y2211754D1*
X4370449Y2212257D2*
X4372979Y2211754D1*
X4370449Y2212257D1*
X4382507Y2209201D2*
X4384924Y2208381D1*
X4382507Y2209201D1*
X4380064Y2210030D2*
X4382507Y2209201D1*
X4380064Y2210030D1*
X4391620Y2205427D2*
X4393909Y2204298D1*
X4391620Y2205427D1*
X4389306Y2206567D2*
X4391620Y2205427D1*
X4389306Y2206567D1*
X4400162Y2200495D2*
X4402284Y2199077D1*
X4400162Y2200495D1*
X4398017Y2201928D2*
X4400162Y2200495D1*
X4398017Y2201928D1*
X4407988Y2194490D2*
X4409929Y2192786D1*
X4407988Y2194490D1*
X4406048Y2196191D2*
X4407988Y2194490D1*
X4406048Y2196191D1*
X4413336Y2189370D2*
X4416645Y2185596D1*
X4413336Y2189370D1*
X4420967Y2179690D2*
X4422385Y2177567D1*
X4420967Y2179690D1*
X4419534Y2181834D2*
X4420967Y2179690D1*
X4419534Y2181834D1*
X4425899Y2171147D2*
X4427028Y2168858D1*
X4425899Y2171147D1*
X4424758Y2173461D2*
X4425899Y2171147D1*
X4424758Y2173461D1*
X4429674Y2162034D2*
X4430494Y2159617D1*
X4429674Y2162034D1*
X4428844Y2164477D2*
X4429674Y2162034D1*
X4428844Y2164477D1*
X4432227Y2152507D2*
X4432725Y2150003D1*
X4432227Y2152507D1*
X4431723Y2155037D2*
X4432227Y2152507D1*
X4431723Y2155037D1*
X4433514Y2142727D2*
X4433681Y2140180D1*
X4433514Y2142727D1*
X4433345Y2145301D2*
X4433514Y2142727D1*
X4433345Y2145301D1*
X4433514Y2132863D2*
X4433347Y2130317D1*
X4433514Y2132863D1*
X4433683Y2135438D2*
X4433514Y2132863D1*
X4433683Y2135438D1*
X4432227Y2123084D2*
X4431729Y2120581D1*
X4432227Y2123084D1*
X4432730Y2125614D2*
X4432227Y2123084D1*
X4432730Y2125614D1*
X4429674Y2113556D2*
X4428853Y2111139D1*
X4429674Y2113556D1*
X4430503Y2115999D2*
X4429674Y2113556D1*
X4430503Y2115999D1*
X4425899Y2104443D2*
X4424770Y2102154D1*
X4425899Y2104443D1*
X4427040Y2106757D2*
X4425899Y2104443D1*
X4427040Y2106757D1*
X4420967Y2095901D2*
X4419549Y2093779D1*
X4420967Y2095901D1*
X4422400Y2098046D2*
X4420967Y2095901D1*
X4422400Y2098046D1*
X4414962Y2088075D2*
X4413280Y2086156D1*
X4414962Y2088075D1*
X4416663Y2090015D2*
X4414962Y2088075D1*
X4416663Y2090015D1*
X4407988Y2081101D2*
X4406069Y2079418D1*
X4407988Y2081101D1*
X4409927Y2082802D2*
X4407988Y2081101D1*
X4409927Y2082802D1*
X4400162Y2075096D2*
X4398040Y2073678D1*
X4400162Y2075096D1*
X4402307Y2076529D2*
X4400162Y2075096D1*
X4402307Y2076529D1*
X4391620Y2070164D2*
X4389331Y2069035D1*
X4391620Y2070164D1*
X4393933Y2071305D2*
X4391620Y2070164D1*
X4393933Y2071305D1*
X4382507Y2066389D2*
X4380090Y2065569D1*
X4382507Y2066389D1*
X4384950Y2067219D2*
X4382507Y2066389D1*
X4384950Y2067219D1*
X4372979Y2063836D2*
X4370476Y2063338D1*
X4372979Y2063836D1*
X4375509Y2064340D2*
X4372979Y2063836D1*
X4375509Y2064340D1*
X4363200Y2062549D2*
X4360653Y2062382D1*
X4363200Y2062549D1*
X4365774Y2062718D2*
X4363200Y2062549D1*
X4365774Y2062718D1*
X4353336Y2062549D2*
X4350789Y2062716D1*
X4353336Y2062549D1*
X4355910Y2062380D2*
X4353336Y2062549D1*
X4355910Y2062380D1*
X4343556Y2063836D2*
X4341053Y2064334D1*
X4343556Y2063836D1*
X4346087Y2063333D2*
X4343556Y2063836D1*
X4346087Y2063333D1*
X4334029Y2066389D2*
X4331583Y2067221D1*
X4334029Y2066389D1*
X4336472Y2065560D2*
X4334029Y2066389D1*
X4336472Y2065560D1*
X4327128Y2069073D2*
X4322627Y2071293D1*
X4327128Y2069073D1*
X4316373Y2075096D2*
X4314251Y2076514D1*
X4316373Y2075096D1*
X4318519Y2073663D2*
X4316373Y2075096D1*
X4318519Y2073663D1*
X4308548Y2081101D2*
X4306629Y2082783D1*
X4308548Y2081101D1*
X4310488Y2079400D2*
X4308548Y2081101D1*
X4310488Y2079400D1*
X4301573Y2088075D2*
X4299890Y2089994D1*
X4301573Y2088075D1*
X4303274Y2086136D2*
X4301573Y2088075D1*
X4303274Y2086136D1*
X4295568Y2095901D2*
X4294150Y2098023D1*
X4295568Y2095901D1*
X4297002Y2093756D2*
X4295568Y2095901D1*
X4297002Y2093756D1*
X4290636Y2104443D2*
X4289508Y2106732D1*
X4290636Y2104443D1*
X4291778Y2102130D2*
X4290636Y2104443D1*
X4291778Y2102130D1*
X4286862Y2113556D2*
X4286041Y2115973D1*
X4286862Y2113556D1*
X4287691Y2111113D2*
X4286862Y2113556D1*
X4287691Y2111113D1*
X4284309Y2123084D2*
X4283811Y2125587D1*
X4284309Y2123084D1*
X4284812Y2120554D2*
X4284309Y2123084D1*
X4284812Y2120554D1*
X4283021Y2132863D2*
X4282853Y2135441D1*
X4283021Y2132863D1*
X4283190Y2130289D2*
X4283021Y2132863D1*
X4283190Y2130289D1*
X1270980Y2013556D2*
X1271133Y2013867D1*
X1283465Y1839727D2*
D16*
Y1879921D1*
X1346457Y1839726D2*
Y1879921D1*
X1464567Y1778551D2*
Y1736220D1*
X1385827Y1774447D2*
Y1734252D1*
X1106299Y1544451D2*
Y1584646D1*
X1063664D1*
X4236220Y1900587D2*
D24*
Y1846457D1*
X4632677Y2040745D2*
Y1953150D1*
X4545082D2*
X4720273D1*
X4115354Y2040745D2*
Y1953150D1*
X4027759D2*
X4202950D1*
X3504891Y2210630D2*
X3617156D1*
X3217490D2*
X3329754D1*
X3561024Y2023622D2*
X3617156D1*
X3943795Y2171257D2*
Y2070869D1*
Y2121063D2*
X3993989D1*
X1221354Y2170287D2*
Y2069899D1*
Y2120093D2*
X1271548D1*
X2252850Y2168304D2*
Y2118110D1*
X2303044D1*
X1737102Y2168003D2*
Y2067616D1*
Y2117810D2*
X1787296D1*
X4960236Y2002950D2*
Y1898625D1*
X5245324Y2226411D2*
D37*
X5303893D1*
X5245324Y2201542D2*
X5303893D1*
X5245324Y2176673D2*
X5303893D1*
X5245324Y2151804D2*
X5303893D1*
X5245324Y2126936D2*
X5303893D1*
X5245324Y2102067D2*
X5303893D1*
X5245324Y2077198D2*
X5303893D1*
X5245324Y2052329D2*
X5303893D1*
X5245324Y2027461D2*
X5303893D1*
X5245324Y2002592D2*
X5303893D1*
X5245324Y1977723D2*
X5303893D1*
X5245324Y1952854D2*
X5277231D1*
X5245324Y1927986D2*
X5256867D1*
X5245324Y1828510D2*
X5266394D1*
X5245324Y1803642D2*
X5303893D1*
X5245324Y1778773D2*
X5303893D1*
X5245324Y1753904D2*
X5303893D1*
X5245324Y1729035D2*
X5303893D1*
X5245324Y1704167D2*
X5303893D1*
X5245324Y1679298D2*
X5303893D1*
X5245324Y1654429D2*
X5303893D1*
X5245324Y1629560D2*
X5303893D1*
X5245324Y1604692D2*
X5303893D1*
X5245324Y1579823D2*
X5303893D1*
X5245324Y1554954D2*
X5303893D1*
X5245324Y1530085D2*
X5303893D1*
X5245324Y1505217D2*
X5303893D1*
X5245324Y1480348D2*
X5303893D1*
X5245324Y1455479D2*
X5303893D1*
X5245324Y1430610D2*
X5303893D1*
X5245324Y1405741D2*
X5303893D1*
X5245324Y1380873D2*
X5303893D1*
X5245324Y1356004D2*
X5303893D1*
X5245324Y1331135D2*
X5303893D1*
X5245324Y1306266D2*
X5303893D1*
X5245324Y1281398D2*
X5303893D1*
X5245324Y1256529D2*
X5303893D1*
X5245324Y1231660D2*
X5303893D1*
X5245324Y1206791D2*
X5303893D1*
X5245324Y1181923D2*
X5303893D1*
X5245324Y1157054D2*
X5303893D1*
X5245324Y1132185D2*
X5303893D1*
X5245324Y1107316D2*
X5303893D1*
X5245324Y1082448D2*
X5303893D1*
X5245324Y1057579D2*
X5303893D1*
X5245324Y1032710D2*
X5303893D1*
X5245324Y1007841D2*
X5303893D1*
X5245324Y982972D2*
X5303893D1*
X5245324Y958104D2*
X5303893D1*
X5245324Y933235D2*
X5303893D1*
X5245324Y908366D2*
X5303893D1*
X5245324Y883497D2*
X5303893D1*
X5245324Y858629D2*
X5303893D1*
X5245324Y833760D2*
X5303893D1*
X5245324Y808891D2*
X5303893D1*
X5245324Y784022D2*
X5303893D1*
X5245324Y759154D2*
X5303893D1*
X5245324Y734285D2*
X5303893D1*
X5245324Y709416D2*
X5303893D1*
X5245324Y684547D2*
X5303893D1*
X5245324Y659678D2*
X5303893D1*
X5245324Y634810D2*
X5303893D1*
X5245324Y609941D2*
X5303893D1*
X5245324Y585072D2*
X5303893D1*
X5245324Y560203D2*
X5303893D1*
X5245324Y535335D2*
X5303893D1*
X5245324Y510466D2*
X5303893D1*
X5245324Y485597D2*
X5303893D1*
X5245324Y460728D2*
X5274862D1*
X5245324Y435860D2*
X5253583D1*
X5245324Y336385D2*
X5265407D1*
X5245324Y311516D2*
X5303893D1*
X5245324Y286647D2*
X5303893D1*
X5245324Y261778D2*
X5303893D1*
X5245324Y236909D2*
X5303893D1*
X5245324Y212041D2*
X5303893D1*
X5245324Y187172D2*
X5303893D1*
X5245324Y162303D2*
X5303893D1*
X5245324Y137434D2*
X5303893D1*
X5245324Y112566D2*
X5303893D1*
X5245324Y87697D2*
X5303893D1*
X5245324Y62828D2*
X5303893D1*
X5245324Y37959D2*
X5303893D1*
X5296756Y1806643D2*
X5306398Y1804716D1*
Y476563D1*
X5298482Y474804D1*
X5293829Y472708D1*
X5272181Y456964D1*
X5269418Y454203D1*
X5253565Y432402D1*
X5251389Y426849D1*
X5247453Y397329D1*
X5247452Y394017D1*
X5251388Y364497D1*
X5253234Y359431D1*
X5267003Y337793D1*
X5269885Y334621D1*
X5287601Y320842D1*
X5288678Y320093D1*
X5291382Y318830D1*
X5306398Y313818D1*
X5306393Y28248D1*
X5242815Y28252D1*
X5242819Y2251280D1*
X5306398Y2251273D1*
X5306400Y1967325D1*
X5298772Y1964464D1*
X5296441Y1963303D1*
X5280784Y1953518D1*
X5278563Y1951752D1*
X5264790Y1937979D1*
X5262242Y1934306D1*
X5252407Y1912669D1*
X5251481Y1909716D1*
X5247546Y1888073D1*
X5247544Y1883591D1*
X5251479Y1861948D1*
X5252174Y1859531D1*
X5260044Y1839855D1*
X5262163Y1836353D1*
X5273968Y1822580D1*
X5275965Y1820709D1*
X5291705Y1808903D1*
X5296756Y1806643D1*
X30757Y2226411D2*
X89326D1*
X30757Y2201542D2*
X89326D1*
X30757Y2176673D2*
X89326D1*
X30757Y2151804D2*
X89326D1*
X30757Y2126936D2*
X89326D1*
X30757Y2102067D2*
X89326D1*
X30757Y2077198D2*
X89326D1*
X30757Y2052329D2*
X89326D1*
X30757Y2027461D2*
X89326D1*
X30757Y2002592D2*
X89326D1*
X30757Y1977723D2*
X89326D1*
X59518Y1952854D2*
X89326D1*
X79649Y1927986D2*
X89326D1*
X69153Y1828510D2*
X89326D1*
X30757Y1803642D2*
X89326D1*
X30757Y1778773D2*
X89326D1*
X30757Y1753904D2*
X89326D1*
X30757Y1729035D2*
X89326D1*
X30757Y1704167D2*
X89326D1*
X30757Y1679298D2*
X89326D1*
X30757Y1654429D2*
X89326D1*
X30757Y1629560D2*
X89326D1*
X30757Y1604692D2*
X89326D1*
X30757Y1579823D2*
X89326D1*
X30757Y1554954D2*
X89326D1*
X30757Y1530085D2*
X89326D1*
X30757Y1505217D2*
X89326D1*
X30757Y1480348D2*
X89326D1*
X30757Y1455479D2*
X89326D1*
X30757Y1430610D2*
X89326D1*
X30757Y1405741D2*
X89326D1*
X30757Y1380873D2*
X89326D1*
X30757Y1356004D2*
X89326D1*
X30757Y1331135D2*
X89326D1*
X30757Y1306266D2*
X89326D1*
X30757Y1281398D2*
X89326D1*
X30757Y1256529D2*
X89326D1*
X30757Y1231660D2*
X89326D1*
X30757Y1206791D2*
X89326D1*
X30757Y1181923D2*
X89326D1*
X30757Y1157054D2*
X89326D1*
X30757Y1132185D2*
X89326D1*
X30757Y1107316D2*
X89326D1*
X30757Y1082448D2*
X89326D1*
X30757Y1057579D2*
X89326D1*
X30757Y1032710D2*
X89326D1*
X30757Y1007841D2*
X89326D1*
X30757Y982972D2*
X89326D1*
X30757Y958104D2*
X89326D1*
X30757Y933235D2*
X89326D1*
X30757Y908366D2*
X89326D1*
X30757Y883497D2*
X89326D1*
X30757Y858629D2*
X89326D1*
X30757Y833760D2*
X89326D1*
X30757Y808891D2*
X89326D1*
X30757Y784022D2*
X89326D1*
X30757Y759154D2*
X89326D1*
X30757Y734285D2*
X89326D1*
X30757Y709416D2*
X89326D1*
X30757Y684547D2*
X89326D1*
X30757Y659678D2*
X89326D1*
X30757Y634810D2*
X89326D1*
X30757Y609941D2*
X89326D1*
X30757Y585072D2*
X89326D1*
X30757Y560203D2*
X89326D1*
X30757Y535335D2*
X89326D1*
X30757Y510466D2*
X89326D1*
X30757Y485597D2*
X89326D1*
X59446Y460728D2*
X89326D1*
X77999Y435860D2*
X89326D1*
X69171Y336385D2*
X89326D1*
X30757Y311516D2*
X89326D1*
X30757Y286647D2*
X89326D1*
X30757Y261778D2*
X89326D1*
X30757Y236909D2*
X89326D1*
X30757Y212041D2*
X89326D1*
X30757Y187172D2*
X89326D1*
X30757Y162303D2*
X84446D1*
X30757Y137434D2*
X86814D1*
X30757Y112566D2*
X89326D1*
X30757Y87697D2*
X89326D1*
X30757Y62828D2*
X89326D1*
X30757Y37959D2*
X89326D1*
X83238Y362400D2*
X87177Y389958D1*
X87089Y394036D1*
X81185Y425524D1*
X79298Y430162D1*
X63554Y453778D1*
X61988Y455689D1*
X45904Y471762D1*
X40691Y474658D1*
X28248Y478051D1*
X28245Y1804182D1*
X47505Y1811060D1*
X52146Y1813996D1*
X67886Y1829736D1*
X69774Y1832151D1*
X81579Y1851827D1*
X83046Y1855457D1*
X88950Y1881041D1*
X89029Y1886310D1*
X83125Y1915830D1*
X81840Y1919372D1*
X70038Y1941009D1*
X66971Y1944714D1*
X45322Y1962426D1*
X41673Y1964503D1*
X28248Y1969378D1*
X28252Y2251279D1*
X91831Y2251276D1*
Y185280D1*
X90138Y180294D1*
X89057Y176484D1*
X88306Y172806D1*
X87804Y170281D1*
X87229Y166362D1*
X86965Y162618D1*
X86803Y160147D1*
X86797Y154912D1*
X87133Y149773D1*
X87592Y145839D1*
X88306Y142154D1*
X88809Y139629D1*
X89777Y135789D1*
X90966Y132229D1*
X91831Y129677D1*
X91826Y28248D1*
X28248Y28254D1*
X28242Y312109D1*
X41658Y316987D1*
X45210Y318979D1*
X64881Y334716D1*
X67327Y337320D1*
X81096Y356991D1*
X83238Y362400D1*
X2628506Y753970D2*
X2746768D1*
X2760703Y704232D2*
X2802944D1*
X2761187Y679364D2*
X2822501D1*
X2744483Y654495D2*
X2822501D1*
X2814462Y700464D2*
X2816632Y699865D1*
X2818539Y699409D1*
X2820414Y699084D1*
X2822614Y698775D1*
X2825000Y698535D1*
X2825003Y647756D1*
X2749351D1*
X2749344Y647441D1*
X2728242D1*
X2730462Y648194D1*
X2738742Y652269D1*
X2746033Y657927D1*
X2752035Y664937D1*
X2756504Y673012D1*
X2759255Y681821D1*
X2760177Y690945D1*
X2760000Y694963D1*
X2758261Y704026D1*
X2754733Y712554D1*
X2753597Y714233D1*
X2792798Y714232D1*
X2794737Y712240D1*
X2795532Y711449D1*
X2796967Y710114D1*
X2798439Y708907D1*
X2799312Y708237D1*
X2626006Y734901D2*
X2702400D1*
X2708253Y736116D1*
X2717475Y736462D1*
X2726578Y734945D1*
X2735190Y731627D1*
X2742957Y726642D1*
X2749271Y720480D1*
X2749272Y778833D1*
X2624666Y778838D1*
X2625940Y771950D1*
X2626004Y770000D1*
Y734904D1*
X2810750Y701752D2*
X2808791Y702574D1*
X2810750Y701752D1*
X2804363Y704855D2*
X2803411Y705407D1*
X2804363Y704855D1*
X2805440Y704232D2*
X2804363Y704855D1*
X2805440Y704232D1*
X2801796Y706414D2*
X2800202Y707555D1*
X2799312Y708237D1*
X2801796Y706414D1*
X2868425Y685039D2*
D16*
X2824976D1*
X2513633Y321621D2*
D37*
X2526700D1*
X2508483Y296752D2*
X2526700D1*
X2500955Y287001D2*
X2498247Y282946D1*
X2496658Y280776D1*
X2495778Y279727D1*
X2492649Y276154D1*
X2500886Y272991D1*
X2508659Y268017D1*
X2510151Y266565D1*
Y272198D1*
X2529196D1*
X2529194Y326780D1*
X2529258Y328748D1*
X2529419Y331265D1*
X2511162Y331271D1*
Y322854D1*
X2511096Y320819D1*
X2510777Y315958D1*
X2510249Y311936D1*
X2509299Y307159D1*
X2508251Y303240D1*
X2507465Y300923D1*
X2506685Y298627D1*
X2507465Y300923D1*
X2504052Y292685D2*
X2502980Y290510D1*
X2504052Y292685D1*
X2505136Y294883D2*
X2504052Y292685D1*
X2505136Y294883D1*
X3871585Y1283497D2*
X3901357D1*
X3871585Y1258629D2*
X3901357D1*
X3871585Y1233760D2*
X3901357D1*
X3871585Y1208891D2*
X3901357D1*
X3376599Y1159154D2*
X3401687D1*
X3468390D2*
X3569015D1*
X3635700D2*
X3751325D1*
X3356952Y1134285D2*
X3401687D1*
X3468390D2*
X3569015D1*
X3635700D2*
X3751325D1*
X3404409Y1059678D2*
X3810390D1*
X3674007Y1034810D2*
X3693713D1*
X3773998D2*
X3821281D1*
X3789500Y1009941D2*
X3817603D1*
X3791079Y985072D2*
X3817029D1*
X3780242Y960203D2*
X3808901D1*
X3954603Y935335D2*
X3983603D1*
X3945381Y910466D2*
X3983603D1*
X3931565Y885597D2*
X3983603D1*
X3911973Y860728D2*
X3983603D1*
X3926954Y835860D2*
X3983603D1*
X3956936Y810991D2*
X3983603D1*
X3964184Y786122D2*
X3983603D1*
X3959609Y761253D2*
X3983603D1*
X3493443Y1167520D2*
X3465884D1*
X3465886Y1129274D1*
X3571518Y1129272D1*
X3571516Y1166895D1*
X3556437Y1166890D1*
Y1167527D1*
X3514867Y1167520D1*
X3493445Y1167523D1*
X3753821Y1167520D2*
X3648294D1*
X3648287Y1166890D1*
X3633207D1*
X3633209Y1129267D1*
X3753816Y1129272D1*
X3753819Y1167525D1*
X3756207Y759669D2*
X3755060Y757057D1*
X3750049Y749391D1*
X3743844Y742655D1*
X3736614Y737032D1*
X3736386Y736908D1*
X3776171Y736909D1*
X3775955Y737051D1*
X3768729Y742678D1*
X3762529Y749419D1*
X3757522Y757087D1*
X3756391Y759668D1*
X3867543Y827910D2*
X3850004Y819260D1*
X3848867Y818720D1*
X3851204Y816000D1*
X3855947Y808165D1*
X3856261Y807375D1*
X3857538Y809872D1*
X3862550Y817538D1*
X3868755Y824274D1*
X3875984Y829897D1*
X3884040Y834254D1*
X3892703Y837225D1*
X3901737Y838729D1*
X3910896Y838726D1*
X3919929Y837216D1*
X3928590Y834240D1*
X3936644Y829878D1*
X3943869Y824251D1*
X3950070Y817511D1*
X3955077Y809842D1*
X3958753Y801454D1*
X3960999Y792575D1*
X3961752Y783465D1*
X3960993Y774320D1*
X3958742Y765443D1*
X3955060Y757057D1*
X3950670Y750342D1*
X4001283Y750335D1*
Y757224D1*
X3986102D1*
X3986111Y916004D1*
X3986103Y927828D1*
Y957926D1*
X3984399Y957249D1*
X3975468Y954925D1*
X3966252Y954445D1*
X3957128Y955831D1*
X3956578Y956034D1*
X3953328Y939724D1*
X3952313Y935932D1*
X3946029Y917420D1*
X3944528Y913792D1*
X3935881Y896258D1*
X3933920Y892858D1*
X3923058Y876603D1*
X3920670Y873488D1*
X3907779Y858790D1*
X3905005Y856013D1*
X3890306Y843123D1*
X3887193Y840732D1*
X3879057Y835296D1*
X3683766Y970299D2*
X3682619Y967687D1*
X3677608Y960021D1*
X3671403Y953285D1*
X3664173Y947662D1*
X3657825Y944229D1*
X3709594Y944232D1*
X3708814Y944619D1*
X3706127Y946074D1*
X3703524Y947674D1*
X3701013Y949416D1*
X3698601Y951293D1*
X3696297Y953300D1*
X3694107Y955432D1*
X3692037Y957680D1*
X3690095Y960039D1*
X3688285Y962502D1*
X3686614Y965060D1*
X3685086Y967707D1*
X3683862Y970128D1*
X3869093Y1189626D2*
X3903853D1*
X3903852Y1284110D1*
X3869088Y1284114D1*
Y1189630D1*
X3780441Y1067831D2*
X3777636Y1067647D1*
X3775591Y1067579D1*
X3363573D1*
X3354605Y1067070D1*
X3346923Y1065603D1*
X3345988Y1065295D1*
X3401910D1*
Y1041764D1*
X3517067Y1041771D1*
X3589233D1*
Y1027014D1*
X3590130Y1028195D1*
X3591284Y1029625D1*
X3592484Y1031016D1*
X3593730Y1032366D1*
X3600577Y1038449D1*
X3608331Y1043322D1*
X3616782Y1046853D1*
X3625699Y1048944D1*
X3634838Y1049539D1*
X3643950Y1048621D1*
X3652787Y1046216D1*
X3661108Y1042390D1*
X3668686Y1037246D1*
X3675313Y1030925D1*
X3680810Y1023600D1*
X3683770Y1017891D1*
X3685092Y1020492D1*
X3686620Y1023139D1*
X3688292Y1025697D1*
X3690102Y1028159D1*
X3692045Y1030518D1*
X3694115Y1032766D1*
X3696305Y1034896D1*
X3698610Y1036903D1*
X3701022Y1038780D1*
X3703533Y1040521D1*
X3706137Y1042121D1*
X3708825Y1043575D1*
X3711588Y1044879D1*
X3714420Y1046029D1*
X3717310Y1047021D1*
X3720251Y1047852D1*
X3723233Y1048520D1*
X3726247Y1049022D1*
X3729285Y1049358D1*
X3732336Y1049526D1*
X3735392D1*
X3738443Y1049357D1*
X3741481Y1049021D1*
X3744495Y1048518D1*
X3747477Y1047849D1*
X3750417Y1047017D1*
X3753308Y1046025D1*
X3756139Y1044874D1*
X3758902Y1043570D1*
X3761590Y1042115D1*
X3764193Y1040515D1*
X3766704Y1038773D1*
X3769115Y1036896D1*
X3771420Y1034888D1*
X3773610Y1032757D1*
X3775679Y1030509D1*
X3777622Y1028150D1*
X3779431Y1025687D1*
X3781103Y1023129D1*
X3782630Y1020482D1*
X3784010Y1017755D1*
X3785237Y1014957D1*
X3786308Y1012094D1*
X3787220Y1009178D1*
X3787970Y1006215D1*
X3788556Y1003216D1*
X3788975Y1000189D1*
X3789227Y997143D1*
X3789311Y994094D1*
X3789226Y991034D1*
X3788974Y987988D1*
X3788554Y984962D1*
X3787968Y981962D1*
X3787217Y979000D1*
X3786305Y976084D1*
X3785233Y973222D1*
X3784005Y970423D1*
X3782625Y967697D1*
X3781097Y965050D1*
X3779425Y962492D1*
X3777615Y960030D1*
X3775672Y957671D1*
X3773602Y955423D1*
X3771411Y953293D1*
X3769106Y951286D1*
X3766695Y949409D1*
X3764183Y947668D1*
X3761580Y946068D1*
X3758892Y944614D1*
X3758085Y944233D1*
X3778514Y944232D1*
X3784742Y944640D1*
X3789867Y945659D1*
X3794816Y947339D1*
X3799503Y949651D1*
X3803849Y952554D1*
X3807778Y955999D1*
X3811224Y959929D1*
X3814128Y964274D1*
X3816439Y968961D1*
X3818119Y973910D1*
X3819139Y979035D1*
X3819547Y985262D1*
X3819548Y992135D1*
X3820123Y1010460D1*
X3821723Y1022586D1*
X3823005Y1031170D1*
X3823740Y1034680D1*
X3826007Y1043065D1*
X3819761Y1048987D1*
X3814480Y1056555D1*
X3810830Y1065031D1*
X3808960Y1074068D1*
X3808953Y1079575D1*
X3805910Y1077253D1*
X3803572Y1075690D1*
X3800061Y1073662D1*
X3797539Y1072418D1*
X3793793Y1070865D1*
X3792452Y1070409D1*
X3879057Y835296D2*
X3870937Y829871D1*
X3879057Y835296D1*
X3792452Y1070409D2*
X3791131Y1069961D1*
X3792452Y1070409D1*
X3785825Y1068633D2*
X3784456Y1068361D1*
X3785825Y1068633D1*
X3790328Y1069701D2*
X3787214Y1068910D1*
X3785825Y1068633D1*
X3790328Y1069701D1*
X3329421Y1124796D2*
X3323766Y1122919D1*
X3316280Y1120367D1*
Y1130186D1*
X3319333Y1129060D1*
X3328457Y1127674D1*
X3337673Y1128153D1*
X3346604Y1130477D1*
X3354884Y1134552D1*
X3362175Y1140210D1*
X3368177Y1147220D1*
X3372645Y1155295D1*
X3375397Y1164104D1*
X3375959Y1167520D1*
X3404193Y1167522D1*
Y1129272D1*
X3362729D1*
X3360956Y1129222D1*
X3349094Y1128550D1*
X3345038Y1128051D1*
X3333367Y1125823D1*
X3329421Y1124796D1*
X3393701Y1210945D2*
D16*
Y1167496D1*
X3476378Y1210945D2*
Y1167496D1*
X3539370Y1210945D2*
Y1167496D1*
X3728346Y1210945D2*
Y1167496D1*
X3346457Y1065270D2*
Y1019685D1*
X3733858Y1049511D2*
Y994094D1*
X3789275D1*
X2004810Y1716568D2*
D37*
X2030635D1*
X2004810Y1691699D2*
X2030635D1*
X2004810Y1666831D2*
X2032321D1*
X2004810Y1641962D2*
X2021717D1*
X2004810Y1617093D2*
X2019690D1*
X2004810Y1592224D2*
X2033757D1*
X2004810Y1567356D2*
X2039947D1*
X1868439Y1518150D2*
X1983714D1*
X1984463Y1519380D1*
X1986114Y1526210D1*
X1987960Y1535252D1*
X1988566Y1536669D1*
X1868446Y1536673D1*
X1868445Y1518151D1*
X2033131Y1720481D2*
X2033130Y1679134D1*
X2033460Y1673654D1*
X2035472Y1664706D1*
X2037184Y1660319D1*
X2032284Y1655649D1*
X2027022Y1648068D1*
X2023393Y1639583D1*
X2021547Y1630541D1*
X2021559Y1621312D1*
X2023428Y1612275D1*
X2027078Y1603799D1*
X2032360Y1596231D1*
X2039057Y1589881D1*
X2041973Y1588069D1*
X2042005Y1587777D1*
X2041715Y1586763D1*
X2041019Y1577560D1*
X2042190Y1568406D1*
X2043092Y1565772D1*
X2042945Y1565562D1*
X2038345Y1566747D1*
X2029128Y1567202D1*
X2020008Y1565793D1*
X2011357Y1562577D1*
X2003532Y1557685D1*
X2002299Y1556510D1*
X2002303Y1622338D1*
X2002304Y1726043D1*
X2033469D1*
X2033131Y1720481D1*
X1917323Y1724409D2*
D16*
X2002267D1*
X1917323Y1674409D2*
X2002267D1*
X1917323Y1624409D2*
X2002267D1*
X1917323Y1574409D2*
X2002267D1*
X1917323Y1536688D2*
Y1574409D1*
X2313858Y1813025D2*
D37*
X2331447D1*
X2311561Y1788156D2*
X2357068D1*
X2302716Y1763287D2*
X2349568D1*
X2320119Y1663812D2*
X2349532D1*
X2320119Y1638944D2*
X2349532D1*
X2320119Y1614075D2*
X2349532D1*
X2320119Y1589206D2*
X2339754D1*
X2304372Y1774272D2*
X2301416Y1768281D1*
X2300234Y1764529D1*
X2300196Y1762461D1*
X2352030D1*
X2352191Y1764935D1*
X2354531Y1773781D1*
X2359440Y1781503D1*
X2360774Y1782927D1*
X2364427Y1786580D1*
X2355950Y1789734D1*
X2348112Y1794606D1*
X2341415Y1800955D1*
X2336133Y1808523D1*
X2332483Y1816999D1*
X2330614Y1826037D1*
X2330602Y1835265D1*
X2330644Y1835468D1*
X2311350Y1834762D1*
X2311357Y1807078D1*
X2311293Y1805117D1*
X2310854Y1798444D1*
X2310342Y1794558D1*
X2309059Y1788107D1*
X2352023Y1670610D2*
X2317610D1*
X2317618Y1564580D1*
X2352026Y1598982D1*
X2352028Y1670614D1*
X2308597Y1786117D2*
X2308029Y1784241D1*
X2305873Y1777893D1*
X2308597Y1786117D1*
D41*
X905512Y1879921D3*
Y1946850D3*
X968504Y1879921D3*
Y1946850D3*
X1031496Y1879921D3*
Y1946850D3*
X1220472Y1879921D3*
Y1946850D3*
X1283465Y1879921D3*
Y1946850D3*
X1346457Y1879921D3*
Y1946850D3*
X1409449Y1879921D3*
Y1946850D3*
X1598425Y1879921D3*
Y1946850D3*
X2181102Y1879921D3*
Y1946850D3*
X2314961Y1879921D3*
Y1946850D3*
D42*
X3309370Y1921260D3*
X3376299D3*
X3309370Y1858268D3*
X3376299D3*
X3309370Y1795276D3*
X3376299D3*
D43*
X5019685Y1685039D3*
Y1771654D3*
D41*
X748031Y1671575D3*
Y1738504D3*
D43*
X1464567Y1649606D3*
Y1736220D3*
D44*
X562992Y1610236D3*
Y1720472D3*
X665354Y1610236D3*
Y1720472D3*
D41*
X1385827Y1734252D3*
Y1667323D3*
D42*
X3309370Y1732283D3*
X3376299D3*
D41*
X2547244Y1651890D3*
Y1718819D3*
X2610236Y1651890D3*
Y1718819D3*
D42*
X2332362Y1716535D3*
X2265433D3*
X3915669Y1696850D3*
X3982598D3*
D41*
X1106299Y1584646D3*
Y1651575D3*
D42*
X3915669Y1633858D3*
X3982598D3*
D41*
X2267717Y1565276D3*
Y1632205D3*
X4401575Y1631890D3*
Y1564961D3*
X4464567D3*
Y1631890D3*
D43*
X4657480Y1503937D3*
Y1590551D3*
D45*
X3917323Y1559055D3*
X4003937D3*
D42*
X4328740Y1503937D3*
X4261811D3*
X2210945D3*
X2277874D3*
D41*
X2673228Y1423543D3*
Y1490472D3*
X2736220Y1423543D3*
Y1490472D3*
D42*
X4124016Y1484252D3*
X4057087D3*
X3309370Y1476378D3*
X3376299D3*
D41*
X1885827Y1407795D3*
Y1474724D3*
X1948819Y1407795D3*
Y1474724D3*
X4192913Y1375984D3*
Y1442913D3*
X4326772Y1375984D3*
Y1442913D3*
X4389764Y1375984D3*
Y1442913D3*
X4452756Y1375984D3*
Y1442913D3*
X4515748D3*
Y1375984D3*
X4602362D3*
Y1442913D3*
D42*
X4124016Y1421260D3*
X4057087D3*
X2710945Y1358268D3*
X2777874D3*
X4124016Y1354331D3*
X4057087D3*
X3915669D3*
X3982598D3*
X3064646Y1350394D3*
X2997717D3*
X667638Y1342520D3*
X734567D3*
D44*
X846457Y1322835D3*
Y1212598D3*
D41*
X4740157Y1257874D3*
Y1324803D3*
X4807087Y1257874D3*
Y1324803D3*
X4874016Y1257874D3*
Y1324803D3*
X3102362Y1210945D3*
Y1277874D3*
X3393701Y1210945D3*
Y1277874D3*
X3476378Y1210945D3*
Y1277874D3*
X3539370Y1210945D3*
Y1277874D3*
X3728346Y1210945D3*
Y1277874D3*
X4043307Y1277244D3*
Y1210315D3*
D43*
X307087Y1059055D3*
Y1145669D3*
D41*
X889764Y1069213D3*
Y1136142D3*
X2112205Y1133858D3*
Y1066929D3*
X452756Y1057402D3*
Y1124331D3*
D43*
X3346457Y933071D3*
Y1019685D3*
D41*
X3417323Y931417D3*
Y998346D3*
X3543307Y931417D3*
Y998346D3*
D42*
X2175197Y988189D3*
X2108268D3*
X4029528Y937008D3*
X4096457D3*
D41*
X4728346Y931102D3*
Y864173D3*
D42*
X2173228Y929134D3*
X2106299D3*
D41*
X2561024Y850394D3*
Y917323D3*
X2625984Y850394D3*
Y917323D3*
X2690945Y850394D3*
Y917323D3*
D42*
X4029528Y870079D3*
X4096457D3*
X4029528Y803150D3*
X4096457D3*
X4187008D3*
X4253937D3*
X671575Y799213D3*
X738504D3*
D41*
X4594488Y730315D3*
Y797244D3*
X4661417Y730315D3*
Y797244D3*
X4728346Y730315D3*
Y797244D3*
D44*
X846457Y779528D3*
Y669291D3*
D43*
X307087Y622047D3*
Y708661D3*
D42*
X2868425Y685039D3*
X2935354D3*
D41*
X4533465Y578740D3*
Y511811D3*
X2606299Y537717D3*
Y604646D3*
X2669291Y604016D3*
Y537087D3*
X2732283Y604016D3*
Y537087D3*
X2858268Y604016D3*
Y537087D3*
X2984252Y537717D3*
Y604646D3*
X889764Y529843D3*
Y596772D3*
X452756Y514094D3*
Y581024D3*
D42*
X3383543Y551181D3*
X3316614D3*
X3317244Y488189D3*
X3384173D3*
D41*
X2334646Y230000D3*
Y163071D3*
X2649606Y163701D3*
Y230630D3*
D45*
X3377953Y185039D3*
X3291339D3*
D41*
X3102362Y69213D3*
Y136142D3*
D45*
X3377953Y94488D3*
X3291339D3*
D42*
X2490472D3*
X2557402D3*
D41*
X5011811Y124016D3*
Y57087D3*
D42*
X2829055Y70866D3*
X2895984D3*
X2962913D3*
X3029843D3*
D41*
X4956693Y366142D3*
Y433071D3*
D45*
X1937008Y956693D3*
X2023622D3*
D46*
X192913Y453937D3*
Y553937D3*
Y653937D3*
Y753937D3*
Y853937D3*
Y953937D3*
Y1053937D3*
Y1153937D3*
Y1253937D3*
Y1353937D3*
Y1453937D3*
Y1553937D3*
X5140551Y450000D3*
X5040551D3*
X5140551Y550000D3*
X5040551D3*
X5140551Y650000D3*
X5040551D3*
X5140551Y750000D3*
X5040551D3*
X5140551Y850000D3*
X5040551D3*
X5140551Y950000D3*
X5040551D3*
X5140551Y1050000D3*
X5040551D3*
X5140551Y1150000D3*
X5040551D3*
X5140551Y1250000D3*
X5040551D3*
X5140551Y1350000D3*
X5040551D3*
X5140551Y1450000D3*
X5040551D3*
X5140551Y1550000D3*
X5040551D3*
D47*
X192913Y1657480D3*
Y1820866D3*
D48*
X1692913Y1716585D3*
X1559055D3*
Y1621997D3*
X1692913D3*
X1559055Y1527509D3*
X1692913D3*
D49*
X685039Y1440945D3*
X848425D3*
D48*
X1559055Y1433021D3*
X1692913D3*
X1559055Y1338533D3*
X1692913D3*
X1559055Y1244045D3*
X1692913D3*
X1559055Y1149556D3*
X1692913D3*
D49*
X685039Y897638D3*
X848425D3*
X2484252Y740157D3*
X2320866D3*
D47*
X974409Y350394D3*
Y187008D3*
D46*
X3606299Y783465D3*
X3706299D3*
X3806299D3*
X3906299D3*
D50*
X305118Y1685039D3*
X466535D3*
X1262795Y1433071D3*
X1101378D3*
X1262795Y1271654D3*
X1101378D3*
X1262795Y1110236D3*
X1101378D3*
X1262795Y948819D3*
X1101378D3*
D51*
X4511811Y1846457D3*
X4413386D3*
X4334646D3*
X4236220D3*
Y1743307D3*
X4334646D3*
X4413386D3*
X4511811D3*
D52*
X4632677Y1953150D3*
X4115354D3*
X4632677Y1729528D3*
X4115354D3*
D46*
X3653150Y1921260D3*
X3753150D3*
X3853150D3*
X3953150D3*
X3062992Y726378D3*
Y826378D3*
Y926378D3*
Y1026378D3*
Y1126378D3*
X3633858Y994094D3*
X3733858D3*
X5040551Y250000D3*
Y350000D3*
X5140551Y250000D3*
Y350000D3*
D53*
X326772Y1413386D3*
X555118D3*
X326772Y870079D3*
X555118D3*
D42*
X3982283Y1421260D3*
X3915354D3*
D41*
X2354331Y537402D3*
Y604331D3*
D54*
X4358268Y2137795D3*
X728346Y2118110D3*
X228346Y2114173D3*
D33*
X2218504Y1427165D3*
D54*
X649606Y468504D3*
D56*
X3100394Y448819D3*
D57*
X3524409Y401575D3*
X3624409D3*
X3724409D3*
X3824409D3*
X3924409D3*
X4024409D3*
X4124409D3*
X4224409D3*
X4324409D3*
X4424409D3*
X4524409D3*
X4624409D3*
X4724409D3*
X4823622D3*
X305512Y334646D3*
X405512D3*
X505512D3*
X605512D3*
X705512D3*
X805512D3*
D54*
X165354Y157480D3*
D58*
X1722441Y1860236D3*
X1797244D3*
X1759843Y1950787D3*
X1982283Y1860236D3*
X2057087D3*
X2019685Y1950787D3*
D59*
X4752756Y1405020D3*
X4932283D3*
D60*
X4842520Y1690453D3*
D61*
X1710630Y994094D3*
Y1068898D3*
X1620079Y1031496D3*
X1710630Y860236D3*
Y935039D3*
X1620079Y897638D3*
D62*
X1086614Y830906D3*
Y780906D3*
Y730906D3*
Y680906D3*
X1299213D3*
Y730906D3*
Y780906D3*
Y830906D3*
D61*
X1710630Y726378D3*
Y801181D3*
X1620079Y763780D3*
X2049213Y726378D3*
Y801181D3*
X1958661Y763780D3*
X1710630Y592520D3*
Y667323D3*
X1620079Y629921D3*
X2049213Y592520D3*
Y667323D3*
X1958661Y629921D3*
D62*
X1086614Y614370D3*
Y564370D3*
Y514370D3*
Y464370D3*
X1299213D3*
Y514370D3*
Y564370D3*
Y614370D3*
D61*
X1710630Y458661D3*
Y533465D3*
X1620079Y496063D3*
X2049213Y458661D3*
Y533465D3*
X1958661Y496063D3*
X1710630Y324803D3*
Y399606D3*
X1620079Y362205D3*
X2049213Y324803D3*
Y399606D3*
X1958661Y362205D3*
D62*
X1086614Y389961D3*
Y339961D3*
Y289961D3*
Y239961D3*
X1299213D3*
Y289961D3*
Y339961D3*
Y389961D3*
D41*
X1094488Y1946535D3*
Y1879606D3*
X1157480Y1946535D3*
Y1879606D3*
X1472441Y1946535D3*
Y1879606D3*
X1535433Y1946535D3*
Y1879606D3*
X1661417Y1946535D3*
Y1879606D3*
X1858268Y1946535D3*
Y1879606D3*
X1921260Y1946535D3*
Y1879606D3*
X2118110Y1946535D3*
Y1879606D3*
X2248031Y1946535D3*
Y1879606D3*
X2377953Y1946535D3*
Y1879606D3*
X2779528Y1880236D3*
Y1947165D3*
X2842520Y1880236D3*
Y1947165D3*
X2905512Y1880236D3*
Y1947165D3*
X2968504Y1880236D3*
Y1947165D3*
X3031496Y1880236D3*
Y1947165D3*
X3094488Y1880236D3*
Y1947165D3*
X5098425Y1706693D3*
Y1773622D3*
X5165354Y1706693D3*
Y1773622D3*
X2421260Y1718189D3*
Y1651260D3*
X2484252Y1718189D3*
Y1651260D3*
X2673228Y1718189D3*
Y1651260D3*
D42*
X3309370Y1620079D3*
X3376299D3*
D41*
X4566929Y1572835D3*
Y1505906D3*
D42*
X3309370Y1547244D3*
X3376299D3*
X3915669Y1484252D3*
X3982598D3*
D41*
X2011811Y1407795D3*
Y1474724D3*
X4259843Y1442913D3*
Y1375984D3*
X4665354Y1442913D3*
Y1375984D3*
X3330709Y1210945D3*
Y1277874D3*
X3602362Y1277244D3*
Y1210315D3*
X3665354Y1210945D3*
Y1277874D3*
X4106299Y1277244D3*
Y1210315D3*
X385827Y1187323D3*
Y1254252D3*
X452756Y1187323D3*
Y1254252D3*
X2885827Y1183386D3*
Y1250315D3*
D42*
X2041024Y1165354D3*
X1974094D3*
X3864173Y1143701D3*
X3797244D3*
D41*
X826772Y1135512D3*
Y1068583D3*
X385827Y1057402D3*
Y1124331D3*
D42*
X1974724Y1106299D3*
X2041654D3*
D41*
X1771654Y1064646D3*
Y997717D3*
X1834646Y1064646D3*
Y997717D3*
X3480315Y931417D3*
Y998346D3*
X1771654Y930787D3*
Y863858D3*
X1834646Y930787D3*
Y863858D3*
X1771654Y796929D3*
Y730000D3*
X1834646Y796929D3*
Y730000D3*
D42*
X2104646Y787402D3*
X2171575D3*
X1017402Y779528D3*
X950472D3*
X2104646Y724409D3*
X2171575D3*
D41*
X385827Y644016D3*
Y710945D3*
X452756Y644016D3*
Y710945D3*
D42*
X2663071Y688976D3*
X2596142D3*
X1017402Y681102D3*
X950472D3*
D41*
X1771654Y663071D3*
Y596142D3*
X1834646Y663071D3*
Y596142D3*
X2110236Y663071D3*
Y596142D3*
X2173228Y663071D3*
Y596142D3*
X2291339Y604016D3*
Y537087D3*
X2417323Y537717D3*
Y604646D3*
X2480315Y537717D3*
Y604646D3*
X2543307Y537717D3*
Y604646D3*
X2795276Y537402D3*
Y604331D3*
X2921260Y537402D3*
Y604331D3*
D42*
X3139764Y602362D3*
X3072835D3*
D41*
X830709Y529843D3*
Y596772D3*
X385827Y514094D3*
Y581024D3*
D42*
X1015748Y564961D3*
X948819D3*
X3139764Y539370D3*
X3072835D3*
D41*
X1771654Y529213D3*
Y462283D3*
X1834646Y529213D3*
Y462283D3*
X2110236Y529213D3*
Y462283D3*
X2173228Y529213D3*
Y462283D3*
X1011575Y439803D3*
Y506732D3*
X950551Y439370D3*
Y506299D3*
D42*
X3317244Y413386D3*
X3384173D3*
D41*
X1771654Y391417D3*
Y324488D3*
X1834646Y391417D3*
Y324488D3*
X2110236Y391417D3*
Y324488D3*
X2173228Y391417D3*
Y324488D3*
X4956693Y234252D3*
Y301181D3*
D42*
X3317244Y350394D3*
X3384173D3*
D41*
X1448819Y230000D3*
Y163071D3*
X1511811Y230000D3*
Y163071D3*
X1574803Y230000D3*
Y163071D3*
X1637795Y230000D3*
Y163071D3*
X1700787Y230000D3*
Y163071D3*
X1763780Y230000D3*
Y163071D3*
X1834646Y230000D3*
Y163071D3*
X1897638Y230000D3*
Y163071D3*
X1960630Y230000D3*
Y163071D3*
X2023622Y230000D3*
Y163071D3*
X2086614Y230000D3*
Y163071D3*
X2149606Y230000D3*
Y163071D3*
X2212598Y230000D3*
Y163071D3*
X1082677Y177165D3*
Y110236D3*
X4773622Y604331D3*
Y537402D3*
D63*
X2748031Y1657480D3*
X3062992D3*
D46*
X3023622Y1795276D3*
X3123622D3*
X3223622D3*
D64*
X3480315Y2011811D3*
X3448819Y2059055D3*
X3417323Y2011811D3*
X3385827Y2059055D3*
X3354331Y2011811D3*
D65*
X3561024Y2210630D3*
X3273622D3*
Y2023622D3*
X3561024D3*
D66*
X3943795Y2121063D3*
X3865055D3*
X3707575D3*
X3787529D3*
X1221354Y2120093D3*
X1142614D3*
X1063874D3*
X985134D3*
X906394D3*
X2691827Y2120079D3*
X2613087D3*
X2455606D3*
X2535560D3*
X3128835D3*
X3050094D3*
X2892614D3*
X2972568D3*
X2252850Y2118110D3*
X2174110D3*
X2095370D3*
X2016630D3*
X1937890D3*
X1737102Y2117810D3*
X1658362D3*
X1579622D3*
X1500882D3*
X1422142D3*
D166*
X2480315Y1929331D3*
Y1879331D3*
Y1829331D3*
Y1779331D3*
X2692913D3*
Y1829331D3*
Y1879331D3*
Y1929331D3*
D67*
X1917323Y1724409D3*
Y1674409D3*
Y1624409D3*
Y1574409D3*
X2169291D3*
Y1624409D3*
Y1674409D3*
Y1724409D3*
D68*
X3523622Y1694882D3*
Y1669291D3*
Y1643701D3*
Y1618110D3*
Y1592520D3*
Y1566929D3*
Y1541339D3*
Y1515748D3*
Y1490157D3*
Y1464567D3*
Y1438976D3*
Y1413386D3*
Y1387795D3*
Y1362205D3*
X3818898D3*
Y1387795D3*
Y1413386D3*
Y1438976D3*
Y1464567D3*
Y1490157D3*
Y1515748D3*
Y1541339D3*
Y1566929D3*
Y1592520D3*
Y1618110D3*
Y1643701D3*
Y1669291D3*
Y1694882D3*
D169*
X2196850Y1362205D3*
Y1342520D3*
Y1322835D3*
Y1303150D3*
Y1283466D3*
Y1263780D3*
Y1244094D3*
Y1224409D3*
Y1204724D3*
Y1185041D3*
Y1165354D3*
Y1145669D3*
Y1125984D3*
Y1106299D3*
Y1086615D3*
Y1066929D3*
D172*
X2273622Y990157D3*
X2293307D3*
X2312992D3*
X2332677D3*
X2352362D3*
X2372047D3*
X2391732D3*
X2411417D3*
X2431102D3*
X2450787D3*
X2470472D3*
X2490157D3*
X2509843D3*
X2529528D3*
X2549213D3*
X2568898D3*
D169*
X2645669Y1066929D3*
Y1086614D3*
Y1106299D3*
Y1125984D3*
Y1145669D3*
Y1165354D3*
Y1185039D3*
Y1204724D3*
Y1224409D3*
Y1244094D3*
Y1263780D3*
Y1283465D3*
Y1303150D3*
Y1322835D3*
Y1342520D3*
Y1362205D3*
D172*
X2568898Y1438976D3*
X2549211D3*
X2529528D3*
X2509843D3*
X2490157D3*
X2470472D3*
X2450786D3*
X2431102D3*
X2411417D3*
X2391732D3*
X2372047D3*
X2352361D3*
X2332677D3*
X2312992D3*
X2293307D3*
X2273622D3*
D175*
X4590551Y1299213D3*
X4570866D3*
X4551181D3*
X4531496D3*
X4511811D3*
X4492126D3*
X4472441D3*
X4452756D3*
X4433071D3*
X4413386D3*
X4393701D3*
X4374016D3*
X4354331D3*
X4334646D3*
X4314961D3*
X4295276D3*
X4275591D3*
X4255906D3*
D178*
X4220472Y1263780D3*
Y1244094D3*
Y1224409D3*
Y1204724D3*
Y1185039D3*
Y1165354D3*
Y1145669D3*
Y1125984D3*
Y1106299D3*
Y1086614D3*
Y1066929D3*
Y1047244D3*
Y1027559D3*
Y1007874D3*
Y988189D3*
Y968504D3*
Y948819D3*
Y929134D3*
D175*
X4255906Y893701D3*
X4275591D3*
X4295276D3*
X4314961D3*
X4334646D3*
X4354331D3*
X4374016D3*
X4393701D3*
X4413386D3*
X4433071D3*
X4452756D3*
X4472441D3*
X4492126D3*
X4511811D3*
X4531496D3*
X4551181D3*
X4570866D3*
X4590551D3*
D178*
X4625984Y929134D3*
Y948819D3*
Y968504D3*
Y988189D3*
Y1007874D3*
Y1027559D3*
Y1047244D3*
Y1066929D3*
Y1086614D3*
Y1106299D3*
Y1125984D3*
Y1145669D3*
Y1165354D3*
Y1185039D3*
Y1204724D3*
Y1224409D3*
Y1244094D3*
Y1263780D3*
D181*
X4423228Y1096457D3*
D69*
X2937008Y1051181D3*
X2887008D3*
X2837008D3*
X2787008D3*
Y799213D3*
X2837008D3*
X2887008D3*
X2937008D3*
D184*
X3456890Y842520D3*
X3406890D3*
X3356890D3*
X3306890D3*
Y629921D3*
X3356890D3*
X3406890D3*
X3456890D3*
D70*
X2719685Y383858D3*
Y364173D3*
Y344488D3*
Y324803D3*
Y305118D3*
Y285433D3*
Y265748D3*
Y246063D3*
Y226378D3*
Y206693D3*
Y187008D3*
Y167323D3*
D71*
X2749997Y137008D3*
X2769682D3*
X2789367D3*
X2809052D3*
X2828738D3*
X2848423D3*
X2868108D3*
X2887793D3*
X2907478D3*
X2927163D3*
X2946848D3*
X2966533D3*
D70*
X2996850Y167323D3*
Y187008D3*
Y206693D3*
Y226378D3*
Y246063D3*
Y265748D3*
Y285433D3*
Y305118D3*
Y324803D3*
Y344488D3*
Y364173D3*
Y383858D3*
D71*
X2966533Y414173D3*
X2946848D3*
X2927163D3*
X2907478D3*
X2887793D3*
X2868108D3*
X2848423D3*
X2828738D3*
X2809052D3*
X2789367D3*
X2769682D3*
X2749997D3*
D72*
X2858268Y275591D3*
D45*
X1185039Y1586614D3*
D187*
X1244094Y1657480D3*
D45*
X1303150Y1586614D3*
D62*
X543307Y1244291D3*
Y1194291D3*
Y1144291D3*
Y1094291D3*
X755906D3*
Y1144291D3*
Y1194291D3*
Y1244291D3*
D74*
X649606Y1165354D3*
D62*
X543307Y700984D3*
Y650984D3*
Y600984D3*
Y550984D3*
X755906D3*
Y600984D3*
Y650984D3*
Y700984D3*
D74*
X649606Y622047D3*
D75*
X257874Y2005906D3*
X375984D3*
X494094D3*
X612205D3*
D76*
Y1887795D3*
X494094D3*
X375984D3*
X257874D3*
D77*
X3489948Y1755906D3*
Y1917323D3*
D190*
X1895682Y1307109D3*
X2057100D3*
D78*
X3805761Y1250210D3*
X3967178D3*
D79*
X2950787Y1212598D3*
X3037402D3*
Y1275589D3*
X2950787D3*
D78*
X2412060Y199029D3*
X2573478D3*
D80*
X5141732Y68898D3*
Y155512D3*
X5078741D3*
Y68898D3*
D79*
X4618110Y537402D3*
X4704724D3*
Y600392D3*
X4618110D3*
D46*
X4860236Y1950787D3*
X4960236D3*
X5060236D3*
M02*
