G04 DipTrace 4.1.2.0*
G04 4_Layer_Bottom_Mask.gbr*
%MOIN*%
G04 #@! TF.FileFunction,Soldermask,Bot*
G04 #@! TF.Part,Single*
%ADD46C,0.059055*%
%ADD51C,0.062992*%
%ADD54C,0.051181*%
%ADD83C,0.11811*%
%ADD84C,0.137795*%
%ADD97O,0.074803X0.090551*%
%ADD99O,0.07874X0.090551*%
%ADD103R,0.027559X0.082677*%
%ADD117O,0.070866X0.110236*%
%ADD132R,0.062992X0.11811*%
%ADD134O,0.082677X0.043307*%
%ADD136C,0.062992*%
%ADD139C,0.133858*%
%ADD141C,0.066929*%
%ADD156R,0.038937X0.043937*%
%ADD158R,0.043937X0.038937*%
%FSLAX26Y26*%
G04*
G70*
G90*
G75*
G01*
G04 BotMask*
%LPD*%
D158*
X4271654Y897638D3*
Y830709D3*
D51*
X192913Y453937D3*
Y553937D3*
Y653937D3*
Y753937D3*
Y853937D3*
Y953937D3*
Y1053937D3*
Y1153937D3*
Y1253937D3*
Y1353937D3*
Y1453937D3*
Y1553937D3*
X5140551Y450000D3*
X5040551D3*
X5140551Y550000D3*
X5040551D3*
X5140551Y650000D3*
X5040551D3*
X5140551Y750000D3*
X5040551D3*
X5140551Y850000D3*
X5040551D3*
X5140551Y950000D3*
X5040551D3*
X5140551Y1050000D3*
X5040551D3*
X5140551Y1150000D3*
X5040551D3*
X5140551Y1250000D3*
X5040551D3*
X5140551Y1350000D3*
X5040551D3*
X5140551Y1450000D3*
X5040551D3*
X5140551Y1550000D3*
X5040551D3*
X3606299Y783465D3*
X3706299D3*
X3806299D3*
X3906299D3*
D158*
X4212598Y897638D3*
Y830709D3*
D141*
X4511811Y1846457D3*
X4413386D3*
X4334646D3*
X4236220D3*
Y1743307D3*
X4334646D3*
X4413386D3*
X4511811D3*
D139*
X4632677Y1953150D3*
X4115354D3*
X4632677Y1729528D3*
X4115354D3*
D51*
X3653150Y1921260D3*
X3753150D3*
X3853150D3*
X3953150D3*
X3062992Y726378D3*
Y826378D3*
Y926378D3*
Y1026378D3*
Y1126378D3*
X3633858Y994094D3*
X3733858D3*
X5040551Y250000D3*
Y350000D3*
X5140551Y250000D3*
Y350000D3*
D134*
X4348425Y1242126D3*
D132*
X4824409Y401575D3*
X4724409D3*
X4624409D3*
X4524409D3*
X4424409D3*
X4324409D3*
X4224409D3*
X4124409D3*
X4024409D3*
X3925984D3*
X3827559D3*
X3725197D3*
X3622835D3*
X3524409D3*
X805512Y334646D3*
X707087D3*
X608661D3*
X506299D3*
X403937D3*
X305512D3*
D134*
X4438976Y1242126D3*
D136*
X1838583Y340551D3*
X2149606Y332677D3*
X1968504Y314961D3*
X1744094Y340551D3*
X2891732Y1795276D3*
X2889764Y1702756D3*
X3220472Y826772D3*
Y724409D3*
X1456693Y261811D3*
Y362205D3*
Y484252D3*
Y627953D3*
X1828740Y653543D3*
X3444882Y1687008D3*
X2468504Y478346D3*
X1131890Y458661D3*
X1076772Y1433071D3*
X1669291Y1846457D3*
X2645669Y584646D3*
X907480Y2188976D3*
X986220D3*
X1064961D3*
X1143701D3*
X1421260D3*
X1500000D3*
X1578740D3*
X1655512D3*
X1937008D3*
X2015748D3*
X2094488D3*
X2173228D3*
X2456693D3*
X2535433D3*
X3706693D3*
X2893701D3*
X2972441D3*
X3785433D3*
X915354Y1338583D3*
X2248031Y1616142D3*
Y1722441D3*
X755906Y1811024D3*
Y1710630D3*
X192913Y1773622D3*
X3895669Y1120079D3*
X2744094Y962598D3*
X3165354Y1183071D3*
X2643701Y921260D3*
X3161417Y1320866D3*
X4084646Y887795D3*
X2287402Y1375984D3*
X2921260Y606299D3*
X4242126Y685039D3*
X3275591Y600394D3*
D158*
X3545276Y1061024D3*
Y994094D3*
D156*
X4090551Y685039D3*
X4157480D3*
X4090551Y625984D3*
X4157480D3*
D51*
X3023622Y1795276D3*
X3123622D3*
X3223622D3*
D54*
X3480315Y2011811D3*
X3448819Y2059055D3*
X3417323Y2011811D3*
X3385827Y2059055D3*
X3354331Y2011811D3*
D117*
X3561024Y2210630D3*
X3273622D3*
Y2023622D3*
X3561024D3*
D46*
X3943795Y2121063D3*
X3865055D3*
X3707575D3*
X3787529D3*
X1221354Y2120093D3*
X1142614D3*
X1063874D3*
X985134D3*
X906394D3*
X2691827Y2120079D3*
X2613087D3*
X2455606D3*
X2535560D3*
X3128835D3*
X3050094D3*
X2892614D3*
X2972568D3*
X2252850Y2118110D3*
X2174110D3*
X2095370D3*
X2016630D3*
X1937890D3*
X1737102Y2117810D3*
X1658362D3*
X1579622D3*
X1500882D3*
X1422142D3*
D103*
X3486220Y659449D3*
X3436220D3*
X3386220D3*
X3336220D3*
Y950787D3*
X3386220D3*
X3436220D3*
X3486220D3*
D99*
X257874Y2005906D3*
X375984D3*
X494094D3*
X612205D3*
D97*
Y1887795D3*
X494094D3*
X375984D3*
X257874D3*
D83*
X527559Y2175984D3*
X342520Y2177165D3*
D51*
X4860236Y1950787D3*
X4960236D3*
X5060236D3*
D84*
X4810236Y2100787D3*
X5110236D3*
G36*
X104331Y15748D2*
X15748D1*
Y320866D1*
X35433Y328740D1*
X55118Y342520D1*
X70866Y364173D1*
X74803Y391732D1*
X68898Y423228D1*
X53150Y446850D1*
X37402Y462598D1*
X15748Y468504D1*
Y1812992D1*
X43307Y1822835D1*
X57087Y1836614D1*
X70866Y1858268D1*
X76772Y1883858D1*
X70866Y1913386D1*
X59055Y1935039D1*
X37402Y1952756D1*
X15748Y1962598D1*
Y2263780D1*
X104331D1*
Y15748D1*
G37*
G36*
X5230315D2*
X5318898D1*
Y322835D1*
X5295276Y330709D1*
X5277559Y344488D1*
X5265748Y368110D1*
X5259843Y389764D1*
X5265748Y427165D1*
X5285433Y452756D1*
X5301181Y462598D1*
X5318898Y466535D1*
Y1814961D1*
X5299213Y1818898D1*
X5283465Y1830709D1*
X5271654Y1844488D1*
X5263780Y1864173D1*
X5259843Y1885827D1*
X5263780Y1907480D1*
X5273622Y1929134D1*
X5287402Y1942913D1*
X5303150Y1952756D1*
X5318898Y1958661D1*
Y2263780D1*
X5230315D1*
Y15748D1*
G37*
M02*
