M48
INCH
T01C0.0191
T02C0.0236
T03C0.0276
T04C0.0354
T05C0.0362
T06C0.0433
T07C0.0906
T08C0.1181
T09C0.1378
%
T01
X+006732Y+015433
X+007894Y+015413
X+008504Y+014724
X+008504Y+014409
X+008504Y+014075
X+006754Y+012137
X+006254Y+012137
X+006254Y+011637
X+006754Y+011637
X+006754Y+011137
X+006254Y+011137
X+005157Y+015394
X+004370Y+015354
X+003799Y+017244
X+003957Y+018268
X+006254Y+006704
X+006754Y+006704
X+006754Y+006204
X+006754Y+005704
X+006254Y+005704
X+006254Y+006204
T02
X+007126Y+021969
X+007677Y+021949
X+007618Y+019449
X+011280Y+018445
X+011063Y+017126
X+011535Y+016575
X+011496Y+015394
X+011506Y+014803
X+011506Y+014331
X+011506Y+013858
X+011506Y+013189
X+011506Y+012717
X+011506Y+012244
X+013238Y+012244
X+013238Y+012717
X+013238Y+013189
X+013238Y+013858
X+013238Y+014331
X+013238Y+014803
X+016339Y+014764
X+016339Y+015276
X+016378Y+016260
X+016437Y+017894
X+016909Y+017894
X+018307Y+018209
X+020157Y+017244
X+020787Y+017205
X+020787Y+016791
X+020669Y+016260
X+020866Y+015787
X+020315Y+015217
X+021240Y+015079
X+021673Y+015079
X+020866Y+014390
X+020866Y+013878
X+019902Y+013543
X+019213Y+015295
X+018799Y+015295
X+020827Y+018189
X+021535Y+018189
X+022461Y+018386
X+023268Y+018189
X+023760Y+018307
X+023366Y+016457
X+023484Y+016063
X+023740Y+013760
X+024252Y+013622
X+024626Y+013012
X+025118Y+013012
X+025591Y+013701
X+026063Y+014882
X+027657Y+014882
X+028130Y+014744
X+028622Y+014724
X+028110Y+014075
X+028169Y+013583
X+028425Y+012480
X+027736Y+012480
X+027244Y+012500
X+027402Y+011378
X+027874Y+011083
X+028425Y+011791
X+029843Y+010846
X+029843Y+010453
X+031024Y+009744
X+032303Y+011260
X+033307Y+011732
X+033937Y+011732
X+035157Y+011614
X+034921Y+010551
X+034272Y+010551
X+035354Y+008681
X+035256Y+008031
X+034902Y+007697
X+034232Y+007441
X+033189Y+007520
X+031437Y+006594
X+030748Y+006575
X+030177Y+007756
X+029843Y+005531
X+029213Y+005531
X+028976Y+004823
X+029449Y+004744
X+028484Y+004823
X+027697Y+004823
X+027185Y+004823
X+026693Y+004823
X+025984Y+004724
X+025453Y+004744
X+024035Y+004862
X+022717Y+004370
X+022795Y+003858
X+022283Y+003819
X+022539Y+003386
X+023110Y+003228
X+023701Y+002795
X+024055Y+003209
X+025177Y+003268
X+025177Y+002894
X+024803Y+002323
X+024803Y+001988
X+024803Y+001634
X+025925Y+002933
X+026437Y+002913
X+028130Y+002756
X+028130Y+003209
X+028583Y+003209
X+028583Y+002756
X+028583Y+002303
X+028130Y+002303
X+029035Y+002303
X+029035Y+002736
X+029035Y+003189
X+030748Y+004980
X+032717Y+004528
X+032736Y+003012
X+032736Y+002559
X+032402Y+002087
X+032008Y+002087
X+031614Y+002087
X+031614Y+001693
X+032008Y+001693
X+032402Y+001693
X+032402Y+001142
X+032008Y+001142
X+031614Y+001142
X+031614Y+000748
X+032008Y+000748
X+032402Y+000748
X+033996Y+003012
X+034685Y+003917
X+034213Y+004902
X+035256Y+004902
X+036740Y+004843
X+037724Y+004843
X+038748Y+004843
X+039732Y+004843
X+040756Y+004843
X+041740Y+004843
X+042283Y+005079
X+042764Y+004882
X+043622Y+004882
X+044252Y+004370
X+044252Y+004016
X+044252Y+003661
X+045236Y+003701
X+045236Y+004055
X+045236Y+004370
X+046260Y+004370
X+046260Y+004016
X+046260Y+003661
X+047244Y+003661
X+047244Y+004016
X+047244Y+004370
X+048346Y+005000
X+048858Y+005020
X+048799Y+005571
X+047835Y+006752
X+047835Y+007264
X+047835Y+007776
X+047835Y+008169
X+047835Y+008937
X+047835Y+009331
X+046535Y+008661
X+046260Y+008937
X+045079Y+010118
X+044528Y+010118
X+044528Y+010669
X+045079Y+010669
X+045079Y+011260
X+045079Y+011811
X+044528Y+011811
X+044528Y+011260
X+043937Y+011260
X+043937Y+011811
X+043386Y+011811
X+043386Y+011260
X+043386Y+010669
X+043937Y+010669
X+043937Y+010118
X+043386Y+010118
X+042717Y+009921
X+041535Y+009724
X+041594Y+008976
X+041594Y+008583
X+042165Y+007520
X+042559Y+007520
X+040984Y+007520
X+040591Y+007520
X+039803Y+007598
X+039803Y+008031
X+039685Y+010000
X+040236Y+009961
X+040748Y+009921
X+038543Y+010787
X+038996Y+011929
X+037028Y+011594
X+036791Y+010551
X+037579Y+007421
X+036969Y+013780
X+037087Y+014252
X+036693Y+014252
X+035945Y+014252
X+035945Y+013858
X+034567Y+013563
X+033425Y+013386
X+032815Y+013228
X+032303Y+013150
X+031024Y+013504
X+030610Y+014252
X+030098Y+014213
X+029449Y+014232
X+029528Y+013228
X+031319Y+016575
X+027776Y+017697
X+027500Y+016555
X+025650Y+017717
X+025827Y+018346
X+028268Y+021201
X+031850Y+020984
X+036654Y+017559
X+037047Y+017165
X+039134Y+016378
X+039606Y+017480
X+040709Y+016417
X+041732Y+016417
X+042165Y+016417
X+042717Y+016417
X+043150Y+016417
X+045551Y+016339
X+047677Y+016496
X+048189Y+016496
X+048701Y+016496
X+049213Y+016496
X+049213Y+017047
X+048701Y+017047
X+048189Y+017047
X+047677Y+017047
X+047677Y+017598
X+048189Y+017598
X+048701Y+017598
X+049213Y+017598
X+050157Y+016378
X+048661Y+014567
X+048661Y+014134
X+048228Y+014134
X+048228Y+014567
X+048425Y+013661
X+046850Y+012913
X+046378Y+013071
X+045138Y+012421
X+044193Y+012421
X+043681Y+012421
X+042717Y+012244
X+040197Y+013720
X+045157Y+013898
X+045728Y+011240
X+045728Y+010689
X+046929Y+011063
X+047480Y+011063
X+048071Y+011063
X+047283Y+006831
X+046614Y+006831
X+045945Y+006831
X+048839Y+003661
X+050118Y+001614
X+049587Y+000551
X+051870Y+000807
X+044055Y+019173
X+043661Y+019173
X+028346Y+009567
X+027913Y+009134
X+026870Y+010138
X+026398Y+009921
X+025492Y+010551
X+024902Y+010551
X+024350Y+010531
X+023878Y+010669
X+024193Y+011358
X+023622Y+011791
X+023602Y+012697
X+023130Y+012618
X+022776Y+012992
X+023209Y+013268
X+022736Y+012224
X+024252Y+012677
X+025236Y+011496
X+022165Y+009528
X+022224Y+008012
X+022205Y+007165
X+022205Y+006299
X+022283Y+005512
X+022283Y+004961
X+022126Y+002717
X+021496Y+002717
X+020866Y+002756
X+020276Y+002756
X+020157Y+003661
X+019606Y+004606
X+019921Y+005433
X+019606Y+005945
X+019606Y+007244
X+020079Y+008031
X+020650Y+009272
X+020650Y+009685
X+020433Y+010315
X+019921Y+010315
X+019449Y+010315
X+018937Y+010315
X+018858Y+009409
X+016457Y+009606
X+016339Y+011969
X+013780Y+006850
X+013780Y+006457
X+013780Y+006063
X+013780Y+005669
X+013622Y+005079
X+013622Y+004724
X+013976Y+004724
X+013976Y+005079
X+013976Y+003819
X+013976Y+003465
X+013622Y+003465
X+013622Y+003819
X+013622Y+002835
X+013976Y+002835
X+013976Y+002480
X+013622Y+002480
X+009843Y+000827
X+009469Y+000827
X+009469Y+001201
X+008071Y+002992
X+008071Y+003346
X+008071Y+003701
X+008740Y+003976
X+008740Y+004370
X+008996Y+004665
X+007047Y+003701
X+007047Y+003346
X+007047Y+002992
X+006063Y+002992
X+006063Y+003346
X+006063Y+003701
X+005039Y+003701
X+005039Y+003346
X+005039Y+002992
X+004055Y+002992
X+004055Y+003346
X+004055Y+003701
X+003071Y+003720
X+003071Y+003346
X+003071Y+002992
X+001929Y+009035
X+004173Y+009921
X+005020Y+009921
X+005866Y+009921
X+006673Y+009921
X+007559Y+009921
X+008504Y+009921
X+008504Y+009291
X+008504Y+008957
X+008504Y+008622
X+004646Y+009134
X+001929Y+012047
X+004646Y+013465
X+004134Y+016142
X+004134Y+016535
X+003031Y+018051
X+013228Y+018130
X+013583Y+018130
X+013425Y+021181
X+016457Y+005551
X+017913Y+002756
X+018386Y+002756
X+019016Y+002756
X+023976Y+007047
X+023976Y+007402
X+023976Y+007756
X+024528Y+006535
X+025433Y+006417
X+025394Y+007047
X+025394Y+007402
X+025394Y+007756
X+026476Y+007953
X+027008Y+007953
X+027185Y+007441
X+027146Y+006909
X+027697Y+006831
X+028189Y+006693
X+026614Y+000728
T03
X+034803Y+020118
X+034488Y+020591
X+034173Y+020118
X+033858Y+020591
X+033543Y+020118
X+032736Y+020472G85X+032736Y+020000
X+031288Y+021201
X+030501Y+021201
X+029726Y+021201
X+028926Y+021201
X+026918Y+021201
X+026131Y+021201
X+025356Y+021201
X+024556Y+021201
X+022529Y+021181
X+021741Y+021181
X+020954Y+021181
X+020166Y+021181
X+019379Y+021181
X+017371Y+021178
X+016584Y+021178
X+015796Y+021178
X+015009Y+021178
X+014221Y+021178
X+012214Y+021201
X+011426Y+021201
X+010639Y+021201
X+009851Y+021201
X+009064Y+021201
X+032736Y+022343G85X+032736Y+021870
X+035610Y+022343G85X+035610Y+021870
X+037076Y+021211
X+037875Y+021211
X+038651Y+021211
X+039438Y+021211
X+035610Y+020472G85X+035610Y+020000
T04
X+001929Y+004539
X+001929Y+005539
X+001929Y+006539
X+001929Y+007539
X+001929Y+008539
X+001929Y+009539
X+001929Y+010539
X+001929Y+011539
X+001929Y+012539
X+001929Y+013539
X+001929Y+014539
X+001929Y+015539
X+030236Y+017953
X+031236Y+017953
X+032236Y+017953
X+036531Y+019213
X+037531Y+019213
X+038531Y+019213
X+039531Y+019213
X+048602Y+019508
X+049602Y+019508
X+050602Y+019508
X+050406Y+015500
X+051406Y+015500
X+051406Y+014500
X+051406Y+013500
X+051406Y+012500
X+050406Y+012500
X+050406Y+013500
X+050406Y+014500
X+050406Y+011500
X+051406Y+011500
X+051406Y+010500
X+050406Y+010500
X+050406Y+009500
X+051406Y+009500
X+051406Y+008500
X+050406Y+008500
X+050406Y+007500
X+050406Y+006500
X+050406Y+005500
X+051406Y+005500
X+051406Y+006500
X+051406Y+007500
X+051406Y+004500
X+051406Y+003500
X+050406Y+003500
X+050406Y+002500
X+051406Y+002500
X+050406Y+004500
X+039063Y+007835
X+038063Y+007835
X+037063Y+007835
X+036063Y+007835
X+036339Y+009941
X+037339Y+009941
X+030630Y+010264
X+030630Y+009264
X+030630Y+008264
X+030630Y+007264
X+030630Y+011264
T05
X+045118Y+018465
X+044134Y+018465
X+043346Y+018465
X+042362Y+018465
X+042362Y+017433
X+043346Y+017433
X+044134Y+017433
X+045118Y+017433
T06
X+002579Y+020059
X+003760Y+020059
X+004941Y+020059
X+006122Y+020059
X+006122Y+018878
X+004941Y+018878
X+003760Y+018878
X+002579Y+018878
T07
X+046327Y+019531
X+046327Y+017295
X+041154Y+017295
X+041154Y+019531
T08
X+005276Y+021760
X+003425Y+021772
T09
X+048102Y+021008
X+051102Y+021008
T00
M30
