G04 DipTrace 2.4.0.2*
%IN1_Layer_Top_PMask.gbr*%
%MOIN*%
%ADD60R,0.1496X0.063*%
%ADD64R,0.0512X0.0906*%
%ADD66R,0.0315X0.1102*%
%ADD68R,0.0512X0.1299*%
%ADD70R,0.1102X0.0315*%
%FSLAX44Y44*%
G04*
G70*
G90*
G75*
G01*
%LNTopPaste*%
%LPD*%
D70*
X8307Y11220D3*
Y10433D3*
D68*
X16850Y24882D3*
D70*
X8307Y9646D3*
D68*
X16024Y24882D3*
D70*
X8307Y8858D3*
D68*
X15197Y24882D3*
D70*
X8307Y8071D3*
D68*
X22913Y24882D3*
D70*
X8307Y7283D3*
D68*
X22087Y24882D3*
D70*
X8307Y6496D3*
D68*
X21260Y24882D3*
D70*
X8307Y5709D3*
X8386Y17520D3*
D68*
X36929Y24882D3*
D70*
X8386Y16732D3*
D68*
X36102Y24882D3*
D70*
X8386Y15945D3*
D68*
X35276Y24882D3*
D66*
X15236Y20472D3*
X16024D3*
X16811D3*
D64*
X19055Y25236D3*
D70*
X20157Y19882D3*
Y19094D3*
Y18307D3*
Y17520D3*
Y11220D3*
Y10433D3*
Y9646D3*
Y8858D3*
Y8071D3*
Y7283D3*
Y6496D3*
X24055Y11220D3*
Y10433D3*
Y9646D3*
Y8858D3*
Y8071D3*
Y7283D3*
Y6496D3*
X24094Y5709D3*
X24134Y17520D3*
Y16732D3*
Y15945D3*
Y15157D3*
Y14370D3*
D66*
X24902Y20472D3*
X25689D3*
X26476D3*
D70*
X35906Y19882D3*
Y19094D3*
Y18307D3*
Y17520D3*
Y11220D3*
Y10433D3*
Y9646D3*
Y8858D3*
Y8071D3*
Y7283D3*
Y6496D3*
X39803Y15945D3*
Y15157D3*
X39843Y17520D3*
Y16732D3*
X39882Y11220D3*
Y10433D3*
Y9646D3*
Y8858D3*
Y8071D3*
Y7283D3*
Y6496D3*
Y5709D3*
D66*
X40650Y20472D3*
X41437D3*
X42224D3*
D70*
X51614Y11220D3*
Y10433D3*
Y9646D3*
Y8858D3*
Y8071D3*
Y7283D3*
X51654Y19882D3*
Y19094D3*
Y18307D3*
Y17520D3*
Y6496D3*
D60*
X8425Y24882D3*
X5669Y25669D3*
Y22913D3*
X13150Y24882D3*
X10394Y25669D3*
Y22913D3*
M02*
