G04 DipTrace 2.4.0.2*
%IN1_Layer_Top_Silk.gbr*%
%MOIN*%
%ADD10C,0.0098*%
%ADD15C,0.0089*%
%ADD21C,0.0118*%
%ADD39C,0.0154*%
%ADD84C,0.0046*%
%ADD85C,0.0108*%
%ADD86C,0.0124*%
%ADD87C,0.0062*%
%ADD88C,0.0093*%
%ADD89C,0.0077*%
%FSLAX44Y44*%
G04*
G70*
G90*
G75*
G01*
%LNTopSilk*%
%LPD*%
X5894Y19976D2*
D10*
X4894D1*
X5894Y7976D2*
Y19976D1*
Y7976D2*
X4894D1*
Y8732D1*
Y19976D1*
X43496Y22650D2*
Y23650D1*
X39496Y22650D2*
X43496D1*
X39496Y23650D2*
X43496D1*
X39496Y22650D2*
Y23650D1*
X55370Y19937D2*
X53370D1*
X55370Y7937D2*
X53370D1*
Y19937D1*
X55370Y7937D2*
Y19937D1*
X53370Y7937D2*
X55370D1*
X53370Y5937D2*
Y7937D1*
X55370Y5937D2*
Y7937D1*
X53370Y5937D2*
X55370D1*
X5866Y26496D2*
D21*
X8228D1*
Y22047D1*
X5866D1*
Y26496D1*
X10591D2*
X12953D1*
Y22047D1*
X10591D1*
Y26496D1*
X28712Y25148D2*
D10*
X28336D1*
X25899Y26545D2*
X27649D1*
Y25960D1*
X25899D1*
Y26545D1*
X25087D2*
X25524D1*
Y25710D1*
X25087D1*
Y26545D1*
X28024D2*
X28461D1*
Y25710D1*
X28024D1*
Y26545D1*
X24832Y23868D2*
Y26526D1*
Y26545D2*
X28710D1*
X24832Y23848D2*
X28710D1*
Y26526D1*
X25227Y25148D2*
X24852D1*
X33279Y25158D2*
X32903D1*
X30466Y26555D2*
X32216D1*
Y25970D1*
X30466D1*
Y26555D1*
X29653D2*
X30091D1*
Y25720D1*
X29653D1*
Y26555D1*
X32591D2*
X33028D1*
Y25720D1*
X32591D1*
Y26555D1*
X29399Y23878D2*
Y26535D1*
Y26555D2*
X33277D1*
X29399Y23858D2*
X33277D1*
Y26535D1*
X29794Y25158D2*
X29419D1*
X43663Y25154D2*
X43288D1*
X40163Y26532D2*
X42538D1*
Y25967D1*
X40163D1*
Y26532D1*
X39288D2*
X39725D1*
Y25655D1*
X39288D1*
Y26532D1*
X42976D2*
X43413D1*
Y25717D1*
X42976D1*
Y26532D1*
X39038Y25154D2*
X39035Y26532D1*
Y26552D2*
X43642D1*
X39038Y25154D2*
X39351D1*
X39038Y23842D2*
X43663D1*
X39038D2*
Y25154D1*
X43662Y23855D2*
Y26552D1*
X8366Y20472D2*
D21*
X20177D1*
Y4724D1*
X8366D1*
Y20472D1*
X24114D2*
X35925D1*
Y4724D1*
X24114D1*
Y20472D1*
X39862D2*
X51673D1*
Y4724D1*
X39862D1*
Y20472D1*
X4449Y26535D2*
D10*
X14213D1*
X14488Y26220D2*
Y24370D1*
X14173Y26535D2*
G02X14488Y26220I-20J-335D01*
G01*
Y24370D2*
G03X14803Y24055I335J20D01*
G01*
X14764D2*
X17244D1*
G03X17559Y24370I-20J335D01*
G01*
Y26260D1*
G02X17835Y26535I269J7D01*
G01*
X18386Y24646D2*
X19724D1*
X20315Y26535D2*
G02X20551Y26260I-20J-256D01*
G01*
Y24370D1*
G03X20866Y24055I335J20D01*
G01*
X23346D1*
X23307D2*
G03X23661Y24370I20J335D01*
G01*
Y24331D2*
Y26142D1*
Y26181D2*
G02X23976Y26535I335J20D01*
G01*
X34331D1*
X34528Y24429D2*
G03X34843Y24035I338J-52D01*
G01*
X34803Y24055D2*
X37480D1*
X37441Y24075D2*
G03X37756Y24390I-20J335D01*
G01*
X38031Y26535D2*
X43740D1*
G02X44094Y26220I20J-335D01*
G01*
Y26260D2*
Y20748D1*
G03X44331Y20472I256J-20D01*
G01*
X50000D2*
G03X50315Y20748I41J271D01*
G01*
Y21535D1*
G02X50630Y21850I335J-20D01*
G01*
X55827D1*
G02X56142Y21535I-20J-335D01*
G01*
Y4449D1*
G02X55787Y4134I-335J20D01*
G01*
X4449D1*
G02X4134Y4449I20J335D01*
G01*
Y26181D1*
G02X4449Y26535I335J20D01*
G01*
X17795D2*
G02X18071Y26260I7J-269D01*
G01*
X20039D2*
G02X20276Y26535I273J5D01*
G01*
X19724Y24646D2*
G03X20039Y24961I-20J335D01*
G01*
X18071D2*
G03X18386Y24646I335J20D01*
G01*
X18071Y26260D2*
Y24921D1*
X20039Y26260D2*
Y24921D1*
X37717Y26181D2*
G02X38031Y26535I335J20D01*
G01*
X37717Y24331D2*
Y26181D1*
X34291Y26535D2*
G02X34528Y26260I-20J-256D01*
G01*
Y24449D2*
Y26260D1*
X39306Y24586D2*
D15*
X39574Y24184D1*
Y24586D2*
X39306Y24184D1*
X39749Y24375D2*
X39921D1*
X39978Y24394D1*
X39998Y24414D1*
X40017Y24452D1*
Y24509D1*
X39998Y24547D1*
X39978Y24567D1*
X39921Y24586D1*
X39749D1*
Y24184D1*
X40192Y24509D2*
X40230Y24528D1*
X40288Y24585D1*
Y24184D1*
X40463Y24509D2*
X40501Y24528D1*
X40559Y24585D1*
Y24184D1*
X41427Y24543D2*
D84*
Y24327D1*
X41442Y24284D1*
X41470Y24256D1*
X41514Y24241D1*
X41542D1*
X41585Y24256D1*
X41614Y24284D1*
X41628Y24327D1*
Y24543D1*
X41922Y24500D2*
X41893Y24528D1*
X41850Y24543D1*
X41793D1*
X41750Y24528D1*
X41721Y24500D1*
Y24471D1*
X41736Y24442D1*
X41750Y24428D1*
X41778Y24414D1*
X41865Y24385D1*
X41893Y24371D1*
X41908Y24356D1*
X41922Y24327D1*
Y24284D1*
X41893Y24256D1*
X41850Y24241D1*
X41793D1*
X41750Y24256D1*
X41721Y24284D1*
X42015Y24543D2*
Y24241D1*
X42144D1*
X42187Y24256D1*
X42201Y24270D1*
X42215Y24299D1*
Y24342D1*
X42201Y24371D1*
X42187Y24385D1*
X42144Y24399D1*
X42187Y24414D1*
X42201Y24428D1*
X42215Y24456D1*
Y24485D1*
X42201Y24514D1*
X42187Y24528D1*
X42144Y24543D1*
X42015D1*
Y24399D2*
X42144D1*
X42600Y24543D2*
Y24241D1*
X42893Y24543D2*
Y24241D1*
X42692Y24543D1*
Y24241D1*
X25015Y24546D2*
D15*
X25283Y24144D1*
Y24546D2*
X25015Y24144D1*
X25457Y24336D2*
X25630D1*
X25687Y24355D1*
X25706Y24374D1*
X25725Y24412D1*
Y24470D1*
X25706Y24508D1*
X25687Y24527D1*
X25630Y24546D1*
X25457D1*
Y24144D1*
X25900Y24469D2*
X25939Y24489D1*
X25996Y24546D1*
Y24144D1*
X26210Y24546D2*
X26420D1*
X26305Y24393D1*
X26363D1*
X26401Y24374D1*
X26420Y24355D1*
X26439Y24297D1*
Y24259D1*
X26420Y24202D1*
X26382Y24163D1*
X26324Y24144D1*
X26267D1*
X26210Y24163D1*
X26191Y24183D1*
X26171Y24221D1*
X24937Y15321D2*
Y14919D1*
X25380Y15321D2*
Y14919D1*
X25112Y15321D1*
Y14919D1*
X25995Y15321D2*
Y14919D1*
X26129D1*
X26187Y14939D1*
X26225Y14977D1*
X26244Y15015D1*
X26263Y15072D1*
Y15168D1*
X26244Y15226D1*
X26225Y15264D1*
X26187Y15302D1*
X26129Y15321D1*
X25995D1*
X26745Y14919D2*
X26591Y15321D1*
X26438Y14919D1*
X26496Y15053D2*
X26687D1*
X27054Y15321D2*
Y14919D1*
X26920Y15321D2*
X27188D1*
X27669Y14919D2*
X27515Y15321D1*
X27363Y14919D1*
X27420Y15053D2*
X27611D1*
X27844Y15244D2*
X27882Y15264D1*
X27940Y15321D1*
Y14919D1*
X11323Y14825D2*
D39*
X10700D1*
Y13820D1*
Y14347D2*
X11083D1*
X12396Y13820D2*
Y14825D1*
X12014Y13820D1*
X11631Y14825D1*
Y13820D1*
X13677Y14347D2*
X14107D1*
X14251Y14395D1*
X14299Y14443D1*
X14347Y14538D1*
Y14634D1*
X14299Y14729D1*
X14251Y14778D1*
X14107Y14825D1*
X13677D1*
Y13820D1*
X14012Y14347D2*
X14347Y13820D1*
X15422D2*
X15038Y14825D1*
X14656Y13820D1*
X14799Y14155D2*
X15278D1*
X15731Y14825D2*
Y13820D1*
X16065D1*
X16209Y13869D1*
X16305Y13964D1*
X16353Y14060D1*
X16400Y14203D1*
Y14443D1*
X16353Y14586D1*
X16305Y14682D1*
X16209Y14778D1*
X16065Y14825D1*
X15731D1*
X16709D2*
Y13820D1*
X17305Y14825D2*
X17209Y14778D1*
X17114Y14682D1*
X17065Y14586D1*
X17018Y14443D1*
Y14203D1*
X17065Y14060D1*
X17114Y13964D1*
X17209Y13869D1*
X17305Y13820D1*
X17497D1*
X17592Y13869D1*
X17688Y13964D1*
X17735Y14060D1*
X17783Y14203D1*
Y14443D1*
X17735Y14586D1*
X17688Y14682D1*
X17592Y14778D1*
X17497Y14825D1*
X17305D1*
X12174Y12167D2*
Y13172D1*
X11791Y12167D1*
X11409Y13172D1*
Y12167D1*
X12770Y13172D2*
X12674Y13124D1*
X12579Y13028D1*
X12530Y12933D1*
X12483Y12789D1*
Y12549D1*
X12530Y12407D1*
X12579Y12311D1*
X12674Y12216D1*
X12770Y12167D1*
X12961D1*
X13056Y12216D1*
X13152Y12311D1*
X13200Y12407D1*
X13247Y12549D1*
Y12789D1*
X13200Y12933D1*
X13152Y13028D1*
X13056Y13124D1*
X12961Y13172D1*
X12770D1*
X13556D2*
Y12167D1*
X13891D1*
X14035Y12216D1*
X14131Y12311D1*
X14179Y12407D1*
X14226Y12549D1*
Y12789D1*
X14179Y12933D1*
X14131Y13028D1*
X14035Y13124D1*
X13891Y13172D1*
X13556D1*
X14535D2*
Y12454D1*
X14582Y12311D1*
X14679Y12216D1*
X14822Y12167D1*
X14917D1*
X15061Y12216D1*
X15157Y12311D1*
X15205Y12454D1*
Y13172D1*
X15514D2*
Y12167D1*
X16087D1*
X17017Y13172D2*
X16396D1*
Y12167D1*
X17017D1*
X16396Y12693D2*
X16779D1*
X25740Y12890D2*
X26170D1*
X26313Y12939D1*
X26362Y12986D1*
X26409Y13081D1*
Y13177D1*
X26362Y13272D1*
X26313Y13321D1*
X26170Y13369D1*
X25740D1*
Y12364D1*
X26074Y12890D2*
X26409Y12364D1*
X27341Y13369D2*
X26718D1*
Y12364D1*
Y12890D2*
X27101D1*
X29386Y12364D2*
Y13369D1*
X29004Y12364D1*
X28621Y13369D1*
Y12364D1*
X29982Y13369D2*
X29886Y13321D1*
X29791Y13225D1*
X29743Y13130D1*
X29695Y12986D1*
Y12746D1*
X29743Y12604D1*
X29791Y12507D1*
X29886Y12412D1*
X29982Y12364D1*
X30174D1*
X30269Y12412D1*
X30365Y12507D1*
X30412Y12604D1*
X30460Y12746D1*
Y12986D1*
X30412Y13130D1*
X30365Y13225D1*
X30269Y13321D1*
X30174Y13369D1*
X29982D1*
X30769D2*
Y12364D1*
X31104D1*
X31247Y12412D1*
X31344Y12507D1*
X31391Y12604D1*
X31439Y12746D1*
Y12986D1*
X31391Y13130D1*
X31344Y13225D1*
X31247Y13321D1*
X31104Y13369D1*
X30769D1*
X31747D2*
Y12651D1*
X31795Y12507D1*
X31891Y12412D1*
X32035Y12364D1*
X32130D1*
X32274Y12412D1*
X32370Y12507D1*
X32417Y12651D1*
Y13369D1*
X32726D2*
Y12364D1*
X33300D1*
X34230Y13369D2*
X33609D1*
Y12364D1*
X34230D1*
X33609Y12890D2*
X33991D1*
X41606Y14392D2*
Y13387D1*
X42037D1*
X42180Y13436D1*
X42228Y13484D1*
X42276Y13579D1*
Y13722D1*
X42228Y13818D1*
X42180Y13866D1*
X42037Y13914D1*
X42180Y13962D1*
X42228Y14010D1*
X42276Y14105D1*
Y14201D1*
X42228Y14296D1*
X42180Y14345D1*
X42037Y14392D1*
X41606D1*
Y13914D2*
X42037D1*
X42584Y14392D2*
Y13387D1*
X43158D1*
X43467Y14392D2*
Y13675D1*
X43514Y13531D1*
X43611Y13436D1*
X43754Y13387D1*
X43849D1*
X43993Y13436D1*
X44089Y13531D1*
X44137Y13675D1*
Y14392D1*
X45067D2*
X44445D1*
Y13387D1*
X45067D1*
X44445Y13914D2*
X44828D1*
X45710Y14392D2*
Y13387D1*
X45375Y14392D2*
X46045D1*
X46642D2*
X46545Y14345D1*
X46450Y14248D1*
X46402Y14153D1*
X46354Y14010D1*
Y13770D1*
X46402Y13627D1*
X46450Y13531D1*
X46545Y13436D1*
X46642Y13387D1*
X46833D1*
X46928Y13436D1*
X47024Y13531D1*
X47072Y13627D1*
X47119Y13770D1*
Y14010D1*
X47072Y14153D1*
X47024Y14248D1*
X46928Y14345D1*
X46833Y14392D1*
X46642D1*
X47715D2*
X47619Y14345D1*
X47524Y14248D1*
X47475Y14153D1*
X47428Y14010D1*
Y13770D1*
X47475Y13627D1*
X47524Y13531D1*
X47619Y13436D1*
X47715Y13387D1*
X47906D1*
X48002Y13436D1*
X48098Y13531D1*
X48145Y13627D1*
X48193Y13770D1*
Y14010D1*
X48145Y14153D1*
X48098Y14248D1*
X48002Y14345D1*
X47906Y14392D1*
X47715D1*
X48837D2*
Y13387D1*
X48502Y14392D2*
X49171D1*
X49480D2*
Y13387D1*
X50150Y14392D2*
Y13387D1*
X49480Y13914D2*
X50150D1*
X43867Y11931D2*
Y12935D1*
X43484Y11931D1*
X43102Y12935D1*
Y11931D1*
X44463Y12935D2*
X44367Y12888D1*
X44272Y12792D1*
X44223Y12697D1*
X44175Y12553D1*
Y12313D1*
X44223Y12171D1*
X44272Y12074D1*
X44367Y11979D1*
X44463Y11931D1*
X44654D1*
X44749Y11979D1*
X44845Y12074D1*
X44893Y12171D1*
X44940Y12313D1*
Y12553D1*
X44893Y12697D1*
X44845Y12792D1*
X44749Y12888D1*
X44654Y12935D1*
X44463D1*
X45249D2*
Y11931D1*
X45584D1*
X45728Y11979D1*
X45824Y12074D1*
X45872Y12171D1*
X45919Y12313D1*
Y12553D1*
X45872Y12697D1*
X45824Y12792D1*
X45728Y12888D1*
X45584Y12935D1*
X45249D1*
X46228D2*
Y12218D1*
X46275Y12074D1*
X46372Y11979D1*
X46515Y11931D1*
X46610D1*
X46754Y11979D1*
X46850Y12074D1*
X46898Y12218D1*
Y12935D1*
X47206D2*
Y11931D1*
X47780D1*
X48710Y12935D2*
X48089D1*
Y11931D1*
X48710D1*
X48089Y12457D2*
X48471D1*
X48082Y11422D2*
D15*
Y11020D1*
X48216D1*
X48274Y11040D1*
X48312Y11078D1*
X48331Y11116D1*
X48350Y11173D1*
Y11269D1*
X48331Y11326D1*
X48312Y11364D1*
X48274Y11403D1*
X48216Y11422D1*
X48082D1*
X48832Y11020D2*
X48678Y11422D1*
X48525Y11020D1*
X48583Y11154D2*
X48774D1*
X49141Y11422D2*
Y11020D1*
X49007Y11422D2*
X49275D1*
X49756Y11020D2*
X49603Y11422D1*
X49450Y11020D1*
X49507Y11154D2*
X49698D1*
X50371Y11422D2*
Y11020D1*
X50814Y11422D2*
Y11020D1*
X50546Y11422D1*
Y11020D1*
X47767Y10635D2*
Y10233D1*
X47997D1*
X48172Y10443D2*
X48344D1*
X48401Y10463D1*
X48421Y10482D1*
X48440Y10520D1*
Y10558D1*
X48421Y10596D1*
X48401Y10616D1*
X48344Y10635D1*
X48172D1*
Y10233D1*
X48306Y10443D2*
X48440Y10233D1*
X48902Y10539D2*
X48883Y10577D1*
X48844Y10616D1*
X48806Y10635D1*
X48730D1*
X48691Y10616D1*
X48653Y10577D1*
X48634Y10539D1*
X48615Y10482D1*
Y10386D1*
X48634Y10329D1*
X48653Y10290D1*
X48691Y10252D1*
X48730Y10233D1*
X48806D1*
X48844Y10252D1*
X48883Y10290D1*
X48902Y10329D1*
X49077Y10635D2*
Y10233D1*
X49306D1*
X49481Y10635D2*
Y10233D1*
X49749Y10635D2*
X49481Y10367D1*
X49577Y10463D2*
X49749Y10233D1*
X50364Y10635D2*
Y10233D1*
X50807Y10635D2*
Y10233D1*
X50539Y10635D1*
Y10233D1*
X48122Y9847D2*
Y9445D1*
X48294D1*
X48352Y9465D1*
X48371Y9484D1*
X48390Y9522D1*
Y9579D1*
X48371Y9618D1*
X48352Y9637D1*
X48294Y9656D1*
X48352Y9675D1*
X48371Y9694D1*
X48390Y9732D1*
Y9771D1*
X48371Y9809D1*
X48352Y9828D1*
X48294Y9847D1*
X48122D1*
Y9656D2*
X48294D1*
X48852Y9752D2*
X48833Y9790D1*
X48794Y9828D1*
X48756Y9847D1*
X48680D1*
X48641Y9828D1*
X48603Y9790D1*
X48584Y9752D1*
X48565Y9694D1*
Y9598D1*
X48584Y9541D1*
X48603Y9503D1*
X48641Y9465D1*
X48680Y9445D1*
X48756D1*
X48794Y9465D1*
X48833Y9503D1*
X48852Y9541D1*
X49027Y9847D2*
Y9445D1*
X49256D1*
X49431Y9847D2*
Y9445D1*
X49699Y9847D2*
X49431Y9579D1*
X49527Y9675D2*
X49699Y9445D1*
X50314Y9847D2*
Y9445D1*
X50757Y9847D2*
Y9445D1*
X50489Y9847D1*
Y9445D1*
X40910Y6658D2*
X40719D1*
X40700Y6486D1*
X40719Y6505D1*
X40777Y6524D1*
X40834D1*
X40891Y6505D1*
X40930Y6467D1*
X40949Y6409D1*
Y6371D1*
X40930Y6314D1*
X40891Y6275D1*
X40834Y6256D1*
X40777D1*
X40719Y6275D1*
X40700Y6295D1*
X40681Y6333D1*
X41124Y6658D2*
X41277Y6256D1*
X41430Y6658D1*
X40719Y7445D2*
X40929D1*
X40815Y7292D1*
X40872D1*
X40910Y7273D1*
X40929Y7254D1*
X40949Y7197D1*
Y7159D1*
X40929Y7101D1*
X40891Y7063D1*
X40834Y7044D1*
X40776D1*
X40719Y7063D1*
X40700Y7082D1*
X40681Y7120D1*
X41143Y7082D2*
X41124Y7063D1*
X41143Y7044D1*
X41162Y7063D1*
X41143Y7082D1*
X41376Y7445D2*
X41586D1*
X41471Y7292D1*
X41529D1*
X41567Y7273D1*
X41586Y7254D1*
X41605Y7197D1*
Y7159D1*
X41586Y7101D1*
X41548Y7063D1*
X41490Y7044D1*
X41433D1*
X41376Y7063D1*
X41357Y7082D1*
X41337Y7120D1*
X41780Y7446D2*
X41933Y7044D1*
X42086Y7446D1*
X40719Y8272D2*
X40929D1*
X40815Y8119D1*
X40872D1*
X40910Y8100D1*
X40929Y8081D1*
X40949Y8023D1*
Y7985D1*
X40929Y7928D1*
X40891Y7889D1*
X40834Y7870D1*
X40776D1*
X40719Y7889D1*
X40700Y7909D1*
X40681Y7947D1*
X41143Y7909D2*
X41124Y7889D1*
X41143Y7870D1*
X41162Y7889D1*
X41143Y7909D1*
X41376Y8272D2*
X41586D1*
X41471Y8119D1*
X41529D1*
X41567Y8100D1*
X41586Y8081D1*
X41605Y8023D1*
Y7985D1*
X41586Y7928D1*
X41548Y7889D1*
X41490Y7870D1*
X41433D1*
X41376Y7889D1*
X41357Y7909D1*
X41337Y7947D1*
X41780Y8272D2*
X41933Y7870D1*
X42086Y8272D1*
X40719Y9059D2*
X40929D1*
X40815Y8906D1*
X40872D1*
X40910Y8887D1*
X40929Y8868D1*
X40949Y8811D1*
Y8773D1*
X40929Y8715D1*
X40891Y8677D1*
X40834Y8658D1*
X40776D1*
X40719Y8677D1*
X40700Y8696D1*
X40681Y8734D1*
X41143Y8696D2*
X41124Y8677D1*
X41143Y8658D1*
X41162Y8677D1*
X41143Y8696D1*
X41376Y9059D2*
X41586D1*
X41471Y8906D1*
X41529D1*
X41567Y8887D1*
X41586Y8868D1*
X41605Y8811D1*
Y8773D1*
X41586Y8715D1*
X41548Y8677D1*
X41490Y8658D1*
X41433D1*
X41376Y8677D1*
X41357Y8696D1*
X41337Y8734D1*
X41780Y9060D2*
X41933Y8658D1*
X42086Y9060D1*
X47610Y18509D2*
Y18222D1*
X47629Y18164D1*
X47667Y18126D1*
X47725Y18107D1*
X47763D1*
X47820Y18126D1*
X47859Y18164D1*
X47878Y18222D1*
Y18509D1*
X48359Y18107D2*
X48206Y18509D1*
X48053Y18107D1*
X48110Y18241D2*
X48302D1*
X48534Y18317D2*
X48706D1*
X48764Y18337D1*
X48783Y18356D1*
X48802Y18394D1*
Y18432D1*
X48783Y18470D1*
X48764Y18490D1*
X48706Y18509D1*
X48534D1*
Y18107D1*
X48668Y18317D2*
X48802Y18107D1*
X49111Y18509D2*
Y18107D1*
X48977Y18509D2*
X49245D1*
X49420Y18432D2*
X49459Y18451D1*
X49516Y18508D1*
Y18107D1*
X50131Y18317D2*
X50303D1*
X50361Y18337D1*
X50380Y18356D1*
X50399Y18394D1*
Y18432D1*
X50380Y18470D1*
X50361Y18490D1*
X50303Y18509D1*
X50131D1*
Y18107D1*
X50265Y18317D2*
X50399Y18107D1*
X50574Y18509D2*
X50842Y18107D1*
Y18509D2*
X50574Y18107D1*
X47649Y17721D2*
Y17434D1*
X47668Y17377D1*
X47707Y17339D1*
X47764Y17319D1*
X47802D1*
X47860Y17339D1*
X47898Y17377D1*
X47917Y17434D1*
Y17721D1*
X48399Y17319D2*
X48245Y17721D1*
X48092Y17319D1*
X48150Y17453D2*
X48341D1*
X48574Y17530D2*
X48746D1*
X48803Y17549D1*
X48822Y17568D1*
X48842Y17606D1*
Y17645D1*
X48822Y17683D1*
X48803Y17702D1*
X48746Y17721D1*
X48574D1*
Y17319D1*
X48708Y17530D2*
X48842Y17319D1*
X49150Y17721D2*
Y17319D1*
X49016Y17721D2*
X49284D1*
X49459Y17644D2*
X49498Y17664D1*
X49555Y17721D1*
Y17319D1*
X50305Y17721D2*
Y17319D1*
X50171Y17721D2*
X50439D1*
X50614D2*
X50881Y17319D1*
Y17721D2*
X50614Y17319D1*
X49964Y20026D2*
X49926Y20064D1*
X49869Y20083D1*
X49792D1*
X49735Y20064D1*
X49696Y20026D1*
Y19988D1*
X49716Y19949D1*
X49735Y19930D1*
X49773Y19911D1*
X49888Y19873D1*
X49926Y19854D1*
X49945Y19834D1*
X49964Y19796D1*
Y19739D1*
X49926Y19701D1*
X49869Y19681D1*
X49792D1*
X49735Y19701D1*
X49696Y19739D1*
X50139Y20083D2*
Y19681D1*
X50273D1*
X50331Y19701D1*
X50369Y19739D1*
X50388Y19777D1*
X50407Y19834D1*
Y19930D1*
X50388Y19988D1*
X50369Y20026D1*
X50331Y20064D1*
X50273Y20083D1*
X50139D1*
X50889Y19681D2*
X50735Y20083D1*
X50582Y19681D1*
X50640Y19815D2*
X50831D1*
X50043Y19239D2*
X50005Y19277D1*
X49948Y19296D1*
X49871D1*
X49814Y19277D1*
X49775Y19239D1*
Y19200D1*
X49795Y19162D1*
X49814Y19143D1*
X49852Y19124D1*
X49967Y19086D1*
X50005Y19067D1*
X50024Y19047D1*
X50043Y19009D1*
Y18952D1*
X50005Y18914D1*
X49948Y18894D1*
X49871D1*
X49814Y18914D1*
X49775Y18952D1*
X50505Y19200D2*
X50486Y19239D1*
X50448Y19277D1*
X50410Y19296D1*
X50333D1*
X50295Y19277D1*
X50257Y19239D1*
X50237Y19200D1*
X50218Y19143D1*
Y19047D1*
X50237Y18990D1*
X50257Y18952D1*
X50295Y18914D1*
X50333Y18894D1*
X50410D1*
X50448Y18914D1*
X50486Y18952D1*
X50505Y18990D1*
X50680Y19296D2*
Y18894D1*
X50910D1*
X40970Y16509D2*
Y16911D1*
X40817Y16509D1*
X40664Y16911D1*
Y16509D1*
X41145Y16911D2*
Y16509D1*
X41607Y16815D2*
X41588Y16853D1*
X41550Y16892D1*
X41512Y16911D1*
X41435D1*
X41397Y16892D1*
X41359Y16853D1*
X41339Y16815D1*
X41320Y16758D1*
Y16662D1*
X41339Y16605D1*
X41359Y16566D1*
X41397Y16528D1*
X41435Y16509D1*
X41512D1*
X41550Y16528D1*
X41588Y16566D1*
X41607Y16605D1*
X41782Y16710D2*
X42003D1*
X42178Y16911D2*
Y16509D1*
X42408D1*
X40950Y14954D2*
Y15356D1*
X40797Y14954D1*
X40644Y15356D1*
Y14954D1*
X41125Y15356D2*
Y14954D1*
X41587Y15261D2*
X41568Y15299D1*
X41530Y15337D1*
X41491Y15356D1*
X41415D1*
X41377Y15337D1*
X41338Y15299D1*
X41319Y15261D1*
X41300Y15203D1*
Y15107D1*
X41319Y15050D1*
X41338Y15012D1*
X41377Y14974D1*
X41415Y14954D1*
X41491D1*
X41530Y14974D1*
X41568Y15012D1*
X41587Y15050D1*
X41762Y15155D2*
X41983D1*
X42158Y15165D2*
X42330D1*
X42388Y15184D1*
X42407Y15203D1*
X42426Y15241D1*
Y15280D1*
X42407Y15318D1*
X42388Y15337D1*
X42330Y15356D1*
X42158D1*
Y14954D1*
X42292Y15165D2*
X42426Y14954D1*
X40951Y15742D2*
X40797Y16144D1*
X40644Y15742D1*
X40702Y15876D2*
X40893D1*
X41412Y16048D2*
X41393Y16086D1*
X41355Y16125D1*
X41317Y16144D1*
X41240D1*
X41202Y16125D1*
X41164Y16086D1*
X41145Y16048D1*
X41125Y15991D1*
Y15895D1*
X41145Y15838D1*
X41164Y15799D1*
X41202Y15761D1*
X41240Y15742D1*
X41317D1*
X41355Y15761D1*
X41393Y15799D1*
X41412Y15838D1*
Y15895D1*
X41317D1*
X41855Y16144D2*
Y15742D1*
X41587Y16144D1*
Y15742D1*
X42030Y16144D2*
Y15742D1*
X42164D1*
X42222Y15761D1*
X42260Y15799D1*
X42279Y15838D1*
X42298Y15895D1*
Y15991D1*
X42279Y16048D1*
X42260Y16086D1*
X42222Y16125D1*
X42164Y16144D1*
X42030D1*
X40971Y17336D2*
X40817Y17738D1*
X40664Y17336D1*
X40722Y17470D2*
X40913D1*
X41433Y17642D2*
X41414Y17680D1*
X41375Y17719D1*
X41337Y17738D1*
X41261D1*
X41222Y17719D1*
X41184Y17680D1*
X41165Y17642D1*
X41146Y17585D1*
Y17489D1*
X41165Y17432D1*
X41184Y17393D1*
X41222Y17355D1*
X41261Y17336D1*
X41337D1*
X41375Y17355D1*
X41414Y17393D1*
X41433Y17432D1*
Y17489D1*
X41337D1*
X41876Y17738D2*
Y17336D1*
X41608Y17738D1*
Y17336D1*
X42050Y17738D2*
Y17336D1*
X42184D1*
X42242Y17355D1*
X42280Y17393D1*
X42299Y17432D1*
X42318Y17489D1*
Y17585D1*
X42299Y17642D1*
X42280Y17680D1*
X42242Y17719D1*
X42184Y17738D1*
X42050D1*
X49933Y8976D2*
X49914Y9014D1*
X49875Y9052D1*
X49837Y9071D1*
X49761D1*
X49722Y9052D1*
X49684Y9014D1*
X49665Y8976D1*
X49646Y8918D1*
Y8822D1*
X49665Y8765D1*
X49684Y8727D1*
X49722Y8689D1*
X49761Y8669D1*
X49837D1*
X49875Y8689D1*
X49914Y8727D1*
X49933Y8765D1*
Y8822D1*
X49837D1*
X50376Y9071D2*
Y8669D1*
X50108Y9071D1*
Y8669D1*
X50551Y9071D2*
Y8669D1*
X50685D1*
X50742Y8689D1*
X50781Y8727D1*
X50800Y8765D1*
X50819Y8822D1*
Y8918D1*
X50800Y8976D1*
X50781Y9014D1*
X50742Y9052D1*
X50685Y9071D1*
X50551D1*
X25083Y6658D2*
X24892D1*
X24873Y6486D1*
X24892Y6505D1*
X24950Y6524D1*
X25007D1*
X25064Y6505D1*
X25103Y6467D1*
X25122Y6409D1*
Y6371D1*
X25103Y6314D1*
X25064Y6275D1*
X25007Y6256D1*
X24950D1*
X24892Y6275D1*
X24873Y6295D1*
X24854Y6333D1*
X25297Y6658D2*
X25450Y6256D1*
X25603Y6658D1*
X24892Y7445D2*
X25102D1*
X24988Y7292D1*
X25045D1*
X25083Y7273D1*
X25102Y7254D1*
X25122Y7197D1*
Y7159D1*
X25102Y7101D1*
X25064Y7063D1*
X25007Y7044D1*
X24949D1*
X24892Y7063D1*
X24873Y7082D1*
X24854Y7120D1*
X25316Y7082D2*
X25297Y7063D1*
X25316Y7044D1*
X25335Y7063D1*
X25316Y7082D1*
X25549Y7445D2*
X25759D1*
X25644Y7292D1*
X25702D1*
X25740Y7273D1*
X25759Y7254D1*
X25778Y7197D1*
Y7159D1*
X25759Y7101D1*
X25721Y7063D1*
X25663Y7044D1*
X25606D1*
X25549Y7063D1*
X25530Y7082D1*
X25510Y7120D1*
X25953Y7446D2*
X26106Y7044D1*
X26259Y7446D1*
X24892Y8272D2*
X25102D1*
X24988Y8119D1*
X25045D1*
X25083Y8100D1*
X25102Y8081D1*
X25122Y8023D1*
Y7985D1*
X25102Y7928D1*
X25064Y7889D1*
X25007Y7870D1*
X24949D1*
X24892Y7889D1*
X24873Y7909D1*
X24854Y7947D1*
X25316Y7909D2*
X25297Y7889D1*
X25316Y7870D1*
X25335Y7889D1*
X25316Y7909D1*
X25549Y8272D2*
X25759D1*
X25644Y8119D1*
X25702D1*
X25740Y8100D1*
X25759Y8081D1*
X25778Y8023D1*
Y7985D1*
X25759Y7928D1*
X25721Y7889D1*
X25663Y7870D1*
X25606D1*
X25549Y7889D1*
X25530Y7909D1*
X25510Y7947D1*
X25953Y8272D2*
X26106Y7870D1*
X26259Y8272D1*
X24892Y9059D2*
X25102D1*
X24988Y8906D1*
X25045D1*
X25083Y8887D1*
X25102Y8868D1*
X25122Y8811D1*
Y8773D1*
X25102Y8715D1*
X25064Y8677D1*
X25007Y8658D1*
X24949D1*
X24892Y8677D1*
X24873Y8696D1*
X24854Y8734D1*
X25316Y8696D2*
X25297Y8677D1*
X25316Y8658D1*
X25335Y8677D1*
X25316Y8696D1*
X25549Y9059D2*
X25759D1*
X25644Y8906D1*
X25702D1*
X25740Y8887D1*
X25759Y8868D1*
X25778Y8811D1*
Y8773D1*
X25759Y8715D1*
X25721Y8677D1*
X25663Y8658D1*
X25606D1*
X25549Y8677D1*
X25530Y8696D1*
X25510Y8734D1*
X25953Y9060D2*
X26106Y8658D1*
X26259Y9060D1*
X25852Y18832D2*
X25450Y18678D1*
X25852Y18525D1*
X25718Y18583D2*
Y18774D1*
X25450Y19275D2*
X25852D1*
X25450Y19007D1*
X25852D1*
X25450Y19584D2*
X25852D1*
X25450Y19450D2*
Y19718D1*
X24797Y18812D2*
X24759Y18793D1*
X24721Y18755D1*
X24702Y18717D1*
Y18640D1*
X24721Y18602D1*
X24759Y18564D1*
X24797Y18544D1*
X24855Y18525D1*
X24951D1*
X25008Y18544D1*
X25046Y18564D1*
X25084Y18602D1*
X25104Y18640D1*
Y18717D1*
X25084Y18755D1*
X25046Y18793D1*
X25008Y18812D1*
X24951D1*
Y18717D1*
X24702Y19255D2*
X25104D1*
X24702Y18987D1*
X25104D1*
X24702Y19430D2*
X25104D1*
Y19564D1*
X25084Y19622D1*
X25046Y19660D1*
X25008Y19679D1*
X24951Y19698D1*
X24855D1*
X24797Y19679D1*
X24759Y19660D1*
X24721Y19622D1*
X24702Y19564D1*
Y19430D1*
X26372Y18812D2*
X26334Y18793D1*
X26296Y18755D1*
X26277Y18717D1*
Y18640D1*
X26296Y18602D1*
X26334Y18564D1*
X26372Y18544D1*
X26430Y18525D1*
X26526D1*
X26583Y18544D1*
X26621Y18564D1*
X26659Y18602D1*
X26679Y18640D1*
Y18717D1*
X26659Y18755D1*
X26621Y18793D1*
X26583Y18812D1*
X26526D1*
Y18717D1*
X26277Y19255D2*
X26679D1*
X26277Y18987D1*
X26679D1*
X26277Y19430D2*
X26679D1*
Y19564D1*
X26659Y19622D1*
X26621Y19660D1*
X26583Y19679D1*
X26526Y19698D1*
X26430D1*
X26372Y19679D1*
X26334Y19660D1*
X26296Y19622D1*
X26277Y19564D1*
Y19430D1*
X24925Y17762D2*
Y17360D1*
X25368Y17762D2*
Y17360D1*
X25100Y17762D1*
Y17360D1*
X25983Y17762D2*
Y17360D1*
X26213D1*
X26388Y17571D2*
X26560D1*
X26617Y17590D1*
X26637Y17609D1*
X26656Y17647D1*
Y17686D1*
X26637Y17724D1*
X26617Y17743D1*
X26560Y17762D1*
X26388D1*
Y17360D1*
X26522Y17571D2*
X26656Y17360D1*
X27118Y17667D2*
X27099Y17705D1*
X27060Y17743D1*
X27022Y17762D1*
X26946D1*
X26907Y17743D1*
X26869Y17705D1*
X26850Y17667D1*
X26831Y17609D1*
Y17513D1*
X26850Y17456D1*
X26869Y17418D1*
X26907Y17380D1*
X26946Y17360D1*
X27022D1*
X27060Y17380D1*
X27099Y17418D1*
X27118Y17456D1*
X27293Y17762D2*
Y17360D1*
X27561Y17762D2*
X27293Y17494D1*
X27388Y17590D2*
X27561Y17360D1*
X24925Y16975D2*
Y16573D1*
X25368Y16975D2*
Y16573D1*
X25100Y16975D1*
Y16573D1*
X25983Y16975D2*
Y16573D1*
X26156D1*
X26213Y16592D1*
X26232Y16611D1*
X26251Y16649D1*
Y16707D1*
X26232Y16745D1*
X26213Y16764D1*
X26156Y16783D1*
X26213Y16803D1*
X26232Y16822D1*
X26251Y16860D1*
Y16898D1*
X26232Y16936D1*
X26213Y16956D1*
X26156Y16975D1*
X25983D1*
Y16783D2*
X26156D1*
X26713Y16879D2*
X26694Y16917D1*
X26656Y16956D1*
X26618Y16975D1*
X26541D1*
X26503Y16956D1*
X26465Y16917D1*
X26445Y16879D1*
X26426Y16822D1*
Y16726D1*
X26445Y16669D1*
X26465Y16630D1*
X26503Y16592D1*
X26541Y16573D1*
X26618D1*
X26656Y16592D1*
X26694Y16630D1*
X26713Y16669D1*
X26888Y16975D2*
Y16573D1*
X27118D1*
X27293Y16975D2*
Y16573D1*
X27561Y16975D2*
X27293Y16707D1*
X27388Y16803D2*
X27561Y16573D1*
X24937Y14573D2*
Y14171D1*
X25380Y14573D2*
Y14171D1*
X25112Y14573D1*
Y14171D1*
X25995Y14573D2*
Y14171D1*
X26129D1*
X26187Y14191D1*
X26225Y14229D1*
X26244Y14267D1*
X26263Y14324D1*
Y14420D1*
X26244Y14478D1*
X26225Y14516D1*
X26187Y14554D1*
X26129Y14573D1*
X25995D1*
X26745Y14171D2*
X26591Y14573D1*
X26438Y14171D1*
X26496Y14305D2*
X26687D1*
X27054Y14573D2*
Y14171D1*
X26920Y14573D2*
X27188D1*
X27669Y14171D2*
X27515Y14573D1*
X27363Y14171D1*
X27420Y14305D2*
X27611D1*
X27959Y14573D2*
X27901Y14554D1*
X27863Y14496D1*
X27844Y14401D1*
Y14343D1*
X27863Y14248D1*
X27901Y14190D1*
X27959Y14171D1*
X27997D1*
X28054Y14190D1*
X28092Y14248D1*
X28112Y14343D1*
Y14401D1*
X28092Y14496D1*
X28054Y14554D1*
X27997Y14573D1*
X27959D1*
X28092Y14496D2*
X27863Y14248D1*
X9335Y6658D2*
X9144D1*
X9125Y6486D1*
X9144Y6505D1*
X9202Y6524D1*
X9259D1*
X9316Y6505D1*
X9355Y6467D1*
X9374Y6409D1*
Y6371D1*
X9355Y6314D1*
X9316Y6275D1*
X9259Y6256D1*
X9202D1*
X9144Y6275D1*
X9125Y6295D1*
X9106Y6333D1*
X9549Y6658D2*
X9702Y6256D1*
X9855Y6658D1*
X9144Y7445D2*
X9354D1*
X9240Y7292D1*
X9297D1*
X9335Y7273D1*
X9354Y7254D1*
X9374Y7197D1*
Y7159D1*
X9354Y7101D1*
X9316Y7063D1*
X9259Y7044D1*
X9201D1*
X9144Y7063D1*
X9125Y7082D1*
X9106Y7120D1*
X9568Y7082D2*
X9549Y7063D1*
X9568Y7044D1*
X9587Y7063D1*
X9568Y7082D1*
X9801Y7445D2*
X10011D1*
X9896Y7292D1*
X9954D1*
X9992Y7273D1*
X10011Y7254D1*
X10030Y7197D1*
Y7159D1*
X10011Y7101D1*
X9973Y7063D1*
X9915Y7044D1*
X9858D1*
X9801Y7063D1*
X9782Y7082D1*
X9762Y7120D1*
X10205Y7446D2*
X10358Y7044D1*
X10511Y7446D1*
X9144Y8272D2*
X9354D1*
X9240Y8119D1*
X9297D1*
X9335Y8100D1*
X9354Y8081D1*
X9374Y8023D1*
Y7985D1*
X9354Y7928D1*
X9316Y7889D1*
X9259Y7870D1*
X9201D1*
X9144Y7889D1*
X9125Y7909D1*
X9106Y7947D1*
X9568Y7909D2*
X9549Y7889D1*
X9568Y7870D1*
X9587Y7889D1*
X9568Y7909D1*
X9801Y8272D2*
X10011D1*
X9896Y8119D1*
X9954D1*
X9992Y8100D1*
X10011Y8081D1*
X10030Y8023D1*
Y7985D1*
X10011Y7928D1*
X9973Y7889D1*
X9915Y7870D1*
X9858D1*
X9801Y7889D1*
X9782Y7909D1*
X9762Y7947D1*
X10205Y8272D2*
X10358Y7870D1*
X10511Y8272D1*
X9144Y9059D2*
X9354D1*
X9240Y8906D1*
X9297D1*
X9335Y8887D1*
X9354Y8868D1*
X9374Y8811D1*
Y8773D1*
X9354Y8715D1*
X9316Y8677D1*
X9259Y8658D1*
X9201D1*
X9144Y8677D1*
X9125Y8696D1*
X9106Y8734D1*
X9568Y8696D2*
X9549Y8677D1*
X9568Y8658D1*
X9587Y8677D1*
X9568Y8696D1*
X9801Y9059D2*
X10011D1*
X9896Y8906D1*
X9954D1*
X9992Y8887D1*
X10011Y8868D1*
X10030Y8811D1*
Y8773D1*
X10011Y8715D1*
X9973Y8677D1*
X9915Y8658D1*
X9858D1*
X9801Y8677D1*
X9782Y8696D1*
X9762Y8734D1*
X10205Y9060D2*
X10358Y8658D1*
X10511Y9060D1*
X10069Y17447D2*
X10088Y17409D1*
X10126Y17370D1*
X10164Y17351D1*
X10241D1*
X10279Y17370D1*
X10317Y17409D1*
X10337Y17447D1*
X10356Y17504D1*
Y17600D1*
X10337Y17657D1*
X10317Y17696D1*
X10279Y17734D1*
X10241Y17753D1*
X10164D1*
X10126Y17734D1*
X10088Y17696D1*
X10069Y17657D1*
Y17600D1*
X10164D1*
X9626Y17351D2*
Y17753D1*
X9894Y17351D1*
Y17753D1*
X9451Y17351D2*
Y17753D1*
X9317D1*
X9260Y17734D1*
X9221Y17696D1*
X9202Y17657D1*
X9183Y17600D1*
Y17504D1*
X9202Y17447D1*
X9221Y17409D1*
X9260Y17370D1*
X9317Y17351D1*
X9451D1*
X10069Y16659D2*
X10088Y16621D1*
X10126Y16583D1*
X10164Y16564D1*
X10241D1*
X10279Y16583D1*
X10317Y16621D1*
X10337Y16659D1*
X10356Y16717D1*
Y16813D1*
X10337Y16870D1*
X10317Y16908D1*
X10279Y16946D1*
X10241Y16966D1*
X10164D1*
X10126Y16946D1*
X10088Y16908D1*
X10069Y16870D1*
Y16813D1*
X10164D1*
X9626Y16564D2*
Y16966D1*
X9894Y16564D1*
Y16966D1*
X9451Y16564D2*
Y16966D1*
X9317D1*
X9260Y16946D1*
X9221Y16908D1*
X9202Y16870D1*
X9183Y16813D1*
Y16717D1*
X9202Y16659D1*
X9221Y16621D1*
X9260Y16583D1*
X9317Y16564D1*
X9451D1*
X10069Y15833D2*
X10088Y15795D1*
X10126Y15756D1*
X10164Y15737D1*
X10241D1*
X10279Y15756D1*
X10317Y15795D1*
X10337Y15833D1*
X10356Y15890D1*
Y15986D1*
X10337Y16043D1*
X10317Y16082D1*
X10279Y16120D1*
X10241Y16139D1*
X10164D1*
X10126Y16120D1*
X10088Y16082D1*
X10069Y16043D1*
Y15986D1*
X10164D1*
X9626Y15737D2*
Y16139D1*
X9894Y15737D1*
Y16139D1*
X9451Y15737D2*
Y16139D1*
X9317D1*
X9260Y16120D1*
X9221Y16082D1*
X9202Y16043D1*
X9183Y15986D1*
Y15890D1*
X9202Y15833D1*
X9221Y15795D1*
X9260Y15756D1*
X9317Y15737D1*
X9451D1*
X40968Y9752D2*
X40949Y9790D1*
X40910Y9828D1*
X40872Y9847D1*
X40796D1*
X40757Y9828D1*
X40719Y9790D1*
X40700Y9752D1*
X40681Y9694D1*
Y9598D1*
X40700Y9541D1*
X40719Y9503D1*
X40757Y9465D1*
X40796Y9445D1*
X40872D1*
X40910Y9465D1*
X40949Y9503D1*
X40968Y9541D1*
X41143Y9847D2*
Y9445D1*
X41372D1*
X41547Y9847D2*
Y9445D1*
X41815Y9847D2*
X41547Y9579D1*
X41643Y9675D2*
X41815Y9445D1*
X42469Y9847D2*
X42679D1*
X42564Y9694D1*
X42622D1*
X42660Y9675D1*
X42679Y9656D1*
X42698Y9598D1*
Y9560D1*
X42679Y9503D1*
X42641Y9464D1*
X42583Y9445D1*
X42526D1*
X42469Y9464D1*
X42450Y9484D1*
X42430Y9522D1*
X42893Y9751D2*
Y9770D1*
X42912Y9809D1*
X42931Y9828D1*
X42969Y9847D1*
X43046D1*
X43084Y9828D1*
X43103Y9809D1*
X43122Y9770D1*
Y9732D1*
X43103Y9694D1*
X43065Y9637D1*
X42873Y9445D1*
X43141D1*
X43335Y9484D2*
X43316Y9464D1*
X43335Y9445D1*
X43355Y9464D1*
X43335Y9484D1*
X43606Y9445D2*
X43798Y9847D1*
X43530D1*
X44202Y9790D2*
X44183Y9828D1*
X44126Y9847D1*
X44088D1*
X44030Y9828D1*
X43992Y9770D1*
X43973Y9675D1*
Y9579D1*
X43992Y9503D1*
X44030Y9464D1*
X44088Y9445D1*
X44107D1*
X44164Y9464D1*
X44202Y9503D1*
X44221Y9560D1*
Y9579D1*
X44202Y9637D1*
X44164Y9675D1*
X44107Y9694D1*
X44088D1*
X44030Y9675D1*
X43992Y9637D1*
X43973Y9579D1*
X44492Y9847D2*
X44434Y9828D1*
X44415Y9790D1*
Y9751D1*
X44434Y9713D1*
X44473Y9694D1*
X44549Y9675D1*
X44606Y9656D1*
X44645Y9617D1*
X44664Y9579D1*
Y9522D1*
X44645Y9484D1*
X44626Y9464D1*
X44568Y9445D1*
X44492D1*
X44434Y9464D1*
X44415Y9484D1*
X44396Y9522D1*
Y9579D1*
X44415Y9617D1*
X44454Y9656D1*
X44511Y9675D1*
X44587Y9694D1*
X44626Y9713D1*
X44645Y9751D1*
Y9790D1*
X44626Y9828D1*
X44568Y9847D1*
X44492D1*
X25180Y9752D2*
X25161Y9790D1*
X25123Y9828D1*
X25085Y9847D1*
X25008D1*
X24970Y9828D1*
X24932Y9790D1*
X24912Y9752D1*
X24893Y9694D1*
Y9598D1*
X24912Y9541D1*
X24932Y9503D1*
X24970Y9465D1*
X25008Y9445D1*
X25085D1*
X25123Y9465D1*
X25161Y9503D1*
X25180Y9541D1*
X25355Y9847D2*
Y9445D1*
X25585D1*
X25760Y9847D2*
Y9445D1*
X26028Y9847D2*
X25760Y9579D1*
X25855Y9675D2*
X26028Y9445D1*
X26681Y9847D2*
X26891D1*
X26777Y9694D1*
X26834D1*
X26872Y9675D1*
X26891Y9656D1*
X26911Y9598D1*
Y9560D1*
X26891Y9503D1*
X26853Y9464D1*
X26796Y9445D1*
X26738D1*
X26681Y9464D1*
X26662Y9484D1*
X26643Y9522D1*
X27105Y9751D2*
Y9770D1*
X27124Y9809D1*
X27143Y9828D1*
X27182Y9847D1*
X27258D1*
X27296Y9828D1*
X27315Y9809D1*
X27335Y9770D1*
Y9732D1*
X27315Y9694D1*
X27277Y9637D1*
X27086Y9445D1*
X27354D1*
X27548Y9484D2*
X27529Y9464D1*
X27548Y9445D1*
X27567Y9464D1*
X27548Y9484D1*
X27819Y9445D2*
X28010Y9847D1*
X27742D1*
X28415Y9790D2*
X28396Y9828D1*
X28338Y9847D1*
X28300D1*
X28243Y9828D1*
X28204Y9770D1*
X28185Y9675D1*
Y9579D1*
X28204Y9503D1*
X28243Y9464D1*
X28300Y9445D1*
X28319D1*
X28376Y9464D1*
X28415Y9503D1*
X28434Y9560D1*
Y9579D1*
X28415Y9637D1*
X28376Y9675D1*
X28319Y9694D1*
X28300D1*
X28243Y9675D1*
X28204Y9637D1*
X28185Y9579D1*
X28704Y9847D2*
X28647Y9828D1*
X28628Y9790D1*
Y9751D1*
X28647Y9713D1*
X28685Y9694D1*
X28762Y9675D1*
X28819Y9656D1*
X28857Y9617D1*
X28876Y9579D1*
Y9522D1*
X28857Y9484D1*
X28838Y9464D1*
X28781Y9445D1*
X28704D1*
X28647Y9464D1*
X28628Y9484D1*
X28609Y9522D1*
Y9579D1*
X28628Y9617D1*
X28666Y9656D1*
X28723Y9675D1*
X28800Y9694D1*
X28838Y9713D1*
X28857Y9751D1*
Y9790D1*
X28838Y9828D1*
X28781Y9847D1*
X28704D1*
X9393Y9752D2*
X9374Y9790D1*
X9335Y9828D1*
X9297Y9847D1*
X9221D1*
X9182Y9828D1*
X9144Y9790D1*
X9125Y9752D1*
X9106Y9694D1*
Y9598D1*
X9125Y9541D1*
X9144Y9503D1*
X9182Y9465D1*
X9221Y9445D1*
X9297D1*
X9335Y9465D1*
X9374Y9503D1*
X9393Y9541D1*
X9568Y9847D2*
Y9445D1*
X9797D1*
X9972Y9847D2*
Y9445D1*
X10240Y9847D2*
X9972Y9579D1*
X10068Y9675D2*
X10240Y9445D1*
X10894Y9847D2*
X11104D1*
X10990Y9694D1*
X11047D1*
X11085Y9675D1*
X11104Y9656D1*
X11123Y9598D1*
Y9560D1*
X11104Y9503D1*
X11066Y9464D1*
X11009Y9445D1*
X10951D1*
X10894Y9464D1*
X10875Y9484D1*
X10856Y9522D1*
X11318Y9751D2*
Y9770D1*
X11337Y9809D1*
X11356Y9828D1*
X11394Y9847D1*
X11471D1*
X11509Y9828D1*
X11528Y9809D1*
X11547Y9770D1*
Y9732D1*
X11528Y9694D1*
X11490Y9637D1*
X11298Y9445D1*
X11566D1*
X11760Y9484D2*
X11741Y9464D1*
X11760Y9445D1*
X11780Y9464D1*
X11760Y9484D1*
X12031Y9445D2*
X12223Y9847D1*
X11955D1*
X12627Y9790D2*
X12608Y9828D1*
X12551Y9847D1*
X12513D1*
X12455Y9828D1*
X12417Y9770D1*
X12398Y9675D1*
Y9579D1*
X12417Y9503D1*
X12455Y9464D1*
X12513Y9445D1*
X12532D1*
X12589Y9464D1*
X12627Y9503D1*
X12646Y9560D1*
Y9579D1*
X12627Y9637D1*
X12589Y9675D1*
X12532Y9694D1*
X12513D1*
X12455Y9675D1*
X12417Y9637D1*
X12398Y9579D1*
X12917Y9847D2*
X12860Y9828D1*
X12840Y9790D1*
Y9751D1*
X12860Y9713D1*
X12898Y9694D1*
X12974Y9675D1*
X13032Y9656D1*
X13070Y9617D1*
X13089Y9579D1*
Y9522D1*
X13070Y9484D1*
X13051Y9464D1*
X12993Y9445D1*
X12917D1*
X12860Y9464D1*
X12840Y9484D1*
X12821Y9522D1*
Y9579D1*
X12840Y9617D1*
X12879Y9656D1*
X12936Y9675D1*
X13012Y9694D1*
X13051Y9713D1*
X13070Y9751D1*
Y9790D1*
X13051Y9828D1*
X12993Y9847D1*
X12917D1*
X9432Y10539D2*
X9413Y10577D1*
X9375Y10616D1*
X9337Y10635D1*
X9260D1*
X9222Y10616D1*
X9184Y10577D1*
X9164Y10539D1*
X9145Y10482D1*
Y10386D1*
X9164Y10329D1*
X9184Y10290D1*
X9222Y10252D1*
X9260Y10233D1*
X9337D1*
X9375Y10252D1*
X9413Y10290D1*
X9432Y10329D1*
X9607Y10635D2*
Y10233D1*
X9837D1*
X10012Y10635D2*
Y10233D1*
X10280Y10635D2*
X10012Y10367D1*
X10107Y10463D2*
X10280Y10233D1*
X11010Y10635D2*
X10971Y10616D1*
X10933Y10577D1*
X10914Y10539D1*
X10895Y10482D1*
Y10386D1*
X10914Y10329D1*
X10933Y10290D1*
X10971Y10252D1*
X11010Y10233D1*
X11086D1*
X11124Y10252D1*
X11163Y10290D1*
X11182Y10329D1*
X11201Y10386D1*
Y10482D1*
X11182Y10539D1*
X11163Y10577D1*
X11124Y10616D1*
X11086Y10635D1*
X11010D1*
X11376D2*
Y10348D1*
X11395Y10290D1*
X11433Y10252D1*
X11491Y10233D1*
X11529D1*
X11586Y10252D1*
X11625Y10290D1*
X11644Y10348D1*
Y10635D1*
X11953D2*
Y10233D1*
X11819Y10635D2*
X12087D1*
X12970Y10577D2*
X12932Y10616D1*
X12874Y10635D1*
X12798D1*
X12740Y10616D1*
X12702Y10577D1*
Y10539D1*
X12721Y10501D1*
X12740Y10482D1*
X12778Y10463D1*
X12893Y10424D1*
X12932Y10405D1*
X12951Y10386D1*
X12970Y10348D1*
Y10290D1*
X12932Y10252D1*
X12874Y10233D1*
X12798D1*
X12740Y10252D1*
X12702Y10290D1*
X13279Y10635D2*
Y10233D1*
X13145Y10635D2*
X13413D1*
X13894Y10233D2*
Y10635D1*
X13741Y10233D1*
X13588Y10635D1*
Y10233D1*
X14107Y10634D2*
X14317D1*
X14203Y10481D1*
X14260D1*
X14298Y10462D1*
X14317Y10443D1*
X14337Y10386D1*
Y10348D1*
X14317Y10290D1*
X14279Y10252D1*
X14222Y10233D1*
X14164D1*
X14107Y10252D1*
X14088Y10271D1*
X14069Y10309D1*
X14531Y10539D2*
Y10558D1*
X14550Y10596D1*
X14569Y10615D1*
X14608Y10634D1*
X14684D1*
X14722Y10615D1*
X14741Y10596D1*
X14761Y10558D1*
Y10520D1*
X14741Y10481D1*
X14703Y10424D1*
X14512Y10233D1*
X14780D1*
X25141Y10539D2*
X25122Y10577D1*
X25083Y10616D1*
X25045Y10635D1*
X24969D1*
X24930Y10616D1*
X24892Y10577D1*
X24873Y10539D1*
X24854Y10482D1*
Y10386D1*
X24873Y10329D1*
X24892Y10290D1*
X24930Y10252D1*
X24969Y10233D1*
X25045D1*
X25083Y10252D1*
X25122Y10290D1*
X25141Y10329D1*
X25316Y10635D2*
Y10233D1*
X25545D1*
X25720Y10635D2*
Y10233D1*
X25988Y10635D2*
X25720Y10367D1*
X25816Y10463D2*
X25988Y10233D1*
X26719Y10635D2*
X26680Y10616D1*
X26642Y10577D1*
X26623Y10539D1*
X26604Y10482D1*
Y10386D1*
X26623Y10329D1*
X26642Y10290D1*
X26680Y10252D1*
X26719Y10233D1*
X26795D1*
X26833Y10252D1*
X26872Y10290D1*
X26891Y10329D1*
X26910Y10386D1*
Y10482D1*
X26891Y10539D1*
X26872Y10577D1*
X26833Y10616D1*
X26795Y10635D1*
X26719D1*
X27085D2*
Y10348D1*
X27104Y10290D1*
X27142Y10252D1*
X27199Y10233D1*
X27237D1*
X27295Y10252D1*
X27333Y10290D1*
X27352Y10348D1*
Y10635D1*
X27661D2*
Y10233D1*
X27527Y10635D2*
X27795D1*
X28679Y10577D2*
X28641Y10616D1*
X28583Y10635D1*
X28507D1*
X28449Y10616D1*
X28411Y10577D1*
Y10539D1*
X28430Y10501D1*
X28449Y10482D1*
X28487Y10463D1*
X28602Y10424D1*
X28641Y10405D1*
X28660Y10386D1*
X28679Y10348D1*
Y10290D1*
X28641Y10252D1*
X28583Y10233D1*
X28507D1*
X28449Y10252D1*
X28411Y10290D1*
X28988Y10635D2*
Y10233D1*
X28854Y10635D2*
X29122D1*
X29602Y10233D2*
Y10635D1*
X29449Y10233D1*
X29296Y10635D1*
Y10233D1*
X29816Y10634D2*
X30026D1*
X29911Y10481D1*
X29969D1*
X30007Y10462D1*
X30026Y10443D1*
X30045Y10386D1*
Y10348D1*
X30026Y10290D1*
X29988Y10252D1*
X29930Y10233D1*
X29873D1*
X29816Y10252D1*
X29797Y10271D1*
X29777Y10309D1*
X30240Y10539D2*
Y10558D1*
X30259Y10596D1*
X30278Y10615D1*
X30316Y10634D1*
X30393D1*
X30431Y10615D1*
X30450Y10596D1*
X30469Y10558D1*
Y10520D1*
X30450Y10481D1*
X30412Y10424D1*
X30220Y10233D1*
X30488D1*
X40928Y10578D2*
X40909Y10616D1*
X40871Y10655D1*
X40833Y10674D1*
X40756D1*
X40718Y10655D1*
X40680Y10616D1*
X40660Y10578D1*
X40641Y10521D1*
Y10425D1*
X40660Y10368D1*
X40680Y10330D1*
X40718Y10291D1*
X40756Y10272D1*
X40833D1*
X40871Y10291D1*
X40909Y10330D1*
X40928Y10368D1*
X41103Y10674D2*
Y10272D1*
X41333D1*
X41508Y10674D2*
Y10272D1*
X41776Y10674D2*
X41508Y10406D1*
X41603Y10502D2*
X41776Y10272D1*
X42506Y10674D2*
X42467Y10655D1*
X42429Y10616D1*
X42410Y10578D1*
X42391Y10521D1*
Y10425D1*
X42410Y10368D1*
X42429Y10330D1*
X42467Y10291D1*
X42506Y10272D1*
X42582D1*
X42620Y10291D1*
X42659Y10330D1*
X42678Y10368D1*
X42697Y10425D1*
Y10521D1*
X42678Y10578D1*
X42659Y10616D1*
X42620Y10655D1*
X42582Y10674D1*
X42506D1*
X42872D2*
Y10387D1*
X42891Y10330D1*
X42929Y10291D1*
X42987Y10272D1*
X43025D1*
X43082Y10291D1*
X43121Y10330D1*
X43140Y10387D1*
Y10674D1*
X43449D2*
Y10272D1*
X43315Y10674D2*
X43583D1*
X44466Y10616D2*
X44428Y10655D1*
X44370Y10674D1*
X44294D1*
X44237Y10655D1*
X44198Y10616D1*
Y10578D1*
X44217Y10540D1*
X44237Y10521D1*
X44275Y10502D1*
X44389Y10463D1*
X44428Y10444D1*
X44447Y10425D1*
X44466Y10387D1*
Y10330D1*
X44428Y10291D1*
X44370Y10272D1*
X44294D1*
X44237Y10291D1*
X44198Y10330D1*
X44775Y10674D2*
Y10272D1*
X44641Y10674D2*
X44909D1*
X45390Y10272D2*
Y10674D1*
X45237Y10272D1*
X45084Y10674D1*
Y10272D1*
X45603Y10674D2*
X45813D1*
X45699Y10521D1*
X45756D1*
X45794Y10502D1*
X45813Y10482D1*
X45833Y10425D1*
Y10387D1*
X45813Y10330D1*
X45775Y10291D1*
X45718Y10272D1*
X45660D1*
X45603Y10291D1*
X45584Y10310D1*
X45565Y10349D1*
X46027Y10578D2*
Y10597D1*
X46046Y10635D1*
X46065Y10654D1*
X46104Y10674D1*
X46180D1*
X46218Y10654D1*
X46237Y10635D1*
X46257Y10597D1*
Y10559D1*
X46237Y10521D1*
X46199Y10463D1*
X46008Y10272D1*
X46276D1*
X9432Y11326D2*
X9413Y11364D1*
X9375Y11403D1*
X9337Y11422D1*
X9260D1*
X9222Y11403D1*
X9184Y11364D1*
X9164Y11326D1*
X9145Y11269D1*
Y11173D1*
X9164Y11116D1*
X9184Y11078D1*
X9222Y11040D1*
X9260Y11020D1*
X9337D1*
X9375Y11040D1*
X9413Y11078D1*
X9432Y11116D1*
X9607Y11422D2*
Y11020D1*
X9837D1*
X10012Y11422D2*
Y11020D1*
X10280Y11422D2*
X10012Y11154D1*
X10107Y11250D2*
X10280Y11020D1*
X11010Y11422D2*
X10971Y11403D1*
X10933Y11364D1*
X10914Y11326D1*
X10895Y11269D1*
Y11173D1*
X10914Y11116D1*
X10933Y11078D1*
X10971Y11040D1*
X11010Y11020D1*
X11086D1*
X11124Y11040D1*
X11163Y11078D1*
X11182Y11116D1*
X11201Y11173D1*
Y11269D1*
X11182Y11326D1*
X11163Y11364D1*
X11124Y11403D1*
X11086Y11422D1*
X11010D1*
X11376D2*
Y11135D1*
X11395Y11078D1*
X11433Y11040D1*
X11491Y11020D1*
X11529D1*
X11586Y11040D1*
X11625Y11078D1*
X11644Y11135D1*
Y11422D1*
X11953D2*
Y11020D1*
X11819Y11422D2*
X12087D1*
X12702D2*
Y11020D1*
X12836D1*
X12893Y11040D1*
X12932Y11078D1*
X12951Y11116D1*
X12970Y11173D1*
Y11269D1*
X12951Y11326D1*
X12932Y11364D1*
X12893Y11403D1*
X12836Y11422D1*
X12702D1*
X13413Y11364D2*
X13375Y11403D1*
X13317Y11422D1*
X13241D1*
X13183Y11403D1*
X13145Y11364D1*
Y11326D1*
X13164Y11288D1*
X13183Y11269D1*
X13221Y11250D1*
X13336Y11212D1*
X13375Y11192D1*
X13394Y11173D1*
X13413Y11135D1*
Y11078D1*
X13375Y11040D1*
X13317Y11020D1*
X13241D1*
X13183Y11040D1*
X13145Y11078D1*
X13588Y11212D2*
X13760D1*
X13817Y11231D1*
X13837Y11250D1*
X13856Y11288D1*
Y11345D1*
X13837Y11384D1*
X13817Y11403D1*
X13760Y11422D1*
X13588D1*
Y11020D1*
X25141Y11326D2*
X25122Y11364D1*
X25083Y11403D1*
X25045Y11422D1*
X24969D1*
X24930Y11403D1*
X24892Y11364D1*
X24873Y11326D1*
X24854Y11269D1*
Y11173D1*
X24873Y11116D1*
X24892Y11078D1*
X24930Y11040D1*
X24969Y11020D1*
X25045D1*
X25083Y11040D1*
X25122Y11078D1*
X25141Y11116D1*
X25316Y11422D2*
Y11020D1*
X25545D1*
X25720Y11422D2*
Y11020D1*
X25988Y11422D2*
X25720Y11154D1*
X25816Y11250D2*
X25988Y11020D1*
X26719Y11422D2*
X26680Y11403D1*
X26642Y11364D1*
X26623Y11326D1*
X26604Y11269D1*
Y11173D1*
X26623Y11116D1*
X26642Y11078D1*
X26680Y11040D1*
X26719Y11020D1*
X26795D1*
X26833Y11040D1*
X26872Y11078D1*
X26891Y11116D1*
X26910Y11173D1*
Y11269D1*
X26891Y11326D1*
X26872Y11364D1*
X26833Y11403D1*
X26795Y11422D1*
X26719D1*
X27085D2*
Y11135D1*
X27104Y11078D1*
X27142Y11040D1*
X27199Y11020D1*
X27237D1*
X27295Y11040D1*
X27333Y11078D1*
X27352Y11135D1*
Y11422D1*
X27661D2*
Y11020D1*
X27527Y11422D2*
X27795D1*
X28411D2*
Y11020D1*
X28545D1*
X28602Y11040D1*
X28641Y11078D1*
X28660Y11116D1*
X28679Y11173D1*
Y11269D1*
X28660Y11326D1*
X28641Y11364D1*
X28602Y11403D1*
X28545Y11422D1*
X28411D1*
X29122Y11364D2*
X29083Y11403D1*
X29026Y11422D1*
X28950D1*
X28892Y11403D1*
X28854Y11364D1*
Y11326D1*
X28873Y11288D1*
X28892Y11269D1*
X28930Y11250D1*
X29045Y11212D1*
X29083Y11192D1*
X29102Y11173D1*
X29122Y11135D1*
Y11078D1*
X29083Y11040D1*
X29026Y11020D1*
X28950D1*
X28892Y11040D1*
X28854Y11078D1*
X29296Y11212D2*
X29469D1*
X29526Y11231D1*
X29545Y11250D1*
X29564Y11288D1*
Y11345D1*
X29545Y11384D1*
X29526Y11403D1*
X29469Y11422D1*
X29296D1*
Y11020D1*
X40928Y11326D2*
X40909Y11364D1*
X40871Y11403D1*
X40833Y11422D1*
X40756D1*
X40718Y11403D1*
X40680Y11364D1*
X40660Y11326D1*
X40641Y11269D1*
Y11173D1*
X40660Y11116D1*
X40680Y11078D1*
X40718Y11040D1*
X40756Y11020D1*
X40833D1*
X40871Y11040D1*
X40909Y11078D1*
X40928Y11116D1*
X41103Y11422D2*
Y11020D1*
X41333D1*
X41508Y11422D2*
Y11020D1*
X41776Y11422D2*
X41508Y11154D1*
X41603Y11250D2*
X41776Y11020D1*
X42506Y11422D2*
X42467Y11403D1*
X42429Y11364D1*
X42410Y11326D1*
X42391Y11269D1*
Y11173D1*
X42410Y11116D1*
X42429Y11078D1*
X42467Y11040D1*
X42506Y11020D1*
X42582D1*
X42620Y11040D1*
X42659Y11078D1*
X42678Y11116D1*
X42697Y11173D1*
Y11269D1*
X42678Y11326D1*
X42659Y11364D1*
X42620Y11403D1*
X42582Y11422D1*
X42506D1*
X42872D2*
Y11135D1*
X42891Y11078D1*
X42929Y11040D1*
X42987Y11020D1*
X43025D1*
X43082Y11040D1*
X43121Y11078D1*
X43140Y11135D1*
Y11422D1*
X43449D2*
Y11020D1*
X43315Y11422D2*
X43583D1*
X44198D2*
Y11020D1*
X44332D1*
X44389Y11040D1*
X44428Y11078D1*
X44447Y11116D1*
X44466Y11173D1*
Y11269D1*
X44447Y11326D1*
X44428Y11364D1*
X44389Y11403D1*
X44332Y11422D1*
X44198D1*
X44909Y11364D2*
X44871Y11403D1*
X44813Y11422D1*
X44737D1*
X44679Y11403D1*
X44641Y11364D1*
Y11326D1*
X44660Y11288D1*
X44679Y11269D1*
X44717Y11250D1*
X44832Y11212D1*
X44871Y11192D1*
X44890Y11173D1*
X44909Y11135D1*
Y11078D1*
X44871Y11040D1*
X44813Y11020D1*
X44737D1*
X44679Y11040D1*
X44641Y11078D1*
X45084Y11212D2*
X45256D1*
X45313Y11231D1*
X45333Y11250D1*
X45352Y11288D1*
Y11345D1*
X45333Y11384D1*
X45313Y11403D1*
X45256Y11422D1*
X45084D1*
Y11020D1*
X34138Y20026D2*
X34100Y20064D1*
X34042Y20083D1*
X33966D1*
X33908Y20064D1*
X33870Y20026D1*
Y19988D1*
X33889Y19949D1*
X33908Y19930D1*
X33946Y19911D1*
X34061Y19873D1*
X34100Y19854D1*
X34119Y19834D1*
X34138Y19796D1*
Y19739D1*
X34100Y19701D1*
X34042Y19681D1*
X33966D1*
X33908Y19701D1*
X33870Y19739D1*
X34313Y20083D2*
Y19681D1*
X34447D1*
X34504Y19701D1*
X34543Y19739D1*
X34562Y19777D1*
X34581Y19834D1*
Y19930D1*
X34562Y19988D1*
X34543Y20026D1*
X34504Y20064D1*
X34447Y20083D1*
X34313D1*
X35062Y19681D2*
X34909Y20083D1*
X34756Y19681D1*
X34813Y19815D2*
X35004D1*
X18429Y20026D2*
X18391Y20064D1*
X18333Y20083D1*
X18257D1*
X18200Y20064D1*
X18161Y20026D1*
Y19988D1*
X18181Y19949D1*
X18200Y19930D1*
X18238Y19911D1*
X18353Y19873D1*
X18391Y19854D1*
X18410Y19834D1*
X18429Y19796D1*
Y19739D1*
X18391Y19701D1*
X18333Y19681D1*
X18257D1*
X18200Y19701D1*
X18161Y19739D1*
X18604Y20083D2*
Y19681D1*
X18738D1*
X18795Y19701D1*
X18834Y19739D1*
X18853Y19777D1*
X18872Y19834D1*
Y19930D1*
X18853Y19988D1*
X18834Y20026D1*
X18795Y20064D1*
X18738Y20083D1*
X18604D1*
X19353Y19681D2*
X19200Y20083D1*
X19047Y19681D1*
X19104Y19815D2*
X19296D1*
X34216Y19239D2*
X34178Y19277D1*
X34121Y19296D1*
X34044D1*
X33987Y19277D1*
X33948Y19239D1*
Y19200D1*
X33968Y19162D1*
X33987Y19143D1*
X34025Y19124D1*
X34140Y19086D1*
X34178Y19067D1*
X34197Y19047D1*
X34216Y19009D1*
Y18952D1*
X34178Y18914D1*
X34121Y18894D1*
X34044D1*
X33987Y18914D1*
X33948Y18952D1*
X34678Y19200D2*
X34659Y19239D1*
X34621Y19277D1*
X34583Y19296D1*
X34506D1*
X34468Y19277D1*
X34430Y19239D1*
X34410Y19200D1*
X34391Y19143D1*
Y19047D1*
X34410Y18990D1*
X34430Y18952D1*
X34468Y18914D1*
X34506Y18894D1*
X34583D1*
X34621Y18914D1*
X34659Y18952D1*
X34678Y18990D1*
X34853Y19296D2*
Y18894D1*
X35083D1*
X18508Y19239D2*
X18470Y19277D1*
X18412Y19296D1*
X18336D1*
X18278Y19277D1*
X18240Y19239D1*
Y19200D1*
X18259Y19162D1*
X18278Y19143D1*
X18316Y19124D1*
X18431Y19086D1*
X18470Y19067D1*
X18489Y19047D1*
X18508Y19009D1*
Y18952D1*
X18470Y18914D1*
X18412Y18894D1*
X18336D1*
X18278Y18914D1*
X18240Y18952D1*
X18970Y19200D2*
X18951Y19239D1*
X18912Y19277D1*
X18874Y19296D1*
X18798D1*
X18759Y19277D1*
X18721Y19239D1*
X18702Y19200D1*
X18683Y19143D1*
Y19047D1*
X18702Y18990D1*
X18721Y18952D1*
X18759Y18914D1*
X18798Y18894D1*
X18874D1*
X18912Y18914D1*
X18951Y18952D1*
X18970Y18990D1*
X19145Y19296D2*
Y18894D1*
X19374D1*
X31704Y18509D2*
Y18222D1*
X31723Y18164D1*
X31762Y18126D1*
X31819Y18107D1*
X31857D1*
X31915Y18126D1*
X31953Y18164D1*
X31972Y18222D1*
Y18509D1*
X32454Y18107D2*
X32300Y18509D1*
X32147Y18107D1*
X32205Y18241D2*
X32396D1*
X32629Y18317D2*
X32801D1*
X32858Y18337D1*
X32878Y18356D1*
X32897Y18394D1*
Y18432D1*
X32878Y18470D1*
X32858Y18490D1*
X32801Y18509D1*
X32629D1*
Y18107D1*
X32763Y18317D2*
X32897Y18107D1*
X33206Y18509D2*
Y18107D1*
X33072Y18509D2*
X33340D1*
X33534Y18413D2*
Y18432D1*
X33553Y18470D1*
X33572Y18489D1*
X33610Y18508D1*
X33687D1*
X33725Y18489D1*
X33744Y18470D1*
X33763Y18432D1*
Y18394D1*
X33744Y18355D1*
X33706Y18298D1*
X33515Y18107D1*
X33782D1*
X34398Y18317D2*
X34570D1*
X34627Y18337D1*
X34647Y18356D1*
X34666Y18394D1*
Y18432D1*
X34647Y18470D1*
X34627Y18490D1*
X34570Y18509D1*
X34398D1*
Y18107D1*
X34532Y18317D2*
X34666Y18107D1*
X34841Y18509D2*
X35109Y18107D1*
Y18509D2*
X34841Y18107D1*
X31704Y17721D2*
Y17434D1*
X31723Y17377D1*
X31762Y17339D1*
X31819Y17319D1*
X31857D1*
X31915Y17339D1*
X31953Y17377D1*
X31972Y17434D1*
Y17721D1*
X32454Y17319D2*
X32300Y17721D1*
X32147Y17319D1*
X32205Y17453D2*
X32396D1*
X32629Y17530D2*
X32801D1*
X32858Y17549D1*
X32878Y17568D1*
X32897Y17606D1*
Y17645D1*
X32878Y17683D1*
X32858Y17702D1*
X32801Y17721D1*
X32629D1*
Y17319D1*
X32763Y17530D2*
X32897Y17319D1*
X33206Y17721D2*
Y17319D1*
X33072Y17721D2*
X33340D1*
X33534Y17625D2*
Y17644D1*
X33553Y17683D1*
X33572Y17702D1*
X33610Y17721D1*
X33687D1*
X33725Y17702D1*
X33744Y17683D1*
X33763Y17644D1*
Y17606D1*
X33744Y17568D1*
X33706Y17511D1*
X33515Y17319D1*
X33782D1*
X34532Y17721D2*
Y17319D1*
X34398Y17721D2*
X34666D1*
X34841D2*
X35109Y17319D1*
Y17721D2*
X34841Y17319D1*
X47413Y7446D2*
Y7044D1*
X47585D1*
X47643Y7063D1*
X47662Y7082D1*
X47681Y7120D1*
Y7178D1*
X47662Y7216D1*
X47643Y7235D1*
X47585Y7254D1*
X47643Y7274D1*
X47662Y7293D1*
X47681Y7331D1*
Y7369D1*
X47662Y7407D1*
X47643Y7427D1*
X47585Y7446D1*
X47413D1*
Y7254D2*
X47585D1*
X48143Y7350D2*
X48124Y7388D1*
X48085Y7427D1*
X48047Y7446D1*
X47971D1*
X47932Y7427D1*
X47894Y7388D1*
X47875Y7350D1*
X47856Y7293D1*
Y7197D1*
X47875Y7140D1*
X47894Y7101D1*
X47932Y7063D1*
X47971Y7044D1*
X48047D1*
X48085Y7063D1*
X48124Y7101D1*
X48143Y7140D1*
X48318Y7446D2*
Y7044D1*
X48547D1*
X48722Y7446D2*
Y7044D1*
X48990Y7446D2*
X48722Y7178D1*
X48818Y7274D2*
X48990Y7044D1*
X49720Y7446D2*
X49682Y7427D1*
X49644Y7388D1*
X49625Y7350D1*
X49606Y7293D1*
Y7197D1*
X49625Y7140D1*
X49644Y7101D1*
X49682Y7063D1*
X49720Y7044D1*
X49797D1*
X49835Y7063D1*
X49873Y7101D1*
X49892Y7140D1*
X49912Y7197D1*
Y7293D1*
X49892Y7350D1*
X49873Y7388D1*
X49835Y7427D1*
X49797Y7446D1*
X49720D1*
X50086D2*
Y7159D1*
X50106Y7101D1*
X50144Y7063D1*
X50201Y7044D1*
X50239D1*
X50297Y7063D1*
X50335Y7101D1*
X50354Y7159D1*
Y7446D1*
X50663D2*
Y7044D1*
X50529Y7446D2*
X50797D1*
X47019Y8312D2*
Y7910D1*
X47249D1*
X47424Y8120D2*
X47596D1*
X47653Y8140D1*
X47673Y8159D1*
X47692Y8197D1*
Y8235D1*
X47673Y8273D1*
X47653Y8293D1*
X47596Y8312D1*
X47424D1*
Y7910D1*
X47558Y8120D2*
X47692Y7910D1*
X48154Y8216D2*
X48135Y8254D1*
X48096Y8293D1*
X48058Y8312D1*
X47982D1*
X47943Y8293D1*
X47905Y8254D1*
X47886Y8216D1*
X47867Y8159D1*
Y8063D1*
X47886Y8006D1*
X47905Y7967D1*
X47943Y7929D1*
X47982Y7910D1*
X48058D1*
X48096Y7929D1*
X48135Y7967D1*
X48154Y8006D1*
X48329Y8312D2*
Y7910D1*
X48558D1*
X48733Y8312D2*
Y7910D1*
X49001Y8312D2*
X48733Y8044D1*
X48829Y8140D2*
X49001Y7910D1*
X49731Y8312D2*
X49693Y8293D1*
X49655Y8254D1*
X49635Y8216D1*
X49616Y8159D1*
Y8063D1*
X49635Y8006D1*
X49655Y7967D1*
X49693Y7929D1*
X49731Y7910D1*
X49808D1*
X49846Y7929D1*
X49884Y7967D1*
X49903Y8006D1*
X49922Y8063D1*
Y8159D1*
X49903Y8216D1*
X49884Y8254D1*
X49846Y8293D1*
X49808Y8312D1*
X49731D1*
X50097D2*
Y8025D1*
X50116Y7967D1*
X50155Y7929D1*
X50212Y7910D1*
X50250D1*
X50308Y7929D1*
X50346Y7967D1*
X50365Y8025D1*
Y8312D1*
X50674D2*
Y7910D1*
X50540Y8312D2*
X50808D1*
X47295Y6698D2*
Y6296D1*
X47429D1*
X47486Y6315D1*
X47525Y6353D1*
X47544Y6392D1*
X47563Y6449D1*
Y6545D1*
X47544Y6602D1*
X47525Y6640D1*
X47486Y6679D1*
X47429Y6698D1*
X47295D1*
X48044Y6296D2*
X47891Y6698D1*
X47738Y6296D1*
X47795Y6430D2*
X47987D1*
X48353Y6698D2*
Y6296D1*
X48219Y6698D2*
X48487D1*
X48969Y6296D2*
X48815Y6698D1*
X48662Y6296D1*
X48720Y6430D2*
X48911D1*
X49699Y6698D2*
X49660Y6679D1*
X49622Y6640D1*
X49603Y6602D1*
X49584Y6545D1*
Y6449D1*
X49603Y6392D1*
X49622Y6353D1*
X49660Y6315D1*
X49699Y6296D1*
X49775D1*
X49813Y6315D1*
X49852Y6353D1*
X49871Y6392D1*
X49890Y6449D1*
Y6545D1*
X49871Y6602D1*
X49852Y6640D1*
X49813Y6679D1*
X49775Y6698D1*
X49699D1*
X50065D2*
Y6411D1*
X50084Y6353D1*
X50122Y6315D1*
X50180Y6296D1*
X50218D1*
X50275Y6315D1*
X50314Y6353D1*
X50333Y6411D1*
Y6698D1*
X50642D2*
Y6296D1*
X50508Y6698D2*
X50776D1*
X34185Y8936D2*
X34166Y8974D1*
X34127Y9013D1*
X34089Y9032D1*
X34013D1*
X33974Y9013D1*
X33936Y8974D1*
X33917Y8936D1*
X33898Y8879D1*
Y8783D1*
X33917Y8726D1*
X33936Y8687D1*
X33974Y8649D1*
X34013Y8630D1*
X34089D1*
X34127Y8649D1*
X34166Y8687D1*
X34185Y8726D1*
Y8783D1*
X34089D1*
X34628Y9032D2*
Y8630D1*
X34360Y9032D1*
Y8630D1*
X34803Y9032D2*
Y8630D1*
X34937D1*
X34994Y8649D1*
X35033Y8687D1*
X35052Y8726D1*
X35071Y8783D1*
Y8879D1*
X35052Y8936D1*
X35033Y8974D1*
X34994Y9013D1*
X34937Y9032D1*
X34803D1*
X34185Y8188D2*
X34166Y8226D1*
X34127Y8265D1*
X34089Y8284D1*
X34013D1*
X33974Y8265D1*
X33936Y8226D1*
X33917Y8188D1*
X33898Y8131D1*
Y8035D1*
X33917Y7978D1*
X33936Y7939D1*
X33974Y7901D1*
X34013Y7882D1*
X34089D1*
X34127Y7901D1*
X34166Y7939D1*
X34185Y7978D1*
Y8035D1*
X34089D1*
X34628Y8284D2*
Y7882D1*
X34360Y8284D1*
Y7882D1*
X34803Y8284D2*
Y7882D1*
X34937D1*
X34994Y7901D1*
X35033Y7939D1*
X35052Y7978D1*
X35071Y8035D1*
Y8131D1*
X35052Y8188D1*
X35033Y8226D1*
X34994Y8265D1*
X34937Y8284D1*
X34803D1*
X34185Y7401D2*
X34166Y7439D1*
X34127Y7477D1*
X34089Y7496D1*
X34013D1*
X33974Y7477D1*
X33936Y7439D1*
X33917Y7401D1*
X33898Y7343D1*
Y7247D1*
X33917Y7190D1*
X33936Y7152D1*
X33974Y7114D1*
X34013Y7094D1*
X34089D1*
X34127Y7114D1*
X34166Y7152D1*
X34185Y7190D1*
Y7247D1*
X34089D1*
X34628Y7496D2*
Y7094D1*
X34360Y7496D1*
Y7094D1*
X34803Y7496D2*
Y7094D1*
X34937D1*
X34994Y7114D1*
X35033Y7152D1*
X35052Y7190D1*
X35071Y7247D1*
Y7343D1*
X35052Y7401D1*
X35033Y7439D1*
X34994Y7477D1*
X34937Y7496D1*
X34803D1*
X34224Y6613D2*
X34205Y6651D1*
X34167Y6690D1*
X34129Y6709D1*
X34052D1*
X34014Y6690D1*
X33976Y6651D1*
X33956Y6613D1*
X33937Y6556D1*
Y6460D1*
X33956Y6403D1*
X33976Y6364D1*
X34014Y6326D1*
X34052Y6307D1*
X34129D1*
X34167Y6326D1*
X34205Y6364D1*
X34224Y6403D1*
Y6460D1*
X34129D1*
X34667Y6709D2*
Y6307D1*
X34399Y6709D1*
Y6307D1*
X34842Y6709D2*
Y6307D1*
X34976D1*
X35034Y6326D1*
X35072Y6364D1*
X35091Y6403D1*
X35110Y6460D1*
Y6556D1*
X35091Y6613D1*
X35072Y6651D1*
X35034Y6690D1*
X34976Y6709D1*
X34842D1*
X33583Y9858D2*
Y9456D1*
X33755D1*
X33813Y9476D1*
X33832Y9495D1*
X33851Y9533D1*
Y9590D1*
X33832Y9629D1*
X33813Y9648D1*
X33755Y9667D1*
X33813Y9686D1*
X33832Y9705D1*
X33851Y9743D1*
Y9782D1*
X33832Y9820D1*
X33813Y9839D1*
X33755Y9858D1*
X33583D1*
Y9667D2*
X33755D1*
X34313Y9763D2*
X34294Y9801D1*
X34255Y9839D1*
X34217Y9858D1*
X34141D1*
X34102Y9839D1*
X34064Y9801D1*
X34045Y9763D1*
X34026Y9705D1*
Y9609D1*
X34045Y9552D1*
X34064Y9514D1*
X34102Y9476D1*
X34141Y9456D1*
X34217D1*
X34255Y9476D1*
X34294Y9514D1*
X34313Y9552D1*
X34488Y9858D2*
Y9456D1*
X34717D1*
X34892Y9858D2*
Y9456D1*
X35160Y9858D2*
X34892Y9590D1*
X34988Y9686D2*
X35160Y9456D1*
X33583Y10646D2*
Y10244D1*
X33812D1*
X33987Y10454D2*
X34159D1*
X34217Y10474D1*
X34236Y10493D1*
X34255Y10531D1*
Y10569D1*
X34236Y10607D1*
X34217Y10627D1*
X34159Y10646D1*
X33987D1*
Y10244D1*
X34121Y10454D2*
X34255Y10244D1*
X34717Y10550D2*
X34698Y10588D1*
X34660Y10627D1*
X34622Y10646D1*
X34545D1*
X34507Y10627D1*
X34469Y10588D1*
X34449Y10550D1*
X34430Y10493D1*
Y10397D1*
X34449Y10340D1*
X34469Y10301D1*
X34507Y10263D1*
X34545Y10244D1*
X34622D1*
X34660Y10263D1*
X34698Y10301D1*
X34717Y10340D1*
X34892Y10646D2*
Y10244D1*
X35160Y10646D2*
X34892Y10378D1*
X34988Y10474D2*
X35160Y10244D1*
X33504Y11433D2*
Y11031D1*
X33638D1*
X33696Y11051D1*
X33734Y11089D1*
X33753Y11127D1*
X33772Y11184D1*
Y11280D1*
X33753Y11338D1*
X33734Y11376D1*
X33696Y11414D1*
X33638Y11433D1*
X33504D1*
X34253Y11031D2*
X34100Y11433D1*
X33947Y11031D1*
X34005Y11165D2*
X34196D1*
X34562Y11433D2*
Y11031D1*
X34428Y11433D2*
X34696D1*
X35178Y11031D2*
X35024Y11433D1*
X34871Y11031D1*
X34929Y11165D2*
X35120D1*
X18378Y6669D2*
Y6268D1*
X18110Y6669D1*
Y6268D1*
X18553D2*
X18821Y6669D1*
X19283Y6574D2*
X19264Y6612D1*
X19226Y6650D1*
X19188Y6669D1*
X19111D1*
X19073Y6650D1*
X19035Y6612D1*
X19015Y6574D1*
X18996Y6516D1*
Y6421D1*
X19015Y6363D1*
X19035Y6325D1*
X19073Y6287D1*
X19111Y6268D1*
X19188D1*
X19226Y6287D1*
X19264Y6325D1*
X19283Y6363D1*
X18418Y7457D2*
Y7055D1*
X18150Y7457D1*
Y7055D1*
X18593D2*
X18861Y7456D1*
X19323Y7361D2*
X19304Y7399D1*
X19265Y7438D1*
X19227Y7457D1*
X19151D1*
X19112Y7438D1*
X19074Y7399D1*
X19055Y7361D1*
X19036Y7304D1*
Y7208D1*
X19055Y7151D1*
X19074Y7112D1*
X19112Y7074D1*
X19151Y7055D1*
X19227D1*
X19265Y7074D1*
X19304Y7112D1*
X19323Y7151D1*
X18418Y8244D2*
Y7842D1*
X18150Y8244D1*
Y7842D1*
X18593D2*
X18861Y8244D1*
X19323Y8149D2*
X19304Y8187D1*
X19265Y8225D1*
X19227Y8244D1*
X19151D1*
X19112Y8225D1*
X19074Y8187D1*
X19055Y8149D1*
X19036Y8091D1*
Y7995D1*
X19055Y7938D1*
X19074Y7900D1*
X19112Y7862D1*
X19151Y7842D1*
X19227D1*
X19265Y7862D1*
X19304Y7900D1*
X19323Y7938D1*
X18437Y8976D2*
X18418Y9014D1*
X18379Y9052D1*
X18341Y9071D1*
X18265D1*
X18226Y9052D1*
X18188Y9014D1*
X18169Y8976D1*
X18150Y8918D1*
Y8822D1*
X18169Y8765D1*
X18188Y8727D1*
X18226Y8689D1*
X18265Y8669D1*
X18341D1*
X18379Y8689D1*
X18418Y8727D1*
X18437Y8765D1*
Y8822D1*
X18341D1*
X18880Y9071D2*
Y8669D1*
X18612Y9071D1*
Y8669D1*
X19055Y9071D2*
Y8669D1*
X19189D1*
X19246Y8689D1*
X19285Y8727D1*
X19304Y8765D1*
X19323Y8822D1*
Y8918D1*
X19304Y8976D1*
X19285Y9014D1*
X19246Y9052D1*
X19189Y9071D1*
X19055D1*
X16586Y10635D2*
Y10233D1*
X16720D1*
X16778Y10252D1*
X16816Y10290D1*
X16835Y10329D1*
X16854Y10386D1*
Y10482D1*
X16835Y10539D1*
X16816Y10577D1*
X16778Y10616D1*
X16720Y10635D1*
X16586D1*
X17336Y10233D2*
X17182Y10635D1*
X17029Y10233D1*
X17087Y10367D2*
X17278D1*
X17645Y10635D2*
Y10233D1*
X17511Y10635D2*
X17779D1*
X18260Y10233D2*
X18106Y10635D1*
X17953Y10233D1*
X18011Y10367D2*
X18202D1*
X18875Y10635D2*
Y10233D1*
X19318Y10635D2*
Y10233D1*
X19050Y10635D1*
Y10233D1*
X16271Y11422D2*
Y11020D1*
X16501D1*
X16676Y11231D2*
X16848D1*
X16905Y11250D1*
X16925Y11269D1*
X16944Y11307D1*
Y11345D1*
X16925Y11384D1*
X16905Y11403D1*
X16848Y11422D1*
X16676D1*
Y11020D1*
X16810Y11231D2*
X16944Y11020D1*
X17406Y11326D2*
X17387Y11364D1*
X17348Y11403D1*
X17310Y11422D1*
X17234D1*
X17195Y11403D1*
X17157Y11364D1*
X17138Y11326D1*
X17119Y11269D1*
Y11173D1*
X17138Y11116D1*
X17157Y11078D1*
X17195Y11040D1*
X17234Y11020D1*
X17310D1*
X17348Y11040D1*
X17387Y11078D1*
X17406Y11116D1*
X17581Y11422D2*
Y11020D1*
X17810D1*
X17985Y11422D2*
Y11020D1*
X18253Y11422D2*
X17985Y11154D1*
X18081Y11250D2*
X18253Y11020D1*
X18868Y11422D2*
Y11020D1*
X19311Y11422D2*
Y11020D1*
X19043Y11422D1*
Y11020D1*
X16665Y9847D2*
Y9445D1*
X16837D1*
X16895Y9465D1*
X16914Y9484D1*
X16933Y9522D1*
Y9579D1*
X16914Y9618D1*
X16895Y9637D1*
X16837Y9656D1*
X16895Y9675D1*
X16914Y9694D1*
X16933Y9732D1*
Y9771D1*
X16914Y9809D1*
X16895Y9828D1*
X16837Y9847D1*
X16665D1*
Y9656D2*
X16837D1*
X17395Y9752D2*
X17376Y9790D1*
X17337Y9828D1*
X17299Y9847D1*
X17223D1*
X17184Y9828D1*
X17146Y9790D1*
X17127Y9752D1*
X17108Y9694D1*
Y9598D1*
X17127Y9541D1*
X17146Y9503D1*
X17184Y9465D1*
X17223Y9445D1*
X17299D1*
X17337Y9465D1*
X17376Y9503D1*
X17395Y9541D1*
X17570Y9847D2*
Y9445D1*
X17799D1*
X17974Y9847D2*
Y9445D1*
X18242Y9847D2*
X17974Y9579D1*
X18070Y9675D2*
X18242Y9445D1*
X18858Y9847D2*
Y9445D1*
X19300Y9847D2*
Y9445D1*
X19032Y9847D1*
Y9445D1*
X25083Y5910D2*
X24892D1*
X24873Y5738D1*
X24892Y5757D1*
X24950Y5776D1*
X25007D1*
X25064Y5757D1*
X25103Y5719D1*
X25122Y5661D1*
Y5623D1*
X25103Y5566D1*
X25064Y5527D1*
X25007Y5508D1*
X24950D1*
X24892Y5527D1*
X24873Y5547D1*
X24854Y5585D1*
X25297Y5910D2*
X25450Y5508D1*
X25603Y5910D1*
X9335Y5870D2*
X9144D1*
X9125Y5698D1*
X9144Y5717D1*
X9202Y5737D1*
X9259D1*
X9316Y5717D1*
X9355Y5679D1*
X9374Y5622D1*
Y5584D1*
X9355Y5526D1*
X9316Y5488D1*
X9259Y5469D1*
X9202D1*
X9144Y5488D1*
X9125Y5507D1*
X9106Y5545D1*
X9549Y5871D2*
X9702Y5469D1*
X9855Y5871D1*
X40910Y5870D2*
X40719D1*
X40700Y5698D1*
X40719Y5717D1*
X40777Y5737D1*
X40834D1*
X40891Y5717D1*
X40930Y5679D1*
X40949Y5622D1*
Y5584D1*
X40930Y5526D1*
X40891Y5488D1*
X40834Y5469D1*
X40777D1*
X40719Y5488D1*
X40700Y5507D1*
X40681Y5545D1*
X41124Y5871D2*
X41277Y5469D1*
X41430Y5871D1*
X5873Y21116D2*
D85*
X5604Y21819D1*
X5337Y21116D1*
X5437Y21350D2*
X5772D1*
X6089Y21819D2*
Y21317D1*
X6122Y21217D1*
X6190Y21150D1*
X6290Y21116D1*
X6357D1*
X6457Y21150D1*
X6525Y21217D1*
X6558Y21317D1*
Y21819D1*
X6774D2*
X7243Y21116D1*
Y21819D2*
X6774Y21116D1*
X8174Y21651D2*
Y21685D1*
X8207Y21752D1*
X8240Y21785D1*
X8307Y21819D1*
X8441D1*
X8508Y21785D1*
X8541Y21752D1*
X8575Y21685D1*
Y21618D1*
X8541Y21551D1*
X8475Y21451D1*
X8140Y21116D1*
X8608D1*
X15148Y23776D2*
D86*
X15340Y22972D1*
X15531Y23776D1*
X15722Y22972D1*
X15914Y23776D1*
X16238Y23775D2*
X16658D1*
X16429Y23469D1*
X16544D1*
X16620Y23431D1*
X16658Y23393D1*
X16697Y23278D1*
Y23202D1*
X16658Y23087D1*
X16582Y23010D1*
X16467Y22972D1*
X16352D1*
X16238Y23010D1*
X16200Y23049D1*
X16161Y23125D1*
X21290Y23815D2*
X21482Y23011D1*
X21673Y23815D1*
X21864Y23011D1*
X22056Y23815D1*
X22342Y23623D2*
Y23661D1*
X22380Y23738D1*
X22418Y23776D1*
X22495Y23814D1*
X22648D1*
X22724Y23776D1*
X22762Y23738D1*
X22801Y23661D1*
Y23585D1*
X22762Y23508D1*
X22686Y23394D1*
X22303Y23011D1*
X22839D1*
X35632Y23686D2*
X35824Y22882D1*
X36015Y23686D1*
X36206Y22882D1*
X36398Y23686D1*
X36645Y23532D2*
X36722Y23571D1*
X36836Y23685D1*
Y22882D1*
X10794Y21116D2*
D85*
X10526Y21819D1*
X10258Y21116D1*
X10358Y21350D2*
X10694D1*
X11010Y21819D2*
Y21317D1*
X11044Y21217D1*
X11111Y21150D1*
X11211Y21116D1*
X11278D1*
X11379Y21150D1*
X11446Y21217D1*
X11479Y21317D1*
Y21819D1*
X11695D2*
X12164Y21116D1*
Y21819D2*
X11695Y21116D1*
X13061Y21685D2*
X13128Y21719D1*
X13229Y21819D1*
Y21116D1*
X18543Y24502D2*
D87*
Y24100D1*
X18772D1*
X19144Y24502D2*
X18896D1*
Y24100D1*
X19144D1*
X18896Y24311D2*
X19049D1*
X19268Y24502D2*
Y24100D1*
X19402D1*
X19459Y24120D1*
X19498Y24158D1*
X19517Y24196D1*
X19536Y24253D1*
Y24349D1*
X19517Y24407D1*
X19498Y24445D1*
X19459Y24483D1*
X19402Y24502D1*
X19268D1*
X19542Y25550D2*
D88*
X19874D1*
X18243D2*
X18575D1*
X18220Y23854D2*
D87*
X18182Y23893D1*
X18125Y23912D1*
X18048D1*
X17991Y23893D1*
X17952Y23854D1*
Y23816D1*
X17972Y23778D1*
X17991Y23759D1*
X18029Y23740D1*
X18144Y23701D1*
X18182Y23682D1*
X18201Y23663D1*
X18220Y23625D1*
Y23567D1*
X18182Y23529D1*
X18125Y23510D1*
X18048D1*
X17991Y23529D1*
X17952Y23567D1*
X18478Y23912D2*
Y23510D1*
X18344Y23912D2*
X18612D1*
X19042Y23510D2*
X18888Y23912D1*
X18735Y23510D1*
X18793Y23644D2*
X18984D1*
X19299Y23912D2*
Y23510D1*
X19165Y23912D2*
X19433D1*
X19557D2*
Y23625D1*
X19576Y23567D1*
X19614Y23529D1*
X19671Y23510D1*
X19709D1*
X19767Y23529D1*
X19805Y23567D1*
X19824Y23625D1*
Y23912D1*
X20216Y23854D2*
X20178Y23893D1*
X20120Y23912D1*
X20044D1*
X19986Y23893D1*
X19948Y23854D1*
Y23816D1*
X19967Y23778D1*
X19986Y23759D1*
X20024Y23740D1*
X20139Y23701D1*
X20178Y23682D1*
X20197Y23663D1*
X20216Y23625D1*
Y23567D1*
X20178Y23529D1*
X20120Y23510D1*
X20044D1*
X19986Y23529D1*
X19948Y23567D1*
X26933Y24202D2*
D84*
X26818Y24503D1*
X26703Y24202D1*
X26746Y24302D2*
X26890D1*
X27025Y24360D2*
X27154D1*
X27197Y24374D1*
X27212Y24389D1*
X27226Y24417D1*
Y24446D1*
X27212Y24474D1*
X27197Y24489D1*
X27154Y24503D1*
X27025D1*
Y24202D1*
X27126Y24360D2*
X27226Y24202D1*
X27319Y24503D2*
Y24202D1*
X27419D1*
X27463Y24216D1*
X27491Y24245D1*
X27506Y24274D1*
X27520Y24317D1*
Y24389D1*
X27506Y24432D1*
X27491Y24460D1*
X27463Y24489D1*
X27419Y24503D1*
X27319D1*
X27613D2*
Y24288D1*
X27627Y24245D1*
X27656Y24216D1*
X27699Y24202D1*
X27727D1*
X27770Y24216D1*
X27799Y24245D1*
X27814Y24288D1*
Y24503D1*
X27906D2*
Y24202D1*
X28200Y24503D2*
Y24202D1*
X27999Y24503D1*
Y24202D1*
X28379Y24503D2*
X28350Y24489D1*
X28321Y24460D1*
X28307Y24432D1*
X28292Y24389D1*
Y24317D1*
X28307Y24274D1*
X28321Y24245D1*
X28350Y24216D1*
X28379Y24202D1*
X28436D1*
X28465Y24216D1*
X28493Y24245D1*
X28508Y24274D1*
X28522Y24317D1*
Y24389D1*
X28508Y24432D1*
X28493Y24460D1*
X28465Y24489D1*
X28436Y24503D1*
X28379D1*
X29621Y24586D2*
D15*
X29889Y24184D1*
Y24586D2*
X29621Y24184D1*
X30064Y24375D2*
X30236D1*
X30293Y24394D1*
X30313Y24414D1*
X30332Y24452D1*
Y24509D1*
X30313Y24547D1*
X30293Y24567D1*
X30236Y24586D1*
X30064D1*
Y24184D1*
X30507Y24509D2*
X30545Y24528D1*
X30603Y24585D1*
Y24184D1*
X30797Y24490D2*
Y24509D1*
X30816Y24547D1*
X30835Y24566D1*
X30874Y24585D1*
X30950D1*
X30988Y24566D1*
X31007Y24547D1*
X31027Y24509D1*
Y24471D1*
X31007Y24432D1*
X30969Y24375D1*
X30778Y24184D1*
X31046D1*
X31506Y24503D2*
D84*
Y24202D1*
X31635D1*
X31679Y24216D1*
X31693Y24231D1*
X31707Y24259D1*
Y24302D1*
X31693Y24331D1*
X31679Y24345D1*
X31635Y24360D1*
X31679Y24374D1*
X31693Y24389D1*
X31707Y24417D1*
Y24446D1*
X31693Y24474D1*
X31679Y24489D1*
X31635Y24503D1*
X31506D1*
Y24360D2*
X31635D1*
X31900Y24503D2*
Y24202D1*
X31800Y24503D2*
X32001D1*
X32093Y24352D2*
X32259D1*
X32581Y24202D2*
Y24503D1*
X32466Y24202D1*
X32352Y24503D1*
Y24202D1*
X32674Y24503D2*
Y24202D1*
X32982Y24432D2*
X32967Y24460D1*
X32939Y24489D1*
X32910Y24503D1*
X32853D1*
X32824Y24489D1*
X32795Y24460D1*
X32781Y24432D1*
X32766Y24389D1*
Y24317D1*
X32781Y24274D1*
X32795Y24245D1*
X32824Y24216D1*
X32853Y24202D1*
X32910D1*
X32939Y24216D1*
X32967Y24245D1*
X32982Y24274D1*
X16167Y18832D2*
D15*
X15765Y18678D1*
X16167Y18525D1*
X16033Y18583D2*
Y18774D1*
X15765Y19275D2*
X16167D1*
X15765Y19007D1*
X16167D1*
X15765Y19584D2*
X16167D1*
X15765Y19450D2*
Y19718D1*
X15112Y18812D2*
X15074Y18793D1*
X15036Y18755D1*
X15017Y18717D1*
Y18640D1*
X15036Y18602D1*
X15074Y18564D1*
X15112Y18544D1*
X15170Y18525D1*
X15266D1*
X15323Y18544D1*
X15361Y18564D1*
X15399Y18602D1*
X15419Y18640D1*
Y18717D1*
X15399Y18755D1*
X15361Y18793D1*
X15323Y18812D1*
X15266D1*
Y18717D1*
X15017Y19255D2*
X15419D1*
X15017Y18987D1*
X15419D1*
X15017Y19430D2*
X15419D1*
Y19564D1*
X15399Y19622D1*
X15361Y19660D1*
X15323Y19679D1*
X15266Y19698D1*
X15170D1*
X15112Y19679D1*
X15074Y19660D1*
X15036Y19622D1*
X15017Y19564D1*
Y19430D1*
X16687Y18812D2*
X16649Y18793D1*
X16611Y18755D1*
X16592Y18717D1*
Y18640D1*
X16611Y18602D1*
X16649Y18564D1*
X16687Y18544D1*
X16745Y18525D1*
X16841D1*
X16898Y18544D1*
X16936Y18564D1*
X16974Y18602D1*
X16994Y18640D1*
Y18717D1*
X16974Y18755D1*
X16936Y18793D1*
X16898Y18812D1*
X16841D1*
Y18717D1*
X16592Y19255D2*
X16994D1*
X16592Y18987D1*
X16994D1*
X16592Y19430D2*
X16994D1*
Y19564D1*
X16974Y19622D1*
X16936Y19660D1*
X16898Y19679D1*
X16841Y19698D1*
X16745D1*
X16687Y19679D1*
X16649Y19660D1*
X16611Y19622D1*
X16592Y19564D1*
Y19430D1*
X41600Y18792D2*
X41198Y18639D1*
X41600Y18486D1*
X41466Y18544D2*
Y18735D1*
X41198Y19235D2*
X41600D1*
X41198Y18967D1*
X41600D1*
X41198Y19544D2*
X41600D1*
X41198Y19410D2*
Y19678D1*
X40545Y18773D2*
X40507Y18754D1*
X40469Y18716D1*
X40450Y18677D1*
Y18601D1*
X40469Y18563D1*
X40507Y18525D1*
X40545Y18505D1*
X40603Y18486D1*
X40699D1*
X40756Y18505D1*
X40794Y18525D1*
X40832Y18563D1*
X40852Y18601D1*
Y18677D1*
X40832Y18716D1*
X40794Y18754D1*
X40756Y18773D1*
X40699D1*
Y18677D1*
X40450Y19216D2*
X40852D1*
X40450Y18948D1*
X40852D1*
X40450Y19391D2*
X40852D1*
Y19525D1*
X40832Y19582D1*
X40794Y19621D1*
X40756Y19640D1*
X40699Y19659D1*
X40603D1*
X40545Y19640D1*
X40507Y19621D1*
X40469Y19582D1*
X40450Y19525D1*
Y19391D1*
X42120Y18773D2*
X42082Y18754D1*
X42044Y18716D1*
X42025Y18677D1*
Y18601D1*
X42044Y18563D1*
X42082Y18525D1*
X42120Y18505D1*
X42178Y18486D1*
X42274D1*
X42331Y18505D1*
X42369Y18525D1*
X42407Y18563D1*
X42427Y18601D1*
Y18677D1*
X42407Y18716D1*
X42369Y18754D1*
X42331Y18773D1*
X42274D1*
Y18677D1*
X42025Y19216D2*
X42427D1*
X42025Y18948D1*
X42427D1*
X42025Y19391D2*
X42427D1*
Y19525D1*
X42407Y19582D1*
X42369Y19621D1*
X42331Y19640D1*
X42274Y19659D1*
X42178D1*
X42120Y19640D1*
X42082Y19621D1*
X42044Y19582D1*
X42025Y19525D1*
Y19391D1*
X24937Y16109D2*
Y15707D1*
X25380Y16109D2*
Y15707D1*
X25112Y16109D1*
Y15707D1*
X25995Y16109D2*
Y15707D1*
X26129D1*
X26187Y15726D1*
X26225Y15764D1*
X26244Y15803D1*
X26263Y15860D1*
Y15956D1*
X26244Y16013D1*
X26225Y16051D1*
X26187Y16090D1*
X26129Y16109D1*
X25995D1*
X26745Y15707D2*
X26591Y16109D1*
X26438Y15707D1*
X26496Y15841D2*
X26687D1*
X27054Y16109D2*
Y15707D1*
X26920Y16109D2*
X27188D1*
X27669Y15707D2*
X27515Y16109D1*
X27363Y15707D1*
X27420Y15841D2*
X27611D1*
X27863Y16013D2*
Y16032D1*
X27882Y16070D1*
X27901Y16089D1*
X27940Y16108D1*
X28016D1*
X28054Y16089D1*
X28073Y16070D1*
X28093Y16032D1*
Y15994D1*
X28073Y15955D1*
X28035Y15898D1*
X27844Y15707D1*
X28112D1*
X7086Y25748D2*
D89*
Y25532D1*
X7110Y25461D1*
X7134Y25437D1*
X7182Y25413D1*
X7254D1*
X7301Y25437D1*
X7326Y25461D1*
X7349Y25532D1*
Y25748D1*
X6847D1*
X7349Y25019D2*
X6967D1*
X6895Y25043D1*
X6871Y25067D1*
X6847Y25115D1*
Y25163D1*
X6871Y25210D1*
X6895Y25234D1*
X6967Y25258D1*
X7014D1*
X7098Y24865D2*
Y24588D1*
X7349Y24386D2*
Y24123D1*
X7157Y24266D1*
Y24195D1*
X7134Y24147D1*
X7110Y24123D1*
X7038Y24099D1*
X6991D1*
X6919Y24123D1*
X6871Y24171D1*
X6847Y24243D1*
Y24315D1*
X6871Y24386D1*
X6895Y24410D1*
X6942Y24434D1*
X7229Y23920D2*
X7253D1*
X7301Y23896D1*
X7325Y23873D1*
X7349Y23825D1*
Y23729D1*
X7325Y23681D1*
X7301Y23658D1*
X7253Y23633D1*
X7206D1*
X7157Y23658D1*
X7086Y23705D1*
X6847Y23945D1*
Y23610D1*
X7349Y23312D2*
X7325Y23383D1*
X7253Y23431D1*
X7134Y23455D1*
X7062D1*
X6942Y23431D1*
X6871Y23383D1*
X6847Y23312D1*
Y23264D1*
X6871Y23192D1*
X6942Y23145D1*
X7062Y23120D1*
X7134D1*
X7253Y23145D1*
X7325Y23192D1*
X7349Y23264D1*
Y23312D1*
X7253Y23145D2*
X6942Y23431D1*
X7349Y22966D2*
X6847D1*
Y22750D1*
X6871Y22679D1*
X6895Y22655D1*
X6942Y22631D1*
X7014D1*
X7062Y22655D1*
X7086Y22679D1*
X7110Y22750D1*
X7134Y22679D1*
X7158Y22655D1*
X7206Y22631D1*
X7254D1*
X7301Y22655D1*
X7326Y22679D1*
X7349Y22750D1*
Y22966D1*
X7110D2*
Y22750D1*
X11811Y25748D2*
Y25532D1*
X11834Y25461D1*
X11859Y25437D1*
X11906Y25413D1*
X11978D1*
X12026Y25437D1*
X12050Y25461D1*
X12074Y25532D1*
Y25748D1*
X11571D1*
X12074Y25019D2*
X11691D1*
X11619Y25043D1*
X11596Y25067D1*
X11571Y25115D1*
Y25163D1*
X11596Y25210D1*
X11619Y25234D1*
X11691Y25258D1*
X11739D1*
X11822Y24865D2*
Y24588D1*
X12073Y24386D2*
Y24123D1*
X11882Y24266D1*
Y24195D1*
X11858Y24147D1*
X11834Y24123D1*
X11763Y24099D1*
X11715D1*
X11643Y24123D1*
X11595Y24171D1*
X11571Y24243D1*
Y24315D1*
X11595Y24386D1*
X11619Y24410D1*
X11667Y24434D1*
X11954Y23920D2*
X11978D1*
X12026Y23896D1*
X12049Y23873D1*
X12073Y23825D1*
Y23729D1*
X12049Y23681D1*
X12026Y23658D1*
X11978Y23633D1*
X11930D1*
X11882Y23658D1*
X11811Y23705D1*
X11571Y23945D1*
Y23610D1*
X12073Y23312D2*
X12049Y23383D1*
X11978Y23431D1*
X11858Y23455D1*
X11786D1*
X11667Y23431D1*
X11595Y23383D1*
X11571Y23312D1*
Y23264D1*
X11595Y23192D1*
X11667Y23145D1*
X11786Y23120D1*
X11858D1*
X11978Y23145D1*
X12049Y23192D1*
X12073Y23264D1*
Y23312D1*
X11978Y23145D2*
X11667Y23431D1*
X12074Y22966D2*
X11571D1*
Y22750D1*
X11596Y22679D1*
X11619Y22655D1*
X11667Y22631D1*
X11739D1*
X11787Y22655D1*
X11811Y22679D1*
X11834Y22750D1*
X11859Y22679D1*
X11882Y22655D1*
X11930Y22631D1*
X11978D1*
X12026Y22655D1*
X12050Y22679D1*
X12074Y22750D1*
Y22966D1*
X11834D2*
Y22750D1*
M02*
