G04 DipTrace 2.4.0.2*
%IN1_Layer_Top.gbr*%
%MOIN*%
%ADD10C,0.0098*%
%ADD14C,0.013*%
%ADD16C,0.0079*%
%ADD17C,0.0591*%
%ADD18C,0.0236*%
%ADD20C,0.0394*%
%ADD22C,0.0197*%
%ADD23C,0.0315*%
%ADD24C,0.0157*%
%ADD26C,0.025*%
%ADD33R,0.0591X0.0591*%
%ADD34C,0.0591*%
%ADD35R,0.1181X0.0394*%
%ADD36R,0.0591X0.1378*%
%ADD37R,0.0394X0.1181*%
%ADD38R,0.0591X0.0984*%
%ADD41R,0.1575X0.0709*%
%ADD42C,0.0551*%
%FSLAX44Y44*%
G04*
G70*
G90*
G75*
G01*
%LNTop*%
%LPD*%
X38898Y11220D2*
D14*
X39882D1*
X22992D2*
X24055D1*
X9449D2*
X8307D1*
X12717Y13898D2*
X12795D1*
X15787Y16890D1*
Y17087D1*
X16142Y17441D1*
X16181D1*
X12717Y11063D2*
Y13898D1*
X5394Y12476D2*
D17*
Y13476D1*
X8307Y8071D2*
D18*
X7008D1*
Y8425D1*
X8307Y7283D2*
X7362D1*
X7008Y7638D1*
Y7953D1*
Y8858D2*
X8307D1*
X24055Y8071D2*
X22795D1*
Y8425D1*
Y8858D2*
X23386D1*
X24055D1*
Y7283D2*
X23110D1*
X22835Y7559D1*
Y7953D1*
X22795D1*
X39882Y7283D2*
X39173D1*
X38819Y7638D1*
Y7992D1*
Y8858D2*
X39252D1*
X39882D1*
X38819Y7992D2*
D20*
Y8386D1*
Y8858D1*
X39882Y8071D2*
D18*
X38819D1*
Y8858D1*
X7008Y7953D2*
D20*
Y8858D1*
X22795Y7953D2*
Y8425D1*
Y8858D1*
X12008Y17008D2*
D18*
X10515Y15515D1*
X9921Y14921D1*
X6929D1*
X5484Y13476D1*
X5394D1*
X15079Y14488D2*
D14*
Y14409D1*
X16811Y12677D1*
X17244D1*
X10515Y15515D2*
X10630Y15630D1*
X21457Y17244D2*
Y17480D1*
X21024Y17913D1*
X19409D1*
X19094Y18228D1*
Y19764D1*
X12520Y20394D2*
X12953D1*
D18*
Y19134D1*
Y17953D1*
X12008Y17008D1*
X12953Y19134D2*
D22*
X19094D1*
Y19764D1*
D14*
Y20118D1*
X19370Y20394D1*
X22717D1*
X23465Y19646D1*
Y19055D1*
X24055Y18465D1*
X25906D1*
X26181Y18189D1*
Y18228D1*
X51614Y10433D2*
X52441D1*
X53346Y9528D1*
Y9213D1*
X53622Y8937D1*
X54370D1*
X54870Y8437D1*
X5669Y22913D2*
D10*
Y22638D1*
X6378D1*
Y23661D1*
X6654Y23937D1*
X12047D1*
X12480Y23504D1*
Y22835D1*
X13150Y24882D2*
D14*
X12677D1*
X12402Y24606D1*
X9764D1*
X24055Y6496D2*
D18*
X22756D1*
Y5709D2*
X24094D1*
X8307Y6496D2*
X7008D1*
Y5669D2*
X8268D1*
X8307Y5709D1*
X38819D2*
X39882D1*
Y6496D2*
X38819D1*
Y5709D2*
D20*
Y6496D1*
X7008Y5669D2*
Y6496D1*
X22756Y5709D2*
Y6496D1*
X5394Y15476D2*
D17*
Y16476D1*
X11142Y19961D2*
D22*
X8858D1*
X5472Y16575D1*
X5295D1*
X5394Y16476D1*
X29409Y20906D2*
D20*
X29803D1*
X30197D1*
X43780Y8189D2*
X44173D1*
X44567D1*
X44173D2*
D18*
X44145Y8201D1*
X44134Y12717D1*
G03X42323Y14528I-1811J0D01*
G01*
X38937D1*
X36535Y16929D1*
X32795D1*
G02X29803Y19921I0J2992D01*
G01*
Y20906D1*
X17638Y17520D2*
D10*
X17598D1*
Y17598D1*
X16890Y18307D1*
X14724D1*
X10000Y13583D1*
X9724D1*
X39803Y15157D2*
D14*
X39606D1*
G02X38583Y16181I0J1024D01*
G01*
Y18701D1*
G03X35827Y21457I-2756J0D01*
G01*
X33867D1*
G02X30166Y25157I0J3701D01*
G01*
X39843Y16732D2*
X39213D1*
G02X38858Y17087I0J354D01*
G01*
Y18701D1*
G03X35827Y21732I-3031J0D01*
G01*
X33898D1*
G02X30945Y24685I0J2953D01*
G01*
Y25137D1*
G02X30966Y25157I21J0D01*
G01*
X42126Y25154D2*
D20*
Y24724D1*
X42992Y23858D1*
Y23154D1*
X42996Y23150D1*
X51654Y17520D2*
D14*
X52835D1*
X53425Y16929D1*
X54362D1*
X54870Y17437D1*
X23228Y17520D2*
D16*
X24134D1*
X41339Y25154D2*
D14*
Y24724D1*
X42008Y24055D1*
Y23161D1*
X41996Y23150D1*
X14488Y16732D2*
D10*
X13780D1*
X9882Y12835D1*
X8465D1*
X51654Y18307D2*
D14*
X53000D1*
X53870Y17437D1*
X35906Y9646D2*
D10*
X35197D1*
X34882Y9961D1*
Y11890D1*
X35118Y12126D1*
X16811Y14685D2*
X17441Y14055D1*
X21496D1*
X23386Y12165D1*
X23701D1*
X35512Y12559D2*
Y11929D1*
X35118Y11535D1*
Y10512D1*
X35197Y10433D1*
X35906D1*
X17795Y14685D2*
X17756D1*
X18150Y14291D1*
X21614D1*
X23386Y12520D1*
X25630D1*
X16181Y16929D2*
Y16181D1*
X16417Y15945D1*
X23228D1*
D14*
X24134D1*
X35906Y17520D2*
X36929D1*
X23228Y15157D2*
X24134D1*
X23228Y14331D2*
X24094D1*
X24134Y14370D1*
X35945Y12953D2*
Y11260D1*
X35906Y11220D1*
X23740Y12913D2*
D10*
X23307D1*
X21693Y14528D1*
X18661D1*
X18543Y14646D1*
Y14685D1*
X13858Y13819D2*
D14*
X14882Y14843D1*
X15236D1*
X15433Y14646D1*
X16260D1*
X17205Y13701D1*
X18110D1*
X16024Y24882D2*
D20*
Y20472D1*
X19843Y24055D2*
D14*
Y21181D1*
X20394Y20630D1*
X22835D1*
X23701Y19764D1*
Y19173D1*
X24173Y18701D1*
X26339D1*
X29882Y15157D1*
X30276D1*
X20157Y11220D2*
X20551D1*
X20984Y10787D1*
X21142D1*
X51654Y6496D2*
X53811D1*
X53870Y6437D1*
X51614Y7283D2*
X52441D1*
X52756Y6969D1*
X54339D1*
X54870Y6437D1*
X51614Y8071D2*
X52441D1*
X53075Y7437D1*
X53870D1*
X51614Y9646D2*
X52441D1*
X53650Y8437D1*
X53870D1*
X20157Y10433D2*
X21142D1*
Y10276D1*
X51614Y11220D2*
X52441D1*
X53346Y10315D1*
Y9961D1*
X53870Y9437D1*
X8425Y24882D2*
D10*
X9134D1*
Y24606D1*
X9567Y24173D1*
X12126D1*
X12913Y23386D1*
Y23189D1*
X17087Y17520D2*
Y17795D1*
X16811Y18071D1*
X14803D1*
X9921Y13189D1*
X7795D1*
X7323Y12717D1*
X9094Y22480D2*
D14*
Y22520D1*
X9488Y22913D1*
X10394D1*
X15630Y15079D2*
D10*
X16299Y15748D1*
X22835D1*
X23031Y15551D1*
X24921D1*
X25276Y15906D1*
Y16378D1*
X24055Y10433D2*
D14*
X29803D1*
G03X31535Y12165I0J1732D01*
G01*
Y14094D1*
G02X32638Y15197I1102J0D01*
G01*
X34094D1*
X39882Y10433D2*
X38661D1*
G02X37953Y11142I0J709D01*
G01*
Y13583D1*
G03X36339Y15197I-1614J0D01*
G01*
X34094D1*
X8307Y10433D2*
X9606D1*
X10394Y9646D1*
X17087D1*
X18465Y11024D1*
Y11654D1*
X19331Y12520D1*
X21063D1*
G02X22205Y11339I-70J-1210D01*
G01*
Y10748D1*
G03X22520Y10433I315J0D01*
G01*
X24055D1*
X40551Y25154D2*
Y24724D1*
X40984Y24291D1*
Y23161D1*
X40996Y23150D1*
X41437Y20472D2*
D20*
Y21280D1*
G03X40315Y22087I-1160J-429D01*
G01*
X38740Y22205D1*
G02X36220Y23858I383J3330D01*
G01*
G02X36142Y24173I433J276D01*
G01*
X36102Y24882D1*
X39764Y25154D2*
D14*
Y24685D1*
X39996Y24453D1*
Y23150D1*
X35906Y18307D2*
X36969D1*
X8780Y18583D2*
X9606D1*
X11260Y16929D1*
X25689Y20472D2*
D20*
Y21555D1*
G03X25197Y22047I-492J0D01*
G01*
X23465D1*
G02X22047Y23465I0J1417D01*
G01*
Y25020D1*
G02X22087Y24882I130J-37D01*
G01*
X20157Y9646D2*
D14*
Y9764D1*
X21142D1*
X23228Y16732D2*
X24134D1*
X24055Y9646D2*
X29567D1*
G03X32087Y12165I0J2520D01*
G01*
Y13622D1*
G02X32661Y14197I575J0D01*
G01*
X34094D1*
X39882Y9646D2*
X38898D1*
G02X37402Y11142I0J1496D01*
G01*
Y13150D1*
G03X36354Y14197I-1047J0D01*
G01*
X34094D1*
X8307Y9646D2*
X8976D1*
X9724Y8898D1*
X17323D1*
X19055Y10630D1*
Y11457D1*
X19606Y12008D1*
X21063D1*
G02X21732Y11339I0J-669D01*
G01*
Y10748D1*
G03X22835Y9646I1102J0D01*
G01*
X24055D1*
X51614Y8858D2*
D18*
X52598D1*
D14*
X53504Y7953D1*
X54354D1*
X54870Y7437D1*
X35906Y8858D2*
X36811D1*
Y8071D1*
Y7283D1*
Y6496D1*
Y5551D1*
X35906Y6496D2*
X36811D1*
X35906Y7283D2*
X36811D1*
X35906Y8071D2*
X36811D1*
X53870Y14437D2*
D20*
X54870D1*
X53870Y13437D2*
X54870D1*
X36811Y5551D2*
D14*
X26575D1*
X25748Y4724D1*
X21890D1*
X21417Y5197D1*
Y6496D1*
Y7283D1*
Y8071D1*
X21102D1*
Y8740D1*
X20984Y8858D1*
X20157D1*
Y8071D2*
X21102D1*
X20157Y7283D2*
X21417D1*
X20157Y6496D2*
X21417D1*
X51614Y8858D2*
D18*
X50118D1*
D14*
X50039Y8780D1*
Y4843D1*
X37520D1*
X36811Y5551D1*
X5669Y25669D2*
Y24528D1*
X4685Y23543D1*
Y22402D1*
X4843Y22244D1*
X7677D1*
X8819Y21102D1*
X13780D1*
X13937Y20945D1*
Y20472D1*
X5374Y14357D2*
Y14476D1*
X5394D1*
Y8476D2*
X4713D1*
X4370Y8819D1*
Y11496D1*
X5374D1*
X5394Y11476D1*
X4370Y11496D2*
Y13976D1*
X4961Y14567D1*
X5303D1*
X5394Y14476D1*
D22*
X5421D1*
X6890Y15945D1*
Y17323D1*
X8622Y19055D1*
X9094D1*
X10394Y25079D2*
D14*
Y25669D1*
X5394Y14476D2*
D22*
Y14449D1*
X5512D1*
X6535Y15472D1*
X9370D1*
Y17756D1*
X9331Y17795D1*
X5394Y14476D2*
X5500D1*
X6952Y15928D1*
X8369D1*
X8386Y15945D1*
X6952Y15928D2*
Y16710D1*
X8363D1*
X8386Y16732D1*
X6952Y16710D2*
Y16834D1*
X7638Y17520D1*
X8386D1*
X5394Y14476D2*
D14*
D3*
Y11476D2*
X5689D1*
X6693Y12480D1*
Y13386D1*
X7441Y14134D1*
X10000D1*
X14365Y18499D1*
X14129D1*
X14409Y18780D1*
X15197D1*
X15236Y18740D1*
X12480Y19685D2*
X12126D1*
Y20906D1*
X13583D1*
X15236Y18740D2*
X18661D1*
X18701Y18701D1*
X14724Y17244D2*
X15118D1*
X15709Y17835D1*
X16535D1*
X16693Y17677D1*
Y17323D1*
X16890Y17126D1*
X18346D1*
X18740Y17520D1*
Y17835D1*
Y18661D1*
X18701Y18701D1*
X18071Y17835D2*
X18740D1*
X18346Y17126D2*
X20827D1*
X21102Y16850D1*
X21850D1*
X22087Y17087D1*
Y17913D1*
X21890Y18110D1*
X5394Y11476D2*
X5827Y11496D1*
G02X6299Y11024I0J-472D01*
G01*
Y10512D1*
G03X6772Y10039I472J0D01*
G01*
X9463D1*
X10039Y9291D1*
X17165D1*
X18740Y10866D1*
Y11496D1*
X19488Y12244D1*
X21063D1*
G02X21969Y11339I0J-906D01*
G01*
Y10709D1*
G03X22677Y10039I710J41D01*
G01*
X29685D1*
G03X31811Y12165I0J2126D01*
G01*
Y13858D1*
G02X32638Y14685I827J0D01*
G01*
X36339D1*
G02X37677Y13346I0J-1339D01*
G01*
Y11142D1*
G03X38780Y10039I1102J0D01*
G01*
X41520D1*
X41929Y10449D1*
Y10709D1*
X5394Y8476D2*
Y5827D1*
X6496Y4724D1*
X14449D1*
X18622Y8898D1*
X20118D1*
X20157Y8858D1*
X15197Y24882D2*
Y23479D1*
Y22874D1*
Y20512D1*
X15236Y20472D1*
X20472Y24449D2*
D16*
Y25079D1*
X21260Y24882D2*
D14*
Y23701D1*
G03X21419Y22902I2087J0D01*
G01*
G03X21871Y22225I1928J798D01*
G01*
G03X23346Y21614I1475J1475D01*
G01*
X24449D1*
G02X24882Y21181I0J-433D01*
G01*
Y20492D1*
X24902Y20472D1*
X20472Y25079D2*
X21063D1*
X21260Y24882D1*
X24764Y21457D2*
X24606D1*
X24449Y21614D1*
X23346Y21496D2*
Y21614D1*
X22126Y21929D2*
Y21970D1*
X21871Y22225D1*
X21299Y23189D2*
Y23022D1*
X21419Y22902D1*
X23701Y25039D2*
D16*
Y24449D1*
X26476Y20472D2*
D14*
Y21358D1*
G03X26386Y21800I-1122J0D01*
G01*
G03X25354Y22480I-1032J-441D01*
G01*
X24506D1*
X23701D1*
G02X22886Y23169I0J827D01*
G01*
G02X22874Y23307I814J138D01*
G01*
Y25020D1*
G02X22913Y24882I130J-37D01*
G01*
X23543D1*
X23701Y25039D1*
X23661Y22638D2*
Y22480D1*
X23701D1*
X25039Y22598D2*
X24624D1*
X24506Y22480D1*
X26378Y21575D2*
X26386Y21800D1*
X22874Y23425D2*
X22886Y23169D1*
X13386Y24016D2*
X14055D1*
X15197Y22874D1*
X14409Y24409D2*
D16*
Y25039D1*
X17638Y25079D2*
Y24409D1*
X16850Y24882D2*
D14*
Y23524D1*
Y20512D1*
X16811Y20472D1*
X14409Y25039D2*
X15039D1*
X15197Y24882D1*
X16850D2*
X17441D1*
X17638Y25079D1*
X15197Y23740D2*
Y23479D1*
X16850Y23780D2*
Y23524D1*
X19055Y25236D2*
Y23780D1*
X16850D1*
X14567Y12677D2*
X15945D1*
X16693Y11929D1*
X17638D1*
X18346Y12638D1*
X18701D1*
X19134Y13071D1*
X21732D1*
X23031Y11772D1*
X25157D1*
X25236Y11693D1*
X14134Y18661D2*
X14365Y18499D1*
X14528Y18780D2*
X18701D1*
Y18701D1*
X37717Y24429D2*
D16*
Y25059D1*
X36929Y24882D2*
D14*
X37539D1*
X37717Y25059D1*
X34488Y24390D2*
D16*
Y25020D1*
D14*
X35138D1*
X35276Y24882D1*
X42224Y20472D2*
D18*
Y21398D1*
X42205Y21417D1*
X40650Y20472D2*
Y21358D1*
X40630Y21378D1*
X40650Y20472D2*
Y18917D1*
X41260Y18307D1*
X40512Y22677D2*
D14*
X39685D1*
X39606Y22756D1*
X39173D1*
X32529Y25157D2*
X34350D1*
G02X34488Y25020I0J-138D01*
G01*
X42224Y20472D2*
D18*
Y19272D1*
X41260Y18307D1*
X20157Y19094D2*
D14*
Y19134D1*
X22559D1*
Y19213D1*
X51654Y19094D2*
Y19055D1*
X53465D1*
X53583Y18937D1*
X54370D1*
X54870Y19437D1*
X35906Y19094D2*
X36929D1*
X16969Y16693D2*
D10*
X17323Y16339D1*
X21969D1*
X22559Y16929D1*
Y19213D1*
X20157Y19882D2*
D14*
X22559D1*
Y19843D1*
X51654Y19882D2*
X53465D1*
X53819Y19528D1*
X53961D1*
X53870Y19437D1*
X35906Y19882D2*
X37047D1*
X37402Y19528D1*
X16614Y16299D2*
D10*
X16772Y16142D1*
X22047D1*
X22756Y16850D1*
Y18858D1*
X22953Y19055D1*
Y19449D1*
X22559Y19843D1*
D20*
X14409Y24409D3*
X17244Y19606D3*
X7323Y12717D3*
X8465Y12835D3*
X8780Y18583D3*
X9094Y22480D3*
Y19055D3*
X9331Y17795D3*
X9764Y24606D3*
X10394Y25079D3*
X10472Y10787D3*
X10630Y15630D3*
X11024Y16024D3*
X11142Y19961D3*
X11260Y16929D3*
X11929Y13268D3*
X12008Y17008D3*
X12126Y19685D3*
X12480Y22835D3*
Y19685D3*
X12520Y20394D3*
X12008Y17402D3*
X12913Y23189D3*
X12953Y20394D3*
X12717Y13898D3*
X13386Y24016D3*
X14567Y12677D3*
X15079Y14488D3*
X19843Y24055D3*
X14409Y25039D3*
X14488Y16732D3*
X14724Y17244D3*
X15197Y23740D3*
X15236Y18740D3*
X15630Y15079D3*
X16181Y17441D3*
Y16929D3*
X16614Y16299D3*
X16811Y14685D3*
X16850Y23780D3*
X16969Y16693D3*
X17087Y17520D3*
X17244Y12677D3*
X30276Y15157D3*
X17638Y25079D3*
Y24409D3*
Y17520D3*
X17795Y14685D3*
X18071Y17835D3*
X18543Y14685D3*
X18701Y18701D3*
X18346Y12638D3*
X19094Y19764D3*
X20472Y25079D3*
Y24449D3*
X21299Y23189D3*
X21457Y17244D3*
X21890Y18110D3*
X22126Y21929D3*
X22874Y23425D3*
X23228Y17520D3*
Y16732D3*
Y15945D3*
Y15157D3*
Y14331D3*
X23346Y21496D3*
X23701Y25039D3*
Y24449D3*
X23661Y22638D3*
X23701Y12165D3*
X23740Y12913D3*
X24213Y20354D3*
X24764Y21457D3*
X25039Y22598D3*
X25236Y11693D3*
X25433Y10787D3*
X25630Y12520D3*
X26260Y11693D3*
X26378Y21575D3*
X26299Y10787D3*
X25276Y16378D3*
X28031Y20118D3*
X28071Y18898D3*
X31378Y18031D3*
X32835Y20748D3*
X32874Y11693D3*
X32953Y10709D3*
X32992Y9331D3*
X34449Y20748D3*
X34488Y25020D3*
Y24390D3*
X35118Y12126D3*
X35512Y12559D3*
X35630Y23622D3*
X35748Y20748D3*
X35945Y12953D3*
X36299Y22677D3*
X37165Y23701D3*
X37480Y9331D3*
X37362Y21969D3*
X37717Y25059D3*
Y24429D3*
X38071Y22992D3*
X38701Y13780D3*
X39173Y22756D3*
X38740Y21614D3*
X39921Y21496D3*
X40630Y21378D3*
X40984Y11654D3*
X41260Y18307D3*
X40512Y22677D3*
X41929Y10709D3*
X41535Y22323D3*
X42205Y21417D3*
X44252Y18346D3*
X46496Y9252D3*
X46535Y10709D3*
X46575Y11693D3*
X46614Y13819D3*
X46693Y18346D3*
X50000Y9252D3*
X50039Y13819D3*
X50079Y11693D3*
Y10709D3*
X18110Y13701D3*
X13858Y13819D3*
X14213Y15945D3*
X4304Y26142D2*
D26*
X4591D1*
X7290D2*
X9318D1*
X12016D2*
X14318D1*
X17727D2*
X17920D1*
X20188D2*
X20380D1*
X23790D2*
X34396D1*
X37805D2*
X43923D1*
X4304Y25893D2*
X4591D1*
X7544D2*
X9318D1*
X12266D2*
X14318D1*
X17727D2*
X17920D1*
X20188D2*
X20380D1*
X23790D2*
X34396D1*
X37805D2*
X43923D1*
X4304Y25645D2*
X4591D1*
X7591D2*
X9318D1*
X12317D2*
X14318D1*
X17727D2*
X17920D1*
X20180D2*
X20380D1*
X23790D2*
X25361D1*
X25837D2*
X26162D1*
X26638D2*
X26939D1*
X27411D2*
X27724D1*
X28200D2*
X29908D1*
X30427D2*
X30709D1*
X31223D2*
X31482D1*
X32001D2*
X32271D1*
X32786D2*
X34396D1*
X37805D2*
X39513D1*
X40016D2*
X40298D1*
X40805D2*
X41088D1*
X41591D2*
X41873D1*
X42380D2*
X42662D1*
X43165D2*
X43923D1*
X4304Y25396D2*
X4591D1*
X14227D2*
X14611D1*
X17434D2*
X18470D1*
X19641D2*
X20673D1*
X23497D2*
X25095D1*
X28466D2*
X29658D1*
X33040D2*
X34689D1*
X37513D2*
X39255D1*
X43423D2*
X43923D1*
X4304Y25147D2*
X4591D1*
X6747D2*
X7349D1*
X11470D2*
X12072D1*
X14227D2*
X14611D1*
X17434D2*
X18470D1*
X19641D2*
X20673D1*
X23497D2*
X25033D1*
X28528D2*
X29599D1*
X33095D2*
X34689D1*
X37513D2*
X39197D1*
X43477D2*
X43923D1*
X4304Y24899D2*
X7349D1*
X14227D2*
X14611D1*
X17434D2*
X18470D1*
X19641D2*
X20673D1*
X23497D2*
X25095D1*
X28466D2*
X29666D1*
X33028D2*
X34689D1*
X37513D2*
X39263D1*
X43415D2*
X43923D1*
X4304Y24650D2*
X7349D1*
X14227D2*
X14611D1*
X17434D2*
X18470D1*
X19641D2*
X20673D1*
X23497D2*
X25365D1*
X25837D2*
X26162D1*
X26634D2*
X26939D1*
X27411D2*
X27724D1*
X28196D2*
X29845D1*
X31302D2*
X31529D1*
X31950D2*
X32318D1*
X32739D2*
X34689D1*
X37513D2*
X39412D1*
X43134D2*
X43923D1*
X4304Y24401D2*
X7349D1*
X14227D2*
X14611D1*
X17434D2*
X19513D1*
X20173D2*
X20673D1*
X23497D2*
X29884D1*
X31317D2*
X34689D1*
X37513D2*
X39556D1*
X43126D2*
X43923D1*
X4304Y24153D2*
X6400D1*
X12614D2*
X14611D1*
X17434D2*
X19365D1*
X20317D2*
X20673D1*
X23497D2*
X29939D1*
X31356D2*
X34689D1*
X37513D2*
X39642D1*
X40352D2*
X40630D1*
X41341D2*
X41420D1*
X43372D2*
X43923D1*
X4304Y23904D2*
X6150D1*
X12864D2*
X15537D1*
X16509D2*
X19380D1*
X20305D2*
X21560D1*
X22532D2*
X30013D1*
X31419D2*
X35681D1*
X36763D2*
X39642D1*
X40352D2*
X40630D1*
X41341D2*
X41654D1*
X43477D2*
X43923D1*
X4304Y23655D2*
X6041D1*
X13114D2*
X15537D1*
X16509D2*
X19486D1*
X20196D2*
X21560D1*
X22532D2*
X30103D1*
X31513D2*
X35779D1*
X36954D2*
X39642D1*
X40352D2*
X40630D1*
X41341D2*
X41654D1*
X43477D2*
X43923D1*
X4304Y23406D2*
X4591D1*
X7583D2*
X9318D1*
X13345D2*
X15537D1*
X16509D2*
X19486D1*
X20196D2*
X21564D1*
X22540D2*
X30213D1*
X31634D2*
X35935D1*
X37192D2*
X39474D1*
X43520D2*
X43923D1*
X4304Y23158D2*
X4591D1*
X7571D2*
X9244D1*
X13399D2*
X15537D1*
X16509D2*
X19486D1*
X20196D2*
X21588D1*
X22587D2*
X30345D1*
X31790D2*
X36119D1*
X37505D2*
X39412D1*
X43583D2*
X43923D1*
X4304Y22909D2*
X4591D1*
X7407D2*
X8900D1*
X13305D2*
X15537D1*
X16509D2*
X19486D1*
X20196D2*
X21646D1*
X22716D2*
X30498D1*
X31993D2*
X36334D1*
X37942D2*
X39466D1*
X43528D2*
X43923D1*
X4304Y22660D2*
X4591D1*
X6747D2*
X8646D1*
X11470D2*
X12029D1*
X12934D2*
X15537D1*
X16509D2*
X19486D1*
X20196D2*
X21744D1*
X22977D2*
X30681D1*
X32255D2*
X36595D1*
X38860D2*
X39697D1*
X40294D2*
X40697D1*
X41294D2*
X41697D1*
X42294D2*
X42697D1*
X43294D2*
X43923D1*
X4304Y22412D2*
X4591D1*
X6747D2*
X8615D1*
X11470D2*
X12271D1*
X12692D2*
X15537D1*
X16509D2*
X19486D1*
X20196D2*
X21888D1*
X25638D2*
X30892D1*
X32618D2*
X36912D1*
X40970D2*
X43923D1*
X4304Y22163D2*
X8736D1*
X9454D2*
X15537D1*
X16509D2*
X19486D1*
X20196D2*
X22088D1*
X25958D2*
X31146D1*
X33204D2*
X37318D1*
X41380D2*
X43923D1*
X4304Y21914D2*
X15537D1*
X16509D2*
X19486D1*
X20196D2*
X22384D1*
X26106D2*
X31451D1*
X36833D2*
X37904D1*
X41622D2*
X43923D1*
X4304Y21666D2*
X15537D1*
X16509D2*
X19486D1*
X20196D2*
X22904D1*
X26169D2*
X31830D1*
X37430D2*
X39728D1*
X41790D2*
X43923D1*
X50485D2*
X55970D1*
X4304Y21417D2*
X15537D1*
X16509D2*
X19486D1*
X20196D2*
X25201D1*
X26177D2*
X32341D1*
X37829D2*
X40779D1*
X41903D2*
X43923D1*
X50485D2*
X55970D1*
X4304Y21168D2*
X14748D1*
X17298D2*
X19490D1*
X20348D2*
X24416D1*
X26962D2*
X29005D1*
X30602D2*
X33275D1*
X38134D2*
X40162D1*
X42712D2*
X43923D1*
X50485D2*
X55970D1*
X4304Y20920D2*
X14748D1*
X17298D2*
X19611D1*
X23016D2*
X24416D1*
X26962D2*
X28923D1*
X30684D2*
X36779D1*
X38376D2*
X40162D1*
X42712D2*
X43923D1*
X50485D2*
X55970D1*
X4304Y20671D2*
X12127D1*
X13348D2*
X14748D1*
X17298D2*
X19166D1*
X23286D2*
X24416D1*
X26962D2*
X28986D1*
X30618D2*
X37216D1*
X38575D2*
X40162D1*
X42712D2*
X43923D1*
X50485D2*
X55970D1*
X4304Y20422D2*
X12033D1*
X13438D2*
X14748D1*
X17298D2*
X18908D1*
X23532D2*
X24416D1*
X26962D2*
X29396D1*
X30212D2*
X37509D1*
X38739D2*
X40162D1*
X42712D2*
X43923D1*
X52770D2*
X55970D1*
X4304Y20174D2*
X8533D1*
X11575D2*
X12088D1*
X13384D2*
X14748D1*
X17298D2*
X18744D1*
X23782D2*
X24416D1*
X26962D2*
X29396D1*
X30212D2*
X35025D1*
X37227D2*
X37728D1*
X38872D2*
X40162D1*
X42712D2*
X50435D1*
X53645D2*
X55970D1*
X4304Y19925D2*
X5033D1*
X5755D2*
X8283D1*
X11626D2*
X12545D1*
X13360D2*
X14748D1*
X17298D2*
X18638D1*
X24013D2*
X24416D1*
X26962D2*
X29396D1*
X30212D2*
X35025D1*
X37661D2*
X37896D1*
X38981D2*
X40162D1*
X42712D2*
X50435D1*
X54169D2*
X54572D1*
X55169D2*
X55970D1*
X4304Y19676D2*
X4845D1*
X5942D2*
X8037D1*
X11532D2*
X12545D1*
X13360D2*
X14748D1*
X17298D2*
X18615D1*
X24055D2*
X24416D1*
X26962D2*
X29404D1*
X30223D2*
X35025D1*
X37864D2*
X38021D1*
X39067D2*
X40162D1*
X42712D2*
X50435D1*
X55403D2*
X55970D1*
X4304Y19427D2*
X4810D1*
X5977D2*
X7787D1*
X8864D2*
X12545D1*
X24055D2*
X29431D1*
X30259D2*
X35025D1*
X37876D2*
X38115D1*
X39134D2*
X40259D1*
X42653D2*
X50435D1*
X52794D2*
X53287D1*
X55454D2*
X55970D1*
X4304Y19179D2*
X4896D1*
X5891D2*
X7537D1*
X8614D2*
X12545D1*
X24188D2*
X29478D1*
X30321D2*
X35025D1*
X37727D2*
X38177D1*
X39177D2*
X50435D1*
X55391D2*
X55970D1*
X4304Y18930D2*
X5041D1*
X5747D2*
X7291D1*
X8368D2*
X8448D1*
X9110D2*
X12545D1*
X26602D2*
X29545D1*
X30407D2*
X35025D1*
X37384D2*
X38216D1*
X39204D2*
X50435D1*
X55161D2*
X55970D1*
X4304Y18681D2*
X4849D1*
X5938D2*
X7041D1*
X8118D2*
X8302D1*
X10001D2*
X12545D1*
X13360D2*
X18740D1*
X21036D2*
X22220D1*
X23095D2*
X23345D1*
X26848D2*
X29634D1*
X30528D2*
X35025D1*
X37263D2*
X38228D1*
X39212D2*
X50435D1*
X52794D2*
X53341D1*
X55399D2*
X55970D1*
X4304Y18433D2*
X4810D1*
X5977D2*
X6791D1*
X7868D2*
X8318D1*
X10247D2*
X12545D1*
X13360D2*
X14380D1*
X17231D2*
X18740D1*
X21036D2*
X22220D1*
X23095D2*
X23595D1*
X27098D2*
X29740D1*
X30680D2*
X35025D1*
X37438D2*
X38228D1*
X39212D2*
X50435D1*
X55454D2*
X55970D1*
X4304Y18184D2*
X4892D1*
X5895D2*
X6545D1*
X7622D2*
X8521D1*
X9036D2*
X9513D1*
X10497D2*
X12545D1*
X13360D2*
X14130D1*
X17481D2*
X18744D1*
X21235D2*
X22220D1*
X23095D2*
X23857D1*
X27348D2*
X29877D1*
X30876D2*
X35025D1*
X37438D2*
X38228D1*
X40942D2*
X50435D1*
X55395D2*
X55970D1*
X4304Y17935D2*
X5048D1*
X5739D2*
X6295D1*
X7372D2*
X7505D1*
X9266D2*
X9763D1*
X10743D2*
X12369D1*
X13360D2*
X13884D1*
X17864D2*
X18896D1*
X21493D2*
X22220D1*
X25013D2*
X25798D1*
X27595D2*
X30045D1*
X31130D2*
X35025D1*
X37266D2*
X38228D1*
X41102D2*
X50435D1*
X54149D2*
X54591D1*
X55149D2*
X55970D1*
X4304Y17687D2*
X4849D1*
X5938D2*
X6042D1*
X7122D2*
X7505D1*
X9266D2*
X10009D1*
X10993D2*
X11619D1*
X13255D2*
X13634D1*
X14888D2*
X15767D1*
X18095D2*
X19146D1*
X21739D2*
X22220D1*
X25013D2*
X26861D1*
X27845D2*
X30240D1*
X31477D2*
X35025D1*
X37384D2*
X38228D1*
X41102D2*
X50435D1*
X55395D2*
X55970D1*
X4304Y17438D2*
X4810D1*
X6876D2*
X7505D1*
X9266D2*
X10259D1*
X11243D2*
X11521D1*
X13005D2*
X13384D1*
X14638D2*
X15646D1*
X18118D2*
X19279D1*
X21899D2*
X22220D1*
X25013D2*
X27111D1*
X28095D2*
X30486D1*
X32024D2*
X35025D1*
X37407D2*
X38228D1*
X41102D2*
X50435D1*
X55454D2*
X55970D1*
X4304Y17189D2*
X4888D1*
X6626D2*
X7505D1*
X9266D2*
X10509D1*
X12755D2*
X13138D1*
X14575D2*
X15451D1*
X17985D2*
X19279D1*
X21938D2*
X22220D1*
X25013D2*
X27357D1*
X28341D2*
X30791D1*
X37278D2*
X38228D1*
X41102D2*
X50435D1*
X55399D2*
X55970D1*
X4304Y16941D2*
X5056D1*
X6376D2*
X7505D1*
X9266D2*
X10755D1*
X12509D2*
X12888D1*
X14927D2*
X15345D1*
X17384D2*
X21084D1*
X21829D2*
X22103D1*
X25013D2*
X27607D1*
X28591D2*
X31189D1*
X37091D2*
X38228D1*
X41102D2*
X50435D1*
X52794D2*
X52923D1*
X55153D2*
X55970D1*
X4304Y16692D2*
X4853D1*
X6130D2*
X7505D1*
X9266D2*
X10838D1*
X12368D2*
X12638D1*
X14973D2*
X15100D1*
X17454D2*
X21853D1*
X25638D2*
X27857D1*
X28841D2*
X31795D1*
X37341D2*
X38228D1*
X41102D2*
X50607D1*
X52622D2*
X53170D1*
X55395D2*
X55970D1*
X4304Y16443D2*
X4810D1*
X5977D2*
X7505D1*
X9266D2*
X10806D1*
X12009D2*
X12392D1*
X25759D2*
X28103D1*
X29087D2*
X36455D1*
X37587D2*
X38228D1*
X41102D2*
X53287D1*
X55454D2*
X55970D1*
X4304Y16195D2*
X4810D1*
X5977D2*
X7505D1*
X9266D2*
X10568D1*
X11763D2*
X12142D1*
X13712D2*
X14599D1*
X15583D2*
X15841D1*
X25723D2*
X28353D1*
X29337D2*
X36705D1*
X37837D2*
X38228D1*
X41102D2*
X53341D1*
X55399D2*
X55970D1*
X4304Y15946D2*
X4810D1*
X5977D2*
X7505D1*
X9266D2*
X10267D1*
X11513D2*
X11892D1*
X13462D2*
X14353D1*
X15337D2*
X15947D1*
X25614D2*
X28603D1*
X29587D2*
X36951D1*
X38087D2*
X38250D1*
X41102D2*
X53576D1*
X54165D2*
X54576D1*
X55165D2*
X55970D1*
X4304Y15697D2*
X4810D1*
X5977D2*
X7505D1*
X9266D2*
X10130D1*
X11376D2*
X11646D1*
X13212D2*
X14103D1*
X15087D2*
X15779D1*
X25536D2*
X28849D1*
X29833D2*
X33818D1*
X34372D2*
X37201D1*
X41102D2*
X53349D1*
X55391D2*
X55970D1*
X4304Y15448D2*
X4810D1*
X5977D2*
X9880D1*
X11079D2*
X11396D1*
X12966D2*
X13853D1*
X14837D2*
X15330D1*
X25286D2*
X29099D1*
X30657D2*
X32154D1*
X36899D2*
X37451D1*
X41102D2*
X53287D1*
X55454D2*
X55970D1*
X4304Y15200D2*
X4880D1*
X5907D2*
X6642D1*
X10821D2*
X11146D1*
X12716D2*
X13607D1*
X14591D2*
X15158D1*
X16220D2*
X22744D1*
X25013D2*
X29349D1*
X30759D2*
X31705D1*
X37442D2*
X37697D1*
X41102D2*
X53338D1*
X55403D2*
X55970D1*
X4304Y14951D2*
X5072D1*
X5716D2*
X6392D1*
X10516D2*
X10900D1*
X12466D2*
X13357D1*
X14341D2*
X14500D1*
X17212D2*
X17392D1*
X18946D2*
X22791D1*
X25013D2*
X29595D1*
X30712D2*
X31466D1*
X37739D2*
X37947D1*
X41102D2*
X53568D1*
X54173D2*
X54568D1*
X55173D2*
X55970D1*
X4304Y14702D2*
X4857D1*
X5930D2*
X6142D1*
X10270D2*
X10650D1*
X12220D2*
X13107D1*
X14091D2*
X14250D1*
X21985D2*
X22931D1*
X25013D2*
X30173D1*
X30380D2*
X31318D1*
X32188D2*
X33806D1*
X34384D2*
X36939D1*
X37954D2*
X38197D1*
X43278D2*
X53353D1*
X55388D2*
X55970D1*
X4304Y14454D2*
X4810D1*
X7028D2*
X10404D1*
X11970D2*
X12861D1*
X13845D2*
X14000D1*
X22235D2*
X22759D1*
X25013D2*
X31228D1*
X31981D2*
X32283D1*
X36813D2*
X37255D1*
X38098D2*
X38443D1*
X43684D2*
X53287D1*
X55454D2*
X55970D1*
X4304Y14205D2*
X4880D1*
X6778D2*
X10154D1*
X11720D2*
X12345D1*
X15774D2*
X16209D1*
X22485D2*
X22759D1*
X25013D2*
X31189D1*
X37263D2*
X37435D1*
X38204D2*
X38705D1*
X43958D2*
X53334D1*
X55403D2*
X55970D1*
X4304Y13956D2*
X5080D1*
X6532D2*
X9427D1*
X11473D2*
X12232D1*
X14485D2*
X15041D1*
X16024D2*
X16459D1*
X22731D2*
X22931D1*
X25013D2*
X31181D1*
X38270D2*
X43005D1*
X44157D2*
X53556D1*
X54184D2*
X54556D1*
X55184D2*
X55970D1*
X4304Y13708D2*
X4857D1*
X6282D2*
X9255D1*
X11223D2*
X12271D1*
X13161D2*
X13384D1*
X14333D2*
X15291D1*
X16270D2*
X16705D1*
X18598D2*
X21373D1*
X22981D2*
X31181D1*
X32458D2*
X33798D1*
X34391D2*
X36779D1*
X38302D2*
X43322D1*
X44302D2*
X53353D1*
X55384D2*
X55970D1*
X4304Y13459D2*
X4810D1*
X6032D2*
X7611D1*
X10973D2*
X12361D1*
X13071D2*
X13545D1*
X14173D2*
X15537D1*
X16520D2*
X16955D1*
X18528D2*
X21623D1*
X23231D2*
X31181D1*
X32442D2*
X33576D1*
X34614D2*
X36974D1*
X38309D2*
X43517D1*
X44411D2*
X53287D1*
X55454D2*
X55970D1*
X4304Y13210D2*
X4810D1*
X5977D2*
X7349D1*
X10727D2*
X12361D1*
X13071D2*
X15787D1*
X16770D2*
X21873D1*
X24118D2*
X31181D1*
X32442D2*
X33509D1*
X34680D2*
X35537D1*
X36352D2*
X37041D1*
X38309D2*
X43634D1*
X44485D2*
X53334D1*
X55407D2*
X55970D1*
X4304Y12962D2*
X4810D1*
X5977D2*
X6908D1*
X10477D2*
X12361D1*
X13071D2*
X16037D1*
X17634D2*
X22119D1*
X24223D2*
X25470D1*
X25790D2*
X31181D1*
X32442D2*
X33560D1*
X34626D2*
X35259D1*
X36430D2*
X37048D1*
X38309D2*
X43701D1*
X44528D2*
X53548D1*
X54192D2*
X54548D1*
X55192D2*
X55970D1*
X4304Y12713D2*
X4810D1*
X5977D2*
X6838D1*
X7809D2*
X7992D1*
X10227D2*
X12361D1*
X13071D2*
X16283D1*
X17731D2*
X19033D1*
X21653D2*
X22369D1*
X26075D2*
X31181D1*
X32442D2*
X33787D1*
X34403D2*
X35052D1*
X36364D2*
X37048D1*
X38309D2*
X43724D1*
X44540D2*
X53357D1*
X55384D2*
X55970D1*
X4304Y12464D2*
X4810D1*
X5977D2*
X6912D1*
X7735D2*
X8166D1*
X8766D2*
X12361D1*
X13071D2*
X16533D1*
X17680D2*
X18783D1*
X22040D2*
X22619D1*
X26114D2*
X31181D1*
X32442D2*
X34779D1*
X36298D2*
X37048D1*
X38309D2*
X43728D1*
X44544D2*
X53287D1*
X55454D2*
X55970D1*
X4304Y12216D2*
X4873D1*
X5915D2*
X12361D1*
X13071D2*
X18537D1*
X22263D2*
X22865D1*
X26001D2*
X31181D1*
X32442D2*
X34638D1*
X36298D2*
X37048D1*
X38309D2*
X43728D1*
X44544D2*
X53330D1*
X55411D2*
X55970D1*
X4304Y11967D2*
X5099D1*
X5688D2*
X12361D1*
X13071D2*
X18287D1*
X22411D2*
X23115D1*
X24141D2*
X31166D1*
X32434D2*
X34552D1*
X36298D2*
X37048D1*
X38309D2*
X38877D1*
X41204D2*
X43728D1*
X44544D2*
X53541D1*
X54200D2*
X54541D1*
X55200D2*
X55970D1*
X4304Y11718D2*
X4865D1*
X5923D2*
X12361D1*
X13071D2*
X18115D1*
X22505D2*
X23560D1*
X23841D2*
X31107D1*
X32407D2*
X34545D1*
X36298D2*
X37048D1*
X38309D2*
X38822D1*
X41259D2*
X43728D1*
X44544D2*
X50162D1*
X52634D2*
X53361D1*
X55380D2*
X55970D1*
X4304Y11469D2*
X4810D1*
X5977D2*
X7427D1*
X9864D2*
X12361D1*
X13071D2*
X18111D1*
X21036D2*
X21349D1*
X24934D2*
X30994D1*
X32352D2*
X34545D1*
X36786D2*
X37048D1*
X38309D2*
X38484D1*
X41259D2*
X43728D1*
X44544D2*
X50158D1*
X52680D2*
X53287D1*
X55454D2*
X55970D1*
X4304Y11221D2*
X4869D1*
X5919D2*
X7427D1*
X9934D2*
X10287D1*
X10657D2*
X12259D1*
X13177D2*
X18111D1*
X24934D2*
X30810D1*
X32278D2*
X34545D1*
X36786D2*
X37048D1*
X38309D2*
X38408D1*
X41259D2*
X43728D1*
X44544D2*
X50158D1*
X52930D2*
X53330D1*
X55411D2*
X55970D1*
X4304Y10972D2*
X5107D1*
X5680D2*
X7427D1*
X9864D2*
X10025D1*
X10919D2*
X12240D1*
X13192D2*
X17923D1*
X24934D2*
X30513D1*
X32177D2*
X34545D1*
X36786D2*
X37056D1*
X38348D2*
X38481D1*
X41259D2*
X43732D1*
X44548D2*
X50158D1*
X53180D2*
X53533D1*
X54208D2*
X54533D1*
X55208D2*
X55970D1*
X4304Y10723D2*
X4865D1*
X5923D2*
X7427D1*
X9786D2*
X9990D1*
X10954D2*
X12380D1*
X13055D2*
X17673D1*
X32048D2*
X34545D1*
X36786D2*
X37099D1*
X41259D2*
X43732D1*
X44548D2*
X50158D1*
X55376D2*
X55970D1*
X4304Y10475D2*
X4810D1*
X5977D2*
X7427D1*
X10837D2*
X17423D1*
X31884D2*
X34545D1*
X36786D2*
X37173D1*
X41259D2*
X43732D1*
X44548D2*
X50158D1*
X55454D2*
X55970D1*
X4304Y10226D2*
X4869D1*
X5919D2*
X7427D1*
X10305D2*
X17177D1*
X19141D2*
X19279D1*
X31677D2*
X34545D1*
X36786D2*
X37295D1*
X41259D2*
X43732D1*
X44548D2*
X50158D1*
X55415D2*
X55970D1*
X4304Y9977D2*
X5115D1*
X5673D2*
X7427D1*
X9188D2*
X9572D1*
X10552D2*
X16927D1*
X18895D2*
X19279D1*
X22841D2*
X23173D1*
X24934D2*
X29584D1*
X31415D2*
X34545D1*
X36786D2*
X37470D1*
X41259D2*
X43732D1*
X44548D2*
X50158D1*
X54216D2*
X54525D1*
X55216D2*
X55970D1*
X4304Y9729D2*
X4869D1*
X5919D2*
X7427D1*
X9384D2*
X9818D1*
X18645D2*
X19279D1*
X21626D2*
X21802D1*
X31067D2*
X34646D1*
X36786D2*
X37720D1*
X41259D2*
X43732D1*
X44548D2*
X50158D1*
X55372D2*
X55970D1*
X4304Y9480D2*
X4810D1*
X5977D2*
X7427D1*
X9634D2*
X10068D1*
X18395D2*
X19279D1*
X21532D2*
X22150D1*
X30540D2*
X34892D1*
X36786D2*
X38123D1*
X41259D2*
X43736D1*
X44552D2*
X50158D1*
X55454D2*
X55970D1*
X4304Y9231D2*
X4865D1*
X5923D2*
X6713D1*
X9884D2*
X17166D1*
X18149D2*
X19279D1*
X21036D2*
X22498D1*
X24934D2*
X35025D1*
X36786D2*
X38521D1*
X41259D2*
X43736D1*
X44552D2*
X50158D1*
X55415D2*
X55970D1*
X4304Y8983D2*
X4810D1*
X5977D2*
X6537D1*
X17899D2*
X19279D1*
X21036D2*
X22326D1*
X24934D2*
X35025D1*
X36786D2*
X38349D1*
X41259D2*
X43736D1*
X44552D2*
X50158D1*
X55223D2*
X55970D1*
X4304Y8734D2*
X4810D1*
X5977D2*
X6521D1*
X9188D2*
X9396D1*
X17649D2*
X19279D1*
X21036D2*
X22310D1*
X24934D2*
X35025D1*
X36786D2*
X38334D1*
X41259D2*
X43736D1*
X44552D2*
X50158D1*
X52638D2*
X52861D1*
X55372D2*
X55970D1*
X4304Y8485D2*
X4810D1*
X5977D2*
X6521D1*
X9188D2*
X19279D1*
X21036D2*
X22310D1*
X24934D2*
X35025D1*
X36786D2*
X38334D1*
X41259D2*
X43400D1*
X44946D2*
X50158D1*
X52638D2*
X53111D1*
X55454D2*
X55970D1*
X4304Y8237D2*
X4810D1*
X5977D2*
X6521D1*
X9188D2*
X19279D1*
X21036D2*
X22310D1*
X24934D2*
X35025D1*
X36786D2*
X38334D1*
X41259D2*
X43295D1*
X45052D2*
X50158D1*
X52766D2*
X53322D1*
X55419D2*
X55970D1*
X4304Y7988D2*
X4810D1*
X5977D2*
X6521D1*
X9188D2*
X19279D1*
X21036D2*
X22310D1*
X24934D2*
X35025D1*
X36786D2*
X38334D1*
X41259D2*
X43338D1*
X45009D2*
X50158D1*
X53016D2*
X53509D1*
X54231D2*
X54509D1*
X55231D2*
X55970D1*
X4304Y7739D2*
X6572D1*
X9188D2*
X19279D1*
X21036D2*
X22361D1*
X24934D2*
X35025D1*
X36786D2*
X38408D1*
X41259D2*
X43650D1*
X44696D2*
X50158D1*
X55368D2*
X55970D1*
X4304Y7490D2*
X6630D1*
X9188D2*
X19279D1*
X21036D2*
X22431D1*
X24934D2*
X35025D1*
X36786D2*
X38439D1*
X41259D2*
X50158D1*
X55454D2*
X55970D1*
X4304Y7242D2*
X6838D1*
X9188D2*
X19279D1*
X21036D2*
X22584D1*
X24934D2*
X35025D1*
X36786D2*
X38650D1*
X41259D2*
X50158D1*
X55419D2*
X55970D1*
X4304Y6993D2*
X7088D1*
X9188D2*
X19279D1*
X21036D2*
X22838D1*
X24934D2*
X35025D1*
X36786D2*
X38822D1*
X41259D2*
X50158D1*
X55235D2*
X55970D1*
X4304Y6744D2*
X6595D1*
X9188D2*
X19279D1*
X21036D2*
X22341D1*
X24934D2*
X35025D1*
X36786D2*
X38404D1*
X41259D2*
X50158D1*
X55364D2*
X55970D1*
X4304Y6496D2*
X6521D1*
X9188D2*
X19279D1*
X21036D2*
X22271D1*
X24934D2*
X35025D1*
X36786D2*
X38334D1*
X41259D2*
X50158D1*
X55454D2*
X55970D1*
X4304Y6247D2*
X6521D1*
X9188D2*
X19279D1*
X21036D2*
X22271D1*
X24934D2*
X35025D1*
X36786D2*
X38334D1*
X41259D2*
X50158D1*
X55423D2*
X55970D1*
X4304Y5998D2*
X6521D1*
X9188D2*
X22271D1*
X24973D2*
X38334D1*
X41259D2*
X50181D1*
X52614D2*
X53287D1*
X55243D2*
X55970D1*
X4304Y5750D2*
X6521D1*
X9188D2*
X22271D1*
X24973D2*
X38334D1*
X41259D2*
X55970D1*
X4304Y5501D2*
X6552D1*
X9188D2*
X22318D1*
X24973D2*
X38380D1*
X41259D2*
X55970D1*
X4304Y5252D2*
X6787D1*
X7231D2*
X7427D1*
X9188D2*
X22662D1*
X22851D2*
X23213D1*
X24973D2*
X38724D1*
X41259D2*
X55970D1*
X4304Y5004D2*
X38912D1*
X41165D2*
X55970D1*
X4304Y4755D2*
X55970D1*
X4304Y4506D2*
X55970D1*
X7553Y25545D2*
X7549Y25535D1*
X7623Y25501D1*
X9338D1*
X9341Y25675D1*
Y26289D1*
X11446D1*
Y26075D1*
X11573Y26151D1*
X11693Y26184D1*
X11817Y26188D1*
X11939Y26162D1*
X12052Y26108D1*
X12148Y26029D1*
X12223Y25929D1*
X12272Y25815D1*
X12292Y25669D1*
X12273Y25535D1*
X12347Y25501D1*
X14202D1*
Y24263D1*
X12479D1*
X13144Y23598D1*
X13211Y23542D1*
X13295Y23449D1*
X13351Y23338D1*
X13375Y23189D1*
X13358Y23065D1*
X13309Y22951D1*
X13231Y22854D1*
X13130Y22781D1*
X13013Y22738D1*
X12931Y22731D1*
X12876Y22597D1*
X12798Y22500D1*
X12697Y22427D1*
X12580Y22384D1*
X12456Y22374D1*
X12333Y22397D1*
X12222Y22452D1*
X12129Y22535D1*
X12061Y22640D1*
X12025Y22759D1*
X12022Y22849D1*
X11960Y22822D1*
X11840Y22791D1*
X11715Y22789D1*
X11593Y22818D1*
X11473Y22882D1*
X11446Y22783D1*
Y22294D1*
X9520D1*
X9412Y22145D1*
X9311Y22072D1*
X9194Y22029D1*
X9070Y22019D1*
X8947Y22043D1*
X8836Y22098D1*
X8743Y22181D1*
X8676Y22286D1*
X8639Y22405D1*
X8635Y22530D1*
X8665Y22651D1*
X8726Y22759D1*
X8814Y22847D1*
X8923Y22909D1*
X9047Y22939D1*
X9258Y23149D1*
X9337Y23206D1*
X9341Y23533D1*
X11305Y23538D1*
X11311Y23547D1*
X11297Y23623D1*
X7457D1*
X7498Y23567D1*
X7547Y23453D1*
X7568Y23307D1*
X7553Y23183D1*
X7509Y23067D1*
X7439Y22964D1*
X7346Y22880D1*
X7236Y22822D1*
X7115Y22791D1*
X6990Y22789D1*
X6869Y22818D1*
X6749Y22882D1*
X6722Y22783D1*
Y22294D1*
X4617D1*
Y23533D1*
X6066D1*
X6064Y23661D1*
X6088Y23783D1*
X6156Y23884D1*
X6431Y24159D1*
X6535Y24228D1*
X6654Y24251D1*
X9048D1*
X8978Y24263D1*
X7373D1*
Y25267D1*
X7346Y25243D1*
X7236Y25184D1*
X7115Y25153D1*
X6990Y25152D1*
X6869Y25180D1*
X6749Y25244D1*
X6722Y25239D1*
Y25050D1*
X4617D1*
Y26289D1*
X6722D1*
Y26075D1*
X6848Y26151D1*
X6968Y26184D1*
X7093Y26188D1*
X7215Y26162D1*
X7327Y26108D1*
X7424Y26029D1*
X7498Y25929D1*
X7547Y25815D1*
X7568Y25669D1*
X7553Y25545D1*
X12079Y25250D2*
X11960Y25184D1*
X11840Y25153D1*
X11715Y25152D1*
X11593Y25180D1*
X11473Y25244D1*
X11446Y25239D1*
Y25050D1*
X9891D1*
X9957Y25026D1*
X10080Y24939D1*
X11389Y24936D1*
X12096D1*
X12097Y25267D1*
X4859Y9037D2*
X5047D1*
X4961Y9121D1*
X4893Y9226D1*
X4850Y9343D1*
X4834Y9466D1*
X4845Y9591D1*
X4884Y9709D1*
X4948Y9816D1*
X5035Y9906D1*
X5142Y9976D1*
X5050Y10034D1*
X4961Y10121D1*
X4893Y10226D1*
X4850Y10343D1*
X4834Y10466D1*
X4845Y10591D1*
X4884Y10709D1*
X4948Y10816D1*
X5035Y10906D1*
X5142Y10976D1*
X5050Y11034D1*
X4961Y11121D1*
X4893Y11226D1*
X4850Y11343D1*
X4834Y11466D1*
X4845Y11591D1*
X4884Y11709D1*
X4948Y11816D1*
X5035Y11906D1*
X5141Y11976D1*
X5050Y12034D1*
X4961Y12121D1*
X4893Y12226D1*
X4850Y12343D1*
X4834Y12476D1*
Y13476D1*
X4847Y13600D1*
X4888Y13718D1*
X4954Y13824D1*
X5035Y13906D1*
X5142Y13976D1*
X5050Y14034D1*
X4961Y14121D1*
X4893Y14226D1*
X4850Y14343D1*
X4834Y14466D1*
X4845Y14591D1*
X4884Y14709D1*
X4948Y14816D1*
X5035Y14906D1*
X5141Y14976D1*
X5050Y15034D1*
X4961Y15121D1*
X4893Y15226D1*
X4850Y15343D1*
X4834Y15476D1*
Y16476D1*
X4847Y16600D1*
X4888Y16718D1*
X4954Y16824D1*
X5035Y16906D1*
X5142Y16976D1*
X5050Y17034D1*
X4961Y17121D1*
X4893Y17226D1*
X4850Y17343D1*
X4834Y17466D1*
X4845Y17591D1*
X4884Y17709D1*
X4948Y17816D1*
X5035Y17906D1*
X5142Y17976D1*
X5050Y18034D1*
X4961Y18121D1*
X4893Y18226D1*
X4850Y18343D1*
X4834Y18466D1*
X4845Y18591D1*
X4884Y18709D1*
X4948Y18816D1*
X5035Y18906D1*
X5142Y18976D1*
X5050Y19034D1*
X4961Y19121D1*
X4893Y19226D1*
X4850Y19343D1*
X4834Y19466D1*
X4845Y19591D1*
X4884Y19709D1*
X4948Y19816D1*
X5035Y19906D1*
X5139Y19975D1*
X5255Y20019D1*
X5379Y20036D1*
X5503Y20026D1*
X5622Y19988D1*
X5730Y19925D1*
X5820Y19839D1*
X5890Y19736D1*
X5935Y19620D1*
X5954Y19476D1*
X5940Y19352D1*
X5899Y19235D1*
X5833Y19129D1*
X5745Y19040D1*
X5643Y18975D1*
X5730Y18925D1*
X5820Y18839D1*
X5890Y18736D1*
X5935Y18620D1*
X5954Y18476D1*
X5940Y18352D1*
X5899Y18235D1*
X5833Y18129D1*
X5745Y18040D1*
X5643Y17975D1*
X5730Y17925D1*
X5820Y17839D1*
X5890Y17736D1*
X5935Y17620D1*
X5944Y17562D1*
X8601Y20218D1*
X8703Y20289D1*
X8842Y20324D1*
X10862Y20328D1*
X10970Y20389D1*
X11091Y20420D1*
X11215Y20416D1*
X11335Y20380D1*
X11440Y20313D1*
X11523Y20221D1*
X11579Y20109D1*
X11604Y19961D1*
X11587Y19837D1*
X11537Y19723D1*
X11459Y19626D1*
X11358Y19553D1*
X11241Y19510D1*
X11117Y19500D1*
X10995Y19523D1*
X10863Y19596D1*
X9005Y19597D1*
X7878Y18466D1*
X5953Y16541D1*
X5954Y15476D1*
X5940Y15352D1*
X5899Y15235D1*
X5833Y15129D1*
X5742Y15038D1*
X5688Y14953D1*
X5786Y14876D1*
X5865Y14779D1*
X5920Y14667D1*
X5950Y14546D1*
X5954Y14487D1*
X6658Y15192D1*
X6759Y15265D1*
X6882Y15301D1*
X7179Y15304D1*
X9761D1*
X10178Y15720D1*
X10201Y15800D1*
X10262Y15909D1*
X10350Y15997D1*
X10458Y16059D1*
X10537Y16078D1*
X10655Y16302D1*
X10743Y16391D1*
X10852Y16452D1*
X10931Y16472D1*
X11001Y16547D1*
X10908Y16630D1*
X10841Y16735D1*
X10804Y16854D1*
X10802Y16920D1*
X9471Y18251D1*
X9102Y18253D1*
X8996Y18175D1*
X8879Y18132D1*
X8755Y18122D1*
X8632Y18145D1*
X8521Y18200D1*
X8428Y18283D1*
X8361Y18388D1*
X8324Y18507D1*
X8320Y18632D1*
X8350Y18753D1*
X8411Y18861D1*
X8499Y18950D1*
X8608Y19011D1*
X8729Y19042D1*
X8853Y19039D1*
X8972Y19002D1*
X9096Y18915D1*
X9606Y18913D1*
X9728Y18889D1*
X9840Y18816D1*
X11262Y17393D1*
X11333Y17385D1*
X11453Y17349D1*
X11566Y17273D1*
X11552Y17326D1*
X11549Y17451D1*
X11579Y17572D1*
X11640Y17680D1*
X11728Y17769D1*
X11836Y17830D1*
X11957Y17861D1*
X12082Y17857D1*
X12201Y17821D1*
X12250Y17790D1*
X12568Y18110D1*
X12570Y19935D1*
X12495Y19933D1*
X12373Y19956D1*
X12261Y20011D1*
X12168Y20094D1*
X12101Y20199D1*
X12064Y20318D1*
X12061Y20443D1*
X12090Y20564D1*
X12152Y20672D1*
X12240Y20761D1*
X12348Y20822D1*
X12469Y20853D1*
X12593Y20850D1*
X12736Y20799D1*
X12781Y20822D1*
X12902Y20853D1*
X13026Y20850D1*
X13146Y20813D1*
X13251Y20746D1*
X13334Y20654D1*
X13390Y20542D1*
X13415Y20394D1*
X13398Y20270D1*
X13336Y20141D1*
Y19499D1*
X17578Y19497D1*
X18714D1*
X18676Y19569D1*
X18639Y19688D1*
X18635Y19813D1*
X18665Y19934D1*
X18726Y20043D1*
X18762Y20078D1*
X18788Y20240D1*
X18861Y20351D1*
X19137Y20627D1*
X19240Y20697D1*
X19370Y20724D1*
X19835D1*
X19609Y20948D1*
X19540Y21051D1*
X19513Y21181D1*
Y23732D1*
X19424Y23861D1*
X19387Y23980D1*
X19383Y24104D1*
X19413Y24225D1*
X19474Y24334D1*
X19562Y24422D1*
X19671Y24484D1*
X19792Y24514D1*
X19916Y24511D1*
X20035Y24475D1*
X20141Y24408D1*
X20224Y24315D1*
X20280Y24204D1*
X20304Y24055D1*
X20287Y23932D1*
X20238Y23817D1*
X20172Y23735D1*
Y21317D1*
X20532Y20959D1*
X22835Y20960D1*
X22957Y20936D1*
X23068Y20863D1*
X23934Y19997D1*
X24004Y19894D1*
X24031Y19764D1*
Y19307D1*
X24312Y19028D1*
X26173Y19031D1*
X26339D1*
X26461Y19007D1*
X26572Y18934D1*
X29989Y15517D1*
X30104Y15586D1*
X30225Y15616D1*
X30349Y15613D1*
X30468Y15577D1*
X30574Y15510D1*
X30657Y15418D1*
X30713Y15306D1*
X30737Y15157D1*
X30721Y15034D1*
X30671Y14920D1*
X30593Y14822D1*
X30492Y14750D1*
X30375Y14707D1*
X30251Y14696D1*
X30129Y14720D1*
X30017Y14775D1*
X29956Y14830D1*
X29882Y14828D1*
X29760Y14851D1*
X29649Y14924D1*
X26577Y17990D1*
X26499Y17893D1*
X26398Y17820D1*
X26281Y17777D1*
X26156Y17767D1*
X26034Y17791D1*
X25922Y17846D1*
X25830Y17929D1*
X25762Y18034D1*
X25731Y18134D1*
X24055Y18135D1*
X23933Y18158D1*
X23822Y18231D1*
X23229Y18825D1*
X23175Y18833D1*
X23067Y18725D1*
X23070Y17956D1*
X23177Y17979D1*
X23278Y17981D1*
X24989D1*
X24985Y17058D1*
X24989Y16944D1*
Y16737D1*
X25104Y16807D1*
X25225Y16837D1*
X25349Y16834D1*
X25468Y16798D1*
X25574Y16731D1*
X25657Y16638D1*
X25713Y16527D1*
X25737Y16378D1*
X25721Y16254D1*
X25671Y16140D1*
X25590Y16041D1*
Y15906D1*
X25565Y15784D1*
X25498Y15683D1*
X25143Y15329D1*
X25027Y15256D1*
X24989Y15244D1*
X24985Y14696D1*
X24989Y14582D1*
Y13908D1*
X23415D1*
X23328Y13880D1*
X23204Y13870D1*
X23081Y13893D1*
X22970Y13948D1*
X22877Y14031D1*
X22810Y14136D1*
X22773Y14255D1*
X22769Y14380D1*
X22799Y14501D1*
X22860Y14609D1*
X22948Y14698D1*
X23026Y14742D1*
X22970Y14775D1*
X22877Y14858D1*
X22810Y14963D1*
X22773Y15082D1*
X22769Y15207D1*
X22805Y15338D1*
X22702Y15437D1*
X21210Y15434D1*
X16432D1*
X16093Y15098D1*
X16078Y14975D1*
X16260Y14976D1*
X16385Y14950D1*
X16360Y14959D1*
X16443Y14964D1*
X16531Y15052D1*
X16639Y15114D1*
X16760Y15144D1*
X16885Y15141D1*
X17004Y15105D1*
X17109Y15038D1*
X17193Y14945D1*
X17248Y14834D1*
X17273Y14685D1*
X17270Y14666D1*
X17340Y14601D1*
X17336Y14734D1*
X17366Y14855D1*
X17427Y14964D1*
X17515Y15052D1*
X17623Y15114D1*
X17744Y15144D1*
X17869Y15141D1*
X17988Y15105D1*
X18093Y15038D1*
X18169Y14954D1*
X18263Y15052D1*
X18371Y15114D1*
X18492Y15144D1*
X18617Y15141D1*
X18736Y15105D1*
X18841Y15038D1*
X18925Y14945D1*
X18975Y14844D1*
X20411Y14842D1*
X21693D1*
X21815Y14817D1*
X21915Y14750D1*
X23420Y13244D1*
X23460Y13280D1*
X23568Y13342D1*
X23689Y13372D1*
X23814Y13369D1*
X23933Y13333D1*
X24038Y13266D1*
X24122Y13174D1*
X24177Y13062D1*
X24202Y12913D1*
X24191Y12832D1*
X25288Y12834D1*
X25350Y12887D1*
X25458Y12948D1*
X25579Y12979D1*
X25704Y12976D1*
X25823Y12939D1*
X25928Y12872D1*
X26011Y12780D1*
X26067Y12668D1*
X26092Y12520D1*
X26075Y12396D1*
X26026Y12282D1*
X25948Y12185D1*
X25846Y12112D1*
X25729Y12069D1*
X25605Y12059D1*
X25483Y12082D1*
X25371Y12137D1*
X25293Y12207D1*
X24157Y12206D1*
X24163Y12165D1*
X24146Y12042D1*
X24097Y11927D1*
X24018Y11830D1*
X23917Y11757D1*
X23800Y11714D1*
X23676Y11704D1*
X23554Y11728D1*
X23442Y11783D1*
X23364Y11853D1*
X23264Y11876D1*
X23164Y11943D1*
X21366Y13741D1*
X18570D1*
X18555Y13577D1*
X18506Y13463D1*
X18428Y13366D1*
X18327Y13293D1*
X18210Y13250D1*
X18086Y13240D1*
X17963Y13263D1*
X17851Y13318D1*
X17791Y13373D1*
X17205Y13371D1*
X17083Y13394D1*
X16971Y13468D1*
X16123Y14316D1*
X15639D1*
X16933Y13021D1*
X17072Y13106D1*
X17193Y13136D1*
X17318Y13133D1*
X17437Y13097D1*
X17542Y13030D1*
X17626Y12937D1*
X17681Y12826D1*
X17706Y12677D1*
X17689Y12554D1*
X17640Y12439D1*
X17562Y12342D1*
X17461Y12269D1*
X17344Y12226D1*
X17219Y12216D1*
X17097Y12239D1*
X16985Y12295D1*
X16924Y12349D1*
X16811Y12347D1*
X16689Y12371D1*
X16578Y12444D1*
X14984Y14038D1*
X14932Y14050D1*
X14820Y14106D1*
X14712Y14212D1*
X14322Y13817D1*
X14303Y13695D1*
X14254Y13581D1*
X14176Y13484D1*
X14075Y13411D1*
X13958Y13368D1*
X13834Y13358D1*
X13711Y13381D1*
X13600Y13436D1*
X13507Y13520D1*
X13439Y13624D1*
X13403Y13744D1*
X13399Y13868D1*
X13429Y13989D1*
X13490Y14098D1*
X13578Y14186D1*
X13686Y14248D1*
X13807Y14278D1*
X13850Y14277D1*
X14649Y15076D1*
X14751Y15146D1*
X14882Y15172D1*
X15181D1*
X15201Y15249D1*
X15262Y15358D1*
X15350Y15446D1*
X15458Y15507D1*
X15579Y15538D1*
X15645Y15536D1*
X16013Y15906D1*
X15959Y15959D1*
X15890Y16062D1*
X15867Y16181D1*
Y16505D1*
X13546Y14182D1*
X13167Y13803D1*
X13112Y13660D1*
X13046Y13578D1*
Y11386D1*
X13098Y11323D1*
X13154Y11212D1*
X13178Y11063D1*
X13161Y10940D1*
X13112Y10825D1*
X13034Y10728D1*
X12933Y10655D1*
X12816Y10612D1*
X12692Y10602D1*
X12569Y10625D1*
X12458Y10681D1*
X12365Y10764D1*
X12298Y10869D1*
X12261Y10988D1*
X12257Y11112D1*
X12287Y11233D1*
X12348Y11342D1*
X12384Y11378D1*
X12387Y12813D1*
Y13575D1*
X12298Y13703D1*
X12261Y13822D1*
X12257Y13947D1*
X12287Y14068D1*
X12348Y14176D1*
X12436Y14265D1*
X12545Y14326D1*
X12666Y14357D1*
X12786Y14354D1*
X15459Y17028D1*
X15458Y17087D1*
X15481Y17209D1*
X15554Y17320D1*
X15722Y17490D1*
X15752Y17611D1*
X15813Y17720D1*
X15849Y17756D1*
X14932Y17757D1*
X14349Y17172D1*
X14437Y17191D1*
X14562Y17188D1*
X14681Y17152D1*
X14786Y17085D1*
X14870Y16992D1*
X14925Y16881D1*
X14950Y16732D1*
X14933Y16609D1*
X14884Y16494D1*
X14806Y16397D1*
X14705Y16324D1*
X14588Y16281D1*
X14464Y16271D1*
X14341Y16295D1*
X14229Y16350D1*
X14151Y16420D1*
X13906Y16418D1*
X12322Y14831D1*
X10104Y12613D1*
X10001Y12544D1*
X9882Y12521D1*
X8800D1*
X8681Y12427D1*
X8564Y12384D1*
X8440Y12374D1*
X8318Y12397D1*
X8206Y12452D1*
X8113Y12535D1*
X8046Y12640D1*
X8009Y12759D1*
X8006Y12872D1*
X7841Y12790D1*
X7783Y12732D1*
X7768Y12593D1*
X7719Y12479D1*
X7641Y12381D1*
X7539Y12309D1*
X7422Y12266D1*
X7298Y12255D1*
X7176Y12279D1*
X7064Y12334D1*
X6971Y12417D1*
X6904Y12522D1*
X6867Y12641D1*
X6864Y12766D1*
X6894Y12887D1*
X6955Y12995D1*
X7043Y13084D1*
X7151Y13145D1*
X7272Y13175D1*
X7338Y13174D1*
X7573Y13411D1*
X7677Y13480D1*
X7795Y13503D1*
X9269Y13507D1*
X9265Y13632D1*
X9295Y13753D1*
X9356Y13861D1*
X9444Y13950D1*
X9553Y14011D1*
X9673Y14042D1*
X9798Y14039D1*
X9917Y14002D1*
X9953Y13979D1*
X14502Y18529D1*
X14606Y18598D1*
X14724Y18621D1*
X16890D1*
X17011Y18597D1*
X17112Y18529D1*
X17662Y17980D1*
X17711Y17976D1*
X17831Y17939D1*
X17936Y17872D1*
X18019Y17780D1*
X18075Y17668D1*
X18100Y17520D1*
X18083Y17396D1*
X18034Y17282D1*
X17955Y17185D1*
X17854Y17112D1*
X17737Y17069D1*
X17613Y17059D1*
X17491Y17082D1*
X17365Y17150D1*
X17303Y17112D1*
X17219Y17081D1*
X17267Y17046D1*
X17350Y16953D1*
X17406Y16842D1*
X17430Y16693D1*
X17428Y16674D1*
X17573Y16653D1*
X21842D1*
X22246Y17061D1*
X22245Y18800D1*
X21684Y18804D1*
X21016D1*
X21013Y18242D1*
X21146Y18220D1*
X21257Y18147D1*
X21690Y17714D1*
X21761Y17607D1*
X21838Y17504D1*
X21894Y17393D1*
X21918Y17244D1*
X21902Y17121D1*
X21852Y17006D1*
X21774Y16909D1*
X21673Y16836D1*
X21556Y16793D1*
X21432Y16783D1*
X21310Y16806D1*
X21198Y16862D1*
X21105Y16945D1*
X21038Y17050D1*
X21014Y17128D1*
X21013Y17058D1*
X19302D1*
Y17601D1*
X19176Y17680D1*
X18861Y17995D1*
X18791Y18098D1*
X18765Y18228D1*
Y18771D1*
X13333D1*
X13336Y18259D1*
Y17953D1*
X13316Y17830D1*
X13254Y17717D1*
X13047Y17505D1*
X12458Y16917D1*
X12404Y16770D1*
X12326Y16673D1*
X12224Y16600D1*
X12096Y16556D1*
X11475Y15933D1*
X11419Y15786D1*
X11341Y15689D1*
X11240Y15616D1*
X11112Y15572D1*
X11026Y15392D1*
X10948Y15295D1*
X10846Y15222D1*
X10718Y15178D1*
X10192Y14650D1*
X10091Y14578D1*
X9968Y14542D1*
X9671Y14538D1*
X7089D1*
X5954Y13405D1*
Y12476D1*
X5940Y12352D1*
X5899Y12235D1*
X5833Y12129D1*
X5742Y12038D1*
X5688Y11953D1*
X5786Y11876D1*
X5865Y11779D1*
X5920Y11667D1*
X5950Y11546D1*
X5952Y11426D1*
X5927Y11304D1*
X5875Y11191D1*
X5800Y11091D1*
X5705Y11011D1*
X5646Y10976D1*
X5730Y10925D1*
X5820Y10839D1*
X5890Y10736D1*
X5935Y10620D1*
X5954Y10476D1*
X5940Y10352D1*
X5899Y10235D1*
X5833Y10129D1*
X5745Y10040D1*
X5643Y9975D1*
X5730Y9925D1*
X5820Y9839D1*
X5890Y9736D1*
X5935Y9620D1*
X5954Y9476D1*
X5940Y9352D1*
X5899Y9235D1*
X5833Y9129D1*
X5742Y9038D1*
X5954Y9037D1*
Y7916D1*
X4834D1*
Y9037D1*
X4859D1*
X40495Y22898D2*
X40435Y22802D1*
X40348Y22713D1*
X40242Y22646D1*
X40125Y22604D1*
X40001Y22589D1*
X39877Y22602D1*
X39759Y22642D1*
X39652Y22707D1*
X39563Y22794D1*
X39495Y22899D1*
X39452Y23016D1*
X39436Y23140D1*
X39448Y23264D1*
X39487Y23382D1*
X39551Y23489D1*
X39666Y23599D1*
Y24318D1*
X39531Y24452D1*
X39461Y24555D1*
X39434Y24685D1*
Y24728D1*
X39317Y24850D1*
X39259Y24961D1*
X39228Y25082D1*
X39226Y25206D1*
X39252Y25328D1*
X39305Y25441D1*
X39383Y25538D1*
X39481Y25615D1*
X39595Y25668D1*
X39717Y25693D1*
X39841Y25689D1*
X39962Y25657D1*
X40072Y25599D1*
X40157Y25524D1*
X40269Y25615D1*
X40382Y25668D1*
X40504Y25693D1*
X40629Y25689D1*
X40749Y25657D1*
X40859Y25599D1*
X40944Y25524D1*
X41056Y25615D1*
X41169Y25668D1*
X41292Y25693D1*
X41416Y25689D1*
X41537Y25657D1*
X41647Y25599D1*
X41732Y25524D1*
X41844Y25615D1*
X41957Y25668D1*
X42079Y25693D1*
X42204Y25689D1*
X42324Y25657D1*
X42434Y25599D1*
X42519Y25524D1*
X42610Y25602D1*
X42721Y25659D1*
X42841Y25690D1*
X42966Y25692D1*
X43088Y25666D1*
X43201Y25612D1*
X43298Y25534D1*
X43375Y25436D1*
X43427Y25323D1*
X43452Y25201D1*
X43449Y25080D1*
X43417Y24959D1*
X43359Y24849D1*
X43277Y24755D1*
X43176Y24682D1*
X43061Y24634D1*
X42937Y24614D1*
X42888Y24615D1*
X43319Y24185D1*
X43394Y24086D1*
X43448Y23934D1*
X43454Y23608D1*
Y23472D1*
X43493Y23409D1*
X43538Y23293D1*
X43556Y23150D1*
X43542Y23026D1*
X43501Y22908D1*
X43435Y22802D1*
X43348Y22713D1*
X43242Y22646D1*
X43125Y22604D1*
X43001Y22589D1*
X42877Y22602D1*
X42759Y22642D1*
X42652Y22707D1*
X42563Y22794D1*
X42497Y22896D1*
X42435Y22802D1*
X42348Y22713D1*
X42242Y22646D1*
X42125Y22604D1*
X42001Y22589D1*
X41877Y22602D1*
X41759Y22642D1*
X41652Y22707D1*
X41563Y22794D1*
X41497Y22896D1*
X41435Y22802D1*
X41348Y22713D1*
X41242Y22646D1*
X41125Y22604D1*
X41001Y22589D1*
X40877Y22602D1*
X40759Y22642D1*
X40652Y22707D1*
X40563Y22794D1*
X40497Y22896D1*
X40329Y23600D2*
X40423Y23513D1*
X40497Y23398D1*
X40551Y23489D1*
X40653Y23590D1*
X40654Y24158D1*
X40325Y24484D1*
X40326Y23605D1*
X41315Y23608D2*
X41423Y23513D1*
X41497Y23398D1*
X41551Y23489D1*
X41637Y23580D1*
X41679Y23607D1*
X41678Y23915D1*
X41313Y24283D1*
X41314Y23608D1*
X55416Y8313D2*
X55375Y8195D1*
X55309Y8089D1*
X55222Y8001D1*
X55120Y7936D1*
X55206Y7885D1*
X55297Y7800D1*
X55367Y7697D1*
X55412Y7580D1*
X55430Y7457D1*
X55421Y7338D1*
X55386Y7218D1*
X55324Y7109D1*
X55241Y7017D1*
X55139Y6945D1*
X55123Y6937D1*
X55206Y6885D1*
X55297Y6800D1*
X55367Y6697D1*
X55412Y6580D1*
X55430Y6437D1*
X55416Y6313D1*
X55375Y6195D1*
X55309Y6089D1*
X55222Y6001D1*
X55116Y5934D1*
X54999Y5892D1*
X54875Y5877D1*
X54751Y5890D1*
X54633Y5930D1*
X54526Y5995D1*
X54431Y6091D1*
X54430Y5877D1*
X53310D1*
Y6170D1*
X52612Y6166D1*
X52611Y6102D1*
X52581Y5983D1*
X52496Y5892D1*
X52362Y5853D1*
X50433D1*
X50313Y5884D1*
X50223Y5969D1*
X50184Y6102D1*
Y11693D1*
X50215Y11813D1*
X50299Y11903D1*
X50433Y11942D1*
X52362D1*
X52482Y11911D1*
X52572Y11827D1*
X52611Y11693D1*
Y11502D1*
X52674Y11454D1*
X53395Y10733D1*
X53425Y10777D1*
X53511Y10867D1*
X53619Y10937D1*
X53526Y10995D1*
X53437Y11082D1*
X53369Y11186D1*
X53326Y11303D1*
X53310Y11427D1*
X53322Y11551D1*
X53361Y11670D1*
X53425Y11777D1*
X53511Y11867D1*
X53619Y11937D1*
X53526Y11995D1*
X53437Y12082D1*
X53369Y12186D1*
X53326Y12303D1*
X53310Y12427D1*
X53322Y12551D1*
X53361Y12670D1*
X53425Y12777D1*
X53511Y12867D1*
X53619Y12937D1*
X53526Y12995D1*
X53437Y13082D1*
X53369Y13186D1*
X53326Y13303D1*
X53310Y13427D1*
X53322Y13551D1*
X53361Y13670D1*
X53425Y13777D1*
X53511Y13867D1*
X53617Y13937D1*
X53507Y14010D1*
X53422Y14101D1*
X53358Y14209D1*
X53321Y14328D1*
X53310Y14452D1*
X53327Y14576D1*
X53371Y14692D1*
X53440Y14796D1*
X53530Y14883D1*
X53617Y14937D1*
X53526Y14995D1*
X53437Y15082D1*
X53369Y15186D1*
X53326Y15303D1*
X53310Y15427D1*
X53322Y15551D1*
X53361Y15670D1*
X53425Y15777D1*
X53511Y15867D1*
X53619Y15937D1*
X53526Y15995D1*
X53437Y16082D1*
X53369Y16186D1*
X53326Y16303D1*
X53310Y16427D1*
X53322Y16551D1*
X53340Y16607D1*
X53219Y16672D1*
X52769Y17118D1*
Y16929D1*
X52738Y16809D1*
X52653Y16719D1*
X52520Y16680D1*
X50709D1*
X50589Y16711D1*
X50499Y16795D1*
X50460Y16929D1*
Y20315D1*
X50490Y20435D1*
X50575Y20525D1*
X50709Y20564D1*
X52520D1*
X52640Y20533D1*
X52730Y20449D1*
X52769Y20315D1*
Y20209D1*
X53465Y20212D1*
X53587Y20188D1*
X53698Y20115D1*
X53817Y19996D1*
X53980Y19986D1*
X54098Y19949D1*
X54206Y19885D1*
X54297Y19800D1*
X54371Y19686D1*
X54425Y19777D1*
X54511Y19867D1*
X54615Y19936D1*
X54732Y19980D1*
X54855Y19997D1*
X54980Y19986D1*
X55098Y19949D1*
X55206Y19885D1*
X55297Y19800D1*
X55367Y19697D1*
X55412Y19580D1*
X55430Y19437D1*
X55416Y19313D1*
X55375Y19195D1*
X55309Y19089D1*
X55222Y19001D1*
X55120Y18936D1*
X55206Y18885D1*
X55297Y18800D1*
X55367Y18697D1*
X55412Y18580D1*
X55430Y18437D1*
X55416Y18313D1*
X55375Y18195D1*
X55309Y18089D1*
X55222Y18001D1*
X55120Y17936D1*
X55206Y17885D1*
X55297Y17800D1*
X55367Y17697D1*
X55412Y17580D1*
X55430Y17437D1*
X55416Y17313D1*
X55375Y17195D1*
X55309Y17089D1*
X55222Y17001D1*
X55120Y16936D1*
X55206Y16885D1*
X55297Y16800D1*
X55367Y16697D1*
X55412Y16580D1*
X55430Y16437D1*
X55416Y16313D1*
X55375Y16195D1*
X55309Y16089D1*
X55222Y16001D1*
X55120Y15936D1*
X55206Y15885D1*
X55297Y15800D1*
X55367Y15697D1*
X55412Y15580D1*
X55430Y15437D1*
X55416Y15313D1*
X55375Y15195D1*
X55309Y15089D1*
X55222Y15001D1*
X55120Y14936D1*
X55206Y14885D1*
X55297Y14800D1*
X55367Y14697D1*
X55412Y14580D1*
X55430Y14457D1*
X55421Y14338D1*
X55386Y14218D1*
X55324Y14109D1*
X55241Y14017D1*
X55139Y13945D1*
X55123Y13937D1*
X55226Y13870D1*
X55313Y13781D1*
X55378Y13674D1*
X55418Y13556D1*
X55430Y13437D1*
X55416Y13313D1*
X55375Y13195D1*
X55309Y13089D1*
X55222Y13001D1*
X55123Y12937D1*
X55206Y12885D1*
X55297Y12800D1*
X55367Y12697D1*
X55412Y12580D1*
X55430Y12437D1*
X55416Y12313D1*
X55375Y12195D1*
X55309Y12089D1*
X55222Y12001D1*
X55120Y11936D1*
X55206Y11885D1*
X55297Y11800D1*
X55367Y11697D1*
X55412Y11580D1*
X55430Y11437D1*
X55416Y11313D1*
X55375Y11195D1*
X55309Y11089D1*
X55222Y11001D1*
X55120Y10936D1*
X55206Y10885D1*
X55297Y10800D1*
X55367Y10697D1*
X55412Y10580D1*
X55430Y10437D1*
X55416Y10313D1*
X55375Y10195D1*
X55309Y10089D1*
X55222Y10001D1*
X55120Y9936D1*
X55206Y9885D1*
X55297Y9800D1*
X55367Y9697D1*
X55412Y9580D1*
X55430Y9437D1*
X55416Y9313D1*
X55375Y9195D1*
X55309Y9089D1*
X55222Y9001D1*
X55120Y8936D1*
X55206Y8885D1*
X55297Y8800D1*
X55367Y8697D1*
X55412Y8580D1*
X55430Y8437D1*
X55416Y8313D1*
X54616Y7940D2*
X54526Y7995D1*
X54437Y8082D1*
X54371Y8183D1*
X54309Y8089D1*
X54222Y8001D1*
X54120Y7936D1*
X54206Y7885D1*
X54297Y7800D1*
X54371Y7686D1*
X54410Y7757D1*
X54492Y7850D1*
X54593Y7924D1*
X54617Y7937D1*
X53616Y7940D2*
X53526Y7995D1*
X53437Y8082D1*
X53369Y8186D1*
X53328Y8292D1*
X52613Y9008D1*
X52611Y8353D1*
X52674Y8304D1*
X53213Y7766D1*
X53415Y7767D1*
X53511Y7867D1*
X53619Y7937D1*
X54371Y9687D2*
X54425Y9777D1*
X54511Y9867D1*
X54619Y9937D1*
X54526Y9995D1*
X54437Y10082D1*
X54371Y10183D1*
X54309Y10089D1*
X54222Y10001D1*
X54120Y9936D1*
X54206Y9885D1*
X54297Y9800D1*
X54371Y9686D1*
Y10687D2*
X54425Y10777D1*
X54511Y10867D1*
X54619Y10937D1*
X54526Y10995D1*
X54437Y11082D1*
X54371Y11183D1*
X54309Y11089D1*
X54222Y11001D1*
X54120Y10936D1*
X54206Y10885D1*
X54297Y10800D1*
X54371Y10686D1*
Y11687D2*
X54425Y11777D1*
X54511Y11867D1*
X54619Y11937D1*
X54526Y11995D1*
X54437Y12082D1*
X54371Y12183D1*
X54309Y12089D1*
X54222Y12001D1*
X54120Y11936D1*
X54206Y11885D1*
X54297Y11800D1*
X54371Y11686D1*
Y12687D2*
X54425Y12777D1*
X54511Y12867D1*
X54619Y12937D1*
X54526Y12995D1*
X54437Y13082D1*
X54370Y13184D1*
X54309Y13089D1*
X54222Y13001D1*
X54123Y12937D1*
X54206Y12885D1*
X54297Y12800D1*
X54371Y12686D1*
X54370Y13689D2*
X54440Y13796D1*
X54530Y13883D1*
X54617Y13937D1*
X54507Y14010D1*
X54422Y14101D1*
X54370Y14184D1*
X54309Y14089D1*
X54222Y14001D1*
X54123Y13937D1*
X54226Y13870D1*
X54313Y13781D1*
X54370Y13689D1*
Y14689D2*
X54440Y14796D1*
X54530Y14883D1*
X54617Y14937D1*
X54526Y14995D1*
X54437Y15082D1*
X54371Y15183D1*
X54309Y15089D1*
X54222Y15001D1*
X54120Y14936D1*
X54206Y14885D1*
X54297Y14800D1*
X54367Y14697D1*
X54370Y14689D1*
X54371Y15687D2*
X54425Y15777D1*
X54511Y15867D1*
X54619Y15937D1*
X54526Y15995D1*
X54437Y16082D1*
X54371Y16183D1*
X54309Y16089D1*
X54222Y16001D1*
X54120Y15936D1*
X54206Y15885D1*
X54297Y15800D1*
X54371Y15686D1*
Y17687D2*
X54425Y17777D1*
X54511Y17867D1*
X54619Y17937D1*
X54526Y17995D1*
X54437Y18082D1*
X54371Y18183D1*
X54309Y18089D1*
X54222Y18001D1*
X54120Y17936D1*
X54206Y17885D1*
X54297Y17800D1*
X54371Y17686D1*
X53313Y18462D2*
X53322Y18551D1*
X53371Y18687D1*
X53327Y18726D1*
X52765Y18725D1*
X52769Y18639D1*
X53000Y18637D1*
X53122Y18614D1*
X53233Y18540D1*
X53313Y18460D1*
X53315Y19385D2*
X53310Y19427D1*
X53323Y19555D1*
X52765Y19552D1*
X52769Y19381D1*
X53029Y19385D1*
X53314D1*
X7577Y11682D2*
X9163D1*
Y11585D1*
X9277Y11649D1*
X9398Y11679D1*
X9522Y11676D1*
X9642Y11640D1*
X9747Y11573D1*
X9830Y11481D1*
X9886Y11369D1*
X9911Y11220D1*
X9894Y11097D1*
X9845Y10983D1*
X9767Y10885D1*
X9665Y10813D1*
X9548Y10770D1*
X9467Y10763D1*
X9606D1*
X9728Y10740D1*
X9840Y10666D1*
X10533Y9973D1*
X12519Y9976D1*
X16952D1*
X18132Y11158D1*
X18135Y11654D1*
X18158Y11776D1*
X18231Y11887D1*
X19097Y12753D1*
X19200Y12823D1*
X19331Y12850D1*
X21104Y12847D1*
X21311Y12818D1*
X21511Y12761D1*
X21703Y12678D1*
X21881Y12570D1*
X22043Y12438D1*
X22185Y12286D1*
X22306Y12116D1*
X22403Y11932D1*
X22474Y11736D1*
X22518Y11532D1*
X22535Y11280D1*
X22563Y11391D1*
X22624Y11499D1*
X22712Y11588D1*
X22820Y11649D1*
X22941Y11679D1*
X23066Y11676D1*
X23201Y11630D1*
X23200Y11682D1*
X24911D1*
Y10766D1*
X25555Y10763D1*
X29799D1*
X29959Y10772D1*
X30114Y10798D1*
X30265Y10842D1*
X30411Y10902D1*
X30548Y10978D1*
X30676Y11069D1*
X30794Y11173D1*
X30899Y11291D1*
X30990Y11419D1*
X31066Y11556D1*
X31126Y11701D1*
X31170Y11852D1*
X31196Y12007D1*
X31206Y12290D1*
Y14116D1*
X31221Y14303D1*
X31261Y14486D1*
X31323Y14662D1*
X31409Y14829D1*
X31515Y14983D1*
X31641Y15122D1*
X31783Y15243D1*
X31941Y15345D1*
X32110Y15425D1*
X32288Y15483D1*
X32472Y15517D1*
X32763Y15527D1*
X33642D1*
X33735Y15627D1*
X33839Y15696D1*
X33956Y15740D1*
X34080Y15757D1*
X34204Y15746D1*
X34323Y15708D1*
X34430Y15645D1*
X34521Y15560D1*
X34545Y15524D1*
X35844Y15527D1*
X36359Y15526D1*
X36593Y15510D1*
X36823Y15465D1*
X37046Y15393D1*
X37259Y15294D1*
X37459Y15171D1*
X37642Y15024D1*
X37806Y14857D1*
X37949Y14670D1*
X38069Y14468D1*
X38163Y14253D1*
X38230Y14028D1*
X38270Y13797D1*
X38283Y13458D1*
X38287Y11091D1*
X38313Y10996D1*
X38362Y10910D1*
X38432Y10841D1*
X38518Y10792D1*
X38613Y10767D1*
X38674Y10763D1*
X38751Y10783D1*
X38639Y10838D1*
X38546Y10921D1*
X38479Y11026D1*
X38442Y11145D1*
X38438Y11270D1*
X38468Y11391D1*
X38530Y11499D1*
X38617Y11588D1*
X38726Y11649D1*
X38843Y11678D1*
X38845Y11811D1*
X38876Y11931D1*
X38961Y12021D1*
X39094Y12060D1*
X40984D1*
X41104Y12029D1*
X41194Y11945D1*
X41233Y11811D1*
Y5197D1*
X41203Y5077D1*
X41118Y4987D1*
X40984Y4948D1*
X39094D1*
X38975Y4979D1*
X38884Y5063D1*
X38845Y5197D1*
Y5248D1*
X38794D1*
X38672Y5271D1*
X38560Y5326D1*
X38467Y5409D1*
X38400Y5514D1*
X38363Y5633D1*
X38357Y5959D1*
Y6496D1*
X38374Y6620D1*
X38423Y6734D1*
X38501Y6831D1*
X38602Y6904D1*
X38719Y6947D1*
X38847Y6956D1*
X38772Y6955D1*
X38814Y7101D1*
X38548Y7367D1*
X38476Y7468D1*
X38439Y7591D1*
X38436Y7735D1*
X38400Y7798D1*
X38363Y7917D1*
X38357Y8242D1*
Y8858D1*
X38374Y8982D1*
X38423Y9096D1*
X38501Y9193D1*
X38602Y9266D1*
X38751Y9325D1*
X38638Y9335D1*
X38404Y9384D1*
X38179Y9464D1*
X37966Y9572D1*
X37769Y9707D1*
X37592Y9866D1*
X37436Y10048D1*
X37306Y10248D1*
X37203Y10463D1*
X37129Y10690D1*
X37085Y10925D1*
X37072Y11267D1*
X37066Y13219D1*
X37047Y13335D1*
X36986Y13486D1*
X36923Y13586D1*
X36809Y13702D1*
X36712Y13770D1*
X36563Y13834D1*
X36448Y13860D1*
X36104Y13867D1*
X34546D1*
X34446Y13761D1*
X34344Y13696D1*
X34430Y13645D1*
X34521Y13560D1*
X34591Y13456D1*
X34636Y13340D1*
X34655Y13197D1*
X34641Y13073D1*
X34600Y12955D1*
X34534Y12849D1*
X34446Y12761D1*
X34341Y12694D1*
X34223Y12652D1*
X34099Y12637D1*
X33975Y12649D1*
X33857Y12689D1*
X33751Y12754D1*
X33661Y12842D1*
X33594Y12946D1*
X33550Y13063D1*
X33534Y13187D1*
X33546Y13311D1*
X33585Y13430D1*
X33649Y13537D1*
X33735Y13627D1*
X33843Y13697D1*
X33751Y13754D1*
X33647Y13864D1*
X32670Y13867D1*
X32598Y13858D1*
X32516Y13818D1*
X32467Y13770D1*
X32427Y13689D1*
X32416Y13609D1*
X32411Y12028D1*
X32383Y11732D1*
X32334Y11488D1*
X32273Y11273D1*
X32194Y11063D1*
X32100Y10860D1*
X31990Y10666D1*
X31864Y10480D1*
X31725Y10305D1*
X31573Y10141D1*
X31408Y9990D1*
X31231Y9853D1*
X31045Y9729D1*
X30849Y9621D1*
X30645Y9528D1*
X30435Y9451D1*
X30219Y9392D1*
X30000Y9349D1*
X29778Y9324D1*
X29442Y9316D1*
X24907D1*
Y9184D1*
X24911Y9070D1*
X24907Y8396D1*
X24911Y8283D1*
X24907Y7609D1*
X24911Y7495D1*
X24907Y6822D1*
X24911Y6708D1*
Y6173D1*
X24950Y6170D1*
Y5247D1*
X23239D1*
Y5329D1*
X23012Y5326D1*
X22972Y5301D1*
X22855Y5258D1*
X22731Y5248D1*
X22609Y5271D1*
X22497Y5326D1*
X22404Y5409D1*
X22337Y5514D1*
X22300Y5633D1*
X22294Y5959D1*
Y6496D1*
X22311Y6620D1*
X22360Y6734D1*
X22438Y6831D1*
X22539Y6904D1*
X22656Y6947D1*
X22781Y6957D1*
X22906Y6932D1*
X22900Y6963D1*
X22751Y7101D1*
X22564Y7288D1*
X22491Y7389D1*
X22455Y7512D1*
X22452Y7641D1*
X22376Y7758D1*
X22340Y7877D1*
X22334Y8203D1*
Y8858D1*
X22350Y8982D1*
X22400Y9096D1*
X22478Y9193D1*
X22579Y9266D1*
X22700Y9309D1*
X22717Y9323D1*
X22532Y9350D1*
X22352Y9402D1*
X22181Y9476D1*
X22020Y9572D1*
X21874Y9689D1*
X21744Y9823D1*
X21632Y9974D1*
X21564Y10091D1*
X21525Y10022D1*
X21579Y9912D1*
X21604Y9764D1*
X21587Y9640D1*
X21537Y9526D1*
X21459Y9429D1*
X21358Y9356D1*
X21241Y9313D1*
X21117Y9303D1*
X21013Y9320D1*
Y6034D1*
X19302D1*
Y10107D1*
Y10413D1*
X18139Y9248D1*
X17556Y8664D1*
X17453Y8595D1*
X17323Y8568D1*
X9724D1*
X9602Y8591D1*
X9491Y8664D1*
X9162Y8993D1*
X9159Y8396D1*
X9163Y8283D1*
X9159Y7609D1*
X9163Y7495D1*
X9159Y6822D1*
X9163Y6708D1*
X9159Y6034D1*
X9163Y5920D1*
Y5247D1*
X7452D1*
Y5290D1*
X7264Y5286D1*
X7224Y5261D1*
X7107Y5218D1*
X6983Y5208D1*
X6861Y5232D1*
X6749Y5287D1*
X6656Y5370D1*
X6589Y5475D1*
X6552Y5594D1*
X6546Y5919D1*
Y6496D1*
X6563Y6620D1*
X6612Y6734D1*
X6690Y6831D1*
X6791Y6904D1*
X6908Y6947D1*
X7033Y6957D1*
X7158Y6932D1*
X7152Y6963D1*
X7003Y7101D1*
X6737Y7367D1*
X6664Y7468D1*
X6628Y7591D1*
X6625Y7696D1*
X6589Y7758D1*
X6552Y7877D1*
X6546Y8203D1*
Y8858D1*
X6563Y8982D1*
X6612Y9096D1*
X6690Y9193D1*
X6791Y9266D1*
X6908Y9309D1*
X7033Y9319D1*
X7158Y9294D1*
X7204Y9276D1*
X7383Y9241D1*
X7449D1*
X7456Y9320D1*
X7452Y9434D1*
X7456Y10107D1*
X7452Y10221D1*
X7456Y10895D1*
X7452Y11009D1*
Y11682D1*
X7577D1*
X9163Y10102D2*
X9159Y9971D1*
X9163Y9916D1*
X9210Y9879D1*
X9859Y9230D1*
X12474Y9228D1*
X17189D1*
X18728Y10769D1*
X18701Y10795D1*
X17320Y9412D1*
X17217Y9343D1*
X17087Y9316D1*
X10394D1*
X10272Y9339D1*
X10160Y9412D1*
X9467Y10106D1*
X9165Y10103D1*
X17411Y25446D2*
Y23928D1*
X16485D1*
Y21324D1*
X16599Y21328D1*
X17273D1*
Y19617D1*
X15562Y19621D1*
X15573Y19617D1*
X14774D1*
Y21328D1*
X15566D1*
X15562Y21597D1*
X15557Y23928D1*
X14637D1*
Y25446D1*
X14469D1*
X14363Y25507D1*
X14344Y25571D1*
Y26391D1*
X4279D1*
Y4279D1*
X55997D1*
Y21706D1*
X50460D1*
Y20413D1*
X50398Y20308D1*
X50335Y20288D1*
X44075D1*
X43969Y20350D1*
X43950Y20413D1*
Y26391D1*
X37782D1*
Y25571D1*
X37721Y25465D1*
X37657Y25446D1*
X37490D1*
X37489Y23928D1*
X36721D1*
X36912Y23674D1*
X37143Y23429D1*
X37401Y23213D1*
X37683Y23029D1*
X37984Y22879D1*
X38301Y22764D1*
X38629Y22687D1*
X38899Y22656D1*
X40543Y22528D1*
X40798Y22466D1*
X41006Y22384D1*
X41201Y22275D1*
X41380Y22141D1*
X41540Y21985D1*
X41678Y21809D1*
X41792Y21617D1*
X41859Y21468D1*
X41899Y21324D1*
X42013Y21328D1*
X42686D1*
Y19617D1*
X42651D1*
Y19528D1*
X42620Y19408D1*
X42535Y19317D1*
X42402Y19279D1*
X40512D1*
X40392Y19309D1*
X40302Y19394D1*
X40263Y19528D1*
X40261Y19617D1*
X40188D1*
Y21328D1*
X40884D1*
X40787Y21431D1*
X40685Y21508D1*
X40524Y21583D1*
X40401Y21615D1*
X38909Y21729D1*
X38550Y21766D1*
X38237Y21826D1*
X37903Y21923D1*
X37605Y22036D1*
X37294Y22190D1*
X37019Y22354D1*
X36740Y22559D1*
X36498Y22768D1*
X36258Y23019D1*
X36057Y23267D1*
X35864Y23556D1*
X35763Y23737D1*
X35717Y23866D1*
X35701Y23928D1*
X34715D1*
Y25446D1*
X34547D1*
X34442Y25507D1*
X34422Y25571D1*
Y26391D1*
X23767D1*
Y25571D1*
X23706Y25465D1*
X23642Y25446D1*
X23474D1*
Y23928D1*
X22510D1*
X22509Y23477D1*
X22518Y23339D1*
X22543Y23216D1*
X22583Y23098D1*
X22638Y22986D1*
X22708Y22882D1*
X22790Y22789D1*
X22884Y22706D1*
X22988Y22637D1*
X23100Y22582D1*
X23219Y22542D1*
X23341Y22518D1*
X23590Y22509D1*
X25291Y22504D1*
X25456Y22473D1*
X25589Y22424D1*
X25735Y22341D1*
X25849Y22250D1*
X25961Y22126D1*
X26037Y22005D1*
X26103Y21851D1*
X26138Y21709D1*
X26151Y21555D1*
Y21324D1*
X26265Y21328D1*
X26938D1*
Y19617D1*
X25227Y19621D1*
X25238Y19617D1*
X24440D1*
Y21328D1*
X25231D1*
X25227Y21542D1*
X25179Y21586D1*
X23434D1*
X23189Y21606D1*
X22949Y21658D1*
X22718Y21741D1*
X22499Y21853D1*
X22297Y21993D1*
X22115Y22158D1*
X21956Y22345D1*
X21823Y22552D1*
X21718Y22774D1*
X21643Y23008D1*
X21599Y23249D1*
X21585Y23590D1*
Y23929D1*
X20700Y23928D1*
Y25446D1*
X20531D1*
X20426Y25507D1*
X20406Y25571D1*
Y26391D1*
X20164D1*
Y25768D1*
X20103Y25662D1*
X20039Y25643D1*
X19614D1*
X19615Y24479D1*
X18495D1*
Y25642D1*
X18071Y25643D1*
X17965Y25704D1*
X17946Y25768D1*
Y26391D1*
X17704D1*
Y25571D1*
X17643Y25465D1*
X17579Y25446D1*
X17411D1*
X7555Y17981D2*
X9241D1*
Y15483D1*
X7530D1*
Y17981D1*
X7555D1*
X21013Y19551D2*
Y19464D1*
X22169D1*
X22227Y19527D1*
X22201Y19553D1*
X21016Y19552D1*
X21013Y11678D2*
Y11233D1*
X21091Y11246D1*
X21215Y11243D1*
X21335Y11207D1*
X21404Y11163D1*
X21399Y11383D1*
X21376Y11469D1*
X21331Y11545D1*
X21269Y11608D1*
X21192Y11652D1*
X21107Y11675D1*
X21050Y11678D1*
X24911Y10102D2*
Y9979D1*
X25555Y9976D1*
X29679Y9980D1*
X29911Y10003D1*
X29891Y10108D1*
X29553Y10103D1*
X24909D1*
X23200Y9975D2*
Y10100D1*
X22555Y10103D1*
X22426Y10110D1*
X22393Y10116D1*
X22451Y10078D1*
X22461Y10106D1*
X22434Y10109D1*
X22448Y10080D1*
X22610Y10011D1*
X22736Y9982D1*
X23085Y9976D1*
X35175Y20344D2*
X36761D1*
Y20215D1*
X37047Y20212D1*
X37169Y20188D1*
X37281Y20115D1*
X37405Y19991D1*
X37475Y19983D1*
X37594Y19947D1*
X37700Y19880D1*
X37783Y19788D1*
X37839Y19676D1*
X37863Y19528D1*
X37847Y19404D1*
X37797Y19290D1*
X37719Y19192D1*
X37618Y19120D1*
X37501Y19077D1*
X37389Y19067D1*
X37374Y18971D1*
X37325Y18857D1*
X37247Y18759D1*
X37187Y18716D1*
X37267Y18660D1*
X37350Y18567D1*
X37406Y18456D1*
X37430Y18307D1*
X37413Y18184D1*
X37364Y18069D1*
X37286Y17972D1*
X37188Y17901D1*
X37227Y17872D1*
X37311Y17780D1*
X37366Y17668D1*
X37391Y17520D1*
X37374Y17396D1*
X37325Y17282D1*
X37247Y17185D1*
X37146Y17112D1*
X37029Y17069D1*
X36947Y17062D1*
X38367Y15639D1*
X38305Y15813D1*
X38262Y16026D1*
X38253Y16306D1*
X38246Y18874D1*
X38208Y19157D1*
X38154Y19385D1*
X38056Y19653D1*
X37956Y19864D1*
X37803Y20105D1*
X37660Y20290D1*
X37459Y20493D1*
X37280Y20643D1*
X37041Y20799D1*
X36834Y20908D1*
X36567Y21009D1*
X36342Y21071D1*
X36059Y21114D1*
X35817Y21127D1*
X33733Y21130D1*
X33422Y21152D1*
X33083Y21205D1*
X32780Y21276D1*
X32454Y21384D1*
X32167Y21503D1*
X31862Y21662D1*
X31598Y21826D1*
X31323Y22033D1*
X31089Y22237D1*
X30851Y22485D1*
X30653Y22725D1*
X30459Y23008D1*
X30302Y23277D1*
X30156Y23588D1*
X30045Y23879D1*
X29951Y24209D1*
X29888Y24514D1*
X29861Y24710D1*
X29801Y24759D1*
X29719Y24853D1*
X29662Y24964D1*
X29631Y25085D1*
X29628Y25209D1*
X29654Y25331D1*
X29708Y25444D1*
X29786Y25541D1*
X29884Y25618D1*
X29997Y25671D1*
X30119Y25696D1*
X30244Y25692D1*
X30364Y25660D1*
X30474Y25602D1*
X30565Y25522D1*
X30683Y25618D1*
X30797Y25671D1*
X30919Y25696D1*
X31043Y25692D1*
X31164Y25660D1*
X31274Y25602D1*
X31353Y25532D1*
X31459Y25618D1*
X31572Y25671D1*
X31694Y25696D1*
X31819Y25692D1*
X31939Y25660D1*
X32049Y25602D1*
X32134Y25527D1*
X32225Y25605D1*
X32336Y25662D1*
X32457Y25693D1*
X32581Y25695D1*
X32703Y25669D1*
X32816Y25615D1*
X32913Y25537D1*
X32990Y25439D1*
X33042Y25326D1*
X33067Y25204D1*
X33064Y25083D1*
X33032Y24962D1*
X32974Y24852D1*
X32892Y24758D1*
X32791Y24685D1*
X32676Y24637D1*
X32553Y24618D1*
X32428Y24626D1*
X32309Y24664D1*
X32202Y24727D1*
X32135Y24787D1*
X32066Y24726D1*
X31959Y24663D1*
X31840Y24626D1*
X31715Y24618D1*
X31592Y24638D1*
X31477Y24686D1*
X31376Y24759D1*
X31353Y24786D1*
X31274Y24716D1*
X31293Y24393D1*
X31331Y24147D1*
X31407Y23869D1*
X31494Y23636D1*
X31625Y23379D1*
X31757Y23169D1*
X31938Y22944D1*
X32110Y22765D1*
X32333Y22582D1*
X32538Y22442D1*
X32794Y22308D1*
X33023Y22212D1*
X33301Y22133D1*
X33545Y22086D1*
X33832Y22065D1*
X35398Y22062D1*
X36036Y22055D1*
X36276Y22032D1*
X36615Y21967D1*
X36900Y21885D1*
X37123Y21802D1*
X37433Y21652D1*
X37688Y21499D1*
X37882Y21361D1*
X38142Y21135D1*
X38349Y20922D1*
X38500Y20738D1*
X38694Y20453D1*
X38838Y20193D1*
X38936Y19977D1*
X39049Y19651D1*
X39121Y19363D1*
X39161Y19129D1*
X39186Y18785D1*
X39188Y18205D1*
X39976Y18202D1*
X40827D1*
X40947Y18171D1*
X41037Y18086D1*
X41076Y17953D1*
Y14910D1*
X42343D1*
X42572Y14896D1*
X42799Y14858D1*
X43020Y14797D1*
X43233Y14712D1*
X43437Y14606D1*
X43628Y14479D1*
X43805Y14333D1*
X43966Y14169D1*
X44109Y13990D1*
X44233Y13796D1*
X44335Y13590D1*
X44415Y13375D1*
X44473Y13153D1*
X44506Y12926D1*
X44517Y12593D1*
X44527Y8651D1*
X44690Y8634D1*
X44805Y8585D1*
X44902Y8507D1*
X44975Y8405D1*
X45018Y8289D1*
X45028Y8164D1*
X45005Y8042D1*
X44949Y7930D1*
X44866Y7837D1*
X44761Y7770D1*
X44642Y7733D1*
X44317Y7727D1*
X43780D1*
X43656Y7744D1*
X43542Y7793D1*
X43444Y7871D1*
X43372Y7972D1*
X43329Y8089D1*
X43318Y8214D1*
X43342Y8336D1*
X43397Y8448D1*
X43480Y8541D1*
X43585Y8608D1*
X43732Y8648D1*
X43761Y8700D1*
X43745Y12821D1*
X43719Y13015D1*
X43680Y13159D1*
X43626Y13299D1*
X43558Y13432D1*
X43477Y13557D1*
X43382Y13673D1*
X43277Y13779D1*
X43160Y13873D1*
X43035Y13954D1*
X42902Y14021D1*
X42762Y14075D1*
X42618Y14113D1*
X42470Y14136D1*
X42073Y14145D1*
X38937D1*
X38814Y14165D1*
X38702Y14226D1*
X38489Y14433D1*
X36376Y16547D1*
X32783Y16546D1*
X32438Y16567D1*
X32125Y16614D1*
X31790Y16701D1*
X31492Y16808D1*
X31181Y16959D1*
X30910Y17122D1*
X30634Y17331D1*
X30400Y17544D1*
X30170Y17802D1*
X29982Y18057D1*
X29807Y18355D1*
X29672Y18641D1*
X29559Y18968D1*
X29483Y19275D1*
X29435Y19618D1*
X29420Y19921D1*
Y20441D1*
X29286Y20461D1*
X29171Y20510D1*
X29074Y20588D1*
X29002Y20689D1*
X28959Y20806D1*
X28948Y20930D1*
X28972Y21053D1*
X29027Y21164D1*
X29110Y21257D1*
X29215Y21324D1*
X29334Y21361D1*
X29659Y21367D1*
X30197D1*
X30320Y21350D1*
X30435Y21301D1*
X30532Y21223D1*
X30605Y21122D1*
X30648Y21005D1*
X30658Y20881D1*
X30635Y20758D1*
X30579Y20647D1*
X30496Y20554D1*
X30391Y20487D1*
X30272Y20450D1*
X30185Y20444D1*
X30192Y19749D1*
X30227Y19470D1*
X30276Y19245D1*
X30364Y18977D1*
X30456Y18766D1*
X30595Y18521D1*
X30726Y18332D1*
X30911Y18119D1*
X31076Y17959D1*
X31299Y17786D1*
X31492Y17661D1*
X31744Y17535D1*
X31958Y17450D1*
X32230Y17376D1*
X32456Y17334D1*
X32737Y17314D1*
X35049Y17312D1*
X35054Y17981D1*
X35050Y18095D1*
X35054Y18769D1*
X35050Y18883D1*
X35054Y19556D1*
X35050Y19670D1*
Y20344D1*
X35175D1*
X36273Y11682D2*
X36761D1*
X36757Y10759D1*
X36761Y10645D1*
X36757Y9971D1*
X36761Y9857D1*
X36757Y9184D1*
X36761Y9195D1*
Y6034D1*
X35050D1*
Y9367D1*
X34975Y9424D1*
X34660Y9739D1*
X34591Y9842D1*
X34568Y9961D1*
Y11890D1*
X34598Y12023D1*
X34659Y12175D1*
X34689Y12296D1*
X34750Y12405D1*
X34838Y12493D1*
X34946Y12555D1*
X35048Y12580D1*
X35083Y12729D1*
X35144Y12838D1*
X35232Y12926D1*
X35340Y12988D1*
X35488Y13017D1*
X35516Y13123D1*
X35577Y13232D1*
X35665Y13320D1*
X35773Y13381D1*
X35894Y13412D1*
X36019Y13409D1*
X36138Y13372D1*
X36243Y13305D1*
X36326Y13213D1*
X36382Y13101D1*
X36407Y12953D1*
X36390Y12829D1*
X36341Y12715D1*
X36275Y12633D1*
Y11683D1*
X10917Y10664D2*
X10868Y10549D1*
X10790Y10452D1*
X10689Y10380D1*
X10572Y10336D1*
X10448Y10326D1*
X10325Y10350D1*
X10214Y10405D1*
X10121Y10488D1*
X10054Y10593D1*
X10017Y10712D1*
X10013Y10837D1*
X10043Y10958D1*
X10104Y11066D1*
X10192Y11154D1*
X10301Y11216D1*
X10421Y11246D1*
X10546Y11243D1*
X10665Y11207D1*
X10770Y11140D1*
X10854Y11048D1*
X10910Y10936D1*
X10934Y10787D1*
X10917Y10664D1*
X28502Y25123D2*
X28481Y25000D1*
X28434Y24884D1*
X28361Y24783D1*
X28267Y24701D1*
X28156Y24643D1*
X28035Y24612D1*
X27911Y24610D1*
X27789Y24636D1*
X27676Y24689D1*
X27578Y24766D1*
X27568Y24777D1*
X27499Y24716D1*
X27392Y24653D1*
X27273Y24616D1*
X27148Y24608D1*
X27025Y24628D1*
X26910Y24676D1*
X26809Y24749D1*
X26786Y24776D1*
X26724Y24716D1*
X26617Y24653D1*
X26497Y24616D1*
X26373Y24608D1*
X26250Y24628D1*
X26135Y24676D1*
X26034Y24749D1*
X26001Y24787D1*
X25925Y24716D1*
X25817Y24653D1*
X25698Y24616D1*
X25573Y24608D1*
X25450Y24628D1*
X25335Y24676D1*
X25234Y24749D1*
X25153Y24843D1*
X25095Y24954D1*
X25064Y25075D1*
X25061Y25199D1*
X25088Y25321D1*
X25141Y25434D1*
X25219Y25532D1*
X25317Y25609D1*
X25430Y25661D1*
X25552Y25686D1*
X25677Y25683D1*
X25798Y25651D1*
X25908Y25592D1*
X25998Y25512D1*
X26117Y25609D1*
X26230Y25661D1*
X26352Y25686D1*
X26477Y25683D1*
X26597Y25651D1*
X26707Y25592D1*
X26786Y25522D1*
X26892Y25609D1*
X27005Y25661D1*
X27127Y25686D1*
X27252Y25683D1*
X27372Y25651D1*
X27482Y25592D1*
X27567Y25517D1*
X27658Y25595D1*
X27769Y25653D1*
X27890Y25683D1*
X28014Y25686D1*
X28136Y25659D1*
X28249Y25605D1*
X28346Y25527D1*
X28423Y25429D1*
X28475Y25316D1*
X28500Y25194D1*
X28502Y25123D1*
X34544Y14866D2*
X34446Y14761D1*
X34344Y14696D1*
X34430Y14645D1*
X34521Y14560D1*
X34545Y14524D1*
X35844Y14527D1*
X36467Y14520D1*
X36555Y14511D1*
X36731Y14474D1*
X36901Y14413D1*
X37061Y14331D1*
X37209Y14228D1*
X37343Y14108D1*
X37459Y13970D1*
X37557Y13819D1*
X37616Y13700D1*
X37585Y13890D1*
X37539Y14038D1*
X37475Y14179D1*
X37395Y14312D1*
X37299Y14434D1*
X37190Y14544D1*
X37068Y14639D1*
X36935Y14719D1*
X36794Y14783D1*
X36646Y14829D1*
X36493Y14857D1*
X36214Y14867D1*
X34546D1*
X33841Y14700D2*
X33751Y14754D1*
X33647Y14864D1*
X32645Y14867D1*
X32464Y14845D1*
X32340Y14807D1*
X32190Y14721D1*
X32090Y14639D1*
X31984Y14502D1*
X31924Y14388D1*
X31878Y14221D1*
X31872Y14193D1*
X31931Y14155D1*
X32007Y14246D1*
X32094Y14326D1*
X32191Y14394D1*
X32296Y14449D1*
X32407Y14490D1*
X32522Y14515D1*
X32661Y14527D1*
X33642D1*
X33735Y14627D1*
X33843Y14697D1*
X5394Y8476D2*
D23*
Y7917D1*
X4834Y8476D2*
X5953D1*
X4834Y11476D2*
X5953D1*
X4834Y14476D2*
X5953D1*
X54870Y13437D2*
D20*
X55430D1*
X53310D2*
X53870D1*
X54870Y14437D2*
X55430D1*
X53310D2*
X53870D1*
X54870Y7437D2*
D14*
X55430D1*
X16850Y24882D2*
D24*
Y23928D1*
Y24882D2*
X17410D1*
X15197D2*
Y23928D1*
X14637Y24882D2*
X15197D1*
X22913D2*
Y23928D1*
Y24882D2*
X23473D1*
X21260D2*
Y23928D1*
X20700Y24882D2*
X21260D1*
X8386Y17981D2*
D14*
Y17520D1*
X7531D2*
X9241D1*
X36929Y24882D2*
D24*
Y23928D1*
Y24882D2*
X37489D1*
X7531Y16732D2*
D14*
X9241D1*
X8386Y15945D2*
Y15484D1*
X7531Y15945D2*
X9241D1*
X35276Y24882D2*
D24*
Y23928D1*
X34716Y24882D2*
X35276D1*
X15236Y21327D2*
D14*
Y19617D1*
X14775Y20472D2*
X15236D1*
X16811Y21327D2*
Y19617D1*
Y20472D2*
X17272D1*
X19055Y25236D2*
Y24480D1*
X18495Y25236D2*
X19615D1*
X19302Y8858D2*
X21012D1*
X19302Y8071D2*
X21012D1*
X19302Y7283D2*
X21012D1*
X20157Y6496D2*
Y6035D1*
X19302Y6496D2*
X21012D1*
X24902Y21327D2*
Y19617D1*
X24440Y20472D2*
X24902D1*
X26476Y21327D2*
Y19617D1*
Y20472D2*
X26938D1*
X35051Y8858D2*
X36760D1*
X35051Y8071D2*
X36760D1*
X35051Y7283D2*
X36760D1*
X35906Y6496D2*
Y6035D1*
X35051Y6496D2*
X36760D1*
X40650Y21327D2*
Y20472D1*
X40188D2*
X40650D1*
X42224Y21327D2*
Y20472D1*
X42686D1*
X5669Y26288D2*
Y25051D1*
X4617Y25669D2*
X5669D1*
X10394Y26288D2*
Y25051D1*
X9342Y25669D2*
X10394D1*
X27962Y25688D2*
Y24608D1*
Y25148D2*
X28502D1*
X32529Y25698D2*
Y24617D1*
Y25157D2*
X33069D1*
X42913Y25694D2*
Y24614D1*
Y25154D2*
X43453D1*
X36773Y23800D2*
D26*
X37137D1*
X35828Y23551D2*
X35908D1*
X36976D2*
X37524D1*
X35906Y23302D2*
X36074D1*
X37230D2*
X37910D1*
X35984Y23053D2*
X36274D1*
X37566D2*
X38297D1*
X36066Y22805D2*
X36512D1*
X38050D2*
X38684D1*
X36144Y22556D2*
X36805D1*
X39538D2*
X40547D1*
X36874Y22307D2*
X37172D1*
X41062D2*
X41500D1*
X41413Y22059D2*
X41820D1*
X38421Y21810D2*
X38590D1*
X41640D2*
X42004D1*
X39199Y21561D2*
X40672D1*
X41785D2*
X41988D1*
X36877Y23981D2*
X36627D1*
X36729Y23824D1*
X36870Y23641D1*
X37105Y23392D1*
X37368Y23172D1*
X37655Y22984D1*
X37962Y22830D1*
X38284Y22713D1*
X38618Y22635D1*
X38895Y22603D1*
X40520Y22477D1*
X40731Y22431D1*
X40935Y22357D1*
X41127Y22258D1*
X41305Y22134D1*
X41465Y21988D1*
X41604Y21822D1*
X41720Y21639D1*
X41802Y21463D1*
X42006Y21464D1*
X42037Y21912D1*
X41401Y22405D1*
X40378Y22592D1*
X39009Y22633D1*
X38948Y22651D1*
X36881Y23979D1*
X35746Y23981D2*
X35668D1*
X35819Y23496D1*
X36123Y22541D1*
X39236Y21541D1*
X40753Y21463D1*
X40823Y21470D1*
X40714Y21553D1*
X40543Y21633D1*
X40409Y21667D1*
X39038Y21773D1*
X38682Y21800D1*
X38342Y21858D1*
X38058Y21929D1*
X37831Y22003D1*
X37514Y22137D1*
X37254Y22273D1*
X37050Y22398D1*
X36773Y22601D1*
X36551Y22793D1*
X36381Y22961D1*
X36158Y23223D1*
X35987Y23461D1*
X35831Y23719D1*
X35770Y23872D1*
X22481Y23681D2*
X23095D1*
X22485Y23433D2*
X23642D1*
X22524Y23184D2*
X24192D1*
X22633Y22935D2*
X24739D1*
X22852Y22687D2*
X25290D1*
X21750Y22438D2*
X21935D1*
X25395D2*
X25837D1*
X21758Y22189D2*
X22134D1*
X21762Y21941D2*
X22438D1*
X22180Y21692D2*
X23009D1*
X22969Y21443D2*
X23560D1*
X24942D2*
X25255D1*
X25281Y21367D2*
Y21542D1*
X25192Y21638D1*
X23438Y21640D1*
X23200Y21659D1*
X22966Y21709D1*
X22742Y21789D1*
X22529Y21897D1*
X22332Y22033D1*
X22155Y22193D1*
X22000Y22375D1*
X21871Y22575D1*
X21768Y22791D1*
X21719Y22932D1*
X21738Y21827D1*
X22725Y21513D1*
X23121Y21387D1*
X24416Y21542D1*
X25280Y21371D1*
X25880Y22140D2*
X25906Y22110D1*
X25908Y22190D1*
X25871Y22434D1*
X22571Y23931D1*
X22454Y23930D1*
X22456Y23477D1*
X22465Y23331D1*
X22491Y23202D1*
X22534Y23077D1*
X22592Y22959D1*
X22666Y22850D1*
X22753Y22751D1*
X22852Y22664D1*
X22962Y22591D1*
X23080Y22533D1*
X23205Y22490D1*
X23335Y22465D1*
X23590Y22456D1*
X25288Y22451D1*
X25447Y22420D1*
X25604Y22357D1*
X25723Y22285D1*
X25846Y22179D1*
X25880Y22140D1*
X15504Y23681D2*
X15589D1*
X16456D2*
X16620D1*
X15504Y23433D2*
X15589D1*
X16456D2*
X16620D1*
X15504Y23184D2*
X15589D1*
X16456D2*
X16620D1*
X15504Y22935D2*
X15589D1*
X16456D2*
X16620D1*
X15504Y22687D2*
X15589D1*
X16456D2*
X16620D1*
X15504Y22438D2*
X15589D1*
X16456D2*
X16620D1*
X15504Y22189D2*
X15589D1*
X16456D2*
X16620D1*
X15504Y21941D2*
X15589D1*
X16456D2*
X16620D1*
X15504Y21692D2*
X15589D1*
X16456D2*
X16620D1*
X15504Y21443D2*
X15589D1*
X16456D2*
X16620D1*
X16432Y23933D2*
Y21308D1*
X16647Y21306D1*
Y23930D1*
X16432D1*
X15615Y21304D2*
Y23929D1*
X15479Y23930D1*
Y21306D1*
X15616D1*
D33*
X5394Y8476D3*
D34*
Y9476D3*
Y10476D3*
Y11476D3*
Y12476D3*
Y13476D3*
Y14476D3*
Y15476D3*
Y16476D3*
Y17476D3*
Y18476D3*
Y19476D3*
X39996Y23150D3*
X40996D3*
X41996D3*
X42996D3*
X54870Y8437D3*
X53870D3*
X54870Y9437D3*
X53870D3*
X54870Y10437D3*
X53870D3*
X54870Y11437D3*
X53870D3*
X54870Y12437D3*
X53870D3*
X54870Y13437D3*
X53870D3*
X54870Y14437D3*
X53870D3*
X54870Y15437D3*
X53870D3*
X54870Y16437D3*
X53870D3*
X54870Y17437D3*
X53870D3*
X54870Y18437D3*
X53870D3*
X54870Y19437D3*
X53870D3*
D33*
Y6437D3*
D34*
Y7437D3*
X54870Y6437D3*
Y7437D3*
D35*
X8307Y11220D3*
D20*
X26181Y18228D3*
D35*
X8307Y10433D3*
D36*
X16850Y24882D3*
D35*
X8307Y9646D3*
D36*
X16024Y24882D3*
D35*
X8307Y8858D3*
D36*
X15197Y24882D3*
D35*
X8307Y8071D3*
D36*
X22913Y24882D3*
D35*
X8307Y7283D3*
D36*
X22087Y24882D3*
D35*
X8307Y6496D3*
D36*
X21260Y24882D3*
D35*
X8307Y5709D3*
X8386Y17520D3*
D36*
X36929Y24882D3*
D35*
X8386Y16732D3*
D36*
X36102Y24882D3*
D35*
X8386Y15945D3*
D36*
X35276Y24882D3*
D37*
X15236Y20472D3*
X16024D3*
X16811D3*
D38*
X19055Y25236D3*
D35*
X20157Y19882D3*
Y19094D3*
Y18307D3*
Y17520D3*
Y11220D3*
Y10433D3*
Y9646D3*
Y8858D3*
Y8071D3*
Y7283D3*
Y6496D3*
X24055Y11220D3*
Y10433D3*
Y9646D3*
Y8858D3*
Y8071D3*
Y7283D3*
Y6496D3*
X24094Y5709D3*
X24134Y17520D3*
Y16732D3*
Y15945D3*
Y15157D3*
Y14370D3*
D37*
X24902Y20472D3*
X25689D3*
X26476D3*
D35*
X35906Y19882D3*
Y19094D3*
Y18307D3*
Y17520D3*
Y11220D3*
Y10433D3*
Y9646D3*
Y8858D3*
Y8071D3*
Y7283D3*
Y6496D3*
X39803Y15945D3*
Y15157D3*
X39843Y17520D3*
Y16732D3*
X39882Y11220D3*
Y10433D3*
Y9646D3*
Y8858D3*
Y8071D3*
Y7283D3*
Y6496D3*
Y5709D3*
D37*
X40650Y20472D3*
X41437D3*
X42224D3*
D35*
X51614Y11220D3*
Y10433D3*
Y9646D3*
Y8858D3*
Y8071D3*
Y7283D3*
X51654Y19882D3*
Y19094D3*
Y18307D3*
Y17520D3*
Y6496D3*
D20*
X44567Y8189D3*
X44173D3*
X43780D3*
X38898Y11220D3*
X38819Y8858D3*
Y8386D3*
Y7992D3*
Y6496D3*
Y5709D3*
X37402Y19528D3*
X36969Y18307D3*
X36929Y19094D3*
Y17520D3*
X36811Y5551D3*
X30197Y20906D3*
X29803D3*
X29409D3*
X22992Y11220D3*
X22795Y8858D3*
Y8425D3*
Y7953D3*
X22756Y6496D3*
Y5709D3*
X22559Y19843D3*
Y19213D3*
X21142Y10787D3*
Y10276D3*
Y9764D3*
X12717Y11063D3*
X9724Y13583D3*
X9449Y11220D3*
X7008Y8858D3*
Y8425D3*
Y7953D3*
Y6496D3*
Y5669D3*
D41*
X8425Y24882D3*
X5669Y25669D3*
Y22913D3*
X13150Y24882D3*
X10394Y25669D3*
Y22913D3*
D42*
X27962Y25148D3*
X27174D3*
X25599D3*
X26399D3*
X32529Y25157D3*
X31741D3*
X30166D3*
X30966D3*
X42913Y25154D3*
X42126D3*
X41339D3*
X40551D3*
X39764D3*
D34*
X34094Y15197D3*
Y14197D3*
Y13197D3*
M02*
