G04 DipTrace 2.4.0.2*
%IN2_Layer_Bottom_PMask.gbr*%
%MOIN*%
%ADD50R,0.063X0.0079*%
%ADD52R,0.0039X0.0551*%
%ADD54R,0.0551X0.0039*%
%ADD56R,0.0157X0.1102*%
%ADD62R,0.0177X0.0335*%
%ADD64R,0.0512X0.0906*%
%ADD68R,0.0512X0.1299*%
%ADD69R,0.126X0.0472*%
%ADD77R,0.0354X0.0512*%
%ADD79R,0.0512X0.0354*%
%ADD81R,0.0271X0.0321*%
%ADD83R,0.0321X0.0271*%
%FSLAX44Y44*%
G04*
G70*
G90*
G75*
G01*
%LNBotPaste*%
%LPD*%
D83*
X25630Y18937D3*
Y18268D3*
D81*
X21654Y21890D3*
X20984D3*
D83*
Y20377D3*
Y21046D3*
X20354Y20377D3*
Y21046D3*
D81*
X20984Y17874D3*
X20315D3*
D83*
X19528Y13110D3*
Y13780D3*
D81*
X20157Y21890D3*
X19488D3*
D79*
X19606Y21260D3*
Y20433D3*
D83*
X18858Y20394D3*
Y21063D3*
D79*
X18701Y13976D3*
Y13150D3*
X18110Y21260D3*
Y20433D3*
D83*
X17362Y20394D3*
Y21063D3*
D79*
X16614Y21260D3*
Y20433D3*
D83*
X15866Y20394D3*
Y21063D3*
Y13189D3*
Y13858D3*
X15157Y20394D3*
Y21063D3*
D79*
X15039Y14055D3*
Y13228D3*
X14409Y21260D3*
Y20433D3*
D81*
X13071Y19724D3*
X13740D3*
X13071Y19094D3*
X13740D3*
X13071Y18465D3*
X13740D3*
X13071Y17835D3*
X13740D3*
D83*
X14213Y13189D3*
Y13858D3*
D77*
X12874Y15551D3*
X13701D3*
D83*
X11299Y18740D3*
Y19409D3*
Y17480D3*
Y18150D3*
D79*
X11181Y21220D3*
Y20394D3*
X10276Y21220D3*
Y20394D3*
D81*
X10394Y19724D3*
X9724D3*
X8780Y21181D3*
X8110D3*
X8780Y19724D3*
X8110D3*
X6535Y21181D3*
X7205D3*
X7165Y19724D3*
X6496D3*
D79*
X13543Y21260D3*
Y20433D3*
D77*
X12874Y16496D3*
X13701D3*
D81*
X13071Y17205D3*
X13740D3*
D77*
X31772Y22835D3*
X32598D3*
D69*
X28504Y22598D3*
Y20984D3*
D68*
X36929Y24882D3*
X15197D3*
X16850D3*
X21260D3*
X22913D3*
X35276D3*
D64*
X19055Y25236D3*
D62*
X17992Y13110D3*
X17244D3*
X17618Y14016D3*
D83*
X24291Y18268D3*
Y18937D3*
X24961Y18268D3*
Y18937D3*
D81*
X21654Y22520D3*
X20984D3*
X21001Y19764D3*
X20331D3*
X21001Y19134D3*
X20331D3*
X21001Y18504D3*
X20331D3*
X20984Y17244D3*
X20315D3*
X20984Y16614D3*
X20315D3*
X20984Y15984D3*
X20315D3*
X20984Y15354D3*
X20315D3*
X20984Y14685D3*
X20315D3*
X20984Y14016D3*
X20315D3*
X20984Y13386D3*
X20315D3*
X20157Y22520D3*
X19488D3*
D83*
X16614Y13189D3*
Y13858D3*
X12441Y19094D3*
Y18425D3*
X10354Y16811D3*
Y16142D3*
X9724Y16811D3*
Y16142D3*
X9094Y16811D3*
Y16142D3*
X8465Y16811D3*
Y16142D3*
D81*
X8780Y20472D3*
X8110D3*
D83*
X7835Y16811D3*
Y16142D3*
X7205Y16811D3*
Y16142D3*
D81*
X6496Y20472D3*
X7165D3*
D83*
X6496Y19094D3*
Y18425D3*
Y17795D3*
Y17126D3*
D56*
X25787Y14803D3*
X25287D3*
X24787D3*
X24287D3*
Y17323D3*
X24787D3*
X25287D3*
X25787D3*
D54*
X18740Y18307D3*
Y18110D3*
Y17913D3*
Y17717D3*
Y17520D3*
Y17323D3*
Y17126D3*
Y16929D3*
Y16732D3*
Y16535D3*
Y16339D3*
Y16142D3*
D52*
X18169Y15571D3*
X17972D3*
X17776D3*
X17579D3*
X17382D3*
X17185D3*
X16988D3*
X16791D3*
X16594D3*
X16398D3*
X16201D3*
X16004D3*
D54*
X15433Y16142D3*
Y16339D3*
Y16535D3*
Y16732D3*
Y16929D3*
Y17126D3*
Y17323D3*
Y17520D3*
Y17717D3*
Y17913D3*
Y18110D3*
Y18307D3*
D52*
X16004Y18878D3*
X16201D3*
X16398D3*
X16594D3*
X16791D3*
X16988D3*
X17185D3*
X17382D3*
X17579D3*
X17776D3*
X17972D3*
X18169D3*
D50*
X10276Y19094D3*
Y18839D3*
Y18583D3*
Y18327D3*
Y18071D3*
Y17815D3*
Y17559D3*
X7992D3*
Y17815D3*
Y18071D3*
Y18327D3*
Y18583D3*
Y18839D3*
Y19094D3*
M02*
