G04 DipTrace 2.4.0.2*
%IN2_Layer_Bottom.gbr*%
%MOIN*%
%ADD10C,0.0098*%
%ADD14C,0.013*%
%ADD15C,0.0089*%
%ADD16C,0.0079*%
%ADD17C,0.0591*%
%ADD19C,0.0512*%
%ADD20C,0.0394*%
%ADD21C,0.0118*%
%ADD22C,0.0197*%
%ADD23C,0.0315*%
%ADD24C,0.0157*%
%ADD25C,0.0276*%
%ADD26C,0.025*%
%ADD28R,0.04X0.035*%
%ADD29R,0.035X0.04*%
%ADD30R,0.0591X0.0433*%
%ADD31R,0.0433X0.0591*%
%ADD32R,0.1339X0.0551*%
%ADD33R,0.0591X0.0591*%
%ADD34C,0.0591*%
%ADD36R,0.0591X0.1378*%
%ADD38R,0.0591X0.0984*%
%ADD40R,0.0256X0.0413*%
%ADD42C,0.0551*%
%ADD43R,0.0236X0.1181*%
%ADD44R,0.063X0.0118*%
%ADD45R,0.0118X0.063*%
%ADD46R,0.0709X0.0157*%
%FSLAX44Y44*%
G04*
G70*
G90*
G75*
G01*
%LNBottom*%
%LPD*%
X7205Y16811D2*
D14*
X7795D1*
Y17559D1*
X7992D1*
X7205Y16811D2*
X7835D1*
X8465D2*
D15*
X8583D1*
Y17677D1*
X8465Y17795D1*
X8012D1*
X7992Y17815D1*
X8465Y16811D2*
D16*
Y16575D1*
X8543Y16496D1*
X10276D1*
X10354Y16575D1*
Y16811D1*
X54870Y12437D2*
D14*
X54965D1*
X55433Y11969D1*
Y11299D1*
X55079Y10945D1*
X53465D1*
X53189Y11220D1*
X38898D1*
X22992D1*
X12835D1*
X9528D1*
X9449Y11142D1*
Y11220D1*
X12717Y11063D2*
X12835D1*
Y11220D1*
X15433Y17520D2*
D10*
X16181D1*
Y17441D1*
X10276Y17815D2*
X10650D1*
X10866Y17598D1*
Y16772D1*
X11417Y16220D1*
Y15197D1*
X12717Y13898D1*
X9094Y16811D2*
D14*
X9724D1*
X9094D2*
X9843Y17559D1*
X10276D1*
X5394Y12559D2*
D17*
Y13476D1*
X7008Y7953D2*
D19*
Y8425D1*
D20*
Y8858D1*
Y8425D2*
D19*
Y10862D1*
X5394Y12476D1*
X22795Y8425D2*
Y7953D1*
X7008D1*
X22795Y8425D2*
D20*
Y8858D1*
Y8425D2*
Y7953D1*
X38819Y7992D2*
D19*
Y7953D1*
Y8386D1*
D20*
Y8858D1*
X22795Y7953D2*
D19*
X38819D1*
X7992Y18071D2*
D16*
X8976D1*
X9213Y18307D1*
X10256D1*
X10276Y18327D1*
D21*
X10768D1*
X10945Y18150D1*
X11299D1*
D14*
X11378D1*
X11969Y17559D1*
Y17047D1*
X12008Y17008D1*
D20*
Y16024D1*
X12480Y15551D1*
X12874D1*
X17185Y15571D2*
D10*
Y14547D1*
X16969Y14331D1*
X16378D1*
X15866Y13819D1*
Y13858D1*
X17244Y12677D2*
D22*
Y13110D1*
Y12677D2*
X16811Y12244D1*
X11024D1*
X10630Y12638D1*
Y15630D1*
X16614Y13189D2*
D14*
X17165D1*
X17244Y13110D1*
X6496Y17126D2*
X6614D1*
X7559Y18071D1*
X7992D1*
X11024Y16024D2*
D20*
X10630Y15630D1*
X15039Y14055D2*
D14*
Y13937D1*
X15787D1*
X15866Y13858D1*
X15079Y14488D2*
Y14134D1*
X15000Y14055D1*
X15039D1*
X18169Y18878D2*
D10*
Y19390D1*
X18858Y20079D1*
Y20394D1*
D14*
X19567D1*
X19606Y20433D1*
Y20276D1*
X19094Y19764D1*
X20984Y17244D2*
X21457D1*
X20984D2*
Y16614D1*
X12953Y20394D2*
D22*
X13504D1*
X13543Y20433D1*
X15433Y18307D2*
D10*
X14921D1*
X14331Y18898D1*
Y19528D1*
X14173Y19685D1*
X13740D1*
Y19724D1*
D14*
Y19656D1*
X13780D1*
Y20197D1*
X13543Y20433D1*
X16398Y18878D2*
D16*
Y19311D1*
X16024Y19685D1*
X13769D1*
X13740Y19656D1*
X12008Y16024D2*
D14*
Y15984D1*
X12323Y15669D1*
X12913D1*
X13740Y16496D1*
X13701D1*
Y17165D1*
X13740Y17205D1*
Y17835D1*
D10*
X14409D1*
X14488Y17913D1*
X15433D1*
X12008Y17008D2*
D20*
Y17402D1*
X24291Y18937D2*
D14*
X24961D1*
X25630Y18268D1*
X25787Y17323D2*
Y18110D1*
X25630Y18268D1*
X26181Y18228D2*
X25669D1*
X25630Y18268D1*
X12520Y20394D2*
D20*
X12953D1*
X13740Y17835D2*
D10*
X13701D1*
X13425Y18110D1*
Y18740D1*
X13071Y19094D1*
D14*
X12441D1*
X12480Y22835D2*
D10*
X13071D1*
X13228Y22992D1*
X20000D1*
X20157Y22835D1*
Y22520D1*
X20354Y21046D2*
D14*
Y21693D1*
X20157Y21890D1*
Y22520D1*
X7205Y21181D2*
D10*
Y22047D1*
X9764Y24606D1*
X18740Y17717D2*
X19120D1*
G03X19764Y18346I14J630D01*
G01*
G02X19961Y18543I197J0D01*
G01*
X20292D1*
G02X20331Y18504I0J-39D01*
G01*
X18740Y17520D2*
X20315D1*
Y17244D1*
D14*
Y17874D1*
X18740Y16535D2*
D16*
X19120D1*
G02X19606Y16102I49J-435D01*
G01*
Y14882D1*
G03X20236Y14252I630J0D01*
G01*
Y14094D1*
G03X20315Y14016I79J0D01*
G01*
X22756Y6496D2*
D20*
Y5709D1*
X7008Y6496D2*
Y5669D1*
Y6496D2*
X22756D1*
X38819D1*
Y5709D1*
X7008Y6496D2*
X5866D1*
X4606Y7756D1*
Y14689D1*
X5394Y15476D1*
Y16476D1*
X10276Y18583D2*
D21*
X10866D1*
X11024Y18740D1*
X11299D1*
D14*
X11575D1*
X11693Y18858D1*
Y19961D1*
X11142Y20512D1*
Y20354D1*
X11181Y20394D1*
X11142Y19961D2*
Y20354D1*
X38819Y6496D2*
D23*
X41732D1*
X43425Y8189D1*
X43780D1*
X30197Y20906D2*
D20*
X28504D1*
Y20984D1*
X29409Y20906D2*
X29803D1*
X30197D1*
X43780Y8189D2*
X44173D1*
X44567D1*
X53870Y16437D2*
D21*
X54402Y16969D1*
X55118D1*
X55354Y17205D1*
Y19685D1*
X55079Y19961D1*
X32441D1*
X30669Y21732D1*
X26850D1*
X26024Y22559D1*
Y24723D1*
X25599Y25148D1*
X18740Y16929D2*
D10*
X18228D1*
X17638Y17520D1*
X9724Y13583D2*
D16*
Y16142D1*
X18740Y16929D2*
X19094D1*
G02X20000Y16024I0J-906D01*
G01*
Y15669D1*
G03X20315Y15354I315J0D01*
G01*
X27174Y25148D2*
D20*
Y23534D1*
X28031Y22677D1*
X28504D1*
Y22598D1*
D22*
Y22756D1*
X31575D1*
G03X31772Y22835I113J2D01*
G01*
D3*
X31741Y25157D2*
Y22804D1*
X31772Y22835D1*
X20984Y15354D2*
D10*
Y15472D1*
X21220D1*
X23268Y17520D1*
X23228D1*
X8465Y12835D2*
D14*
Y16142D1*
X15433Y16732D2*
D10*
X14488D1*
X35118Y12126D2*
D14*
X52677D1*
X53366Y11437D1*
X53870D1*
X16988Y15571D2*
D10*
Y14862D1*
X16811Y14685D1*
X35118Y12126D2*
D14*
X23701D1*
Y12165D1*
X23150D1*
X22480Y11496D1*
X10630D1*
X9724Y12402D1*
X8150D1*
X7835Y12717D1*
Y16142D1*
X54870Y11437D2*
Y11626D1*
X54567Y11929D1*
X53268D1*
X52795Y12402D1*
X35866D1*
X35709Y12559D1*
X35370D1*
Y12598D1*
X34961D1*
X34764Y12402D1*
X25709D1*
X25591Y12520D1*
X25630D1*
X17579Y15571D2*
D10*
Y14902D1*
X17795Y14685D1*
X35512Y12559D2*
D16*
X35370D1*
X25630Y12520D2*
D14*
X23071D1*
X22283Y11732D1*
X10748D1*
X9094Y13386D1*
Y16142D1*
X15433Y16929D2*
D10*
X16181D1*
X54870Y18437D2*
D14*
X54346Y17913D1*
X53504D1*
X52559Y18858D1*
X38268D1*
X36929Y17520D1*
X20984Y14016D2*
D10*
Y14134D1*
X21220D1*
X22244Y15157D1*
X23228D1*
X20984Y13386D2*
Y13504D1*
X21220D1*
X22047Y14331D1*
X23228D1*
X53870Y12437D2*
D21*
Y12717D1*
X36181D1*
X35945Y12953D1*
X34843D1*
X34567Y12677D1*
X26063D1*
X25827Y12913D1*
D14*
X23740D1*
X23071D1*
X22126Y11969D1*
X10866D1*
X10236Y12598D1*
Y16260D1*
X10354Y16142D1*
X17776Y15571D2*
D10*
Y15177D1*
X17913Y15039D1*
X18189D1*
X18543Y14685D1*
X35945Y12953D2*
D21*
D3*
X14213Y13858D2*
Y14291D1*
X15472Y15551D1*
X15984D1*
X16004Y15571D1*
X14213Y13858D2*
D14*
X13858D1*
Y13819D1*
X18169Y15571D2*
D21*
Y15591D1*
X18465D1*
X19134Y14921D1*
Y14409D1*
X19528Y14016D1*
Y13780D1*
X17618Y14016D2*
D22*
Y14094D1*
X18583D1*
X18701Y13976D1*
D14*
Y13858D1*
X19449D1*
X19528Y13780D1*
X18110Y13701D2*
D24*
X18425D1*
X18701Y13976D1*
X19055Y25236D2*
D14*
Y24843D1*
G03X19843Y24055I787J0D01*
G01*
X34094Y13197D2*
Y13031D1*
X32402D1*
X30276Y15157D1*
X16594Y18878D2*
D16*
Y19350D1*
X16024Y19921D1*
X15630D1*
X15157Y20394D1*
X14409Y20433D2*
D14*
X15118D1*
X15157Y20394D1*
X15433Y18110D2*
D10*
X14409D1*
X14055Y18465D1*
X13740D1*
D14*
Y19094D1*
X53870Y10437D2*
X53028D1*
X53150Y10315D1*
X21929D1*
X21457Y10787D1*
X21142D1*
Y10276D2*
X21535D1*
X21772Y10039D1*
X52992D1*
X53110Y9921D1*
X54354D1*
X54870Y10437D1*
X20984Y21046D2*
Y21890D1*
Y22520D1*
D10*
Y22874D1*
X20669Y23189D1*
X12913D1*
X18740Y16732D2*
X17874D1*
X17087Y17520D1*
X7323Y12717D2*
D14*
Y16142D1*
X7205D1*
X18740Y16732D2*
D16*
X19120D1*
G02X19803Y16063I14J-669D01*
G01*
Y15197D1*
G03X20315Y14685I512J0D01*
G01*
X8110Y21181D2*
D10*
Y21496D1*
X9094Y22480D1*
X8110Y19724D2*
Y19094D1*
X7992D1*
X8110Y19724D2*
Y20472D1*
X16594Y15571D2*
D16*
Y15217D1*
X16457Y15079D1*
X15630D1*
X25276Y16378D2*
D14*
Y17311D1*
X25287Y17323D1*
X18740Y18110D2*
D10*
X19120D1*
G03X19331Y18307I13J197D01*
G01*
Y19055D1*
G02X20039Y19764I709J0D01*
G01*
X20331D1*
X26399Y25148D2*
D21*
Y24982D1*
X26339Y24921D1*
Y22638D1*
X26969Y22008D1*
X30787D1*
X32559Y20236D1*
X55157D1*
X55630Y19764D1*
Y17126D1*
X54941Y16437D1*
X54870D1*
X53870Y18437D2*
D14*
Y18386D1*
X53465D1*
X52717Y19134D1*
X38189D1*
X37362Y18307D1*
X36969D1*
X18740Y17913D2*
D10*
X19120D1*
G03X19528Y18307I13J394D01*
G01*
Y18543D1*
G02X20118Y19134I591J0D01*
G01*
X20331D1*
X15433Y16339D2*
X14882D1*
X14646Y16102D1*
Y15669D1*
X13976Y15000D1*
X12244D1*
X11654Y15591D1*
Y16575D1*
X11220Y17008D1*
Y16969D1*
X11260Y16929D1*
X6496Y18425D2*
Y18346D1*
X7972D1*
X7992Y18327D1*
D14*
X8524D1*
X8780Y18583D1*
X6496Y17795D2*
Y18425D1*
Y19094D2*
D10*
X6575D1*
X7087Y18583D1*
X7992D1*
X16791Y18878D2*
D16*
Y19429D1*
X15866Y20354D1*
X15945D1*
X15866Y20433D1*
Y20394D1*
D14*
X16575D1*
X16614Y20433D1*
X17972Y18878D2*
D10*
Y19469D1*
X17362Y20079D1*
Y20394D1*
D14*
X18071D1*
X18110Y20433D1*
X54870Y9437D2*
X54791D1*
X54291Y8937D1*
X53661D1*
X52835Y9764D1*
X21142D1*
X21001Y18504D2*
D10*
X20787D1*
X20669Y18622D1*
Y20062D1*
X20354Y20377D1*
X21001Y19764D2*
D14*
Y20361D1*
X20984Y20377D1*
X20315Y16614D2*
Y15984D1*
X18740Y17323D2*
D10*
X19646D1*
G02X19961Y17008I0J-315D01*
G01*
Y16969D1*
G03X20315Y16614I354J0D01*
G01*
X20984Y14685D2*
Y14803D1*
X21220D1*
X23150Y16732D1*
X23228D1*
X13071Y18465D2*
D14*
X12480D1*
X12441Y18425D1*
X20315Y13386D2*
D16*
Y13543D1*
X20118D1*
X19921Y13740D1*
Y14094D1*
X19409Y14606D1*
Y16063D1*
G03X19134Y16339I-276J0D01*
G01*
X18740D1*
X17382Y15571D2*
D10*
Y14429D1*
X16929Y13976D1*
X16614D1*
Y13858D1*
X17992Y13110D2*
D14*
X18031D1*
X17559Y13583D1*
X16929D1*
X16654Y13858D1*
X16614D1*
X10394Y19724D2*
Y19094D1*
X10276D1*
Y20394D2*
X10394D1*
Y19724D1*
X7992Y18839D2*
D10*
X7421D1*
X7244Y19016D1*
Y19646D1*
X7165Y19724D1*
Y20472D1*
X6535Y21181D2*
Y20512D1*
X6496Y20472D1*
X8780D2*
Y21181D1*
X50000Y9252D2*
D14*
X46496D1*
X37711D1*
Y9331D1*
X32992D1*
X37480D2*
X37711D1*
X32992D2*
Y9252D1*
X32402Y8661D1*
X24055D1*
X23346Y9370D1*
X22598D1*
X22165Y8937D1*
X20079D1*
X18858Y10157D1*
X8976D1*
X6575Y12559D1*
Y13858D1*
X5906Y14528D1*
X5445D1*
X5394Y14476D1*
X54870Y7437D2*
X55551D1*
Y5591D1*
X54921Y4961D1*
X37402D1*
X36811Y5551D1*
X55551Y7437D2*
Y10433D1*
X55945Y10827D1*
Y14094D1*
X55433Y14606D1*
X55039D1*
X54870Y14437D1*
X53870D2*
D20*
X54870D1*
X53870Y13437D2*
D14*
X53307D1*
Y13819D1*
Y14437D1*
X53870D1*
Y13437D2*
D20*
X54870D1*
X53307Y14437D2*
D14*
Y13622D1*
X38701Y13780D2*
X46575D1*
X46614Y13819D1*
X50039D1*
X53307D1*
X13071Y19724D2*
X12480D1*
Y19685D1*
X18740Y16142D2*
D10*
X18071D1*
X17126Y17087D1*
X16732D1*
X16575Y17244D1*
Y17756D1*
X16457Y17874D1*
X15984D1*
X15827Y17717D1*
X15433D1*
Y17126D2*
X14882D1*
X14764Y17244D1*
Y17598D1*
X14882Y17717D1*
X15433D1*
X18701Y18701D2*
D14*
Y18346D1*
D21*
X18740Y18307D1*
X16004Y18878D2*
D10*
Y18406D1*
X16102Y18307D1*
X16988D1*
X18740D1*
X16988Y18878D2*
Y18307D1*
X16201Y18878D2*
Y19232D1*
X16063Y19370D1*
X15512D1*
X15276Y19134D1*
Y18780D1*
X15236Y18740D1*
X5394Y11476D2*
D25*
X5413D1*
X6142Y10748D1*
Y8465D1*
X5406D1*
X5394Y8476D1*
X10276Y18839D2*
D10*
X10689D1*
X11260Y19409D1*
X11299D1*
X10276Y18839D2*
D14*
X9311D1*
X9094Y19055D1*
X8780Y19724D2*
Y19370D1*
X9094Y19055D1*
X10394Y25079D2*
Y22520D1*
X9173Y21299D1*
Y19134D1*
X9094Y19055D1*
X6496Y19724D2*
D16*
X6535D1*
X6811Y20000D1*
Y20709D1*
X6929Y20827D1*
X8386D1*
X8465Y20748D1*
Y20039D1*
X8780Y19724D1*
X9724D2*
D14*
Y21220D1*
X10276D1*
X11181D1*
X9724Y19724D2*
X9173D1*
Y19055D1*
X9094D1*
X10276Y18071D2*
D10*
X10709D1*
X11299Y17480D1*
X10276Y18071D2*
D14*
X9606D1*
X9331Y17795D1*
X50079Y10709D2*
X46535D1*
X39054D1*
X32953D1*
Y10787D1*
X26299D1*
X25433D1*
X41929Y10709D2*
X39054D1*
X14724Y17244D2*
X14747D1*
D10*
X14764D1*
X18740Y17126D2*
D16*
X18307D1*
X18071Y17362D1*
Y17835D1*
X20984Y17874D2*
D14*
X21496D1*
X21732Y18110D1*
X21890D1*
X20984Y15984D2*
D10*
X21220D1*
X21890Y16654D1*
Y18110D1*
X16791Y15571D2*
Y15925D1*
X17008Y16142D1*
X18071D1*
X12480Y19685D2*
D14*
X12126D1*
Y21102D1*
X13110Y22087D1*
X13543D1*
X14409D1*
X15157D1*
X15866D1*
X16614D1*
X17362D1*
X18110D1*
X18858D1*
Y21890D1*
Y21181D1*
X19528D1*
X19606Y21260D1*
X18110D2*
Y22087D1*
X17362Y21063D2*
Y22087D1*
X16614Y21260D2*
Y22087D1*
X15866Y21063D2*
Y22087D1*
X15157Y21063D2*
Y22087D1*
X18858Y21063D2*
Y21181D1*
X14409Y21260D2*
Y22087D1*
X20472Y24449D2*
Y25079D1*
Y24449D2*
Y24016D1*
X21299Y23189D1*
X22638D1*
X22874Y23425D1*
X23701Y24449D2*
Y23425D1*
Y22281D1*
Y24449D2*
Y25039D1*
X22874Y23425D2*
X23701D1*
X28031Y20118D2*
X24213D1*
Y20354D1*
X24134Y20433D1*
X22992D1*
X22323Y21102D1*
Y21407D1*
X22126D1*
Y21929D1*
X21260Y24882D2*
Y23228D1*
X21299Y23189D1*
X22913Y24882D2*
Y23465D1*
X22874Y23425D1*
X17638Y24409D2*
Y23780D1*
X16850D1*
X15197D1*
Y23740D1*
X14409D1*
Y24409D1*
X15197Y24882D2*
Y23780D1*
X16850Y24882D2*
Y23780D1*
X14409Y24409D2*
Y25039D1*
X17638Y24409D2*
Y25079D1*
X12480Y19685D2*
D3*
X31378Y18031D2*
X28071D1*
Y18898D1*
X31378Y18031D2*
X34449D1*
X38701Y13780D1*
X21890Y18110D2*
Y19134D1*
Y20974D1*
X22323Y21407D1*
X21001Y19134D2*
X21890D1*
X19488Y21890D2*
X18858D1*
X19488Y22520D2*
X19016D1*
X18858Y22362D1*
Y22087D1*
X21654Y22520D2*
X22165D1*
X22126Y22480D1*
Y21929D1*
X21654Y21890D2*
X22087D1*
X22126Y21929D1*
X14724Y17244D2*
D3*
X25236Y11693D2*
X26260D1*
X32874D1*
X38976D1*
X46575D1*
X50079D1*
X40984Y11654D2*
X39016D1*
X38976Y11693D1*
X14213Y13189D2*
Y12677D1*
X14567D1*
X18701Y13150D2*
Y12638D1*
X19528D1*
Y13110D1*
X18346Y12638D2*
X18661D1*
Y13150D1*
X18701D1*
X15039Y13228D2*
Y12677D1*
X15866D1*
Y13189D1*
X15039Y13228D2*
X14921D1*
X15039Y13346D1*
Y12677D1*
X14567D1*
X11929Y13268D2*
X13150D1*
X13740Y12677D1*
X14567D1*
X15433Y16142D2*
D10*
X15079D1*
X14882Y15945D1*
Y15472D1*
X13465Y14055D1*
Y13346D1*
X13622Y13189D1*
X14213D1*
X18346Y12638D2*
D14*
X22087D1*
X23307Y13858D1*
X23819D1*
Y17677D1*
X23386Y18110D1*
X21890D1*
X14724Y17244D2*
X14331D1*
X14134Y17047D1*
Y15551D1*
X13701D1*
X12126Y19685D2*
Y19646D1*
X11969Y19488D1*
Y18189D1*
X12441Y17717D1*
Y17205D1*
Y16929D1*
X12874Y16496D1*
X13071Y17205D2*
X12441D1*
X13071Y17835D2*
X12559D1*
X12441Y17717D1*
X13701Y15551D2*
X14094D1*
X14213Y15669D1*
Y15945D1*
X13543Y21260D2*
Y22087D1*
X23819Y13858D2*
X24287D1*
X24787D1*
X25287D1*
X25787D1*
Y14803D1*
X25287D2*
Y13858D1*
X24787Y14803D2*
Y13858D1*
X24287Y14803D2*
Y13858D1*
X16988Y18878D2*
D21*
Y19258D1*
D14*
Y19350D1*
X17244Y19606D1*
X46693Y18346D2*
X44252D1*
X41299D1*
X41260Y18307D1*
X37717Y24429D2*
Y25059D1*
X32835Y20748D2*
X34449D1*
X35748D1*
X42913Y25154D2*
Y23858D1*
X39173D1*
X38071D1*
X37717D1*
X37362D1*
X37165D1*
X36929D1*
X36299D1*
X35630D1*
X35276D1*
X34488D1*
X33425D1*
X33504D1*
Y26260D1*
X29074D1*
X27962Y25148D1*
X32835Y20748D2*
X33425D1*
Y22835D1*
Y23858D1*
X35276Y24882D2*
Y23858D1*
X34488Y24390D2*
Y23858D1*
Y24390D2*
Y25020D1*
X37717Y24429D2*
Y23858D1*
X36929Y24882D2*
Y23858D1*
X38071Y22992D2*
Y23858D1*
X36299Y22677D2*
Y23858D1*
X35630Y23622D2*
Y23858D1*
X37362Y21969D2*
Y23858D1*
X39173Y22756D2*
Y23858D1*
Y22756D2*
Y21614D1*
X38740D1*
X40166D1*
Y21969D1*
X40512D1*
X40630D1*
X41654D1*
X41775Y21847D1*
X42205Y21417D1*
X40512Y22677D2*
Y21969D1*
X40630Y21378D2*
Y21969D1*
X37165Y23701D2*
D16*
Y23858D1*
X39921Y21496D2*
X40048D1*
X40166Y21614D1*
X41535Y22323D2*
Y22087D1*
X41775Y21847D1*
X23701Y25039D2*
D14*
Y25079D1*
X24606Y25984D1*
X28031D1*
X27962Y25914D1*
Y25148D1*
X32598Y22835D2*
X33425D1*
X54870Y19437D2*
D16*
X54866D1*
Y19543D1*
X36929Y19094D2*
D14*
X37756D1*
X38071Y19409D1*
X52835D1*
X53307Y18937D1*
X54370D1*
X54870Y19437D1*
X36929Y19094D2*
X36614Y19409D1*
X23425D1*
X22756D1*
X22559Y19213D1*
X16201Y15571D2*
D10*
Y16398D1*
X16496Y16693D1*
X16969D1*
X23425Y19409D2*
Y19094D1*
X23898Y18622D1*
X24843D1*
X24961Y18504D1*
Y18268D1*
X24787Y17323D2*
D14*
Y18094D1*
X24961Y18268D1*
X53870Y19437D2*
D16*
Y19583D1*
X53882D1*
X37402Y19528D2*
D14*
X37756D1*
X37913Y19685D1*
X52992D1*
X53240Y19437D1*
X53870D1*
X37402Y19528D2*
X37047D1*
X36890Y19685D1*
X22717D1*
X22559Y19843D1*
X16398Y15571D2*
D10*
Y16043D1*
X16614Y16260D1*
Y16299D1*
X22559Y19843D2*
D21*
X22480D1*
X22165Y19528D1*
Y19016D1*
X22362Y18819D1*
X23346D1*
X23898Y18268D1*
X24291D1*
X24287Y17323D2*
D14*
Y18264D1*
X24291Y18268D1*
D20*
X14409Y24409D3*
X17244Y19606D3*
X7323Y12717D3*
X8465Y12835D3*
X8780Y18583D3*
X9094Y22480D3*
Y19055D3*
X9331Y17795D3*
X9764Y24606D3*
X10394Y25079D3*
X10472Y10787D3*
X10630Y15630D3*
X11024Y16024D3*
X11142Y19961D3*
X11260Y16929D3*
X11929Y13268D3*
X12008Y17008D3*
X12126Y19685D3*
X12480Y22835D3*
Y19685D3*
X12520Y20394D3*
X12008Y17402D3*
X12913Y23189D3*
X12953Y20394D3*
X12717Y13898D3*
X13386Y24016D3*
X14567Y12677D3*
X15079Y14488D3*
X19843Y24055D3*
X14409Y25039D3*
X14488Y16732D3*
X14724Y17244D3*
X15197Y23740D3*
X15236Y18740D3*
X15630Y15079D3*
X16181Y17441D3*
Y16929D3*
X16614Y16299D3*
X16811Y14685D3*
X16850Y23780D3*
X16969Y16693D3*
X17087Y17520D3*
X17244Y12677D3*
X30276Y15157D3*
X17638Y25079D3*
Y24409D3*
Y17520D3*
X17795Y14685D3*
X18071Y17835D3*
X18543Y14685D3*
X18701Y18701D3*
X18346Y12638D3*
X19094Y19764D3*
X20472Y25079D3*
Y24449D3*
X21299Y23189D3*
X21457Y17244D3*
X21890Y18110D3*
X22126Y21929D3*
X22874Y23425D3*
X23228Y17520D3*
Y16732D3*
Y15945D3*
Y15157D3*
Y14331D3*
X23346Y21496D3*
X23701Y25039D3*
Y24449D3*
X23661Y22638D3*
X23701Y12165D3*
X23740Y12913D3*
X24213Y20354D3*
X24764Y21457D3*
X25039Y22598D3*
X25236Y11693D3*
X25433Y10787D3*
X25630Y12520D3*
X26260Y11693D3*
X26378Y21575D3*
X26299Y10787D3*
X25276Y16378D3*
X28031Y20118D3*
X28071Y18898D3*
X31378Y18031D3*
X32835Y20748D3*
X32874Y11693D3*
X32953Y10709D3*
X32992Y9331D3*
X34449Y20748D3*
X34488Y25020D3*
Y24390D3*
X35118Y12126D3*
X35512Y12559D3*
X35630Y23622D3*
X35748Y20748D3*
X35945Y12953D3*
X36299Y22677D3*
X37165Y23701D3*
X37480Y9331D3*
X37362Y21969D3*
X37717Y25059D3*
Y24429D3*
X38071Y22992D3*
X38701Y13780D3*
X39173Y22756D3*
X38740Y21614D3*
X39921Y21496D3*
X40630Y21378D3*
X40984Y11654D3*
X41260Y18307D3*
X40512Y22677D3*
X41929Y10709D3*
X41535Y22323D3*
X42205Y21417D3*
X44252Y18346D3*
X46496Y9252D3*
X46535Y10709D3*
X46575Y11693D3*
X46614Y13819D3*
X46693Y18346D3*
X50000Y9252D3*
X50039Y13819D3*
X50079Y11693D3*
Y10709D3*
X18110Y13701D3*
X13858Y13819D3*
X14213Y15945D3*
X4304Y26142D2*
D26*
X6802D1*
X7290D2*
X11529D1*
X12016D2*
X14318D1*
X17727D2*
X17920D1*
X20188D2*
X20380D1*
X23790D2*
X34396D1*
X37805D2*
X43923D1*
X4304Y25893D2*
X6552D1*
X7544D2*
X11275D1*
X12266D2*
X14318D1*
X17727D2*
X17920D1*
X20188D2*
X20380D1*
X23790D2*
X34396D1*
X37805D2*
X43923D1*
X4304Y25645D2*
X6502D1*
X7591D2*
X11228D1*
X12317D2*
X14318D1*
X17727D2*
X17920D1*
X20180D2*
X20380D1*
X23790D2*
X25361D1*
X25837D2*
X26162D1*
X26638D2*
X26939D1*
X27411D2*
X27724D1*
X28200D2*
X29908D1*
X30427D2*
X30709D1*
X31223D2*
X31482D1*
X32001D2*
X32271D1*
X32786D2*
X34396D1*
X37805D2*
X39513D1*
X40016D2*
X40298D1*
X40805D2*
X41088D1*
X41591D2*
X41873D1*
X42380D2*
X42662D1*
X43165D2*
X43923D1*
X4304Y25396D2*
X6580D1*
X7516D2*
X11302D1*
X12239D2*
X14611D1*
X15782D2*
X16267D1*
X17434D2*
X18470D1*
X19641D2*
X20673D1*
X21845D2*
X22330D1*
X23497D2*
X25095D1*
X28466D2*
X29658D1*
X33040D2*
X34689D1*
X35860D2*
X36345D1*
X37513D2*
X39255D1*
X43423D2*
X43923D1*
X4304Y25147D2*
X14611D1*
X15782D2*
X16267D1*
X17434D2*
X18470D1*
X19641D2*
X20673D1*
X21845D2*
X22330D1*
X23497D2*
X25033D1*
X28528D2*
X29599D1*
X33095D2*
X34689D1*
X35860D2*
X36345D1*
X37513D2*
X39197D1*
X43477D2*
X43923D1*
X4304Y24899D2*
X9380D1*
X10145D2*
X14611D1*
X15782D2*
X16267D1*
X17434D2*
X18470D1*
X19641D2*
X20673D1*
X21845D2*
X22330D1*
X23497D2*
X25095D1*
X28466D2*
X29666D1*
X33028D2*
X34689D1*
X35860D2*
X36345D1*
X37513D2*
X39263D1*
X43415D2*
X43923D1*
X4304Y24650D2*
X9279D1*
X10247D2*
X14611D1*
X15782D2*
X16267D1*
X17434D2*
X18470D1*
X19641D2*
X20673D1*
X21845D2*
X22330D1*
X23497D2*
X25365D1*
X28196D2*
X29955D1*
X30376D2*
X30755D1*
X31177D2*
X31353D1*
X32130D2*
X32318D1*
X32739D2*
X34689D1*
X35860D2*
X36345D1*
X37513D2*
X39545D1*
X39981D2*
X40334D1*
X40770D2*
X41119D1*
X41555D2*
X41908D1*
X42345D2*
X42693D1*
X43134D2*
X43923D1*
X4304Y24401D2*
X9091D1*
X10204D2*
X14611D1*
X15782D2*
X16267D1*
X17434D2*
X18791D1*
X20173D2*
X20673D1*
X21845D2*
X22330D1*
X23497D2*
X25673D1*
X27661D2*
X31353D1*
X32130D2*
X34689D1*
X35860D2*
X36345D1*
X37513D2*
X43923D1*
X4304Y24153D2*
X8841D1*
X9872D2*
X14611D1*
X15782D2*
X16267D1*
X17434D2*
X18939D1*
X20317D2*
X20673D1*
X21845D2*
X22330D1*
X23497D2*
X25673D1*
X27661D2*
X31353D1*
X32130D2*
X34689D1*
X35860D2*
X36345D1*
X37513D2*
X43923D1*
X4304Y23904D2*
X8591D1*
X9532D2*
X19216D1*
X20305D2*
X25673D1*
X27661D2*
X31353D1*
X32130D2*
X43923D1*
X4304Y23655D2*
X6634D1*
X7458D2*
X8345D1*
X9282D2*
X11361D1*
X12184D2*
X19588D1*
X20098D2*
X25673D1*
X27731D2*
X31353D1*
X32130D2*
X39728D1*
X40263D2*
X40728D1*
X41263D2*
X41728D1*
X42263D2*
X42728D1*
X43263D2*
X43923D1*
X4304Y23406D2*
X6509D1*
X7583D2*
X8095D1*
X9032D2*
X11236D1*
X12309D2*
X12484D1*
X20923D2*
X25673D1*
X27981D2*
X31353D1*
X32130D2*
X39474D1*
X43520D2*
X43923D1*
X4304Y23158D2*
X6525D1*
X7571D2*
X7845D1*
X8786D2*
X11248D1*
X21169D2*
X25673D1*
X26688D2*
X26875D1*
X28227D2*
X31267D1*
X33106D2*
X39412D1*
X43583D2*
X43923D1*
X4304Y22909D2*
X6685D1*
X7407D2*
X7599D1*
X8536D2*
X8900D1*
X9290D2*
X11412D1*
X22118D2*
X25673D1*
X26688D2*
X27123D1*
X33106D2*
X39466D1*
X43528D2*
X43923D1*
X4304Y22660D2*
X7349D1*
X8286D2*
X8646D1*
X9544D2*
X12029D1*
X13364D2*
X19025D1*
X22118D2*
X25673D1*
X26798D2*
X27369D1*
X33106D2*
X39697D1*
X40294D2*
X40697D1*
X41294D2*
X41697D1*
X42294D2*
X42697D1*
X43294D2*
X43923D1*
X4304Y22412D2*
X7099D1*
X8040D2*
X8556D1*
X9575D2*
X12271D1*
X12692D2*
X19025D1*
X22118D2*
X25709D1*
X27048D2*
X27545D1*
X33106D2*
X43923D1*
X4304Y22163D2*
X6888D1*
X7790D2*
X8306D1*
X9454D2*
X19025D1*
X22118D2*
X25935D1*
X31114D2*
X43923D1*
X4304Y21914D2*
X6865D1*
X7544D2*
X8060D1*
X8997D2*
X19025D1*
X22118D2*
X26185D1*
X31364D2*
X43923D1*
X4304Y21666D2*
X6865D1*
X7544D2*
X7822D1*
X8751D2*
X9689D1*
X11766D2*
X12959D1*
X14993D2*
X16029D1*
X17200D2*
X17525D1*
X18696D2*
X19021D1*
X22118D2*
X26435D1*
X31614D2*
X43923D1*
X50485D2*
X55970D1*
X4304Y21417D2*
X6072D1*
X9243D2*
X9689D1*
X11766D2*
X12959D1*
X21473D2*
X26752D1*
X31860D2*
X43923D1*
X50485D2*
X55970D1*
X4304Y21168D2*
X6072D1*
X9243D2*
X9689D1*
X11766D2*
X12959D1*
X21473D2*
X27545D1*
X30602D2*
X30750D1*
X32110D2*
X43923D1*
X50485D2*
X55970D1*
X4304Y20920D2*
X6033D1*
X9243D2*
X9689D1*
X11766D2*
X12959D1*
X21473D2*
X27545D1*
X30684D2*
X30998D1*
X32360D2*
X43923D1*
X50485D2*
X55970D1*
X4304Y20671D2*
X6033D1*
X9243D2*
X9689D1*
X11766D2*
X12127D1*
X21473D2*
X27545D1*
X30618D2*
X31248D1*
X32606D2*
X43923D1*
X50485D2*
X55970D1*
X4304Y20422D2*
X6033D1*
X9243D2*
X9689D1*
X11766D2*
X12033D1*
X21473D2*
X31498D1*
X55454D2*
X55970D1*
X4304Y20174D2*
X6033D1*
X11970D2*
X12086D1*
X21473D2*
X22213D1*
X22907D2*
X31744D1*
X55704D2*
X55970D1*
X4304Y19925D2*
X5033D1*
X5755D2*
X6033D1*
X12048D2*
X12607D1*
X16751D2*
X17064D1*
X21466D2*
X22080D1*
X4304Y19676D2*
X4845D1*
X5942D2*
X6029D1*
X12048D2*
X12607D1*
X17001D2*
X17295D1*
X21466D2*
X21853D1*
X4304Y19427D2*
X4810D1*
X21466D2*
X21818D1*
X4304Y19179D2*
X4896D1*
X5891D2*
X6005D1*
X8638D2*
X9630D1*
X14669D2*
X15654D1*
X18516D2*
X18998D1*
X21466D2*
X21818D1*
X4304Y18930D2*
X5041D1*
X5747D2*
X6005D1*
X9110D2*
X9630D1*
X14766D2*
X15654D1*
X18516D2*
X18990D1*
X21466D2*
X21830D1*
X26118D2*
X36474D1*
X4304Y18681D2*
X4849D1*
X9255D2*
X9630D1*
X15016D2*
X15654D1*
X18516D2*
X18990D1*
X21466D2*
X22017D1*
X26294D2*
X36673D1*
X4304Y18433D2*
X4810D1*
X11790D2*
X11951D1*
X21466D2*
X23248D1*
X26622D2*
X36498D1*
X38333D2*
X52494D1*
X4304Y18184D2*
X4892D1*
X5895D2*
X6005D1*
X11837D2*
X11953D1*
X16036D2*
X18134D1*
X21466D2*
X23498D1*
X26665D2*
X36498D1*
X38087D2*
X52744D1*
X4304Y17935D2*
X5048D1*
X5739D2*
X6005D1*
X9298D2*
X9630D1*
X12083D2*
X12607D1*
X16036D2*
X16861D1*
X17313D2*
X17410D1*
X17864D2*
X18134D1*
X21450D2*
X23002D1*
X23454D2*
X23802D1*
X26563D2*
X36670D1*
X37837D2*
X52990D1*
X4304Y17687D2*
X4849D1*
X8915D2*
X9478D1*
X12395D2*
X12607D1*
X21614D2*
X22771D1*
X23684D2*
X23880D1*
X26196D2*
X36474D1*
X37587D2*
X53240D1*
X4304Y17438D2*
X4810D1*
X8915D2*
X9232D1*
X12493D2*
X12608D1*
X14204D2*
X14830D1*
X21899D2*
X22716D1*
X23708D2*
X23880D1*
X26196D2*
X36451D1*
X37407D2*
X53287D1*
X4304Y17189D2*
X4888D1*
X5899D2*
X6005D1*
X12493D2*
X12608D1*
X14204D2*
X14396D1*
X14580D2*
X14830D1*
X16595D2*
X16737D1*
X21938D2*
X22466D1*
X23575D2*
X23880D1*
X26196D2*
X36584D1*
X37278D2*
X53341D1*
X4304Y16941D2*
X5056D1*
X5731D2*
X6005D1*
X21829D2*
X22220D1*
X23665D2*
X23880D1*
X26196D2*
X53588D1*
X4304Y16692D2*
X4853D1*
X21450D2*
X21970D1*
X23712D2*
X23880D1*
X26196D2*
X53345D1*
X55680D2*
X55970D1*
X4304Y16443D2*
X4810D1*
X5977D2*
X6716D1*
X17384D2*
X17728D1*
X21450D2*
X21720D1*
X23614D2*
X24795D1*
X25759D2*
X53287D1*
X55454D2*
X55970D1*
X4304Y16195D2*
X4884D1*
X5903D2*
X6716D1*
X14208D2*
X14320D1*
X17091D2*
X18134D1*
X23641D2*
X24826D1*
X25723D2*
X53341D1*
X55399D2*
X55970D1*
X4304Y15946D2*
X4908D1*
X5880D2*
X6716D1*
X14208D2*
X14306D1*
X23716D2*
X25088D1*
X25462D2*
X53576D1*
X55165D2*
X55970D1*
X4304Y15697D2*
X4853D1*
X5934D2*
X6966D1*
X14985D2*
X15134D1*
X18841D2*
X19080D1*
X22583D2*
X22814D1*
X23641D2*
X33818D1*
X34372D2*
X53349D1*
X55391D2*
X55970D1*
X4304Y15448D2*
X4689D1*
X5977D2*
X6966D1*
X23610D2*
X23880D1*
X26196D2*
X29892D1*
X30657D2*
X33568D1*
X34618D2*
X53287D1*
X55454D2*
X55970D1*
X4304Y15200D2*
X4439D1*
X5907D2*
X6966D1*
X23712D2*
X23880D1*
X26196D2*
X29791D1*
X30759D2*
X33509D1*
X34680D2*
X53338D1*
X55403D2*
X55970D1*
X5716Y14951D2*
X6966D1*
X11016D2*
X11193D1*
X23665D2*
X23880D1*
X26196D2*
X29838D1*
X30973D2*
X33568D1*
X34622D2*
X53568D1*
X55173D2*
X55970D1*
X5930Y14702D2*
X6966D1*
X11016D2*
X11443D1*
X15923D2*
X16326D1*
X22259D2*
X22931D1*
X23528D2*
X23880D1*
X26196D2*
X30173D1*
X31223D2*
X33806D1*
X34384D2*
X53353D1*
X55388D2*
X55970D1*
X5977Y14454D2*
X6966D1*
X11016D2*
X11693D1*
X12630D2*
X13908D1*
X15626D2*
X16033D1*
X23700D2*
X23880D1*
X26196D2*
X30490D1*
X31470D2*
X33572D1*
X34618D2*
X53287D1*
X55454D2*
X55970D1*
X5907Y14205D2*
X6966D1*
X11016D2*
X11939D1*
X13087D2*
X13580D1*
X23696D2*
X23880D1*
X26196D2*
X30736D1*
X31720D2*
X33509D1*
X34680D2*
X53334D1*
X55403D2*
X55970D1*
X5708Y13956D2*
X6966D1*
X11016D2*
X12189D1*
X13200D2*
X13392D1*
X22141D2*
X22931D1*
X23524D2*
X23880D1*
X26196D2*
X30986D1*
X31970D2*
X33564D1*
X34626D2*
X53556D1*
X55184D2*
X55970D1*
X5930Y13708D2*
X6966D1*
X11016D2*
X12271D1*
X13161D2*
X13384D1*
X21891D2*
X31236D1*
X32216D2*
X33798D1*
X34391D2*
X53353D1*
X55384D2*
X55970D1*
X5977Y13459D2*
X6966D1*
X11016D2*
X12548D1*
X12884D2*
X13545D1*
X21645D2*
X31482D1*
X32466D2*
X33576D1*
X34614D2*
X53287D1*
X55454D2*
X55970D1*
X5977Y13210D2*
X6966D1*
X11016D2*
X13724D1*
X21450D2*
X22904D1*
X25997D2*
X31732D1*
X36352D2*
X53334D1*
X55407D2*
X55970D1*
X5977Y12962D2*
X6908D1*
X8934D2*
X9026D1*
X11016D2*
X13724D1*
X21450D2*
X22627D1*
X55192D2*
X55970D1*
X5977Y12713D2*
X6838D1*
X11095D2*
X16740D1*
X20016D2*
X22380D1*
X55384D2*
X55970D1*
X6169Y12464D2*
X6912D1*
X17680D2*
X22130D1*
X55454D2*
X55970D1*
X6415Y12216D2*
X7845D1*
X55677D2*
X55970D1*
X6665Y11967D2*
X9670D1*
X55786D2*
X55970D1*
X6915Y11718D2*
X9916D1*
X23192D2*
X23560D1*
X23841D2*
X34877D1*
X35360D2*
X52595D1*
X55786D2*
X55970D1*
X7161Y11469D2*
X9037D1*
X55786D2*
X55970D1*
X7411Y11221D2*
X8963D1*
X55778D2*
X55970D1*
X5680Y10972D2*
X6138D1*
X7544D2*
X9033D1*
X55598D2*
X55970D1*
X5923Y10723D2*
X6384D1*
X7555D2*
X9990D1*
X10954D2*
X12380D1*
X13055D2*
X20658D1*
X22013D2*
X52838D1*
X55376D2*
X55970D1*
X5977Y10475D2*
X6463D1*
X7555D2*
X10107D1*
X10837D2*
X20701D1*
X55454D2*
X55970D1*
X5919Y10226D2*
X6463D1*
X7555D2*
X20658D1*
X55415D2*
X55970D1*
X5673Y9977D2*
X6463D1*
X7555D2*
X20709D1*
X55216D2*
X55970D1*
X5919Y9729D2*
X6463D1*
X7555D2*
X20658D1*
X55372D2*
X55970D1*
X5977Y9480D2*
X6463D1*
X7555D2*
X20752D1*
X55454D2*
X55970D1*
X5923Y9231D2*
X6463D1*
X7555D2*
X22498D1*
X23091D2*
X38521D1*
X39114D2*
X52877D1*
X55415D2*
X55970D1*
X5977Y8983D2*
X6463D1*
X7555D2*
X22326D1*
X23266D2*
X38349D1*
X39290D2*
X53123D1*
X55223D2*
X55970D1*
X5977Y8734D2*
X6463D1*
X7555D2*
X22310D1*
X23282D2*
X38334D1*
X39305D2*
X53369D1*
X55372D2*
X55970D1*
X5977Y8485D2*
X6463D1*
X7555D2*
X22252D1*
X23337D2*
X38283D1*
X39356D2*
X43099D1*
X44946D2*
X53287D1*
X55454D2*
X55970D1*
X5977Y8237D2*
X6463D1*
X39364D2*
X42849D1*
X45052D2*
X53322D1*
X55419D2*
X55970D1*
X5977Y7988D2*
X6463D1*
X39364D2*
X42603D1*
X45009D2*
X53509D1*
X55231D2*
X55970D1*
X5302Y7739D2*
X6509D1*
X39317D2*
X42353D1*
X44696D2*
X53373D1*
X55368D2*
X55970D1*
X5548Y7490D2*
X6744D1*
X39083D2*
X42103D1*
X43348D2*
X53287D1*
X55454D2*
X55970D1*
X4304Y7242D2*
X4443D1*
X5798D2*
X41857D1*
X43098D2*
X53322D1*
X55419D2*
X55970D1*
X4304Y6993D2*
X4693D1*
X6048D2*
X41607D1*
X42852D2*
X53287D1*
X55235D2*
X55970D1*
X4304Y6744D2*
X4939D1*
X42602D2*
X53287D1*
X55364D2*
X55970D1*
X4304Y6496D2*
X5189D1*
X42352D2*
X53287D1*
X55454D2*
X55970D1*
X4304Y6247D2*
X5439D1*
X42106D2*
X53287D1*
X55423D2*
X55970D1*
X4304Y5998D2*
X6521D1*
X7493D2*
X22271D1*
X23243D2*
X38334D1*
X39305D2*
X53287D1*
X55243D2*
X55970D1*
X4304Y5750D2*
X6521D1*
X7493D2*
X22271D1*
X23243D2*
X38334D1*
X39305D2*
X55970D1*
X4304Y5501D2*
X6552D1*
X7462D2*
X22318D1*
X23192D2*
X38380D1*
X39255D2*
X55970D1*
X4304Y5252D2*
X6787D1*
X7231D2*
X22662D1*
X22851D2*
X38724D1*
X38912D2*
X55970D1*
X4304Y5004D2*
X55970D1*
X4304Y4755D2*
X55970D1*
X4304Y4506D2*
X55970D1*
X22093Y22355D2*
Y21425D1*
X21449D1*
X21445Y20607D1*
X21449Y20192D1*
Y19937D1*
X21437D1*
X21441Y19299D1*
Y18039D1*
X21424D1*
Y17705D1*
X21530Y17700D1*
X21650Y17664D1*
X21755Y17597D1*
X21838Y17504D1*
X21894Y17393D1*
X21918Y17244D1*
X21902Y17121D1*
X21852Y17006D1*
X21774Y16909D1*
X21673Y16836D1*
X21556Y16793D1*
X21421Y16785D1*
X21424Y16704D1*
X21420Y16149D1*
X21424Y16120D1*
X22769Y17465D1*
Y17569D1*
X22799Y17690D1*
X22860Y17798D1*
X22948Y17887D1*
X23057Y17948D1*
X23177Y17979D1*
X23302Y17976D1*
X23421Y17939D1*
X23526Y17872D1*
X23610Y17780D1*
X23666Y17668D1*
X23690Y17520D1*
X23673Y17396D1*
X23624Y17282D1*
X23546Y17185D1*
X23467Y17128D1*
X23526Y17085D1*
X23610Y16992D1*
X23666Y16881D1*
X23690Y16732D1*
X23673Y16609D1*
X23624Y16494D1*
X23546Y16397D1*
X23467Y16340D1*
X23526Y16298D1*
X23610Y16205D1*
X23666Y16094D1*
X23690Y15945D1*
X23673Y15821D1*
X23624Y15707D1*
X23546Y15610D1*
X23467Y15553D1*
X23526Y15510D1*
X23610Y15418D1*
X23666Y15306D1*
X23690Y15157D1*
X23673Y15034D1*
X23624Y14920D1*
X23546Y14822D1*
X23434Y14746D1*
X23526Y14683D1*
X23610Y14591D1*
X23666Y14479D1*
X23690Y14331D1*
X23673Y14207D1*
X23624Y14093D1*
X23546Y13996D1*
X23445Y13923D1*
X23328Y13880D1*
X23204Y13870D1*
X23081Y13893D1*
X22970Y13948D1*
X22891Y14018D1*
X22178Y14017D1*
X21432Y13273D1*
X21424Y13101D1*
Y12921D1*
X20544Y12925D1*
X20130Y12921D1*
X19993D1*
X19992Y12670D1*
X18385Y12668D1*
Y12639D1*
X17701D1*
X17689Y12554D1*
X17640Y12439D1*
X17562Y12342D1*
X17502Y12299D1*
X21987Y12298D1*
X22838Y13147D1*
X22940Y13216D1*
X23071Y13243D1*
X23419D1*
X23460Y13280D1*
X23568Y13342D1*
X23689Y13372D1*
X23814Y13369D1*
X23933Y13333D1*
X24056Y13246D1*
X25365Y13243D1*
X25827D1*
X25949Y13220D1*
X26054Y13153D1*
X26197Y13002D1*
X31965Y13001D1*
X30271Y14696D1*
X30129Y14720D1*
X30017Y14775D1*
X29924Y14858D1*
X29857Y14963D1*
X29820Y15082D1*
X29816Y15207D1*
X29846Y15328D1*
X29907Y15436D1*
X29995Y15525D1*
X30104Y15586D1*
X30225Y15616D1*
X30349Y15613D1*
X30468Y15577D1*
X30574Y15510D1*
X30657Y15418D1*
X30713Y15306D1*
X30737Y15162D1*
X32539Y13361D1*
X33562D1*
X33585Y13430D1*
X33649Y13537D1*
X33735Y13627D1*
X33843Y13697D1*
X33751Y13754D1*
X33661Y13842D1*
X33594Y13946D1*
X33550Y14063D1*
X33534Y14187D1*
X33546Y14311D1*
X33585Y14430D1*
X33649Y14537D1*
X33735Y14627D1*
X33843Y14697D1*
X33751Y14754D1*
X33661Y14842D1*
X33594Y14946D1*
X33550Y15063D1*
X33534Y15187D1*
X33546Y15311D1*
X33585Y15430D1*
X33649Y15537D1*
X33735Y15627D1*
X33839Y15696D1*
X33956Y15740D1*
X34080Y15757D1*
X34204Y15746D1*
X34323Y15708D1*
X34430Y15645D1*
X34521Y15560D1*
X34591Y15456D1*
X34636Y15340D1*
X34655Y15197D1*
X34641Y15073D1*
X34600Y14955D1*
X34534Y14849D1*
X34446Y14761D1*
X34344Y14696D1*
X34430Y14645D1*
X34521Y14560D1*
X34591Y14456D1*
X34636Y14340D1*
X34655Y14197D1*
X34641Y14073D1*
X34600Y13955D1*
X34534Y13849D1*
X34446Y13761D1*
X34344Y13696D1*
X34430Y13645D1*
X34521Y13560D1*
X34591Y13456D1*
X34636Y13340D1*
X34654Y13216D1*
X34704Y13246D1*
X34843Y13277D1*
X35620D1*
X35665Y13320D1*
X35773Y13381D1*
X35894Y13412D1*
X36019Y13409D1*
X36138Y13372D1*
X36243Y13305D1*
X36326Y13213D1*
X36382Y13101D1*
X36393Y13044D1*
X36806Y13041D1*
X53470Y13044D1*
X53393Y13143D1*
X53340Y13255D1*
X53313Y13377D1*
X53314Y13502D1*
X53342Y13623D1*
X53396Y13736D1*
X53474Y13833D1*
X53572Y13911D1*
X53617Y13937D1*
X53507Y14010D1*
X53422Y14101D1*
X53358Y14209D1*
X53321Y14328D1*
X53310Y14452D1*
X53327Y14576D1*
X53371Y14692D1*
X53440Y14796D1*
X53530Y14883D1*
X53617Y14937D1*
X53526Y14995D1*
X53437Y15082D1*
X53369Y15186D1*
X53326Y15303D1*
X53310Y15427D1*
X53322Y15551D1*
X53361Y15670D1*
X53425Y15777D1*
X53511Y15867D1*
X53619Y15937D1*
X53526Y15995D1*
X53437Y16082D1*
X53369Y16186D1*
X53326Y16303D1*
X53310Y16427D1*
X53322Y16551D1*
X53361Y16670D1*
X53425Y16777D1*
X53511Y16867D1*
X53619Y16937D1*
X53526Y16995D1*
X53437Y17082D1*
X53369Y17186D1*
X53326Y17303D1*
X53310Y17427D1*
X53322Y17551D1*
X53345Y17622D1*
X53271Y17680D1*
X52423Y18528D1*
X38407D1*
X37393Y17517D1*
X37374Y17396D1*
X37325Y17282D1*
X37247Y17185D1*
X37146Y17112D1*
X37029Y17069D1*
X36904Y17059D1*
X36782Y17082D1*
X36670Y17137D1*
X36578Y17220D1*
X36510Y17325D1*
X36474Y17444D1*
X36470Y17569D1*
X36500Y17690D1*
X36561Y17798D1*
X36649Y17887D1*
X36713Y17923D1*
X36617Y18008D1*
X36550Y18113D1*
X36513Y18232D1*
X36509Y18356D1*
X36539Y18477D1*
X36600Y18586D1*
X36712Y18688D1*
X36670Y18712D1*
X36578Y18795D1*
X36510Y18900D1*
X36474Y19019D1*
X36472Y19078D1*
X32864Y19080D1*
X26095Y19076D1*
Y18680D1*
X26255Y18684D1*
X26374Y18648D1*
X26479Y18581D1*
X26563Y18489D1*
X26618Y18377D1*
X26643Y18228D1*
X26626Y18105D1*
X26577Y17990D1*
X26499Y17893D1*
X26398Y17820D1*
X26281Y17777D1*
X26168Y17768D1*
X26170Y16467D1*
X25729D1*
X25737Y16378D1*
X25721Y16254D1*
X25671Y16140D1*
X25593Y16043D1*
X25492Y15970D1*
X25375Y15927D1*
X25251Y15917D1*
X25129Y15940D1*
X25017Y15995D1*
X24924Y16079D1*
X24857Y16184D1*
X24820Y16303D1*
X24816Y16427D1*
X24827Y16469D1*
X24404Y16471D1*
X24295Y16467D1*
X23904D1*
Y17831D1*
X23826Y17828D1*
Y17949D1*
X23681Y18026D1*
X23213Y18494D1*
X22362Y18495D1*
X22240Y18519D1*
X22133Y18590D1*
X21936Y18787D1*
X21867Y18890D1*
X21841Y19016D1*
Y19528D1*
X21865Y19649D1*
X21936Y19757D1*
X22105Y19925D1*
X22130Y20013D1*
X22191Y20121D1*
X22279Y20210D1*
X22387Y20271D1*
X22508Y20301D1*
X22633Y20298D1*
X22752Y20262D1*
X22857Y20195D1*
X22941Y20103D1*
X22984Y20016D1*
X31931Y20015D1*
X30535Y21408D1*
X29439D1*
X29438Y21365D1*
X30197Y21367D1*
X30320Y21350D1*
X30435Y21301D1*
X30532Y21223D1*
X30605Y21122D1*
X30648Y21005D1*
X30658Y20881D1*
X30635Y20758D1*
X30579Y20647D1*
X30496Y20554D1*
X30391Y20487D1*
X30272Y20450D1*
X29947Y20444D1*
X27570D1*
Y21409D1*
X26850Y21408D1*
X26728Y21432D1*
X26621Y21503D1*
X25795Y22330D1*
X25725Y22433D1*
X25700Y22559D1*
Y24586D1*
X25450Y24628D1*
X25335Y24676D1*
X25234Y24749D1*
X25153Y24843D1*
X25095Y24954D1*
X25064Y25075D1*
X25061Y25199D1*
X25088Y25321D1*
X25141Y25434D1*
X25219Y25532D1*
X25317Y25609D1*
X25430Y25661D1*
X25552Y25686D1*
X25677Y25683D1*
X25798Y25651D1*
X25908Y25592D1*
X25998Y25512D1*
X26117Y25609D1*
X26230Y25661D1*
X26352Y25686D1*
X26477Y25683D1*
X26597Y25651D1*
X26707Y25592D1*
X26786Y25522D1*
X26892Y25609D1*
X27005Y25661D1*
X27127Y25686D1*
X27252Y25683D1*
X27372Y25651D1*
X27482Y25592D1*
X27567Y25517D1*
X27658Y25595D1*
X27769Y25653D1*
X27890Y25683D1*
X28014Y25686D1*
X28136Y25659D1*
X28249Y25605D1*
X28346Y25527D1*
X28423Y25429D1*
X28475Y25316D1*
X28500Y25194D1*
X28497Y25073D1*
X28466Y24952D1*
X28407Y24842D1*
X28325Y24748D1*
X28224Y24675D1*
X28109Y24628D1*
X27986Y24608D1*
X27861Y24617D1*
X27742Y24654D1*
X27635Y24717D1*
X27636Y23722D1*
X28222Y23140D1*
X29438Y23139D1*
Y23119D1*
X31289D1*
X31290Y23395D1*
X31380D1*
X31378Y24761D1*
X31353Y24786D1*
X31291Y24726D1*
X31184Y24663D1*
X31064Y24626D1*
X30940Y24618D1*
X30817Y24638D1*
X30702Y24686D1*
X30601Y24759D1*
X30567Y24797D1*
X30492Y24726D1*
X30384Y24663D1*
X30265Y24626D1*
X30140Y24618D1*
X30017Y24638D1*
X29902Y24686D1*
X29801Y24759D1*
X29719Y24853D1*
X29662Y24964D1*
X29631Y25085D1*
X29628Y25209D1*
X29654Y25331D1*
X29708Y25444D1*
X29786Y25541D1*
X29884Y25618D1*
X29997Y25671D1*
X30119Y25696D1*
X30244Y25692D1*
X30364Y25660D1*
X30474Y25602D1*
X30565Y25522D1*
X30683Y25618D1*
X30797Y25671D1*
X30919Y25696D1*
X31043Y25692D1*
X31164Y25660D1*
X31274Y25602D1*
X31353Y25532D1*
X31459Y25618D1*
X31572Y25671D1*
X31694Y25696D1*
X31819Y25692D1*
X31939Y25660D1*
X32049Y25602D1*
X32134Y25527D1*
X32225Y25605D1*
X32336Y25662D1*
X32457Y25693D1*
X32581Y25695D1*
X32703Y25669D1*
X32816Y25615D1*
X32913Y25537D1*
X32990Y25439D1*
X33042Y25326D1*
X33067Y25204D1*
X33064Y25083D1*
X33032Y24962D1*
X32974Y24852D1*
X32892Y24758D1*
X32791Y24685D1*
X32676Y24637D1*
X32553Y24618D1*
X32428Y24626D1*
X32309Y24664D1*
X32202Y24727D1*
X32135Y24787D1*
X32104Y24657D1*
Y23396D1*
X33080Y23395D1*
Y22274D1*
X31290D1*
Y22396D1*
X30200Y22393D1*
X29438Y22389D1*
Y22330D1*
X30787Y22332D1*
X30909Y22308D1*
X31016Y22237D1*
X32693Y20560D1*
X43954D1*
X43950Y21288D1*
Y26391D1*
X37782D1*
Y25571D1*
X37721Y25465D1*
X37657Y25446D1*
X37490D1*
X37489Y23928D1*
X36369D1*
Y25446D1*
X35833D1*
X35836Y25186D1*
Y23928D1*
X34715D1*
Y25446D1*
X34547D1*
X34442Y25507D1*
X34422Y25571D1*
Y26391D1*
X23767D1*
Y25571D1*
X23706Y25465D1*
X23642Y25446D1*
X23474D1*
Y23928D1*
X22353D1*
Y25446D1*
X21818D1*
X21820Y25186D1*
Y23928D1*
X20700D1*
Y25446D1*
X20531D1*
X20426Y25507D1*
X20406Y25571D1*
Y26391D1*
X20164D1*
Y25768D1*
X20103Y25662D1*
X20039Y25643D1*
X19614D1*
X19615Y24479D1*
X19565D1*
X19606Y24452D1*
X19671Y24484D1*
X19792Y24514D1*
X19916Y24511D1*
X20035Y24475D1*
X20141Y24408D1*
X20224Y24315D1*
X20280Y24204D1*
X20304Y24055D1*
X20287Y23932D1*
X20238Y23817D1*
X20160Y23720D1*
X20059Y23647D1*
X19942Y23604D1*
X19818Y23594D1*
X19695Y23617D1*
X19584Y23673D1*
X19491Y23756D1*
X19468Y23792D1*
X19334Y23850D1*
X19208Y23924D1*
X19094Y24015D1*
X18992Y24120D1*
X18905Y24237D1*
X18834Y24364D1*
X18788Y24478D1*
X18495Y24479D1*
Y25639D1*
X18071Y25643D1*
X17965Y25704D1*
X17946Y25768D1*
Y26391D1*
X17704D1*
Y25571D1*
X17643Y25465D1*
X17579Y25446D1*
X17411D1*
Y23928D1*
X16290D1*
Y25446D1*
X15755D1*
X15757Y25186D1*
Y23928D1*
X14637D1*
Y25446D1*
X14469D1*
X14363Y25507D1*
X14344Y25571D1*
Y26391D1*
X4279D1*
X4280Y15015D1*
X4840Y15576D1*
X4884Y15709D1*
X4930Y15786D1*
X4932Y16160D1*
X4893Y16226D1*
X4850Y16343D1*
X4834Y16466D1*
X4845Y16591D1*
X4884Y16709D1*
X4948Y16816D1*
X5035Y16906D1*
X5142Y16976D1*
X5050Y17034D1*
X4961Y17121D1*
X4893Y17226D1*
X4850Y17343D1*
X4834Y17466D1*
X4845Y17591D1*
X4884Y17709D1*
X4948Y17816D1*
X5035Y17906D1*
X5142Y17976D1*
X5050Y18034D1*
X4961Y18121D1*
X4893Y18226D1*
X4850Y18343D1*
X4834Y18466D1*
X4845Y18591D1*
X4884Y18709D1*
X4948Y18816D1*
X5035Y18906D1*
X5142Y18976D1*
X5050Y19034D1*
X4961Y19121D1*
X4893Y19226D1*
X4850Y19343D1*
X4834Y19466D1*
X4845Y19591D1*
X4884Y19709D1*
X4948Y19816D1*
X5035Y19906D1*
X5139Y19975D1*
X5255Y20019D1*
X5379Y20036D1*
X5503Y20026D1*
X5622Y19988D1*
X5730Y19925D1*
X5820Y19839D1*
X5890Y19736D1*
X5935Y19620D1*
X5954Y19476D1*
X5940Y19352D1*
X5899Y19235D1*
X5833Y19129D1*
X5745Y19040D1*
X5643Y18975D1*
X5730Y18925D1*
X5820Y18839D1*
X5890Y18736D1*
X5935Y18620D1*
X5954Y18476D1*
X5940Y18352D1*
X5899Y18235D1*
X5833Y18129D1*
X5745Y18040D1*
X5643Y17975D1*
X5730Y17925D1*
X5820Y17839D1*
X5890Y17736D1*
X5935Y17620D1*
X5954Y17476D1*
X5940Y17352D1*
X5899Y17235D1*
X5833Y17129D1*
X5745Y17040D1*
X5643Y16975D1*
X5730Y16925D1*
X5820Y16839D1*
X5890Y16736D1*
X5935Y16620D1*
X5954Y16476D1*
X5940Y16352D1*
X5899Y16235D1*
X5856Y16165D1*
X5855Y15793D1*
X5890Y15736D1*
X5935Y15620D1*
X5954Y15476D1*
X5940Y15352D1*
X5899Y15235D1*
X5833Y15129D1*
X5745Y15040D1*
X5643Y14975D1*
X5730Y14925D1*
X5820Y14839D1*
X5890Y14736D1*
X5935Y14620D1*
X5954Y14496D1*
X5945Y14377D1*
X5909Y14257D1*
X5848Y14149D1*
X5764Y14056D1*
X5662Y13985D1*
X5646Y13976D1*
X5730Y13925D1*
X5820Y13839D1*
X5890Y13736D1*
X5935Y13620D1*
X5954Y13476D1*
Y12652D1*
X7376Y11230D1*
X7453Y11132D1*
X7505Y11019D1*
X7529Y10862D1*
Y8474D1*
X22277D1*
X22289Y8549D1*
X22334Y8675D1*
Y8858D1*
X22350Y8982D1*
X22400Y9096D1*
X22478Y9193D1*
X22579Y9266D1*
X22696Y9309D1*
X22820Y9319D1*
X22942Y9296D1*
X23054Y9241D1*
X23147Y9158D1*
X23214Y9053D1*
X23251Y8934D1*
X23257Y8667D1*
X23298Y8560D1*
X23311Y8471D1*
X25420Y8474D1*
X38307D1*
X38357Y8626D1*
Y8858D1*
X38374Y8982D1*
X38423Y9096D1*
X38501Y9193D1*
X38602Y9266D1*
X38719Y9309D1*
X38844Y9319D1*
X38966Y9296D1*
X39078Y9241D1*
X39170Y9158D1*
X39238Y9053D1*
X39274Y8934D1*
X39281Y8628D1*
X39322Y8521D1*
X39340Y8386D1*
Y7953D1*
X39325Y7829D1*
X39281Y7712D1*
X39210Y7609D1*
X39118Y7526D1*
X39008Y7467D1*
X38850Y7433D1*
X19170Y7432D1*
X7008D1*
X6884Y7447D1*
X6767Y7491D1*
X6664Y7561D1*
X6581Y7654D1*
X6522Y7764D1*
X6491Y7889D1*
X6487Y8078D1*
Y10648D1*
X5899Y11235D1*
X5833Y11129D1*
X5745Y11040D1*
X5646Y10976D1*
X5730Y10925D1*
X5820Y10839D1*
X5890Y10736D1*
X5935Y10620D1*
X5954Y10476D1*
X5940Y10352D1*
X5899Y10235D1*
X5833Y10129D1*
X5745Y10040D1*
X5643Y9975D1*
X5730Y9925D1*
X5820Y9839D1*
X5890Y9736D1*
X5935Y9620D1*
X5954Y9476D1*
X5940Y9352D1*
X5899Y9235D1*
X5833Y9129D1*
X5742Y9038D1*
X5954Y9037D1*
Y7916D1*
X5098D1*
X6057Y6958D1*
X38819D1*
X38969Y6932D1*
X38844Y6957D1*
X39002Y6918D1*
X41557D1*
X43127Y8488D1*
X43227Y8562D1*
X43349Y8604D1*
X43593Y8611D1*
X43732Y8648D1*
X44173Y8651D1*
X44567D1*
X44690Y8634D1*
X44805Y8585D1*
X44902Y8507D1*
X44975Y8405D1*
X45018Y8289D1*
X45028Y8164D1*
X45005Y8042D1*
X44949Y7930D1*
X44866Y7837D1*
X44761Y7770D1*
X44642Y7733D1*
X44317Y7727D1*
X43780D1*
X43629Y7753D1*
X43547Y7714D1*
X42031Y6197D1*
X41931Y6123D1*
X41809Y6081D1*
X41607Y6074D1*
X39281Y6070D1*
Y5709D1*
X39264Y5585D1*
X39215Y5471D1*
X39137Y5374D1*
X39035Y5301D1*
X38918Y5258D1*
X38794Y5248D1*
X38672Y5271D1*
X38560Y5326D1*
X38467Y5409D1*
X38400Y5514D1*
X38363Y5633D1*
X38357Y5959D1*
X38354Y6034D1*
X23218Y6031D1*
Y5709D1*
X23201Y5585D1*
X23152Y5471D1*
X23074Y5374D1*
X22972Y5301D1*
X22855Y5258D1*
X22731Y5248D1*
X22609Y5271D1*
X22497Y5326D1*
X22404Y5409D1*
X22337Y5514D1*
X22300Y5633D1*
X22294Y5959D1*
Y6033D1*
X13506Y6034D1*
X7471D1*
X7470Y5669D1*
X7453Y5546D1*
X7404Y5431D1*
X7326Y5334D1*
X7224Y5261D1*
X7107Y5218D1*
X6983Y5208D1*
X6861Y5232D1*
X6749Y5287D1*
X6656Y5370D1*
X6589Y5475D1*
X6552Y5594D1*
X6546Y5919D1*
Y6033D1*
X5866Y6034D1*
X5743Y6051D1*
X5597Y6121D1*
X5363Y6346D1*
X4277Y7432D1*
X4279Y4279D1*
X55997D1*
Y21706D1*
X50460D1*
Y20561D1*
X55157Y20560D1*
X55279Y20536D1*
X55387Y20465D1*
X55859Y19993D1*
X55928Y19890D1*
X55954Y19764D1*
Y17126D1*
X55930Y17004D1*
X55859Y16897D1*
X55428Y16468D1*
X55416Y16313D1*
X55375Y16195D1*
X55309Y16089D1*
X55222Y16001D1*
X55122Y15935D1*
X55206Y15885D1*
X55297Y15800D1*
X55367Y15697D1*
X55412Y15580D1*
X55430Y15437D1*
X55416Y15313D1*
X55375Y15195D1*
X55309Y15089D1*
X55222Y15001D1*
X55123Y14937D1*
X55226Y14870D1*
X55313Y14781D1*
X55378Y14674D1*
X55418Y14556D1*
X55430Y14437D1*
X55416Y14313D1*
X55375Y14195D1*
X55309Y14089D1*
X55222Y14001D1*
X55123Y13937D1*
X55226Y13870D1*
X55313Y13781D1*
X55378Y13674D1*
X55418Y13556D1*
X55430Y13437D1*
X55416Y13313D1*
X55375Y13195D1*
X55309Y13089D1*
X55222Y13001D1*
X55123Y12937D1*
X55206Y12885D1*
X55297Y12800D1*
X55367Y12697D1*
X55412Y12580D1*
X55430Y12438D1*
X55666Y12202D1*
X55736Y12099D1*
X55763Y11969D1*
Y11299D1*
X55740Y11177D1*
X55666Y11066D1*
X55338Y10739D1*
X55367Y10697D1*
X55412Y10580D1*
X55430Y10437D1*
X55416Y10313D1*
X55375Y10195D1*
X55309Y10089D1*
X55222Y10001D1*
X55122Y9935D1*
X55206Y9885D1*
X55297Y9800D1*
X55367Y9697D1*
X55412Y9580D1*
X55430Y9437D1*
X55416Y9313D1*
X55375Y9195D1*
X55309Y9089D1*
X55222Y9001D1*
X55122Y8935D1*
X55206Y8885D1*
X55297Y8800D1*
X55367Y8697D1*
X55412Y8580D1*
X55430Y8437D1*
X55416Y8313D1*
X55375Y8195D1*
X55309Y8089D1*
X55222Y8001D1*
X55120Y7936D1*
X55206Y7885D1*
X55297Y7800D1*
X55367Y7697D1*
X55412Y7580D1*
X55430Y7457D1*
X55421Y7338D1*
X55386Y7218D1*
X55324Y7109D1*
X55241Y7017D1*
X55139Y6945D1*
X55123Y6937D1*
X55206Y6885D1*
X55297Y6800D1*
X55367Y6697D1*
X55412Y6580D1*
X55430Y6437D1*
X55416Y6313D1*
X55375Y6195D1*
X55309Y6089D1*
X55222Y6001D1*
X55116Y5934D1*
X54999Y5892D1*
X54875Y5877D1*
X54751Y5890D1*
X54633Y5930D1*
X54526Y5995D1*
X54431Y6091D1*
X54430Y5877D1*
X53310D1*
Y6997D1*
X53525D1*
X53437Y7082D1*
X53369Y7186D1*
X53326Y7303D1*
X53310Y7427D1*
X53322Y7551D1*
X53361Y7670D1*
X53425Y7777D1*
X53511Y7867D1*
X53619Y7937D1*
X53526Y7995D1*
X53437Y8082D1*
X53369Y8186D1*
X53326Y8303D1*
X53310Y8427D1*
X53322Y8551D1*
X53361Y8670D1*
X53399Y8733D1*
X52696Y9436D1*
X47210Y9434D1*
X21459Y9429D1*
X21358Y9356D1*
X21241Y9313D1*
X21117Y9303D1*
X20995Y9326D1*
X20883Y9381D1*
X20790Y9464D1*
X20723Y9569D1*
X20686Y9688D1*
X20683Y9813D1*
X20712Y9934D1*
X20760Y10019D1*
X20723Y10081D1*
X20686Y10200D1*
X20683Y10325D1*
X20712Y10446D1*
X20760Y10531D1*
X20723Y10593D1*
X20686Y10712D1*
X20683Y10837D1*
X20697Y10893D1*
X19367Y10891D1*
X13144D1*
X13112Y10825D1*
X13034Y10728D1*
X12933Y10655D1*
X12816Y10612D1*
X12692Y10602D1*
X12569Y10625D1*
X12458Y10681D1*
X12365Y10764D1*
X12292Y10887D1*
X11460Y10891D1*
X10924D1*
X10934Y10787D1*
X10917Y10664D1*
X10868Y10549D1*
X10790Y10452D1*
X10689Y10380D1*
X10572Y10336D1*
X10448Y10326D1*
X10325Y10350D1*
X10214Y10405D1*
X10121Y10488D1*
X10054Y10593D1*
X10017Y10712D1*
X10013Y10837D1*
X10027Y10893D1*
X9768Y10891D1*
X9665Y10813D1*
X9548Y10770D1*
X9424Y10759D1*
X9302Y10783D1*
X9190Y10838D1*
X9097Y10921D1*
X9030Y11026D1*
X8993Y11145D1*
X8990Y11270D1*
X9020Y11391D1*
X9081Y11499D1*
X9169Y11588D1*
X9277Y11649D1*
X9398Y11679D1*
X9522Y11676D1*
X9642Y11640D1*
X9765Y11553D1*
X10110Y11550D1*
X9587Y12072D1*
X8150D1*
X8028Y12095D1*
X7916Y12168D1*
X7671Y12414D1*
X7641Y12381D1*
X7539Y12309D1*
X7422Y12266D1*
X7298Y12255D1*
X7176Y12279D1*
X7064Y12334D1*
X6971Y12417D1*
X6904Y12522D1*
X6867Y12641D1*
X6864Y12766D1*
X6894Y12887D1*
X6955Y12995D1*
X6990Y13031D1*
X6993Y14467D1*
Y15705D1*
X6740Y15702D1*
X6744Y16582D1*
X6740Y16688D1*
X6031Y16686D1*
X6035Y17566D1*
X6031Y17980D1*
X6035Y18235D1*
X6031Y18485D1*
X6035Y18865D1*
X6031Y19280D1*
Y19534D1*
X6056D1*
Y20937D1*
X6096Y20939D1*
Y21646D1*
X6894D1*
X6891Y22047D1*
X6915Y22169D1*
X6983Y22269D1*
X9300Y24587D1*
X9305Y24656D1*
X9335Y24776D1*
X9396Y24885D1*
X9484Y24973D1*
X9592Y25035D1*
X9713Y25065D1*
X9837Y25062D1*
X9957Y25026D1*
X10062Y24959D1*
X10145Y24866D1*
X10201Y24755D1*
X10226Y24606D1*
X10209Y24483D1*
X10160Y24368D1*
X10081Y24271D1*
X9980Y24198D1*
X9863Y24155D1*
X9751Y24146D1*
X8218Y22616D1*
X7519Y21918D1*
Y21645D1*
X7645Y21646D1*
Y20896D1*
X7670Y20716D1*
Y21646D1*
X7830D1*
X7976Y21807D1*
X8631Y22461D1*
X8635Y22530D1*
X8665Y22651D1*
X8726Y22759D1*
X8814Y22847D1*
X8923Y22909D1*
X9044Y22939D1*
X9168Y22936D1*
X9287Y22900D1*
X9393Y22833D1*
X9476Y22741D1*
X9532Y22629D1*
X9556Y22480D1*
X9539Y22357D1*
X9490Y22242D1*
X9412Y22145D1*
X9311Y22072D1*
X9194Y22029D1*
X9081Y22020D1*
X8703Y21646D1*
X9219D1*
X9216Y20716D1*
X9219Y20312D1*
X9216Y20008D1*
X9219Y19989D1*
Y19259D1*
X8611D1*
Y19014D1*
X8729Y19042D1*
X8853Y19039D1*
X8972Y19002D1*
X9078Y18935D1*
X9161Y18843D1*
X9217Y18731D1*
X9240Y18613D1*
X9656Y18614D1*
X9660Y18926D1*
X9656Y18945D1*
Y19259D1*
X9284D1*
Y20189D1*
X9715Y20190D1*
X9719Y20875D1*
X9715Y20814D1*
Y21702D1*
X11741D1*
Y20379D1*
X11926Y20194D1*
X11996Y20091D1*
X12023Y19961D1*
Y19535D1*
X12631Y19534D1*
Y19932D1*
X12520D1*
X12396Y19949D1*
X12282Y19998D1*
X12185Y20076D1*
X12112Y20177D1*
X12069Y20294D1*
X12059Y20418D1*
X12082Y20541D1*
X12137Y20652D1*
X12220Y20745D1*
X12325Y20813D1*
X12444Y20849D1*
X12770Y20855D1*
X12957D1*
X12983Y20878D1*
Y21741D1*
X14104D1*
X17077Y19952D2*
X16700Y19951D1*
X17007Y19644D1*
X17075Y19537D1*
X17111Y19458D1*
X17509Y19454D1*
X17540Y19458D1*
X17131Y19867D1*
X16331Y12749D2*
X14479Y12747D1*
X14353Y12749D1*
X13748D1*
Y13370D1*
X13600Y13436D1*
X13507Y13520D1*
X13439Y13624D1*
X13403Y13744D1*
X13399Y13868D1*
X13429Y13989D1*
X13490Y14098D1*
X13578Y14186D1*
X13686Y14248D1*
X13751Y14264D1*
X13748Y14298D1*
X13892D1*
X13908Y14401D1*
X13984Y14520D1*
X15247Y15782D1*
X15238Y15818D1*
X14959D1*
X14960Y15669D1*
X14935Y15548D1*
X14868Y15447D1*
X14199Y14778D1*
X14095Y14709D1*
X13976Y14686D1*
X12371D1*
X12697Y14361D1*
X12790Y14354D1*
X12909Y14317D1*
X13015Y14250D1*
X13098Y14158D1*
X13154Y14046D1*
X13178Y13898D1*
X13161Y13774D1*
X13112Y13660D1*
X13034Y13563D1*
X12933Y13490D1*
X12816Y13447D1*
X12692Y13437D1*
X12569Y13460D1*
X12458Y13515D1*
X12365Y13598D1*
X12298Y13703D1*
X12261Y13822D1*
X12258Y13912D1*
X11195Y14975D1*
X11126Y15078D1*
X11103Y15197D1*
Y15451D1*
X10993Y15340D1*
Y12790D1*
X11177Y12605D1*
X12649Y12607D1*
X16660D1*
X16783Y12730D1*
X16704Y12749D1*
X16149Y12753D1*
X15600Y14298D2*
X15905D1*
X16156Y14553D1*
X16272Y14626D1*
X16352Y14734D1*
X16362Y14776D1*
X15976Y14774D1*
X15846Y14671D1*
X15729Y14628D1*
X15605Y14618D1*
X15517Y14634D1*
X15600Y14537D1*
Y14298D1*
X13874Y21741D2*
X14970D1*
Y21503D1*
X16054D1*
Y21741D1*
X17174D1*
X17175Y21503D1*
X17550D1*
Y21741D1*
X18670D1*
X18671Y21503D1*
X19046D1*
X19049Y22355D1*
X19048Y22677D1*
X13355Y22678D1*
X13293Y22613D1*
X13190Y22544D1*
X13071Y22521D1*
X12817D1*
X12697Y22427D1*
X12580Y22384D1*
X12456Y22374D1*
X12333Y22397D1*
X12222Y22452D1*
X12129Y22535D1*
X12061Y22640D1*
X12025Y22759D1*
X12022Y22849D1*
X11960Y22822D1*
X11840Y22791D1*
X11715Y22789D1*
X11593Y22818D1*
X11482Y22874D1*
X11388Y22955D1*
X11315Y23057D1*
X11269Y23172D1*
X11251Y23296D1*
X11263Y23420D1*
X11305Y23538D1*
X11373Y23642D1*
X11464Y23727D1*
X11573Y23788D1*
X11693Y23822D1*
X11817Y23826D1*
X11939Y23800D1*
X12052Y23746D1*
X12148Y23667D1*
X12223Y23567D1*
X12272Y23453D1*
X12291Y23295D1*
X12309Y23263D1*
X12429Y23294D1*
X12464Y23293D1*
X12484Y23359D1*
X12545Y23468D1*
X12633Y23556D1*
X12742Y23618D1*
X12862Y23648D1*
X12987Y23645D1*
X13106Y23609D1*
X13211Y23542D1*
X13245Y23504D1*
X20669Y23503D1*
X20791Y23479D1*
X20891Y23411D1*
X21206Y23096D1*
X21276Y22989D1*
X21364Y22985D1*
X22093D1*
Y22055D1*
X12631Y17370D2*
Y17986D1*
X12009Y17985D1*
X12155Y17839D1*
X12267Y17784D1*
X12359Y17701D1*
X12427Y17596D1*
X12463Y17477D1*
X12470Y17152D1*
Y17054D1*
X12631Y17056D1*
X12632Y17670D1*
X14182Y16111D2*
Y15650D1*
X14332Y15799D1*
Y16102D1*
X14362Y16236D1*
X14341Y16295D1*
X14229Y16350D1*
X14180Y16394D1*
X14182Y15936D1*
X14178D1*
X11764Y18473D2*
X11760Y18300D1*
X11764Y18226D1*
X11976Y18020D1*
Y18690D1*
X11926Y18625D1*
X11805Y18505D1*
X11976Y18485D1*
Y18692D1*
X11929Y18629D1*
X7670Y19435D2*
X7674Y20189D1*
X7670Y20133D1*
X7674Y20937D1*
X7645Y20896D1*
Y20716D1*
X7602D1*
X7605Y20312D1*
X7601Y20008D1*
X7605Y20064D1*
Y19435D1*
X7674Y19438D1*
X27570Y22335D2*
Y22484D1*
X26848Y23208D1*
X26772Y23307D1*
X26719Y23459D1*
X26712Y23784D1*
Y24710D1*
X26663Y24671D1*
Y22769D1*
X27101Y22334D1*
X27566Y22332D1*
X7553Y25545D2*
X7509Y25429D1*
X7439Y25326D1*
X7346Y25243D1*
X7236Y25184D1*
X7115Y25153D1*
X6990Y25152D1*
X6869Y25180D1*
X6758Y25236D1*
X6663Y25318D1*
X6591Y25419D1*
X6544Y25535D1*
X6527Y25658D1*
X6539Y25782D1*
X6580Y25900D1*
X6648Y26004D1*
X6739Y26089D1*
X6848Y26151D1*
X6968Y26184D1*
X7093Y26188D1*
X7215Y26162D1*
X7327Y26108D1*
X7424Y26029D1*
X7498Y25929D1*
X7547Y25815D1*
X7568Y25669D1*
X7553Y25545D1*
Y23183D2*
X7509Y23067D1*
X7439Y22964D1*
X7346Y22880D1*
X7236Y22822D1*
X7115Y22791D1*
X6990Y22789D1*
X6869Y22818D1*
X6758Y22874D1*
X6663Y22955D1*
X6591Y23057D1*
X6544Y23172D1*
X6527Y23296D1*
X6539Y23420D1*
X6580Y23538D1*
X6648Y23642D1*
X6739Y23727D1*
X6848Y23788D1*
X6968Y23822D1*
X7093Y23826D1*
X7215Y23800D1*
X7327Y23746D1*
X7424Y23667D1*
X7498Y23567D1*
X7547Y23453D1*
X7568Y23307D1*
X7553Y23183D1*
X12278Y25545D2*
X12234Y25429D1*
X12163Y25326D1*
X12070Y25243D1*
X11960Y25184D1*
X11840Y25153D1*
X11715Y25152D1*
X11593Y25180D1*
X11482Y25236D1*
X11388Y25318D1*
X11315Y25419D1*
X11269Y25535D1*
X11251Y25658D1*
X11263Y25782D1*
X11305Y25900D1*
X11373Y26004D1*
X11464Y26089D1*
X11573Y26151D1*
X11693Y26184D1*
X11817Y26188D1*
X11939Y26162D1*
X12052Y26108D1*
X12148Y26029D1*
X12223Y25929D1*
X12272Y25815D1*
X12292Y25669D1*
X12278Y25545D1*
X40495Y22898D2*
X40435Y22802D1*
X40348Y22713D1*
X40242Y22646D1*
X40125Y22604D1*
X40001Y22589D1*
X39877Y22602D1*
X39759Y22642D1*
X39652Y22707D1*
X39563Y22794D1*
X39495Y22899D1*
X39452Y23016D1*
X39436Y23140D1*
X39448Y23264D1*
X39487Y23382D1*
X39551Y23489D1*
X39637Y23580D1*
X39741Y23648D1*
X39858Y23692D1*
X39981Y23710D1*
X40105Y23699D1*
X40224Y23661D1*
X40332Y23598D1*
X40423Y23513D1*
X40497Y23398D1*
X40551Y23489D1*
X40637Y23580D1*
X40741Y23648D1*
X40858Y23692D1*
X40981Y23710D1*
X41105Y23699D1*
X41224Y23661D1*
X41332Y23598D1*
X41423Y23513D1*
X41497Y23398D1*
X41551Y23489D1*
X41637Y23580D1*
X41741Y23648D1*
X41858Y23692D1*
X41981Y23710D1*
X42105Y23699D1*
X42224Y23661D1*
X42332Y23598D1*
X42423Y23513D1*
X42497Y23398D1*
X42551Y23489D1*
X42637Y23580D1*
X42741Y23648D1*
X42858Y23692D1*
X42981Y23710D1*
X43105Y23699D1*
X43224Y23661D1*
X43332Y23598D1*
X43423Y23513D1*
X43493Y23409D1*
X43538Y23293D1*
X43556Y23150D1*
X43542Y23026D1*
X43501Y22908D1*
X43435Y22802D1*
X43348Y22713D1*
X43242Y22646D1*
X43125Y22604D1*
X43001Y22589D1*
X42877Y22602D1*
X42759Y22642D1*
X42652Y22707D1*
X42563Y22794D1*
X42497Y22896D1*
X42435Y22802D1*
X42348Y22713D1*
X42242Y22646D1*
X42125Y22604D1*
X42001Y22589D1*
X41877Y22602D1*
X41759Y22642D1*
X41652Y22707D1*
X41563Y22794D1*
X41497Y22896D1*
X41435Y22802D1*
X41348Y22713D1*
X41242Y22646D1*
X41125Y22604D1*
X41001Y22589D1*
X40877Y22602D1*
X40759Y22642D1*
X40652Y22707D1*
X40563Y22794D1*
X40497Y22896D1*
X39218Y10888D2*
X39114Y10813D1*
X38997Y10770D1*
X38873Y10759D1*
X38751Y10783D1*
X38639Y10838D1*
X38578Y10893D1*
X35648Y10891D1*
X23310Y10885D1*
X23209Y10813D1*
X23092Y10770D1*
X22967Y10759D1*
X22845Y10783D1*
X22733Y10838D1*
X22672Y10893D1*
X21816Y10891D1*
X22068Y10642D1*
X23929Y10645D1*
X52776Y10650D1*
X52873Y10728D1*
X52991Y10765D1*
X53180Y10767D1*
X53052Y10891D1*
X39224D1*
X38582Y11552D2*
X38617Y11588D1*
X38726Y11649D1*
X38847Y11679D1*
X38971Y11676D1*
X39090Y11640D1*
X39214Y11553D1*
X40523Y11550D1*
X52784D1*
X52539Y11798D1*
X41302Y11796D1*
X35436Y11791D1*
X35335Y11718D1*
X35218Y11675D1*
X35093Y11665D1*
X34971Y11688D1*
X34859Y11744D1*
X34798Y11798D1*
X31868Y11796D1*
X23981D1*
X23917Y11757D1*
X23800Y11714D1*
X23676Y11704D1*
X23554Y11728D1*
X23442Y11783D1*
X23381Y11837D1*
X23283Y11835D1*
X23115Y11664D1*
X23185Y11640D1*
X23308Y11553D1*
X24617Y11550D1*
X38574D1*
X8891Y17251D2*
X9071D1*
X9656Y17840D1*
X9660Y17903D1*
X9656Y17952D1*
Y18003D1*
X9338D1*
X9192Y17856D1*
X9084Y17787D1*
X8976Y17767D1*
X8879D1*
X8892Y17677D1*
Y17251D1*
X8929Y17247D1*
X8797Y13150D2*
X8846Y13095D1*
X8902Y12983D1*
X8926Y12835D1*
X8912Y12730D1*
X9277Y12736D1*
X8859Y13156D1*
X8802Y13235D1*
X16638Y17406D2*
X16626Y17317D1*
X16565Y17188D1*
X16618Y17078D1*
X16632Y17005D1*
X16688Y17060D1*
X16797Y17122D1*
X16838Y17132D1*
X16735Y17220D1*
X16668Y17325D1*
X16641Y17411D1*
X16626Y17548D1*
X16657Y17690D1*
X16718Y17798D1*
X16806Y17887D1*
X16915Y17948D1*
X17036Y17979D1*
X17160Y17976D1*
X17279Y17939D1*
X17362Y17887D1*
X17466Y17948D1*
X17587Y17979D1*
X17711Y17976D1*
X17831Y17939D1*
X17936Y17872D1*
X18019Y17780D1*
X18075Y17668D1*
X18100Y17520D1*
X18097Y17500D1*
X18160Y17446D1*
X18164Y17844D1*
X18160Y18089D1*
X18164Y18237D1*
X18160Y18258D1*
Y18298D1*
X17845Y18302D1*
X17600Y18298D1*
X17452Y18302D1*
X17206Y18298D1*
X17058Y18302D1*
X17037Y18298D1*
X16271Y18302D1*
X16250Y18298D1*
X16013D1*
X16009Y17983D1*
X16013Y17871D1*
X16130Y17900D1*
X16255Y17897D1*
X16374Y17861D1*
X16479Y17794D1*
X16563Y17701D1*
X16618Y17590D1*
X17068Y16241D2*
X17048Y16151D1*
X17706Y16147D1*
X17952Y16151D1*
X18100Y16147D1*
X18160Y16151D1*
Y16417D1*
X17874Y16418D1*
X17752Y16443D1*
X17652Y16510D1*
X17428Y16734D1*
X17430Y16693D1*
X17413Y16569D1*
X17364Y16455D1*
X17286Y16358D1*
X17185Y16285D1*
X17072Y16243D1*
X17067Y16151D1*
X17509Y16147D1*
X17755Y16151D1*
X17903Y16147D1*
X18148Y16151D1*
X18160Y16211D1*
Y16390D1*
X19051Y19306D2*
X18947Y19326D1*
X18836Y19381D1*
X18743Y19464D1*
X18720Y19500D1*
X18492Y19268D1*
X18493Y18634D1*
X18810Y18631D1*
X19017D1*
X19021Y19137D1*
X19047Y19302D1*
X22987Y15554D2*
X22877Y15646D1*
X22810Y15750D1*
X22773Y15870D1*
X22772Y15912D1*
X22330Y15469D1*
X22889Y15472D1*
X22948Y15525D1*
X22992Y15550D1*
X23029Y14746D2*
X22970Y14775D1*
X22891Y14845D1*
X22373Y14843D1*
X22176Y14645D1*
X22887D1*
X22948Y14698D1*
X23026Y14742D1*
X43453Y25129D2*
X43433Y25006D1*
X43385Y24891D1*
X43313Y24790D1*
X43218Y24708D1*
X43108Y24650D1*
X42987Y24619D1*
X42862Y24616D1*
X42741Y24642D1*
X42628Y24696D1*
X42530Y24773D1*
X42520Y24784D1*
X42451Y24723D1*
X42344Y24660D1*
X42224Y24623D1*
X42100Y24615D1*
X41977Y24635D1*
X41862Y24683D1*
X41761Y24756D1*
X41733Y24788D1*
X41664Y24723D1*
X41556Y24660D1*
X41437Y24623D1*
X41313Y24615D1*
X41190Y24635D1*
X41074Y24683D1*
X40973Y24756D1*
X40945Y24788D1*
X40876Y24723D1*
X40769Y24660D1*
X40650Y24623D1*
X40525Y24615D1*
X40402Y24635D1*
X40287Y24683D1*
X40186Y24756D1*
X40158Y24788D1*
X40089Y24723D1*
X39981Y24660D1*
X39862Y24623D1*
X39738Y24615D1*
X39615Y24635D1*
X39500Y24683D1*
X39399Y24756D1*
X39317Y24850D1*
X39259Y24961D1*
X39228Y25082D1*
X39226Y25206D1*
X39252Y25328D1*
X39305Y25441D1*
X39383Y25538D1*
X39481Y25615D1*
X39595Y25668D1*
X39717Y25693D1*
X39841Y25689D1*
X39962Y25657D1*
X40072Y25599D1*
X40157Y25524D1*
X40269Y25615D1*
X40382Y25668D1*
X40504Y25693D1*
X40629Y25689D1*
X40749Y25657D1*
X40859Y25599D1*
X40944Y25524D1*
X41056Y25615D1*
X41169Y25668D1*
X41292Y25693D1*
X41416Y25689D1*
X41537Y25657D1*
X41647Y25599D1*
X41732Y25524D1*
X41844Y25615D1*
X41957Y25668D1*
X42079Y25693D1*
X42204Y25689D1*
X42324Y25657D1*
X42434Y25599D1*
X42519Y25524D1*
X42610Y25602D1*
X42721Y25659D1*
X42841Y25690D1*
X42966Y25692D1*
X43088Y25666D1*
X43201Y25612D1*
X43298Y25534D1*
X43375Y25436D1*
X43427Y25323D1*
X43452Y25201D1*
X43453Y25129D1*
X25429Y15659D2*
X26170D1*
Y13948D1*
X23904D1*
Y15659D1*
X25670Y15658D1*
X18160Y17443D2*
X18164Y18041D1*
X18160Y18008D1*
Y18298D1*
X17648Y18302D1*
X17706Y18298D1*
X16861D1*
X16668D1*
X16074Y18302D1*
X16013Y18237D1*
Y17916D1*
X18160Y17440D2*
X18164Y17647D1*
X18160Y17589D1*
Y18286D1*
X18100Y18298D1*
X17255D1*
X17115Y18299D1*
X16467Y18298D1*
X16013Y18297D1*
Y17934D1*
X19105Y15818D2*
X18696D1*
X19105Y15408D1*
Y15821D1*
X14853Y17047D2*
X14857Y17056D1*
X14853Y17253D1*
Y17597D1*
X14617Y17599D1*
X14573Y17567D1*
X14506Y17536D1*
X14409Y17521D1*
X14180Y17522D1*
X14176Y17370D1*
X14180Y17420D1*
Y17080D1*
X14316Y17161D1*
X14437Y17191D1*
X14562Y17188D1*
X14681Y17152D1*
X14786Y17085D1*
X14820Y17047D1*
X14853Y17052D1*
Y17568D1*
X15045Y18631D2*
X15677D1*
X15680Y18948D1*
Y19380D1*
X14645Y19381D1*
Y19031D1*
X15042Y18631D1*
X21654Y21890D2*
D14*
Y21425D1*
Y21890D2*
X22093D1*
X20984Y17874D2*
X21424D1*
X19528Y13110D2*
Y12671D1*
X19049Y21890D2*
X19488D1*
X18858Y21502D2*
Y21063D1*
X18701Y13150D2*
Y12669D1*
X18110Y21741D2*
Y21260D1*
X17362Y21502D2*
Y21063D1*
X16614Y21741D2*
Y21260D1*
X15866Y21502D2*
Y21063D1*
Y13189D2*
Y12750D1*
X15157Y21502D2*
Y21063D1*
X15039Y13228D2*
Y12747D1*
X14409Y21741D2*
Y21260D1*
X12631Y19724D2*
X13071D1*
X12631Y17835D2*
X13071D1*
X14213Y13189D2*
Y12750D1*
X13748Y13189D2*
X14213D1*
X13701Y15551D2*
X14182D1*
X11181Y21701D2*
Y21220D1*
X11741D1*
X10276Y21701D2*
Y21220D1*
X9716D2*
X10276D1*
X9724Y20189D2*
Y19260D1*
X9285Y19724D2*
X9724D1*
X8780D2*
Y19260D1*
Y19724D2*
X9219D1*
X6057D2*
X6496D1*
X13543Y21741D2*
Y21260D1*
X12984D2*
X13543D1*
X12631Y17205D2*
X13071D1*
X32598Y23394D2*
Y22275D1*
Y22835D2*
X33079D1*
X5394Y8476D2*
D23*
Y7917D1*
Y8476D2*
X5953D1*
X5394Y14476D2*
X5953D1*
X54870Y13437D2*
D20*
X55430D1*
X53310D2*
X53870D1*
X54870Y14437D2*
X55430D1*
X53310D2*
X53870D1*
X54870Y7437D2*
D14*
X55430D1*
X36929Y24882D2*
Y23928D1*
X36369Y24882D2*
X37489D1*
X15197D2*
Y23928D1*
X14637Y24882D2*
X15757D1*
X16850D2*
Y23928D1*
X16291Y24882D2*
X17410D1*
X21260D2*
Y23928D1*
X20700Y24882D2*
X21820D1*
X22913D2*
Y23928D1*
X22354Y24882D2*
X23473D1*
X35276D2*
Y23928D1*
X34716Y24882D2*
X35835D1*
X21654Y22984D2*
Y22520D1*
X22093D1*
X21001Y19134D2*
X21440D1*
X19049Y22520D2*
X19488D1*
X27962Y25688D2*
Y24608D1*
Y25148D2*
X28502D1*
X32529Y25698D2*
Y24617D1*
Y25157D2*
X33069D1*
X42913Y25694D2*
Y24614D1*
Y25154D2*
X43453D1*
X25787Y15658D2*
Y13948D1*
Y14803D2*
X26170D1*
X25287Y15658D2*
Y13948D1*
X24787Y15658D2*
Y13948D1*
X24287Y15658D2*
Y13948D1*
X23905Y14803D2*
X24287D1*
X18740Y18631D2*
Y18307D1*
X18161D2*
X18740D1*
Y16142D2*
Y15818D1*
X18161Y16142D2*
X18740D1*
X14854Y17126D2*
X15433D1*
X14854Y17717D2*
X15433D1*
X16004Y18878D2*
Y18299D1*
X15680Y18878D2*
X16004D1*
X16201D2*
Y18299D1*
X16988Y18878D2*
Y18299D1*
X9657Y18839D2*
X10276D1*
X9657Y18071D2*
X10276D1*
D28*
X25630Y18937D3*
Y18268D3*
D29*
X21654Y21890D3*
X20984D3*
D28*
Y20377D3*
Y21046D3*
X20354Y20377D3*
Y21046D3*
D29*
X20984Y17874D3*
X20315D3*
D28*
X19528Y13110D3*
Y13780D3*
D29*
X20157Y21890D3*
X19488D3*
D30*
X19606Y21260D3*
Y20433D3*
D28*
X18858Y20394D3*
Y21063D3*
D30*
X18701Y13976D3*
Y13150D3*
X18110Y21260D3*
Y20433D3*
D28*
X17362Y20394D3*
Y21063D3*
D30*
X16614Y21260D3*
Y20433D3*
D28*
X15866Y20394D3*
Y21063D3*
Y13189D3*
Y13858D3*
X15157Y20394D3*
Y21063D3*
D30*
X15039Y14055D3*
Y13228D3*
X14409Y21260D3*
Y20433D3*
D29*
X13071Y19724D3*
X13740D3*
X13071Y19094D3*
X13740D3*
X13071Y18465D3*
X13740D3*
X13071Y17835D3*
X13740D3*
D28*
X14213Y13189D3*
Y13858D3*
D31*
X12874Y15551D3*
X13701D3*
D28*
X11299Y18740D3*
Y19409D3*
Y17480D3*
Y18150D3*
D30*
X11181Y21220D3*
Y20394D3*
X10276Y21220D3*
Y20394D3*
D29*
X10394Y19724D3*
X9724D3*
X8780Y21181D3*
X8110D3*
X8780Y19724D3*
X8110D3*
X6535Y21181D3*
X7205D3*
X7165Y19724D3*
X6496D3*
D30*
X13543Y21260D3*
Y20433D3*
D31*
X12874Y16496D3*
X13701D3*
D29*
X13071Y17205D3*
X13740D3*
D31*
X31772Y22835D3*
X32598D3*
D32*
X28504Y22598D3*
Y20984D3*
D33*
X5394Y8476D3*
D34*
Y9476D3*
Y10476D3*
Y11476D3*
Y12476D3*
Y13476D3*
Y14476D3*
Y15476D3*
Y16476D3*
Y17476D3*
Y18476D3*
Y19476D3*
X39996Y23150D3*
X40996D3*
X41996D3*
X42996D3*
X54870Y8437D3*
X53870D3*
X54870Y9437D3*
X53870D3*
X54870Y10437D3*
X53870D3*
X54870Y11437D3*
X53870D3*
X54870Y12437D3*
X53870D3*
X54870Y13437D3*
X53870D3*
X54870Y14437D3*
X53870D3*
X54870Y15437D3*
X53870D3*
X54870Y16437D3*
X53870D3*
X54870Y17437D3*
X53870D3*
X54870Y18437D3*
X53870D3*
X54870Y19437D3*
X53870D3*
D33*
Y6437D3*
D34*
Y7437D3*
X54870Y6437D3*
Y7437D3*
D20*
X26181Y18228D3*
D36*
X36929Y24882D3*
X15197D3*
X16850D3*
X21260D3*
X22913D3*
X35276D3*
D20*
X44567Y8189D3*
X44173D3*
X43780D3*
X38898Y11220D3*
X38819Y8858D3*
Y8386D3*
Y7992D3*
Y6496D3*
Y5709D3*
X37402Y19528D3*
X36969Y18307D3*
X36929Y19094D3*
Y17520D3*
X36811Y5551D3*
X30197Y20906D3*
X29803D3*
X29409D3*
X22992Y11220D3*
X22795Y8858D3*
Y8425D3*
Y7953D3*
X22756Y6496D3*
Y5709D3*
X22559Y19843D3*
Y19213D3*
X21142Y10787D3*
Y10276D3*
Y9764D3*
D38*
X19055Y25236D3*
D20*
X12717Y11063D3*
X9724Y13583D3*
X9449Y11220D3*
X7008Y8858D3*
Y8425D3*
Y7953D3*
Y6496D3*
Y5669D3*
D40*
X17992Y13110D3*
X17244D3*
X17618Y14016D3*
D28*
X24291Y18268D3*
Y18937D3*
X24961Y18268D3*
Y18937D3*
D29*
X21654Y22520D3*
X20984D3*
X21001Y19764D3*
X20331D3*
X21001Y19134D3*
X20331D3*
X21001Y18504D3*
X20331D3*
X20984Y17244D3*
X20315D3*
X20984Y16614D3*
X20315D3*
X20984Y15984D3*
X20315D3*
X20984Y15354D3*
X20315D3*
X20984Y14685D3*
X20315D3*
X20984Y14016D3*
X20315D3*
X20984Y13386D3*
X20315D3*
X20157Y22520D3*
X19488D3*
D28*
X16614Y13189D3*
Y13858D3*
X12441Y19094D3*
Y18425D3*
X10354Y16811D3*
Y16142D3*
X9724Y16811D3*
Y16142D3*
X9094Y16811D3*
Y16142D3*
X8465Y16811D3*
Y16142D3*
D29*
X8780Y20472D3*
X8110D3*
D28*
X7835Y16811D3*
Y16142D3*
X7205Y16811D3*
Y16142D3*
D29*
X6496Y20472D3*
X7165D3*
D28*
X6496Y19094D3*
Y18425D3*
Y17795D3*
Y17126D3*
D42*
X27962Y25148D3*
X27174D3*
X25599D3*
X26399D3*
X32529Y25157D3*
X31741D3*
X30166D3*
X30966D3*
X42913Y25154D3*
X42126D3*
X41339D3*
X40551D3*
X39764D3*
D34*
X34094Y15197D3*
Y14197D3*
Y13197D3*
D43*
X25787Y14803D3*
X25287D3*
X24787D3*
X24287D3*
Y17323D3*
X24787D3*
X25287D3*
X25787D3*
D44*
X18740Y18307D3*
Y18110D3*
Y17913D3*
Y17717D3*
Y17520D3*
Y17323D3*
Y17126D3*
Y16929D3*
Y16732D3*
Y16535D3*
Y16339D3*
Y16142D3*
D45*
X18169Y15571D3*
X17972D3*
X17776D3*
X17579D3*
X17382D3*
X17185D3*
X16988D3*
X16791D3*
X16594D3*
X16398D3*
X16201D3*
X16004D3*
D44*
X15433Y16142D3*
Y16339D3*
Y16535D3*
Y16732D3*
Y16929D3*
Y17126D3*
Y17323D3*
Y17520D3*
Y17717D3*
Y17913D3*
Y18110D3*
Y18307D3*
D45*
X16004Y18878D3*
X16201D3*
X16398D3*
X16594D3*
X16791D3*
X16988D3*
X17185D3*
X17382D3*
X17579D3*
X17776D3*
X17972D3*
X18169D3*
D46*
X10276Y19094D3*
Y18839D3*
Y18583D3*
Y18327D3*
Y18071D3*
Y17815D3*
Y17559D3*
X7992D3*
Y17815D3*
Y18071D3*
Y18327D3*
Y18583D3*
Y18839D3*
Y19094D3*
M02*
