M48
INCH
T01C0.0236
T02C0.0276
T03C0.0354
T04C0.0512
%
T01
X+026181Y+018228
X+028071Y+018898
X+028031Y+020118
X+029409Y+020906
X+029803Y+020906
X+030197Y+020906
X+032835Y+020748
X+034449Y+020748
X+035748Y+020748
X+036299Y+022677
X+035630Y+023622
X+034488Y+024390
X+034488Y+025020
X+037165Y+023701
X+037717Y+024429
X+037717Y+025059
X+038071Y+022992
X+039173Y+022756
X+038740Y+021614
X+039921Y+021496
X+040630Y+021378
X+040512Y+022677
X+041535Y+022323
X+042205Y+021417
X+041260Y+018307
X+044252Y+018346
X+046693Y+018346
X+046614Y+013819
X+046575Y+011693
X+046535Y+010709
X+046496Y+009252
X+044567Y+008189
X+044173Y+008189
X+043780Y+008189
X+041929Y+010709
X+040984Y+011654
X+038898Y+011220
X+037480Y+009331
X+038819Y+008858
X+038819Y+008386
X+038819Y+007992
X+038819Y+006496
X+038819Y+005709
X+036811Y+005551
X+032992Y+009331
X+032953Y+010709
X+032874Y+011693
X+035118Y+012126
X+035512Y+012559
X+035945Y+012953
X+038701Y+013780
X+036929Y+017520
X+036969Y+018307
X+036929Y+019094
X+037402Y+019528
X+037362Y+021969
X+031378Y+018031
X+030276Y+015157
X+025276Y+016378
X+023228Y+016732
X+023228Y+017520
X+021890Y+018110
X+021457Y+017244
X+023228Y+015945
X+023228Y+015157
X+023228Y+014331
X+023740Y+012913
X+023701Y+012165
X+022992Y+011220
X+021142Y+010787
X+021142Y+010276
X+021142Y+009764
X+022795Y+008858
X+022795Y+008425
X+022795Y+007953
X+022756Y+006496
X+022756Y+005709
X+025433Y+010787
X+026299Y+010787
X+026260Y+011693
X+025236Y+011693
X+025630Y+012520
X+018346Y+012638
X+018110Y+013701
X+017795Y+014685
X+018543Y+014685
X+016811Y+014685
X+015630Y+015079
X+015079Y+014488
X+013858Y+013819
X+012717Y+013898
X+011929Y+013268
X+009724Y+013583
X+008465Y+012835
X+007323Y+012717
X+009449Y+011220
X+010472Y+010787
X+012717Y+011063
X+014567Y+012677
X+017244Y+012677
X+016614Y+016299
X+016969Y+016693
X+016181Y+016929
X+016181Y+017441
X+017087Y+017520
X+017638Y+017520
X+018071Y+017835
X+018701Y+018701
X+019094Y+019764
X+017244Y+019606
X+015236Y+018740
X+014724Y+017244
X+014488Y+016732
X+014213Y+015945
X+012008Y+017008
X+012008Y+017402
X+011260Y+016929
X+011024Y+016024
X+010630Y+015630
X+009331Y+017795
X+008780Y+018583
X+009094Y+019055
X+011142Y+019961
X+012126Y+019685
X+012480Y+019685
X+012520Y+020394
X+012953Y+020394
X+012480Y+022835
X+012913Y+023189
X+013386Y+024016
X+014409Y+024409
X+014409Y+025039
X+015197Y+023740
X+016850Y+023780
X+017638Y+024409
X+017638Y+025079
X+019843Y+024055
X+020472Y+024449
X+020472Y+025079
X+021299Y+023189
X+022126Y+021929
X+023346Y+021496
X+023661Y+022638
X+022874Y+023425
X+023701Y+024449
X+023701Y+025039
X+025039Y+022598
X+024764Y+021457
X+024213Y+020354
X+022559Y+019843
X+022559Y+019213
X+026378Y+021575
X+010394Y+025079
X+009764Y+024606
X+009094Y+022480
X+007008Y+008858
X+007008Y+008425
X+007008Y+007953
X+007008Y+006496
X+007008Y+005669
X+050000Y+009252
X+050079Y+010709
X+050079Y+011693
X+050039Y+013819
T02
X+027962Y+025148
X+027174Y+025148
X+026399Y+025148
X+025599Y+025148
X+030166Y+025157
X+030966Y+025157
X+031741Y+025157
X+032529Y+025157
X+039764Y+025154
X+040551Y+025154
X+041339Y+025154
X+042126Y+025154
X+042913Y+025154
T03
X+005394Y+008476
X+005394Y+009476
X+005394Y+010476
X+005394Y+011476
X+005394Y+012476
X+005394Y+013476
X+005394Y+014476
X+005394Y+015476
X+005394Y+016476
X+005394Y+017476
X+005394Y+018476
X+005394Y+019476
X+034094Y+015197
X+034094Y+014197
X+034094Y+013197
X+039996Y+023150
X+040996Y+023150
X+041996Y+023150
X+042996Y+023150
X+053870Y+019437
X+053870Y+018437
X+053870Y+017437
X+053870Y+016437
X+053870Y+015437
X+053870Y+014437
X+053870Y+013437
X+053870Y+012437
X+054870Y+012437
X+054870Y+013437
X+054870Y+014437
X+054870Y+015437
X+054870Y+016437
X+054870Y+017437
X+054870Y+018437
X+054870Y+019437
X+054870Y+011437
X+054870Y+010437
X+054870Y+009437
X+054870Y+008437
X+054870Y+007437
X+053870Y+007437
X+053870Y+008437
X+053870Y+009437
X+053870Y+010437
X+053870Y+011437
X+053870Y+006437
X+054870Y+006437
T04
X+007047Y+025669
X+007047Y+023307
X+011772Y+023307
X+011772Y+025669
T00
M30
