G04 DipTrace 4.1.2.0*
G04 2_Layer_Bottom_Silk.gbr*
%MOIN*%
G04 #@! TF.FileFunction,Legend,Bot*
G04 #@! TF.Part,Single*
%ADD10C,0.009843*%
%ADD16C,0.015748*%
%ADD26C,0.011811*%
%ADD29C,0.005906*%
%ADD95C,0.004632*%
%ADD96C,0.010936*%
%ADD97C,0.006176*%
%ADD99C,0.00772*%
%FSLAX26Y26*%
G04*
G70*
G90*
G75*
G01*
G04 BotSilk*
%LPD*%
X4505906Y2785433D2*
D29*
Y2730315D1*
X4624016D1*
Y2785433D1*
X4505906D1*
X4379921D2*
Y2730315D1*
X4498031D1*
Y2785433D1*
X4379921D1*
X2631890D2*
Y2730315D1*
X2750000D1*
Y2785433D1*
X2631890D1*
X2505906D2*
Y2730315D1*
X2624016D1*
Y2785433D1*
X2505906D1*
X742126D2*
Y2730315D1*
X860236D1*
Y2785433D1*
X742126D1*
X616142D2*
Y2730315D1*
X734252D1*
Y2785433D1*
X616142D1*
X5190945Y2720472D2*
X5135827D1*
Y2602362D1*
X5190945D1*
Y2720472D1*
X5127953D2*
X5072835D1*
Y2602362D1*
X5127953D1*
Y2720472D1*
X4938976D2*
X4883858D1*
Y2602362D1*
X4938976D1*
Y2720472D1*
X4875984D2*
X4820866D1*
Y2602362D1*
X4875984D1*
Y2720472D1*
X4812992D2*
X4757874D1*
Y2602362D1*
X4812992D1*
Y2720472D1*
X4750000D2*
X4694882D1*
Y2602362D1*
X4750000D1*
Y2720472D1*
X4687008D2*
X4631890D1*
Y2602362D1*
X4687008D1*
Y2720472D1*
X3316929D2*
X3261811D1*
Y2602362D1*
X3316929D1*
Y2720472D1*
X3253937D2*
X3198819D1*
Y2602362D1*
X3253937D1*
Y2720472D1*
X3064961D2*
X3009843D1*
Y2602362D1*
X3064961D1*
Y2720472D1*
X3001969D2*
X2946850D1*
Y2602362D1*
X3001969D1*
Y2720472D1*
X2938976D2*
X2883858D1*
Y2602362D1*
X2938976D1*
Y2720472D1*
X2875984D2*
X2820866D1*
Y2602362D1*
X2875984D1*
Y2720472D1*
X2812992D2*
X2757874D1*
Y2602362D1*
X2812992D1*
Y2720472D1*
X1427165D2*
X1372047D1*
Y2602362D1*
X1427165D1*
Y2720472D1*
X1364173D2*
X1309055D1*
Y2602362D1*
X1364173D1*
Y2720472D1*
X1175197D2*
X1120079D1*
Y2602362D1*
X1175197D1*
Y2720472D1*
X1112205D2*
X1057087D1*
Y2602362D1*
X1112205D1*
Y2720472D1*
X1049213D2*
X994094D1*
Y2602362D1*
X1049213D1*
Y2720472D1*
X986220D2*
X931102D1*
Y2602362D1*
X986220D1*
Y2720472D1*
X923228D2*
X868110D1*
Y2602362D1*
X923228D1*
Y2720472D1*
X4336614Y2078740D2*
Y2023622D1*
X4454724D1*
Y2078740D1*
X4336614D1*
X2462598D2*
Y2023622D1*
X2580709D1*
Y2078740D1*
X2462598D1*
X572835D2*
Y2023622D1*
X690945D1*
Y2078740D1*
X572835D1*
X3482283Y2059055D2*
Y2003937D1*
X3600394D1*
Y2059055D1*
X3482283D1*
X5192912Y1789371D2*
X5137794Y1789369D1*
X5137797Y1671259D1*
X5192915Y1671261D1*
X5192912Y1789371D1*
X4767717Y1789370D2*
X4712598D1*
Y1671260D1*
X4767717D1*
Y1789370D1*
X3318896Y1789371D2*
X3263778Y1789369D1*
X3263781Y1671259D1*
X3318899Y1671261D1*
X3318896Y1789371D1*
X2893701Y1789370D2*
X2838583D1*
Y1671260D1*
X2893701D1*
Y1789370D1*
X1429132Y1789371D2*
X1374014Y1789369D1*
X1374017Y1671259D1*
X1429135Y1671261D1*
X1429132Y1789371D1*
X1003937Y1789370D2*
X948819D1*
Y1671260D1*
X1003937D1*
Y1789370D1*
X3590548Y3072835D2*
X3535430Y3072834D1*
X3535433Y2954724D1*
X3590551Y2954725D1*
X3590548Y3072835D1*
X3527556D2*
X3472438Y3072834D1*
X3472441Y2954724D1*
X3527559Y2954725D1*
X3527556Y3072835D1*
X3464564D2*
X3409446Y3072834D1*
X3409449Y2954724D1*
X3464567Y2954725D1*
X3464564Y3072835D1*
X3401572D2*
X3346454Y3072834D1*
X3346457Y2954724D1*
X3401575Y2954725D1*
X3401572Y3072835D1*
X3271651D2*
X3216533Y3072834D1*
X3216536Y2954724D1*
X3271654Y2954725D1*
X3271651Y3072835D1*
X3204722D2*
X3149603Y3072834D1*
X3149607Y2954724D1*
X3204725Y2954725D1*
X3204722Y3072835D1*
X4389761Y3068898D2*
X4334643Y3068897D1*
X4334646Y2950787D1*
X4389764Y2950788D1*
X4389761Y3068898D1*
X4322832D2*
X4267714Y3068897D1*
X4267717Y2950787D1*
X4322835Y2950788D1*
X4322832Y3068898D1*
X4255903D2*
X4200785Y3068897D1*
X4200788Y2950787D1*
X4255906Y2950788D1*
X4255903Y3068898D1*
X4188974D2*
X4133855Y3068897D1*
X4133858Y2950787D1*
X4188977Y2950788D1*
X4188974Y3068898D1*
X4122044D2*
X4066926Y3068897D1*
X4066929Y2950787D1*
X4122047Y2950788D1*
X4122044Y3068898D1*
X4055115D2*
X3999997Y3068897D1*
X4000000Y2950787D1*
X4055118Y2950788D1*
X4055115Y3068898D1*
X3988186D2*
X3933068Y3068897D1*
X3933071Y2950787D1*
X3988189Y2950788D1*
X3988186Y3068898D1*
X2515745D2*
X2460627Y3068897D1*
X2460630Y2950787D1*
X2515748Y2950788D1*
X2515745Y3068898D1*
X2448816D2*
X2393698Y3068897D1*
X2393701Y2950787D1*
X2448819Y2950788D1*
X2448816Y3068898D1*
X2381887D2*
X2326769Y3068897D1*
X2326772Y2950787D1*
X2381890Y2950788D1*
X2381887Y3068898D1*
X2314958D2*
X2259840Y3068897D1*
X2259843Y2950787D1*
X2314961Y2950788D1*
X2314958Y3068898D1*
X2248029D2*
X2192911Y3068897D1*
X2192914Y2950787D1*
X2248032Y2950788D1*
X2248029Y3068898D1*
X2181100D2*
X2125981Y3068897D1*
X2125984Y2950787D1*
X2181103Y2950788D1*
X2181100Y3068898D1*
X2114170D2*
X2059052Y3068897D1*
X2059055Y2950787D1*
X2114173Y2950788D1*
X2114170Y3068898D1*
X1700785D2*
X1645666Y3068897D1*
X1645669Y2950787D1*
X1700788Y2950788D1*
X1700785Y3068898D1*
X1547241D2*
X1492123Y3068897D1*
X1492126Y2950787D1*
X1547244Y2950788D1*
X1547241Y3068898D1*
X1480312D2*
X1425194Y3068897D1*
X1425197Y2950787D1*
X1480315Y2950788D1*
X1480312Y3068898D1*
X625981D2*
X570863Y3068897D1*
X570866Y2950787D1*
X625984Y2950788D1*
X625981Y3068898D1*
X559052D2*
X503934Y3068897D1*
X503937Y2950787D1*
X559055Y2950788D1*
X559052Y3068898D1*
X492123D2*
X437005Y3068897D1*
X437008Y2950787D1*
X492126Y2950788D1*
X492123Y3068898D1*
X425194D2*
X370076Y3068897D1*
X370079Y2950787D1*
X425197Y2950788D1*
X425194Y3068898D1*
X358265D2*
X303147Y3068897D1*
X303150Y2950787D1*
X358268Y2950788D1*
X358265Y3068898D1*
X291336D2*
X236218Y3068897D1*
X236221Y2950787D1*
X291339Y2950788D1*
X291336Y3068898D1*
X224407D2*
X169289Y3068897D1*
X169292Y2950787D1*
X224410Y2950788D1*
X224407Y3068898D1*
X5064961Y2720472D2*
X5009843D1*
Y2602362D1*
X5064961D1*
Y2720472D1*
X5001969D2*
X4946850D1*
Y2602362D1*
X5001969D1*
Y2720472D1*
X4624016D2*
X4568898D1*
Y2602362D1*
X4624016D1*
Y2720472D1*
X4561024D2*
X4505906D1*
Y2602362D1*
X4561024D1*
Y2720472D1*
X4498031D2*
X4442913D1*
Y2602362D1*
X4498031D1*
Y2720472D1*
X4435039D2*
X4379921D1*
Y2602362D1*
X4435039D1*
Y2720472D1*
X4372047D2*
X4316929D1*
Y2602362D1*
X4372047D1*
Y2720472D1*
X4309055D2*
X4253937D1*
Y2602362D1*
X4309055D1*
Y2720472D1*
X3190945D2*
X3135827D1*
Y2602362D1*
X3190945D1*
Y2720472D1*
X3127953D2*
X3072835D1*
Y2602362D1*
X3127953D1*
Y2720472D1*
X2750000D2*
X2694882D1*
Y2602362D1*
X2750000D1*
Y2720472D1*
X2687008D2*
X2631890D1*
Y2602362D1*
X2687008D1*
Y2720472D1*
X2624016D2*
X2568898D1*
Y2602362D1*
X2624016D1*
Y2720472D1*
X2561024D2*
X2505906D1*
Y2602362D1*
X2561024D1*
Y2720472D1*
X2498031D2*
X2442913D1*
Y2602362D1*
X2498031D1*
Y2720472D1*
X2435039D2*
X2379921D1*
Y2602362D1*
X2435039D1*
Y2720472D1*
X1301181D2*
X1246063D1*
Y2602362D1*
X1301181D1*
Y2720472D1*
X1238189D2*
X1183071D1*
Y2602362D1*
X1238189D1*
Y2720472D1*
X860236D2*
X805118D1*
Y2602362D1*
X860236D1*
Y2720472D1*
X797244D2*
X742126D1*
Y2602362D1*
X797244D1*
Y2720472D1*
X734252D2*
X679134D1*
Y2602362D1*
X734252D1*
Y2720472D1*
X671260D2*
X616142D1*
Y2602362D1*
X671260D1*
Y2720472D1*
X608268D2*
X553150D1*
Y2602362D1*
X608268D1*
Y2720472D1*
X545276D2*
X490157D1*
Y2602362D1*
X545276D1*
Y2720472D1*
X5437005Y3070867D2*
X5381887Y3070865D1*
X5381890Y2952755D1*
X5437009Y2952757D1*
X5437005Y3070867D1*
X5372045D2*
X5316927Y3070865D1*
X5316930Y2952755D1*
X5372048Y2952757D1*
X5372045Y3070867D1*
X2401575Y2283465D2*
Y2228346D1*
X2519685D1*
Y2283465D1*
X2401575D1*
Y2220472D2*
Y2165354D1*
X2519685D1*
Y2220472D1*
X2401575D1*
X5314958Y2218505D2*
X5259840Y2218503D1*
X5259843Y2100393D1*
X5314961Y2100394D1*
X5314958Y2218505D1*
X5698820Y3084645D2*
X5753938Y3084646D1*
X5753936Y3202756D1*
X5698818Y3202755D1*
X5698820Y3084645D1*
X5765749D2*
X5820867Y3084646D1*
X5820865Y3202756D1*
X5765747Y3202755D1*
X5765749Y3084645D1*
X5832678D2*
X5887796Y3084646D1*
X5887794Y3202756D1*
X5832676Y3202755D1*
X5832678Y3084645D1*
X704928Y2123818D2*
X704922Y2398818D1*
X1429928Y2123834D2*
X1429922Y2398834D1*
G36*
X691435Y2469487D2*
X691351Y2468202D1*
X691100Y2466939D1*
X690686Y2465720D1*
X690117Y2464566D1*
X689401Y2463495D1*
X688552Y2462527D1*
X687584Y2461678D1*
X686514Y2460963D1*
X685359Y2460393D1*
X684140Y2459980D1*
X682877Y2459728D1*
X681593Y2459644D1*
X680308Y2459728D1*
X679045Y2459979D1*
X677826Y2460393D1*
X676671Y2460963D1*
X675601Y2461678D1*
X674633Y2462527D1*
X673784Y2463495D1*
X673069Y2464565D1*
X672499Y2465720D1*
X672085Y2466939D1*
X671834Y2468202D1*
X671750Y2469486D1*
D1*
X671834Y2470771D1*
X672085Y2472034D1*
X672499Y2473253D1*
X673069Y2474408D1*
X673784Y2475478D1*
X674633Y2476446D1*
X675601Y2477295D1*
X676671Y2478010D1*
X677826Y2478580D1*
X679045Y2478994D1*
X680308Y2479245D1*
X681592Y2479329D1*
X682877Y2479245D1*
X684140Y2478994D1*
X685359Y2478580D1*
X686514Y2478011D1*
X687584Y2477295D1*
X688552Y2476446D1*
X689401Y2475479D1*
X690116Y2474408D1*
X690686Y2473253D1*
X691100Y2472034D1*
X691351Y2470772D1*
X691435Y2469487D1*
D1*
G37*
X2594985Y2123818D2*
D29*
X2594979Y2398818D1*
X3319985Y2123834D2*
X3319979Y2398834D1*
G36*
X2581491Y2469487D2*
X2581407Y2468202D1*
X2581156Y2466939D1*
X2580742Y2465720D1*
X2580173Y2464566D1*
X2579458Y2463495D1*
X2578609Y2462527D1*
X2577641Y2461678D1*
X2576570Y2460963D1*
X2575416Y2460393D1*
X2574197Y2459980D1*
X2572934Y2459728D1*
X2571649Y2459644D1*
X2570364Y2459728D1*
X2569102Y2459979D1*
X2567883Y2460393D1*
X2566728Y2460963D1*
X2565657Y2461678D1*
X2564689Y2462527D1*
X2563841Y2463495D1*
X2563125Y2464565D1*
X2562556Y2465720D1*
X2562142Y2466939D1*
X2561891Y2468202D1*
X2561806Y2469486D1*
D1*
X2561891Y2470771D1*
X2562142Y2472034D1*
X2562556Y2473253D1*
X2563125Y2474408D1*
X2563840Y2475478D1*
X2564689Y2476446D1*
X2565657Y2477295D1*
X2566728Y2478010D1*
X2567882Y2478580D1*
X2569101Y2478994D1*
X2570364Y2479245D1*
X2571649Y2479329D1*
X2572933Y2479245D1*
X2574196Y2478994D1*
X2575415Y2478580D1*
X2576570Y2478011D1*
X2577641Y2477295D1*
X2578609Y2476446D1*
X2579457Y2475479D1*
X2580173Y2474408D1*
X2580742Y2473253D1*
X2581156Y2472034D1*
X2581407Y2470772D1*
X2581491Y2469487D1*
D1*
G37*
X4469000Y2123811D2*
D29*
X4468994Y2398811D1*
X5194000Y2123827D2*
X5193994Y2398827D1*
G36*
X4455507Y2469480D2*
X4455423Y2468196D1*
X4455172Y2466933D1*
X4454758Y2465714D1*
X4454189Y2464559D1*
X4453473Y2463488D1*
X4452625Y2462520D1*
X4451657Y2461672D1*
X4450586Y2460956D1*
X4449431Y2460387D1*
X4448212Y2459973D1*
X4446950Y2459722D1*
X4445665Y2459638D1*
X4444380Y2459722D1*
X4443117Y2459973D1*
X4441898Y2460387D1*
X4440744Y2460956D1*
X4439673Y2461671D1*
X4438705Y2462520D1*
X4437856Y2463488D1*
X4437141Y2464559D1*
X4436571Y2465713D1*
X4436158Y2466932D1*
X4435906Y2468195D1*
X4435822Y2469480D1*
D1*
X4435906Y2470765D1*
X4436158Y2472027D1*
X4436571Y2473246D1*
X4437141Y2474401D1*
X4437856Y2475472D1*
X4438705Y2476440D1*
X4439673Y2477289D1*
X4440743Y2478004D1*
X4441898Y2478573D1*
X4443117Y2478987D1*
X4444380Y2479238D1*
X4445664Y2479323D1*
X4446949Y2479238D1*
X4448212Y2478987D1*
X4449431Y2478573D1*
X4450586Y2478004D1*
X4451656Y2477289D1*
X4452624Y2476440D1*
X4453473Y2475472D1*
X4454188Y2474401D1*
X4454758Y2473247D1*
X4455172Y2472028D1*
X4455423Y2470765D1*
X4455507Y2469480D1*
D1*
G37*
X3606299Y2330718D2*
D10*
X3401575D1*
Y2212589D2*
Y2330718D1*
X3606299Y2212589D2*
Y2244083D1*
Y2299224D2*
Y2330718D1*
X3606094Y2244083D2*
G02X3606094Y2299224I14J27571D01*
G01*
X3401575Y2212589D2*
X3606299D1*
X5747244Y3988189D2*
D26*
X5944094D1*
X779528Y3980315D2*
X909449D1*
X963780Y3944882D2*
Y3748031D1*
X1014961Y3704724D2*
X1641732D1*
X1688189Y3948819D2*
Y3751969D1*
X1731496Y3984252D2*
X4133858D1*
X4184252Y3937008D2*
Y3811024D1*
X4231496Y3767717D2*
X5652756D1*
X5700000Y3944882D2*
Y3818898D1*
X1011024Y3704724D2*
G02X963780Y3751969I-394J46850D01*
G01*
X778224Y3980224D2*
G02X728256Y4024924I-2633J47335D01*
G01*
X963780Y3937008D2*
G03X912264Y3980096I-46974J-3822D01*
G01*
X1688189Y3944882D2*
G02X1731496Y3984252I40501J-1047D01*
G01*
X5700000Y3940945D2*
G02X5743307Y3988189I47093J303D01*
G01*
X4184252Y3940945D2*
G03X4137008Y3984252I-46974J-3821D01*
G01*
X5700000Y3814961D2*
G02X5652756Y3767717I-46850J-394D01*
G01*
X1688189Y3751969D2*
G02X1640945Y3704724I-46850J-394D01*
G01*
X4231496Y3767717D2*
G02X4184252Y3814961I-394J46850D01*
G01*
X5983465Y3944882D2*
G03X5936220Y3988189I-46974J-3821D01*
G01*
X3875197Y3980315D2*
D29*
Y3801181D1*
X2493307Y3980315D2*
D26*
Y3850394D1*
X2543307Y3803150D2*
X4185039D1*
X2540837Y3804175D2*
G02X2493133Y3849703I-1468J46219D01*
G01*
X4185039Y3889764D2*
D29*
X2496063D1*
X3704724Y2271654D2*
D16*
X3637795D1*
X3665354Y2299213D1*
X3637795Y2271654D2*
X3661417Y2236220D1*
X728346Y4311024D2*
D26*
Y4023622D1*
X732769Y5804411D2*
X731810Y4509190D1*
X735433Y6220472D2*
X736220Y6007874D1*
X735433Y6220472D2*
G03X688189Y6263780I-46941J-3786D01*
G01*
X165142Y6262978D2*
G03X120888Y6212525I3215J-47454D01*
G01*
X688189Y6263780D2*
X169291D1*
X120888Y6212525D2*
X122047Y66929D1*
X731810Y4509190D2*
G03X728346Y4311024I35908J-99741D01*
G01*
X736220Y6007874D2*
G03X732769Y5804411I35433J-102362D01*
G01*
X5983465Y3944882D2*
X5984252Y78740D1*
X5941470Y27559D2*
G03X5984722Y76794I-3787J46943D01*
G01*
X5687535Y27215D2*
G03X5643790Y-11887I-4465J-39026D01*
G01*
X5681102Y27559D2*
X5940157D1*
X5643790Y-11887D2*
X5643701Y-566929D1*
X5602735Y-614112D2*
G03X5643836Y-568008I-4309J45214D01*
G01*
X5602735Y-614112D2*
X4437008Y-614173D1*
X4441003Y-614478D2*
G03X4414642Y-641672I687J-27039D01*
G01*
X4378214Y-688680D2*
G03X4415224Y-653944I3676J33168D01*
G01*
X3716770Y-658753D2*
G03X3745648Y-688747I29292J-696D01*
G01*
X3716394Y-645448D2*
G03X3684285Y-614390I-29386J1746D01*
G01*
X4377953Y-688976D2*
X3744094D1*
X3687008Y-614173D2*
X2421260D1*
X3716535Y-645669D2*
Y-659449D1*
X4415354Y-653543D2*
X4414642Y-641672D1*
X2418404Y-614492D2*
G03X2392000Y-645976I2856J-29209D01*
G01*
X2356510Y-685346D2*
G03X2392045Y-649944I1757J33771D01*
G01*
X2391732Y-657480D2*
X2392000Y-645976D1*
X2358268Y-685039D2*
X1723507Y-684613D1*
X1695752Y-644592D2*
G03X1734713Y-684295I32595J-6983D01*
G01*
X1695105Y-645434D2*
G03X1668243Y-614333I-26708J4083D01*
G01*
X1669291Y-614173D2*
X500000D1*
X461513Y-568308D2*
G03X499619Y-613832I38486J-6495D01*
G01*
X461230Y-569152D2*
X460630Y-11811D1*
X421260Y27559D2*
X161417D1*
X460247Y-15458D2*
G03X422424Y27114I-39048J3396D01*
G01*
X122215Y74618D2*
G03X164001Y27585I43138J-3753D01*
G01*
X4280631Y3733623D2*
D95*
X4277746Y3736475D1*
X4276320Y3740786D1*
Y3746523D1*
X4277746Y3750834D1*
X4280631Y3753719D1*
X4283483D1*
X4286368Y3752260D1*
X4287794Y3750834D1*
X4289219Y3747982D1*
X4292105Y3739360D1*
X4293531Y3736475D1*
X4294990Y3735049D1*
X4297842Y3733623D1*
X4302153D1*
X4305004Y3736475D1*
X4306464Y3740786D1*
Y3746523D1*
X4305004Y3750834D1*
X4302153Y3753719D1*
X4276320Y3724360D2*
X4306464D1*
Y3714312D1*
X4305004Y3710001D1*
X4302153Y3707116D1*
X4299267Y3705690D1*
X4294990Y3704264D1*
X4287794D1*
X4283483Y3705690D1*
X4280631Y3707116D1*
X4277746Y3710001D1*
X4276320Y3714312D1*
Y3724360D1*
X4306464Y3672019D2*
X4276320Y3683526D1*
X4306464Y3695000D1*
X4296416Y3690689D2*
Y3676330D1*
X4802527Y3731481D2*
X4772383D1*
X4802527Y3742955D1*
X4772383Y3754429D1*
X4802527D1*
X4788168Y3722218D2*
Y3709285D1*
X4786742Y3705007D1*
X4785282Y3703548D1*
X4782431Y3702122D1*
X4778120D1*
X4775268Y3703548D1*
X4773809Y3705007D1*
X4772383Y3709285D1*
Y3722218D1*
X4802527D1*
Y3687121D2*
X4772416Y3672762D1*
Y3692858D1*
X5185057Y3728261D2*
X5182205Y3729687D1*
X5179320Y3732572D1*
X5177894Y3735424D1*
Y3741161D1*
X5179320Y3744046D1*
X5182205Y3746898D1*
X5185057Y3748357D1*
X5189368Y3749783D1*
X5196564D1*
X5200842Y3748357D1*
X5203727Y3746898D1*
X5206579Y3744046D1*
X5208038Y3741161D1*
Y3735424D1*
X5206579Y3732572D1*
X5203727Y3729687D1*
X5200842Y3728261D1*
X5196564D1*
Y3735424D1*
X5177894Y3698901D2*
X5208038D1*
X5177894Y3718997D1*
X5208038D1*
X5177894Y3689638D2*
X5208038D1*
Y3679590D1*
X5206579Y3675279D1*
X5203727Y3672394D1*
X5200842Y3670968D1*
X5196564Y3669542D1*
X5189368D1*
X5185057Y3670968D1*
X5182205Y3672394D1*
X5179320Y3675279D1*
X5177894Y3679590D1*
Y3689638D1*
X5280290Y3740446D2*
Y3754771D1*
X5293190Y3756197D1*
X5291764Y3754771D1*
X5290305Y3750460D1*
Y3746182D1*
X5291764Y3741871D1*
X5294616Y3738986D1*
X5298927Y3737560D1*
X5301779D1*
X5306090Y3738986D1*
X5308975Y3741871D1*
X5310401Y3746182D1*
Y3750460D1*
X5308975Y3754771D1*
X5307516Y3756197D1*
X5304664Y3757656D1*
X5307516Y3726871D2*
X5308975Y3728297D1*
X5310401Y3726871D1*
X5308975Y3725412D1*
X5307516Y3726871D1*
X5280290Y3707526D2*
X5281716Y3711837D1*
X5286027Y3714722D1*
X5293190Y3716148D1*
X5297501D1*
X5304664Y3714722D1*
X5308975Y3711837D1*
X5310401Y3707526D1*
Y3704674D1*
X5308975Y3700363D1*
X5304664Y3697511D1*
X5297501Y3696052D1*
X5293190D1*
X5286027Y3697511D1*
X5281716Y3700363D1*
X5280290Y3704674D1*
Y3707526D1*
X5286027Y3697511D2*
X5304664Y3714722D1*
X5280257Y3686789D2*
X5310401Y3675315D1*
X5280257Y3663841D1*
X5484270Y3728261D2*
X5481418Y3729687D1*
X5478533Y3732572D1*
X5477107Y3735424D1*
Y3741161D1*
X5478533Y3744046D1*
X5481418Y3746898D1*
X5484270Y3748357D1*
X5488581Y3749783D1*
X5495777D1*
X5500055Y3748357D1*
X5502940Y3746898D1*
X5505792Y3744046D1*
X5507251Y3741161D1*
Y3735424D1*
X5505792Y3732572D1*
X5502940Y3729687D1*
X5500055Y3728261D1*
X5495777D1*
Y3735424D1*
X5477107Y3698901D2*
X5507251D1*
X5477107Y3718997D1*
X5507251D1*
X5477107Y3689638D2*
X5507251D1*
Y3679590D1*
X5505792Y3675279D1*
X5502940Y3672394D1*
X5500055Y3670968D1*
X5495777Y3669542D1*
X5488581D1*
X5484270Y3670968D1*
X5481418Y3672394D1*
X5478533Y3675279D1*
X5477107Y3679590D1*
Y3689638D1*
X5374778Y3750834D2*
Y3735083D1*
X5386252Y3743671D1*
Y3739360D1*
X5387678Y3736509D1*
X5389104Y3735083D1*
X5393415Y3733623D1*
X5396267D1*
X5400578Y3735083D1*
X5403463Y3737934D1*
X5404889Y3742245D1*
Y3746557D1*
X5403463Y3750834D1*
X5402004Y3752260D1*
X5399152Y3753719D1*
X5402004Y3722934D2*
X5403463Y3724360D1*
X5404889Y3722934D1*
X5403463Y3721475D1*
X5402004Y3722934D1*
X5374778Y3709326D2*
Y3693574D1*
X5386252Y3702163D1*
Y3697852D1*
X5387678Y3695000D1*
X5389104Y3693574D1*
X5393415Y3692115D1*
X5396267D1*
X5400578Y3693574D1*
X5403463Y3696426D1*
X5404889Y3700737D1*
Y3705048D1*
X5403463Y3709326D1*
X5402004Y3710752D1*
X5399152Y3712211D1*
X5374745Y3682852D2*
X5404889Y3671378D1*
X5374745Y3659904D1*
X3836543Y3958657D2*
D96*
Y3908417D1*
X3819796D1*
X3812611Y3910849D1*
X3807803Y3915602D1*
X3805426Y3920411D1*
X3803050Y3927541D1*
Y3939534D1*
X3805426Y3946719D1*
X3807803Y3951472D1*
X3812611Y3956281D1*
X3819796Y3958657D1*
X3836543D1*
X3781177D2*
Y3908417D1*
X3759305Y3958657D2*
X3725812Y3908417D1*
Y3958657D2*
X3759305Y3908417D1*
X3689570Y3958657D2*
X3694378Y3956281D1*
X3699131Y3951472D1*
X3701563Y3946719D1*
X3703940Y3939534D1*
Y3927541D1*
X3701563Y3920411D1*
X3699131Y3915602D1*
X3694378Y3910849D1*
X3689570Y3908417D1*
X3680008D1*
X3675255Y3910849D1*
X3670446Y3915602D1*
X3668070Y3920411D1*
X3665693Y3927541D1*
Y3939534D1*
X3668070Y3946719D1*
X3670446Y3951472D1*
X3675255Y3956281D1*
X3680008Y3958657D1*
X3689570D1*
X3605574Y3908417D2*
Y3958657D1*
X3624698Y3908417D1*
X3643821Y3958657D1*
Y3908417D1*
X3583702Y3933510D2*
X3556067D1*
X3495893Y3908417D2*
X3515072Y3958657D1*
X3534195Y3908417D1*
X3527010Y3925164D2*
X3503078D1*
X3435774Y3908417D2*
Y3958657D1*
X3454898Y3908417D1*
X3474021Y3958657D1*
Y3908417D1*
X3413902Y3932349D2*
X3392347D1*
X3385217Y3934726D1*
X3382785Y3937158D1*
X3380409Y3941911D1*
Y3949096D1*
X3382785Y3953849D1*
X3385217Y3956281D1*
X3392347Y3958657D1*
X3413902D1*
Y3908417D1*
X3358537Y3958657D2*
Y3908417D1*
X3329852D1*
X3307979Y3958657D2*
Y3908417D1*
X3254990Y3958657D2*
X3286107D1*
Y3908417D1*
Y3934726D2*
X3266984D1*
X3233118Y3958657D2*
Y3908417D1*
X3180184Y3958657D2*
X3211246D1*
Y3908417D1*
X3180184D1*
X3211246Y3934726D2*
X3192123D1*
X3158312D2*
X3136812D1*
X3129627Y3937158D1*
X3127195Y3939534D1*
X3124819Y3944287D1*
Y3949096D1*
X3127195Y3953849D1*
X3129627Y3956281D1*
X3136812Y3958657D1*
X3158312D1*
Y3908417D1*
X3141565Y3934726D2*
X3124819Y3908417D1*
X3043104Y3958602D2*
X3016851D1*
X3031166Y3939479D1*
X3023981D1*
X3019228Y3937102D1*
X3016851Y3934726D1*
X3014419Y3927541D1*
Y3922788D1*
X3016851Y3915602D1*
X3021604Y3910794D1*
X3028789Y3908417D1*
X3035974D1*
X3043104Y3910794D1*
X3045481Y3913226D1*
X3047913Y3917979D1*
X2992547Y3941911D2*
X2966239Y3908417D1*
Y3941911D2*
X2992547Y3908417D1*
X2872586Y3958657D2*
Y3908417D1*
X2889332Y3958657D2*
X2855839D1*
X2795665Y3908417D2*
X2814844Y3958657D1*
X2833967Y3908417D1*
X2826782Y3925164D2*
X2802850D1*
X2740299Y3951472D2*
X2745053Y3956281D1*
X2752238Y3958657D1*
X2761799D1*
X2768984Y3956281D1*
X2773793Y3951472D1*
Y3946719D1*
X2771361Y3941911D1*
X2768984Y3939534D1*
X2764231Y3937158D1*
X2749861Y3932349D1*
X2745053Y3929973D1*
X2742676Y3927541D1*
X2740299Y3922788D1*
Y3915602D1*
X2745053Y3910849D1*
X2752238Y3908417D1*
X2761799D1*
X2768984Y3910849D1*
X2773793Y3915602D1*
X2713619Y3958602D2*
X2687366D1*
X2701680Y3939479D1*
X2694495D1*
X2689742Y3937102D1*
X2687366Y3934726D1*
X2684934Y3927541D1*
Y3922788D1*
X2687366Y3915602D1*
X2692119Y3910794D1*
X2699304Y3908417D1*
X2706489D1*
X2713619Y3910794D1*
X2715995Y3913226D1*
X2718427Y3917979D1*
X2660630Y3946664D2*
Y3949041D1*
X2658253Y3953849D1*
X2655876Y3956226D1*
X2651068Y3958602D1*
X2641506D1*
X2636753Y3956226D1*
X2634377Y3953849D1*
X2631945Y3949041D1*
Y3944287D1*
X2634377Y3939479D1*
X2639130Y3932349D1*
X2663062Y3908417D1*
X2629568D1*
X2579011Y3958602D2*
X2602887D1*
X2605264Y3937102D1*
X2602887Y3939479D1*
X2595702Y3941911D1*
X2588573D1*
X2581388Y3939479D1*
X2576579Y3934726D1*
X2574203Y3927541D1*
Y3922788D1*
X2576579Y3915602D1*
X2581388Y3910794D1*
X2588573Y3908417D1*
X2595702D1*
X2602887Y3910794D1*
X2605264Y3913226D1*
X2607696Y3917979D1*
X2552330Y3949041D2*
X2547522Y3951472D1*
X2540337Y3958602D1*
Y3908417D1*
X4115780Y3913623D2*
D97*
Y3953815D1*
X4131078Y3913623D1*
X4146377Y3953815D1*
Y3913623D1*
X4091932Y3953815D2*
X4095779Y3951914D1*
X4099581Y3948067D1*
X4101527Y3944264D1*
X4103428Y3938516D1*
Y3928922D1*
X4101527Y3923218D1*
X4099581Y3919371D1*
X4095779Y3915568D1*
X4091932Y3913623D1*
X4084283D1*
X4080480Y3915568D1*
X4076633Y3919371D1*
X4074732Y3923218D1*
X4072831Y3928922D1*
Y3938516D1*
X4074732Y3944264D1*
X4076633Y3948067D1*
X4080480Y3951914D1*
X4084283Y3953815D1*
X4091932D1*
X4060480D2*
Y3913623D1*
X4047082D1*
X4041334Y3915568D1*
X4037487Y3919371D1*
X4035586Y3923218D1*
X4033685Y3928922D1*
Y3938516D1*
X4035586Y3944264D1*
X4037487Y3948067D1*
X4041334Y3951914D1*
X4047082Y3953815D1*
X4060480D1*
X3996484D2*
X4021333D1*
Y3913623D1*
X3996484D1*
X4021333Y3934670D2*
X4006035D1*
X3984133Y3953815D2*
Y3913623D1*
X3961185D1*
X4163357Y3850091D2*
X4146113D1*
X4140409Y3851992D1*
X4138464Y3853938D1*
X4136562Y3857740D1*
Y3863488D1*
X4138464Y3867291D1*
X4140409Y3869236D1*
X4146113Y3871138D1*
X4163357D1*
Y3830946D1*
X4095515Y3861587D2*
X4097416Y3865390D1*
X4101263Y3869236D1*
X4105066Y3871138D1*
X4112715D1*
X4116562Y3869236D1*
X4120364Y3865390D1*
X4122310Y3861587D1*
X4124211Y3855839D1*
Y3846244D1*
X4122310Y3840541D1*
X4120364Y3836694D1*
X4116562Y3832891D1*
X4112715Y3830946D1*
X4105066D1*
X4101263Y3832891D1*
X4097416Y3836694D1*
X4095515Y3840541D1*
X4083164Y3871138D2*
Y3830946D1*
X4065919D1*
X4060171Y3832891D1*
X4058270Y3834793D1*
X4056369Y3838595D1*
Y3844343D1*
X4058270Y3848190D1*
X4060171Y3850091D1*
X4065919Y3851992D1*
X4060171Y3853938D1*
X4058270Y3855839D1*
X4056369Y3859642D1*
Y3863488D1*
X4058270Y3867291D1*
X4060171Y3869236D1*
X4065919Y3871138D1*
X4083164D1*
Y3851992D2*
X4065919D1*
X4005137D2*
X3987937D1*
X3982189Y3853938D1*
X3980243Y3855839D1*
X3978342Y3859642D1*
Y3863488D1*
X3980243Y3867291D1*
X3982189Y3869236D1*
X3987937Y3871138D1*
X4005137D1*
Y3830946D1*
X3991739Y3851992D2*
X3978342Y3830946D1*
X3941141Y3871138D2*
X3965991D1*
Y3830946D1*
X3941141D1*
X3965991Y3851992D2*
X3950692D1*
X3928790Y3871138D2*
X3913491Y3830946D1*
X3898193Y3871138D1*
X3839101Y3864395D2*
D96*
X3834293Y3866827D1*
X3827108Y3873957D1*
Y3823772D1*
X3802859Y3828580D2*
X3805235Y3826148D1*
X3802859Y3823772D1*
X3800427Y3826148D1*
X3802859Y3828580D1*
X3764185Y3873957D2*
X3771370Y3871580D1*
X3776178Y3864395D1*
X3778555Y3852457D1*
Y3845272D1*
X3776178Y3833333D1*
X3771370Y3826148D1*
X3764185Y3823772D1*
X3759431D1*
X3752246Y3826148D1*
X3747493Y3833333D1*
X3745061Y3845272D1*
Y3852457D1*
X3747493Y3864395D1*
X3752246Y3871580D1*
X3759431Y3873957D1*
X3764185D1*
X3747493Y3864395D2*
X3776178Y3833333D1*
X5734905Y3932387D2*
D99*
X5730152Y3934764D1*
X5725343Y3939572D1*
X5722967Y3944325D1*
Y3953887D1*
X5725343Y3958695D1*
X5730152Y3963449D1*
X5734905Y3965880D1*
X5742090Y3968257D1*
X5754083D1*
X5761213Y3965880D1*
X5766022Y3963449D1*
X5770775Y3958695D1*
X5773207Y3953887D1*
Y3944325D1*
X5770775Y3939572D1*
X5766022Y3934764D1*
X5761213Y3932387D1*
X5722967Y3902578D2*
X5725343Y3907386D1*
X5730152Y3912139D1*
X5734905Y3914571D1*
X5742090Y3916948D1*
X5754083D1*
X5761213Y3914571D1*
X5766022Y3912139D1*
X5770775Y3907386D1*
X5773207Y3902578D1*
Y3893016D1*
X5770775Y3888263D1*
X5766022Y3883455D1*
X5761213Y3881078D1*
X5754083Y3878701D1*
X5742090D1*
X5734905Y3881078D1*
X5730152Y3883455D1*
X5725343Y3888263D1*
X5722967Y3893016D1*
Y3902578D1*
Y3829769D2*
X5773207D1*
X5722967Y3863262D1*
X5773207D1*
X5723022Y3809521D2*
Y3783268D1*
X5742145Y3797583D1*
Y3790398D1*
X5744522Y3785645D1*
X5746898Y3783268D1*
X5754083Y3780836D1*
X5758836D1*
X5766022Y3783268D1*
X5770830Y3788021D1*
X5773207Y3795206D1*
Y3802391D1*
X5770830Y3809521D1*
X5768398Y3811898D1*
X5763645Y3814330D1*
X1730968Y3922545D2*
X1726215Y3924921D1*
X1721406Y3929730D1*
X1719030Y3934483D1*
Y3944044D1*
X1721406Y3948853D1*
X1726215Y3953606D1*
X1730968Y3956038D1*
X1738153Y3958415D1*
X1750146D1*
X1757276Y3956038D1*
X1762085Y3953606D1*
X1766838Y3948853D1*
X1769270Y3944044D1*
Y3934483D1*
X1766838Y3929730D1*
X1762085Y3924921D1*
X1757276Y3922545D1*
X1719030Y3892735D2*
X1721406Y3897544D1*
X1726215Y3902297D1*
X1730968Y3904729D1*
X1738153Y3907105D1*
X1750146D1*
X1757276Y3904729D1*
X1762085Y3902297D1*
X1766838Y3897544D1*
X1769270Y3892735D1*
Y3883174D1*
X1766838Y3878420D1*
X1762085Y3873612D1*
X1757276Y3871235D1*
X1750146Y3868859D1*
X1738153D1*
X1730968Y3871235D1*
X1726215Y3873612D1*
X1721406Y3878420D1*
X1719030Y3883174D1*
Y3892735D1*
Y3819926D2*
X1769270D1*
X1719030Y3853420D1*
X1769270D1*
X1731023Y3802055D2*
X1728646D1*
X1723838Y3799679D1*
X1721461Y3797302D1*
X1719085Y3792494D1*
Y3782932D1*
X1721461Y3778179D1*
X1723838Y3775802D1*
X1728646Y3773370D1*
X1733400D1*
X1738208Y3775802D1*
X1745338Y3780555D1*
X1769270Y3804487D1*
Y3770994D1*
X1037467Y3691281D2*
D95*
X1055734Y3673015D1*
Y3691258D2*
X1037467Y3672991D1*
X1020236Y3677122D2*
X1041551Y3655807D1*
X999476Y3656362D2*
X1020791Y3635046D1*
X1013686Y3670572D1*
X1035001Y3649257D1*
X972306Y3629192D2*
X985508Y3599763D1*
X956079Y3612965D1*
X1161435Y3667746D2*
X1158583Y3669172D1*
X1155698Y3672057D1*
X1154272Y3674909D1*
Y3680646D1*
X1155698Y3683531D1*
X1158583Y3686383D1*
X1161435Y3687842D1*
X1165746Y3689268D1*
X1172942D1*
X1177220Y3687842D1*
X1180105Y3686383D1*
X1182957Y3683531D1*
X1184416Y3680646D1*
Y3674909D1*
X1182957Y3672057D1*
X1180105Y3669172D1*
X1177220Y3667746D1*
X1172942D1*
Y3674909D1*
X1154272Y3638387D2*
X1184416D1*
X1154272Y3658483D1*
X1184416D1*
X1154272Y3629123D2*
X1184416D1*
Y3619075D1*
X1182957Y3614764D1*
X1180105Y3611879D1*
X1177220Y3610453D1*
X1172942Y3609027D1*
X1165746D1*
X1161435Y3610453D1*
X1158583Y3611879D1*
X1155698Y3614764D1*
X1154272Y3619075D1*
Y3629123D1*
X1258807Y3673858D2*
X1284640D1*
X1271740Y3686758D2*
Y3660925D1*
X1256668Y3648777D2*
Y3633025D1*
X1268142Y3641614D1*
Y3637303D1*
X1269568Y3634451D1*
X1270994Y3633025D1*
X1275305Y3631566D1*
X1278156D1*
X1282468Y3633025D1*
X1285353Y3635877D1*
X1286779Y3640188D1*
Y3644499D1*
X1285353Y3648777D1*
X1283893Y3650203D1*
X1281042Y3651662D1*
X1283893Y3620876D2*
X1285353Y3622302D1*
X1286779Y3620876D1*
X1285353Y3619417D1*
X1283893Y3620876D1*
X1256668Y3607268D2*
Y3591517D1*
X1268142Y3600106D1*
Y3595795D1*
X1269568Y3592943D1*
X1270994Y3591517D1*
X1275305Y3590058D1*
X1278156D1*
X1282468Y3591517D1*
X1285353Y3594369D1*
X1286779Y3598680D1*
Y3602991D1*
X1285353Y3607268D1*
X1283893Y3608694D1*
X1281042Y3610154D1*
X1256635Y3580794D2*
X1286779Y3569320D1*
X1256635Y3557846D1*
X1361169Y3677795D2*
X1387002D1*
X1374102Y3690695D2*
Y3664862D1*
X1359030Y3638388D2*
Y3652714D1*
X1371930Y3654140D1*
X1370504Y3652714D1*
X1369045Y3648403D1*
Y3644125D1*
X1370504Y3639814D1*
X1373356Y3636929D1*
X1377667Y3635503D1*
X1380519D1*
X1384830Y3636929D1*
X1387715Y3639814D1*
X1389141Y3644125D1*
Y3648403D1*
X1387715Y3652714D1*
X1386256Y3654140D1*
X1383404Y3655599D1*
X1386256Y3624813D2*
X1387715Y3626239D1*
X1389141Y3624813D1*
X1387715Y3623354D1*
X1386256Y3624813D1*
X1359030Y3605468D2*
X1360456Y3609780D1*
X1364767Y3612665D1*
X1371930Y3614091D1*
X1376241D1*
X1383404Y3612665D1*
X1387715Y3609780D1*
X1389141Y3605468D1*
Y3602617D1*
X1387715Y3598306D1*
X1383404Y3595454D1*
X1376241Y3593995D1*
X1371930D1*
X1364767Y3595454D1*
X1360456Y3598306D1*
X1359030Y3602617D1*
Y3605468D1*
X1364767Y3595454D2*
X1383404Y3612665D1*
X1358997Y3584731D2*
X1389141Y3573257D1*
X1358997Y3561783D1*
X1468522Y3667746D2*
X1465670Y3669172D1*
X1462785Y3672057D1*
X1461359Y3674909D1*
Y3680646D1*
X1462785Y3683531D1*
X1465670Y3686383D1*
X1468522Y3687842D1*
X1472833Y3689268D1*
X1480029D1*
X1484307Y3687842D1*
X1487192Y3686383D1*
X1490044Y3683531D1*
X1491503Y3680646D1*
Y3674909D1*
X1490044Y3672057D1*
X1487192Y3669172D1*
X1484307Y3667746D1*
X1480029D1*
Y3674909D1*
X1461359Y3638387D2*
X1491503D1*
X1461359Y3658483D1*
X1491503D1*
X1461359Y3629123D2*
X1491503D1*
Y3619075D1*
X1490044Y3614764D1*
X1487192Y3611879D1*
X1484307Y3610453D1*
X1480029Y3609027D1*
X1472833D1*
X1468522Y3610453D1*
X1465670Y3611879D1*
X1462785Y3614764D1*
X1461359Y3619075D1*
Y3629123D1*
X1561956Y3672399D2*
X1587789D1*
X1574889Y3685299D2*
Y3659466D1*
X1566947Y3628681D2*
X1564095Y3630107D1*
X1561210Y3632992D1*
X1559784Y3635844D1*
Y3641581D1*
X1561210Y3644466D1*
X1564095Y3647318D1*
X1566947Y3648777D1*
X1571258Y3650203D1*
X1578454D1*
X1582732Y3648777D1*
X1585617Y3647318D1*
X1588469Y3644466D1*
X1589928Y3641581D1*
Y3635844D1*
X1588469Y3632992D1*
X1585617Y3630107D1*
X1582732Y3628681D1*
X1559784Y3619417D2*
X1589928D1*
X1559784Y3590058D2*
X1589928D1*
X1559784Y3610154D1*
X1589928D1*
X1559784Y3580794D2*
X1589928Y3569320D1*
X1559784Y3557846D1*
X5583780Y3734179D2*
X5580895Y3737031D1*
X5579469Y3741342D1*
Y3747079D1*
X5580895Y3751390D1*
X5583780Y3754275D1*
X5586632D1*
X5589517Y3752816D1*
X5590943Y3751390D1*
X5592369Y3748538D1*
X5595254Y3739916D1*
X5596680Y3737031D1*
X5598139Y3735605D1*
X5600991Y3734179D1*
X5605302D1*
X5608154Y3737031D1*
X5609613Y3741342D1*
Y3747079D1*
X5608154Y3751390D1*
X5605302Y3754275D1*
X5595254Y3724915D2*
Y3711982D1*
X5593828Y3707704D1*
X5592369Y3706245D1*
X5589517Y3704819D1*
X5585206D1*
X5582354Y3706245D1*
X5580895Y3707704D1*
X5579469Y3711982D1*
Y3724915D1*
X5609613D1*
X5579469Y3695556D2*
X5609613D1*
Y3685508D1*
X5608154Y3681197D1*
X5605302Y3678312D1*
X5602417Y3676886D1*
X5598139Y3675460D1*
X5590943D1*
X5586632Y3676886D1*
X5583780Y3678312D1*
X5580895Y3681197D1*
X5579469Y3685508D1*
Y3695556D1*
Y3666196D2*
X5609613D1*
X5579469Y3638263D2*
Y3656933D1*
X5609613D1*
X5593828D2*
Y3645459D1*
X5579469Y3591216D2*
X5580895Y3594102D1*
X5583780Y3596953D1*
X5586632Y3598413D1*
X5590943Y3599839D1*
X5598139D1*
X5602417Y3598413D1*
X5605302Y3596953D1*
X5608154Y3594102D1*
X5609613Y3591216D1*
Y3585480D1*
X5608154Y3582628D1*
X5605302Y3579743D1*
X5602417Y3578317D1*
X5598139Y3576891D1*
X5590943D1*
X5586632Y3578317D1*
X5583780Y3579743D1*
X5580895Y3582628D1*
X5579469Y3585480D1*
Y3591216D1*
Y3567627D2*
X5600991D1*
X5605302Y3566201D1*
X5608154Y3563316D1*
X5609613Y3559005D1*
Y3556153D1*
X5608154Y3551842D1*
X5605302Y3548957D1*
X5600991Y3547531D1*
X5579469D1*
Y3528220D2*
X5609613D1*
X5579469Y3538268D2*
Y3518172D1*
X4469233Y3752976D2*
X4499377D1*
Y3740043D1*
X4497918Y3735732D1*
X4496492Y3734306D1*
X4493640Y3732880D1*
X4489329D1*
X4486444Y3734306D1*
X4485018Y3735732D1*
X4483592Y3740043D1*
X4482133Y3735732D1*
X4480707Y3734306D1*
X4477855Y3732880D1*
X4474970D1*
X4472118Y3734306D1*
X4470659Y3735732D1*
X4469233Y3740043D1*
Y3752976D1*
X4483592D2*
Y3740043D1*
X4476396Y3702095D2*
X4473544Y3703521D1*
X4470659Y3706406D1*
X4469233Y3709258D1*
Y3714995D1*
X4470659Y3717880D1*
X4473544Y3720732D1*
X4476396Y3722191D1*
X4480707Y3723617D1*
X4487903D1*
X4492181Y3722191D1*
X4495066Y3720732D1*
X4497918Y3717880D1*
X4499377Y3714995D1*
Y3709258D1*
X4497918Y3706406D1*
X4495066Y3703521D1*
X4492181Y3702095D1*
X4469233Y3692831D2*
X4499377D1*
Y3675620D1*
X4469233Y3666357D2*
X4499377D1*
X4469233Y3646261D2*
X4489329Y3666357D1*
X4482133Y3659194D2*
X4499377Y3646261D1*
X4469266Y3628375D2*
X4470692Y3632686D1*
X4475003Y3635571D1*
X4482166Y3636997D1*
X4486477D1*
X4493640Y3635571D1*
X4497951Y3632686D1*
X4499377Y3628375D1*
Y3625523D1*
X4497951Y3621212D1*
X4493640Y3618360D1*
X4486477Y3616901D1*
X4482166D1*
X4475003Y3618360D1*
X4470692Y3621212D1*
X4469266Y3625523D1*
Y3628375D1*
X4475003Y3618360D2*
X4493640Y3635571D1*
X4400952Y3731934D2*
X4370808D1*
X4400952Y3743408D1*
X4370808Y3754882D1*
X4400952D1*
X4377971Y3701149D2*
X4375119Y3702575D1*
X4372234Y3705460D1*
X4370808Y3708312D1*
Y3714049D1*
X4372234Y3716934D1*
X4375119Y3719786D1*
X4377971Y3721245D1*
X4382282Y3722671D1*
X4389478D1*
X4393756Y3721245D1*
X4396641Y3719786D1*
X4399493Y3716934D1*
X4400952Y3714049D1*
Y3708312D1*
X4399493Y3705460D1*
X4396641Y3702575D1*
X4393756Y3701149D1*
X4370808Y3691885D2*
X4400952D1*
Y3674674D1*
X4370808Y3665411D2*
X4400952D1*
X4370808Y3645315D2*
X4390904Y3665411D1*
X4383708Y3658248D2*
X4400952Y3645315D1*
X4370808Y3606891D2*
X4400952D1*
X4370808Y3577531D2*
X4400952D1*
X4370808Y3597627D1*
X4400952D1*
X4575532Y3755824D2*
X4605676D1*
Y3738613D1*
X4589891Y3729350D2*
Y3716450D1*
X4588432Y3712139D1*
X4587006Y3710680D1*
X4584154Y3709254D1*
X4581269D1*
X4578417Y3710680D1*
X4576958Y3712139D1*
X4575532Y3716450D1*
Y3729350D1*
X4605676D1*
X4589891Y3719302D2*
X4605676Y3709254D1*
X4582695Y3678468D2*
X4579843Y3679894D1*
X4576958Y3682779D1*
X4575532Y3685631D1*
Y3691368D1*
X4576958Y3694253D1*
X4579843Y3697105D1*
X4582695Y3698564D1*
X4587006Y3699990D1*
X4594202D1*
X4598480Y3698564D1*
X4601365Y3697105D1*
X4604217Y3694253D1*
X4605676Y3691368D1*
Y3685631D1*
X4604217Y3682779D1*
X4601365Y3679894D1*
X4598480Y3678468D1*
X4575532Y3669205D2*
X4605676D1*
X4575532Y3649109D2*
X4595628Y3669205D1*
X4588432Y3662042D2*
X4605676Y3649109D1*
X4581302Y3639845D2*
X4579843Y3636960D1*
X4575565Y3632649D1*
X4605676D1*
X4673957Y3755180D2*
X4704101D1*
Y3745132D1*
X4702642Y3740821D1*
X4699790Y3737936D1*
X4696905Y3736510D1*
X4692627Y3735084D1*
X4685431D1*
X4681120Y3736510D1*
X4678268Y3737936D1*
X4675383Y3740821D1*
X4673957Y3745132D1*
Y3755180D1*
X4704101Y3702839D2*
X4673957Y3714346D1*
X4704101Y3725820D1*
X4694053Y3721509D2*
Y3707150D1*
X4673957Y3683527D2*
X4704101D1*
X4673957Y3693575D2*
Y3673479D1*
X4704101Y3641235D2*
X4673957Y3652742D1*
X4704101Y3664216D1*
X4694053Y3659905D2*
Y3645546D1*
X4679728Y3631971D2*
X4678268Y3629086D1*
X4673991Y3624775D1*
X4704101D1*
X4878682Y3756913D2*
X4908826D1*
Y3743980D1*
X4907367Y3739669D1*
X4905941Y3738243D1*
X4903089Y3736817D1*
X4898778D1*
X4895893Y3738243D1*
X4894467Y3739669D1*
X4893041Y3743980D1*
X4891582Y3739669D1*
X4890156Y3738243D1*
X4887304Y3736817D1*
X4884419D1*
X4881567Y3738243D1*
X4880108Y3739669D1*
X4878682Y3743980D1*
Y3756913D1*
X4893041D2*
Y3743980D1*
X4885845Y3706032D2*
X4882993Y3707458D1*
X4880108Y3710343D1*
X4878682Y3713195D1*
Y3718932D1*
X4880108Y3721817D1*
X4882993Y3724669D1*
X4885845Y3726128D1*
X4890156Y3727554D1*
X4897352D1*
X4901630Y3726128D1*
X4904515Y3724669D1*
X4907367Y3721817D1*
X4908826Y3718932D1*
Y3713195D1*
X4907367Y3710343D1*
X4904515Y3707458D1*
X4901630Y3706032D1*
X4878682Y3696768D2*
X4908826D1*
Y3679557D1*
X4878682Y3670294D2*
X4908826D1*
X4878682Y3650198D2*
X4898778Y3670294D1*
X4891582Y3663131D2*
X4908826Y3650198D1*
X4885878Y3639475D2*
X4884452D1*
X4881567Y3638049D1*
X4880141Y3636623D1*
X4878715Y3633738D1*
Y3628001D1*
X4880141Y3625149D1*
X4881567Y3623723D1*
X4884452Y3622264D1*
X4887304D1*
X4890189Y3623723D1*
X4894467Y3626575D1*
X4908826Y3640934D1*
Y3620838D1*
X4973170Y3752976D2*
X5003314D1*
Y3735765D1*
X4987529Y3726502D2*
Y3713602D1*
X4986070Y3709291D1*
X4984644Y3707832D1*
X4981792Y3706406D1*
X4978907D1*
X4976055Y3707832D1*
X4974596Y3709291D1*
X4973170Y3713602D1*
Y3726502D1*
X5003314D1*
X4987529Y3716454D2*
X5003314Y3706406D1*
X4980333Y3675620D2*
X4977481Y3677046D1*
X4974596Y3679931D1*
X4973170Y3682783D1*
Y3688520D1*
X4974596Y3691405D1*
X4977481Y3694257D1*
X4980333Y3695716D1*
X4984644Y3697142D1*
X4991840D1*
X4996118Y3695716D1*
X4999003Y3694257D1*
X5001855Y3691405D1*
X5003314Y3688520D1*
Y3682783D1*
X5001855Y3679931D1*
X4999003Y3677046D1*
X4996118Y3675620D1*
X4973170Y3666357D2*
X5003314D1*
X4973170Y3646261D2*
X4993266Y3666357D1*
X4986070Y3659194D2*
X5003314Y3646261D1*
X4973203Y3634112D2*
Y3618360D1*
X4984677Y3626949D1*
Y3622638D1*
X4986103Y3619786D1*
X4987529Y3618360D1*
X4991840Y3616901D1*
X4994692D1*
X4999003Y3618360D1*
X5001888Y3621212D1*
X5003314Y3625523D1*
Y3629834D1*
X5001888Y3634112D1*
X5000429Y3635538D1*
X4997577Y3636997D1*
X5075532Y3756269D2*
X5105676D1*
Y3746221D1*
X5104217Y3741909D1*
X5101365Y3739024D1*
X5098480Y3737598D1*
X5094202Y3736173D1*
X5087006D1*
X5082695Y3737598D1*
X5079843Y3739024D1*
X5076958Y3741909D1*
X5075532Y3746221D1*
Y3756269D1*
X5105676Y3703928D2*
X5075532Y3715435D1*
X5105676Y3726909D1*
X5095628Y3722598D2*
Y3708239D1*
X5075532Y3684616D2*
X5105676D1*
X5075532Y3694664D2*
Y3674568D1*
X5105676Y3642324D2*
X5075532Y3653831D1*
X5105676Y3665305D1*
X5095628Y3660994D2*
Y3646635D1*
X5075565Y3630175D2*
Y3614423D1*
X5087039Y3623012D1*
Y3618701D1*
X5088465Y3615849D1*
X5089891Y3614423D1*
X5094202Y3612964D1*
X5097054D1*
X5101365Y3614423D1*
X5104250Y3617275D1*
X5105676Y3621586D1*
Y3625897D1*
X5104250Y3630175D1*
X5102791Y3631601D1*
X5099939Y3633060D1*
X3730841Y2532062D2*
D99*
X3781081D1*
X3730841Y2548808D2*
Y2515315D1*
Y2499876D2*
X3781081D1*
X3730841Y2466382D2*
X3781081D1*
X3754772Y2499876D2*
Y2466382D1*
X3730841Y2419882D2*
Y2450943D1*
X3781081D1*
Y2419882D1*
X3754772Y2450943D2*
Y2431820D1*
Y2404442D2*
Y2382943D1*
X3752340Y2375758D1*
X3749964Y2373326D1*
X3745211Y2370949D1*
X3740402D1*
X3735649Y2373326D1*
X3733217Y2375758D1*
X3730841Y2382943D1*
Y2404442D1*
X3781081D1*
X3754772Y2387696D2*
X3781081Y2370949D1*
Y2317263D2*
X3730841D1*
X3781081Y2336387D1*
X3730841Y2355510D1*
X3781081D1*
X3730841Y2287454D2*
X3733217Y2292262D1*
X3738026Y2297016D1*
X3742779Y2299447D1*
X3749964Y2301824D1*
X3761957D1*
X3769087Y2299447D1*
X3773896Y2297016D1*
X3778649Y2292262D1*
X3781081Y2287454D1*
Y2277892D1*
X3778649Y2273139D1*
X3773896Y2268331D1*
X3769087Y2265954D1*
X3761957Y2263578D1*
X3749964D1*
X3742779Y2265954D1*
X3738026Y2268331D1*
X3733217Y2273139D1*
X3730841Y2277892D1*
Y2287454D1*
X3781081Y2209892D2*
X3730841D1*
X3781081Y2229015D1*
X3730841Y2248138D1*
X3781081D1*
X3730841Y2163391D2*
Y2194453D1*
X3781081D1*
Y2163391D1*
X3754772Y2194453D2*
Y2175329D1*
X3730841Y2131205D2*
X3781081D1*
X3730841Y2147952D2*
Y2114458D1*
Y2067958D2*
Y2099019D1*
X3781081D1*
Y2067958D1*
X3754772Y2099019D2*
Y2079896D1*
Y2052519D2*
Y2031019D1*
X3752340Y2023834D1*
X3749964Y2021402D1*
X3745211Y2019025D1*
X3740402D1*
X3735649Y2021402D1*
X3733217Y2023834D1*
X3730841Y2031019D1*
Y2052519D1*
X3781081D1*
X3754772Y2035772D2*
X3781081Y2019025D1*
X1882536Y-370031D2*
X1884913Y-365278D1*
X1889721Y-360469D1*
X1894474Y-358093D1*
X1904036D1*
X1908844Y-360469D1*
X1913597Y-365278D1*
X1916029Y-370031D1*
X1918406Y-377216D1*
Y-389209D1*
X1916029Y-396339D1*
X1913597Y-401148D1*
X1908844Y-405901D1*
X1904036Y-408333D1*
X1894474D1*
X1889721Y-405901D1*
X1884913Y-401148D1*
X1882536Y-396339D1*
Y-389209D1*
X1894474D1*
X1833603Y-358093D2*
Y-408333D1*
X1867097Y-358093D1*
Y-408333D1*
X1818164Y-358093D2*
Y-408333D1*
X1801418D1*
X1794232Y-405901D1*
X1789424Y-401148D1*
X1787047Y-396339D1*
X1784671Y-389209D1*
Y-377216D1*
X1787047Y-370031D1*
X1789424Y-365278D1*
X1794232Y-360469D1*
X1801418Y-358093D1*
X1818164D1*
X2372028Y-361713D2*
Y-404768D1*
X2393528Y-383268D2*
X2350473D1*
X2335034Y-367709D2*
X2330226Y-365278D1*
X2323041Y-358148D1*
Y-408333D1*
X2305169Y-370086D2*
Y-367709D1*
X2302793Y-362901D1*
X2300416Y-360524D1*
X2295608Y-358148D1*
X2286046D1*
X2281293Y-360524D1*
X2278916Y-362901D1*
X2276485Y-367709D1*
Y-372463D1*
X2278916Y-377271D1*
X2283670Y-384401D1*
X2307601Y-408333D1*
X2274108D1*
X2258669Y-383240D2*
X2231034D1*
X2210786Y-358148D2*
X2184533D1*
X2198848Y-377271D1*
X2191663D1*
X2186910Y-379648D1*
X2184533Y-382024D1*
X2182101Y-389209D1*
Y-393962D1*
X2184533Y-401148D1*
X2189286Y-405956D1*
X2196471Y-408333D1*
X2203657D1*
X2210786Y-405956D1*
X2213163Y-403524D1*
X2215595Y-398771D1*
X2137977Y-365278D2*
X2140354Y-360524D1*
X2147539Y-358148D1*
X2152292D1*
X2159477Y-360524D1*
X2164286Y-367709D1*
X2166662Y-379648D1*
Y-391586D1*
X2164286Y-401148D1*
X2159477Y-405956D1*
X2152292Y-408333D1*
X2149916D1*
X2142786Y-405956D1*
X2137977Y-401148D1*
X2135601Y-393962D1*
Y-391586D1*
X2137977Y-384401D1*
X2142786Y-379648D1*
X2149916Y-377271D1*
X2152292D1*
X2159477Y-379648D1*
X2164286Y-384401D1*
X2166662Y-391586D1*
X2120161Y-358093D2*
X2101038Y-408333D1*
X2081915Y-358093D1*
X3908127Y-362157D2*
X3910503Y-357404D1*
X3915312Y-352595D1*
X3920065Y-350219D1*
X3929626D1*
X3934435Y-352595D1*
X3939188Y-357404D1*
X3941620Y-362157D1*
X3943996Y-369342D1*
Y-381335D1*
X3941620Y-388465D1*
X3939188Y-393274D1*
X3934435Y-398027D1*
X3929626Y-400459D1*
X3920065D1*
X3915312Y-398027D1*
X3910503Y-393274D1*
X3908127Y-388465D1*
Y-381335D1*
X3920065D1*
X3859194Y-350219D2*
Y-400459D1*
X3892687Y-350219D1*
Y-400459D1*
X3843755Y-350219D2*
Y-400459D1*
X3827008D1*
X3819823Y-398027D1*
X3815015Y-393274D1*
X3812638Y-388465D1*
X3810261Y-381335D1*
Y-369342D1*
X3812638Y-362157D1*
X3815015Y-357404D1*
X3819823Y-352595D1*
X3827008Y-350219D1*
X3843755D1*
X4387776Y-353839D2*
Y-396894D1*
X4409276Y-375394D2*
X4366221D1*
X4350782Y-359835D2*
X4345974Y-357404D1*
X4338789Y-350274D1*
Y-400459D1*
X4320918Y-362212D2*
Y-359835D1*
X4318541Y-355027D1*
X4316164Y-352650D1*
X4311356Y-350274D1*
X4301794D1*
X4297041Y-352650D1*
X4294664Y-355027D1*
X4292233Y-359835D1*
Y-364589D1*
X4294664Y-369397D1*
X4299418Y-376527D1*
X4323349Y-400459D1*
X4289856D1*
X4274417Y-375366D2*
X4246782D1*
X4226534Y-350274D2*
X4200281D1*
X4214596Y-369397D1*
X4207411D1*
X4202658Y-371774D1*
X4200281Y-374150D1*
X4197849Y-381335D1*
Y-386088D1*
X4200281Y-393274D1*
X4205034Y-398082D1*
X4212220Y-400459D1*
X4219405D1*
X4226534Y-398082D1*
X4228911Y-395650D1*
X4231343Y-390897D1*
X4153725Y-357404D2*
X4156102Y-352650D1*
X4163287Y-350274D1*
X4168040D1*
X4175225Y-352650D1*
X4180034Y-359835D1*
X4182410Y-371774D1*
Y-383712D1*
X4180034Y-393274D1*
X4175225Y-398082D1*
X4168040Y-400459D1*
X4165664D1*
X4158534Y-398082D1*
X4153725Y-393274D1*
X4151349Y-386088D1*
Y-383712D1*
X4153725Y-376527D1*
X4158534Y-371774D1*
X4165664Y-369397D1*
X4168040D1*
X4175225Y-371774D1*
X4180034Y-376527D1*
X4182410Y-383712D1*
X4135909Y-350219D2*
X4116786Y-400459D1*
X4097663Y-350219D1*
X640003Y-289322D2*
X642379Y-284569D1*
X647188Y-279760D1*
X651941Y-277384D1*
X661503D1*
X666311Y-279760D1*
X671064Y-284569D1*
X673496Y-289322D1*
X675873Y-296507D1*
Y-308501D1*
X673496Y-315630D1*
X671064Y-320439D1*
X666311Y-325192D1*
X661503Y-327624D1*
X651941D1*
X647188Y-325192D1*
X642379Y-320439D1*
X640003Y-315630D1*
X624564Y-277384D2*
Y-327624D1*
X591070Y-277384D2*
Y-327624D1*
X624564Y-301316D2*
X591070D1*
X575631Y-287001D2*
X570823Y-284569D1*
X563637Y-277439D1*
Y-327624D1*
X526698Y-281004D2*
Y-324059D1*
X548198Y-302559D2*
X505143D1*
X5699227Y1760124D2*
D95*
X5700653Y1762976D1*
X5703538Y1765861D1*
X5706390Y1767287D1*
X5712126D1*
X5715012Y1765861D1*
X5717863Y1762976D1*
X5719323Y1760124D1*
X5720749Y1755813D1*
Y1748617D1*
X5719323Y1744339D1*
X5717863Y1741454D1*
X5715012Y1738602D1*
X5712126Y1737143D1*
X5706390D1*
X5703538Y1738602D1*
X5700653Y1741454D1*
X5699227Y1744339D1*
Y1748617D1*
X5706390D1*
X5669867Y1767287D2*
Y1737143D1*
X5689963Y1767287D1*
Y1737143D1*
X5660603Y1767287D2*
Y1737143D1*
X5650555D1*
X5646244Y1738602D1*
X5643359Y1741454D1*
X5641933Y1744339D1*
X5640507Y1748617D1*
Y1755813D1*
X5641933Y1760124D1*
X5643359Y1762976D1*
X5646244Y1765861D1*
X5650555Y1767287D1*
X5660603D1*
X5705339Y1682437D2*
Y1656604D1*
X5718239Y1669504D2*
X5692406D1*
X5665931Y1684576D2*
X5680257D1*
X5681683Y1671676D1*
X5680257Y1673102D1*
X5675946Y1674562D1*
X5671668D1*
X5667357Y1673102D1*
X5664472Y1670251D1*
X5663046Y1665940D1*
Y1663088D1*
X5664472Y1658777D1*
X5667357Y1655892D1*
X5671668Y1654466D1*
X5675946D1*
X5680257Y1655892D1*
X5681683Y1657351D1*
X5683142Y1660203D1*
X5652357Y1657351D2*
X5653782Y1655892D1*
X5652357Y1654466D1*
X5650897Y1655892D1*
X5652357Y1657351D1*
X5633012Y1684576D2*
X5637323Y1683150D1*
X5640208Y1678839D1*
X5641634Y1671676D1*
Y1667365D1*
X5640208Y1660203D1*
X5637323Y1655892D1*
X5633012Y1654466D1*
X5630160D1*
X5625849Y1655892D1*
X5622997Y1660203D1*
X5621538Y1667365D1*
Y1671676D1*
X5622997Y1678839D1*
X5625849Y1683150D1*
X5630160Y1684576D1*
X5633012D1*
X5622997Y1678839D2*
X5640208Y1660203D1*
X5612274Y1684610D2*
X5600800Y1654466D1*
X5589326Y1684610D1*
X5698175Y1601558D2*
X5701027Y1604443D1*
X5705338Y1605869D1*
X5711075D1*
X5715386Y1604443D1*
X5718271Y1601558D1*
Y1598706D1*
X5716812Y1595821D1*
X5715386Y1594395D1*
X5712534Y1592969D1*
X5703912Y1590084D1*
X5701027Y1588658D1*
X5699601Y1587199D1*
X5698175Y1584347D1*
Y1580036D1*
X5701027Y1577185D1*
X5705338Y1575725D1*
X5711075D1*
X5715386Y1577185D1*
X5718271Y1580036D1*
X5688911Y1605869D2*
Y1575725D1*
X5678863D1*
X5674552Y1577185D1*
X5671667Y1580036D1*
X5670241Y1582921D1*
X5668815Y1587199D1*
Y1594395D1*
X5670241Y1598706D1*
X5671667Y1601558D1*
X5674552Y1604443D1*
X5678863Y1605869D1*
X5688911D1*
X5636570Y1575725D2*
X5648078Y1605869D1*
X5659552Y1575725D1*
X5655241Y1585773D2*
X5640882D1*
X5697767Y1526755D2*
X5700619Y1529640D1*
X5704930Y1531066D1*
X5710667D1*
X5714978Y1529640D1*
X5717863Y1526755D1*
Y1523903D1*
X5716404Y1521018D1*
X5714978Y1519592D1*
X5712126Y1518166D1*
X5703504Y1515281D1*
X5700619Y1513855D1*
X5699193Y1512396D1*
X5697767Y1509544D1*
Y1505233D1*
X5700619Y1502381D1*
X5704930Y1500922D1*
X5710667D1*
X5714978Y1502381D1*
X5717863Y1505233D1*
X5666982Y1523903D2*
X5668408Y1526755D1*
X5671293Y1529640D1*
X5674145Y1531066D1*
X5679882D1*
X5682767Y1529640D1*
X5685619Y1526755D1*
X5687078Y1523903D1*
X5688504Y1519592D1*
Y1512396D1*
X5687078Y1508118D1*
X5685619Y1505233D1*
X5682767Y1502381D1*
X5679882Y1500922D1*
X5674145D1*
X5671293Y1502381D1*
X5668408Y1505233D1*
X5666982Y1508118D1*
X5657718Y1531066D2*
Y1500922D1*
X5640507D1*
X5718986Y1452326D2*
Y1422182D1*
X5706053D1*
X5701742Y1423641D1*
X5700316Y1425067D1*
X5698890Y1427919D1*
Y1432230D1*
X5700316Y1435115D1*
X5701742Y1436541D1*
X5706053Y1437967D1*
X5701742Y1439426D1*
X5700316Y1440852D1*
X5698890Y1443704D1*
Y1446589D1*
X5700316Y1449441D1*
X5701742Y1450900D1*
X5706053Y1452326D1*
X5718986D1*
Y1437967D2*
X5706053D1*
X5679578Y1452326D2*
Y1422182D1*
X5689626Y1452326D2*
X5669530D1*
X5640171D2*
Y1422182D1*
X5660267Y1452326D1*
Y1422182D1*
X5618007Y1450154D2*
Y1424321D1*
X5630907Y1437221D2*
X5605074D1*
X5717608Y1373586D2*
Y1343442D1*
X5704675D1*
X5700364Y1344901D1*
X5698938Y1346327D1*
X5697512Y1349179D1*
Y1353490D1*
X5698938Y1356375D1*
X5700364Y1357801D1*
X5704675Y1359227D1*
X5700364Y1360686D1*
X5698938Y1362112D1*
X5697512Y1364964D1*
Y1367849D1*
X5698938Y1370701D1*
X5700364Y1372160D1*
X5704675Y1373586D1*
X5717608D1*
Y1359227D2*
X5704675D1*
X5678200Y1373586D2*
Y1343442D1*
X5688248Y1373586D2*
X5668152D1*
X5638793D2*
Y1343442D1*
X5658889Y1373586D1*
Y1343442D1*
X5629529Y1358497D2*
X5612948D1*
X5717708Y1294846D2*
Y1264702D1*
X5704775D1*
X5700464Y1266161D1*
X5699038Y1267587D1*
X5697612Y1270439D1*
Y1274750D1*
X5699038Y1277635D1*
X5700464Y1279061D1*
X5704775Y1280487D1*
X5700464Y1281946D1*
X5699038Y1283372D1*
X5697612Y1286224D1*
Y1289109D1*
X5699038Y1291961D1*
X5700464Y1293420D1*
X5704775Y1294846D1*
X5717708D1*
Y1280487D2*
X5704775D1*
X5678300Y1294846D2*
Y1264702D1*
X5688348Y1294846D2*
X5668252D1*
X5638893D2*
Y1264702D1*
X5658989Y1294846D1*
Y1264702D1*
X5577521D2*
Y1294846D1*
X5588995Y1264702D1*
X5600469Y1294846D1*
Y1264702D1*
X5549620Y1294846D2*
X5568257D1*
Y1264702D1*
X5549620D1*
X5568257Y1280487D2*
X5556783D1*
X5520261Y1294846D2*
Y1264702D1*
X5540357Y1294846D1*
Y1264702D1*
X5510997Y1294846D2*
Y1273324D1*
X5509571Y1269013D1*
X5506686Y1266161D1*
X5502375Y1264702D1*
X5499523D1*
X5495212Y1266161D1*
X5492327Y1269013D1*
X5490901Y1273324D1*
Y1294846D1*
X5703164Y1994376D2*
X5704590Y1997228D1*
X5707475Y2000113D1*
X5710327Y2001539D1*
X5716064D1*
X5718949Y2000113D1*
X5721800Y1997228D1*
X5723260Y1994376D1*
X5724686Y1990065D1*
Y1982869D1*
X5723260Y1978591D1*
X5721800Y1975706D1*
X5718949Y1972854D1*
X5716064Y1971395D1*
X5710327D1*
X5707475Y1972854D1*
X5704590Y1975706D1*
X5703164Y1978591D1*
Y1982869D1*
X5710327D1*
X5673804Y2001539D2*
Y1971395D1*
X5693900Y2001539D1*
Y1971395D1*
X5664540Y2001539D2*
Y1971395D1*
X5654492D1*
X5650181Y1972854D1*
X5647296Y1975706D1*
X5645870Y1978591D1*
X5644444Y1982869D1*
Y1990065D1*
X5645870Y1994376D1*
X5647296Y1997228D1*
X5650181Y2000113D1*
X5654492Y2001539D1*
X5664540D1*
X5713924Y1920626D2*
Y1894793D1*
X5726824Y1907693D2*
X5700991D1*
X5691728Y1917028D2*
X5688843Y1918488D1*
X5684532Y1922765D1*
Y1892655D1*
X5673809Y1915602D2*
Y1917028D1*
X5672383Y1919913D1*
X5670957Y1921339D1*
X5668072Y1922765D1*
X5662335D1*
X5659483Y1921339D1*
X5658057Y1919913D1*
X5656598Y1917028D1*
Y1914176D1*
X5658057Y1911291D1*
X5660909Y1907014D1*
X5675268Y1892655D1*
X5655172D1*
X5644482Y1895540D2*
X5645908Y1894080D1*
X5644482Y1892655D1*
X5643023Y1894080D1*
X5644482Y1895540D1*
X5625138Y1922765D2*
X5629449Y1921339D1*
X5632334Y1917028D1*
X5633760Y1909865D1*
Y1905554D1*
X5632334Y1898392D1*
X5629449Y1894080D1*
X5625138Y1892655D1*
X5622286D1*
X5617975Y1894080D1*
X5615123Y1898392D1*
X5613664Y1905554D1*
Y1909865D1*
X5615123Y1917028D1*
X5617975Y1921339D1*
X5622286Y1922765D1*
X5625138D1*
X5615123Y1917028D2*
X5632334Y1898392D1*
X5604400Y1922799D2*
X5592926Y1892655D1*
X5581452Y1922799D1*
X917890Y-289322D2*
D99*
X920266Y-284569D1*
X925075Y-279760D1*
X929828Y-277384D1*
X939390D1*
X944198Y-279760D1*
X948951Y-284569D1*
X951383Y-289322D1*
X953760Y-296507D1*
Y-308501D1*
X951383Y-315630D1*
X948951Y-320439D1*
X944198Y-325192D1*
X939390Y-327624D1*
X929828D1*
X925075Y-325192D1*
X920266Y-320439D1*
X917890Y-315630D1*
X902450Y-277384D2*
Y-327624D1*
X868957Y-277384D2*
Y-327624D1*
X902450Y-301316D2*
X868957D1*
X853518Y-287001D2*
X848709Y-284569D1*
X841524Y-277439D1*
Y-327624D1*
X826085Y-302532D2*
X798450D1*
X1246148Y-289322D2*
X1248525Y-284569D1*
X1253333Y-279760D1*
X1258087Y-277384D1*
X1267648D1*
X1272457Y-279760D1*
X1277210Y-284569D1*
X1279642Y-289322D1*
X1282018Y-296507D1*
Y-308501D1*
X1279642Y-315630D1*
X1277210Y-320439D1*
X1272457Y-325192D1*
X1267648Y-327624D1*
X1258087D1*
X1253333Y-325192D1*
X1248525Y-320439D1*
X1246148Y-315630D1*
X1230709Y-277384D2*
Y-327624D1*
X1197216Y-277384D2*
Y-327624D1*
X1230709Y-301316D2*
X1197216D1*
X1179345Y-289377D2*
Y-287001D1*
X1176968Y-282192D1*
X1174591Y-279816D1*
X1169783Y-277439D1*
X1160221D1*
X1155468Y-279816D1*
X1153092Y-282192D1*
X1150660Y-287001D1*
Y-291754D1*
X1153092Y-296562D1*
X1157845Y-303692D1*
X1181776Y-327624D1*
X1148283D1*
X1111344Y-281004D2*
Y-324059D1*
X1132844Y-302559D2*
X1089789D1*
X1524035Y-289322D2*
X1526412Y-284569D1*
X1531220Y-279760D1*
X1535973Y-277384D1*
X1545535D1*
X1550344Y-279760D1*
X1555097Y-284569D1*
X1557529Y-289322D1*
X1559905Y-296507D1*
Y-308501D1*
X1557529Y-315630D1*
X1555097Y-320439D1*
X1550344Y-325192D1*
X1545535Y-327624D1*
X1535973D1*
X1531220Y-325192D1*
X1526412Y-320439D1*
X1524035Y-315630D1*
X1508596Y-277384D2*
Y-327624D1*
X1475103Y-277384D2*
Y-327624D1*
X1508596Y-301316D2*
X1475103D1*
X1457232Y-289377D2*
Y-287001D1*
X1454855Y-282192D1*
X1452478Y-279816D1*
X1447670Y-277439D1*
X1438108D1*
X1433355Y-279816D1*
X1430978Y-282192D1*
X1428547Y-287001D1*
Y-291754D1*
X1430978Y-296562D1*
X1435732Y-303692D1*
X1459663Y-327624D1*
X1426170D1*
X1410731Y-302532D2*
X1383096D1*
X2669377Y-287354D2*
X2671753Y-282600D1*
X2676562Y-277792D1*
X2681315Y-275415D1*
X2690877D1*
X2695685Y-277792D1*
X2700438Y-282600D1*
X2702870Y-287354D1*
X2705247Y-294539D1*
Y-306532D1*
X2702870Y-313662D1*
X2700438Y-318470D1*
X2695685Y-323224D1*
X2690877Y-325655D1*
X2681315D1*
X2676562Y-323224D1*
X2671753Y-318470D1*
X2669377Y-313662D1*
X2653937Y-275415D2*
Y-325655D1*
X2620444Y-275415D2*
Y-325655D1*
X2653937Y-299347D2*
X2620444D1*
X2600196Y-275471D2*
X2573943D1*
X2588258Y-294594D1*
X2581073D1*
X2576320Y-296971D1*
X2573943Y-299347D1*
X2571512Y-306532D1*
Y-311285D1*
X2573943Y-318470D1*
X2578697Y-323279D1*
X2585882Y-325655D1*
X2593067D1*
X2600196Y-323279D1*
X2602573Y-320847D1*
X2605005Y-316094D1*
X2534572Y-279036D2*
Y-322091D1*
X2556072Y-300591D2*
X2513017D1*
X2947264Y-287354D2*
X2949640Y-282600D1*
X2954449Y-277792D1*
X2959202Y-275415D1*
X2968763D1*
X2973572Y-277792D1*
X2978325Y-282600D1*
X2980757Y-287354D1*
X2983133Y-294539D1*
Y-306532D1*
X2980757Y-313662D1*
X2978325Y-318470D1*
X2973572Y-323224D1*
X2968763Y-325655D1*
X2959202D1*
X2954449Y-323224D1*
X2949640Y-318470D1*
X2947264Y-313662D1*
X2931824Y-275415D2*
Y-325655D1*
X2898331Y-275415D2*
Y-325655D1*
X2931824Y-299347D2*
X2898331D1*
X2878083Y-275471D2*
X2851830D1*
X2866145Y-294594D1*
X2858960D1*
X2854207Y-296971D1*
X2851830Y-299347D1*
X2849398Y-306532D1*
Y-311285D1*
X2851830Y-318470D1*
X2856583Y-323279D1*
X2863768Y-325655D1*
X2870954D1*
X2878083Y-323279D1*
X2880460Y-320847D1*
X2882892Y-316094D1*
X2833959Y-300563D2*
X2806324D1*
X3274115Y-287354D2*
X3276492Y-282600D1*
X3281301Y-277792D1*
X3286054Y-275415D1*
X3295615D1*
X3300424Y-277792D1*
X3305177Y-282600D1*
X3307609Y-287354D1*
X3309985Y-294539D1*
Y-306532D1*
X3307609Y-313662D1*
X3305177Y-318470D1*
X3300424Y-323224D1*
X3295615Y-325655D1*
X3286054D1*
X3281301Y-323224D1*
X3276492Y-318470D1*
X3274115Y-313662D1*
X3258676Y-275415D2*
Y-325655D1*
X3225183Y-275415D2*
Y-325655D1*
X3258676Y-299347D2*
X3225183D1*
X3185812Y-325655D2*
Y-275471D1*
X3209744Y-308909D1*
X3173874D1*
X3136935Y-279036D2*
Y-322091D1*
X3158434Y-300591D2*
X3115379D1*
X3552002Y-287354D2*
X3554379Y-282600D1*
X3559187Y-277792D1*
X3563941Y-275415D1*
X3573502D1*
X3578311Y-277792D1*
X3583064Y-282600D1*
X3585496Y-287354D1*
X3587872Y-294539D1*
Y-306532D1*
X3585496Y-313662D1*
X3583064Y-318470D1*
X3578311Y-323224D1*
X3573502Y-325655D1*
X3563941D1*
X3559187Y-323224D1*
X3554379Y-318470D1*
X3552002Y-313662D1*
X3536563Y-275415D2*
Y-325655D1*
X3503070Y-275415D2*
Y-325655D1*
X3536563Y-299347D2*
X3503070D1*
X3463699Y-325655D2*
Y-275471D1*
X3487631Y-308909D1*
X3451761D1*
X3436321Y-300563D2*
X3408687D1*
X4694967Y-281448D2*
X4697344Y-276695D1*
X4702152Y-271886D1*
X4706905Y-269510D1*
X4716467D1*
X4721276Y-271886D1*
X4726029Y-276695D1*
X4728461Y-281448D1*
X4730837Y-288633D1*
Y-300627D1*
X4728461Y-307756D1*
X4726029Y-312565D1*
X4721276Y-317318D1*
X4716467Y-319750D1*
X4706905D1*
X4702152Y-317318D1*
X4697344Y-312565D1*
X4694967Y-307756D1*
X4679528Y-269510D2*
Y-319750D1*
X4646035Y-269510D2*
Y-319750D1*
X4679528Y-293442D2*
X4646035D1*
X4601911Y-269565D2*
X4625787D1*
X4628164Y-291065D1*
X4625787Y-288688D1*
X4618602Y-286257D1*
X4611472D1*
X4604287Y-288688D1*
X4599479Y-293442D1*
X4597102Y-300627D1*
Y-305380D1*
X4599479Y-312565D1*
X4604287Y-317373D1*
X4611472Y-319750D1*
X4618602D1*
X4625787Y-317373D1*
X4628164Y-314941D1*
X4630595Y-310188D1*
X4560163Y-273130D2*
Y-316185D1*
X4581663Y-294685D2*
X4538608D1*
X4972854Y-281448D2*
X4975231Y-276695D1*
X4980039Y-271886D1*
X4984792Y-269510D1*
X4994354D1*
X4999162Y-271886D1*
X5003916Y-276695D1*
X5006347Y-281448D1*
X5008724Y-288633D1*
Y-300627D1*
X5006347Y-307756D1*
X5003916Y-312565D1*
X4999162Y-317318D1*
X4994354Y-319750D1*
X4984792D1*
X4980039Y-317318D1*
X4975231Y-312565D1*
X4972854Y-307756D1*
X4957415Y-269510D2*
Y-319750D1*
X4923922Y-269510D2*
Y-319750D1*
X4957415Y-293442D2*
X4923922D1*
X4879797Y-269565D2*
X4903674D1*
X4906050Y-291065D1*
X4903674Y-288688D1*
X4896489Y-286257D1*
X4889359D1*
X4882174Y-288688D1*
X4877366Y-293442D1*
X4874989Y-300627D1*
Y-305380D1*
X4877366Y-312565D1*
X4882174Y-317373D1*
X4889359Y-319750D1*
X4896489D1*
X4903674Y-317373D1*
X4906050Y-314941D1*
X4908482Y-310188D1*
X4859550Y-294658D2*
X4831915D1*
X5285055Y-281448D2*
X5287432Y-276695D1*
X5292240Y-271886D1*
X5296993Y-269510D1*
X5306555D1*
X5311363Y-271886D1*
X5316117Y-276695D1*
X5318548Y-281448D1*
X5320925Y-288633D1*
Y-300627D1*
X5318548Y-307756D1*
X5316117Y-312565D1*
X5311363Y-317318D1*
X5306555Y-319750D1*
X5296993D1*
X5292240Y-317318D1*
X5287432Y-312565D1*
X5285055Y-307756D1*
X5269616Y-269510D2*
Y-319750D1*
X5236122Y-269510D2*
Y-319750D1*
X5269616Y-293442D2*
X5236122D1*
X5191998Y-276695D2*
X5194375Y-271942D1*
X5201560Y-269565D1*
X5206313D1*
X5213498Y-271942D1*
X5218307Y-279127D1*
X5220683Y-291065D1*
Y-303003D1*
X5218307Y-312565D1*
X5213498Y-317373D1*
X5206313Y-319750D1*
X5203937D1*
X5196807Y-317373D1*
X5191998Y-312565D1*
X5189622Y-305380D1*
Y-303003D1*
X5191998Y-295818D1*
X5196807Y-291065D1*
X5203937Y-288688D1*
X5206313D1*
X5213498Y-291065D1*
X5218307Y-295818D1*
X5220683Y-303003D1*
X5152683Y-273130D2*
Y-316185D1*
X5174182Y-294685D2*
X5131128D1*
X5562942Y-281448D2*
X5565319Y-276695D1*
X5570127Y-271886D1*
X5574880Y-269510D1*
X5584442D1*
X5589250Y-271886D1*
X5594003Y-276695D1*
X5596435Y-281448D1*
X5598812Y-288633D1*
Y-300627D1*
X5596435Y-307756D1*
X5594003Y-312565D1*
X5589250Y-317318D1*
X5584442Y-319750D1*
X5574880D1*
X5570127Y-317318D1*
X5565319Y-312565D1*
X5562942Y-307756D1*
X5547503Y-269510D2*
Y-319750D1*
X5514009Y-269510D2*
Y-319750D1*
X5547503Y-293442D2*
X5514009D1*
X5469885Y-276695D2*
X5472262Y-271942D1*
X5479447Y-269565D1*
X5484200D1*
X5491385Y-271942D1*
X5496194Y-279127D1*
X5498570Y-291065D1*
Y-303003D1*
X5496194Y-312565D1*
X5491385Y-317373D1*
X5484200Y-319750D1*
X5481823D1*
X5474694Y-317373D1*
X5469885Y-312565D1*
X5467509Y-305380D1*
Y-303003D1*
X5469885Y-295818D1*
X5474694Y-291065D1*
X5481823Y-288688D1*
X5484200D1*
X5491385Y-291065D1*
X5496194Y-295818D1*
X5498570Y-303003D1*
X5452069Y-294658D2*
X5424435D1*
X5702161Y1205006D2*
D95*
X5703587Y1207858D1*
X5706472Y1210743D1*
X5709323Y1212169D1*
X5715060D1*
X5717946Y1210743D1*
X5720797Y1207858D1*
X5722257Y1205006D1*
X5723683Y1200695D1*
Y1193499D1*
X5722257Y1189221D1*
X5720797Y1186336D1*
X5717946Y1183484D1*
X5715060Y1182025D1*
X5709323D1*
X5706472Y1183484D1*
X5703587Y1186336D1*
X5702161Y1189221D1*
X5692897Y1212169D2*
Y1182025D1*
X5672801Y1212169D2*
Y1182025D1*
X5692897Y1197810D2*
X5672801D1*
X5663537Y1206398D2*
X5660652Y1207858D1*
X5656341Y1212135D1*
Y1182025D1*
X5647078Y1197080D2*
X5630497D1*
X5619774Y1204973D2*
Y1206398D1*
X5618348Y1209284D1*
X5616922Y1210710D1*
X5614037Y1212135D1*
X5608300D1*
X5605448Y1210710D1*
X5604022Y1209284D1*
X5602563Y1206398D1*
Y1203547D1*
X5604022Y1200662D1*
X5606874Y1196384D1*
X5621233Y1182025D1*
X5601137D1*
X5702707Y1126266D2*
X5704133Y1129117D1*
X5707018Y1132003D1*
X5709870Y1133428D1*
X5715607D1*
X5718492Y1132003D1*
X5721344Y1129117D1*
X5722803Y1126266D1*
X5724229Y1121955D1*
Y1114758D1*
X5722803Y1110481D1*
X5721344Y1107595D1*
X5718492Y1104744D1*
X5715607Y1103284D1*
X5709870D1*
X5707018Y1104744D1*
X5704133Y1107595D1*
X5702707Y1110481D1*
X5693443Y1133428D2*
Y1103284D1*
X5673347Y1133428D2*
Y1103284D1*
X5693443Y1119069D2*
X5673347D1*
X5661199Y1133395D2*
X5645447D1*
X5654036Y1121921D1*
X5649725D1*
X5646873Y1120495D1*
X5645447Y1119069D1*
X5643988Y1114758D1*
Y1111907D1*
X5645447Y1107595D1*
X5648299Y1104710D1*
X5652610Y1103284D1*
X5656921D1*
X5661199Y1104710D1*
X5662625Y1106170D1*
X5664084Y1109021D1*
X5634724Y1118340D2*
X5618143D1*
X5594521Y1103284D2*
Y1133395D1*
X5608880Y1113332D1*
X5587358D1*
X5701790Y1047525D2*
X5703216Y1050377D1*
X5706101Y1053262D1*
X5708953Y1054688D1*
X5714690D1*
X5717575Y1053262D1*
X5720427Y1050377D1*
X5721886Y1047525D1*
X5723312Y1043214D1*
Y1036018D1*
X5721886Y1031740D1*
X5720427Y1028855D1*
X5717575Y1026003D1*
X5714690Y1024544D1*
X5708953D1*
X5706101Y1026003D1*
X5703216Y1028855D1*
X5701790Y1031740D1*
X5692527Y1054688D2*
Y1024544D1*
X5672431Y1054688D2*
Y1024544D1*
X5692527Y1040329D2*
X5672431D1*
X5645956Y1054655D2*
X5660282D1*
X5661708Y1041755D1*
X5660282Y1043181D1*
X5655971Y1044640D1*
X5651693D1*
X5647382Y1043181D1*
X5644497Y1040329D1*
X5643071Y1036018D1*
Y1033166D1*
X5644497Y1028855D1*
X5647382Y1025970D1*
X5651693Y1024544D1*
X5655971D1*
X5660282Y1025970D1*
X5661708Y1027429D1*
X5663167Y1030281D1*
X5633808Y1039600D2*
X5617227D1*
X5590752Y1050377D2*
X5592178Y1053229D1*
X5596489Y1054655D1*
X5599341D1*
X5603652Y1053229D1*
X5606537Y1048918D1*
X5607963Y1041755D1*
Y1034592D1*
X5606537Y1028855D1*
X5603652Y1025970D1*
X5599341Y1024544D1*
X5597915D1*
X5593637Y1025970D1*
X5590752Y1028855D1*
X5589326Y1033166D1*
Y1034592D1*
X5590752Y1038903D1*
X5593637Y1041755D1*
X5597915Y1043181D1*
X5599341D1*
X5603652Y1041755D1*
X5606537Y1038903D1*
X5607963Y1034592D1*
X4593758Y2820235D2*
X4595183Y2823087D1*
X4598069Y2825972D1*
X4600920Y2827398D1*
X4606657D1*
X4609543Y2825972D1*
X4612394Y2823087D1*
X4613854Y2820235D1*
X4615279Y2815924D1*
Y2808728D1*
X4613854Y2804451D1*
X4612394Y2801565D1*
X4609543Y2798714D1*
X4606657Y2797254D1*
X4600920D1*
X4598069Y2798714D1*
X4595183Y2801565D1*
X4593758Y2804451D1*
X4584494Y2821628D2*
X4581609Y2823087D1*
X4577298Y2827365D1*
Y2797254D1*
X4559412Y2827365D2*
X4563723Y2825939D1*
X4566608Y2821628D1*
X4568034Y2814465D1*
Y2810154D1*
X4566608Y2802991D1*
X4563723Y2798680D1*
X4559412Y2797254D1*
X4556560D1*
X4552249Y2798680D1*
X4549397Y2802991D1*
X4547938Y2810154D1*
Y2814465D1*
X4549397Y2821628D1*
X4552249Y2825939D1*
X4556560Y2827365D1*
X4559412D1*
X4549397Y2821628D2*
X4566608Y2802991D1*
X4532938Y2797254D2*
X4518579Y2827365D1*
X4538675D1*
X4467757Y2820235D2*
X4469183Y2823087D1*
X4472068Y2825972D1*
X4474920Y2827398D1*
X4480657D1*
X4483542Y2825972D1*
X4486394Y2823087D1*
X4487853Y2820235D1*
X4489279Y2815924D1*
Y2808728D1*
X4487853Y2804451D1*
X4486394Y2801565D1*
X4483542Y2798714D1*
X4480657Y2797254D1*
X4474920D1*
X4472068Y2798714D1*
X4469183Y2801565D1*
X4467757Y2804451D1*
X4458493Y2821628D2*
X4455608Y2823087D1*
X4451297Y2827365D1*
Y2797254D1*
X4433411Y2827365D2*
X4437722Y2825939D1*
X4440608Y2821628D1*
X4442034Y2814465D1*
Y2810154D1*
X4440608Y2802991D1*
X4437722Y2798680D1*
X4433411Y2797254D1*
X4430560D1*
X4426249Y2798680D1*
X4423397Y2802991D1*
X4421938Y2810154D1*
Y2814465D1*
X4423397Y2821628D1*
X4426249Y2825939D1*
X4430560Y2827365D1*
X4433411D1*
X4423397Y2821628D2*
X4440608Y2802991D1*
X4405511Y2827365D2*
X4409789Y2825939D1*
X4411248Y2823087D1*
Y2820202D1*
X4409789Y2817350D1*
X4406937Y2815891D1*
X4401200Y2814465D1*
X4396889Y2813039D1*
X4394037Y2810154D1*
X4392611Y2807302D1*
Y2802991D1*
X4394037Y2800139D1*
X4395463Y2798680D1*
X4399774Y2797254D1*
X4405511D1*
X4409789Y2798680D1*
X4411248Y2800139D1*
X4412674Y2802991D1*
Y2807302D1*
X4411248Y2810154D1*
X4408363Y2813039D1*
X4404085Y2814465D1*
X4398348Y2815891D1*
X4395463Y2817350D1*
X4394037Y2820202D1*
Y2823087D1*
X4395463Y2825939D1*
X4399774Y2827365D1*
X4405511D1*
X2719029Y2820235D2*
X2720455Y2823087D1*
X2723340Y2825972D1*
X2726192Y2827398D1*
X2731929D1*
X2734814Y2825972D1*
X2737666Y2823087D1*
X2739125Y2820235D1*
X2740551Y2815924D1*
Y2808728D1*
X2739125Y2804451D1*
X2737666Y2801565D1*
X2734814Y2798714D1*
X2731929Y2797254D1*
X2726192D1*
X2723340Y2798714D1*
X2720455Y2801565D1*
X2719029Y2804451D1*
X2709765Y2821628D2*
X2706880Y2823087D1*
X2702569Y2827365D1*
Y2797254D1*
X2684684Y2827365D2*
X2688995Y2825939D1*
X2691880Y2821628D1*
X2693306Y2814465D1*
Y2810154D1*
X2691880Y2802991D1*
X2688995Y2798680D1*
X2684684Y2797254D1*
X2681832D1*
X2677521Y2798680D1*
X2674669Y2802991D1*
X2673210Y2810154D1*
Y2814465D1*
X2674669Y2821628D1*
X2677521Y2825939D1*
X2681832Y2827365D1*
X2684684D1*
X2674669Y2821628D2*
X2691880Y2802991D1*
X2645276Y2817350D2*
X2646735Y2813039D1*
X2649587Y2810154D1*
X2653898Y2808728D1*
X2655324D1*
X2659635Y2810154D1*
X2662487Y2813039D1*
X2663946Y2817350D1*
Y2818776D1*
X2662487Y2823087D1*
X2659635Y2825939D1*
X2655324Y2827365D1*
X2653898D1*
X2649587Y2825939D1*
X2646735Y2823087D1*
X2645276Y2817350D1*
Y2810154D1*
X2646735Y2802991D1*
X2649587Y2798680D1*
X2653898Y2797254D1*
X2656750D1*
X2661061Y2798680D1*
X2662487Y2801565D1*
X2587308Y2820235D2*
X2588734Y2823087D1*
X2591619Y2825972D1*
X2594471Y2827398D1*
X2600207D1*
X2603093Y2825972D1*
X2605944Y2823087D1*
X2607404Y2820235D1*
X2608830Y2815924D1*
Y2808728D1*
X2607404Y2804451D1*
X2605944Y2801565D1*
X2603093Y2798714D1*
X2600207Y2797254D1*
X2594471D1*
X2591619Y2798714D1*
X2588734Y2801565D1*
X2587308Y2804451D1*
X2578044Y2821628D2*
X2575159Y2823087D1*
X2570848Y2827365D1*
Y2797254D1*
X2561584Y2821628D2*
X2558699Y2823087D1*
X2554388Y2827365D1*
Y2797254D1*
X2536503Y2827365D2*
X2540814Y2825939D1*
X2543699Y2821628D1*
X2545125Y2814465D1*
Y2810154D1*
X2543699Y2802991D1*
X2540814Y2798680D1*
X2536503Y2797254D1*
X2533651D1*
X2529340Y2798680D1*
X2526488Y2802991D1*
X2525029Y2810154D1*
Y2814465D1*
X2526488Y2821628D1*
X2529340Y2825939D1*
X2533651Y2827365D1*
X2536503D1*
X2526488Y2821628D2*
X2543699Y2802991D1*
X817078Y2820235D2*
X818504Y2823087D1*
X821389Y2825972D1*
X824241Y2827398D1*
X829978D1*
X832863Y2825972D1*
X835715Y2823087D1*
X837174Y2820235D1*
X838600Y2815924D1*
Y2808728D1*
X837174Y2804451D1*
X835715Y2801565D1*
X832863Y2798714D1*
X829978Y2797254D1*
X824241D1*
X821389Y2798714D1*
X818504Y2801565D1*
X817078Y2804451D1*
X807815Y2821628D2*
X804929Y2823087D1*
X800618Y2827365D1*
Y2797254D1*
X791355Y2821628D2*
X788470Y2823087D1*
X784159Y2827365D1*
Y2797254D1*
X774895Y2821628D2*
X772010Y2823087D1*
X767699Y2827365D1*
Y2797254D1*
X697544Y2820235D2*
X698970Y2823087D1*
X701855Y2825972D1*
X704707Y2827398D1*
X710444D1*
X713329Y2825972D1*
X716181Y2823087D1*
X717640Y2820235D1*
X719066Y2815924D1*
Y2808728D1*
X717640Y2804451D1*
X716181Y2801565D1*
X713329Y2798714D1*
X710444Y2797254D1*
X704707D1*
X701855Y2798714D1*
X698970Y2801565D1*
X697544Y2804451D1*
X688280Y2821628D2*
X685395Y2823087D1*
X681084Y2827365D1*
Y2797254D1*
X671821Y2821628D2*
X668936Y2823087D1*
X664625Y2827365D1*
Y2797254D1*
X653902Y2820202D2*
Y2821628D1*
X652476Y2824513D1*
X651050Y2825939D1*
X648165Y2827365D1*
X642428D1*
X639576Y2825939D1*
X638150Y2824513D1*
X636691Y2821628D1*
Y2818776D1*
X638150Y2815891D1*
X641002Y2811613D1*
X655361Y2797254D1*
X635265D1*
X5170629Y2751275D2*
X5173481Y2749849D1*
X5176366Y2746964D1*
X5177792Y2744112D1*
Y2738375D1*
X5176366Y2735490D1*
X5173481Y2732638D1*
X5170629Y2731179D1*
X5166318Y2729753D1*
X5159122D1*
X5154844Y2731179D1*
X5151959Y2732638D1*
X5149107Y2735490D1*
X5147648Y2738375D1*
Y2744112D1*
X5149107Y2746964D1*
X5151959Y2749849D1*
X5154844Y2751275D1*
X5172022Y2760539D2*
X5173481Y2763424D1*
X5177759Y2767735D1*
X5147648D1*
X5172022Y2776998D2*
X5173481Y2779883D1*
X5177759Y2784194D1*
X5147648D1*
X5177759Y2796343D2*
Y2812095D1*
X5166285Y2803506D1*
Y2807817D1*
X5164859Y2810669D1*
X5163433Y2812095D1*
X5159122Y2813554D1*
X5156270D1*
X5151959Y2812095D1*
X5149074Y2809243D1*
X5147648Y2804932D1*
Y2800621D1*
X5149074Y2796343D1*
X5150533Y2794917D1*
X5153385Y2793458D1*
X5109606Y2751972D2*
X5112457Y2750546D1*
X5115343Y2747661D1*
X5116768Y2744809D1*
Y2739072D1*
X5115343Y2736187D1*
X5112457Y2733335D1*
X5109606Y2731876D1*
X5105295Y2730450D1*
X5098098D1*
X5093821Y2731876D1*
X5090936Y2733335D1*
X5088084Y2736187D1*
X5086624Y2739072D1*
Y2744809D1*
X5088084Y2747661D1*
X5090936Y2750546D1*
X5093821Y2751972D1*
X5110998Y2761235D2*
X5112457Y2764120D1*
X5116735Y2768431D1*
X5086624D1*
X5110998Y2777695D2*
X5112457Y2780580D1*
X5116735Y2784891D1*
X5086624D1*
Y2808513D2*
X5116735D1*
X5096672Y2794154D1*
Y2815676D1*
X4921133Y2752685D2*
X4923985Y2751259D1*
X4926870Y2748374D1*
X4928296Y2745522D1*
Y2739785D1*
X4926870Y2736900D1*
X4923985Y2734048D1*
X4921133Y2732589D1*
X4916822Y2731163D1*
X4909626D1*
X4905348Y2732589D1*
X4902463Y2734048D1*
X4899611Y2736900D1*
X4898152Y2739785D1*
Y2745522D1*
X4899611Y2748374D1*
X4902463Y2751259D1*
X4905348Y2752685D1*
X4922526Y2761948D2*
X4923985Y2764833D1*
X4928263Y2769144D1*
X4898152D1*
X4922526Y2778408D2*
X4923985Y2781293D1*
X4928263Y2785604D1*
X4898152D1*
X4928263Y2812078D2*
Y2797752D1*
X4915363Y2796326D1*
X4916789Y2797752D1*
X4918248Y2802063D1*
Y2806341D1*
X4916789Y2810652D1*
X4913937Y2813537D1*
X4909626Y2814963D1*
X4906774D1*
X4902463Y2813537D1*
X4899578Y2810652D1*
X4898152Y2806341D1*
Y2802063D1*
X4899578Y2797752D1*
X4901037Y2796326D1*
X4903889Y2794867D1*
X4858141Y2753414D2*
X4860993Y2751988D1*
X4863878Y2749103D1*
X4865304Y2746251D1*
Y2740514D1*
X4863878Y2737629D1*
X4860993Y2734777D1*
X4858141Y2733318D1*
X4853830Y2731892D1*
X4846634D1*
X4842356Y2733318D1*
X4839471Y2734777D1*
X4836619Y2737629D1*
X4835160Y2740514D1*
Y2746251D1*
X4836619Y2749103D1*
X4839471Y2751988D1*
X4842356Y2753414D1*
X4859534Y2762678D2*
X4860993Y2765563D1*
X4865271Y2769874D1*
X4835160D1*
X4859534Y2779137D2*
X4860993Y2782022D1*
X4865271Y2786333D1*
X4835160D1*
X4860993Y2812808D2*
X4863845Y2811382D1*
X4865271Y2807071D1*
Y2804219D1*
X4863845Y2799908D1*
X4859534Y2797023D1*
X4852371Y2795597D1*
X4845208D1*
X4839471Y2797023D1*
X4836586Y2799908D1*
X4835160Y2804219D1*
Y2805645D1*
X4836586Y2809923D1*
X4839471Y2812808D1*
X4843782Y2814234D1*
X4845208D1*
X4849519Y2812808D1*
X4852371Y2809923D1*
X4853797Y2805645D1*
Y2804219D1*
X4852371Y2799908D1*
X4849519Y2797023D1*
X4845208Y2795597D1*
X4792676Y2752685D2*
X4795528Y2751259D1*
X4798413Y2748374D1*
X4799839Y2745522D1*
Y2739785D1*
X4798413Y2736900D1*
X4795528Y2734048D1*
X4792676Y2732589D1*
X4788365Y2731163D1*
X4781169D1*
X4776891Y2732589D1*
X4774006Y2734048D1*
X4771154Y2736900D1*
X4769695Y2739785D1*
Y2745522D1*
X4771154Y2748374D1*
X4774006Y2751259D1*
X4776891Y2752685D1*
X4794069Y2761948D2*
X4795528Y2764833D1*
X4799806Y2769144D1*
X4769695D1*
X4794069Y2778408D2*
X4795528Y2781293D1*
X4799806Y2785604D1*
X4769695D1*
Y2800604D2*
X4799806Y2814963D1*
Y2794867D1*
X4730188Y2752701D2*
X4733040Y2751275D1*
X4735925Y2748390D1*
X4737351Y2745538D1*
Y2739801D1*
X4735925Y2736916D1*
X4733040Y2734064D1*
X4730188Y2732605D1*
X4725877Y2731179D1*
X4718681D1*
X4714403Y2732605D1*
X4711518Y2734064D1*
X4708666Y2736916D1*
X4707207Y2739801D1*
Y2745538D1*
X4708666Y2748390D1*
X4711518Y2751275D1*
X4714403Y2752701D1*
X4731581Y2761965D2*
X4733040Y2764850D1*
X4737318Y2769161D1*
X4707207D1*
X4731581Y2778424D2*
X4733040Y2781309D1*
X4737318Y2785620D1*
X4707207D1*
X4737318Y2802047D2*
X4735892Y2797769D1*
X4733040Y2796310D1*
X4730155D1*
X4727303Y2797769D1*
X4725844Y2800621D1*
X4724418Y2806358D1*
X4722992Y2810669D1*
X4720107Y2813521D1*
X4717255Y2814947D1*
X4712944D1*
X4710092Y2813521D1*
X4708633Y2812095D1*
X4707207Y2807784D1*
Y2802047D1*
X4708633Y2797769D1*
X4710092Y2796310D1*
X4712944Y2794884D1*
X4717255D1*
X4720107Y2796310D1*
X4722992Y2799195D1*
X4724418Y2803473D1*
X4725844Y2809210D1*
X4727303Y2812095D1*
X4730155Y2813521D1*
X4733040D1*
X4735892Y2812095D1*
X4737318Y2807784D1*
Y2802047D1*
X4669165Y2752701D2*
X4672017Y2751275D1*
X4674902Y2748390D1*
X4676328Y2745538D1*
Y2739801D1*
X4674902Y2736916D1*
X4672017Y2734064D1*
X4669165Y2732605D1*
X4664854Y2731179D1*
X4657657D1*
X4653380Y2732605D1*
X4650495Y2734064D1*
X4647643Y2736916D1*
X4646184Y2739801D1*
Y2745538D1*
X4647643Y2748390D1*
X4650495Y2751275D1*
X4653380Y2752701D1*
X4670557Y2761964D2*
X4672017Y2764849D1*
X4676294Y2769160D1*
X4646184D1*
X4670557Y2778424D2*
X4672017Y2781309D1*
X4676294Y2785620D1*
X4646184D1*
X4666280Y2813554D2*
X4661969Y2812094D1*
X4659083Y2809243D1*
X4657657Y2804932D1*
Y2803506D1*
X4659083Y2799195D1*
X4661969Y2796343D1*
X4666280Y2794884D1*
X4667705D1*
X4672017Y2796343D1*
X4674868Y2799195D1*
X4676294Y2803506D1*
Y2804932D1*
X4674868Y2809243D1*
X4672017Y2812094D1*
X4666280Y2813554D1*
X4659083D1*
X4651921Y2812094D1*
X4647609Y2809243D1*
X4646184Y2804932D1*
Y2802080D1*
X4647609Y2797769D1*
X4650495Y2796343D1*
X3298582Y2752884D2*
X3301434Y2751458D1*
X3304319Y2748573D1*
X3305745Y2745721D1*
Y2739984D1*
X3304319Y2737099D1*
X3301434Y2734247D1*
X3298582Y2732788D1*
X3294271Y2731362D1*
X3287075D1*
X3282797Y2732788D1*
X3279912Y2734247D1*
X3277060Y2737099D1*
X3275601Y2739984D1*
Y2745721D1*
X3277060Y2748573D1*
X3279912Y2751458D1*
X3282797Y2752884D1*
X3299975Y2762148D2*
X3301434Y2765033D1*
X3305712Y2769344D1*
X3275601D1*
X3298549Y2780067D2*
X3299975D1*
X3302860Y2781492D1*
X3304286Y2782918D1*
X3305712Y2785803D1*
Y2791540D1*
X3304286Y2794392D1*
X3302860Y2795818D1*
X3299975Y2797277D1*
X3297123D1*
X3294238Y2795818D1*
X3289960Y2792966D1*
X3275601Y2778607D1*
Y2798703D1*
X3305712Y2816589D2*
X3304286Y2812278D1*
X3299975Y2809393D1*
X3292812Y2807967D1*
X3288501D1*
X3281338Y2809393D1*
X3277027Y2812278D1*
X3275601Y2816589D1*
Y2819441D1*
X3277027Y2823752D1*
X3281338Y2826604D1*
X3288501Y2828063D1*
X3292812D1*
X3299975Y2826604D1*
X3304286Y2823752D1*
X3305712Y2819441D1*
Y2816589D1*
X3299975Y2826604D2*
X3281338Y2809393D1*
X3235590Y2752884D2*
X3238442Y2751458D1*
X3241327Y2748573D1*
X3242753Y2745721D1*
Y2739984D1*
X3241327Y2737099D1*
X3238442Y2734247D1*
X3235590Y2732788D1*
X3231279Y2731362D1*
X3224083D1*
X3219805Y2732788D1*
X3216920Y2734247D1*
X3214068Y2737099D1*
X3212609Y2739984D1*
Y2745721D1*
X3214068Y2748573D1*
X3216920Y2751458D1*
X3219805Y2752884D1*
X3236983Y2762148D2*
X3238442Y2765033D1*
X3242720Y2769344D1*
X3212609D1*
X3235557Y2780066D2*
X3236983D1*
X3239868Y2781492D1*
X3241294Y2782918D1*
X3242720Y2785803D1*
Y2791540D1*
X3241294Y2794392D1*
X3239868Y2795818D1*
X3236983Y2797277D1*
X3234131D1*
X3231246Y2795818D1*
X3226968Y2792966D1*
X3212609Y2778607D1*
Y2798703D1*
X3236983Y2807967D2*
X3238442Y2810852D1*
X3242720Y2815163D1*
X3212609D1*
X3047117Y2753802D2*
X3049969Y2752376D1*
X3052854Y2749491D1*
X3054280Y2746639D1*
Y2740902D1*
X3052854Y2738017D1*
X3049969Y2735165D1*
X3047117Y2733706D1*
X3042806Y2732280D1*
X3035610D1*
X3031332Y2733706D1*
X3028447Y2735165D1*
X3025595Y2738017D1*
X3024136Y2740902D1*
Y2746639D1*
X3025595Y2749491D1*
X3028447Y2752376D1*
X3031332Y2753802D1*
X3048510Y2763065D2*
X3049969Y2765950D1*
X3054247Y2770261D1*
X3024136D1*
X3047084Y2780984D2*
X3048510D1*
X3051395Y2782410D1*
X3052821Y2783836D1*
X3054247Y2786721D1*
Y2792458D1*
X3052821Y2795310D1*
X3051395Y2796736D1*
X3048510Y2798195D1*
X3045658D1*
X3042773Y2796736D1*
X3038495Y2793884D1*
X3024136Y2779525D1*
Y2799621D1*
X3047084Y2810343D2*
X3048510D1*
X3051395Y2811769D1*
X3052821Y2813195D1*
X3054247Y2816080D1*
Y2821817D1*
X3052821Y2824669D1*
X3051395Y2826095D1*
X3048510Y2827554D1*
X3045658D1*
X3042773Y2826095D1*
X3038495Y2823243D1*
X3024136Y2808884D1*
Y2828980D1*
X2984125Y2752884D2*
X2986977Y2751458D1*
X2989862Y2748573D1*
X2991288Y2745721D1*
Y2739984D1*
X2989862Y2737099D1*
X2986977Y2734247D1*
X2984125Y2732788D1*
X2979814Y2731362D1*
X2972618D1*
X2968340Y2732788D1*
X2965455Y2734247D1*
X2962603Y2737099D1*
X2961144Y2739984D1*
Y2745721D1*
X2962603Y2748573D1*
X2965455Y2751458D1*
X2968340Y2752884D1*
X2985518Y2762148D2*
X2986977Y2765033D1*
X2991255Y2769344D1*
X2961144D1*
X2984092Y2780067D2*
X2985518D1*
X2988403Y2781492D1*
X2989829Y2782918D1*
X2991255Y2785803D1*
Y2791540D1*
X2989829Y2794392D1*
X2988403Y2795818D1*
X2985518Y2797277D1*
X2982666D1*
X2979781Y2795818D1*
X2975503Y2792966D1*
X2961144Y2778607D1*
Y2798703D1*
X2991255Y2810852D2*
Y2826604D1*
X2979781Y2818015D1*
Y2822326D1*
X2978355Y2825178D1*
X2976929Y2826604D1*
X2972618Y2828063D1*
X2969766D1*
X2965455Y2826604D1*
X2962570Y2823752D1*
X2961144Y2819441D1*
Y2815130D1*
X2962570Y2810852D1*
X2964029Y2809426D1*
X2966881Y2807967D1*
X2920629Y2753801D2*
X2923481Y2752375D1*
X2926366Y2749490D1*
X2927792Y2746638D1*
Y2740901D1*
X2926366Y2738016D1*
X2923481Y2735164D1*
X2920629Y2733705D1*
X2916318Y2732279D1*
X2909122D1*
X2904844Y2733705D1*
X2901959Y2735164D1*
X2899107Y2738016D1*
X2897648Y2740901D1*
Y2746638D1*
X2899107Y2749490D1*
X2901959Y2752375D1*
X2904844Y2753801D1*
X2922022Y2763065D2*
X2923481Y2765950D1*
X2927759Y2770261D1*
X2897648D1*
X2920596Y2780983D2*
X2922022D1*
X2924907Y2782409D1*
X2926333Y2783835D1*
X2927759Y2786720D1*
Y2792457D1*
X2926333Y2795309D1*
X2924907Y2796735D1*
X2922022Y2798194D1*
X2919170D1*
X2916285Y2796735D1*
X2912007Y2793883D1*
X2897648Y2779524D1*
Y2799620D1*
Y2823243D2*
X2927759D1*
X2907696Y2808884D1*
Y2830406D1*
X2857637Y2752884D2*
X2860489Y2751458D1*
X2863374Y2748573D1*
X2864800Y2745721D1*
Y2739984D1*
X2863374Y2737099D1*
X2860489Y2734247D1*
X2857637Y2732788D1*
X2853326Y2731362D1*
X2846130D1*
X2841852Y2732788D1*
X2838967Y2734247D1*
X2836115Y2737099D1*
X2834656Y2739984D1*
Y2745721D1*
X2836115Y2748573D1*
X2838967Y2751458D1*
X2841852Y2752884D1*
X2859030Y2762148D2*
X2860489Y2765033D1*
X2864767Y2769344D1*
X2834656D1*
X2857604Y2780067D2*
X2859030D1*
X2861915Y2781492D1*
X2863341Y2782918D1*
X2864767Y2785803D1*
Y2791540D1*
X2863341Y2794392D1*
X2861915Y2795818D1*
X2859030Y2797277D1*
X2856178D1*
X2853293Y2795818D1*
X2849015Y2792966D1*
X2834656Y2778607D1*
Y2798703D1*
X2864767Y2825178D2*
Y2810852D1*
X2851867Y2809426D1*
X2853293Y2810852D1*
X2854752Y2815163D1*
Y2819441D1*
X2853293Y2823752D1*
X2850441Y2826637D1*
X2846130Y2828063D1*
X2843278D1*
X2838967Y2826637D1*
X2836082Y2823752D1*
X2834656Y2819441D1*
Y2815163D1*
X2836082Y2810852D1*
X2837541Y2809426D1*
X2840393Y2807967D1*
X2793180Y2755244D2*
X2796032Y2753818D1*
X2798917Y2750933D1*
X2800343Y2748081D1*
Y2742344D1*
X2798917Y2739459D1*
X2796032Y2736607D1*
X2793180Y2735148D1*
X2788869Y2733722D1*
X2781673D1*
X2777395Y2735148D1*
X2774510Y2736607D1*
X2771658Y2739459D1*
X2770199Y2742344D1*
Y2748081D1*
X2771658Y2750933D1*
X2774510Y2753818D1*
X2777395Y2755244D1*
X2794573Y2764507D2*
X2796032Y2767392D1*
X2800310Y2771703D1*
X2770199D1*
X2793147Y2782426D2*
X2794573D1*
X2797458Y2783852D1*
X2798884Y2785278D1*
X2800310Y2788163D1*
Y2793900D1*
X2798884Y2796752D1*
X2797458Y2798178D1*
X2794573Y2799637D1*
X2791721D1*
X2788836Y2798178D1*
X2784558Y2795326D1*
X2770199Y2780967D1*
Y2801063D1*
X2796032Y2827537D2*
X2798884Y2826111D1*
X2800310Y2821800D1*
Y2818948D1*
X2798884Y2814637D1*
X2794573Y2811752D1*
X2787410Y2810326D1*
X2780247D1*
X2774510Y2811752D1*
X2771625Y2814637D1*
X2770199Y2818948D1*
Y2820374D1*
X2771625Y2824652D1*
X2774510Y2827537D1*
X2778821Y2828963D1*
X2780247D1*
X2784558Y2827537D1*
X2787410Y2824652D1*
X2788836Y2820374D1*
Y2818948D1*
X2787410Y2814637D1*
X2784558Y2811752D1*
X2780247Y2810326D1*
X1409322Y2752884D2*
X1412174Y2751458D1*
X1415059Y2748573D1*
X1416485Y2745721D1*
Y2739984D1*
X1415059Y2737099D1*
X1412174Y2734247D1*
X1409322Y2732788D1*
X1405011Y2731362D1*
X1397815D1*
X1393537Y2732788D1*
X1390652Y2734247D1*
X1387800Y2737099D1*
X1386341Y2739984D1*
Y2745721D1*
X1387800Y2748573D1*
X1390652Y2751458D1*
X1393537Y2752884D1*
X1410715Y2762148D2*
X1412174Y2765033D1*
X1416452Y2769344D1*
X1386341D1*
X1409289Y2780067D2*
X1410715D1*
X1413600Y2781492D1*
X1415026Y2782918D1*
X1416452Y2785803D1*
Y2791540D1*
X1415026Y2794392D1*
X1413600Y2795818D1*
X1410715Y2797277D1*
X1407863D1*
X1404978Y2795818D1*
X1400700Y2792966D1*
X1386341Y2778607D1*
Y2798703D1*
Y2813704D2*
X1416452Y2828063D1*
Y2807967D1*
X1343858Y2752901D2*
X1346709Y2751475D1*
X1349595Y2748590D1*
X1351020Y2745738D1*
Y2740001D1*
X1349595Y2737116D1*
X1346709Y2734264D1*
X1343858Y2732805D1*
X1339547Y2731379D1*
X1332350D1*
X1328073Y2732805D1*
X1325187Y2734264D1*
X1322336Y2737116D1*
X1320876Y2740001D1*
Y2745738D1*
X1322336Y2748590D1*
X1325187Y2751475D1*
X1328073Y2752901D1*
X1345250Y2762164D2*
X1346709Y2765049D1*
X1350987Y2769360D1*
X1320876D1*
X1343824Y2780083D2*
X1345250D1*
X1348135Y2781509D1*
X1349561Y2782935D1*
X1350987Y2785820D1*
Y2791557D1*
X1349561Y2794409D1*
X1348135Y2795835D1*
X1345250Y2797294D1*
X1342398D1*
X1339513Y2795835D1*
X1335235Y2792983D1*
X1320876Y2778624D1*
Y2798720D1*
X1350987Y2815146D2*
X1349561Y2810869D1*
X1346709Y2809409D1*
X1343824D1*
X1340972Y2810869D1*
X1339513Y2813721D1*
X1338087Y2819457D1*
X1336661Y2823769D1*
X1333776Y2826620D1*
X1330924Y2828046D1*
X1326613D1*
X1323762Y2826620D1*
X1322302Y2825194D1*
X1320876Y2820883D1*
Y2815146D1*
X1322302Y2810869D1*
X1323762Y2809409D1*
X1326613Y2807984D1*
X1330924D1*
X1333776Y2809409D1*
X1336661Y2812295D1*
X1338087Y2816572D1*
X1339513Y2822309D1*
X1340972Y2825194D1*
X1343824Y2826620D1*
X1346709D1*
X1349561Y2825194D1*
X1350987Y2820883D1*
Y2815146D1*
X1157354Y2750731D2*
X1160205Y2749305D1*
X1163091Y2746420D1*
X1164517Y2743568D1*
Y2737831D1*
X1163091Y2734946D1*
X1160205Y2732094D1*
X1157354Y2730635D1*
X1153043Y2729209D1*
X1145846D1*
X1141569Y2730635D1*
X1138684Y2732094D1*
X1135832Y2734946D1*
X1134373Y2737831D1*
Y2743568D1*
X1135832Y2746420D1*
X1138684Y2749305D1*
X1141569Y2750731D1*
X1158746Y2759995D2*
X1160205Y2762880D1*
X1164483Y2767191D1*
X1134373D1*
X1157320Y2777913D2*
X1158746D1*
X1161631Y2779339D1*
X1163057Y2780765D1*
X1164483Y2783650D1*
Y2789387D1*
X1163057Y2792239D1*
X1161631Y2793665D1*
X1158746Y2795124D1*
X1155894D1*
X1153009Y2793665D1*
X1148732Y2790813D1*
X1134373Y2776454D1*
Y2796550D1*
X1154469Y2824484D2*
X1150157Y2823025D1*
X1147272Y2820173D1*
X1145846Y2815862D1*
Y2814436D1*
X1147272Y2810125D1*
X1150157Y2807273D1*
X1154469Y2805814D1*
X1155894D1*
X1160205Y2807273D1*
X1163057Y2810125D1*
X1164483Y2814436D1*
Y2815862D1*
X1163057Y2820173D1*
X1160205Y2823025D1*
X1154469Y2824484D1*
X1147272D1*
X1140109Y2823025D1*
X1135798Y2820173D1*
X1134373Y2815862D1*
Y2813010D1*
X1135798Y2808699D1*
X1138684Y2807273D1*
X1094361Y2750731D2*
X1097213Y2749305D1*
X1100098Y2746420D1*
X1101524Y2743568D1*
Y2737831D1*
X1100098Y2734946D1*
X1097213Y2732094D1*
X1094361Y2730635D1*
X1090050Y2729209D1*
X1082854D1*
X1078576Y2730635D1*
X1075691Y2732094D1*
X1072840Y2734946D1*
X1071380Y2737831D1*
Y2743568D1*
X1072840Y2746420D1*
X1075691Y2749305D1*
X1078576Y2750731D1*
X1095754Y2759994D2*
X1097213Y2762879D1*
X1101491Y2767190D1*
X1071380D1*
X1101491Y2779339D2*
Y2795091D1*
X1090017Y2786502D1*
Y2790813D1*
X1088591Y2793665D1*
X1087165Y2795091D1*
X1082854Y2796550D1*
X1080002D1*
X1075691Y2795091D1*
X1072806Y2792239D1*
X1071380Y2787928D1*
Y2783617D1*
X1072806Y2779339D1*
X1074265Y2777913D1*
X1077117Y2776454D1*
X1101491Y2814435D2*
X1100065Y2810124D1*
X1095754Y2807239D1*
X1088591Y2805813D1*
X1084280D1*
X1077117Y2807239D1*
X1072806Y2810124D1*
X1071380Y2814435D1*
Y2817287D1*
X1072806Y2821598D1*
X1077117Y2824450D1*
X1084280Y2825909D1*
X1088591D1*
X1095754Y2824450D1*
X1100065Y2821598D1*
X1101491Y2817287D1*
Y2814435D1*
X1095754Y2824450D2*
X1077117Y2807239D1*
X1026928Y2751275D2*
X1029780Y2749849D1*
X1032665Y2746964D1*
X1034091Y2744112D1*
Y2738375D1*
X1032665Y2735490D1*
X1029780Y2732638D1*
X1026928Y2731179D1*
X1022617Y2729753D1*
X1015421D1*
X1011143Y2731179D1*
X1008258Y2732638D1*
X1005406Y2735490D1*
X1003947Y2738375D1*
Y2744112D1*
X1005406Y2746964D1*
X1008258Y2749849D1*
X1011143Y2751275D1*
X1028321Y2760539D2*
X1029780Y2763424D1*
X1034058Y2767735D1*
X1003947D1*
X1034058Y2779883D2*
Y2795635D1*
X1022584Y2787046D1*
Y2791357D1*
X1021158Y2794209D1*
X1019732Y2795635D1*
X1015421Y2797094D1*
X1012569D1*
X1008258Y2795635D1*
X1005373Y2792783D1*
X1003947Y2788472D1*
Y2784161D1*
X1005373Y2779883D1*
X1006832Y2778457D1*
X1009684Y2776998D1*
X1028321Y2806358D2*
X1029780Y2809243D1*
X1034058Y2813554D1*
X1003947D1*
X968377Y2750731D2*
X971229Y2749305D1*
X974114Y2746420D1*
X975540Y2743568D1*
Y2737831D1*
X974114Y2734946D1*
X971229Y2732094D1*
X968377Y2730635D1*
X964066Y2729209D1*
X956870D1*
X952592Y2730635D1*
X949707Y2732094D1*
X946855Y2734946D1*
X945396Y2737831D1*
Y2743568D1*
X946855Y2746420D1*
X949707Y2749305D1*
X952592Y2750731D1*
X969770Y2759994D2*
X971229Y2762879D1*
X975507Y2767190D1*
X945396D1*
X975507Y2779339D2*
Y2795091D1*
X964033Y2786502D1*
Y2790813D1*
X962607Y2793665D1*
X961181Y2795091D1*
X956870Y2796550D1*
X954018D1*
X949707Y2795091D1*
X946822Y2792239D1*
X945396Y2787928D1*
Y2783617D1*
X946822Y2779339D1*
X948281Y2777913D1*
X951133Y2776454D1*
X968344Y2807273D2*
X969770D1*
X972655Y2808698D1*
X974081Y2810124D1*
X975507Y2813009D1*
Y2818746D1*
X974081Y2821598D1*
X972655Y2823024D1*
X969770Y2824483D1*
X966918D1*
X964033Y2823024D1*
X959755Y2820172D1*
X945396Y2805813D1*
Y2825909D1*
X905385Y2751275D2*
X908237Y2749849D1*
X911122Y2746964D1*
X912548Y2744112D1*
Y2738375D1*
X911122Y2735490D1*
X908237Y2732638D1*
X905385Y2731179D1*
X901074Y2729753D1*
X893878D1*
X889600Y2731179D1*
X886715Y2732638D1*
X883863Y2735490D1*
X882404Y2738375D1*
Y2744112D1*
X883863Y2746964D1*
X886715Y2749849D1*
X889600Y2751275D1*
X906778Y2760539D2*
X908237Y2763424D1*
X912515Y2767735D1*
X882404D1*
X912515Y2779884D2*
Y2795635D1*
X901041Y2787046D1*
Y2791357D1*
X899615Y2794209D1*
X898189Y2795635D1*
X893878Y2797094D1*
X891026D1*
X886715Y2795635D1*
X883830Y2792783D1*
X882404Y2788472D1*
Y2784161D1*
X883830Y2779884D1*
X885289Y2778458D1*
X888141Y2776998D1*
X912515Y2809243D2*
Y2824995D1*
X901041Y2816406D1*
Y2820717D1*
X899615Y2823569D1*
X898189Y2824995D1*
X893878Y2826454D1*
X891026D1*
X886715Y2824995D1*
X883830Y2822143D1*
X882404Y2817832D1*
Y2813521D1*
X883830Y2809243D1*
X885289Y2807817D1*
X888141Y2806358D1*
X4425179Y2005275D2*
X4426605Y2008127D1*
X4429490Y2011012D1*
X4432342Y2012438D1*
X4438079D1*
X4440964Y2011012D1*
X4443816Y2008127D1*
X4445275Y2005275D1*
X4446701Y2000964D1*
Y1993768D1*
X4445275Y1989490D1*
X4443816Y1986605D1*
X4440964Y1983753D1*
X4438079Y1982294D1*
X4432342D1*
X4429490Y1983753D1*
X4426605Y1986605D1*
X4425179Y1989490D1*
X4415916Y2006668D2*
X4413031Y2008127D1*
X4408720Y2012405D1*
Y1982294D1*
X4396571Y2012405D2*
X4380819D1*
X4389408Y2000931D1*
X4385097D1*
X4382245Y1999505D1*
X4380819Y1998079D1*
X4379360Y1993768D1*
Y1990916D1*
X4380819Y1986605D1*
X4383671Y1983720D1*
X4387982Y1982294D1*
X4392293D1*
X4396571Y1983720D1*
X4397997Y1985179D1*
X4399456Y1988031D1*
X4355737Y1982294D2*
Y2012405D1*
X4370096Y1992342D1*
X4348574D1*
X2550450Y2005275D2*
X2551876Y2008127D1*
X2554761Y2011012D1*
X2557613Y2012438D1*
X2563350D1*
X2566235Y2011012D1*
X2569087Y2008127D1*
X2570546Y2005275D1*
X2571972Y2000964D1*
Y1993768D1*
X2570546Y1989490D1*
X2569087Y1986605D1*
X2566235Y1983753D1*
X2563350Y1982294D1*
X2557613D1*
X2554761Y1983753D1*
X2551876Y1986605D1*
X2550450Y1989490D1*
X2541187Y2006668D2*
X2538302Y2008127D1*
X2533991Y2012405D1*
Y1982294D1*
X2521842Y2012405D2*
X2506090D1*
X2514679Y2000931D1*
X2510368D1*
X2507516Y1999505D1*
X2506090Y1998079D1*
X2504631Y1993768D1*
Y1990916D1*
X2506090Y1986605D1*
X2508942Y1983720D1*
X2513253Y1982294D1*
X2517564D1*
X2521842Y1983720D1*
X2523268Y1985179D1*
X2524727Y1988031D1*
X2478157Y2012405D2*
X2492483D1*
X2493909Y1999505D1*
X2492483Y2000931D1*
X2488172Y2002390D1*
X2483894D1*
X2479583Y2000931D1*
X2476698Y1998079D1*
X2475272Y1993768D1*
Y1990916D1*
X2476698Y1986605D1*
X2479583Y1983720D1*
X2483894Y1982294D1*
X2488172D1*
X2492483Y1983720D1*
X2493909Y1985179D1*
X2495368Y1988031D1*
X659957Y2005275D2*
X661383Y2008127D1*
X664268Y2011012D1*
X667120Y2012438D1*
X672857D1*
X675742Y2011012D1*
X678594Y2008127D1*
X680053Y2005275D1*
X681479Y2000964D1*
Y1993768D1*
X680053Y1989490D1*
X678594Y1986605D1*
X675742Y1983753D1*
X672857Y1982294D1*
X667120D1*
X664268Y1983753D1*
X661383Y1986605D1*
X659957Y1989490D1*
X650694Y2006668D2*
X647808Y2008127D1*
X643497Y2012405D1*
Y1982294D1*
X631349Y2012405D2*
X615597D1*
X624186Y2000931D1*
X619875D1*
X617023Y1999505D1*
X615597Y1998079D1*
X614138Y1993768D1*
Y1990916D1*
X615597Y1986605D1*
X618449Y1983720D1*
X622760Y1982294D1*
X627071D1*
X631349Y1983720D1*
X632775Y1985179D1*
X634234Y1988031D1*
X587663Y2008127D2*
X589089Y2010979D1*
X593400Y2012405D1*
X596252D1*
X600563Y2010979D1*
X603448Y2006668D1*
X604874Y1999505D1*
Y1992342D1*
X603448Y1986605D1*
X600563Y1983720D1*
X596252Y1982294D1*
X594826D1*
X590549Y1983720D1*
X587663Y1986605D1*
X586237Y1990916D1*
Y1992342D1*
X587663Y1996653D1*
X590549Y1999505D1*
X594826Y2000931D1*
X596252D1*
X600563Y1999505D1*
X603448Y1996653D1*
X604874Y1992342D1*
X3450057Y2036771D2*
X3451483Y2039623D1*
X3454368Y2042508D1*
X3457220Y2043934D1*
X3462957D1*
X3465842Y2042508D1*
X3468694Y2039623D1*
X3470153Y2036771D1*
X3471579Y2032460D1*
Y2025264D1*
X3470153Y2020986D1*
X3468694Y2018101D1*
X3465842Y2015249D1*
X3462957Y2013790D1*
X3457220D1*
X3454368Y2015249D1*
X3451483Y2018101D1*
X3450057Y2020986D1*
X3440793Y2038164D2*
X3437908Y2039623D1*
X3433597Y2043901D1*
Y2013790D1*
X3421448Y2043901D2*
X3405697D1*
X3414286Y2032427D1*
X3409975D1*
X3407123Y2031001D1*
X3405697Y2029575D1*
X3404238Y2025264D1*
Y2022412D1*
X3405697Y2018101D1*
X3408549Y2015216D1*
X3412860Y2013790D1*
X3417171D1*
X3421448Y2015216D1*
X3422874Y2016675D1*
X3424334Y2019527D1*
X3389237Y2013790D2*
X3374878Y2043901D1*
X3394974D1*
X5117480Y1695098D2*
X5120332Y1693672D1*
X5123218Y1690787D1*
X5124644Y1687935D1*
Y1682198D1*
X5123218Y1679313D1*
X5120333Y1676461D1*
X5117481Y1675002D1*
X5113170Y1673576D1*
X5105974Y1673575D1*
X5101696Y1675001D1*
X5098811Y1676460D1*
X5095959Y1679312D1*
X5094500Y1682197D1*
Y1687934D1*
X5095959Y1690786D1*
X5098810Y1693671D1*
X5101696Y1695097D1*
X5118873Y1704361D2*
X5120332Y1707246D1*
X5124610Y1711558D1*
X5094499Y1711557D1*
X5124610Y1723706D2*
X5124609Y1739458D1*
X5113135Y1730869D1*
Y1735180D1*
X5111709Y1738032D1*
X5110283Y1739458D1*
X5105972Y1740917D1*
X5103120D1*
X5098809Y1739457D1*
X5095924Y1736605D1*
X5094498Y1732294D1*
X5094499Y1727983D1*
X5095925Y1723705D1*
X5097384Y1722280D1*
X5100236Y1720820D1*
X5124609Y1757344D2*
X5123183Y1753066D1*
X5120331Y1751606D1*
X5117446D1*
X5114594Y1753065D1*
X5113135Y1755917D1*
X5111709Y1761654D1*
X5110283Y1765965D1*
X5107397Y1768817D1*
X5104545Y1770243D1*
X5100234D1*
X5097383Y1768817D1*
X5095924Y1767391D1*
X5094498Y1763080D1*
Y1757343D1*
X5095924Y1753065D1*
X5097383Y1751606D1*
X5100235Y1750180D1*
X5104546D1*
X5107398Y1751606D1*
X5110283Y1754491D1*
X5111709Y1758769D1*
X5113135Y1764506D1*
X5114594Y1767391D1*
X5117445Y1768817D1*
X5120330D1*
X5123182Y1767392D1*
X5124609Y1763081D1*
Y1757344D1*
X4804487Y1695097D2*
X4807339Y1693671D1*
X4810224Y1690786D1*
X4811650Y1687934D1*
Y1682197D1*
X4810224Y1679312D1*
X4807339Y1676460D1*
X4804487Y1675001D1*
X4800176Y1673575D1*
X4792980D1*
X4788702Y1675001D1*
X4785817Y1676460D1*
X4782965Y1679312D1*
X4781506Y1682197D1*
Y1687934D1*
X4782965Y1690786D1*
X4785817Y1693671D1*
X4788702Y1695097D1*
X4805880Y1704361D2*
X4807339Y1707246D1*
X4811617Y1711557D1*
X4781506D1*
X4811617Y1723705D2*
Y1739457D1*
X4800143Y1730868D1*
Y1735179D1*
X4798717Y1738031D1*
X4797291Y1739457D1*
X4792980Y1740916D1*
X4790128D1*
X4785817Y1739457D1*
X4782932Y1736605D1*
X4781506Y1732294D1*
Y1727983D1*
X4782932Y1723705D1*
X4784391Y1722279D1*
X4787243Y1720820D1*
X4801602Y1768850D2*
X4797291Y1767391D1*
X4794406Y1764539D1*
X4792980Y1760228D1*
Y1758802D1*
X4794406Y1754491D1*
X4797291Y1751639D1*
X4801602Y1750180D1*
X4803028D1*
X4807339Y1751639D1*
X4810191Y1754491D1*
X4811617Y1758802D1*
Y1760228D1*
X4810191Y1764539D1*
X4807339Y1767391D1*
X4801602Y1768850D1*
X4794406D1*
X4787243Y1767391D1*
X4782932Y1764539D1*
X4781506Y1760228D1*
Y1757376D1*
X4782932Y1753065D1*
X4785817Y1751639D1*
X3239528Y1695098D2*
X3242380Y1693672D1*
X3245265Y1690787D1*
X3246691Y1687935D1*
Y1682198D1*
X3245265Y1679313D1*
X3242380Y1676461D1*
X3239528Y1675002D1*
X3235217Y1673576D1*
X3228021Y1673575D1*
X3223743Y1675001D1*
X3220858Y1676460D1*
X3218006Y1679312D1*
X3216547Y1682197D1*
Y1687934D1*
X3218006Y1690786D1*
X3220858Y1693671D1*
X3223743Y1695097D1*
X3240920Y1704361D2*
X3242379Y1707246D1*
X3246657Y1711558D1*
X3216546Y1711557D1*
Y1735179D2*
X3246656Y1735180D1*
X3226594Y1720821D1*
X3226593Y1742343D1*
X3246656Y1760229D2*
X3245230Y1755918D1*
X3240919Y1753032D1*
X3233756Y1751606D1*
X3229445D1*
X3222282Y1753032D1*
X3217971Y1755917D1*
X3216545Y1760228D1*
Y1763080D1*
X3217971Y1767391D1*
X3222282Y1770243D1*
X3229445Y1771702D1*
X3233756D1*
X3240919Y1770243D1*
X3245230Y1767392D1*
X3246656Y1763081D1*
Y1760229D1*
X3240919Y1770243D2*
X3222282Y1753032D1*
X2930472Y1695098D2*
X2933324Y1693672D1*
X2936209Y1690787D1*
X2937635Y1687935D1*
Y1682198D1*
X2936209Y1679313D1*
X2933324Y1676461D1*
X2930472Y1675002D1*
X2926161Y1673576D1*
X2918965D1*
X2914687Y1675002D1*
X2911802Y1676461D1*
X2908950Y1679313D1*
X2907491Y1682198D1*
Y1687935D1*
X2908950Y1690787D1*
X2911802Y1693672D1*
X2914687Y1695098D1*
X2931864Y1704361D2*
X2933324Y1707246D1*
X2937601Y1711557D1*
X2907491D1*
Y1735180D2*
X2937601D1*
X2917539Y1720821D1*
Y1742343D1*
X2931864Y1751606D2*
X2933324Y1754491D1*
X2937601Y1758802D1*
X2907491D1*
X1349764Y1695098D2*
X1352616Y1693672D1*
X1355501Y1690787D1*
X1356927Y1687935D1*
Y1682198D1*
X1355501Y1679313D1*
X1352616Y1676461D1*
X1349764Y1675002D1*
X1345453Y1673576D1*
X1338257Y1673575D1*
X1333979Y1675001D1*
X1331094Y1676460D1*
X1328242Y1679312D1*
X1326783Y1682197D1*
Y1687934D1*
X1328242Y1690786D1*
X1331094Y1693671D1*
X1333979Y1695097D1*
X1351156Y1704361D2*
X1352616Y1707246D1*
X1356893Y1711558D1*
X1326782Y1711557D1*
Y1735179D2*
X1356893Y1735180D1*
X1336830Y1720821D1*
Y1742343D1*
X1349729Y1753066D2*
X1351155D1*
X1354040Y1754492D1*
X1355466Y1755918D1*
X1356892Y1758803D1*
Y1764540D1*
X1355466Y1767392D1*
X1354040Y1768817D1*
X1351155Y1770276D1*
X1348303D1*
X1345418Y1768817D1*
X1341140Y1765965D1*
X1326781Y1751606D1*
Y1771702D1*
X1042676Y1695098D2*
X1045528Y1693672D1*
X1048413Y1690787D1*
X1049839Y1687935D1*
Y1682198D1*
X1048413Y1679313D1*
X1045528Y1676461D1*
X1042676Y1675002D1*
X1038365Y1673576D1*
X1031169D1*
X1026891Y1675002D1*
X1024006Y1676461D1*
X1021154Y1679313D1*
X1019695Y1682198D1*
Y1687935D1*
X1021154Y1690787D1*
X1024006Y1693672D1*
X1026891Y1695098D1*
X1044069Y1704361D2*
X1045528Y1707246D1*
X1049806Y1711557D1*
X1019695D1*
Y1735180D2*
X1049806D1*
X1029743Y1720821D1*
Y1742343D1*
X1049806Y1754492D2*
Y1770243D1*
X1038332Y1761654D1*
Y1765965D1*
X1036906Y1768817D1*
X1035480Y1770243D1*
X1031169Y1771702D1*
X1028317D1*
X1024006Y1770243D1*
X1021121Y1767391D1*
X1019695Y1763080D1*
Y1758769D1*
X1021121Y1754492D1*
X1022580Y1753066D1*
X1025432Y1751606D1*
X3565509Y3089257D2*
X3565508Y3102156D1*
X3566967Y3106468D1*
X3568393Y3107927D1*
X3571245Y3109353D1*
X3574130D1*
X3576982Y3107927D1*
X3578441Y3106468D1*
X3579867Y3102157D1*
X3579868Y3089257D1*
X3549724Y3089256D1*
X3565508Y3099305D2*
X3549723Y3109352D1*
X3579833Y3135827D2*
X3579834Y3121502D1*
X3566934Y3120075D1*
X3568360Y3121501D1*
X3569819Y3125812D1*
Y3130090D1*
X3568359Y3134401D1*
X3565507Y3137286D1*
X3561196Y3138712D1*
X3558344D1*
X3554033Y3137286D1*
X3551148Y3134401D1*
X3549723Y3130090D1*
Y3125812D1*
X3551149Y3121501D1*
X3552608Y3120075D1*
X3555460Y3118616D1*
X3579833Y3156598D2*
X3578407Y3152287D1*
X3574096Y3149402D1*
X3566933Y3147976D1*
X3562622D1*
X3555459Y3149401D1*
X3551148Y3152286D1*
X3549722Y3156597D1*
Y3159449D1*
X3551148Y3163760D1*
X3555459Y3166612D1*
X3562621Y3168072D1*
X3566933D1*
X3574095Y3166613D1*
X3578407Y3163761D1*
X3579833Y3159450D1*
Y3156598D1*
X3574095Y3166613D2*
X3555459Y3149401D1*
X3502516Y3095707D2*
Y3108606D1*
X3503975Y3112917D1*
X3505401Y3114377D1*
X3508253Y3115803D1*
X3511138D1*
X3513990Y3114377D1*
X3515449Y3112918D1*
X3516875Y3108607D1*
Y3095707D1*
X3486731Y3095706D1*
X3502516Y3105755D2*
X3486731Y3115802D1*
X3516841Y3142277D2*
Y3127951D1*
X3503941Y3126525D1*
X3505367Y3127951D1*
X3506826Y3132262D1*
Y3136540D1*
X3505367Y3140851D1*
X3502515Y3143736D1*
X3498204Y3145162D1*
X3495352D1*
X3491041Y3143736D1*
X3488156Y3140851D1*
X3486730Y3136540D1*
Y3132262D1*
X3488156Y3127951D1*
X3489616Y3126525D1*
X3492468Y3125066D1*
X3511104Y3154426D2*
X3512563Y3157311D1*
X3516840Y3161622D1*
X3486730Y3161621D1*
X3439524Y3089257D2*
Y3102156D1*
X3440983Y3106468D1*
X3442409Y3107927D1*
X3445261Y3109353D1*
X3448146D1*
X3450998Y3107927D1*
X3452457Y3106468D1*
X3453883Y3102157D1*
Y3089257D1*
X3423739Y3089256D1*
X3439524Y3099305D2*
X3423739Y3109352D1*
X3453849Y3135827D2*
Y3121502D1*
X3440949Y3120075D1*
X3442375Y3121501D1*
X3443834Y3125812D1*
Y3130090D1*
X3442375Y3134401D1*
X3439523Y3137286D1*
X3435212Y3138712D1*
X3432360D1*
X3428049Y3137286D1*
X3425164Y3134401D1*
X3423738Y3130090D1*
Y3125812D1*
X3425164Y3121501D1*
X3426624Y3120075D1*
X3429476Y3118616D1*
X3446686Y3149435D2*
X3448112D1*
X3450997Y3150861D1*
X3452423Y3152287D1*
X3453848Y3155172D1*
Y3160909D1*
X3452422Y3163761D1*
X3450996Y3165187D1*
X3448111Y3166646D1*
X3445259D1*
X3442374Y3165187D1*
X3438096Y3162335D1*
X3423738Y3147975D1*
X3423737Y3168071D1*
X3376532Y3089257D2*
Y3102156D1*
X3377991Y3106468D1*
X3379417Y3107927D1*
X3382269Y3109353D1*
X3385154D1*
X3388006Y3107927D1*
X3389465Y3106468D1*
X3390891Y3102157D1*
Y3089257D1*
X3360747Y3089256D1*
X3376532Y3099305D2*
X3360747Y3109352D1*
X3390857Y3135827D2*
Y3121502D1*
X3377957Y3120075D1*
X3379383Y3121501D1*
X3380842Y3125812D1*
Y3130090D1*
X3379383Y3134401D1*
X3376531Y3137286D1*
X3372220Y3138712D1*
X3369368D1*
X3365057Y3137286D1*
X3362172Y3134401D1*
X3360746Y3130090D1*
Y3125812D1*
X3362172Y3121501D1*
X3363631Y3120075D1*
X3366483Y3118616D1*
X3390856Y3150861D2*
Y3166613D1*
X3379382Y3158024D1*
Y3162335D1*
X3377956Y3165187D1*
X3376530Y3166613D1*
X3372219Y3168072D1*
X3369367Y3168071D1*
X3365056Y3166612D1*
X3362171Y3163760D1*
X3360745Y3159449D1*
X3360746Y3155138D1*
X3362172Y3150860D1*
X3363631Y3149434D1*
X3366483Y3147975D1*
X3246611Y3088544D2*
Y3101443D1*
X3248070Y3105755D1*
X3249496Y3107214D1*
X3252347Y3108640D1*
X3255232D1*
X3258084Y3107214D1*
X3259544Y3105755D1*
X3260970Y3101444D1*
Y3088544D1*
X3230826Y3088543D1*
X3246611Y3098592D2*
X3230825Y3108639D1*
X3260936Y3135114D2*
Y3120789D1*
X3248036Y3119362D1*
X3249462Y3120788D1*
X3250921Y3125099D1*
Y3129377D1*
X3249462Y3133688D1*
X3246610Y3136573D1*
X3242299Y3137999D1*
X3239447D1*
X3235136Y3136573D1*
X3232251Y3133688D1*
X3230825Y3129377D1*
Y3125099D1*
X3232251Y3120788D1*
X3233710Y3119362D1*
X3236562Y3117903D1*
X3230824Y3161621D2*
X3260935Y3161622D1*
X3240872Y3147263D1*
Y3168784D1*
X3179682Y3089257D2*
X3179681Y3102156D1*
X3181140Y3106468D1*
X3182566Y3107927D1*
X3185418Y3109353D1*
X3188303D1*
X3191155Y3107927D1*
X3192614Y3106468D1*
X3194040Y3102157D1*
X3194041Y3089257D1*
X3163897Y3089256D1*
X3179682Y3099305D2*
X3163896Y3109352D1*
X3194006Y3135827D2*
X3194007Y3121502D1*
X3181107Y3120075D1*
X3182533Y3121501D1*
X3183992Y3125812D1*
Y3130090D1*
X3182533Y3134401D1*
X3179681Y3137286D1*
X3175370Y3138712D1*
X3172518D1*
X3168207Y3137286D1*
X3165322Y3134401D1*
X3163896Y3130090D1*
Y3125812D1*
X3165322Y3121501D1*
X3166781Y3120075D1*
X3169633Y3118616D1*
X3194006Y3165187D2*
Y3150861D1*
X3181106Y3149435D1*
X3182532Y3150861D1*
X3183991Y3155172D1*
Y3159450D1*
X3182532Y3163761D1*
X3179680Y3166646D1*
X3175369Y3168072D1*
X3172517Y3168071D1*
X3168206Y3166645D1*
X3165321Y3163760D1*
X3163895Y3159449D1*
Y3155171D1*
X3165321Y3150860D1*
X3166780Y3149434D1*
X3169632Y3147975D1*
X4364721Y3086049D2*
Y3098949D1*
X4366180Y3103260D1*
X4367606Y3104719D1*
X4370458Y3106145D1*
X4373343D1*
X4376195Y3104719D1*
X4377654Y3103260D1*
X4379080Y3098949D1*
Y3086049D1*
X4348936D1*
X4364721Y3096097D2*
X4348936Y3106145D1*
X4379046Y3132620D2*
Y3118294D1*
X4366146Y3116868D1*
X4367572Y3118294D1*
X4369031Y3122605D1*
Y3126883D1*
X4367572Y3131194D1*
X4364720Y3134079D1*
X4360409Y3135505D1*
X4357557Y3135504D1*
X4353246Y3134078D1*
X4350361Y3131193D1*
X4348935Y3126882D1*
Y3122604D1*
X4350361Y3118293D1*
X4351820Y3116867D1*
X4354672Y3115408D1*
X4374767Y3161979D2*
X4377619Y3160554D1*
X4379045Y3156243D1*
Y3153391D1*
X4377619Y3149080D1*
X4373308Y3146194D1*
X4366146Y3144768D1*
X4358983D1*
X4353246Y3146194D1*
X4350361Y3149079D1*
X4348934Y3153390D1*
Y3154816D1*
X4350360Y3159094D1*
X4353245Y3161979D1*
X4357556Y3163405D1*
X4358982D1*
X4363293Y3161979D1*
X4366145Y3159094D1*
X4367571Y3154816D1*
Y3153390D1*
X4366145Y3149079D1*
X4363294Y3146194D1*
X4358983Y3144768D1*
X4297792Y3085320D2*
Y3098219D1*
X4299251Y3102531D1*
X4300677Y3103990D1*
X4303529Y3105416D1*
X4306414D1*
X4309266Y3103990D1*
X4310725Y3102531D1*
X4312151Y3098220D1*
Y3085320D1*
X4282007Y3085319D1*
X4297792Y3095368D2*
X4282007Y3105415D1*
X4312117Y3131890D2*
Y3117565D1*
X4299217Y3116138D1*
X4300643Y3117564D1*
X4302102Y3121875D1*
Y3126153D1*
X4300643Y3130464D1*
X4297791Y3133349D1*
X4293480Y3134775D1*
X4290628D1*
X4286317Y3133349D1*
X4283432Y3130464D1*
X4282006Y3126153D1*
Y3121875D1*
X4283432Y3117564D1*
X4284891Y3116138D1*
X4287743Y3114679D1*
X4282005Y3149775D2*
X4312116Y3164135D1*
Y3144039D1*
X4230863Y3085336D2*
Y3098236D1*
X4232322Y3102547D1*
X4233747Y3104006D1*
X4236599Y3105432D1*
X4239484D1*
X4242336Y3104006D1*
X4243796Y3102547D1*
X4245222Y3098236D1*
Y3085336D1*
X4215078D1*
X4230863Y3095384D2*
X4215077Y3105432D1*
X4245188Y3131907D2*
Y3117581D1*
X4232288Y3116155D1*
X4233714Y3117581D1*
X4235173Y3121892D1*
Y3126170D1*
X4233714Y3130481D1*
X4230862Y3133366D1*
X4226551Y3134792D1*
X4223699Y3134791D1*
X4219388Y3133365D1*
X4216503Y3130480D1*
X4215077Y3126169D1*
Y3121891D1*
X4216503Y3117580D1*
X4217962Y3116154D1*
X4220814Y3114695D1*
X4245187Y3151219D2*
X4243761Y3146941D1*
X4240909Y3145481D1*
X4238024D1*
X4235172Y3146940D1*
X4233713Y3149792D1*
X4232287Y3155529D1*
X4230861Y3159840D1*
X4227976Y3162692D1*
X4225124Y3164118D1*
X4220813D1*
X4217961Y3162692D1*
X4216502Y3161266D1*
X4215076Y3156955D1*
Y3151218D1*
X4216502Y3146940D1*
X4217961Y3145481D1*
X4220813Y3144055D1*
X4225124D1*
X4227976Y3145481D1*
X4230861Y3148366D1*
X4232287Y3152644D1*
X4233713Y3158381D1*
X4235172Y3161266D1*
X4238024Y3162692D1*
X4240909D1*
X4243761Y3161266D1*
X4245187Y3156956D1*
Y3151219D1*
X4163934Y3086033D2*
X4163933Y3098932D1*
X4165392Y3103243D1*
X4166818Y3104703D1*
X4169670Y3106129D1*
X4172555D1*
X4175407Y3104703D1*
X4176866Y3103244D1*
X4178292Y3098933D1*
X4178293Y3086033D1*
X4148149Y3086032D1*
X4163933Y3096081D2*
X4148148Y3106128D1*
X4178258Y3132603D2*
X4178259Y3118278D1*
X4165359Y3116851D1*
X4166785Y3118277D1*
X4168244Y3122588D1*
Y3126866D1*
X4166785Y3131177D1*
X4163933Y3134062D1*
X4159621Y3135488D1*
X4156770D1*
X4152459Y3134062D1*
X4149574Y3131177D1*
X4148148Y3126866D1*
Y3122588D1*
X4149574Y3118277D1*
X4151033Y3116851D1*
X4153885Y3115392D1*
X4168243Y3163422D2*
X4163932Y3161963D1*
X4161047Y3159111D1*
X4159621Y3154800D1*
Y3153374D1*
X4161047Y3149063D1*
X4163932Y3146211D1*
X4168243Y3144752D1*
X4169669D1*
X4173980Y3146211D1*
X4176832Y3149063D1*
X4178258Y3153374D1*
Y3154800D1*
X4176832Y3159111D1*
X4173980Y3161963D1*
X4168243Y3163422D1*
X4161047D1*
X4153884Y3161962D1*
X4149573Y3159110D1*
X4148147Y3154799D1*
Y3151947D1*
X4149573Y3147636D1*
X4152458Y3146210D1*
X4097005Y3086049D2*
X4097004Y3098949D1*
X4098463Y3103260D1*
X4099889Y3104719D1*
X4102741Y3106145D1*
X4105626D1*
X4108478Y3104719D1*
X4109937Y3103260D1*
X4111363Y3098949D1*
X4111364Y3086049D1*
X4081220D1*
X4097004Y3096097D2*
X4081219Y3106145D1*
X4107051Y3132620D2*
X4109903Y3131194D1*
X4111329Y3126883D1*
X4111330Y3124031D1*
X4109904Y3119720D1*
X4105593Y3116835D1*
X4098430Y3115409D1*
X4091267D1*
X4085530Y3116834D1*
X4082645Y3119719D1*
X4081219Y3124030D1*
Y3125456D1*
X4082644Y3129734D1*
X4085529Y3132619D1*
X4089840Y3134045D1*
X4091266D1*
X4095577Y3132620D1*
X4098429Y3129735D1*
X4099856Y3125457D1*
Y3124031D1*
X4098430Y3119720D1*
X4095578Y3116835D1*
X4091267Y3115409D1*
X4111329Y3151932D2*
X4109903Y3147620D1*
X4105592Y3144735D1*
X4098429Y3143309D1*
X4094118D1*
X4086955Y3144735D1*
X4082644Y3147620D1*
X4081218Y3151931D1*
Y3154783D1*
X4082644Y3159094D1*
X4086955Y3161946D1*
X4094118Y3163405D1*
X4098429D1*
X4105592Y3161946D1*
X4109903Y3159094D1*
X4111329Y3154783D1*
Y3151932D1*
X4105592Y3161946D2*
X4086955Y3144735D1*
X4030075Y3092499D2*
Y3105399D1*
X4031534Y3109710D1*
X4032960Y3111169D1*
X4035812Y3112595D1*
X4038697D1*
X4041549Y3111169D1*
X4043008Y3109710D1*
X4044434Y3105399D1*
Y3092499D1*
X4014290D1*
X4030075Y3102547D2*
X4014290Y3112595D1*
X4040122Y3139070D2*
X4042974Y3137644D1*
X4044400Y3133333D1*
Y3130481D1*
X4042974Y3126170D1*
X4038663Y3123285D1*
X4031501Y3121859D1*
X4024338Y3121858D1*
X4018601Y3123284D1*
X4015715Y3126169D1*
X4014289Y3130480D1*
Y3131906D1*
X4015715Y3136184D1*
X4018600Y3139069D1*
X4022911Y3140495D1*
X4024337D1*
X4028648Y3139070D1*
X4031500Y3136185D1*
X4032926Y3131907D1*
Y3130481D1*
X4031500Y3126170D1*
X4028649Y3123285D1*
X4024338Y3121858D1*
X4038663Y3149759D2*
X4040122Y3152644D1*
X4044400Y3156956D1*
X4014289Y3156955D1*
X3963146Y3086049D2*
Y3098949D1*
X3964605Y3103260D1*
X3966031Y3104719D1*
X3968883Y3106145D1*
X3971768D1*
X3974620Y3104719D1*
X3976079Y3103260D1*
X3977505Y3098949D1*
Y3086049D1*
X3947361D1*
X3963146Y3096097D2*
X3947361Y3106145D1*
X3973193Y3132620D2*
X3976045Y3131194D1*
X3977471Y3126883D1*
Y3124031D1*
X3976045Y3119720D1*
X3971734Y3116835D1*
X3964572Y3115409D1*
X3957409D1*
X3951672Y3116834D1*
X3948786Y3119719D1*
X3947360Y3124030D1*
Y3125456D1*
X3948786Y3129734D1*
X3951671Y3132619D1*
X3955982Y3134045D1*
X3957408D1*
X3961719Y3132620D1*
X3964571Y3129735D1*
X3965997Y3125457D1*
Y3124031D1*
X3964571Y3119720D1*
X3961720Y3116835D1*
X3957409Y3115409D1*
X3970308Y3144768D2*
X3971734D1*
X3974619Y3146194D1*
X3976045Y3147620D1*
X3977471Y3150506D1*
X3977470Y3156243D1*
X3976044Y3159094D1*
X3974618Y3160520D1*
X3971733Y3161979D1*
X3968881D1*
X3965996Y3160520D1*
X3961719Y3157668D1*
X3947360Y3143309D1*
X3947359Y3163405D1*
X2490705Y3086049D2*
Y3098949D1*
X2492164Y3103260D1*
X2493590Y3104719D1*
X2496442Y3106145D1*
X2499327D1*
X2502179Y3104719D1*
X2503638Y3103260D1*
X2505064Y3098949D1*
Y3086049D1*
X2474920D1*
X2490705Y3096097D2*
X2474920Y3106145D1*
X2500752Y3132620D2*
X2503604Y3131194D1*
X2505030Y3126883D1*
Y3124031D1*
X2503604Y3119720D1*
X2499294Y3116835D1*
X2492131Y3115409D1*
X2484968D1*
X2479231Y3116834D1*
X2476346Y3119719D1*
X2474919Y3124030D1*
Y3125456D1*
X2476345Y3129734D1*
X2479230Y3132619D1*
X2483541Y3134045D1*
X2484967D1*
X2489278Y3132620D1*
X2492130Y3129735D1*
X2493556Y3125457D1*
Y3124031D1*
X2492130Y3119720D1*
X2489279Y3116835D1*
X2484968Y3115409D1*
X2505030Y3146195D2*
X2505029Y3161946D1*
X2493556Y3153357D1*
X2493555Y3157668D1*
X2492129Y3160520D1*
X2490703Y3161946D1*
X2486392Y3163405D1*
X2483540D1*
X2479230Y3161946D1*
X2476345Y3159094D1*
X2474919Y3154783D1*
Y3150472D1*
X2476345Y3146194D1*
X2477804Y3144768D1*
X2480656Y3143309D1*
X2423776Y3085336D2*
Y3098236D1*
X2425235Y3102547D1*
X2426661Y3104006D1*
X2429513Y3105432D1*
X2432398D1*
X2435250Y3104006D1*
X2436709Y3102547D1*
X2438135Y3098236D1*
Y3085336D1*
X2407991D1*
X2423776Y3095384D2*
X2407991Y3105432D1*
X2433823Y3131907D2*
X2436675Y3130481D1*
X2438101Y3126170D1*
Y3123318D1*
X2436675Y3119007D1*
X2432364Y3116122D1*
X2425201Y3114696D1*
X2418039D1*
X2412302Y3116121D1*
X2409416Y3119006D1*
X2407990Y3123317D1*
Y3124743D1*
X2409416Y3129021D1*
X2412301Y3131906D1*
X2416612Y3133332D1*
X2418038D1*
X2422349Y3131907D1*
X2425201Y3129022D1*
X2426627Y3124744D1*
Y3123318D1*
X2425201Y3119007D1*
X2422350Y3116122D1*
X2418039Y3114696D1*
X2407989Y3156955D2*
X2438100Y3156956D1*
X2418038Y3142596D1*
X2418037Y3164118D1*
X2356847Y3086049D2*
Y3098949D1*
X2358306Y3103260D1*
X2359732Y3104719D1*
X2362584Y3106145D1*
X2365469D1*
X2368321Y3104719D1*
X2369780Y3103260D1*
X2371206Y3098949D1*
Y3086049D1*
X2341062D1*
X2356847Y3096097D2*
X2341062Y3106145D1*
X2366894Y3132620D2*
X2369746Y3131194D1*
X2371172Y3126883D1*
Y3124031D1*
X2369746Y3119720D1*
X2365435Y3116835D1*
X2358272Y3115409D1*
X2351109D1*
X2345372Y3116834D1*
X2342487Y3119719D1*
X2341061Y3124030D1*
Y3125456D1*
X2342487Y3129734D1*
X2345372Y3132619D1*
X2349683Y3134045D1*
X2351109D1*
X2355420Y3132620D1*
X2358272Y3129735D1*
X2359698Y3125457D1*
Y3124031D1*
X2358272Y3119720D1*
X2355420Y3116835D1*
X2351109Y3115409D1*
X2371171Y3160520D2*
Y3146195D1*
X2358272Y3144768D1*
X2359698Y3146194D1*
X2361157Y3150505D1*
X2361156Y3154783D1*
X2359697Y3159094D1*
X2356845Y3161979D1*
X2352534Y3163405D1*
X2349682D1*
X2345371Y3161979D1*
X2342486Y3159094D1*
X2341060Y3154783D1*
X2341061Y3150505D1*
X2342487Y3146194D1*
X2343946Y3144768D1*
X2346798Y3143309D1*
X2289918Y3086779D2*
Y3099679D1*
X2291377Y3103990D1*
X2292803Y3105449D1*
X2295654Y3106875D1*
X2298540D1*
X2301391Y3105449D1*
X2302851Y3103990D1*
X2304277Y3099679D1*
Y3086779D1*
X2274133Y3086778D1*
X2289918Y3096827D2*
X2274132Y3106874D1*
X2299965Y3133349D2*
X2302817Y3131924D1*
X2304243Y3127613D1*
Y3124761D1*
X2302817Y3120450D1*
X2298506Y3117564D1*
X2291343Y3116138D1*
X2284180D1*
X2278443Y3117564D1*
X2275558Y3120449D1*
X2274132Y3124760D1*
Y3126186D1*
X2275558Y3130464D1*
X2278443Y3133349D1*
X2282754Y3134775D1*
X2284180D1*
X2288491Y3133349D1*
X2291343Y3130464D1*
X2292769Y3126186D1*
Y3124760D1*
X2291343Y3120449D1*
X2288491Y3117564D1*
X2284180Y3116138D1*
X2299964Y3161250D2*
X2302816Y3159824D1*
X2304242Y3155513D1*
Y3152661D1*
X2302816Y3148350D1*
X2298505Y3145465D1*
X2291342Y3144039D1*
X2284180D1*
X2278443Y3145464D1*
X2275557Y3148349D1*
X2274131Y3152660D1*
Y3154086D1*
X2275557Y3158364D1*
X2278442Y3161249D1*
X2282753Y3162675D1*
X2284179D1*
X2288490Y3161250D1*
X2291342Y3158365D1*
X2292768Y3154087D1*
Y3152661D1*
X2291342Y3148350D1*
X2288491Y3145465D1*
X2284180Y3144039D1*
X2222989Y3086049D2*
Y3098949D1*
X2224448Y3103260D1*
X2225873Y3104719D1*
X2228725Y3106145D1*
X2231610D1*
X2234462Y3104719D1*
X2235922Y3103260D1*
X2237348Y3098949D1*
Y3086049D1*
X2207204D1*
X2222989Y3096097D2*
X2207203Y3106145D1*
X2233036Y3132620D2*
X2235888Y3131194D1*
X2237314Y3126883D1*
Y3124031D1*
X2235888Y3119720D1*
X2231577Y3116835D1*
X2224414Y3115409D1*
X2217251D1*
X2211514Y3116834D1*
X2208629Y3119719D1*
X2207203Y3124030D1*
Y3125456D1*
X2208629Y3129734D1*
X2211514Y3132619D1*
X2215825Y3134045D1*
X2217251D1*
X2221562Y3132620D1*
X2224414Y3129735D1*
X2225840Y3125457D1*
Y3124031D1*
X2224414Y3119720D1*
X2221562Y3116835D1*
X2217251Y3115409D1*
X2207202Y3149046D2*
X2237313Y3163405D1*
Y3143309D1*
X2156060Y3086066D2*
X2156059Y3098966D1*
X2157518Y3103277D1*
X2158944Y3104736D1*
X2161796Y3106162D1*
X2164681D1*
X2167533Y3104736D1*
X2168992Y3103277D1*
X2170418Y3098966D1*
X2170419Y3086066D1*
X2140275Y3086065D1*
X2156059Y3096114D2*
X2140274Y3106161D1*
X2166107Y3132636D2*
X2168958Y3131211D1*
X2170385Y3126900D1*
Y3124048D1*
X2168959Y3119737D1*
X2164648Y3116851D1*
X2157485Y3115425D1*
X2150322D1*
X2144585Y3116851D1*
X2141700Y3119736D1*
X2140274Y3124047D1*
Y3125473D1*
X2141700Y3129751D1*
X2144585Y3132636D1*
X2148896Y3134062D1*
X2150322D1*
X2154633Y3132636D1*
X2157485Y3129751D1*
X2158911Y3125473D1*
Y3124047D1*
X2157485Y3119736D1*
X2154633Y3116851D1*
X2150322Y3115425D1*
X2170384Y3150489D2*
X2168958Y3146211D1*
X2166106Y3144752D1*
X2163221D1*
X2160369Y3146211D1*
X2158910Y3149063D1*
X2157484Y3154800D1*
X2156058Y3159111D1*
X2153173Y3161962D1*
X2150321Y3163388D1*
X2146010D1*
X2143158Y3161962D1*
X2141699Y3160536D1*
X2140273Y3156225D1*
Y3150488D1*
X2141699Y3146210D1*
X2143158Y3144751D1*
X2146010Y3143325D1*
X2150321Y3143326D1*
X2153173Y3144752D1*
X2156058Y3147637D1*
X2157484Y3151915D1*
X2158910Y3157652D1*
X2160369Y3160537D1*
X2163221Y3161963D1*
X2166106D1*
X2168958Y3160537D1*
X2170384Y3156226D1*
Y3150489D1*
X2089131Y3086762D2*
X2089130Y3099662D1*
X2090589Y3103973D1*
X2092015Y3105432D1*
X2094867Y3106858D1*
X2097752D1*
X2100604Y3105432D1*
X2102063Y3103973D1*
X2103489Y3099662D1*
X2103490Y3086762D1*
X2073346D1*
X2089130Y3096810D2*
X2073345Y3106858D1*
X2099177Y3133333D2*
X2102029Y3131907D1*
X2103455Y3127596D1*
Y3124744D1*
X2102030Y3120433D1*
X2097719Y3117548D1*
X2090556Y3116122D1*
X2083393Y3116121D1*
X2077656Y3117547D1*
X2074771Y3120432D1*
X2073345Y3124743D1*
Y3126169D1*
X2074770Y3130447D1*
X2077655Y3133332D1*
X2081966Y3134758D1*
X2083392D1*
X2087703Y3133333D1*
X2090555Y3130448D1*
X2091981Y3126170D1*
X2091982Y3124744D1*
X2090556Y3120433D1*
X2087704Y3117548D1*
X2083393Y3116121D1*
X2093440Y3162692D2*
X2089129Y3161233D1*
X2086244Y3158381D1*
X2084818Y3154070D1*
Y3152644D1*
X2086244Y3148333D1*
X2089129Y3145481D1*
X2093440Y3144022D1*
X2094866D1*
X2099177Y3145481D1*
X2102029Y3148333D1*
X2103455Y3152644D1*
Y3154070D1*
X2102029Y3158381D1*
X2099177Y3161233D1*
X2093440Y3162692D1*
X2086244D1*
X2079081Y3161233D1*
X2074770Y3158381D1*
X2073344Y3154070D1*
Y3151218D1*
X2074770Y3146907D1*
X2077655Y3145481D1*
X1675745Y3085320D2*
X1675744Y3098219D1*
X1677203Y3102531D1*
X1678629Y3103990D1*
X1681481Y3105416D1*
X1684366D1*
X1687218Y3103990D1*
X1688677Y3102531D1*
X1690103Y3098220D1*
X1690104Y3085320D1*
X1659960Y3085319D1*
X1675745Y3095368D2*
X1659959Y3105415D1*
Y3120416D2*
X1690069Y3134775D1*
X1690070Y3114679D1*
X1690069Y3152661D2*
X1688643Y3148350D1*
X1684332Y3145465D1*
X1677169Y3144039D1*
X1672858D1*
X1665695Y3145464D1*
X1661384Y3148349D1*
X1659958Y3152660D1*
Y3155512D1*
X1661384Y3159823D1*
X1665695Y3162675D1*
X1672858Y3164135D1*
X1677169D1*
X1684332Y3162676D1*
X1688643Y3159824D1*
X1690069Y3155513D1*
Y3152661D1*
X1684332Y3162676D2*
X1665695Y3145464D1*
X1522201Y3091770D2*
Y3104669D1*
X1523660Y3108980D1*
X1525086Y3110440D1*
X1527938Y3111866D1*
X1530823D1*
X1533675Y3110440D1*
X1535134Y3108981D1*
X1536560Y3104670D1*
Y3091770D1*
X1506416Y3091769D1*
X1522201Y3101818D2*
X1506416Y3111865D1*
X1506415Y3126866D2*
X1536526Y3141225D1*
Y3121129D1*
X1530789Y3150489D2*
X1532248Y3153374D1*
X1536525Y3157685D1*
X1506415Y3157684D1*
X1455272Y3085320D2*
Y3098219D1*
X1456731Y3102531D1*
X1458157Y3103990D1*
X1461009Y3105416D1*
X1463894D1*
X1466746Y3103990D1*
X1468205Y3102531D1*
X1469631Y3098220D1*
Y3085320D1*
X1439487Y3085319D1*
X1455272Y3095368D2*
X1439487Y3105415D1*
X1439486Y3120416D2*
X1469597Y3134775D1*
Y3114679D1*
X1462434Y3145498D2*
X1463860D1*
X1466745Y3146924D1*
X1468171Y3148350D1*
X1469597Y3151235D1*
X1469596Y3156972D1*
X1468170Y3159824D1*
X1466744Y3161250D1*
X1463859Y3162709D1*
X1461007D1*
X1458122Y3161250D1*
X1453845Y3158398D1*
X1439486Y3144038D1*
X1439485Y3164134D1*
X600942Y3085320D2*
X600941Y3098219D1*
X602400Y3102531D1*
X603826Y3103990D1*
X606678Y3105416D1*
X609563D1*
X612415Y3103990D1*
X613874Y3102531D1*
X615300Y3098220D1*
X615301Y3085320D1*
X585157Y3085319D1*
X600941Y3095368D2*
X585156Y3105415D1*
Y3120416D2*
X615266Y3134775D1*
X615267Y3114679D1*
X615266Y3146924D2*
Y3162676D1*
X603792Y3154087D1*
Y3158398D1*
X602366Y3161250D1*
X600940Y3162676D1*
X596629Y3164135D1*
X593777Y3164134D1*
X589466Y3162675D1*
X586581Y3159823D1*
X585155Y3155512D1*
Y3151201D1*
X586581Y3146923D1*
X588040Y3145497D1*
X590892Y3144038D1*
X534013Y3084607D2*
X534012Y3097506D1*
X535471Y3101818D1*
X536897Y3103277D1*
X539749Y3104703D1*
X542634D1*
X545486Y3103277D1*
X546945Y3101818D1*
X548371Y3097507D1*
X548372Y3084607D1*
X518228Y3084606D1*
X534012Y3094655D2*
X518227Y3104702D1*
Y3119703D2*
X548337Y3134062D1*
X548338Y3113966D1*
X518226Y3157684D2*
X548337Y3157685D1*
X528274Y3143326D1*
X528273Y3164847D1*
X467083Y3085320D2*
Y3098219D1*
X468542Y3102531D1*
X469968Y3103990D1*
X472820Y3105416D1*
X475705D1*
X478557Y3103990D1*
X480016Y3102531D1*
X481442Y3098220D1*
Y3085320D1*
X451298Y3085319D1*
X467083Y3095368D2*
X451298Y3105415D1*
X451297Y3120416D2*
X481408Y3134775D1*
Y3114679D1*
X481407Y3161250D2*
X481408Y3146924D1*
X468508Y3145498D1*
X469934Y3146924D1*
X471393Y3151235D1*
Y3155513D1*
X469933Y3159824D1*
X467081Y3162709D1*
X462770Y3164135D1*
X459918Y3164134D1*
X455607Y3162708D1*
X452722Y3159823D1*
X451297Y3155512D1*
Y3151234D1*
X452723Y3146923D1*
X454182Y3145497D1*
X457034Y3144038D1*
X400154Y3086049D2*
Y3098949D1*
X401613Y3103260D1*
X403039Y3104719D1*
X405891Y3106145D1*
X408776D1*
X411628Y3104719D1*
X413087Y3103260D1*
X414513Y3098949D1*
Y3086049D1*
X384369D1*
X400154Y3096097D2*
X384369Y3106145D1*
X384368Y3121145D2*
X414479Y3135505D1*
Y3115409D1*
X410200Y3161979D2*
X413052Y3160554D1*
X414478Y3156243D1*
Y3153391D1*
X413053Y3149080D1*
X408742Y3146194D1*
X401579Y3144768D1*
X394416D1*
X388679Y3146194D1*
X385794Y3149079D1*
X384368Y3153390D1*
X384367Y3154816D1*
X385793Y3159094D1*
X388678Y3161979D1*
X392989Y3163405D1*
X394415D1*
X398726Y3161979D1*
X401578Y3159094D1*
X403004Y3154816D1*
Y3153390D1*
X401579Y3149079D1*
X398727Y3146194D1*
X394416Y3144768D1*
X333225Y3085320D2*
Y3098219D1*
X334684Y3102531D1*
X336110Y3103990D1*
X338962Y3105416D1*
X341847D1*
X344699Y3103990D1*
X346158Y3102531D1*
X347584Y3098220D1*
Y3085320D1*
X317440Y3085319D1*
X333225Y3095368D2*
X317440Y3105415D1*
X317439Y3120416D2*
X347550Y3134775D1*
Y3114679D1*
X317438Y3149775D2*
X347549Y3164135D1*
Y3144039D1*
X266296Y3085336D2*
Y3098236D1*
X267755Y3102547D1*
X269181Y3104006D1*
X272032Y3105432D1*
X274918D1*
X277769Y3104006D1*
X279229Y3102547D1*
X280655Y3098236D1*
Y3085336D1*
X250511D1*
X266296Y3095384D2*
X250510Y3105432D1*
Y3120432D2*
X280621Y3134792D1*
Y3114696D1*
X280620Y3151219D2*
X279194Y3146941D1*
X276342Y3145481D1*
X273457D1*
X270605Y3146940D1*
X269146Y3149792D1*
X267720Y3155529D1*
X266294Y3159840D1*
X263409Y3162692D1*
X260557Y3164118D1*
X256246D1*
X253394Y3162692D1*
X251935Y3161266D1*
X250509Y3156955D1*
Y3151218D1*
X251935Y3146940D1*
X253395Y3145481D1*
X256246Y3144055D1*
X260557D1*
X263409Y3145481D1*
X266294Y3148366D1*
X267720Y3152644D1*
X269146Y3158381D1*
X270605Y3161266D1*
X273457Y3162692D1*
X276342D1*
X279194Y3161266D1*
X280620Y3156956D1*
Y3151219D1*
X199367Y3086033D2*
X199366Y3098932D1*
X200825Y3103243D1*
X202251Y3104703D1*
X205103Y3106129D1*
X207988D1*
X210840Y3104703D1*
X212299Y3103244D1*
X213726Y3098933D1*
Y3086033D1*
X183582Y3086032D1*
X199367Y3096081D2*
X183581Y3106128D1*
Y3121129D2*
X213691Y3135488D1*
X213692Y3115392D1*
X203676Y3163422D2*
X199365Y3161963D1*
X196480Y3159111D1*
X195054Y3154800D1*
Y3153374D1*
X196480Y3149063D1*
X199365Y3146211D1*
X203676Y3144752D1*
X205102D1*
X209413Y3146211D1*
X212265Y3149063D1*
X213691Y3153374D1*
Y3154800D1*
X212265Y3159111D1*
X209413Y3161963D1*
X203676Y3163422D1*
X196480D1*
X189317Y3161962D1*
X185006Y3159110D1*
X183580Y3154799D1*
Y3151947D1*
X185006Y3147636D1*
X187891Y3146210D1*
X5035984Y2731163D2*
Y2744063D1*
X5037443Y2748374D1*
X5038869Y2749833D1*
X5041721Y2751259D1*
X5044606D1*
X5047458Y2749833D1*
X5048917Y2748374D1*
X5050343Y2744063D1*
Y2731163D1*
X5020199D1*
X5035984Y2741211D2*
X5020199Y2751259D1*
X5050310Y2767685D2*
X5048884Y2763407D1*
X5046032Y2761948D1*
X5043147D1*
X5040295Y2763407D1*
X5038836Y2766259D1*
X5037410Y2771996D1*
X5035984Y2776307D1*
X5033099Y2779159D1*
X5030247Y2780585D1*
X5025936D1*
X5023084Y2779159D1*
X5021625Y2777733D1*
X5020199Y2773422D1*
Y2767685D1*
X5021625Y2763407D1*
X5023084Y2761948D1*
X5025936Y2760522D1*
X5030247D1*
X5033099Y2761948D1*
X5035984Y2764833D1*
X5037410Y2769111D1*
X5038836Y2774848D1*
X5040295Y2777733D1*
X5043147Y2779159D1*
X5046032D1*
X5048884Y2777733D1*
X5050310Y2773422D1*
Y2767685D1*
Y2798471D2*
X5048884Y2794160D1*
X5044573Y2791275D1*
X5037410Y2789849D1*
X5033099D1*
X5025936Y2791275D1*
X5021625Y2794160D1*
X5020199Y2798471D1*
Y2801323D1*
X5021625Y2805634D1*
X5025936Y2808486D1*
X5033099Y2809945D1*
X5037410D1*
X5044573Y2808486D1*
X5048884Y2805634D1*
X5050310Y2801323D1*
Y2798471D1*
X5044573Y2808486D2*
X5025936Y2791275D1*
X4976929Y2732992D2*
Y2745892D1*
X4978388Y2750203D1*
X4979814Y2751662D1*
X4982666Y2753088D1*
X4985551D1*
X4988403Y2751662D1*
X4989862Y2750203D1*
X4991288Y2745892D1*
Y2732992D1*
X4961144D1*
X4976929Y2743040D2*
X4961144Y2753088D1*
X4991255Y2769515D2*
X4989829Y2765237D1*
X4986977Y2763778D1*
X4984092D1*
X4981240Y2765237D1*
X4979781Y2768089D1*
X4978355Y2773826D1*
X4976929Y2778137D1*
X4974044Y2780988D1*
X4971192Y2782414D1*
X4966881D1*
X4964029Y2780988D1*
X4962570Y2779563D1*
X4961144Y2775252D1*
Y2769515D1*
X4962570Y2765237D1*
X4964029Y2763778D1*
X4966881Y2762352D1*
X4971192D1*
X4974044Y2763778D1*
X4976929Y2766663D1*
X4978355Y2770940D1*
X4979781Y2776677D1*
X4981240Y2779563D1*
X4984092Y2780988D1*
X4986977D1*
X4989829Y2779563D1*
X4991255Y2775252D1*
Y2769515D1*
X4985518Y2791678D2*
X4986977Y2794563D1*
X4991255Y2798874D1*
X4961144D1*
X4598976Y2510213D2*
Y2523113D1*
X4600436Y2527424D1*
X4601861Y2528883D1*
X4604713Y2530309D1*
X4607598D1*
X4610450Y2528883D1*
X4611909Y2527424D1*
X4613335Y2523113D1*
Y2510213D1*
X4583191D1*
X4598976Y2520261D2*
X4583191Y2530309D1*
X4613302Y2546735D2*
X4611876Y2542457D1*
X4609024Y2540998D1*
X4606139D1*
X4603287Y2542457D1*
X4601828Y2545309D1*
X4600402Y2551046D1*
X4598976Y2555357D1*
X4596091Y2558209D1*
X4593239Y2559635D1*
X4588928D1*
X4586076Y2558209D1*
X4584617Y2556783D1*
X4583191Y2552472D1*
Y2546735D1*
X4584617Y2542457D1*
X4586076Y2540998D1*
X4588928Y2539572D1*
X4593239D1*
X4596091Y2540998D1*
X4598976Y2543883D1*
X4600402Y2548161D1*
X4601828Y2553898D1*
X4603287Y2556783D1*
X4606139Y2558209D1*
X4609024D1*
X4611876Y2556783D1*
X4613302Y2552472D1*
Y2546735D1*
X4606139Y2570358D2*
X4607565D1*
X4610450Y2571784D1*
X4611876Y2573210D1*
X4613302Y2576095D1*
Y2581832D1*
X4611876Y2584684D1*
X4610450Y2586110D1*
X4607565Y2587569D1*
X4604713D1*
X4601828Y2586110D1*
X4597550Y2583258D1*
X4583191Y2568899D1*
Y2588995D1*
X4535984Y2510213D2*
Y2523113D1*
X4537443Y2527424D1*
X4538869Y2528883D1*
X4541721Y2530309D1*
X4544606D1*
X4547458Y2528883D1*
X4548917Y2527424D1*
X4550343Y2523113D1*
Y2510213D1*
X4520199D1*
X4535984Y2520261D2*
X4520199Y2530309D1*
X4550310Y2546735D2*
X4548884Y2542457D1*
X4546032Y2540998D1*
X4543147D1*
X4540295Y2542457D1*
X4538836Y2545309D1*
X4537410Y2551046D1*
X4535984Y2555357D1*
X4533099Y2558209D1*
X4530247Y2559635D1*
X4525936D1*
X4523084Y2558209D1*
X4521625Y2556783D1*
X4520199Y2552472D1*
Y2546735D1*
X4521625Y2542457D1*
X4523084Y2540998D1*
X4525936Y2539572D1*
X4530247D1*
X4533099Y2540998D1*
X4535984Y2543883D1*
X4537410Y2548161D1*
X4538836Y2553898D1*
X4540295Y2556783D1*
X4543147Y2558209D1*
X4546032D1*
X4548884Y2556783D1*
X4550310Y2552472D1*
Y2546735D1*
Y2571784D2*
Y2587536D1*
X4538836Y2578947D1*
Y2583258D1*
X4537410Y2586110D1*
X4535984Y2587536D1*
X4531673Y2588995D1*
X4528821D1*
X4524510Y2587536D1*
X4521625Y2584684D1*
X4520199Y2580373D1*
Y2576062D1*
X4521625Y2571784D1*
X4523084Y2570358D1*
X4525936Y2568899D1*
X4472992Y2509500D2*
Y2522400D1*
X4474451Y2526711D1*
X4475877Y2528170D1*
X4478729Y2529596D1*
X4481614D1*
X4484466Y2528170D1*
X4485925Y2526711D1*
X4487351Y2522400D1*
Y2509500D1*
X4457207D1*
X4472992Y2519548D2*
X4457207Y2529596D1*
X4487318Y2546022D2*
X4485892Y2541744D1*
X4483040Y2540285D1*
X4480155D1*
X4477303Y2541744D1*
X4475844Y2544596D1*
X4474418Y2550333D1*
X4472992Y2554644D1*
X4470107Y2557496D1*
X4467255Y2558922D1*
X4462944D1*
X4460092Y2557496D1*
X4458633Y2556070D1*
X4457207Y2551759D1*
Y2546022D1*
X4458633Y2541744D1*
X4460092Y2540285D1*
X4462944Y2538859D1*
X4467255D1*
X4470107Y2540285D1*
X4472992Y2543170D1*
X4474418Y2547448D1*
X4475844Y2553185D1*
X4477303Y2556070D1*
X4480155Y2557496D1*
X4483040D1*
X4485892Y2556070D1*
X4487318Y2551759D1*
Y2546022D1*
X4457207Y2582545D2*
X4487318D1*
X4467255Y2568186D1*
Y2589708D1*
X4410000Y2509483D2*
Y2522383D1*
X4411459Y2526694D1*
X4412885Y2528153D1*
X4415737Y2529579D1*
X4418622D1*
X4421474Y2528153D1*
X4422933Y2526694D1*
X4424359Y2522383D1*
Y2509483D1*
X4394215D1*
X4410000Y2519531D2*
X4394215Y2529579D1*
X4424326Y2546006D2*
X4422900Y2541728D1*
X4420048Y2540269D1*
X4417163D1*
X4414311Y2541728D1*
X4412852Y2544580D1*
X4411426Y2550317D1*
X4410000Y2554628D1*
X4407115Y2557479D1*
X4404263Y2558905D1*
X4399952D1*
X4397100Y2557479D1*
X4395641Y2556054D1*
X4394215Y2551743D1*
Y2546006D1*
X4395641Y2541728D1*
X4397100Y2540269D1*
X4399952Y2538843D1*
X4404263D1*
X4407115Y2540269D1*
X4410000Y2543154D1*
X4411426Y2547431D1*
X4412852Y2553168D1*
X4414311Y2556054D1*
X4417163Y2557479D1*
X4420048D1*
X4422900Y2556054D1*
X4424326Y2551743D1*
Y2546006D1*
Y2585380D2*
Y2571054D1*
X4411426Y2569628D1*
X4412852Y2571054D1*
X4414311Y2575365D1*
Y2579643D1*
X4412852Y2583954D1*
X4410000Y2586839D1*
X4405689Y2588265D1*
X4402837D1*
X4398526Y2586839D1*
X4395641Y2583954D1*
X4394215Y2579643D1*
Y2575365D1*
X4395641Y2571054D1*
X4397100Y2569628D1*
X4399952Y2568169D1*
X4345039Y2510213D2*
Y2523113D1*
X4346499Y2527424D1*
X4347924Y2528883D1*
X4350776Y2530309D1*
X4353661D1*
X4356513Y2528883D1*
X4357972Y2527424D1*
X4359398Y2523113D1*
Y2510213D1*
X4329254D1*
X4345039Y2520261D2*
X4329254Y2530309D1*
X4359365Y2546735D2*
X4357939Y2542457D1*
X4355087Y2540998D1*
X4352202D1*
X4349350Y2542457D1*
X4347891Y2545309D1*
X4346465Y2551046D1*
X4345039Y2555357D1*
X4342154Y2558209D1*
X4339302Y2559635D1*
X4334991D1*
X4332139Y2558209D1*
X4330680Y2556783D1*
X4329254Y2552472D1*
Y2546735D1*
X4330680Y2542457D1*
X4332139Y2540998D1*
X4334991Y2539572D1*
X4339302D1*
X4342154Y2540998D1*
X4345039Y2543883D1*
X4346465Y2548161D1*
X4347891Y2553898D1*
X4349350Y2556783D1*
X4352202Y2558209D1*
X4355087D1*
X4357939Y2556783D1*
X4359365Y2552472D1*
Y2546735D1*
X4355087Y2586109D2*
X4357939Y2584684D1*
X4359365Y2580372D1*
Y2577521D1*
X4357939Y2573210D1*
X4353628Y2570324D1*
X4346465Y2568899D1*
X4339302D1*
X4333565Y2570324D1*
X4330680Y2573210D1*
X4329254Y2577521D1*
Y2578947D1*
X4330680Y2583224D1*
X4333565Y2586109D1*
X4337876Y2587535D1*
X4339302D1*
X4343613Y2586109D1*
X4346465Y2583224D1*
X4347891Y2578947D1*
Y2577521D1*
X4346465Y2573210D1*
X4343613Y2570324D1*
X4339302Y2568899D1*
X4281543Y2510213D2*
Y2523113D1*
X4283002Y2527424D1*
X4284428Y2528883D1*
X4287280Y2530309D1*
X4290165D1*
X4293017Y2528883D1*
X4294476Y2527424D1*
X4295902Y2523113D1*
Y2510213D1*
X4265758D1*
X4281543Y2520261D2*
X4265758Y2530309D1*
X4295869Y2546735D2*
X4294443Y2542457D1*
X4291591Y2540998D1*
X4288706D1*
X4285854Y2542457D1*
X4284395Y2545309D1*
X4282969Y2551046D1*
X4281543Y2555357D1*
X4278658Y2558209D1*
X4275806Y2559635D1*
X4271495D1*
X4268643Y2558209D1*
X4267184Y2556783D1*
X4265758Y2552472D1*
Y2546735D1*
X4267184Y2542457D1*
X4268643Y2540998D1*
X4271495Y2539572D1*
X4275806D1*
X4278658Y2540998D1*
X4281543Y2543883D1*
X4282969Y2548161D1*
X4284395Y2553898D1*
X4285854Y2556783D1*
X4288706Y2558209D1*
X4291591D1*
X4294443Y2556783D1*
X4295869Y2552472D1*
Y2546735D1*
X4265758Y2574636D2*
X4295869Y2588995D1*
Y2568899D1*
X3161969Y2731567D2*
Y2744466D1*
X3163428Y2748777D1*
X3164854Y2750237D1*
X3167705Y2751663D1*
X3170591D1*
X3173442Y2750237D1*
X3174902Y2748777D1*
X3176328Y2744466D1*
Y2731567D1*
X3146184D1*
X3161969Y2741615D2*
X3146184Y2751663D1*
X3176294Y2768089D2*
X3174868Y2763811D1*
X3172017Y2762352D1*
X3169131D1*
X3166280Y2763811D1*
X3164820Y2766663D1*
X3163394Y2772400D1*
X3161969Y2776711D1*
X3159083Y2779563D1*
X3156232Y2780989D1*
X3151921D1*
X3149069Y2779563D1*
X3147609Y2778137D1*
X3146184Y2773826D1*
Y2768089D1*
X3147609Y2763811D1*
X3149069Y2762352D1*
X3151921Y2760926D1*
X3156232D1*
X3159083Y2762352D1*
X3161969Y2765237D1*
X3163394Y2769515D1*
X3164820Y2775252D1*
X3166280Y2778137D1*
X3169131Y2779563D1*
X3172017D1*
X3174868Y2778137D1*
X3176294Y2773826D1*
Y2768089D1*
Y2797415D2*
X3174868Y2793138D1*
X3172017Y2791678D1*
X3169131D1*
X3166280Y2793138D1*
X3164820Y2795989D1*
X3163394Y2801726D1*
X3161969Y2806037D1*
X3159083Y2808889D1*
X3156232Y2810315D1*
X3151921D1*
X3149069Y2808889D1*
X3147609Y2807463D1*
X3146184Y2803152D1*
Y2797415D1*
X3147609Y2793138D1*
X3149069Y2791678D1*
X3151921Y2790252D1*
X3156232D1*
X3159083Y2791678D1*
X3161969Y2794564D1*
X3163394Y2798841D1*
X3164820Y2804578D1*
X3166280Y2807463D1*
X3169131Y2808889D1*
X3172017D1*
X3174868Y2807463D1*
X3176294Y2803152D1*
Y2797415D1*
X3102409Y2732263D2*
Y2745163D1*
X3103869Y2749474D1*
X3105295Y2750933D1*
X3108146Y2752359D1*
X3111032D1*
X3113883Y2750933D1*
X3115343Y2749474D1*
X3116768Y2745163D1*
Y2732263D1*
X3086624D1*
X3102409Y2742311D2*
X3086624Y2752359D1*
X3116735Y2768785D2*
X3115309Y2764508D1*
X3112457Y2763048D1*
X3109572D1*
X3106720Y2764508D1*
X3105261Y2767359D1*
X3103835Y2773096D1*
X3102409Y2777407D1*
X3099524Y2780259D1*
X3096672Y2781685D1*
X3092361D1*
X3089510Y2780259D1*
X3088050Y2778833D1*
X3086624Y2774522D1*
Y2768785D1*
X3088050Y2764508D1*
X3089510Y2763048D1*
X3092361Y2761623D1*
X3096672D1*
X3099524Y2763048D1*
X3102409Y2765934D1*
X3103835Y2770211D1*
X3105261Y2775948D1*
X3106720Y2778833D1*
X3109572Y2780259D1*
X3112457D1*
X3115309Y2778833D1*
X3116735Y2774522D1*
Y2768785D1*
X3106720Y2809619D2*
X3102409Y2808160D1*
X3099524Y2805308D1*
X3098098Y2800997D1*
Y2799571D1*
X3099524Y2795260D1*
X3102409Y2792408D1*
X3106720Y2790949D1*
X3108146D1*
X3112457Y2792408D1*
X3115309Y2795260D1*
X3116735Y2799571D1*
Y2800997D1*
X3115309Y2805308D1*
X3112457Y2808160D1*
X3106720Y2809619D1*
X3099524D1*
X3092361Y2808160D1*
X3088050Y2805308D1*
X3086624Y2800997D1*
Y2798145D1*
X3088050Y2793834D1*
X3090936Y2792408D1*
X2724961Y2513031D2*
Y2525931D1*
X2726420Y2530242D1*
X2727846Y2531701D1*
X2730698Y2533127D1*
X2733583D1*
X2736435Y2531701D1*
X2737894Y2530242D1*
X2739320Y2525931D1*
Y2513031D1*
X2709176D1*
X2724961Y2523079D2*
X2709176Y2533127D1*
X2729272Y2561061D2*
X2724961Y2559602D1*
X2722076Y2556750D1*
X2720650Y2552439D1*
Y2551013D1*
X2722076Y2546702D1*
X2724961Y2543850D1*
X2729272Y2542391D1*
X2730698D1*
X2735009Y2543850D1*
X2737861Y2546702D1*
X2739287Y2551013D1*
Y2552439D1*
X2737861Y2556750D1*
X2735009Y2559602D1*
X2729272Y2561061D1*
X2722076D1*
X2714913Y2559602D1*
X2710602Y2556750D1*
X2709176Y2552439D1*
Y2549587D1*
X2710602Y2545276D1*
X2713487Y2543850D1*
X2739287Y2578946D2*
X2737861Y2574635D1*
X2733550Y2571750D1*
X2726387Y2570324D1*
X2722076D1*
X2714913Y2571750D1*
X2710602Y2574635D1*
X2709176Y2578946D1*
Y2581798D1*
X2710602Y2586109D1*
X2714913Y2588961D1*
X2722076Y2590420D1*
X2726387D1*
X2733550Y2588961D1*
X2737861Y2586109D1*
X2739287Y2581798D1*
Y2578946D1*
X2733550Y2588961D2*
X2714913Y2571750D1*
X2658537Y2512334D2*
Y2525234D1*
X2659996Y2529545D1*
X2661422Y2531004D1*
X2664274Y2532430D1*
X2667159D1*
X2670011Y2531004D1*
X2671470Y2529545D1*
X2672896Y2525234D1*
Y2512334D1*
X2642752D1*
X2658537Y2522382D2*
X2642752Y2532430D1*
X2662848Y2560364D2*
X2658537Y2558905D1*
X2655652Y2556053D1*
X2654226Y2551742D1*
Y2550316D1*
X2655652Y2546005D1*
X2658537Y2543153D1*
X2662848Y2541694D1*
X2664274D1*
X2668585Y2543153D1*
X2671437Y2546005D1*
X2672863Y2550316D1*
Y2551742D1*
X2671437Y2556053D1*
X2668585Y2558905D1*
X2662848Y2560364D1*
X2655652D1*
X2648489Y2558905D1*
X2644178Y2556053D1*
X2642752Y2551742D1*
Y2548890D1*
X2644178Y2544579D1*
X2647063Y2543153D1*
X2667126Y2569627D2*
X2668585Y2572512D1*
X2672863Y2576823D1*
X2642752D1*
X2598976Y2513031D2*
Y2525931D1*
X2600436Y2530242D1*
X2601861Y2531701D1*
X2604713Y2533127D1*
X2607598D1*
X2610450Y2531701D1*
X2611909Y2530242D1*
X2613335Y2525931D1*
Y2513031D1*
X2583191D1*
X2598976Y2523079D2*
X2583191Y2533127D1*
X2603287Y2561061D2*
X2598976Y2559602D1*
X2596091Y2556750D1*
X2594665Y2552439D1*
Y2551013D1*
X2596091Y2546702D1*
X2598976Y2543850D1*
X2603287Y2542391D1*
X2604713D1*
X2609024Y2543850D1*
X2611876Y2546702D1*
X2613302Y2551013D1*
Y2552439D1*
X2611876Y2556750D1*
X2609024Y2559602D1*
X2603287Y2561061D1*
X2596091D1*
X2588928Y2559602D1*
X2584617Y2556750D1*
X2583191Y2552439D1*
Y2549587D1*
X2584617Y2545276D1*
X2587502Y2543850D1*
X2606139Y2571783D2*
X2607565D1*
X2610450Y2573209D1*
X2611876Y2574635D1*
X2613302Y2577520D1*
Y2583257D1*
X2611876Y2586109D1*
X2610450Y2587535D1*
X2607565Y2588994D1*
X2604713D1*
X2601828Y2587535D1*
X2597550Y2584683D1*
X2583191Y2570324D1*
Y2590420D1*
X2535984Y2513031D2*
Y2525931D1*
X2537443Y2530242D1*
X2538869Y2531701D1*
X2541721Y2533127D1*
X2544606D1*
X2547458Y2531701D1*
X2548917Y2530242D1*
X2550343Y2525931D1*
Y2513031D1*
X2520199D1*
X2535984Y2523079D2*
X2520199Y2533127D1*
X2540295Y2561061D2*
X2535984Y2559602D1*
X2533099Y2556750D1*
X2531673Y2552439D1*
Y2551013D1*
X2533099Y2546702D1*
X2535984Y2543850D1*
X2540295Y2542391D1*
X2541721D1*
X2546032Y2543850D1*
X2548884Y2546702D1*
X2550310Y2551013D1*
Y2552439D1*
X2548884Y2556750D1*
X2546032Y2559602D1*
X2540295Y2561061D1*
X2533099D1*
X2525936Y2559602D1*
X2521625Y2556750D1*
X2520199Y2552439D1*
Y2549587D1*
X2521625Y2545276D1*
X2524510Y2543850D1*
X2550310Y2573209D2*
Y2588961D1*
X2538836Y2580372D1*
Y2584683D1*
X2537410Y2587535D1*
X2535984Y2588961D1*
X2531673Y2590420D1*
X2528821D1*
X2524510Y2588961D1*
X2521625Y2586109D1*
X2520199Y2581798D1*
Y2577487D1*
X2521625Y2573209D1*
X2523084Y2571783D1*
X2525936Y2570324D1*
X2472992Y2512318D2*
Y2525218D1*
X2474451Y2529529D1*
X2475877Y2530988D1*
X2478729Y2532414D1*
X2481614D1*
X2484466Y2530988D1*
X2485925Y2529529D1*
X2487351Y2525218D1*
Y2512318D1*
X2457207D1*
X2472992Y2522366D2*
X2457207Y2532414D1*
X2477303Y2560348D2*
X2472992Y2558889D1*
X2470107Y2556037D1*
X2468681Y2551726D1*
Y2550300D1*
X2470107Y2545989D1*
X2472992Y2543137D1*
X2477303Y2541678D1*
X2478729D1*
X2483040Y2543137D1*
X2485892Y2545989D1*
X2487318Y2550300D1*
Y2551726D1*
X2485892Y2556037D1*
X2483040Y2558889D1*
X2477303Y2560348D1*
X2470107D1*
X2462944Y2558889D1*
X2458633Y2556037D1*
X2457207Y2551726D1*
Y2548874D1*
X2458633Y2544563D1*
X2461518Y2543137D1*
X2457207Y2583970D2*
X2487318D1*
X2467255Y2569611D1*
Y2591133D1*
X2410000Y2510179D2*
Y2523079D1*
X2411459Y2527390D1*
X2412885Y2528849D1*
X2415737Y2530275D1*
X2418622D1*
X2421474Y2528849D1*
X2422933Y2527390D1*
X2424359Y2523079D1*
Y2510179D1*
X2394215D1*
X2410000Y2520227D2*
X2394215Y2530275D1*
X2414311Y2558209D2*
X2410000Y2556750D1*
X2407115Y2553898D1*
X2405689Y2549587D1*
Y2548161D1*
X2407115Y2543850D1*
X2410000Y2540998D1*
X2414311Y2539539D1*
X2415737D1*
X2420048Y2540998D1*
X2422900Y2543850D1*
X2424326Y2548161D1*
Y2549587D1*
X2422900Y2553898D1*
X2420048Y2556750D1*
X2414311Y2558209D1*
X2407115D1*
X2399952Y2556750D1*
X2395641Y2553898D1*
X2394215Y2549587D1*
Y2546735D1*
X2395641Y2542424D1*
X2398526Y2540998D1*
X2424326Y2584684D2*
Y2570358D1*
X2411426Y2568932D1*
X2412852Y2570358D1*
X2414311Y2574669D1*
Y2578947D1*
X2412852Y2583258D1*
X2410000Y2586143D1*
X2405689Y2587569D1*
X2402837D1*
X2398526Y2586143D1*
X2395641Y2583258D1*
X2394215Y2578947D1*
Y2574669D1*
X2395641Y2570358D1*
X2397100Y2568932D1*
X2399952Y2567473D1*
X1272205Y2732976D2*
Y2745876D1*
X1273664Y2750187D1*
X1275090Y2751646D1*
X1277942Y2753072D1*
X1280827D1*
X1283679Y2751646D1*
X1285138Y2750187D1*
X1286564Y2745876D1*
Y2732976D1*
X1256420D1*
X1272205Y2743024D2*
X1256420Y2753072D1*
X1276516Y2781006D2*
X1272205Y2779546D1*
X1269320Y2776695D1*
X1267894Y2772383D1*
Y2770958D1*
X1269320Y2766647D1*
X1272205Y2763795D1*
X1276516Y2762335D1*
X1277942D1*
X1282253Y2763795D1*
X1285105Y2766647D1*
X1286531Y2770958D1*
Y2772383D1*
X1285105Y2776695D1*
X1282253Y2779546D1*
X1276516Y2781006D1*
X1269320D1*
X1262157Y2779546D1*
X1257846Y2776695D1*
X1256420Y2772383D1*
Y2769532D1*
X1257846Y2765221D1*
X1260731Y2763795D1*
X1282253Y2807480D2*
X1285105Y2806054D1*
X1286531Y2801743D1*
Y2798891D1*
X1285105Y2794580D1*
X1280794Y2791695D1*
X1273631Y2790269D1*
X1266468D1*
X1260731Y2791695D1*
X1257846Y2794580D1*
X1256420Y2798891D1*
Y2800317D1*
X1257846Y2804595D1*
X1260731Y2807480D1*
X1265042Y2808906D1*
X1266468D1*
X1270779Y2807480D1*
X1273631Y2804595D1*
X1275057Y2800317D1*
Y2798891D1*
X1273631Y2794580D1*
X1270779Y2791695D1*
X1266468Y2790269D1*
X1212646Y2732246D2*
Y2745146D1*
X1214105Y2749457D1*
X1215531Y2750916D1*
X1218383Y2752342D1*
X1221268D1*
X1224120Y2750916D1*
X1225579Y2749457D1*
X1227005Y2745146D1*
Y2732246D1*
X1196861D1*
X1212646Y2742294D2*
X1196861Y2752342D1*
X1216957Y2780276D2*
X1212646Y2778817D1*
X1209761Y2775965D1*
X1208335Y2771654D1*
Y2770228D1*
X1209761Y2765917D1*
X1212646Y2763065D1*
X1216957Y2761606D1*
X1218383D1*
X1222694Y2763065D1*
X1225546Y2765917D1*
X1226972Y2770228D1*
Y2771654D1*
X1225546Y2775965D1*
X1222694Y2778817D1*
X1216957Y2780276D1*
X1209761D1*
X1202598Y2778817D1*
X1198287Y2775965D1*
X1196861Y2771654D1*
Y2768802D1*
X1198287Y2764491D1*
X1201172Y2763065D1*
X1196861Y2795276D2*
X1226972Y2809636D1*
Y2789540D1*
X835197Y2515899D2*
Y2528799D1*
X836656Y2533110D1*
X838082Y2534569D1*
X840934Y2535995D1*
X843819D1*
X846671Y2534569D1*
X848130Y2533110D1*
X849556Y2528799D1*
Y2515899D1*
X819412D1*
X835197Y2525947D2*
X819412Y2535995D1*
X839508Y2563929D2*
X835197Y2562470D1*
X832312Y2559618D1*
X830886Y2555307D1*
Y2553881D1*
X832312Y2549570D1*
X835197Y2546718D1*
X839508Y2545259D1*
X840934D1*
X845245Y2546718D1*
X848097Y2549570D1*
X849523Y2553881D1*
Y2555307D1*
X848097Y2559618D1*
X845245Y2562470D1*
X839508Y2563929D1*
X832312D1*
X825149Y2562470D1*
X820838Y2559618D1*
X819412Y2555307D1*
Y2552455D1*
X820838Y2548144D1*
X823723Y2546718D1*
X849523Y2580356D2*
X848097Y2576078D1*
X845245Y2574619D1*
X842360D1*
X839508Y2576078D1*
X838049Y2578930D1*
X836623Y2584667D1*
X835197Y2588978D1*
X832312Y2591829D1*
X829460Y2593255D1*
X825149D1*
X822297Y2591829D1*
X820838Y2590404D1*
X819412Y2586092D1*
Y2580356D1*
X820838Y2576078D1*
X822297Y2574619D1*
X825149Y2573193D1*
X829460D1*
X832312Y2574619D1*
X835197Y2577504D1*
X836623Y2581781D1*
X838049Y2587518D1*
X839508Y2590404D1*
X842360Y2591829D1*
X845245D1*
X848097Y2590404D1*
X849523Y2586092D1*
Y2580356D1*
X770236Y2512659D2*
Y2525559D1*
X771695Y2529870D1*
X773121Y2531329D1*
X775973Y2532755D1*
X778858D1*
X781710Y2531329D1*
X783169Y2529870D1*
X784595Y2525559D1*
Y2512659D1*
X754451D1*
X770236Y2522707D2*
X754451Y2532755D1*
X774547Y2560688D2*
X770236Y2559229D1*
X767351Y2556377D1*
X765925Y2552066D1*
Y2550640D1*
X767351Y2546329D1*
X770236Y2543477D1*
X774547Y2542018D1*
X775973D1*
X780284Y2543477D1*
X783136Y2546329D1*
X784562Y2550640D1*
Y2552066D1*
X783136Y2556377D1*
X780284Y2559229D1*
X774547Y2560688D1*
X767351D1*
X760188Y2559229D1*
X755877Y2556377D1*
X754451Y2552066D1*
Y2549214D1*
X755877Y2544903D1*
X758762Y2543477D1*
X774547Y2588622D2*
X770236Y2587163D1*
X767351Y2584311D1*
X765925Y2580000D1*
Y2578574D1*
X767351Y2574263D1*
X770236Y2571411D1*
X774547Y2569952D1*
X775973D1*
X780284Y2571411D1*
X783136Y2574263D1*
X784562Y2578574D1*
Y2580000D1*
X783136Y2584311D1*
X780284Y2587163D1*
X774547Y2588622D1*
X767351D1*
X760188Y2587163D1*
X755877Y2584311D1*
X754451Y2580000D1*
Y2577148D1*
X755877Y2572837D1*
X758762Y2571411D1*
X709213Y2497996D2*
Y2510896D1*
X710672Y2515207D1*
X712098Y2516667D1*
X714950Y2518092D1*
X717835D1*
X720687Y2516667D1*
X722146Y2515207D1*
X723572Y2510896D1*
Y2497996D1*
X693428D1*
X709213Y2508044D2*
X693428Y2518092D1*
X717802Y2527356D2*
X719261Y2530241D1*
X723538Y2534552D1*
X693428D1*
X723538Y2552438D2*
X722113Y2548127D1*
X717802Y2545242D1*
X710639Y2543816D1*
X706328D1*
X699165Y2545242D1*
X694854Y2548127D1*
X693428Y2552438D1*
Y2555290D1*
X694854Y2559601D1*
X699165Y2562453D1*
X706328Y2563912D1*
X710639D1*
X717802Y2562453D1*
X722113Y2559601D1*
X723538Y2555290D1*
Y2552438D1*
X717802Y2562453D2*
X699165Y2545242D1*
X723538Y2581797D2*
X722113Y2577486D1*
X717802Y2574601D1*
X710639Y2573175D1*
X706328D1*
X699165Y2574601D1*
X694854Y2577486D1*
X693428Y2581797D1*
Y2584649D1*
X694854Y2588960D1*
X699165Y2591812D1*
X706328Y2593271D1*
X710639D1*
X717802Y2591812D1*
X722113Y2588960D1*
X723538Y2584649D1*
Y2581797D1*
X717802Y2591812D2*
X699165Y2574601D1*
X645717Y2497996D2*
Y2510896D1*
X647176Y2515207D1*
X648602Y2516666D1*
X651454Y2518092D1*
X654339D1*
X657191Y2516666D1*
X658650Y2515207D1*
X660076Y2510896D1*
Y2497996D1*
X629932D1*
X645717Y2508044D2*
X629932Y2518092D1*
X654305Y2527356D2*
X655765Y2530241D1*
X660042Y2534552D1*
X629932D1*
X660042Y2552438D2*
X658616Y2548127D1*
X654305Y2545241D1*
X647143Y2543816D1*
X642831D1*
X635669Y2545241D1*
X631358Y2548127D1*
X629932Y2552438D1*
Y2555289D1*
X631358Y2559600D1*
X635669Y2562452D1*
X642831Y2563912D1*
X647143D1*
X654305Y2562452D1*
X658616Y2559600D1*
X660042Y2555289D1*
Y2552438D1*
X654305Y2562452D2*
X635669Y2545241D1*
X654305Y2573175D2*
X655765Y2576060D1*
X660042Y2580371D1*
X629932D1*
X579291Y2496587D2*
Y2509487D1*
X580750Y2513798D1*
X582176Y2515257D1*
X585028Y2516683D1*
X587913D1*
X590765Y2515257D1*
X592224Y2513798D1*
X593650Y2509487D1*
Y2496587D1*
X563506D1*
X579291Y2506635D2*
X563506Y2516683D1*
X587880Y2525947D2*
X589339Y2528832D1*
X593617Y2533143D1*
X563506D1*
X593617Y2551028D2*
X592191Y2546717D1*
X587880Y2543832D1*
X580717Y2542406D1*
X576406D1*
X569243Y2543832D1*
X564932Y2546717D1*
X563506Y2551028D1*
Y2553880D1*
X564932Y2558191D1*
X569243Y2561043D1*
X576406Y2562502D1*
X580717D1*
X587880Y2561043D1*
X592191Y2558191D1*
X593617Y2553880D1*
Y2551028D1*
X587880Y2561043D2*
X569243Y2543832D1*
X586454Y2573225D2*
X587880D1*
X590765Y2574651D1*
X592191Y2576077D1*
X593617Y2578962D1*
Y2584699D1*
X592191Y2587551D1*
X590765Y2588977D1*
X587880Y2590436D1*
X585028D1*
X582143Y2588977D1*
X577865Y2586125D1*
X563506Y2571766D1*
Y2591862D1*
X514331Y2496587D2*
Y2509487D1*
X515790Y2513798D1*
X517216Y2515257D1*
X520068Y2516683D1*
X522953D1*
X525805Y2515257D1*
X527264Y2513798D1*
X528690Y2509487D1*
Y2496587D1*
X498546D1*
X514331Y2506635D2*
X498546Y2516683D1*
X522920Y2525947D2*
X524379Y2528832D1*
X528657Y2533143D1*
X498546D1*
X528657Y2551028D2*
X527231Y2546717D1*
X522920Y2543832D1*
X515757Y2542406D1*
X511446D1*
X504283Y2543832D1*
X499972Y2546717D1*
X498546Y2551028D1*
Y2553880D1*
X499972Y2558191D1*
X504283Y2561043D1*
X511446Y2562502D1*
X515757D1*
X522920Y2561043D1*
X527231Y2558191D1*
X528657Y2553880D1*
Y2551028D1*
X522920Y2561043D2*
X504283Y2543832D1*
X528657Y2574651D2*
Y2590403D1*
X517183Y2581814D1*
Y2586125D1*
X515757Y2588977D1*
X514331Y2590403D1*
X510020Y2591862D1*
X507168D1*
X502857Y2590403D1*
X499972Y2587551D1*
X498546Y2583240D1*
Y2578929D1*
X499972Y2574651D1*
X501431Y2573225D1*
X504283Y2571766D1*
X5411970Y3082812D2*
X5411969Y3095712D1*
X5413428Y3100023D1*
X5414854Y3101483D1*
X5417706Y3102909D1*
X5420591D1*
X5423443Y3101483D1*
X5424902Y3100024D1*
X5426328Y3095713D1*
X5426329Y3082813D1*
X5396185Y3082812D1*
X5411970Y3092860D2*
X5396184Y3102908D1*
X5420558Y3112172D2*
X5422017Y3115057D1*
X5426295Y3119368D1*
X5396184D1*
X5426294Y3137254D2*
X5424868Y3132943D1*
X5420557Y3130058D1*
X5413395Y3128632D1*
X5409084D1*
X5401921Y3130057D1*
X5397609Y3132942D1*
X5396183Y3137253D1*
Y3140105D1*
X5397609Y3144416D1*
X5401920Y3147268D1*
X5409083Y3148728D1*
X5413394D1*
X5420557Y3147269D1*
X5424868Y3144417D1*
X5426294Y3140106D1*
Y3137254D1*
X5420557Y3147269D2*
X5401921Y3130057D1*
X5396182Y3172350D2*
X5426293Y3172351D1*
X5406231Y3157991D1*
X5406230Y3179513D1*
X5347009Y3083525D2*
Y3096425D1*
X5348468Y3100736D1*
X5349894Y3102196D1*
X5352746Y3103622D1*
X5355631D1*
X5358483Y3102196D1*
X5359942Y3100737D1*
X5361368Y3096426D1*
Y3083526D1*
X5331224Y3083525D1*
X5347009Y3093573D2*
X5331224Y3103621D1*
X5355597Y3112885D2*
X5357056Y3115770D1*
X5361334Y3120081D1*
X5331223D1*
X5361334Y3137967D2*
X5359908Y3133656D1*
X5355597Y3130771D1*
X5348434Y3129345D1*
X5344123D1*
X5336960Y3130770D1*
X5332649Y3133655D1*
X5331223Y3137966D1*
Y3140818D1*
X5332649Y3145129D1*
X5336959Y3147981D1*
X5344122Y3149441D1*
X5348433D1*
X5355596Y3147982D1*
X5359907Y3145130D1*
X5361334Y3140819D1*
Y3137967D1*
X5355596Y3147982D2*
X5336960Y3130770D1*
X5361333Y3175915D2*
Y3161590D1*
X5348433Y3160163D1*
X5349859Y3161589D1*
X5351318Y3165900D1*
Y3170178D1*
X5349859Y3174489D1*
X5347007Y3177374D1*
X5342696Y3178800D1*
X5339844D1*
X5335533Y3177374D1*
X5332648Y3174489D1*
X5331222Y3170178D1*
Y3165900D1*
X5332648Y3161589D1*
X5334107Y3160163D1*
X5336959Y3158704D1*
X2388716Y2258425D2*
X2375816D1*
X2371505Y2259884D1*
X2370046Y2261310D1*
X2368620Y2264162D1*
Y2267047D1*
X2370046Y2269899D1*
X2371505Y2271358D1*
X2375816Y2272784D1*
X2388716D1*
Y2242640D1*
X2378668Y2258425D2*
X2368620Y2242640D1*
X2359357Y2267014D2*
X2356472Y2268473D1*
X2352161Y2272751D1*
Y2242640D1*
X2334275Y2272751D2*
X2338586Y2271325D1*
X2341471Y2267014D1*
X2342897Y2259851D1*
Y2255540D1*
X2341471Y2248377D1*
X2338586Y2244066D1*
X2334275Y2242640D1*
X2331423D1*
X2327112Y2244066D1*
X2324260Y2248377D1*
X2322801Y2255540D1*
Y2259851D1*
X2324260Y2267014D1*
X2327112Y2271325D1*
X2331423Y2272751D1*
X2334275D1*
X2324260Y2267014D2*
X2341471Y2248377D1*
X2296327Y2268473D2*
X2297752Y2271325D1*
X2302064Y2272751D1*
X2304915D1*
X2309226Y2271325D1*
X2312112Y2267014D1*
X2313537Y2259851D1*
Y2252688D1*
X2312112Y2246951D1*
X2309226Y2244066D1*
X2304915Y2242640D1*
X2303489D1*
X2299212Y2244066D1*
X2296327Y2246951D1*
X2294901Y2251262D1*
Y2252688D1*
X2296327Y2256999D1*
X2299212Y2259851D1*
X2303489Y2261277D1*
X2304915D1*
X2309226Y2259851D1*
X2312112Y2256999D1*
X2313537Y2252688D1*
X2388716Y2195433D2*
X2375816D1*
X2371505Y2196892D1*
X2370046Y2198318D1*
X2368620Y2201170D1*
Y2204055D1*
X2370046Y2206907D1*
X2371505Y2208366D1*
X2375816Y2209792D1*
X2388716D1*
Y2179648D1*
X2378668Y2195433D2*
X2368620Y2179648D1*
X2359357Y2204022D2*
X2356471Y2205481D1*
X2352160Y2209759D1*
Y2179648D1*
X2334275Y2209759D2*
X2338586Y2208333D1*
X2341471Y2204022D1*
X2342897Y2196859D1*
Y2192548D1*
X2341471Y2185385D1*
X2338586Y2181074D1*
X2334275Y2179648D1*
X2331423D1*
X2327112Y2181074D1*
X2324260Y2185385D1*
X2322801Y2192548D1*
Y2196859D1*
X2324260Y2204022D1*
X2327112Y2208333D1*
X2331423Y2209759D1*
X2334275D1*
X2324260Y2204022D2*
X2341471Y2185385D1*
X2307800Y2179648D2*
X2293441Y2209759D1*
X2313537D1*
X5289922Y2232618D2*
Y2245518D1*
X5291381Y2249829D1*
X5292807Y2251288D1*
X5295658Y2252714D1*
X5298544D1*
X5301395Y2251288D1*
X5302855Y2249829D1*
X5304281Y2245518D1*
Y2232618D1*
X5274137D1*
X5289922Y2242666D2*
X5274137Y2252714D1*
X5298510Y2261978D2*
X5299969Y2264863D1*
X5304247Y2269174D1*
X5274136Y2269173D1*
X5304246Y2287060D2*
X5302821Y2282749D1*
X5298510Y2279863D1*
X5291347Y2278437D1*
X5287036D1*
X5279873Y2279863D1*
X5275562Y2282748D1*
X5274136Y2287059D1*
Y2289911D1*
X5275561Y2294222D1*
X5279872Y2297074D1*
X5287035Y2298533D1*
X5291346D1*
X5298509Y2297074D1*
X5302820Y2294223D1*
X5304246Y2289912D1*
Y2287060D1*
X5298509Y2297074D2*
X5279873Y2279863D1*
X5304246Y2314960D2*
X5302820Y2310682D1*
X5299968Y2309223D1*
X5297083D1*
X5294231Y2310682D1*
X5292772Y2313534D1*
X5291346Y2319271D1*
X5289920Y2323582D1*
X5287035Y2326434D1*
X5284183Y2327860D1*
X5279872Y2327859D1*
X5277020Y2326433D1*
X5275561Y2325007D1*
X5274135Y2320696D1*
Y2314959D1*
X5275561Y2310682D1*
X5277020Y2309222D1*
X5279872Y2307797D1*
X5284183D1*
X5287035Y2309223D1*
X5289920Y2312108D1*
X5291346Y2316386D1*
X5292772Y2322123D1*
X5294231Y2325008D1*
X5297083Y2326434D1*
X5299968D1*
X5302820Y2325008D1*
X5304246Y2320697D1*
Y2314960D1*
X5726328Y3300639D2*
Y3287739D1*
X5724869Y3283428D1*
X5723443Y3281969D1*
X5720591Y3280543D1*
X5717706D1*
X5714854Y3281969D1*
X5713395Y3283428D1*
X5711969Y3287739D1*
Y3300639D1*
X5742113D1*
X5726328Y3290591D2*
X5742113Y3280543D1*
X5717739Y3271279D2*
X5716280Y3268394D1*
X5712003Y3264083D1*
X5742113Y3264084D1*
X5717740Y3254820D2*
X5716281Y3251934D1*
X5712003Y3247623D1*
X5742114Y3247624D1*
X5719166Y3236901D2*
X5717740D1*
X5714855Y3235475D1*
X5713429Y3234049D1*
X5712003Y3231164D1*
Y3225427D1*
X5713429Y3222575D1*
X5714855Y3221149D1*
X5717740Y3219690D1*
X5720592D1*
X5723477Y3221149D1*
X5727755Y3224001D1*
X5742114Y3238360D1*
Y3218264D1*
X5793257Y3302607D2*
Y3289707D1*
X5791798Y3285396D1*
X5790372Y3283937D1*
X5787520Y3282511D1*
X5784635D1*
X5781783Y3283937D1*
X5780324Y3285396D1*
X5778898Y3289707D1*
Y3302607D1*
X5809042Y3302608D1*
X5793257Y3292559D2*
X5809042Y3282512D1*
X5784669Y3273248D2*
X5783209Y3270363D1*
X5778932Y3266051D1*
X5809043Y3266052D1*
X5784669Y3256788D2*
X5783210Y3253903D1*
X5778932Y3249592D1*
X5809043D1*
X5778932Y3237443D2*
X5778933Y3221691D1*
X5790406Y3230280D1*
Y3225969D1*
X5791832Y3223118D1*
X5793258Y3221692D1*
X5797569Y3220233D1*
X5800421D1*
X5804732Y3221692D1*
X5807617Y3224544D1*
X5809043Y3228855D1*
Y3233166D1*
X5807617Y3237444D1*
X5806158Y3238870D1*
X5803306Y3240329D1*
X5862154Y3309771D2*
X5862155Y3296871D1*
X5860696Y3292560D1*
X5859270Y3291100D1*
X5856418Y3289674D1*
X5853533D1*
X5850681Y3291100D1*
X5849222Y3292559D1*
X5847796Y3296870D1*
X5847795Y3309770D1*
X5877939Y3309771D1*
X5862155Y3299723D2*
X5877940Y3289675D1*
X5853566Y3280411D2*
X5852107Y3277526D1*
X5847829Y3273215D1*
X5877940D1*
X5853566Y3263951D2*
X5852107Y3261066D1*
X5847830Y3256755D1*
X5877940Y3256756D1*
X5877941Y3233133D2*
X5847830Y3233132D1*
X5867893Y3247492D1*
Y3225970D1*
X1090592Y2541013D2*
Y2519492D1*
X1089166Y2515180D1*
X1086281Y2512328D1*
X1081970Y2510869D1*
X1079119D1*
X1074807Y2512328D1*
X1071922Y2515180D1*
X1070496Y2519491D1*
Y2541013D1*
X1044021Y2536701D2*
X1045447Y2539553D1*
X1049758Y2540979D1*
X1052610D1*
X1056921Y2539554D1*
X1059806Y2535243D1*
X1061233Y2528080D1*
Y2520917D1*
X1059807Y2515180D1*
X1056922Y2512295D1*
X1052611Y2510869D1*
X1051185D1*
X1046907Y2512294D1*
X1044022Y2515179D1*
X1042596Y2519490D1*
Y2520916D1*
X1044022Y2525227D1*
X1046907Y2528079D1*
X1051185Y2529505D1*
X1052610Y2529506D1*
X1056922Y2528080D1*
X1059807Y2525228D1*
X1061233Y2520917D1*
X2979409Y2542982D2*
X2979410Y2521460D1*
X2977984Y2517149D1*
X2975099Y2514297D1*
X2970788Y2512838D1*
X2967936D1*
X2963625Y2514297D1*
X2960740Y2517149D1*
X2959314Y2521460D1*
X2959313Y2542981D1*
X2944313Y2512837D2*
X2929954Y2542948D1*
X2950050D1*
X4865219Y2541006D2*
X4865220Y2519484D1*
X4863794Y2515173D1*
X4860909Y2512321D1*
X4856598Y2510862D1*
X4853746D1*
X4849435Y2512321D1*
X4846550Y2515172D1*
X4845124Y2519483D1*
X4845123Y2541005D1*
X4828697Y2540972D2*
X4832975Y2539546D1*
X4834434Y2536694D1*
Y2533809D1*
X4832975Y2530957D1*
X4830123Y2529498D1*
X4824386Y2528072D1*
X4820075Y2526646D1*
X4817223Y2523761D1*
X4815798Y2520909D1*
Y2516598D1*
X4817224Y2513746D1*
X4818650Y2512287D1*
X4822961Y2510861D1*
X4828698D1*
X4832975Y2512287D1*
X4834435Y2513746D1*
X4835860Y2516598D1*
Y2520909D1*
X4834434Y2523761D1*
X4831549Y2526646D1*
X4827271Y2528072D1*
X4821534Y2529498D1*
X4818649Y2530957D1*
X4817223Y2533809D1*
Y2536694D1*
X4818649Y2539546D1*
X4822960Y2540972D1*
X4828697D1*
X3527952Y2500627D2*
Y2479105D1*
X3526526Y2474794D1*
X3523641Y2471942D1*
X3519330Y2470483D1*
X3516478D1*
X3512167Y2471942D1*
X3509282Y2474794D1*
X3507856Y2479105D1*
Y2500627D1*
X3479922Y2490579D2*
X3481381Y2486268D1*
X3484233Y2483383D1*
X3488544Y2481957D1*
X3489970D1*
X3494281Y2483383D1*
X3497133Y2486268D1*
X3498592Y2490579D1*
Y2492005D1*
X3497133Y2496316D1*
X3494281Y2499168D1*
X3489970Y2500594D1*
X3488544D1*
X3484233Y2499168D1*
X3481381Y2496316D1*
X3479922Y2490579D1*
Y2483383D1*
X3481381Y2476220D1*
X3484233Y2471909D1*
X3488544Y2470483D1*
X3491396D1*
X3495707Y2471909D1*
X3497133Y2474794D1*
M02*
