G04 DipTrace 4.1.2.0*
G04 2_Layer_Bottom_PMask.gbr*
%MOIN*%
G04 #@! TF.FileFunction,Paste,Bot*
G04 #@! TF.Part,Single*
%AMOUTLINE2*
4,1,28,
-0.012273,0.017716,
0.012272,0.017717,
0.013263,0.017587,
0.014066,0.017254,
0.014755,0.016725,
0.015284,0.016035,
0.015617,0.015232,
0.015747,0.014242,
0.015749,-0.01424,
0.015618,-0.015231,
0.015286,-0.016034,
0.014757,-0.016724,
0.014067,-0.017253,
0.013264,-0.017586,
0.012273,-0.017716,
-0.012272,-0.017717,
-0.013263,-0.017587,
-0.014066,-0.017254,
-0.014755,-0.016725,
-0.015284,-0.016035,
-0.015617,-0.015232,
-0.015747,-0.014242,
-0.015749,0.01424,
-0.015618,0.015231,
-0.015286,0.016034,
-0.014757,0.016724,
-0.014067,0.017253,
-0.013264,0.017586,
-0.012273,0.017716,
0*%
%AMOUTLINE5*
4,1,28,
0.017716,0.012273,
0.017717,-0.012272,
0.017587,-0.013263,
0.017254,-0.014066,
0.016725,-0.014755,
0.016035,-0.015284,
0.015232,-0.015617,
0.014242,-0.015747,
-0.01424,-0.015749,
-0.015231,-0.015618,
-0.016034,-0.015286,
-0.016724,-0.014757,
-0.017253,-0.014067,
-0.017586,-0.013264,
-0.017716,-0.012273,
-0.017717,0.012272,
-0.017587,0.013263,
-0.017254,0.014066,
-0.016725,0.014755,
-0.016035,0.015284,
-0.015232,0.015617,
-0.014242,0.015747,
0.01424,0.015749,
0.015231,0.015618,
0.016034,0.015286,
0.016724,0.014757,
0.017253,0.014067,
0.017586,0.013264,
0.017716,0.012273,
0*%
%AMOUTLINE8*
4,1,28,
-0.017716,-0.012274,
-0.017717,0.012271,
-0.017587,0.013262,
-0.017254,0.014065,
-0.016725,0.014755,
-0.016036,0.015284,
-0.015233,0.015617,
-0.014242,0.015747,
0.01424,0.015749,
0.015231,0.015619,
0.016034,0.015286,
0.016723,0.014757,
0.017253,0.014067,
0.017585,0.013264,
0.017716,0.012274,
0.017717,-0.012271,
0.017587,-0.013262,
0.017254,-0.014065,
0.016725,-0.014755,
0.016036,-0.015284,
0.015233,-0.015617,
0.014242,-0.015747,
-0.01424,-0.015749,
-0.015231,-0.015619,
-0.016034,-0.015286,
-0.016723,-0.014757,
-0.017253,-0.014067,
-0.017585,-0.013264,
-0.017716,-0.012274,
0*%
%AMOUTLINE29*
4,1,28,
0.003809,-0.035433,
-0.003807,-0.035433,
-0.004441,-0.03535,
-0.004912,-0.035155,
-0.005316,-0.034845,
-0.005626,-0.03444,
-0.005821,-0.03397,
-0.005905,-0.033336,
-0.005906,0.033335,
-0.005823,0.03397,
-0.005628,0.03444,
-0.005318,0.034844,
-0.004914,0.035155,
-0.004443,0.035349,
-0.003809,0.035433,
0.003807,0.035433,
0.004441,0.03535,
0.004912,0.035155,
0.005316,0.034845,
0.005626,0.03444,
0.005821,0.03397,
0.005905,0.033336,
0.005906,-0.033335,
0.005823,-0.03397,
0.005628,-0.03444,
0.005318,-0.034844,
0.004914,-0.035155,
0.004443,-0.035349,
0.003809,-0.035433,
0*%
%ADD64R,0.019685X0.114173*%
%ADD71R,0.055118X0.110236*%
%ADD104OUTLINE2*%
%ADD107OUTLINE5*%
%ADD110OUTLINE8*%
%ADD131OUTLINE29*%
%FSLAX26Y26*%
G04*
G70*
G90*
G75*
G01*
G04 BotPaste*
%LPD*%
D104*
X4598425Y2757874D3*
X4531496D3*
X4472441D3*
X4405512D3*
X2724409D3*
X2657480D3*
X2598425D3*
X2531496D3*
X834646D3*
X767717D3*
X708661D3*
X641732D3*
D107*
X5163386Y2627953D3*
Y2694882D3*
X5100394Y2627953D3*
Y2694882D3*
X4911417Y2627953D3*
Y2694882D3*
X4848425Y2627953D3*
Y2694882D3*
X4785433Y2627953D3*
Y2694882D3*
X4722441Y2627953D3*
Y2694882D3*
X4659449Y2627953D3*
Y2694882D3*
X3289370Y2627953D3*
Y2694882D3*
X3226378Y2627953D3*
Y2694882D3*
X3037402Y2627953D3*
Y2694882D3*
X2974409Y2627953D3*
Y2694882D3*
X2911417Y2627953D3*
Y2694882D3*
X2848425Y2627953D3*
Y2694882D3*
X2785433Y2627953D3*
Y2694882D3*
X1399606Y2627953D3*
Y2694882D3*
X1336614Y2627953D3*
Y2694882D3*
X1147638Y2627953D3*
Y2694882D3*
X1084646Y2627953D3*
Y2694882D3*
X1021654Y2627953D3*
Y2694882D3*
X958661Y2627953D3*
Y2694882D3*
X895669Y2627953D3*
Y2694882D3*
D104*
X4429134Y2051181D3*
X4362205D3*
X2555118D3*
X2488189D3*
X665354D3*
X598425D3*
X3574803Y2031496D3*
X3507874D3*
D107*
X5165355Y1696850D3*
X5165353Y1763780D3*
X4740157Y1696850D3*
Y1763780D3*
X3291339Y1696850D3*
X3291338Y1763780D3*
X2866142Y1696850D3*
Y1763780D3*
X1401576Y1696850D3*
X1401574Y1763780D3*
X976378Y1696850D3*
Y1763780D3*
D71*
X5591339Y3834646D3*
X5491339D3*
X5391339D3*
X5291339D3*
X5191339D3*
X5091339D3*
X4991339D3*
X4891339D3*
X4791339D3*
X4692913D3*
X4590551D3*
X4488189D3*
X4389764D3*
X4291339D3*
X1572441Y3771654D3*
X1474016D3*
X1371654D3*
X1269291D3*
X1170866D3*
X1072441D3*
D107*
X3562992Y2980315D3*
X3562990Y3047244D3*
X3500000Y2980315D3*
X3499998Y3047244D3*
X3437007Y2980315D3*
X3437006Y3047244D3*
X3374015Y2980315D3*
X3374014Y3047244D3*
X3244094Y2980315D3*
X3244092Y3047244D3*
X3177165Y2980315D3*
X3177163Y3047244D3*
X4362204Y2976378D3*
X4362203Y3043307D3*
X4295275Y2976378D3*
X4295273Y3043307D3*
X4228346Y2976378D3*
X4228344Y3043307D3*
X4161417Y2976378D3*
X4161415Y3043307D3*
X4094488Y2976378D3*
X4094486Y3043307D3*
X4027559Y2976378D3*
X4027557Y3043307D3*
X3960629Y2976378D3*
X3960628Y3043307D3*
X2488189Y2976378D3*
X2488187Y3043307D3*
X2421259Y2976378D3*
X2421258Y3043307D3*
X2354330Y2976378D3*
X2354329Y3043307D3*
X2287401Y2976378D3*
X2287399Y3043307D3*
X2220472Y2976378D3*
X2220470Y3043307D3*
X2153543Y2976378D3*
X2153541Y3043307D3*
X2086614Y2976378D3*
X2086612Y3043307D3*
X1673228Y2976378D3*
X1673226Y3043307D3*
X1519685Y2976378D3*
X1519683Y3043307D3*
X1452755Y2976378D3*
X1452754Y3043307D3*
X598425Y2976378D3*
X598423Y3043307D3*
X531496Y2976378D3*
X531494Y3043307D3*
X464566Y2976378D3*
X464565Y3043307D3*
X397637Y2976378D3*
X397636Y3043307D3*
X330708Y2976378D3*
X330706Y3043307D3*
X263779Y2976378D3*
X263777Y3043307D3*
X196850Y2976378D3*
X196848Y3043307D3*
X5037402Y2627953D3*
Y2694882D3*
X4974409Y2627953D3*
Y2694882D3*
X4596457Y2627953D3*
Y2694882D3*
X4533465Y2627953D3*
Y2694882D3*
X4470472Y2627953D3*
Y2694882D3*
X4407480Y2627953D3*
Y2694882D3*
X4344488Y2627953D3*
Y2694882D3*
X4281496Y2627953D3*
Y2694882D3*
X3163386Y2627953D3*
Y2694882D3*
X3100394Y2627953D3*
Y2694882D3*
X2722441Y2627953D3*
Y2694882D3*
X2659449Y2627953D3*
Y2694882D3*
X2596457Y2627953D3*
Y2694882D3*
X2533465Y2627953D3*
Y2694882D3*
X2470472Y2627953D3*
Y2694882D3*
X2407480Y2627953D3*
Y2694882D3*
X1273622Y2627953D3*
Y2694882D3*
X1210630Y2627953D3*
Y2694882D3*
X832677Y2627953D3*
Y2694882D3*
X769685Y2627953D3*
Y2694882D3*
X706693Y2627953D3*
Y2694882D3*
X643701Y2627953D3*
Y2694882D3*
X580709Y2627953D3*
Y2694882D3*
X517717Y2627953D3*
Y2694882D3*
X5409449Y2978346D3*
X5409447Y3045276D3*
X5344488Y2978346D3*
X5344486Y3045276D3*
D104*
X2494094Y2255906D3*
X2427165D3*
X2494094Y2192913D3*
X2427165D3*
D107*
X5287401Y2125984D3*
X5287399Y2192913D3*
D110*
X5726377Y3177165D3*
X5726379Y3110236D3*
X5793306Y3177165D3*
X5793308Y3110236D3*
X5860236Y3177165D3*
X5860237Y3110236D3*
D131*
X729921Y2448818D3*
X779921Y2448819D3*
X804921Y2448820D3*
X829921Y2448821D3*
X854921D3*
X879921Y2448822D3*
X904921D3*
X929921Y2448823D3*
X954921D3*
X979921Y2448824D3*
X1004921D3*
X1029921Y2448825D3*
X1054921Y2448826D3*
X1079921D3*
X1129921Y2448827D3*
X1154921Y2448828D3*
X1179921D3*
X754921Y2448819D3*
X1204921Y2448829D3*
X1229921D3*
X1254921Y2448830D3*
X1279921Y2448831D3*
X1304921D3*
X1329921Y2448832D3*
X1354921D3*
X1379921Y2448833D3*
X1404921D3*
X1104921Y2448827D3*
X729929Y2074803D3*
X754929D3*
X779929Y2074804D3*
X804929D3*
X829929Y2074805D3*
X854929D3*
X879929Y2074806D3*
X904929D3*
X929929Y2074807D3*
X954929Y2074808D3*
X979929D3*
X1004929Y2074809D3*
X1029929D3*
X1054929Y2074810D3*
X1079929D3*
X1129929Y2074811D3*
X1154929Y2074812D3*
X1179929Y2074813D3*
X1204929D3*
X1229929Y2074814D3*
X1254929D3*
X1279929Y2074815D3*
X1304929D3*
X1329929Y2074816D3*
X1354929D3*
X1379929Y2074817D3*
X1404929Y2074818D3*
X1104929Y2074811D3*
X2619978Y2448818D3*
X2669978Y2448819D3*
X2694978Y2448820D3*
X2719978Y2448821D3*
X2744978D3*
X2769978Y2448822D3*
X2794978D3*
X2819978Y2448823D3*
X2844978D3*
X2869978Y2448824D3*
X2894978D3*
X2919978Y2448825D3*
X2944978Y2448826D3*
X2969978D3*
X3019978Y2448827D3*
X3044978Y2448828D3*
X3069978D3*
X2644978Y2448819D3*
X3094978Y2448829D3*
X3119978D3*
X3144978Y2448830D3*
X3169978Y2448831D3*
X3194978D3*
X3219978Y2448832D3*
X3244978D3*
X3269978Y2448833D3*
X3294978D3*
X2994978Y2448827D3*
X2619986Y2074803D3*
X2644986D3*
X2669986Y2074804D3*
X2694986D3*
X2719986Y2074805D3*
X2744986D3*
X2769986Y2074806D3*
X2794986D3*
X2819986Y2074807D3*
X2844986Y2074808D3*
X2869986D3*
X2894986Y2074809D3*
X2919986D3*
X2944986Y2074810D3*
X2969986D3*
X3019986Y2074811D3*
X3044986Y2074812D3*
X3069986Y2074813D3*
X3094986D3*
X3119986Y2074814D3*
X3144986D3*
X3169986Y2074815D3*
X3194986D3*
X3219986Y2074816D3*
X3244986D3*
X3269986Y2074817D3*
X3294986Y2074818D3*
X2994986Y2074811D3*
X4493993Y2448812D3*
X4543993Y2448813D3*
X4568993D3*
X4593993Y2448814D3*
X4618993Y2448815D3*
X4643993D3*
X4668993Y2448816D3*
X4693993D3*
X4718993Y2448817D3*
X4743993D3*
X4768993Y2448818D3*
X4793993D3*
X4818993Y2448819D3*
X4843993Y2448820D3*
X4893993Y2448821D3*
X4918993D3*
X4943993Y2448822D3*
X4518993Y2448812D3*
X4968993Y2448822D3*
X4993993Y2448823D3*
X5018993D3*
X5043993Y2448824D3*
X5068993D3*
X5093993Y2448825D3*
X5118993Y2448826D3*
X5143993D3*
X5168993Y2448827D3*
X4868993Y2448820D3*
X4494001Y2074796D3*
X4519001Y2074797D3*
X4544001D3*
X4569001Y2074798D3*
X4594001D3*
X4619001Y2074799D3*
X4644001D3*
X4669001Y2074800D3*
X4694001D3*
X4719001Y2074801D3*
X4744001Y2074802D3*
X4769001D3*
X4794001Y2074803D3*
X4819001D3*
X4844001Y2074804D3*
X4894001Y2074805D3*
X4919001D3*
X4944001Y2074806D3*
X4969001Y2074807D3*
X4994001D3*
X5019001Y2074808D3*
X5044001D3*
X5069001Y2074809D3*
X5094001D3*
X5119001Y2074810D3*
X5144001D3*
X5169001Y2074811D3*
X4869001Y2074804D3*
D64*
X3578740Y2145669D3*
X3528740D3*
X3478740D3*
X3428740D3*
Y2397638D3*
X3478740D3*
X3528740D3*
X3578740D3*
M02*
