M48
INCH
T01C0.0157
T02C0.0191
T03C0.0236
T04C0.0256
T05C0.0354
T06C0.0394
T07C0.0591
T08C0.063
T09C0.0787
T10C0.1378
%
T01
X+059094Y+011378
X+059173Y+010945
X+056101Y+010669
X+056043Y+012087
X+056004Y+013465
X+056023Y+014744
X+056043Y+018150
X+055650Y+019370
X+054134Y+019764
X+053425Y+019764
X+052617Y+019823
X+052618Y+020748
X+051752Y+021575
X+051752Y+021850
X+051752Y+022126
X+051299Y+021693
X+051004Y+021949
X+050374Y+021614
X+050374Y+021339
X+050000Y+021339
X+050000Y+021614
X+049567Y+021594
X+049134Y+021614
X+049134Y+021339
X+048760Y+021339
X+048760Y+021614
X+048130Y+021890
X+047874Y+021535
X+046043Y+021693
X+044469Y+021024
X+044193Y+021024
X+043917Y+021024
X+044881Y+019685
X+045885Y+019685
X+046751Y+020059
X+047657Y+019370
X+047874Y+019587
X+048267Y+018445
X+049134Y+018504
X+049134Y+018780
X+049567Y+018898
X+050000Y+018799
X+050000Y+018504
X+050945Y+018150
X+051417Y+019370
X+051220Y+019567
X+051613Y+023563
X+051004Y+023740
X+050531Y+023661
X+049902Y+023701
X+049469Y+023661
X+048720Y+023819
X+047539Y+023858
X+047303Y+025217
X+047303Y+025531
X+047303Y+025846
X+047815Y+025906
X+047815Y+025630
X+047815Y+025354
X+048996Y+025394
X+049429Y+025394
X+050039Y+025413
X+050413Y+025906
X+051516Y+025551
X+052264Y+026339
X+051319Y+027638
X+049902Y+027598
X+049291Y+028209
X+048681Y+028583
X+049154Y+029488
X+047657Y+029488
X+047303Y+028583
X+046555Y+028583
X+045925Y+028583
X+045965Y+029488
X+045020Y+028150
X+044291Y+029488
X+043169Y+028465
X+042382Y+027677
X+042382Y+026575
X+046555Y+027559
X+047106Y+027559
X+047618Y+027559
X+048091Y+027559
X+046043Y+023819
X+043209Y+019173
X+042992Y+013819
X+043012Y+011535
X+043012Y+009291
X+044350Y+009173
X+046239Y+009488
X+047893Y+009213
X+049567Y+010827
X+049567Y+012087
X+049567Y+013602
X+047637Y+013169
X+047480Y+014606
X+046240Y+011909
X+051594Y+013248
X+051614Y+014331
X+052913Y+011909
X+052972Y+010453
X+051160Y+009272
X+054605Y+008839
X+052361Y+023563
X+037303Y+018150
X+036909Y+019370
X+035394Y+019764
X+034685Y+019764
X+033877Y+019823
X+033878Y+020748
X+033012Y+021575
X+033012Y+021850
X+033012Y+022126
X+032559Y+021693
X+032264Y+021949
X+031634Y+021614
X+031634Y+021339
X+031260Y+021339
X+031260Y+021614
X+030827Y+021594
X+030394Y+021614
X+030394Y+021339
X+030020Y+021339
X+030020Y+021614
X+029390Y+021890
X+029134Y+021535
X+027303Y+021693
X+025728Y+021024
X+025453Y+021024
X+025177Y+021024
X+026141Y+019685
X+027145Y+019685
X+027874Y+019803
X+028917Y+019370
X+029134Y+019587
X+029527Y+018445
X+030394Y+018504
X+030394Y+018780
X+030827Y+018898
X+031260Y+018799
X+031260Y+018504
X+032205Y+018150
X+032677Y+019370
X+032480Y+019567
X+032873Y+023563
X+033386Y+023583
X+032264Y+023740
X+031791Y+023661
X+031161Y+023701
X+030728Y+023661
X+029980Y+023819
X+028799Y+023858
X+028563Y+025217
X+028563Y+025531
X+028563Y+025846
X+029075Y+025906
X+029075Y+025630
X+029075Y+025354
X+030256Y+025394
X+030689Y+025394
X+031299Y+025413
X+031673Y+025906
X+032776Y+025551
X+033524Y+026339
X+032579Y+027638
X+031161Y+027598
X+030551Y+028209
X+029941Y+028583
X+030413Y+029488
X+028917Y+029488
X+028563Y+028583
X+027815Y+028583
X+027185Y+028583
X+027224Y+029488
X+025591Y+029528
X+026280Y+028150
X+027815Y+027559
X+028366Y+027559
X+028878Y+027559
X+029350Y+027559
X+027303Y+023819
X+023642Y+026575
X+023642Y+027677
X+024429Y+028465
X+024469Y+019173
X+024409Y+014173
X+024272Y+011535
X+024528Y+009370
X+025610Y+009173
X+027499Y+009488
X+029153Y+009213
X+030827Y+010827
X+030827Y+012087
X+030827Y+013602
X+028897Y+013169
X+028740Y+014606
X+027499Y+011555
X+032420Y+009272
X+034232Y+010453
X+034173Y+011909
X+032853Y+013248
X+032874Y+014331
X+037282Y+014744
X+037264Y+013465
X+037303Y+012087
X+037361Y+010669
X+035865Y+008839
X+018464Y+010669
X+018406Y+012087
X+018366Y+013465
X+018385Y+014744
X+018406Y+018150
X+018012Y+019370
X+016496Y+019764
X+015787Y+019764
X+014979Y+019823
X+014980Y+020748
X+014114Y+021575
X+014114Y+021850
X+014114Y+022126
X+013661Y+021693
X+013366Y+021949
X+012736Y+021614
X+012736Y+021339
X+012362Y+021339
X+012362Y+021614
X+011929Y+021594
X+011496Y+021614
X+011496Y+021339
X+011122Y+021339
X+011122Y+021614
X+010492Y+021890
X+010236Y+021535
X+008406Y+021693
X+006831Y+021024
X+006555Y+021024
X+006280Y+021024
X+007243Y+019685
X+008247Y+019685
X+009113Y+020059
X+010020Y+019370
X+010236Y+019587
X+010629Y+018445
X+011496Y+018524
X+011496Y+018799
X+011929Y+018898
X+012362Y+018799
X+012362Y+018504
X+013307Y+018150
X+013780Y+019370
X+013583Y+019567
X+012894Y+023661
X+013366Y+023740
X+014094Y+023780
X+014723Y+023563
X+013878Y+025551
X+014626Y+026339
X+013681Y+027638
X+012264Y+027598
X+011654Y+028209
X+011043Y+028583
X+011516Y+029488
X+010020Y+029488
X+009665Y+028583
X+008917Y+028583
X+008287Y+028583
X+008327Y+029488
X+007382Y+028150
X+005945Y+027598
X+004764Y+027520
X+004744Y+026575
X+006063Y+029016
X+008917Y+027559
X+009469Y+027559
X+009980Y+027559
X+010453Y+027559
X+010177Y+025906
X+010177Y+025630
X+010177Y+025354
X+009665Y+025217
X+009665Y+025531
X+009665Y+025846
X+011358Y+025394
X+011791Y+025394
X+012402Y+025413
X+012776Y+025906
X+012264Y+023701
X+011831Y+023661
X+011083Y+023819
X+009902Y+023858
X+008406Y+023819
X+005571Y+019173
X+005335Y+015276
X+005374Y+011535
X+005374Y+009291
X+006713Y+009173
X+008601Y+009488
X+010255Y+009213
X+011929Y+010827
X+011929Y+012087
X+011929Y+013602
X+009999Y+013169
X+009843Y+014606
X+008601Y+011555
X+013523Y+009272
X+015335Y+010453
X+015276Y+011909
X+013956Y+013248
X+013976Y+014331
X+016968Y+008839
T02
X+007047Y+039841
X+005472Y+039801
X+004685Y+039762
X+006569Y+036544
X+006569Y+036044
X+007069Y+036044
X+007069Y+036544
X+007069Y+035544
X+006569Y+035544
T03
X+003681Y+055531
X+004173Y+055591
X+006260Y+053346
X+001634Y+052972
X+004961Y+037872
X+003583Y+037559
X+003189Y+037559
X+003189Y+037165
X+003583Y+037165
X+003583Y+036772
X+003189Y+036772
X+003110Y+034488
X+003583Y+033504
X+003937Y+033150
X+003268Y+032874
X+003976Y+031732
X+004016Y+030945
X+004646Y+030906
X+005276Y+031260
X+005984Y+030984
X+007835Y+030039
X+008228Y+030039
X+008622Y+030039
X+009016Y+030039
X+009409Y+030039
X+012165Y+030551
X+012717Y+030551
X+013268Y+030551
X+013819Y+031654
X+014291Y+031654
X+015945Y+031299
X+016732Y+032717
X+018898Y+030551
X+019331Y+030551
X+019764Y+030551
X+019331Y+028898
X+019331Y+028504
X+019331Y+028110
X+023307Y+032756
X+023780Y+033031
X+022874Y+033189
X+022205Y+034606
X+021575Y+034921
X+020906Y+034921
X+019567Y+036142
X+016575Y+035945
X+015740Y+037362
X+015740Y+037677
X+015740Y+038031
X+014756Y+038071
X+014756Y+037717
X+014756Y+037362
X+013732Y+037362
X+013732Y+037717
X+013732Y+038071
X+012748Y+038071
X+012748Y+037717
X+012748Y+037362
X+011724Y+037362
X+011724Y+037717
X+011724Y+038071
X+010740Y+038071
X+010740Y+037717
X+010740Y+037362
X+010630Y+036693
X+011024Y+036693
X+011378Y+036693
X+014094Y+035433
X+014488Y+035433
X+008819Y+034329
X+007047Y+034488
X+001890Y+031535
X+010235Y+023189
X+008956Y+016831
X+008582Y+016713
X+008208Y+016831
X+008209Y+016437
X+008583Y+016319
X+008957Y+016437
X+014902Y+016417
X+015276Y+016299
X+015650Y+016417
X+015649Y+016811
X+015275Y+016693
X+014902Y+016811
X+021260Y+015000
X+021654Y+015000
X+022047Y+015000
X+022441Y+015000
X+027106Y+016437
X+027480Y+016319
X+027854Y+016437
X+027853Y+016831
X+027479Y+016713
X+027105Y+016831
X+029133Y+023189
X+027579Y+030039
X+027106Y+030039
X+026634Y+030039
X+027205Y+031339
X+024606Y+032402
X+025394Y+035866
X+029567Y+036024
X+029685Y+038583
X+032638Y+035079
X+033661Y+035079
X+033898Y+035748
X+033898Y+036220
X+034606Y+037402
X+036142Y+036378
X+036142Y+035906
X+034567Y+034961
X+033976Y+031575
X+034567Y+031457
X+036063Y+031220
X+037362Y+031063
X+037559Y+030551
X+037953Y+030551
X+038346Y+030551
X+038780Y+030827
X+039961Y+031220
X+038740Y+028465
X+038740Y+028071
X+038740Y+027677
X+044646Y+030039
X+045039Y+030039
X+045433Y+030039
X+045118Y+032087
X+046457Y+031890
X+048543Y+031850
X+050591Y+031890
X+051693Y+033425
X+049764Y+033622
X+047992Y+034055
X+045906Y+033937
X+046575Y+035906
X+046575Y+037402
X+045906Y+037402
X+047402Y+037402
X+049094Y+037205
X+049646Y+037165
X+050354Y+036772
X+050906Y+036969
X+051614Y+037047
X+051693Y+036260
X+052598Y+036142
X+053465Y+037441
X+053858Y+037087
X+053929Y+037992
X+053929Y+038346
X+053929Y+038701
X+054913Y+038701
X+054913Y+038346
X+054913Y+037992
X+056752Y+038307
X+056496Y+035669
X+057008Y+035591
X+055433Y+034173
X+055433Y+032913
X+054409Y+031929
X+055512Y+031339
X+056732Y+030197
X+057087Y+029685
X+058425Y+028701
X+058425Y+028189
X+058425Y+027677
X+058228Y+026654
X+057717Y+026417
X+058622Y+026220
X+058622Y+025787
X+059154Y+028661
X+059154Y+029094
X+055512Y+028898
X+055197Y+027244
X+047873Y+023189
X+046594Y+016831
X+046220Y+016713
X+045845Y+016831
X+045846Y+016437
X+046220Y+016319
X+046594Y+016437
X+040827Y+015039
X+040433Y+015039
X+040039Y+015039
X+039646Y+015039
X+034547Y+016417
X+034173Y+016299
X+033799Y+016417
X+033799Y+016811
X+034172Y+016693
X+034546Y+016811
X+036220Y+021220
X+036220Y+021654
X+032480Y+031772
X+031772Y+032244
X+038425Y+036417
X+038937Y+036535
X+039764Y+034646
X+040512Y+034961
X+042638Y+035906
X+042559Y+036378
X+043189Y+036063
X+043583Y+036969
X+043543Y+037441
X+042677Y+037362
X+042047Y+038228
X+041575Y+037087
X+038819Y+038819
X+042717Y+033268
X+043228Y+033268
X+043583Y+033661
X+051921Y+037992
X+051921Y+038346
X+051921Y+038701
X+052906Y+038701
X+052906Y+038346
X+052906Y+037992
X+052539Y+016811
X+052912Y+016693
X+053286Y+016811
X+053287Y+016417
X+052913Y+016299
X+052539Y+016417
X+058780Y+001654
X+058858Y+001181
X+051161Y-005610
X+050512Y-005610
X+029134Y-005551
X+027874Y-005866
X+008898Y-005512
X+007835Y-005984
T04
X+007205Y+003425
X+005236Y+003425
X+009252Y+003425
X+011220Y+003425
X+013307Y+003425
X+015276Y+003425
X+017362Y+003425
X+019331Y+003425
X+024134Y+003425
X+026102Y+003425
X+028150Y+003425
X+030118Y+003425
X+032205Y+003425
X+034173Y+003425
X+036260Y+003425
X+038228Y+003425
X+042874Y+003425
X+044843Y+003425
X+046890Y+003425
X+048858Y+003425
X+050945Y+003425
X+052913Y+003425
X+055000Y+003425
X+056969Y+003425
T05
X+005315Y+045157
X+003937Y+045157
X+003701Y+042480
X+003701Y+041102
X+010709Y+035827
X+011683Y+034852
X+017835Y+029764
X+017835Y+028386
X+021260Y+026772
X+021260Y+025394
X+036811Y+028425
X+036811Y+029803
X+040079Y+026772
X+040079Y+025394
X+005433Y+028189
X+004055Y+028189
T06
X+008583Y+014390
X+008583Y+017343
X+015276Y+017343
X+015276Y+014390
X+016949Y+010413
X+013602Y+010413
X+010256Y+010413
X+006909Y+010413
X+006909Y+005768
X+010256Y+005768
X+013602Y+005768
X+016949Y+005768
X+020334Y+012027
X+022422Y+014115
X+025807Y+010413
X+029154Y+010413
X+032500Y+010413
X+035846Y+010413
X+039192Y+012027
X+041280Y+014115
X+044547Y+010413
X+047894Y+010413
X+051240Y+010413
X+054587Y+010413
X+057717Y+010389
X+057717Y+011176
X+057717Y+011964
X+057717Y+012751
X+057717Y+013538
X+057717Y+014326
X+057717Y+015113
X+057717Y+015901
X+057717Y+016688
X+057717Y+017475
X+057717Y+019213
X+057717Y+020000
X+052913Y+017343
X+052913Y+014390
X+046220Y+014390
X+046220Y+017343
X+044547Y+005768
X+047894Y+005768
X+051240Y+005768
X+054587Y+005768
X+035846Y+005768
X+032500Y+005768
X+029154Y+005768
X+025807Y+005768
X+027480Y+014390
X+027480Y+017343
X+034173Y+017343
X+034173Y+014390
T07
X+005827Y-001693
X+008827Y-001693
X+011827Y-001693
X+014827Y-001693
X+026024Y-001693
X+029024Y-001693
X+032024Y-001693
X+035024Y-001693
X+046260Y-001693
X+049260Y-001693
X+052260Y-001693
X+055260Y-001693
T08
X+002480Y+057933
X+005433Y+057933
X+018563Y-002244
X+022303Y-002244
X+038760Y-002244
X+042500Y-002244
T09
X+002480Y+060886
X+005433Y+060886
T10
X+003937Y+022441
X+003937Y+007874
X+021260Y+007874
X+021260Y+022441
X+039370Y+022441
X+039370Y+007874
X+057087Y+007874
X+057087Y+022441
T00
M30
