G04 DipTrace 2.4.0.2*
%IN1_Layer_Top_PMask.gbr*%
%MOIN*%
%ADD47R,0.063X0.0079*%
%ADD49R,0.374X0.4016*%
%ADD51R,0.1476X0.0512*%
%ADD53C,0.0433*%
%ADD55R,0.0512X0.1063*%
%ADD57R,0.126X0.0472*%
%ADD59R,0.0271X0.0321*%
%ADD61R,0.0433X0.0512*%
%ADD63R,0.0321X0.0271*%
%ADD65R,0.0512X0.0433*%
%FSLAX44Y44*%
G04*
G70*
G90*
G75*
G01*
%LNTopPaste*%
%LPD*%
D65*
X34449Y18760D3*
Y18012D3*
D63*
X33681Y18583D3*
Y17913D3*
D61*
X11024Y18209D3*
X11772D3*
D63*
X12835Y17362D3*
Y16693D3*
D59*
X34331Y17087D3*
X33661D3*
X34331Y16260D3*
X33661D3*
D63*
X12835Y15984D3*
Y15315D3*
D65*
X34429Y14705D3*
Y13957D3*
D61*
X11024Y14469D3*
X11772D3*
D63*
X33642Y14547D3*
Y13878D3*
X10787Y11555D3*
Y10886D3*
X16280Y11555D3*
Y10886D3*
X21772Y11555D3*
Y10886D3*
X27303Y11555D3*
Y10886D3*
X32185Y11555D3*
Y10886D3*
X37697Y11555D3*
Y10886D3*
X43209Y11555D3*
Y10886D3*
X48720Y11555D3*
Y10886D3*
D65*
X10236Y9469D3*
Y10217D3*
X15748Y9469D3*
Y10217D3*
X21260Y9469D3*
Y10217D3*
X26772Y9469D3*
Y10217D3*
X32283Y9469D3*
Y10217D3*
X37795Y9469D3*
Y10217D3*
X43307Y9469D3*
Y10217D3*
X48819Y9469D3*
Y10217D3*
D59*
X53504Y9035D3*
X54173D3*
D57*
X7677Y11791D3*
Y10177D3*
D55*
X39205Y22638D3*
X40205D3*
X41205D3*
X42205D3*
X43205D3*
X44205D3*
X45205D3*
X46205D3*
X47205D3*
X48205D3*
X49205D3*
X50205D3*
X51205D3*
X52197D3*
X7016Y22008D3*
X8016D3*
X9016D3*
X10016D3*
X11016D3*
X12016D3*
D53*
X5969Y20197D3*
X48701Y5197D3*
D59*
X30772Y23504D3*
X31441D3*
X54724Y22933D3*
X54055D3*
X30772Y22835D3*
X31441D3*
X30772Y22165D3*
X31441D3*
X30772Y21496D3*
X31441D3*
X30772Y20827D3*
X31441D3*
X30772Y20157D3*
X31441D3*
X30772Y19488D3*
X31441D3*
X30772Y18819D3*
X31441D3*
X30772Y18150D3*
X31441D3*
D63*
X32815Y10906D3*
Y11575D3*
X38327Y10906D3*
Y11575D3*
X43839Y10906D3*
Y11575D3*
X49350Y10906D3*
Y11575D3*
X10157Y10886D3*
Y11555D3*
X15650Y10886D3*
Y11555D3*
X21142Y10886D3*
Y11555D3*
X26673Y10886D3*
Y11555D3*
D51*
X11476Y15339D3*
X11477Y17339D3*
D49*
X7421Y16339D3*
D47*
X29630Y17441D3*
Y17185D3*
Y16929D3*
Y16673D3*
Y16417D3*
Y16161D3*
Y15906D3*
Y15650D3*
Y15394D3*
Y15138D3*
Y14882D3*
Y14626D3*
Y14370D3*
Y14114D3*
Y13858D3*
X32583D3*
Y14114D3*
Y14370D3*
Y14626D3*
Y14882D3*
Y15138D3*
Y15394D3*
Y15650D3*
Y15906D3*
Y16161D3*
Y16417D3*
Y16673D3*
Y16929D3*
Y17185D3*
Y17441D3*
M02*
