G04 DipTrace 2.4.0.2*
%IN1_Layer_Top_Silk.gbr*%
%MOIN*%
%ADD10C,0.0098*%
%ADD12C,0.003*%
%ADD14C,0.0079*%
%ADD15C,0.0276*%
%ADD22C,0.0118*%
%ADD24C,0.0059*%
%ADD35C,0.0154*%
%ADD72C,0.0046*%
%ADD73C,0.0247*%
%ADD74C,0.0093*%
%ADD75C,0.0077*%
%FSLAX44Y44*%
G04*
G70*
G90*
G75*
G01*
%LNTopSilk*%
%LPD*%
X16732Y3937D2*
D10*
X6102D1*
Y7638D2*
X9567D1*
X6102Y3937D2*
Y7638D1*
X16732Y3937D2*
Y7638D1*
X6929Y3937D2*
Y4173D1*
X12441Y3937D2*
Y4173D1*
X16141Y3937D2*
Y4213D1*
X12205D1*
X10630Y3937D2*
Y4213D1*
X6693D1*
Y3937D2*
Y4213D1*
X10945Y7638D2*
X15039D1*
X16457D2*
X16732D1*
X7323Y3977D2*
Y4213D1*
X7992Y3977D2*
Y4213D1*
X8661Y3937D2*
Y4213D1*
X9409Y3977D2*
Y4213D1*
X10000Y3977D2*
Y4213D1*
X10433Y3977D2*
Y4213D1*
X12205Y3937D2*
Y4213D1*
X12834Y3977D2*
Y4213D1*
X13504Y3977D2*
Y4213D1*
X14174Y3937D2*
Y4213D1*
X14921Y3977D2*
Y4213D1*
X15512Y3977D2*
Y4213D1*
X15945Y3977D2*
Y4213D1*
X27756Y3937D2*
X17126D1*
Y7638D2*
X20590D1*
X17126Y3937D2*
Y7638D1*
X27756Y3937D2*
Y7638D1*
X17953Y3937D2*
Y4173D1*
X23465Y3937D2*
Y4173D1*
X27165Y3937D2*
Y4213D1*
X23229D1*
X21653Y3937D2*
Y4213D1*
X17717D1*
Y3937D2*
Y4213D1*
X21969Y7638D2*
X26063D1*
X27481D2*
X27756D1*
X18346Y3977D2*
Y4213D1*
X19016Y3977D2*
Y4213D1*
X19685Y3937D2*
Y4213D1*
X20433Y3977D2*
Y4213D1*
X21024Y3977D2*
Y4213D1*
X21457Y3977D2*
Y4213D1*
X23229Y3937D2*
Y4213D1*
X23858Y3977D2*
Y4213D1*
X24528Y3977D2*
Y4213D1*
X25197Y3937D2*
Y4213D1*
X25945Y3977D2*
Y4213D1*
X26536Y3977D2*
Y4213D1*
X26968Y3977D2*
Y4213D1*
X38780Y3937D2*
X28150D1*
Y7638D2*
X31614D1*
X28150Y3937D2*
Y7638D1*
X38780Y3937D2*
Y7638D1*
X28977Y3937D2*
Y4173D1*
X34488Y3937D2*
Y4173D1*
X38189Y3937D2*
Y4213D1*
X34252D1*
X32677Y3937D2*
Y4213D1*
X28741D1*
Y3937D2*
Y4213D1*
X32993Y7638D2*
X37086D1*
X38504D2*
X38780D1*
X29370Y3977D2*
Y4213D1*
X30040Y3977D2*
Y4213D1*
X30708Y3937D2*
Y4213D1*
X31457Y3977D2*
Y4213D1*
X32048Y3977D2*
Y4213D1*
X32480Y3977D2*
Y4213D1*
X34252Y3937D2*
Y4213D1*
X34882Y3977D2*
Y4213D1*
X35551Y3977D2*
Y4213D1*
X36221Y3937D2*
Y4213D1*
X36968Y3977D2*
Y4213D1*
X37559Y3977D2*
Y4213D1*
X37992Y3977D2*
Y4213D1*
X49803Y3937D2*
X39173D1*
Y7638D2*
X42638D1*
X39173Y3937D2*
Y7638D1*
X49803Y3937D2*
Y7638D1*
X40000Y3937D2*
Y4173D1*
X45512Y3937D2*
Y4173D1*
X49212Y3937D2*
Y4213D1*
X45276D1*
X43701Y3937D2*
Y4213D1*
X39764D1*
Y3937D2*
Y4213D1*
X44016Y7638D2*
X48110D1*
X49528D2*
X49803D1*
X40394Y3977D2*
Y4213D1*
X41063Y3977D2*
Y4213D1*
X41732Y3937D2*
Y4213D1*
X42480Y3977D2*
Y4213D1*
X43071Y3977D2*
Y4213D1*
X43504Y3977D2*
Y4213D1*
X45276Y3937D2*
Y4213D1*
X45905Y3977D2*
Y4213D1*
X46575Y3977D2*
Y4213D1*
X47245Y3937D2*
Y4213D1*
X47992Y3977D2*
Y4213D1*
X48583Y3977D2*
Y4213D1*
X49015Y3977D2*
Y4213D1*
X15472Y17323D2*
G02X15472Y17323I0J1575D01*
G01*
X15354Y20157D2*
X15591D1*
X15472Y20276D2*
Y20039D1*
X14846Y17782D2*
D15*
G03X16146Y17802I634J1046D01*
G01*
X37031Y19921D2*
D10*
G02X37031Y19921I0J-1575D01*
G01*
X37149Y17087D2*
X36913D1*
X37031Y16969D2*
Y17205D1*
X37657Y19462D2*
D15*
G03X36358Y19442I-634J-1046D01*
G01*
X34803Y19075D2*
D24*
X34094D1*
Y17697D1*
X34803D1*
Y19075D1*
X33431Y18822D2*
X33931D1*
Y17680D1*
X33431D1*
Y18822D1*
X10709Y18563D2*
X12087D1*
Y17854D1*
X10709D1*
Y18563D1*
X12585Y17602D2*
X13085D1*
Y16460D1*
X12585D1*
Y17602D1*
X34570Y17337D2*
X33428D1*
Y16837D1*
X34570D1*
Y17337D1*
X15512Y16969D2*
D10*
G02X15512Y16969I0J-1575D01*
G01*
X15630Y14134D2*
X15394D1*
X15512Y14016D2*
Y14252D1*
X16138Y16509D2*
D15*
G03X14839Y16489I-634J-1046D01*
G01*
X34570Y16510D2*
D24*
X33428D1*
Y16010D1*
X34570D1*
Y16510D1*
X12585Y16224D2*
X13085D1*
Y15082D1*
X12585D1*
Y16224D1*
X37031Y15925D2*
D10*
G02X37031Y15925I0J-1575D01*
G01*
X37149Y13091D2*
X36913D1*
X37031Y12972D2*
Y13209D1*
X37657Y15466D2*
D15*
G03X36358Y15446I-634J-1046D01*
G01*
X34783Y15020D2*
D24*
X34075D1*
Y13642D1*
X34783D1*
Y15020D1*
X10709Y14823D2*
X12087D1*
Y14114D1*
X10709D1*
Y14823D1*
X33392Y14787D2*
X33892D1*
Y13645D1*
X33392D1*
Y14787D1*
X10537Y11794D2*
X11037D1*
Y10653D1*
X10537D1*
Y11794D1*
X16030D2*
X16530D1*
Y10653D1*
X16030D1*
Y11794D1*
X21522D2*
X22022D1*
Y10653D1*
X21522D1*
Y11794D1*
X27053D2*
X27553D1*
Y10653D1*
X27053D1*
Y11794D1*
X31935D2*
X32435D1*
Y10653D1*
X31935D1*
Y11794D1*
X37447D2*
X37947D1*
Y10653D1*
X37447D1*
Y11794D1*
X42959D2*
X43459D1*
Y10653D1*
X42959D1*
Y11794D1*
X48470D2*
X48970D1*
Y10653D1*
X48470D1*
Y11794D1*
X9882Y9154D2*
X10591D1*
Y10531D1*
X9882D1*
Y9154D1*
X15394D2*
X16102D1*
Y10531D1*
X15394D1*
Y9154D1*
X20906D2*
X21614D1*
Y10531D1*
X20906D1*
Y9154D1*
X26417D2*
X27126D1*
Y10531D1*
X26417D1*
Y9154D1*
X31929D2*
X32638D1*
Y10531D1*
X31929D1*
Y9154D1*
X37441D2*
X38150D1*
Y10531D1*
X37441D1*
Y9154D1*
X42953D2*
X43661D1*
Y10531D1*
X42953D1*
Y9154D1*
X48465D2*
X49173D1*
Y10531D1*
X48465D1*
Y9154D1*
X53265Y8785D2*
X54406D1*
Y9285D1*
X53265D1*
Y8785D1*
X8307Y11299D2*
D10*
Y10669D1*
X7047Y11299D2*
Y10669D1*
X7894Y11260D2*
D14*
X7480D1*
Y10689D1*
X7894D1*
Y11260D1*
X7677Y11437D2*
Y10512D1*
X8425Y9823D2*
D24*
X6929D1*
Y12126D1*
X8425D1*
Y9823D1*
X30532Y23254D2*
X31674D1*
Y23754D1*
X30532D1*
Y23254D1*
X54964Y23183D2*
X53822D1*
Y22683D1*
X54964D1*
Y23183D1*
X30532Y22585D2*
X31674D1*
Y23085D1*
X30532D1*
Y22585D1*
Y21915D2*
X31674D1*
Y22415D1*
X30532D1*
Y21915D1*
Y21246D2*
X31674D1*
Y21746D1*
X30532D1*
Y21246D1*
Y20577D2*
X31674D1*
Y21077D1*
X30532D1*
Y20577D1*
Y19907D2*
X31674D1*
Y20408D1*
X30532D1*
Y19907D1*
Y19238D2*
X31674D1*
Y19738D1*
X30532D1*
Y19238D1*
Y18569D2*
X31674D1*
Y19069D1*
X30532D1*
Y18569D1*
Y17900D2*
X31674D1*
Y18400D1*
X30532D1*
Y17900D1*
X33065Y10666D2*
X32565D1*
Y11808D1*
X33065D1*
Y10666D1*
X38577D2*
X38077D1*
Y11808D1*
X38577D1*
Y10666D1*
X44089D2*
X43589D1*
Y11808D1*
X44089D1*
Y10666D1*
X49600D2*
X49100D1*
Y11808D1*
X49600D1*
Y10666D1*
X10408Y10646D2*
X9907D1*
Y11788D1*
X10408D1*
Y10646D1*
X15900D2*
X15400D1*
Y11788D1*
X15900D1*
Y10646D1*
X21392D2*
X20892D1*
Y11788D1*
X21392D1*
Y10646D1*
X26923D2*
X26423D1*
Y11788D1*
X26923D1*
Y10646D1*
X10531Y14331D2*
D10*
Y18347D1*
Y14331D2*
X9508D1*
X10531Y18347D2*
X9508D1*
D35*
X12114Y14852D3*
X30161Y17579D2*
D10*
Y13721D1*
X32051D1*
Y17579D1*
X31303D1*
X30909D2*
X30161D1*
X30909D2*
G03X31303Y17579I197J1D01*
G01*
X51378Y8524D2*
X55315D1*
Y3209D1*
X51378D1*
Y8524D1*
X38921Y21969D2*
D22*
X52661D1*
X56126Y23780D2*
Y4528D1*
X38409Y23701D2*
Y22520D1*
X53213Y23740D2*
Y22362D1*
X53646Y24173D2*
X55693D1*
X13016Y23661D2*
Y21772D1*
X6598Y21339D2*
X12465D1*
X38016Y24134D2*
X13449D1*
X6087Y23701D2*
Y21850D1*
X5614Y24173D2*
D3*
X5142Y23740D2*
Y4488D1*
X6087Y23740D2*
G03X5614Y24173I-469J-38D01*
G01*
G03X5142Y23740I-3J-471D01*
G01*
X6598Y21339D2*
G02X6087Y21850I-39J472D01*
G01*
X12465Y21339D2*
G03X13016Y21772I72J476D01*
G01*
X13488Y24134D2*
G03X13016Y23701I-61J-408D01*
G01*
X38921Y21969D2*
G02X38409Y22480I-39J472D01*
G01*
X53685Y24173D2*
G03X53213Y23740I-3J-471D01*
G01*
X52661Y21969D2*
G03X53213Y22402I72J476D01*
G01*
X38409Y23701D2*
G03X37937Y24134I-469J-38D01*
G01*
X56126Y23740D2*
G03X55654Y24173I-469J-38D01*
G01*
X55575Y4094D2*
G03X56126Y4528I72J476D01*
G01*
X50984Y4094D2*
D10*
X49823D1*
X5654D2*
D22*
G02X5142Y4606I-39J472D01*
G01*
X5654Y4094D2*
X6083D1*
X39173D2*
D10*
X38780D1*
X28130D2*
X27776D1*
X17106D2*
X16732D1*
X15091Y22792D2*
D12*
X15959D1*
X17455D2*
X17635D1*
X13446Y22762D2*
X15989D1*
X17425D2*
X20298D1*
X13446Y22732D2*
X16019D1*
X17395D2*
X20058D1*
X14164Y22702D2*
X16050D1*
X17365D2*
X19370D1*
X14643Y22672D2*
X16084D1*
X17335D2*
X18921D1*
X15391Y22643D2*
X16121D1*
X17304D2*
X18233D1*
X15929Y22613D2*
X16158D1*
X17271D2*
X17585D1*
X15959Y22583D2*
X16194D1*
X17234D2*
X17517D1*
X15989Y22553D2*
X16227D1*
X17196D2*
X17460D1*
X16019Y22523D2*
X16261D1*
X17161D2*
X17412D1*
X16049Y22493D2*
X16296D1*
X17128D2*
X17373D1*
X16079Y22463D2*
X16331D1*
X17097D2*
X17338D1*
X16110Y22433D2*
X16365D1*
X17065D2*
X17306D1*
X16144Y22403D2*
X16401D1*
X17032D2*
X17271D1*
X17904D2*
X18203D1*
X13446Y22373D2*
X14104D1*
X15002D2*
X15510D1*
X16181D2*
X16434D1*
X16998D2*
X17234D1*
X17832D2*
X18276D1*
X18891D2*
X19460D1*
X19699D2*
X20268D1*
X13446Y22343D2*
X14181D1*
X15002D2*
X15524D1*
X16218D2*
X16466D1*
X16964D2*
X17196D1*
X17768D2*
X18339D1*
X18891D2*
X19475D1*
X19684D2*
X20268D1*
X13446Y22313D2*
X14247D1*
X15002D2*
X15533D1*
X16253D2*
X16498D1*
X16929D2*
X17161D1*
X17716D2*
X18391D1*
X18891D2*
X19488D1*
X19672D2*
X20268D1*
X13446Y22283D2*
X14301D1*
X15002D2*
X15537D1*
X16286D2*
X16531D1*
X16894D2*
X17128D1*
X17675D2*
X18433D1*
X18891D2*
X19504D1*
X19659D2*
X20268D1*
X13446Y22254D2*
X14342D1*
X15002D2*
X15539D1*
X16317D2*
X16566D1*
X16860D2*
X17097D1*
X17644D2*
X18467D1*
X18892D2*
X19521D1*
X19646D2*
X20267D1*
X13447Y22224D2*
X14374D1*
X15004D2*
X15540D1*
X16348D2*
X16604D1*
X16826D2*
X17065D1*
X17620D2*
X18496D1*
X18894D2*
X19535D1*
X19631D2*
X20265D1*
X13451Y22194D2*
X14399D1*
X15009D2*
X15540D1*
X16378D2*
X16653D1*
X16786D2*
X17031D1*
X17600D2*
X18518D1*
X18899D2*
X19548D1*
X19616D2*
X20260D1*
X13459Y22164D2*
X14421D1*
X15025D2*
X15540D1*
X16408D2*
X16719D1*
X16735D2*
X16994D1*
X17584D2*
X18035D1*
X18072D2*
X18536D1*
X18915D2*
X19563D1*
X19599D2*
X20244D1*
X13471Y22134D2*
X13865D1*
X13974D2*
X14438D1*
X15041D2*
X15450D1*
X16438D2*
X16957D1*
X17569D2*
X17995D1*
X18112D2*
X18550D1*
X18931D2*
X20228D1*
X13487Y22104D2*
X13865D1*
X14012D2*
X14455D1*
X15052D2*
X15450D1*
X16468D2*
X16921D1*
X17556D2*
X17979D1*
X18128D2*
X18561D1*
X18941D2*
X20218D1*
X13506Y22074D2*
X13865D1*
X14040D2*
X14469D1*
X15057D2*
X15450D1*
X16496D2*
X16889D1*
X17546D2*
X17970D1*
X18137D2*
X18572D1*
X18947D2*
X20212D1*
X13476Y22044D2*
X13865D1*
X14060D2*
X14480D1*
X15060D2*
X15450D1*
X16520D2*
X16856D1*
X17535D2*
X17966D1*
X18141D2*
X18581D1*
X18950D2*
X20210D1*
X13489Y22014D2*
X13865D1*
X14067D2*
X14487D1*
X15061D2*
X15450D1*
X16538D2*
X16823D1*
X17526D2*
X17965D1*
X18142D2*
X18587D1*
X18951D2*
X19191D1*
X19255D2*
X19784D1*
X19849D2*
X20209D1*
X13498Y21984D2*
X13865D1*
X14071D2*
X14490D1*
X15061D2*
X15450D1*
X16535D2*
X16789D1*
X17521D2*
X17964D1*
X18143D2*
X18589D1*
X18951D2*
X19191D1*
X19264D2*
X19777D1*
X19849D2*
X20208D1*
X13501Y21954D2*
X13865D1*
X14072D2*
X14491D1*
X15061D2*
X15450D1*
X16512D2*
X16754D1*
X17522D2*
X17964D1*
X18143D2*
X18586D1*
X18951D2*
X19191D1*
X19275D2*
X19768D1*
X19849D2*
X20208D1*
X13498Y21924D2*
X13865D1*
X14068D2*
X14488D1*
X15061D2*
X15450D1*
X16482D2*
X16720D1*
X17528D2*
X17964D1*
X18143D2*
X18580D1*
X18951D2*
X19191D1*
X19288D2*
X19758D1*
X19849D2*
X20208D1*
X13489Y21894D2*
X13865D1*
X14059D2*
X14481D1*
X15061D2*
X15451D1*
X16450D2*
X16684D1*
X17536D2*
X17965D1*
X18142D2*
X18571D1*
X18951D2*
X19191D1*
X19299D2*
X19744D1*
X19849D2*
X20208D1*
X13476Y21865D2*
X13868D1*
X14044D2*
X14472D1*
X15061D2*
X15453D1*
X16419D2*
X16651D1*
X16976D2*
X17006D1*
X17545D2*
X17969D1*
X18138D2*
X18562D1*
X18951D2*
X19191D1*
X19310D2*
X19728D1*
X19846D2*
X20208D1*
X13506Y21835D2*
X13876D1*
X13996D2*
X14463D1*
X15061D2*
X15458D1*
X16388D2*
X16618D1*
X16942D2*
X17033D1*
X17556D2*
X17991D1*
X18116D2*
X18551D1*
X18951D2*
X19191D1*
X19321D2*
X19713D1*
X19841D2*
X20208D1*
X13481Y21805D2*
X13911D1*
X13923D2*
X14452D1*
X15061D2*
X15479D1*
X16354D2*
X16583D1*
X16912D2*
X17063D1*
X17570D2*
X18047D1*
X18060D2*
X18537D1*
X18951D2*
X19191D1*
X19334D2*
X19701D1*
X19820D2*
X20208D1*
X13464Y21775D2*
X14438D1*
X15002D2*
X15502D1*
X16321D2*
X16546D1*
X16901D2*
X17094D1*
X17587D2*
X18519D1*
X18891D2*
X19250D1*
X19347D2*
X19690D1*
X19797D2*
X20268D1*
X13454Y21745D2*
X14420D1*
X15002D2*
X15520D1*
X16290D2*
X16508D1*
X16906D2*
X17125D1*
X17607D2*
X18496D1*
X18891D2*
X19250D1*
X19359D2*
X19679D1*
X19779D2*
X20268D1*
X13449Y21715D2*
X14397D1*
X15002D2*
X15531D1*
X16259D2*
X16473D1*
X16926D2*
X17156D1*
X17631D2*
X18470D1*
X18891D2*
X19250D1*
X19370D2*
X19670D1*
X19768D2*
X20268D1*
X13447Y21685D2*
X14369D1*
X15002D2*
X15536D1*
X16228D2*
X16440D1*
X16950D2*
X17186D1*
X17664D2*
X18439D1*
X18891D2*
X19250D1*
X19385D2*
X19658D1*
X19763D2*
X20268D1*
X13446Y21655D2*
X14336D1*
X15002D2*
X15539D1*
X16197D2*
X16409D1*
X16978D2*
X17216D1*
X17707D2*
X18402D1*
X18891D2*
X19250D1*
X19401D2*
X19645D1*
X19762D2*
X20268D1*
X13446Y21625D2*
X14295D1*
X15002D2*
X15540D1*
X16164D2*
X16378D1*
X17007D2*
X17247D1*
X17754D2*
X18358D1*
X18891D2*
X19250D1*
X19415D2*
X19632D1*
X19765D2*
X20268D1*
X13446Y21595D2*
X14246D1*
X15002D2*
X15540D1*
X16126D2*
X16347D1*
X17037D2*
X17280D1*
X17800D2*
X18310D1*
X18891D2*
X19250D1*
X19424D2*
X19620D1*
X19775D2*
X20268D1*
X13446Y21565D2*
X14194D1*
X15002D2*
X15540D1*
X16089D2*
X16313D1*
X17067D2*
X17317D1*
X17844D2*
X18263D1*
X18891D2*
X19250D1*
X19430D2*
X19609D1*
X19789D2*
X20268D1*
X16054Y21535D2*
X16276D1*
X17100D2*
X17351D1*
X16021Y21506D2*
X16238D1*
X17134D2*
X17383D1*
X15990Y21476D2*
X16203D1*
X17169D2*
X17415D1*
X15959Y21446D2*
X16171D1*
X17203D2*
X17449D1*
X15929Y21416D2*
X16139D1*
X17238D2*
X17482D1*
X15899Y21386D2*
X16108D1*
X17272D2*
X17514D1*
X15391Y21356D2*
X16074D1*
X17304D2*
X18083D1*
X14882Y21326D2*
X16037D1*
X17335D2*
X18592D1*
X14164Y21296D2*
X15999D1*
X17365D2*
X19310D1*
X13416Y21266D2*
X15964D1*
X17395D2*
X20058D1*
X13416Y21236D2*
X15931D1*
X17425D2*
X20268D1*
X15750Y21206D2*
X15899D1*
X17455D2*
X18472D1*
X15091Y22792D2*
Y22762D1*
X15959Y22792D2*
X15989Y22762D1*
X16019Y22732D1*
X16050Y22702D1*
X16084Y22672D1*
X16121Y22643D1*
X16158Y22613D1*
X16194Y22583D1*
X16227Y22553D1*
X16261Y22523D1*
X16296Y22493D1*
X16331Y22463D1*
X16365Y22433D1*
X16401Y22403D1*
X16434Y22373D1*
X16466Y22343D1*
X16498Y22313D1*
X16531Y22283D1*
X16566Y22254D1*
X16604Y22224D1*
X16653Y22194D1*
X16719Y22164D1*
X16797Y22134D1*
X17455Y22792D2*
X17425Y22762D1*
X17395Y22732D1*
X17365Y22702D1*
X17335Y22672D1*
X17304Y22643D1*
X17271Y22613D1*
X17234Y22583D1*
X17196Y22553D1*
X17161Y22523D1*
X17128Y22493D1*
X17097Y22463D1*
X17065Y22433D1*
X17032Y22403D1*
X16998Y22373D1*
X16964Y22343D1*
X16929Y22313D1*
X16894Y22283D1*
X16860Y22254D1*
X16826Y22224D1*
X16786Y22194D1*
X16735Y22164D1*
X16677Y22134D1*
X17635Y22792D2*
Y22762D1*
X13446D2*
Y22732D1*
X20298Y22762D2*
X20058Y22732D1*
X14134D2*
X14164Y22702D1*
X19400Y22732D2*
X19370Y22702D1*
X14613D2*
X14643Y22672D1*
X18951Y22702D2*
X18921Y22672D1*
X15361D2*
X15391Y22643D1*
X18263Y22672D2*
X18233Y22643D1*
X15899D2*
X15929Y22613D1*
X15959Y22583D1*
X15989Y22553D1*
X16019Y22523D1*
X16049Y22493D1*
X16079Y22463D1*
X16110Y22433D1*
X16144Y22403D1*
X16181Y22373D1*
X16218Y22343D1*
X16253Y22313D1*
X16286Y22283D1*
X16317Y22254D1*
X16348Y22224D1*
X16378Y22194D1*
X16408Y22164D1*
X16438Y22134D1*
X16468Y22104D1*
X16496Y22074D1*
X16520Y22044D1*
X16538Y22014D1*
X16535Y21984D1*
X16512Y21954D1*
X16482Y21924D1*
X16450Y21894D1*
X16419Y21865D1*
X16388Y21835D1*
X16354Y21805D1*
X16321Y21775D1*
X16290Y21745D1*
X16259Y21715D1*
X16228Y21685D1*
X16197Y21655D1*
X16164Y21625D1*
X16126Y21595D1*
X16089Y21565D1*
X16054Y21535D1*
X16021Y21506D1*
X15990Y21476D1*
X15959Y21446D1*
X15929Y21416D1*
X15899Y21386D1*
X15869Y21356D1*
X17665Y22643D2*
X17585Y22613D1*
X17517Y22583D1*
X17460Y22553D1*
X17412Y22523D1*
X17373Y22493D1*
X17338Y22463D1*
X17306Y22433D1*
X17271Y22403D1*
X17234Y22373D1*
X17196Y22343D1*
X17161Y22313D1*
X17128Y22283D1*
X17097Y22254D1*
X17065Y22224D1*
X17031Y22194D1*
X16994Y22164D1*
X16957Y22134D1*
X16921Y22104D1*
X16889Y22074D1*
X16856Y22044D1*
X16823Y22014D1*
X16789Y21984D1*
X16754Y21954D1*
X16720Y21924D1*
X16684Y21894D1*
X16651Y21865D1*
X16618Y21835D1*
X16583Y21805D1*
X16546Y21775D1*
X16508Y21745D1*
X16473Y21715D1*
X16440Y21685D1*
X16409Y21655D1*
X16378Y21625D1*
X16347Y21595D1*
X16313Y21565D1*
X16276Y21535D1*
X16238Y21506D1*
X16203Y21476D1*
X16171Y21446D1*
X16139Y21416D1*
X16108Y21386D1*
X16074Y21356D1*
X16037Y21326D1*
X15999Y21296D1*
X15964Y21266D1*
X15931Y21236D1*
X15899Y21206D1*
X17904Y22403D2*
X17832Y22373D1*
X17768Y22343D1*
X17716Y22313D1*
X17675Y22283D1*
X17644Y22254D1*
X17620Y22224D1*
X17600Y22194D1*
X17584Y22164D1*
X17569Y22134D1*
X17556Y22104D1*
X17546Y22074D1*
X17535Y22044D1*
X17526Y22014D1*
X17521Y21984D1*
X17522Y21954D1*
X17528Y21924D1*
X17536Y21894D1*
X17545Y21865D1*
X17556Y21835D1*
X17570Y21805D1*
X17587Y21775D1*
X17607Y21745D1*
X17631Y21715D1*
X17664Y21685D1*
X17707Y21655D1*
X17754Y21625D1*
X17800Y21595D1*
X17844Y21565D1*
X18203Y22403D2*
X18276Y22373D1*
X18339Y22343D1*
X18391Y22313D1*
X18433Y22283D1*
X18467Y22254D1*
X18496Y22224D1*
X18518Y22194D1*
X18536Y22164D1*
X18550Y22134D1*
X18561Y22104D1*
X18572Y22074D1*
X18581Y22044D1*
X18587Y22014D1*
X18589Y21984D1*
X18586Y21954D1*
X18580Y21924D1*
X18571Y21894D1*
X18562Y21865D1*
X18551Y21835D1*
X18537Y21805D1*
X18519Y21775D1*
X18496Y21745D1*
X18470Y21715D1*
X18439Y21685D1*
X18402Y21655D1*
X18358Y21625D1*
X18310Y21595D1*
X18263Y21565D1*
X13446Y22373D2*
Y22343D1*
Y22313D1*
Y22283D1*
Y22254D1*
X13447Y22224D1*
X13451Y22194D1*
X13459Y22164D1*
X13471Y22134D1*
X13487Y22104D1*
X13506Y22074D1*
X13476Y22044D1*
X13489Y22014D1*
X13498Y21984D1*
X13501Y21954D1*
X13498Y21924D1*
X13489Y21894D1*
X13476Y21865D1*
X13506Y21835D1*
X13481Y21805D1*
X13464Y21775D1*
X13454Y21745D1*
X13449Y21715D1*
X13447Y21685D1*
X13446Y21655D1*
Y21625D1*
Y21595D1*
Y21565D1*
X14104Y22373D2*
X14181Y22343D1*
X14247Y22313D1*
X14301Y22283D1*
X14342Y22254D1*
X14374Y22224D1*
X14399Y22194D1*
X14421Y22164D1*
X14438Y22134D1*
X14455Y22104D1*
X14469Y22074D1*
X14480Y22044D1*
X14487Y22014D1*
X14490Y21984D1*
X14491Y21954D1*
X14488Y21924D1*
X14481Y21894D1*
X14472Y21865D1*
X14463Y21835D1*
X14452Y21805D1*
X14438Y21775D1*
X14420Y21745D1*
X14397Y21715D1*
X14369Y21685D1*
X14336Y21655D1*
X14295Y21625D1*
X14246Y21595D1*
X14194Y21565D1*
X15002Y22373D2*
Y22343D1*
Y22313D1*
Y22283D1*
Y22254D1*
X15004Y22224D1*
X15009Y22194D1*
X15025Y22164D1*
X15041Y22134D1*
X15052Y22104D1*
X15057Y22074D1*
X15060Y22044D1*
X15061Y22014D1*
Y21984D1*
Y21954D1*
Y21924D1*
Y21894D1*
Y21865D1*
Y21835D1*
Y21805D1*
Y21775D1*
X15002D1*
Y21745D1*
Y21715D1*
Y21685D1*
Y21655D1*
Y21625D1*
Y21595D1*
Y21565D1*
X15510Y22373D2*
X15524Y22343D1*
X15533Y22313D1*
X15537Y22283D1*
X15539Y22254D1*
X15540Y22224D1*
Y22194D1*
Y22164D1*
Y22134D1*
X15450D1*
Y22104D1*
Y22074D1*
Y22044D1*
Y22014D1*
Y21984D1*
Y21954D1*
Y21924D1*
X15451Y21894D1*
X15453Y21865D1*
X15458Y21835D1*
X15479Y21805D1*
X15502Y21775D1*
X15520Y21745D1*
X15531Y21715D1*
X15536Y21685D1*
X15539Y21655D1*
X15540Y21625D1*
Y21595D1*
Y21565D1*
X18891Y22373D2*
Y22343D1*
Y22313D1*
Y22283D1*
X18892Y22254D1*
X18894Y22224D1*
X18899Y22194D1*
X18915Y22164D1*
X18931Y22134D1*
X18941Y22104D1*
X18947Y22074D1*
X18950Y22044D1*
X18951Y22014D1*
Y21984D1*
Y21954D1*
Y21924D1*
Y21894D1*
Y21865D1*
Y21835D1*
Y21805D1*
Y21775D1*
X18891D1*
Y21745D1*
Y21715D1*
Y21685D1*
Y21655D1*
Y21625D1*
Y21595D1*
Y21565D1*
X19460Y22373D2*
X19475Y22343D1*
X19488Y22313D1*
X19504Y22283D1*
X19521Y22254D1*
X19535Y22224D1*
X19548Y22194D1*
X19563Y22164D1*
X19580Y22134D1*
X19699Y22373D2*
X19684Y22343D1*
X19672Y22313D1*
X19659Y22283D1*
X19646Y22254D1*
X19631Y22224D1*
X19616Y22194D1*
X19599Y22164D1*
X19580Y22134D1*
X20268Y22373D2*
Y22343D1*
Y22313D1*
Y22283D1*
X20267Y22254D1*
X20265Y22224D1*
X20260Y22194D1*
X20244Y22164D1*
X20228Y22134D1*
X20218Y22104D1*
X20212Y22074D1*
X20210Y22044D1*
X20209Y22014D1*
X20208Y21984D1*
Y21954D1*
Y21924D1*
Y21894D1*
Y21865D1*
Y21835D1*
Y21805D1*
Y21775D1*
X20268D1*
Y21745D1*
Y21715D1*
Y21685D1*
Y21655D1*
Y21625D1*
Y21595D1*
Y21565D1*
X18083Y22194D2*
X18035Y22164D1*
X17995Y22134D1*
X17979Y22104D1*
X17970Y22074D1*
X17966Y22044D1*
X17965Y22014D1*
X17964Y21984D1*
Y21954D1*
Y21924D1*
X17965Y21894D1*
X17969Y21865D1*
X17991Y21835D1*
X18047Y21805D1*
X18113Y21775D1*
X18024Y22194D2*
X18072Y22164D1*
X18112Y22134D1*
X18128Y22104D1*
X18137Y22074D1*
X18141Y22044D1*
X18142Y22014D1*
X18143Y21984D1*
Y21954D1*
Y21924D1*
X18142Y21894D1*
X18138Y21865D1*
X18116Y21835D1*
X18060Y21805D1*
X17994Y21775D1*
X13865Y22164D2*
Y22134D1*
Y22104D1*
Y22074D1*
Y22044D1*
Y22014D1*
Y21984D1*
Y21954D1*
Y21924D1*
Y21894D1*
X13868Y21865D1*
X13876Y21835D1*
X13911Y21805D1*
X13954Y21775D1*
X13924Y22164D2*
X13974Y22134D1*
X14012Y22104D1*
X14040Y22074D1*
X14060Y22044D1*
X14067Y22014D1*
X14071Y21984D1*
X14072Y21954D1*
X14068Y21924D1*
X14059Y21894D1*
X14044Y21865D1*
X13996Y21835D1*
X13923Y21805D1*
X13835Y21775D1*
X19191Y22044D2*
Y22014D1*
Y21984D1*
Y21954D1*
Y21924D1*
Y21894D1*
Y21865D1*
Y21835D1*
Y21805D1*
Y21775D1*
X19250D1*
Y21745D1*
Y21715D1*
Y21685D1*
Y21655D1*
Y21625D1*
Y21595D1*
Y21565D1*
Y22044D2*
X19255Y22014D1*
X19264Y21984D1*
X19275Y21954D1*
X19288Y21924D1*
X19299Y21894D1*
X19310Y21865D1*
X19321Y21835D1*
X19334Y21805D1*
X19347Y21775D1*
X19359Y21745D1*
X19370Y21715D1*
X19385Y21685D1*
X19401Y21655D1*
X19415Y21625D1*
X19424Y21595D1*
X19430Y21565D1*
X19789Y22044D2*
X19784Y22014D1*
X19777Y21984D1*
X19768Y21954D1*
X19758Y21924D1*
X19744Y21894D1*
X19728Y21865D1*
X19713Y21835D1*
X19701Y21805D1*
X19690Y21775D1*
X19679Y21745D1*
X19670Y21715D1*
X19658Y21685D1*
X19645Y21655D1*
X19632Y21625D1*
X19620Y21595D1*
X19609Y21565D1*
X19849Y22044D2*
Y22014D1*
Y21984D1*
Y21954D1*
Y21924D1*
Y21894D1*
X19846Y21865D1*
X19841Y21835D1*
X19820Y21805D1*
X19797Y21775D1*
X19779Y21745D1*
X19768Y21715D1*
X19763Y21685D1*
X19762Y21655D1*
X19765Y21625D1*
X19775Y21595D1*
X19789Y21565D1*
X16976Y21865D2*
X16942Y21835D1*
X16912Y21805D1*
X16901Y21775D1*
X16906Y21745D1*
X16926Y21715D1*
X16950Y21685D1*
X16978Y21655D1*
X17007Y21625D1*
X17037Y21595D1*
X17067Y21565D1*
X17100Y21535D1*
X17134Y21506D1*
X17169Y21476D1*
X17203Y21446D1*
X17238Y21416D1*
X17272Y21386D1*
X17304Y21356D1*
X17335Y21326D1*
X17365Y21296D1*
X17395Y21266D1*
X17425Y21236D1*
X17455Y21206D1*
X17006Y21865D2*
X17033Y21835D1*
X17063Y21805D1*
X17094Y21775D1*
X17125Y21745D1*
X17156Y21715D1*
X17186Y21685D1*
X17216Y21655D1*
X17247Y21625D1*
X17280Y21595D1*
X17317Y21565D1*
X17351Y21535D1*
X17383Y21506D1*
X17415Y21476D1*
X17449Y21446D1*
X17482Y21416D1*
X17514Y21386D1*
X17545Y21356D1*
X15391D2*
Y21326D1*
X18083Y21356D2*
Y21326D1*
X14882D2*
Y21296D1*
X18592Y21326D2*
Y21296D1*
X14164D2*
Y21266D1*
X19310Y21296D2*
Y21266D1*
X13416D2*
Y21236D1*
X20058Y21266D2*
X20268Y21236D1*
X15720D2*
X15750Y21206D1*
X18502Y21236D2*
X18472Y21206D1*
X6284Y7795D2*
D72*
X6169Y8097D1*
X6054Y7795D1*
X6097Y7896D2*
X6240D1*
X6376Y8097D2*
Y7882D1*
X6391Y7838D1*
X6419Y7810D1*
X6462Y7795D1*
X6491D1*
X6534Y7810D1*
X6563Y7838D1*
X6577Y7882D1*
Y8097D1*
X6670D2*
Y7795D1*
X6770D1*
X6813Y7810D1*
X6842Y7838D1*
X6857Y7867D1*
X6871Y7910D1*
Y7982D1*
X6857Y8025D1*
X6842Y8054D1*
X6813Y8083D1*
X6770Y8097D1*
X6670D1*
X6963D2*
Y7795D1*
X7142Y8097D2*
X7113Y8083D1*
X7085Y8054D1*
X7070Y8025D1*
X7056Y7982D1*
Y7910D1*
X7070Y7867D1*
X7085Y7838D1*
X7113Y7810D1*
X7142Y7795D1*
X7200D1*
X7228Y7810D1*
X7257Y7838D1*
X7271Y7867D1*
X7286Y7910D1*
Y7982D1*
X7271Y8025D1*
X7257Y8054D1*
X7228Y8083D1*
X7200Y8097D1*
X7142D1*
X7378Y8039D2*
X7407Y8054D1*
X7450Y8096D1*
Y7795D1*
X17302Y7815D2*
X17187Y8117D1*
X17072Y7815D1*
X17115Y7916D2*
X17259D1*
X17394Y8117D2*
Y7901D1*
X17409Y7858D1*
X17438Y7830D1*
X17481Y7815D1*
X17509D1*
X17552Y7830D1*
X17581Y7858D1*
X17595Y7901D1*
Y8117D1*
X17688D2*
Y7815D1*
X17788D1*
X17832Y7830D1*
X17860Y7858D1*
X17875Y7887D1*
X17889Y7930D1*
Y8002D1*
X17875Y8045D1*
X17860Y8073D1*
X17832Y8102D1*
X17788Y8117D1*
X17688D1*
X17982D2*
Y7815D1*
X18160Y8117D2*
X18132Y8102D1*
X18103Y8073D1*
X18089Y8045D1*
X18074Y8002D1*
Y7930D1*
X18089Y7887D1*
X18103Y7858D1*
X18132Y7830D1*
X18160Y7815D1*
X18218D1*
X18246Y7830D1*
X18275Y7858D1*
X18289Y7887D1*
X18304Y7930D1*
Y8002D1*
X18289Y8045D1*
X18275Y8073D1*
X18246Y8102D1*
X18218Y8117D1*
X18160D1*
X18411Y8045D2*
Y8059D1*
X18425Y8088D1*
X18439Y8102D1*
X18468Y8116D1*
X18526D1*
X18554Y8102D1*
X18568Y8088D1*
X18583Y8059D1*
Y8030D1*
X18568Y8001D1*
X18540Y7959D1*
X18396Y7815D1*
X18597D1*
X28384Y7776D2*
X28269Y8077D1*
X28155Y7776D1*
X28198Y7876D2*
X28341D1*
X28477Y8077D2*
Y7862D1*
X28491Y7819D1*
X28520Y7790D1*
X28563Y7776D1*
X28592D1*
X28635Y7790D1*
X28664Y7819D1*
X28678Y7862D1*
Y8077D1*
X28771D2*
Y7776D1*
X28871D1*
X28914Y7790D1*
X28943Y7819D1*
X28957Y7848D1*
X28972Y7890D1*
Y7962D1*
X28957Y8006D1*
X28943Y8034D1*
X28914Y8063D1*
X28871Y8077D1*
X28771D1*
X29064D2*
Y7776D1*
X29243Y8077D2*
X29214Y8063D1*
X29186Y8034D1*
X29171Y8006D1*
X29157Y7962D1*
Y7890D1*
X29171Y7848D1*
X29186Y7819D1*
X29214Y7790D1*
X29243Y7776D1*
X29301D1*
X29329Y7790D1*
X29358Y7819D1*
X29372Y7848D1*
X29386Y7890D1*
Y7962D1*
X29372Y8006D1*
X29358Y8034D1*
X29329Y8063D1*
X29301Y8077D1*
X29243D1*
X29508D2*
X29665D1*
X29580Y7962D1*
X29623D1*
X29651Y7948D1*
X29665Y7934D1*
X29680Y7890D1*
Y7862D1*
X29665Y7819D1*
X29637Y7790D1*
X29594Y7776D1*
X29551D1*
X29508Y7790D1*
X29494Y7805D1*
X29479Y7833D1*
X39401Y7776D2*
X39286Y8077D1*
X39171Y7776D1*
X39214Y7876D2*
X39358D1*
X39494Y8077D2*
Y7862D1*
X39508Y7819D1*
X39537Y7790D1*
X39580Y7776D1*
X39608D1*
X39651Y7790D1*
X39680Y7819D1*
X39695Y7862D1*
Y8077D1*
X39787D2*
Y7776D1*
X39888D1*
X39931Y7790D1*
X39960Y7819D1*
X39974Y7848D1*
X39988Y7890D1*
Y7962D1*
X39974Y8006D1*
X39960Y8034D1*
X39931Y8063D1*
X39888Y8077D1*
X39787D1*
X40081D2*
Y7776D1*
X40260Y8077D2*
X40231Y8063D1*
X40202Y8034D1*
X40188Y8006D1*
X40173Y7962D1*
Y7890D1*
X40188Y7848D1*
X40202Y7819D1*
X40231Y7790D1*
X40260Y7776D1*
X40317D1*
X40346Y7790D1*
X40374Y7819D1*
X40389Y7848D1*
X40403Y7890D1*
Y7962D1*
X40389Y8006D1*
X40374Y8034D1*
X40346Y8063D1*
X40317Y8077D1*
X40260D1*
X40639Y7776D2*
Y8077D1*
X40496Y7876D1*
X40711D1*
X17022Y17635D2*
X17007Y17664D1*
X16978Y17693D1*
X16950Y17707D1*
X16893D1*
X16864Y17693D1*
X16835Y17664D1*
X16821Y17635D1*
X16806Y17592D1*
Y17520D1*
X16821Y17477D1*
X16835Y17449D1*
X16864Y17420D1*
X16893Y17405D1*
X16950D1*
X16978Y17420D1*
X17007Y17449D1*
X17022Y17477D1*
X17114Y17649D2*
X17143Y17664D1*
X17186Y17707D1*
Y17405D1*
X38516Y17084D2*
X38502Y17113D1*
X38473Y17141D1*
X38444Y17156D1*
X38387D1*
X38358Y17141D1*
X38329Y17113D1*
X38315Y17084D1*
X38301Y17041D1*
Y16969D1*
X38315Y16926D1*
X38329Y16897D1*
X38358Y16869D1*
X38387Y16854D1*
X38444D1*
X38473Y16869D1*
X38502Y16897D1*
X38516Y16926D1*
X38623Y17084D2*
Y17098D1*
X38637Y17127D1*
X38652Y17141D1*
X38680Y17155D1*
X38738D1*
X38766Y17141D1*
X38781Y17127D1*
X38795Y17098D1*
Y17069D1*
X38781Y17041D1*
X38752Y16998D1*
X38608Y16854D1*
X38809D1*
X34403Y19475D2*
X34374Y19461D1*
X34346Y19432D1*
X34331Y19404D1*
Y19346D1*
X34346Y19317D1*
X34374Y19289D1*
X34403Y19274D1*
X34446Y19260D1*
X34518D1*
X34561Y19274D1*
X34590Y19289D1*
X34618Y19317D1*
X34633Y19346D1*
Y19404D1*
X34618Y19432D1*
X34590Y19461D1*
X34561Y19475D1*
X34332Y19597D2*
Y19754D1*
X34446Y19668D1*
Y19712D1*
X34461Y19740D1*
X34475Y19754D1*
X34518Y19769D1*
X34547D1*
X34590Y19754D1*
X34619Y19726D1*
X34633Y19683D1*
Y19640D1*
X34619Y19597D1*
X34604Y19583D1*
X34575Y19568D1*
X33597Y19297D2*
X33568Y19283D1*
X33540Y19254D1*
X33525Y19226D1*
Y19168D1*
X33540Y19139D1*
X33568Y19111D1*
X33597Y19096D1*
X33640Y19082D1*
X33712D1*
X33755Y19096D1*
X33784Y19111D1*
X33812Y19139D1*
X33827Y19168D1*
Y19226D1*
X33812Y19254D1*
X33784Y19283D1*
X33755Y19297D1*
X33827Y19533D2*
X33526D1*
X33726Y19390D1*
Y19605D1*
X12487Y18255D2*
X12473Y18283D1*
X12444Y18312D1*
X12416Y18326D1*
X12358D1*
X12329Y18312D1*
X12301Y18283D1*
X12286Y18255D1*
X12272Y18211D1*
Y18139D1*
X12286Y18097D1*
X12301Y18068D1*
X12329Y18039D1*
X12358Y18025D1*
X12416D1*
X12444Y18039D1*
X12473Y18068D1*
X12487Y18097D1*
X12752Y18326D2*
X12609D1*
X12594Y18197D1*
X12609Y18211D1*
X12652Y18226D1*
X12695D1*
X12738Y18211D1*
X12766Y18183D1*
X12781Y18139D1*
Y18111D1*
X12766Y18068D1*
X12738Y18039D1*
X12695Y18025D1*
X12652D1*
X12609Y18039D1*
X12594Y18054D1*
X12580Y18082D1*
X13302Y16772D2*
X13273Y16758D1*
X13244Y16729D1*
X13230Y16701D1*
Y16643D1*
X13244Y16614D1*
X13273Y16586D1*
X13302Y16571D1*
X13345Y16557D1*
X13417D1*
X13459Y16571D1*
X13488Y16586D1*
X13517Y16614D1*
X13531Y16643D1*
Y16701D1*
X13517Y16729D1*
X13488Y16758D1*
X13459Y16772D1*
X13273Y17037D2*
X13245Y17023D1*
X13230Y16980D1*
Y16951D1*
X13245Y16908D1*
X13288Y16879D1*
X13359Y16865D1*
X13431D1*
X13488Y16879D1*
X13517Y16908D1*
X13531Y16951D1*
Y16965D1*
X13517Y17008D1*
X13488Y17037D1*
X13445Y17051D1*
X13431D1*
X13388Y17037D1*
X13359Y17008D1*
X13345Y16965D1*
Y16951D1*
X13359Y16908D1*
X13388Y16879D1*
X13431Y16865D1*
X35052Y17171D2*
X35038Y17199D1*
X35009Y17228D1*
X34981Y17242D1*
X34923D1*
X34895Y17228D1*
X34866Y17199D1*
X34851Y17171D1*
X34837Y17128D1*
Y17056D1*
X34851Y17013D1*
X34866Y16984D1*
X34895Y16956D1*
X34923Y16941D1*
X34981D1*
X35009Y16956D1*
X35038Y16984D1*
X35052Y17013D1*
X35202Y16941D2*
X35346Y17242D1*
X35145D1*
X16997Y14131D2*
X16982Y14160D1*
X16953Y14189D1*
X16925Y14203D1*
X16868D1*
X16839Y14189D1*
X16810Y14160D1*
X16796Y14131D1*
X16781Y14088D1*
Y14016D1*
X16796Y13973D1*
X16810Y13945D1*
X16839Y13916D1*
X16868Y13901D1*
X16925D1*
X16953Y13916D1*
X16982Y13945D1*
X16997Y13973D1*
X17161Y14203D2*
X17118Y14188D1*
X17103Y14160D1*
Y14131D1*
X17118Y14102D1*
X17147Y14088D1*
X17204Y14074D1*
X17247Y14059D1*
X17276Y14030D1*
X17290Y14002D1*
Y13959D1*
X17276Y13930D1*
X17261Y13916D1*
X17218Y13901D1*
X17161D1*
X17118Y13916D1*
X17103Y13930D1*
X17089Y13959D1*
Y14002D1*
X17103Y14030D1*
X17132Y14059D1*
X17175Y14074D1*
X17232Y14088D1*
X17261Y14102D1*
X17276Y14131D1*
Y14160D1*
X17261Y14188D1*
X17218Y14203D1*
X17161D1*
X35060Y16344D2*
X35045Y16373D1*
X35016Y16401D1*
X34988Y16416D1*
X34931D1*
X34902Y16401D1*
X34873Y16373D1*
X34859Y16344D1*
X34844Y16301D1*
Y16229D1*
X34859Y16186D1*
X34873Y16157D1*
X34902Y16129D1*
X34931Y16114D1*
X34988D1*
X35016Y16129D1*
X35045Y16157D1*
X35060Y16186D1*
X35339Y16315D2*
X35324Y16272D1*
X35296Y16243D1*
X35253Y16229D1*
X35238D1*
X35195Y16243D1*
X35167Y16272D1*
X35152Y16315D1*
Y16329D1*
X35167Y16373D1*
X35195Y16401D1*
X35238Y16415D1*
X35253D1*
X35296Y16401D1*
X35324Y16373D1*
X35339Y16315D1*
Y16243D1*
X35324Y16172D1*
X35296Y16128D1*
X35253Y16114D1*
X35224D1*
X35181Y16128D1*
X35167Y16157D1*
X13282Y15285D2*
X13253Y15271D1*
X13225Y15242D1*
X13210Y15213D1*
Y15156D1*
X13225Y15127D1*
X13253Y15099D1*
X13282Y15084D1*
X13325Y15070D1*
X13397D1*
X13440Y15084D1*
X13469Y15099D1*
X13497Y15127D1*
X13512Y15156D1*
Y15213D1*
X13497Y15242D1*
X13469Y15271D1*
X13440Y15285D1*
X13268Y15378D2*
X13253Y15407D1*
X13211Y15450D1*
X13512D1*
X13211Y15629D2*
X13225Y15585D1*
X13268Y15557D1*
X13340Y15542D1*
X13383D1*
X13454Y15557D1*
X13498Y15585D1*
X13512Y15629D1*
Y15657D1*
X13498Y15700D1*
X13454Y15729D1*
X13383Y15743D1*
X13340D1*
X13268Y15729D1*
X13225Y15700D1*
X13211Y15657D1*
Y15629D1*
X13268Y15729D2*
X13454Y15557D1*
X38498Y13088D2*
X38484Y13117D1*
X38455Y13145D1*
X38426Y13160D1*
X38369D1*
X38340Y13145D1*
X38312Y13117D1*
X38297Y13088D1*
X38283Y13045D1*
Y12973D1*
X38297Y12930D1*
X38312Y12901D1*
X38340Y12873D1*
X38369Y12858D1*
X38426D1*
X38455Y12873D1*
X38484Y12901D1*
X38498Y12930D1*
X38591Y13102D2*
X38620Y13117D1*
X38663Y13159D1*
Y12858D1*
X38755Y13102D2*
X38784Y13117D1*
X38827Y13159D1*
Y12858D1*
X34383Y15338D2*
X34355Y15324D1*
X34326Y15295D1*
X34312Y15266D1*
Y15209D1*
X34326Y15180D1*
X34355Y15152D1*
X34383Y15137D1*
X34426Y15123D1*
X34498D1*
X34541Y15137D1*
X34570Y15152D1*
X34599Y15180D1*
X34613Y15209D1*
Y15266D1*
X34599Y15295D1*
X34570Y15324D1*
X34541Y15338D1*
X34369Y15431D2*
X34355Y15459D1*
X34312Y15503D1*
X34613D1*
X34384Y15610D2*
X34369D1*
X34341Y15624D1*
X34326Y15638D1*
X34312Y15667D1*
Y15724D1*
X34326Y15753D1*
X34341Y15767D1*
X34369Y15782D1*
X34398D1*
X34427Y15767D1*
X34470Y15739D1*
X34613Y15595D1*
Y15796D1*
X12405Y14514D2*
X12391Y14543D1*
X12362Y14572D1*
X12333Y14586D1*
X12276D1*
X12247Y14572D1*
X12218Y14543D1*
X12204Y14514D1*
X12190Y14471D1*
Y14399D1*
X12204Y14356D1*
X12218Y14328D1*
X12247Y14299D1*
X12276Y14285D1*
X12333D1*
X12362Y14299D1*
X12391Y14328D1*
X12405Y14356D1*
X12497Y14528D2*
X12526Y14543D1*
X12569Y14586D1*
Y14285D1*
X12691Y14586D2*
X12848D1*
X12763Y14471D1*
X12806D1*
X12834Y14457D1*
X12848Y14442D1*
X12863Y14399D1*
Y14371D1*
X12848Y14328D1*
X12820Y14299D1*
X12777Y14285D1*
X12734D1*
X12691Y14299D1*
X12677Y14313D1*
X12662Y14342D1*
X33558Y15180D2*
X33529Y15165D1*
X33500Y15136D1*
X33486Y15108D1*
Y15051D1*
X33500Y15022D1*
X33529Y14993D1*
X33558Y14979D1*
X33601Y14964D1*
X33673D1*
X33715Y14979D1*
X33744Y14993D1*
X33773Y15022D1*
X33787Y15051D1*
Y15108D1*
X33773Y15136D1*
X33744Y15165D1*
X33715Y15180D1*
X33544Y15272D2*
X33529Y15301D1*
X33486Y15344D1*
X33787D1*
Y15580D2*
X33486D1*
X33687Y15437D1*
Y15652D1*
X10703Y12195D2*
X10675Y12180D1*
X10646Y12151D1*
X10632Y12123D1*
Y12066D1*
X10646Y12037D1*
X10675Y12008D1*
X10703Y11994D1*
X10746Y11979D1*
X10818D1*
X10861Y11994D1*
X10890Y12008D1*
X10918Y12037D1*
X10933Y12066D1*
Y12123D1*
X10918Y12151D1*
X10890Y12180D1*
X10861Y12195D1*
X10689Y12287D2*
X10675Y12316D1*
X10632Y12359D1*
X10933D1*
X10632Y12624D2*
Y12481D1*
X10761Y12466D1*
X10747Y12481D1*
X10732Y12524D1*
Y12566D1*
X10747Y12610D1*
X10775Y12638D1*
X10818Y12653D1*
X10847D1*
X10890Y12638D1*
X10919Y12610D1*
X10933Y12566D1*
Y12524D1*
X10919Y12481D1*
X10904Y12466D1*
X10876Y12452D1*
X16195Y12202D2*
X16167Y12188D1*
X16138Y12159D1*
X16124Y12130D1*
Y12073D1*
X16138Y12044D1*
X16167Y12015D1*
X16195Y12001D1*
X16238Y11987D1*
X16310D1*
X16353Y12001D1*
X16382Y12015D1*
X16411Y12044D1*
X16425Y12073D1*
Y12130D1*
X16411Y12159D1*
X16382Y12188D1*
X16353Y12202D1*
X16181Y12294D2*
X16167Y12323D1*
X16124Y12366D1*
X16425D1*
X16167Y12631D2*
X16138Y12617D1*
X16124Y12574D1*
Y12545D1*
X16138Y12502D1*
X16181Y12473D1*
X16253Y12459D1*
X16325D1*
X16382Y12473D1*
X16411Y12502D1*
X16425Y12545D1*
Y12560D1*
X16411Y12602D1*
X16382Y12631D1*
X16339Y12645D1*
X16325D1*
X16282Y12631D1*
X16253Y12602D1*
X16239Y12560D1*
Y12545D1*
X16253Y12502D1*
X16282Y12473D1*
X16325Y12459D1*
X21687Y12195D2*
X21659Y12180D1*
X21630Y12151D1*
X21616Y12123D1*
Y12066D1*
X21630Y12037D1*
X21659Y12008D1*
X21687Y11994D1*
X21731Y11979D1*
X21803D1*
X21845Y11994D1*
X21874Y12008D1*
X21903Y12037D1*
X21917Y12066D1*
Y12123D1*
X21903Y12151D1*
X21874Y12180D1*
X21845Y12195D1*
X21674Y12287D2*
X21659Y12316D1*
X21616Y12359D1*
X21917D1*
Y12509D2*
X21616Y12653D1*
Y12452D1*
X27219Y12195D2*
X27190Y12180D1*
X27162Y12152D1*
X27147Y12123D1*
Y12066D1*
X27162Y12037D1*
X27190Y12008D1*
X27219Y11994D1*
X27262Y11979D1*
X27334D1*
X27377Y11994D1*
X27406Y12008D1*
X27434Y12037D1*
X27449Y12066D1*
Y12123D1*
X27434Y12152D1*
X27406Y12180D1*
X27377Y12195D1*
X27205Y12287D2*
X27190Y12316D1*
X27148Y12359D1*
X27449D1*
X27148Y12524D2*
X27162Y12481D1*
X27190Y12466D1*
X27219D1*
X27248Y12481D1*
X27262Y12509D1*
X27277Y12567D1*
X27291Y12610D1*
X27320Y12638D1*
X27348Y12653D1*
X27391D1*
X27420Y12638D1*
X27435Y12624D1*
X27449Y12581D1*
Y12524D1*
X27435Y12481D1*
X27420Y12466D1*
X27391Y12452D1*
X27348D1*
X27320Y12466D1*
X27291Y12495D1*
X27277Y12538D1*
X27262Y12595D1*
X27248Y12624D1*
X27219Y12638D1*
X27190D1*
X27162Y12624D1*
X27148Y12581D1*
Y12524D1*
X32101Y12202D2*
X32072Y12187D1*
X32043Y12159D1*
X32029Y12130D1*
Y12073D1*
X32043Y12044D1*
X32072Y12015D1*
X32101Y12001D1*
X32144Y11986D1*
X32216D1*
X32259Y12001D1*
X32288Y12015D1*
X32316Y12044D1*
X32331Y12073D1*
Y12130D1*
X32316Y12159D1*
X32288Y12187D1*
X32259Y12202D1*
X32087Y12294D2*
X32072Y12323D1*
X32030Y12366D1*
X32331D1*
X32130Y12646D2*
X32173Y12631D1*
X32202Y12602D1*
X32216Y12559D1*
Y12545D1*
X32202Y12502D1*
X32173Y12473D1*
X32130Y12459D1*
X32115D1*
X32072Y12473D1*
X32044Y12502D1*
X32030Y12545D1*
Y12559D1*
X32044Y12602D1*
X32072Y12631D1*
X32130Y12646D1*
X32202D1*
X32273Y12631D1*
X32316Y12602D1*
X32331Y12559D1*
Y12531D1*
X32316Y12488D1*
X32288Y12473D1*
X37613Y12130D2*
X37584Y12116D1*
X37555Y12087D1*
X37541Y12058D1*
Y12001D1*
X37555Y11972D1*
X37584Y11944D1*
X37613Y11929D1*
X37656Y11915D1*
X37728D1*
X37771Y11929D1*
X37799Y11944D1*
X37828Y11972D1*
X37842Y12001D1*
Y12058D1*
X37828Y12087D1*
X37799Y12116D1*
X37771Y12130D1*
X37613Y12237D2*
X37599D1*
X37570Y12252D1*
X37556Y12266D1*
X37541Y12295D1*
Y12352D1*
X37556Y12381D1*
X37570Y12395D1*
X37599Y12409D1*
X37627D1*
X37656Y12395D1*
X37699Y12366D1*
X37842Y12223D1*
Y12424D1*
X37541Y12602D2*
X37556Y12559D1*
X37599Y12531D1*
X37670Y12516D1*
X37713D1*
X37785Y12531D1*
X37828Y12559D1*
X37842Y12602D1*
Y12631D1*
X37828Y12674D1*
X37785Y12703D1*
X37713Y12717D1*
X37670D1*
X37599Y12703D1*
X37556Y12674D1*
X37541Y12631D1*
Y12602D1*
X37599Y12703D2*
X37785Y12531D1*
X43124Y12195D2*
X43096Y12180D1*
X43067Y12151D1*
X43053Y12123D1*
Y12066D1*
X43067Y12037D1*
X43096Y12008D1*
X43124Y11994D1*
X43168Y11979D1*
X43240D1*
X43282Y11994D1*
X43311Y12008D1*
X43340Y12037D1*
X43354Y12066D1*
Y12123D1*
X43340Y12151D1*
X43311Y12180D1*
X43282Y12195D1*
X43125Y12302D2*
X43111D1*
X43082Y12316D1*
X43067Y12330D1*
X43053Y12359D1*
Y12416D1*
X43067Y12445D1*
X43082Y12459D1*
X43111Y12474D1*
X43139D1*
X43168Y12459D1*
X43211Y12431D1*
X43354Y12287D1*
Y12488D1*
X43111Y12581D2*
X43096Y12610D1*
X43053Y12653D1*
X43354D1*
X48636Y12130D2*
X48608Y12116D1*
X48579Y12087D1*
X48565Y12058D1*
Y12001D1*
X48579Y11972D1*
X48608Y11944D1*
X48636Y11929D1*
X48679Y11915D1*
X48751D1*
X48794Y11929D1*
X48823Y11944D1*
X48852Y11972D1*
X48866Y12001D1*
Y12058D1*
X48852Y12087D1*
X48823Y12116D1*
X48794Y12130D1*
X48637Y12237D2*
X48622D1*
X48594Y12252D1*
X48579Y12266D1*
X48565Y12295D1*
Y12352D1*
X48579Y12381D1*
X48594Y12395D1*
X48622Y12409D1*
X48651D1*
X48680Y12395D1*
X48723Y12366D1*
X48866Y12223D1*
Y12424D1*
X48637Y12531D2*
X48622D1*
X48594Y12545D1*
X48579Y12559D1*
X48565Y12588D1*
Y12646D1*
X48579Y12674D1*
X48594Y12688D1*
X48622Y12703D1*
X48651D1*
X48680Y12688D1*
X48723Y12660D1*
X48866Y12516D1*
Y12717D1*
X10171Y8561D2*
X10142Y8547D1*
X10113Y8518D1*
X10099Y8489D1*
Y8432D1*
X10113Y8403D1*
X10142Y8374D1*
X10171Y8360D1*
X10214Y8346D1*
X10286D1*
X10329Y8360D1*
X10357Y8374D1*
X10386Y8403D1*
X10401Y8432D1*
Y8489D1*
X10386Y8518D1*
X10357Y8547D1*
X10329Y8561D1*
X10171Y8668D2*
X10157D1*
X10128Y8682D1*
X10114Y8697D1*
X10099Y8725D1*
Y8783D1*
X10114Y8811D1*
X10128Y8826D1*
X10157Y8840D1*
X10185D1*
X10214Y8826D1*
X10257Y8797D1*
X10401Y8653D1*
Y8854D1*
X10099Y8976D2*
Y9133D1*
X10214Y9048D1*
Y9091D1*
X10228Y9119D1*
X10243Y9133D1*
X10286Y9148D1*
X10314D1*
X10357Y9133D1*
X10386Y9105D1*
X10401Y9062D1*
Y9019D1*
X10386Y8976D1*
X10372Y8962D1*
X10343Y8947D1*
X15683Y8554D2*
X15654Y8539D1*
X15625Y8511D1*
X15611Y8482D1*
Y8425D1*
X15625Y8396D1*
X15654Y8367D1*
X15683Y8353D1*
X15726Y8338D1*
X15798D1*
X15840Y8353D1*
X15869Y8367D1*
X15898Y8396D1*
X15912Y8425D1*
Y8482D1*
X15898Y8511D1*
X15869Y8539D1*
X15840Y8554D1*
X15683Y8661D2*
X15669D1*
X15640Y8675D1*
X15625Y8689D1*
X15611Y8718D1*
Y8776D1*
X15625Y8804D1*
X15640Y8818D1*
X15669Y8833D1*
X15697D1*
X15726Y8818D1*
X15769Y8790D1*
X15912Y8646D1*
Y8847D1*
Y9084D2*
X15611D1*
X15812Y8940D1*
Y9155D1*
X21194Y8561D2*
X21166Y8547D1*
X21137Y8518D1*
X21123Y8489D1*
Y8432D1*
X21137Y8403D1*
X21166Y8374D1*
X21194Y8360D1*
X21237Y8346D1*
X21309D1*
X21352Y8360D1*
X21381Y8374D1*
X21410Y8403D1*
X21424Y8432D1*
Y8489D1*
X21410Y8518D1*
X21381Y8547D1*
X21352Y8561D1*
X21195Y8668D2*
X21180D1*
X21152Y8682D1*
X21137Y8697D1*
X21123Y8725D1*
Y8783D1*
X21137Y8811D1*
X21152Y8826D1*
X21180Y8840D1*
X21209D1*
X21238Y8826D1*
X21281Y8797D1*
X21424Y8653D1*
Y8854D1*
X21123Y9119D2*
Y8976D1*
X21252Y8962D1*
X21238Y8976D1*
X21223Y9019D1*
Y9062D1*
X21238Y9105D1*
X21266Y9134D1*
X21309Y9148D1*
X21338D1*
X21381Y9134D1*
X21410Y9105D1*
X21424Y9062D1*
Y9019D1*
X21410Y8976D1*
X21395Y8962D1*
X21367Y8947D1*
X26706Y8568D2*
X26678Y8554D1*
X26649Y8525D1*
X26634Y8496D1*
Y8439D1*
X26649Y8410D1*
X26678Y8382D1*
X26706Y8367D1*
X26749Y8353D1*
X26821D1*
X26864Y8367D1*
X26893Y8382D1*
X26921Y8410D1*
X26936Y8439D1*
Y8496D1*
X26921Y8525D1*
X26893Y8554D1*
X26864Y8568D1*
X26706Y8675D2*
X26692D1*
X26663Y8690D1*
X26649Y8704D1*
X26635Y8733D1*
Y8790D1*
X26649Y8819D1*
X26663Y8833D1*
X26692Y8847D1*
X26721D1*
X26750Y8833D1*
X26792Y8804D1*
X26936Y8661D1*
Y8862D1*
X26678Y9126D2*
X26649Y9112D1*
X26635Y9069D1*
Y9041D1*
X26649Y8997D1*
X26692Y8969D1*
X26764Y8954D1*
X26835D1*
X26893Y8969D1*
X26922Y8997D1*
X26936Y9041D1*
Y9055D1*
X26922Y9098D1*
X26893Y9126D1*
X26850Y9141D1*
X26835D1*
X26792Y9126D1*
X26764Y9098D1*
X26750Y9055D1*
Y9041D1*
X26764Y8997D1*
X26792Y8969D1*
X26835Y8954D1*
X32218Y8561D2*
X32189Y8547D1*
X32161Y8518D1*
X32146Y8489D1*
Y8432D1*
X32161Y8403D1*
X32189Y8374D1*
X32218Y8360D1*
X32261Y8346D1*
X32333D1*
X32376Y8360D1*
X32405Y8374D1*
X32433Y8403D1*
X32448Y8432D1*
Y8489D1*
X32433Y8518D1*
X32405Y8547D1*
X32376Y8561D1*
X32218Y8668D2*
X32204D1*
X32175Y8682D1*
X32161Y8697D1*
X32147Y8725D1*
Y8783D1*
X32161Y8811D1*
X32175Y8826D1*
X32204Y8840D1*
X32233D1*
X32261Y8826D1*
X32304Y8797D1*
X32448Y8653D1*
Y8854D1*
Y9004D2*
X32147Y9148D1*
Y8947D1*
X37730Y8561D2*
X37701Y8547D1*
X37672Y8518D1*
X37658Y8489D1*
Y8432D1*
X37672Y8403D1*
X37701Y8375D1*
X37730Y8360D1*
X37773Y8346D1*
X37845D1*
X37888Y8360D1*
X37916Y8375D1*
X37945Y8403D1*
X37960Y8432D1*
Y8489D1*
X37945Y8518D1*
X37916Y8547D1*
X37888Y8561D1*
X37730Y8668D2*
X37716D1*
X37687Y8682D1*
X37673Y8697D1*
X37658Y8726D1*
Y8783D1*
X37673Y8811D1*
X37687Y8826D1*
X37716Y8840D1*
X37744D1*
X37773Y8826D1*
X37816Y8797D1*
X37960Y8654D1*
Y8855D1*
X37658Y9019D2*
X37673Y8976D1*
X37701Y8961D1*
X37730D1*
X37759Y8976D1*
X37773Y9005D1*
X37787Y9062D1*
X37802Y9105D1*
X37831Y9134D1*
X37859Y9148D1*
X37902D1*
X37931Y9134D1*
X37945Y9119D1*
X37960Y9076D1*
Y9019D1*
X37945Y8976D1*
X37931Y8961D1*
X37902Y8947D1*
X37859D1*
X37831Y8961D1*
X37802Y8990D1*
X37787Y9033D1*
X37773Y9090D1*
X37759Y9119D1*
X37730Y9134D1*
X37701D1*
X37673Y9119D1*
X37658Y9076D1*
Y9019D1*
X43242Y8568D2*
X43213Y8554D1*
X43184Y8525D1*
X43170Y8496D1*
Y8439D1*
X43184Y8410D1*
X43213Y8382D1*
X43242Y8367D1*
X43285Y8353D1*
X43357D1*
X43399Y8367D1*
X43428Y8382D1*
X43457Y8410D1*
X43471Y8439D1*
Y8496D1*
X43457Y8525D1*
X43428Y8554D1*
X43399Y8568D1*
X43242Y8675D2*
X43228D1*
X43199Y8689D1*
X43185Y8704D1*
X43170Y8733D1*
Y8790D1*
X43185Y8818D1*
X43199Y8833D1*
X43228Y8847D1*
X43256D1*
X43285Y8833D1*
X43328Y8804D1*
X43471Y8661D1*
Y8862D1*
X43270Y9141D2*
X43314Y9126D1*
X43342Y9098D1*
X43357Y9055D1*
Y9040D1*
X43342Y8997D1*
X43314Y8969D1*
X43270Y8954D1*
X43256D1*
X43213Y8969D1*
X43185Y8997D1*
X43170Y9040D1*
Y9055D1*
X43185Y9098D1*
X43213Y9126D1*
X43270Y9141D1*
X43342D1*
X43414Y9126D1*
X43457Y9098D1*
X43471Y9055D1*
Y9026D1*
X43457Y8983D1*
X43428Y8969D1*
X48753Y8561D2*
X48725Y8547D1*
X48696Y8518D1*
X48682Y8489D1*
Y8432D1*
X48696Y8403D1*
X48725Y8374D1*
X48753Y8360D1*
X48796Y8346D1*
X48868D1*
X48911Y8360D1*
X48940Y8374D1*
X48969Y8403D1*
X48983Y8432D1*
Y8489D1*
X48969Y8518D1*
X48940Y8547D1*
X48911Y8561D1*
X48682Y8682D2*
Y8840D1*
X48797Y8754D1*
Y8797D1*
X48811Y8826D1*
X48825Y8840D1*
X48868Y8854D1*
X48897D1*
X48940Y8840D1*
X48969Y8811D1*
X48983Y8768D1*
Y8725D1*
X48969Y8682D1*
X48954Y8668D1*
X48926Y8653D1*
X48682Y9033D2*
X48696Y8990D1*
X48739Y8961D1*
X48811Y8947D1*
X48854D1*
X48926Y8961D1*
X48969Y8990D1*
X48983Y9033D1*
Y9062D1*
X48969Y9105D1*
X48926Y9133D1*
X48854Y9148D1*
X48811D1*
X48739Y9133D1*
X48696Y9105D1*
X48682Y9062D1*
Y9033D1*
X48739Y9133D2*
X48926Y8961D1*
X54806Y9120D2*
X54792Y9148D1*
X54763Y9177D1*
X54735Y9191D1*
X54677D1*
X54648Y9177D1*
X54620Y9148D1*
X54605Y9120D1*
X54591Y9077D1*
Y9005D1*
X54605Y8962D1*
X54620Y8933D1*
X54648Y8904D1*
X54677Y8890D1*
X54735D1*
X54763Y8904D1*
X54792Y8933D1*
X54806Y8962D1*
X54928Y9191D2*
X55085D1*
X54999Y9076D1*
X55043D1*
X55071Y9062D1*
X55085Y9048D1*
X55100Y9005D1*
Y8976D1*
X55085Y8933D1*
X55057Y8904D1*
X55014Y8890D1*
X54971D1*
X54928Y8904D1*
X54914Y8919D1*
X54899Y8947D1*
X55193Y9134D2*
X55221Y9148D1*
X55265Y9191D1*
Y8890D1*
X7669Y12605D2*
X7482D1*
Y12303D1*
Y12461D2*
X7597D1*
X7761Y12547D2*
X7790Y12562D1*
X7833Y12604D1*
Y12303D1*
X29871Y23503D2*
X30000D1*
X30043Y23518D1*
X30058Y23532D1*
X30072Y23561D1*
Y23590D1*
X30058Y23618D1*
X30043Y23633D1*
X30000Y23647D1*
X29871D1*
Y23346D1*
X29971Y23503D2*
X30072Y23346D1*
X30164Y23589D2*
X30193Y23604D1*
X30236Y23647D1*
Y23346D1*
X54120Y23484D2*
X54249D1*
X54292Y23498D1*
X54306Y23513D1*
X54321Y23541D1*
Y23570D1*
X54306Y23598D1*
X54292Y23613D1*
X54249Y23627D1*
X54120D1*
Y23326D1*
X54220Y23484D2*
X54321Y23326D1*
X54428Y23555D2*
Y23570D1*
X54442Y23598D1*
X54456Y23613D1*
X54485Y23627D1*
X54543D1*
X54571Y23613D1*
X54585Y23598D1*
X54600Y23570D1*
Y23541D1*
X54585Y23512D1*
X54557Y23469D1*
X54413Y23326D1*
X54614D1*
X29806Y22834D2*
X29935D1*
X29978Y22849D1*
X29993Y22863D1*
X30007Y22891D1*
Y22920D1*
X29993Y22949D1*
X29978Y22963D1*
X29935Y22978D1*
X29806D1*
Y22676D1*
X29907Y22834D2*
X30007Y22676D1*
X30129Y22977D2*
X30286D1*
X30200Y22863D1*
X30243D1*
X30272Y22848D1*
X30286Y22834D1*
X30301Y22791D1*
Y22762D1*
X30286Y22719D1*
X30258Y22691D1*
X30215Y22676D1*
X30172D1*
X30129Y22691D1*
X30114Y22705D1*
X30100Y22734D1*
X29799Y22165D2*
X29928D1*
X29971Y22179D1*
X29986Y22194D1*
X30000Y22222D1*
Y22251D1*
X29986Y22280D1*
X29971Y22294D1*
X29928Y22308D1*
X29799D1*
Y22007D1*
X29900Y22165D2*
X30000Y22007D1*
X30236D2*
Y22308D1*
X30093Y22107D1*
X30308D1*
X29806Y21496D2*
X29935D1*
X29978Y21510D1*
X29993Y21524D1*
X30007Y21553D1*
Y21582D1*
X29993Y21610D1*
X29978Y21625D1*
X29935Y21639D1*
X29806D1*
Y21338D1*
X29907Y21496D2*
X30007Y21338D1*
X30272Y21639D2*
X30129D1*
X30114Y21510D1*
X30129Y21524D1*
X30172Y21539D1*
X30215D1*
X30258Y21524D1*
X30287Y21496D1*
X30301Y21452D1*
Y21424D1*
X30287Y21381D1*
X30258Y21352D1*
X30215Y21338D1*
X30172D1*
X30129Y21352D1*
X30114Y21367D1*
X30100Y21395D1*
X29814Y20826D2*
X29943D1*
X29986Y20841D1*
X30000Y20855D1*
X30015Y20884D1*
Y20912D1*
X30000Y20941D1*
X29986Y20956D1*
X29943Y20970D1*
X29814D1*
Y20668D1*
X29914Y20826D2*
X30015Y20668D1*
X30279Y20927D2*
X30265Y20955D1*
X30222Y20969D1*
X30193D1*
X30150Y20955D1*
X30121Y20912D1*
X30107Y20840D1*
Y20769D1*
X30121Y20711D1*
X30150Y20683D1*
X30193Y20668D1*
X30208D1*
X30250Y20683D1*
X30279Y20711D1*
X30294Y20755D1*
Y20769D1*
X30279Y20812D1*
X30250Y20840D1*
X30208Y20855D1*
X30193D1*
X30150Y20840D1*
X30121Y20812D1*
X30107Y20769D1*
X29806Y20157D2*
X29935D1*
X29978Y20172D1*
X29993Y20186D1*
X30007Y20214D1*
Y20243D1*
X29993Y20272D1*
X29978Y20286D1*
X29935Y20301D1*
X29806D1*
Y19999D1*
X29907Y20157D2*
X30007Y19999D1*
X30157D2*
X30301Y20300D1*
X30100D1*
X29806Y19488D2*
X29935D1*
X29979Y19502D1*
X29993Y19516D1*
X30007Y19545D1*
Y19574D1*
X29993Y19602D1*
X29979Y19617D1*
X29935Y19631D1*
X29806D1*
Y19330D1*
X29907Y19488D2*
X30007Y19330D1*
X30172Y19631D2*
X30129Y19617D1*
X30114Y19588D1*
Y19559D1*
X30129Y19531D1*
X30157Y19516D1*
X30215Y19502D1*
X30258Y19488D1*
X30286Y19459D1*
X30301Y19430D1*
Y19387D1*
X30286Y19359D1*
X30272Y19344D1*
X30229Y19330D1*
X30172D1*
X30129Y19344D1*
X30114Y19359D1*
X30100Y19387D1*
Y19430D1*
X30114Y19459D1*
X30143Y19488D1*
X30186Y19502D1*
X30243Y19516D1*
X30272Y19531D1*
X30286Y19559D1*
Y19588D1*
X30272Y19617D1*
X30229Y19631D1*
X30172D1*
X29813Y18818D2*
X29942D1*
X29986Y18833D1*
X30000Y18847D1*
X30014Y18876D1*
Y18905D1*
X30000Y18933D1*
X29986Y18948D1*
X29942Y18962D1*
X29813D1*
Y18660D1*
X29914Y18818D2*
X30014Y18660D1*
X30294Y18861D2*
X30279Y18818D1*
X30251Y18789D1*
X30208Y18775D1*
X30193D1*
X30150Y18789D1*
X30122Y18818D1*
X30107Y18861D1*
Y18876D1*
X30122Y18919D1*
X30150Y18947D1*
X30193Y18962D1*
X30208D1*
X30251Y18947D1*
X30279Y18919D1*
X30294Y18861D1*
Y18789D1*
X30279Y18718D1*
X30251Y18675D1*
X30208Y18660D1*
X30179D1*
X30136Y18675D1*
X30122Y18704D1*
X29724Y18149D2*
X29853D1*
X29896Y18164D1*
X29911Y18178D1*
X29925Y18206D1*
Y18235D1*
X29911Y18264D1*
X29896Y18278D1*
X29853Y18293D1*
X29724D1*
Y17991D1*
X29824Y18149D2*
X29925Y17991D1*
X30018Y18235D2*
X30046Y18250D1*
X30090Y18292D1*
Y17991D1*
X30268Y18292D2*
X30225Y18278D1*
X30196Y18235D1*
X30182Y18163D1*
Y18120D1*
X30196Y18049D1*
X30225Y18005D1*
X30268Y17991D1*
X30297D1*
X30340Y18005D1*
X30369Y18049D1*
X30383Y18120D1*
Y18163D1*
X30369Y18235D1*
X30340Y18278D1*
X30297Y18292D1*
X30268D1*
X30369Y18235D2*
X30196Y18049D1*
X32835Y11950D2*
Y12079D1*
X32821Y12122D1*
X32806Y12137D1*
X32778Y12151D1*
X32749D1*
X32720Y12137D1*
X32706Y12122D1*
X32692Y12079D1*
Y11950D1*
X32993D1*
X32835Y12050D2*
X32993Y12151D1*
X32749Y12244D2*
X32735Y12272D1*
X32692Y12315D1*
X32993D1*
X32749Y12408D2*
X32735Y12437D1*
X32692Y12480D1*
X32993D1*
X38347Y11885D2*
Y12014D1*
X38332Y12058D1*
X38318Y12072D1*
X38290Y12086D1*
X38261D1*
X38232Y12072D1*
X38218Y12058D1*
X38203Y12014D1*
Y11885D1*
X38505D1*
X38347Y11986D2*
X38505Y12086D1*
X38261Y12179D2*
X38247Y12208D1*
X38204Y12251D1*
X38505D1*
X38275Y12358D2*
X38261D1*
X38232Y12372D1*
X38218Y12387D1*
X38204Y12416D1*
Y12473D1*
X38218Y12501D1*
X38232Y12516D1*
X38261Y12530D1*
X38290D1*
X38318Y12516D1*
X38361Y12487D1*
X38505Y12344D1*
Y12545D1*
X43859Y11885D2*
Y12014D1*
X43844Y12058D1*
X43830Y12072D1*
X43801Y12086D1*
X43773D1*
X43744Y12072D1*
X43729Y12058D1*
X43715Y12014D1*
Y11885D1*
X44017D1*
X43859Y11986D2*
X44017Y12086D1*
X43773Y12179D2*
X43758Y12208D1*
X43716Y12251D1*
X44017D1*
X43716Y12372D2*
Y12530D1*
X43830Y12444D1*
Y12487D1*
X43845Y12516D1*
X43859Y12530D1*
X43902Y12545D1*
X43930D1*
X43974Y12530D1*
X44002Y12501D1*
X44017Y12458D1*
Y12415D1*
X44002Y12372D1*
X43988Y12358D1*
X43959Y12344D1*
X49371Y11878D2*
Y12007D1*
X49356Y12050D1*
X49342Y12065D1*
X49313Y12079D1*
X49284D1*
X49256Y12065D1*
X49241Y12050D1*
X49227Y12007D1*
Y11878D1*
X49528D1*
X49371Y11979D2*
X49528Y12079D1*
X49285Y12172D2*
X49270Y12201D1*
X49227Y12244D1*
X49528D1*
Y12480D2*
X49227D1*
X49428Y12336D1*
Y12552D1*
X10178Y11866D2*
Y11995D1*
X10163Y12038D1*
X10149Y12052D1*
X10120Y12067D1*
X10091D1*
X10063Y12052D1*
X10048Y12038D1*
X10034Y11995D1*
Y11866D1*
X10336D1*
X10178Y11966D2*
X10336Y12067D1*
X10092Y12159D2*
X10077Y12188D1*
X10034Y12231D1*
X10336D1*
X10034Y12496D2*
Y12353D1*
X10163Y12339D1*
X10149Y12353D1*
X10135Y12396D1*
Y12439D1*
X10149Y12482D1*
X10178Y12511D1*
X10221Y12525D1*
X10249D1*
X10292Y12511D1*
X10321Y12482D1*
X10336Y12439D1*
Y12396D1*
X10321Y12353D1*
X10307Y12339D1*
X10278Y12324D1*
X15670Y11873D2*
Y12002D1*
X15655Y12045D1*
X15641Y12060D1*
X15612Y12074D1*
X15584D1*
X15555Y12060D1*
X15541Y12045D1*
X15526Y12002D1*
Y11873D1*
X15828D1*
X15670Y11974D2*
X15828Y12074D1*
X15584Y12167D2*
X15569Y12195D1*
X15527Y12239D1*
X15828D1*
X15569Y12503D2*
X15541Y12489D1*
X15527Y12446D1*
Y12417D1*
X15541Y12374D1*
X15584Y12345D1*
X15656Y12331D1*
X15727D1*
X15785Y12345D1*
X15813Y12374D1*
X15828Y12417D1*
Y12432D1*
X15813Y12474D1*
X15785Y12503D1*
X15741Y12518D1*
X15727D1*
X15684Y12503D1*
X15656Y12474D1*
X15641Y12432D1*
Y12417D1*
X15656Y12374D1*
X15684Y12345D1*
X15727Y12331D1*
X21162Y11866D2*
Y11995D1*
X21147Y12038D1*
X21133Y12052D1*
X21105Y12067D1*
X21076D1*
X21047Y12052D1*
X21033Y12038D1*
X21018Y11995D1*
Y11866D1*
X21320D1*
X21162Y11966D2*
X21320Y12067D1*
X21076Y12159D2*
X21061Y12188D1*
X21019Y12231D1*
X21320D1*
Y12381D2*
X21019Y12525D1*
Y12324D1*
X26693Y11866D2*
Y11995D1*
X26679Y12038D1*
X26665Y12053D1*
X26636Y12067D1*
X26607D1*
X26579Y12053D1*
X26564Y12038D1*
X26550Y11995D1*
Y11866D1*
X26851D1*
X26693Y11966D2*
X26851Y12067D1*
X26608Y12160D2*
X26593Y12188D1*
X26550Y12231D1*
X26851D1*
X26550Y12396D2*
X26564Y12353D1*
X26593Y12338D1*
X26622D1*
X26650Y12353D1*
X26665Y12381D1*
X26679Y12439D1*
X26693Y12482D1*
X26722Y12510D1*
X26751Y12525D1*
X26794D1*
X26822Y12510D1*
X26837Y12496D1*
X26851Y12453D1*
Y12396D1*
X26837Y12353D1*
X26822Y12338D1*
X26794Y12324D1*
X26751D1*
X26722Y12338D1*
X26693Y12367D1*
X26679Y12410D1*
X26665Y12467D1*
X26650Y12496D1*
X26622Y12510D1*
X26593D1*
X26564Y12496D1*
X26550Y12453D1*
Y12396D1*
X8700Y18825D2*
Y18610D1*
X8714Y18567D1*
X8743Y18538D1*
X8786Y18524D1*
X8815D1*
X8858Y18538D1*
X8887Y18567D1*
X8901Y18610D1*
Y18825D1*
X8994Y18767D2*
X9023Y18782D1*
X9066Y18825D1*
Y18524D1*
X30662Y13372D2*
Y13157D1*
X30676Y13114D1*
X30705Y13085D1*
X30748Y13071D1*
X30777D1*
X30820Y13085D1*
X30849Y13114D1*
X30863Y13157D1*
Y13372D1*
X30970Y13300D2*
Y13315D1*
X30985Y13343D1*
X30999Y13358D1*
X31028Y13372D1*
X31085D1*
X31114Y13358D1*
X31128Y13343D1*
X31142Y13315D1*
Y13286D1*
X31128Y13257D1*
X31099Y13214D1*
X30956Y13071D1*
X31157D1*
X52312Y8924D2*
Y8708D1*
X52326Y8665D1*
X52355Y8637D1*
X52398Y8622D1*
X52427D1*
X52470Y8637D1*
X52498Y8665D1*
X52513Y8708D1*
Y8924D1*
X52634Y8923D2*
X52792D1*
X52706Y8809D1*
X52749D1*
X52777Y8794D1*
X52792Y8780D1*
X52806Y8737D1*
Y8708D1*
X52792Y8665D1*
X52763Y8636D1*
X52720Y8622D1*
X52677D1*
X52634Y8636D1*
X52620Y8651D1*
X52605Y8680D1*
X39098Y21220D2*
X39069Y21191D1*
X39055Y21148D1*
Y21091D1*
X39069Y21048D1*
X39098Y21019D1*
X39126D1*
X39155Y21034D1*
X39169Y21048D1*
X39184Y21076D1*
X39212Y21163D1*
X39227Y21191D1*
X39241Y21206D1*
X39270Y21220D1*
X39313D1*
X39341Y21191D1*
X39356Y21148D1*
Y21091D1*
X39341Y21048D1*
X39313Y21019D1*
X39126Y21528D2*
X39098Y21514D1*
X39069Y21485D1*
X39055Y21456D1*
Y21399D1*
X39069Y21370D1*
X39098Y21341D1*
X39126Y21327D1*
X39169Y21313D1*
X39241D1*
X39284Y21327D1*
X39313Y21341D1*
X39341Y21370D1*
X39356Y21399D1*
Y21456D1*
X39341Y21485D1*
X39313Y21514D1*
X39284Y21528D1*
X39055Y21620D2*
X39356D1*
Y21793D1*
X7148Y21163D2*
X6847D1*
X7148Y20869D2*
X6847D1*
X7148Y21070D1*
X6847D1*
X7148Y20485D2*
X6847Y20370D1*
X7148Y20255D1*
X8061Y20976D2*
X8089Y20990D1*
X8118Y21019D1*
X8132Y21048D1*
Y21105D1*
X8118Y21134D1*
X8089Y21163D1*
X8061Y21177D1*
X8018Y21191D1*
X7946D1*
X7903Y21177D1*
X7874Y21163D1*
X7845Y21134D1*
X7831Y21105D1*
Y21048D1*
X7845Y21019D1*
X7874Y20990D1*
X7903Y20976D1*
X7946D1*
Y21048D1*
X8132Y20683D2*
X7831D1*
X8132Y20884D1*
X7831D1*
X8132Y20590D2*
X7831D1*
Y20490D1*
X7845Y20446D1*
X7874Y20418D1*
X7903Y20403D1*
X7946Y20389D1*
X8018D1*
X8061Y20403D1*
X8089Y20418D1*
X8118Y20446D1*
X8132Y20490D1*
Y20590D1*
X9136Y21146D2*
Y20988D1*
X9021Y21074D1*
Y21031D1*
X9007Y21003D1*
X8993Y20988D1*
X8950Y20974D1*
X8921D1*
X8878Y20988D1*
X8849Y21017D1*
X8835Y21060D1*
Y21103D1*
X8849Y21146D1*
X8864Y21160D1*
X8892Y21175D1*
X8864Y20867D2*
X8849Y20881D1*
X8835Y20867D1*
X8849Y20852D1*
X8864Y20867D1*
X9136Y20731D2*
Y20573D1*
X9021Y20659D1*
Y20616D1*
X9007Y20588D1*
X8993Y20573D1*
X8950Y20559D1*
X8921D1*
X8878Y20573D1*
X8849Y20602D1*
X8835Y20645D1*
Y20688D1*
X8849Y20731D1*
X8864Y20745D1*
X8892Y20760D1*
X9136Y20466D2*
X8835Y20351D1*
X9136Y20237D1*
X10898Y20604D2*
X10869Y20590D1*
X10840Y20561D1*
X10826Y20533D1*
Y20475D1*
X10840Y20446D1*
X10869Y20418D1*
X10898Y20403D1*
X10941Y20389D1*
X11013D1*
X11056Y20403D1*
X11085Y20418D1*
X11113Y20446D1*
X11128Y20475D1*
Y20533D1*
X11113Y20561D1*
X11085Y20590D1*
X11056Y20604D1*
X11013D1*
Y20533D1*
X10826Y20898D2*
X11128D1*
X10826Y20697D1*
X11128D1*
X10826Y20990D2*
X11128D1*
Y21091D1*
X11113Y21134D1*
X11085Y21163D1*
X11056Y21177D1*
X11013Y21191D1*
X10941D1*
X10898Y21177D1*
X10869Y21163D1*
X10840Y21134D1*
X10826Y21091D1*
Y20990D1*
X11941Y20506D2*
X11913Y20492D1*
X11884Y20463D1*
X11869Y20434D1*
Y20377D1*
X11884Y20348D1*
X11913Y20319D1*
X11941Y20305D1*
X11984Y20291D1*
X12056D1*
X12099Y20305D1*
X12128Y20319D1*
X12156Y20348D1*
X12171Y20377D1*
Y20434D1*
X12156Y20463D1*
X12128Y20492D1*
X12099Y20506D1*
X11869Y20598D2*
X12171D1*
X11869Y20892D2*
X12171D1*
X11869Y20691D1*
X12171D1*
X11869Y20985D2*
X12171Y21099D1*
X11869Y21214D1*
X10179Y21003D2*
Y21146D1*
X10050Y21160D1*
X10064Y21146D1*
X10079Y21103D1*
Y21060D1*
X10064Y21017D1*
X10036Y20988D1*
X9993Y20974D1*
X9964D1*
X9921Y20988D1*
X9892Y21017D1*
X9878Y21060D1*
Y21103D1*
X9892Y21146D1*
X9907Y21160D1*
X9935Y21175D1*
X10180Y20881D2*
X9878Y20766D1*
X10180Y20652D1*
X40039Y20468D2*
X40340D1*
Y20640D1*
X40182Y20733D2*
Y20862D1*
X40168Y20905D1*
X40154Y20919D1*
X40125Y20933D1*
X40096D1*
X40068Y20919D1*
X40053Y20905D1*
X40039Y20862D1*
Y20733D1*
X40340D1*
X40182Y20833D2*
X40340Y20933D1*
X40110Y21241D2*
X40082Y21227D1*
X40053Y21198D1*
X40039Y21170D1*
Y21112D1*
X40053Y21083D1*
X40082Y21055D1*
X40110Y21040D1*
X40154Y21026D1*
X40225D1*
X40268Y21040D1*
X40297Y21055D1*
X40326Y21083D1*
X40340Y21112D1*
Y21170D1*
X40326Y21198D1*
X40297Y21227D1*
X40268Y21241D1*
X40039Y21334D2*
X40340D1*
X40039Y21535D2*
X40240Y21334D1*
X40168Y21406D2*
X40340Y21535D1*
X40039Y21714D2*
X40053Y21671D1*
X40096Y21642D1*
X40168Y21628D1*
X40211D1*
X40283Y21642D1*
X40326Y21671D1*
X40340Y21714D1*
Y21742D1*
X40326Y21785D1*
X40283Y21814D1*
X40211Y21829D1*
X40168D1*
X40096Y21814D1*
X40053Y21785D1*
X40039Y21742D1*
Y21714D1*
X40096Y21814D2*
X40283Y21642D1*
X41062Y20389D2*
X41364D1*
Y20490D1*
X41349Y20533D1*
X41321Y20561D1*
X41292Y20576D1*
X41249Y20590D1*
X41177D1*
X41134Y20576D1*
X41106Y20561D1*
X41077Y20533D1*
X41062Y20490D1*
Y20389D1*
X41364Y20912D2*
X41062Y20797D1*
X41364Y20683D1*
X41263Y20726D2*
Y20869D1*
X41062Y21106D2*
X41364D1*
X41062Y21005D2*
Y21206D1*
X41364Y21528D2*
X41062Y21413D1*
X41364Y21299D1*
X41263Y21342D2*
Y21485D1*
X41063Y21707D2*
X41077Y21664D1*
X41120Y21635D1*
X41192Y21621D1*
X41235D1*
X41306Y21635D1*
X41350Y21664D1*
X41364Y21707D1*
Y21736D1*
X41350Y21779D1*
X41306Y21807D1*
X41235Y21822D1*
X41192D1*
X41120Y21807D1*
X41077Y21779D1*
X41063Y21736D1*
Y21707D1*
X41120Y21807D2*
X41306Y21635D1*
X42047Y20547D2*
X42348D1*
Y20676D1*
X42334Y20719D1*
X42319Y20733D1*
X42291Y20747D1*
X42248D1*
X42219Y20733D1*
X42205Y20719D1*
X42190Y20676D1*
X42176Y20719D1*
X42161Y20733D1*
X42133Y20747D1*
X42104D1*
X42076Y20733D1*
X42061Y20719D1*
X42047Y20676D1*
Y20547D1*
X42190D2*
Y20676D1*
X42118Y21055D2*
X42090Y21041D1*
X42061Y21012D1*
X42047Y20984D1*
Y20926D1*
X42061Y20897D1*
X42090Y20869D1*
X42118Y20854D1*
X42161Y20840D1*
X42233D1*
X42276Y20854D1*
X42305Y20869D1*
X42334Y20897D1*
X42348Y20926D1*
Y20984D1*
X42334Y21012D1*
X42305Y21041D1*
X42276Y21055D1*
X42047Y21148D2*
X42348D1*
Y21320D1*
X42047Y21413D2*
X42348D1*
X42047Y21614D2*
X42248Y21413D1*
X42176Y21484D2*
X42348Y21614D1*
X42104Y21706D2*
X42090Y21735D1*
X42047Y21778D1*
X42348D1*
X43372Y21248D2*
X43070D1*
X43372Y21134D1*
X43070Y21019D1*
X43372D1*
X43228Y21341D2*
Y21470D1*
X43214Y21513D1*
X43199Y21528D1*
X43171Y21542D1*
X43128D1*
X43099Y21528D1*
X43085Y21513D1*
X43070Y21470D1*
Y21341D1*
X43372D1*
X43113Y21807D2*
X43085Y21793D1*
X43071Y21749D1*
Y21721D1*
X43085Y21678D1*
X43128Y21649D1*
X43200Y21635D1*
X43271D1*
X43329Y21649D1*
X43357Y21678D1*
X43372Y21721D1*
Y21735D1*
X43357Y21778D1*
X43329Y21807D1*
X43286Y21821D1*
X43271D1*
X43228Y21807D1*
X43200Y21778D1*
X43185Y21735D1*
Y21721D1*
X43200Y21678D1*
X43228Y21649D1*
X43271Y21635D1*
X44055Y20468D2*
X44356D1*
Y20640D1*
X44198Y20733D2*
Y20862D1*
X44184Y20905D1*
X44169Y20919D1*
X44141Y20933D1*
X44112D1*
X44083Y20919D1*
X44069Y20905D1*
X44055Y20862D1*
Y20733D1*
X44356D1*
X44198Y20833D2*
X44356Y20933D1*
X44126Y21241D2*
X44098Y21227D1*
X44069Y21198D1*
X44055Y21170D1*
Y21112D1*
X44069Y21083D1*
X44098Y21055D1*
X44126Y21040D1*
X44169Y21026D1*
X44241D1*
X44284Y21040D1*
X44313Y21055D1*
X44341Y21083D1*
X44356Y21112D1*
Y21170D1*
X44341Y21198D1*
X44313Y21227D1*
X44284Y21241D1*
X44055Y21334D2*
X44356D1*
X44055Y21535D2*
X44255Y21334D1*
X44184Y21406D2*
X44356Y21535D1*
X44126Y21642D2*
X44112D1*
X44083Y21656D1*
X44069Y21671D1*
X44055Y21700D1*
Y21757D1*
X44069Y21785D1*
X44083Y21800D1*
X44112Y21814D1*
X44141D1*
X44170Y21800D1*
X44212Y21771D1*
X44356Y21628D1*
Y21829D1*
X45039Y20389D2*
X45340D1*
Y20490D1*
X45326Y20533D1*
X45297Y20561D1*
X45268Y20576D1*
X45225Y20590D1*
X45154D1*
X45110Y20576D1*
X45082Y20561D1*
X45053Y20533D1*
X45039Y20490D1*
Y20389D1*
X45340Y20912D2*
X45039Y20797D1*
X45340Y20683D1*
X45240Y20726D2*
Y20869D1*
X45039Y21106D2*
X45340D1*
X45039Y21005D2*
Y21206D1*
X45340Y21528D2*
X45039Y21413D1*
X45340Y21299D1*
X45240Y21342D2*
Y21485D1*
X45111Y21636D2*
X45096D1*
X45068Y21650D1*
X45053Y21664D1*
X45039Y21693D1*
Y21750D1*
X45053Y21779D1*
X45068Y21793D1*
X45096Y21808D1*
X45125D1*
X45154Y21793D1*
X45197Y21765D1*
X45340Y21621D1*
Y21822D1*
X46062Y20428D2*
X46364D1*
Y20558D1*
X46349Y20601D1*
X46335Y20615D1*
X46306Y20629D1*
X46263D1*
X46235Y20615D1*
X46220Y20601D1*
X46206Y20558D1*
X46191Y20601D1*
X46177Y20615D1*
X46149Y20629D1*
X46120D1*
X46091Y20615D1*
X46077Y20601D1*
X46062Y20558D1*
Y20428D1*
X46206D2*
Y20558D1*
X46134Y20937D2*
X46106Y20923D1*
X46077Y20894D1*
X46062Y20866D1*
Y20808D1*
X46077Y20779D1*
X46106Y20751D1*
X46134Y20736D1*
X46177Y20722D1*
X46249D1*
X46292Y20736D1*
X46321Y20751D1*
X46349Y20779D1*
X46364Y20808D1*
Y20866D1*
X46349Y20894D1*
X46321Y20923D1*
X46292Y20937D1*
X46062Y21030D2*
X46364D1*
Y21202D1*
X46062Y21295D2*
X46364D1*
X46062Y21496D2*
X46263Y21295D1*
X46191Y21366D2*
X46364Y21496D1*
X46063Y21617D2*
Y21775D1*
X46177Y21689D1*
Y21732D1*
X46192Y21760D1*
X46206Y21775D1*
X46249Y21789D1*
X46278D1*
X46321Y21775D1*
X46350Y21746D1*
X46364Y21703D1*
Y21660D1*
X46350Y21617D1*
X46335Y21603D1*
X46306Y21588D1*
X47348Y20933D2*
X47047D1*
X47348Y20819D1*
X47047Y20704D1*
X47348D1*
X47047Y21026D2*
X47262D1*
X47305Y21040D1*
X47334Y21069D1*
X47348Y21112D1*
Y21141D1*
X47334Y21184D1*
X47305Y21213D1*
X47262Y21227D1*
X47047D1*
Y21420D2*
X47348D1*
X47047Y21320D2*
Y21521D1*
Y21800D2*
Y21613D1*
X47348D1*
Y21800D1*
X47190Y21613D2*
Y21728D1*
X48142Y21195D2*
X48113Y21181D1*
X48085Y21152D1*
X48070Y21123D1*
Y21066D1*
X48085Y21037D1*
X48113Y21008D1*
X48142Y20994D1*
X48185Y20980D1*
X48257D1*
X48300Y20994D1*
X48329Y21008D1*
X48357Y21037D1*
X48372Y21066D1*
Y21123D1*
X48357Y21152D1*
X48329Y21181D1*
X48300Y21195D1*
X48257D1*
Y21123D1*
X48070Y21488D2*
X48372D1*
X48070Y21287D1*
X48372D1*
X48070Y21581D2*
X48372D1*
Y21682D1*
X48357Y21725D1*
X48329Y21753D1*
X48300Y21768D1*
X48257Y21782D1*
X48185D1*
X48142Y21768D1*
X48113Y21753D1*
X48085Y21725D1*
X48070Y21682D1*
Y21581D1*
X49116Y21069D2*
X49374D1*
X49245Y20940D2*
Y21199D1*
X49094Y21463D2*
Y21320D1*
X49223Y21306D1*
X49209Y21320D1*
X49194Y21363D1*
Y21406D1*
X49209Y21449D1*
X49237Y21478D1*
X49281Y21492D1*
X49309D1*
X49352Y21478D1*
X49381Y21449D1*
X49395Y21406D1*
Y21363D1*
X49381Y21320D1*
X49366Y21306D1*
X49338Y21291D1*
X49094Y21585D2*
X49395Y21700D1*
X49094Y21814D1*
X50100Y20636D2*
X50358D1*
X50229Y20507D2*
Y20765D1*
X50078Y20887D2*
Y21044D1*
X50193Y20959D1*
Y21002D1*
X50207Y21030D1*
X50222Y21044D1*
X50265Y21059D1*
X50293D1*
X50336Y21044D1*
X50365Y21016D1*
X50380Y20973D1*
Y20930D1*
X50365Y20887D1*
X50351Y20873D1*
X50322Y20858D1*
X50351Y21166D2*
X50365Y21152D1*
X50380Y21166D1*
X50365Y21181D1*
X50351Y21166D1*
X50078Y21302D2*
Y21460D1*
X50193Y21374D1*
Y21417D1*
X50207Y21445D1*
X50222Y21460D1*
X50265Y21474D1*
X50293D1*
X50336Y21460D1*
X50365Y21431D1*
X50380Y21388D1*
Y21345D1*
X50365Y21302D1*
X50351Y21288D1*
X50322Y21273D1*
X50078Y21567D2*
X50380Y21682D1*
X50078Y21796D1*
X51134Y21234D2*
X51106Y21220D1*
X51077Y21191D1*
X51062Y21163D1*
Y21105D1*
X51077Y21076D1*
X51106Y21048D1*
X51134Y21033D1*
X51177Y21019D1*
X51249D1*
X51292Y21033D1*
X51321Y21048D1*
X51349Y21076D1*
X51364Y21105D1*
Y21163D1*
X51349Y21191D1*
X51321Y21220D1*
X51292Y21234D1*
X51249D1*
Y21163D1*
X51062Y21528D2*
X51364D1*
X51062Y21327D1*
X51364D1*
X51062Y21620D2*
X51364D1*
Y21721D1*
X51349Y21764D1*
X51321Y21793D1*
X51292Y21807D1*
X51249Y21821D1*
X51177D1*
X51134Y21807D1*
X51106Y21793D1*
X51077Y21764D1*
X51062Y21721D1*
Y21620D1*
X52348Y20284D2*
X52047D1*
X52348Y20169D1*
X52047Y20054D1*
X52348D1*
X52118Y20592D2*
X52090Y20577D1*
X52061Y20549D1*
X52047Y20520D1*
Y20463D1*
X52061Y20434D1*
X52090Y20405D1*
X52118Y20391D1*
X52161Y20377D1*
X52233D1*
X52276Y20391D1*
X52305Y20405D1*
X52334Y20434D1*
X52348Y20463D1*
Y20520D1*
X52334Y20549D1*
X52305Y20577D1*
X52276Y20592D1*
X52047Y20684D2*
X52348D1*
Y20856D1*
X52047Y20949D2*
X52348D1*
X52047Y21150D2*
X52248Y20949D1*
X52176Y21021D2*
X52348Y21150D1*
X52047Y21534D2*
X52348D1*
X52047Y21828D2*
X52348D1*
X52047Y21627D1*
X52348D1*
X40236Y16667D2*
D73*
Y15060D1*
X40772D1*
X41002Y15138D1*
X41156Y15290D1*
X41232Y15444D1*
X41308Y15672D1*
Y16056D1*
X41232Y16285D1*
X41156Y16438D1*
X41002Y16591D1*
X40772Y16667D1*
X40236D1*
X41802D2*
Y15060D1*
X42296Y16667D2*
X43368Y15060D1*
Y16667D2*
X42296Y15060D1*
X44322Y16667D2*
X44168Y16591D1*
X44016Y16438D1*
X43938Y16285D1*
X43862Y16056D1*
Y15672D1*
X43938Y15444D1*
X44016Y15290D1*
X44168Y15138D1*
X44322Y15060D1*
X44628D1*
X44780Y15138D1*
X44934Y15290D1*
X45010Y15444D1*
X45086Y15672D1*
Y16056D1*
X45010Y16285D1*
X44934Y16438D1*
X44780Y16591D1*
X44628Y16667D1*
X44322D1*
X46804Y15060D2*
Y16667D1*
X46192Y15060D1*
X45580Y16667D1*
Y15060D1*
X48853Y16667D2*
Y15060D1*
X49389D1*
X49619Y15138D1*
X49773Y15290D1*
X49849Y15444D1*
X49925Y15672D1*
Y16056D1*
X49849Y16285D1*
X49773Y16438D1*
X49619Y16591D1*
X49389Y16667D1*
X48853D1*
X51645Y15060D2*
X51031Y16667D1*
X50419Y15060D1*
X50649Y15596D2*
X51415D1*
X53286Y16285D2*
X53210Y16438D1*
X53057Y16591D1*
X52904Y16667D1*
X52598D1*
X52445Y16591D1*
X52293Y16438D1*
X52215Y16285D1*
X52139Y16056D1*
Y15672D1*
X52215Y15444D1*
X52293Y15290D1*
X52445Y15138D1*
X52598Y15060D1*
X52904D1*
X53057Y15138D1*
X53210Y15290D1*
X53286Y15444D1*
X40435Y14625D2*
D74*
Y14022D1*
X40636D1*
X40722Y14051D1*
X40779Y14108D1*
X40808Y14166D1*
X40837Y14251D1*
Y14395D1*
X40808Y14481D1*
X40779Y14539D1*
X40722Y14596D1*
X40636Y14625D1*
X40435D1*
X41022D2*
X41050Y14596D1*
X41080Y14625D1*
X41050Y14654D1*
X41022Y14625D1*
X41050Y14424D2*
Y14022D1*
X41609Y14395D2*
Y13936D1*
X41580Y13850D1*
X41552Y13821D1*
X41494Y13792D1*
X41408D1*
X41351Y13821D1*
X41609Y14309D2*
X41552Y14366D1*
X41494Y14395D1*
X41408D1*
X41351Y14366D1*
X41293Y14309D1*
X41265Y14223D1*
Y14165D1*
X41293Y14080D1*
X41351Y14022D1*
X41408Y13993D1*
X41494D1*
X41552Y14022D1*
X41609Y14080D1*
X41794Y14625D2*
X41823Y14596D1*
X41852Y14625D1*
X41823Y14654D1*
X41794Y14625D1*
X41823Y14424D2*
Y14022D1*
X42123Y14625D2*
Y14137D1*
X42152Y14051D1*
X42210Y14022D1*
X42267D1*
X42037Y14424D2*
X42238D1*
X42796D2*
Y14022D1*
Y14338D2*
X42739Y14395D1*
X42681Y14424D1*
X42596D1*
X42538Y14395D1*
X42481Y14338D1*
X42452Y14251D1*
Y14194D1*
X42481Y14108D1*
X42538Y14051D1*
X42596Y14022D1*
X42681D1*
X42739Y14051D1*
X42796Y14108D1*
X42981Y14625D2*
Y14022D1*
X43836Y14625D2*
Y14137D1*
X43865Y14051D1*
X43922Y14022D1*
X43979D1*
X43750Y14424D2*
X43951D1*
X44308D2*
X44251Y14395D1*
X44193Y14338D1*
X44165Y14251D1*
Y14194D1*
X44193Y14108D1*
X44251Y14051D1*
X44308Y14022D1*
X44394D1*
X44452Y14051D1*
X44509Y14108D1*
X44538Y14194D1*
Y14251D1*
X44509Y14338D1*
X44452Y14395D1*
X44394Y14424D1*
X44308D1*
X45766Y14022D2*
X45536Y14625D1*
X45307Y14022D1*
X45393Y14223D2*
X45680D1*
X45951Y14424D2*
Y14022D1*
Y14309D2*
X46038Y14395D1*
X46095Y14424D1*
X46181D1*
X46239Y14395D1*
X46267Y14309D1*
Y14022D1*
X46797Y14424D2*
Y14022D1*
Y14338D2*
X46740Y14395D1*
X46682Y14424D1*
X46596D1*
X46539Y14395D1*
X46482Y14338D1*
X46452Y14251D1*
Y14194D1*
X46482Y14108D1*
X46539Y14051D1*
X46596Y14022D1*
X46682D1*
X46740Y14051D1*
X46797Y14108D1*
X46982Y14625D2*
Y14022D1*
X47310Y14424D2*
X47253Y14395D1*
X47196Y14338D1*
X47167Y14251D1*
Y14194D1*
X47196Y14108D1*
X47253Y14051D1*
X47310Y14022D1*
X47397D1*
X47454Y14051D1*
X47511Y14108D1*
X47541Y14194D1*
Y14251D1*
X47511Y14338D1*
X47454Y14395D1*
X47397Y14424D1*
X47310D1*
X48070Y14395D2*
Y13936D1*
X48042Y13850D1*
X48013Y13821D1*
X47955Y13792D1*
X47869D1*
X47812Y13821D1*
X48070Y14309D2*
X48013Y14366D1*
X47955Y14395D1*
X47869D1*
X47812Y14366D1*
X47754Y14309D1*
X47726Y14223D1*
Y14165D1*
X47754Y14080D1*
X47812Y14022D1*
X47869Y13993D1*
X47955D1*
X48013Y14022D1*
X48070Y14080D1*
X49269Y14481D2*
X49241Y14539D1*
X49183Y14596D1*
X49126Y14625D1*
X49011D1*
X48953Y14596D1*
X48896Y14539D1*
X48867Y14481D1*
X48839Y14395D1*
Y14251D1*
X48867Y14166D1*
X48896Y14108D1*
X48953Y14051D1*
X49011Y14022D1*
X49126D1*
X49183Y14051D1*
X49241Y14108D1*
X49269Y14166D1*
X49598Y14424D2*
X49541Y14395D1*
X49483Y14338D1*
X49454Y14251D1*
Y14194D1*
X49483Y14108D1*
X49541Y14051D1*
X49598Y14022D1*
X49684D1*
X49741Y14051D1*
X49799Y14108D1*
X49828Y14194D1*
Y14251D1*
X49799Y14338D1*
X49741Y14395D1*
X49684Y14424D1*
X49598D1*
X50013D2*
Y14022D1*
Y14309D2*
X50099Y14395D1*
X50157Y14424D1*
X50242D1*
X50300Y14395D1*
X50329Y14309D1*
Y14022D1*
X50514Y14424D2*
X50686Y14022D1*
X50858Y14424D1*
X51043Y14251D2*
X51388D1*
Y14309D1*
X51359Y14367D1*
X51331Y14395D1*
X51273Y14424D1*
X51187D1*
X51130Y14395D1*
X51072Y14338D1*
X51043Y14251D1*
Y14194D1*
X51072Y14108D1*
X51130Y14051D1*
X51187Y14022D1*
X51273D1*
X51331Y14051D1*
X51388Y14108D1*
X51573Y14424D2*
Y14022D1*
Y14251D2*
X51602Y14338D1*
X51659Y14395D1*
X51717Y14424D1*
X51803D1*
X52075Y14625D2*
Y14137D1*
X52103Y14051D1*
X52161Y14022D1*
X52218D1*
X51988Y14424D2*
X52189D1*
X52403Y14251D2*
X52747D1*
Y14309D1*
X52719Y14367D1*
X52690Y14395D1*
X52633Y14424D1*
X52546D1*
X52489Y14395D1*
X52432Y14338D1*
X52403Y14251D1*
Y14194D1*
X52432Y14108D1*
X52489Y14051D1*
X52546Y14022D1*
X52633D1*
X52690Y14051D1*
X52747Y14108D1*
X52933Y14424D2*
Y14022D1*
Y14251D2*
X52962Y14338D1*
X53019Y14395D1*
X53076Y14424D1*
X53163D1*
X13782Y23290D2*
D75*
X13591Y23793D1*
X13399Y23290D1*
X13471Y23458D2*
X13711D1*
X13937Y23793D2*
Y23290D1*
X14272Y23793D2*
X13937Y23458D1*
X14056Y23578D2*
X14272Y23290D1*
X14665D2*
Y23792D1*
X14426Y23458D1*
X14785D1*
X15178Y23290D2*
Y23792D1*
X14939Y23458D1*
X15298D1*
X15692Y23290D2*
Y23792D1*
X15452Y23458D1*
X15811D1*
X16109Y23792D2*
X16037Y23768D1*
X15989Y23696D1*
X15965Y23577D1*
Y23505D1*
X15989Y23386D1*
X16037Y23314D1*
X16109Y23290D1*
X16157D1*
X16228Y23314D1*
X16276Y23386D1*
X16300Y23505D1*
Y23577D1*
X16276Y23696D1*
X16228Y23768D1*
X16157Y23792D1*
X16109D1*
X16276Y23696D2*
X15989Y23386D1*
X16965Y23673D2*
Y23696D1*
X16989Y23744D1*
X17013Y23768D1*
X17061Y23792D1*
X17156D1*
X17204Y23768D1*
X17228Y23744D1*
X17252Y23696D1*
Y23649D1*
X17228Y23601D1*
X17180Y23529D1*
X16941Y23290D1*
X17276D1*
X17669D2*
Y23792D1*
X17430Y23458D1*
X17789D1*
X17943Y23290D2*
X18278Y23792D1*
X18432Y23696D2*
X18481Y23721D1*
X18552Y23792D1*
Y23290D1*
X19018Y23625D2*
X18994Y23553D1*
X18946Y23505D1*
X18874Y23481D1*
X18850D1*
X18779Y23505D1*
X18731Y23553D1*
X18707Y23625D1*
Y23649D1*
X18731Y23721D1*
X18779Y23768D1*
X18850Y23792D1*
X18874D1*
X18946Y23768D1*
X18994Y23721D1*
X19018Y23625D1*
Y23505D1*
X18994Y23386D1*
X18946Y23314D1*
X18874Y23290D1*
X18827D1*
X18755Y23314D1*
X18731Y23362D1*
X19197Y23673D2*
Y23696D1*
X19220Y23744D1*
X19244Y23768D1*
X19292Y23792D1*
X19388D1*
X19435Y23768D1*
X19459Y23744D1*
X19483Y23696D1*
Y23649D1*
X19459Y23601D1*
X19412Y23529D1*
X19172Y23290D1*
X19507D1*
X20267Y23792D2*
X20196Y23768D1*
X20171Y23721D1*
Y23673D1*
X20196Y23625D1*
X20243Y23601D1*
X20339Y23577D1*
X20411Y23553D1*
X20458Y23505D1*
X20482Y23458D1*
Y23386D1*
X20458Y23338D1*
X20434Y23314D1*
X20363Y23290D1*
X20267D1*
X20196Y23314D1*
X20171Y23338D1*
X20148Y23386D1*
Y23458D1*
X20171Y23505D1*
X20219Y23553D1*
X20291Y23577D1*
X20386Y23601D1*
X20434Y23625D1*
X20458Y23673D1*
Y23721D1*
X20434Y23768D1*
X20363Y23792D1*
X20267D1*
X20636Y23541D2*
X20913D1*
X21426Y23673D2*
X21402Y23721D1*
X21354Y23769D1*
X21306Y23793D1*
X21211D1*
X21163Y23769D1*
X21115Y23721D1*
X21091Y23673D1*
X21067Y23601D1*
Y23481D1*
X21091Y23410D1*
X21115Y23362D1*
X21163Y23314D1*
X21211Y23290D1*
X21306D1*
X21354Y23314D1*
X21402Y23362D1*
X21426Y23410D1*
X21580Y23793D2*
Y23290D1*
Y23529D2*
X21652Y23601D1*
X21700Y23625D1*
X21772D1*
X21820Y23601D1*
X21843Y23529D1*
Y23290D1*
X22285Y23625D2*
Y23290D1*
Y23553D2*
X22237Y23601D1*
X22189Y23625D1*
X22118D1*
X22070Y23601D1*
X22022Y23553D1*
X21998Y23481D1*
Y23434D1*
X22022Y23362D1*
X22070Y23314D1*
X22118Y23290D1*
X22189D1*
X22237Y23314D1*
X22285Y23362D1*
X22439Y23625D2*
Y23290D1*
Y23529D2*
X22511Y23601D1*
X22559Y23625D1*
X22630D1*
X22678Y23601D1*
X22702Y23529D1*
Y23290D1*
X22856Y23625D2*
Y23290D1*
Y23529D2*
X22928Y23601D1*
X22976Y23625D1*
X23048D1*
X23096Y23601D1*
X23120Y23529D1*
Y23290D1*
X23274Y23481D2*
X23561D1*
Y23529D1*
X23537Y23578D1*
X23513Y23601D1*
X23465Y23625D1*
X23393D1*
X23346Y23601D1*
X23298Y23553D1*
X23274Y23481D1*
Y23434D1*
X23298Y23362D1*
X23346Y23314D1*
X23393Y23290D1*
X23465D1*
X23513Y23314D1*
X23561Y23362D1*
X23715Y23793D2*
Y23290D1*
X24380Y23673D2*
Y23696D1*
X24404Y23744D1*
X24427Y23768D1*
X24475Y23792D1*
X24571D1*
X24619Y23768D1*
X24642Y23744D1*
X24667Y23696D1*
Y23649D1*
X24642Y23601D1*
X24595Y23529D1*
X24356Y23290D1*
X24690D1*
X24845Y23793D2*
X25036Y23290D1*
X25227Y23793D1*
X25868Y23553D2*
X26083D1*
X26155Y23578D1*
X26179Y23601D1*
X26203Y23649D1*
Y23697D1*
X26179Y23744D1*
X26155Y23769D1*
X26083Y23793D1*
X25868D1*
Y23290D1*
X26035Y23553D2*
X26203Y23290D1*
X26740D2*
Y23793D1*
X26548Y23290D1*
X26357Y23793D1*
Y23290D1*
X27229Y23721D2*
X27181Y23769D1*
X27109Y23793D1*
X27014D1*
X26942Y23769D1*
X26894Y23721D1*
Y23673D1*
X26918Y23625D1*
X26942Y23601D1*
X26990Y23578D1*
X27133Y23529D1*
X27181Y23506D1*
X27205Y23481D1*
X27229Y23434D1*
Y23362D1*
X27181Y23314D1*
X27109Y23290D1*
X27014D1*
X26942Y23314D1*
X26894Y23362D1*
X43053Y20038D2*
D74*
Y19435D1*
X43254D1*
X43340Y19464D1*
X43398Y19521D1*
X43426Y19579D1*
X43455Y19665D1*
Y19809D1*
X43426Y19895D1*
X43398Y19952D1*
X43340Y20010D1*
X43254Y20038D1*
X43053D1*
X43640D2*
Y19435D1*
X44256Y19895D2*
X44227Y19952D1*
X44169Y20010D1*
X44112Y20038D1*
X43998D1*
X43940Y20010D1*
X43883Y19952D1*
X43854Y19895D1*
X43825Y19809D1*
Y19665D1*
X43854Y19579D1*
X43883Y19521D1*
X43940Y19464D1*
X43998Y19435D1*
X44112D1*
X44169Y19464D1*
X44227Y19521D1*
X44256Y19579D1*
Y19665D1*
X44112D1*
X44441Y20038D2*
Y19435D1*
X44827Y20038D2*
Y19435D1*
X44626Y20038D2*
X45028D1*
X45673Y19435D2*
X45443Y20038D1*
X45213Y19435D1*
X45300Y19636D2*
X45587D1*
X45858Y20038D2*
Y19435D1*
X46202D1*
X46971Y20038D2*
Y19435D1*
X47172D1*
X47258Y19464D1*
X47316Y19521D1*
X47344Y19579D1*
X47373Y19665D1*
Y19809D1*
X47344Y19895D1*
X47316Y19952D1*
X47258Y20010D1*
X47172Y20038D1*
X46971D1*
X48018Y19435D2*
X47788Y20038D1*
X47558Y19435D1*
X47644Y19636D2*
X47932D1*
X48404Y20038D2*
Y19435D1*
X48203Y20038D2*
X48605D1*
X49250Y19435D2*
X49020Y20038D1*
X48790Y19435D1*
X48876Y19636D2*
X49164D1*
X9590Y5832D2*
X9848D1*
X9934Y5861D1*
X9963Y5889D1*
X9992Y5946D1*
Y6004D1*
X9963Y6061D1*
X9934Y6090D1*
X9848Y6119D1*
X9590D1*
Y5516D1*
X9791Y5832D2*
X9992Y5516D1*
X10607Y5976D2*
X10579Y6033D1*
X10521Y6090D1*
X10464Y6119D1*
X10349D1*
X10292Y6090D1*
X10234Y6033D1*
X10205Y5976D1*
X10177Y5889D1*
Y5746D1*
X10205Y5660D1*
X10234Y5602D1*
X10292Y5545D1*
X10349Y5516D1*
X10464D1*
X10521Y5545D1*
X10579Y5602D1*
X10607Y5660D1*
X11252Y5516D2*
X11022Y6119D1*
X10792Y5516D1*
X10879Y5717D2*
X11166D1*
X11437Y5817D2*
X11769D1*
X11983Y5975D2*
Y6003D1*
X12012Y6061D1*
X12040Y6090D1*
X12098Y6118D1*
X12213D1*
X12270Y6090D1*
X12298Y6061D1*
X12328Y6003D1*
Y5946D1*
X12298Y5889D1*
X12241Y5803D1*
X11954Y5516D1*
X12356D1*
X12541Y6003D2*
X12599Y6033D1*
X12685Y6118D1*
Y5516D1*
X13043Y6118D2*
X12957Y6090D1*
X12899Y6003D1*
X12871Y5860D1*
Y5774D1*
X12899Y5631D1*
X12957Y5545D1*
X13043Y5516D1*
X13100D1*
X13186Y5545D1*
X13243Y5631D1*
X13273Y5774D1*
Y5860D1*
X13243Y6003D1*
X13186Y6090D1*
X13100Y6118D1*
X13043D1*
X13243Y6003D2*
X12899Y5631D1*
X20613Y5832D2*
X20871D1*
X20957Y5861D1*
X20987Y5889D1*
X21015Y5946D1*
Y6004D1*
X20987Y6061D1*
X20957Y6090D1*
X20871Y6119D1*
X20613D1*
Y5516D1*
X20814Y5832D2*
X21015Y5516D1*
X21631Y5976D2*
X21602Y6033D1*
X21545Y6090D1*
X21488Y6119D1*
X21373D1*
X21315Y6090D1*
X21258Y6033D1*
X21229Y5976D1*
X21200Y5889D1*
Y5746D1*
X21229Y5660D1*
X21258Y5602D1*
X21315Y5545D1*
X21373Y5516D1*
X21488D1*
X21545Y5545D1*
X21602Y5602D1*
X21631Y5660D1*
X22276Y5516D2*
X22046Y6119D1*
X21816Y5516D1*
X21902Y5717D2*
X22190D1*
X22461Y5817D2*
X22793D1*
X23007Y5975D2*
Y6003D1*
X23036Y6061D1*
X23064Y6090D1*
X23122Y6118D1*
X23237D1*
X23294Y6090D1*
X23322Y6061D1*
X23351Y6003D1*
Y5946D1*
X23322Y5889D1*
X23265Y5803D1*
X22978Y5516D1*
X23380D1*
X23565Y6003D2*
X23623Y6033D1*
X23709Y6118D1*
Y5516D1*
X24067Y6118D2*
X23980Y6090D1*
X23923Y6003D1*
X23894Y5860D1*
Y5774D1*
X23923Y5631D1*
X23980Y5545D1*
X24067Y5516D1*
X24124D1*
X24210Y5545D1*
X24267Y5631D1*
X24296Y5774D1*
Y5860D1*
X24267Y6003D1*
X24210Y6090D1*
X24124Y6118D1*
X24067D1*
X24267Y6003D2*
X23923Y5631D1*
X31637Y5832D2*
X31895D1*
X31981Y5861D1*
X32010Y5889D1*
X32039Y5946D1*
Y6004D1*
X32010Y6061D1*
X31981Y6090D1*
X31895Y6119D1*
X31637D1*
Y5516D1*
X31838Y5832D2*
X32039Y5516D1*
X32654Y5976D2*
X32626Y6033D1*
X32568Y6090D1*
X32511Y6119D1*
X32396D1*
X32339Y6090D1*
X32282Y6033D1*
X32253Y5976D1*
X32224Y5889D1*
Y5746D1*
X32253Y5660D1*
X32282Y5602D1*
X32339Y5545D1*
X32396Y5516D1*
X32511D1*
X32568Y5545D1*
X32626Y5602D1*
X32654Y5660D1*
X33299Y5516D2*
X33069Y6119D1*
X32840Y5516D1*
X32926Y5717D2*
X33213D1*
X33485Y5817D2*
X33816D1*
X34031Y5975D2*
Y6003D1*
X34059Y6061D1*
X34088Y6090D1*
X34145Y6118D1*
X34260D1*
X34317Y6090D1*
X34346Y6061D1*
X34375Y6003D1*
Y5946D1*
X34346Y5889D1*
X34289Y5803D1*
X34002Y5516D1*
X34403D1*
X34589Y6003D2*
X34646Y6033D1*
X34733Y6118D1*
Y5516D1*
X35090Y6118D2*
X35004Y6090D1*
X34946Y6003D1*
X34918Y5860D1*
Y5774D1*
X34946Y5631D1*
X35004Y5545D1*
X35090Y5516D1*
X35147D1*
X35234Y5545D1*
X35291Y5631D1*
X35320Y5774D1*
Y5860D1*
X35291Y6003D1*
X35234Y6090D1*
X35147Y6118D1*
X35090D1*
X35291Y6003D2*
X34946Y5631D1*
X42660Y5832D2*
X42918D1*
X43005Y5861D1*
X43034Y5889D1*
X43062Y5946D1*
Y6004D1*
X43034Y6061D1*
X43005Y6090D1*
X42918Y6119D1*
X42660D1*
Y5516D1*
X42861Y5832D2*
X43062Y5516D1*
X43678Y5976D2*
X43650Y6033D1*
X43592Y6090D1*
X43535Y6119D1*
X43420D1*
X43362Y6090D1*
X43305Y6033D1*
X43276Y5976D1*
X43248Y5889D1*
Y5746D1*
X43276Y5660D1*
X43305Y5602D1*
X43362Y5545D1*
X43420Y5516D1*
X43535D1*
X43592Y5545D1*
X43650Y5602D1*
X43678Y5660D1*
X44323Y5516D2*
X44093Y6119D1*
X43863Y5516D1*
X43950Y5717D2*
X44237D1*
X44508Y5817D2*
X44840D1*
X45054Y5975D2*
Y6003D1*
X45083Y6061D1*
X45111Y6090D1*
X45169Y6118D1*
X45284D1*
X45341Y6090D1*
X45369Y6061D1*
X45399Y6003D1*
Y5946D1*
X45369Y5889D1*
X45312Y5803D1*
X45025Y5516D1*
X45427D1*
X45612Y6003D2*
X45670Y6033D1*
X45756Y6118D1*
Y5516D1*
X46114Y6118D2*
X46028Y6090D1*
X45970Y6003D1*
X45942Y5860D1*
Y5774D1*
X45970Y5631D1*
X46028Y5545D1*
X46114Y5516D1*
X46171D1*
X46257Y5545D1*
X46314Y5631D1*
X46343Y5774D1*
Y5860D1*
X46314Y6003D1*
X46257Y6090D1*
X46171Y6118D1*
X46114D1*
X46314Y6003D2*
X45970Y5631D1*
X51925Y5338D2*
X52184D1*
X52269Y5367D1*
X52298Y5396D1*
X52327Y5453D1*
Y5539D1*
X52298Y5596D1*
X52269Y5626D1*
X52184Y5654D1*
X51925D1*
Y5051D1*
X52512Y5654D2*
Y5051D1*
X52856D1*
X53243Y5654D2*
Y5051D1*
X53042Y5654D2*
X53444D1*
X53629Y5539D2*
X53687Y5568D1*
X53773Y5653D1*
Y5051D1*
X54016Y5653D2*
X54331D1*
X54159Y5424D1*
X54245D1*
X54302Y5395D1*
X54331Y5367D1*
X54360Y5281D1*
Y5224D1*
X54331Y5137D1*
X54274Y5080D1*
X54188Y5051D1*
X54101D1*
X54016Y5080D1*
X53987Y5109D1*
X53958Y5166D1*
X54603Y5653D2*
X54918D1*
X54746Y5424D1*
X54832D1*
X54890Y5395D1*
X54918Y5367D1*
X54947Y5281D1*
Y5224D1*
X54918Y5137D1*
X54861Y5080D1*
X54775Y5051D1*
X54689D1*
X54603Y5080D1*
X54574Y5109D1*
X54545Y5166D1*
M02*
