G04 DipTrace 2.4.0.2*
%IN2_Layer_Bottom_Silk.gbr*%
%MOIN*%
%ADD22C,0.0118*%
%ADD24C,0.0059*%
%ADD72C,0.0046*%
%ADD76C,0.0109*%
%ADD77C,0.0062*%
%FSLAX44Y44*%
G04*
G70*
G90*
G75*
G01*
%LNBotSilk*%
%LPD*%
X5142Y23701D2*
D22*
Y4567D1*
X53606Y24173D2*
X55732D1*
X5575D2*
X5614D1*
X6087Y23740D2*
Y21772D1*
X6559Y21339D2*
X12543D1*
X13016Y23740D2*
Y21811D1*
X13449Y24134D2*
X37937D1*
X38409Y23661D2*
Y22402D1*
X38843Y21969D2*
X52740D1*
X53213Y23701D2*
Y22441D1*
X56126Y23701D2*
Y4567D1*
X5614Y4094D2*
X55614D1*
X6559Y21339D2*
G02X6087Y21811I-4J469D01*
G01*
X5614Y4094D2*
G02X5142Y4567I-4J469D01*
G01*
X56126D2*
G02X55654Y4094I-469J-4D01*
G01*
X5142Y23701D2*
G02X5575Y24173I471J3D01*
G01*
X6087Y23740D2*
G03X5614Y24173I-470J-38D01*
G01*
X13016Y23740D2*
G02X13449Y24134I405J-10D01*
G01*
X53213Y23701D2*
G02X53646Y24173I471J3D01*
G01*
X38409Y23701D2*
G03X37937Y24134I-470J-38D01*
G01*
X53213Y22441D2*
G02X52740Y21969I-469J-4D01*
G01*
X13016Y21811D2*
G02X12543Y21339I-469J-4D01*
G01*
X38882Y21969D2*
G02X38409Y22441I-4J469D01*
G01*
X56126Y23740D2*
G03X55654Y24173I-470J-38D01*
G01*
X35059Y24134D2*
D24*
Y22343D1*
X25965Y24134D2*
D22*
Y22835D1*
X26417Y22362D2*
X38409D1*
X26441D2*
G02X25969Y22835I-4J469D01*
G01*
X38425Y23209D2*
D24*
X25965D1*
X39098Y21628D2*
D72*
X39069Y21656D1*
X39055Y21699D1*
Y21757D1*
X39069Y21800D1*
X39098Y21829D1*
X39126D1*
X39155Y21814D1*
X39169Y21800D1*
X39184Y21771D1*
X39212Y21685D1*
X39227Y21656D1*
X39241Y21642D1*
X39270Y21628D1*
X39313D1*
X39341Y21656D1*
X39356Y21699D1*
Y21757D1*
X39341Y21800D1*
X39313Y21829D1*
X39055Y21535D2*
X39356D1*
Y21434D1*
X39341Y21391D1*
X39313Y21362D1*
X39284Y21348D1*
X39241Y21334D1*
X39169D1*
X39126Y21348D1*
X39098Y21362D1*
X39069Y21391D1*
X39055Y21434D1*
Y21535D1*
X39356Y21012D2*
X39055Y21127D1*
X39356Y21241D1*
X39255Y21198D2*
Y21055D1*
X40321Y21599D2*
X40019D1*
X40321Y21714D1*
X40019Y21829D1*
X40321D1*
X40091Y21291D2*
X40062Y21306D1*
X40033Y21334D1*
X40019Y21363D1*
Y21420D1*
X40033Y21449D1*
X40062Y21478D1*
X40091Y21492D1*
X40134Y21507D1*
X40206D1*
X40249Y21492D1*
X40277Y21478D1*
X40306Y21449D1*
X40321Y21420D1*
Y21363D1*
X40306Y21334D1*
X40277Y21306D1*
X40249Y21291D1*
X40019Y21199D2*
X40321D1*
Y21027D1*
X40019Y20934D2*
X40321D1*
X40019Y20733D2*
X40220Y20934D1*
X40148Y20862D2*
X40321Y20733D1*
X40019Y20263D2*
X40033Y20291D1*
X40062Y20320D1*
X40091Y20334D1*
X40134Y20349D1*
X40206D1*
X40249Y20334D1*
X40277Y20320D1*
X40306Y20291D1*
X40321Y20263D1*
Y20205D1*
X40306Y20177D1*
X40277Y20148D1*
X40249Y20134D1*
X40206Y20119D1*
X40134D1*
X40091Y20134D1*
X40062Y20148D1*
X40033Y20177D1*
X40019Y20205D1*
Y20263D1*
Y20027D2*
X40234D1*
X40277Y20012D1*
X40306Y19984D1*
X40321Y19940D1*
Y19912D1*
X40306Y19869D1*
X40277Y19840D1*
X40234Y19826D1*
X40019D1*
Y19633D2*
X40321D1*
X40019Y19733D2*
Y19532D1*
X41023Y21829D2*
X41324D1*
Y21699D1*
X41310Y21656D1*
X41296Y21642D1*
X41267Y21628D1*
X41224D1*
X41195Y21642D1*
X41181Y21656D1*
X41167Y21699D1*
X41152Y21656D1*
X41138Y21642D1*
X41109Y21628D1*
X41080D1*
X41052Y21642D1*
X41037Y21656D1*
X41023Y21699D1*
Y21829D1*
X41167D2*
Y21699D1*
X41095Y21320D2*
X41066Y21334D1*
X41037Y21363D1*
X41023Y21391D1*
Y21449D1*
X41037Y21478D1*
X41066Y21506D1*
X41095Y21521D1*
X41138Y21535D1*
X41210D1*
X41253Y21521D1*
X41281Y21506D1*
X41310Y21478D1*
X41324Y21449D1*
Y21391D1*
X41310Y21363D1*
X41281Y21334D1*
X41253Y21320D1*
X41023Y21227D2*
X41324D1*
Y21055D1*
X41023Y20962D2*
X41324D1*
X41023Y20761D2*
X41224Y20962D1*
X41152Y20891D2*
X41324Y20761D1*
X41023Y20583D2*
X41038Y20626D1*
X41081Y20654D1*
X41152Y20669D1*
X41195D1*
X41267Y20654D1*
X41310Y20626D1*
X41324Y20583D1*
Y20554D1*
X41310Y20511D1*
X41267Y20482D1*
X41195Y20468D1*
X41152D1*
X41081Y20482D1*
X41038Y20511D1*
X41023Y20554D1*
Y20583D1*
X41081Y20482D2*
X41267Y20654D1*
X42047Y21829D2*
X42348D1*
Y21656D1*
X42190Y21564D2*
Y21435D1*
X42176Y21392D1*
X42161Y21377D1*
X42133Y21363D1*
X42104D1*
X42076Y21377D1*
X42061Y21392D1*
X42047Y21435D1*
Y21564D1*
X42348D1*
X42190Y21463D2*
X42348Y21363D1*
X42118Y21055D2*
X42090Y21069D1*
X42061Y21098D1*
X42047Y21127D1*
Y21184D1*
X42061Y21213D1*
X42090Y21241D1*
X42118Y21256D1*
X42161Y21270D1*
X42233D1*
X42276Y21256D1*
X42305Y21241D1*
X42334Y21213D1*
X42348Y21184D1*
Y21127D1*
X42334Y21098D1*
X42305Y21069D1*
X42276Y21055D1*
X42047Y20962D2*
X42348D1*
X42047Y20761D2*
X42248Y20962D1*
X42176Y20891D2*
X42348Y20761D1*
X42104Y20669D2*
X42090Y20640D1*
X42047Y20597D1*
X42348D1*
X44356Y21599D2*
X44055D1*
X44356Y21714D1*
X44055Y21829D1*
X44356D1*
X44212Y21506D2*
Y21377D1*
X44198Y21334D1*
X44184Y21320D1*
X44155Y21305D1*
X44112D1*
X44083Y21320D1*
X44069Y21334D1*
X44055Y21377D1*
Y21506D1*
X44356D1*
Y21155D2*
X44055Y21012D1*
Y21213D1*
X43070Y21851D2*
X43372D1*
Y21750D1*
X43357Y21707D1*
X43329Y21678D1*
X43300Y21664D1*
X43257Y21650D1*
X43185D1*
X43142Y21664D1*
X43113Y21678D1*
X43085Y21707D1*
X43070Y21750D1*
Y21851D1*
X43372Y21327D2*
X43070Y21442D1*
X43372Y21557D1*
X43271Y21514D2*
Y21370D1*
X43070Y21134D2*
X43372D1*
X43070Y21235D2*
Y21034D1*
X43372Y20711D2*
X43070Y20826D1*
X43372Y20941D1*
X43271Y20898D2*
Y20754D1*
X43128Y20618D2*
X43113Y20590D1*
X43071Y20547D1*
X43372D1*
X45039Y21829D2*
X45340D1*
Y21699D1*
X45326Y21656D1*
X45311Y21642D1*
X45283Y21628D1*
X45240D1*
X45211Y21642D1*
X45197Y21656D1*
X45182Y21699D1*
X45168Y21656D1*
X45154Y21642D1*
X45125Y21628D1*
X45096D1*
X45068Y21642D1*
X45053Y21656D1*
X45039Y21699D1*
Y21829D1*
X45182D2*
Y21699D1*
X45110Y21320D2*
X45082Y21334D1*
X45053Y21363D1*
X45039Y21391D1*
Y21449D1*
X45053Y21478D1*
X45082Y21506D1*
X45110Y21521D1*
X45154Y21535D1*
X45225D1*
X45268Y21521D1*
X45297Y21506D1*
X45326Y21478D1*
X45340Y21449D1*
Y21391D1*
X45326Y21363D1*
X45297Y21334D1*
X45268Y21320D1*
X45039Y21227D2*
X45340D1*
Y21055D1*
X45039Y20962D2*
X45340D1*
X45039Y20761D2*
X45240Y20962D1*
X45168Y20891D2*
X45340Y20761D1*
X45111Y20654D2*
X45096D1*
X45068Y20640D1*
X45053Y20626D1*
X45039Y20597D1*
Y20539D1*
X45053Y20511D1*
X45068Y20497D1*
X45096Y20482D1*
X45125D1*
X45154Y20497D1*
X45197Y20525D1*
X45340Y20669D1*
Y20468D1*
X46102Y21829D2*
X46403D1*
Y21656D1*
X46245Y21564D2*
Y21435D1*
X46231Y21392D1*
X46217Y21377D1*
X46188Y21363D1*
X46159D1*
X46131Y21377D1*
X46116Y21392D1*
X46102Y21435D1*
Y21564D1*
X46403D1*
X46245Y21463D2*
X46403Y21363D1*
X46173Y21055D2*
X46145Y21069D1*
X46116Y21098D1*
X46102Y21127D1*
Y21184D1*
X46116Y21213D1*
X46145Y21241D1*
X46173Y21256D1*
X46217Y21270D1*
X46288D1*
X46331Y21256D1*
X46360Y21241D1*
X46389Y21213D1*
X46403Y21184D1*
Y21127D1*
X46389Y21098D1*
X46360Y21069D1*
X46331Y21055D1*
X46102Y20962D2*
X46403D1*
X46102Y20761D2*
X46303Y20962D1*
X46231Y20891D2*
X46403Y20761D1*
X46102Y20640D2*
Y20482D1*
X46217Y20568D1*
Y20525D1*
X46231Y20497D1*
X46245Y20482D1*
X46288Y20468D1*
X46317D1*
X46360Y20482D1*
X46389Y20511D1*
X46403Y20554D1*
Y20597D1*
X46389Y20640D1*
X46374Y20654D1*
X46346Y20669D1*
X47047Y21829D2*
X47348D1*
Y21728D1*
X47334Y21685D1*
X47305Y21656D1*
X47276Y21642D1*
X47233Y21628D1*
X47161D1*
X47118Y21642D1*
X47090Y21656D1*
X47061Y21685D1*
X47047Y21728D1*
Y21829D1*
X47348Y21305D2*
X47047Y21420D1*
X47348Y21535D1*
X47248Y21492D2*
Y21348D1*
X47047Y21112D2*
X47348D1*
X47047Y21212D2*
Y21012D1*
X47348Y20689D2*
X47047Y20804D1*
X47348Y20919D1*
X47248Y20876D2*
Y20732D1*
X47047Y20568D2*
Y20410D1*
X47162Y20496D1*
Y20453D1*
X47176Y20424D1*
X47190Y20410D1*
X47233Y20395D1*
X47262D1*
X47305Y20410D1*
X47334Y20439D1*
X47348Y20482D1*
Y20525D1*
X47334Y20568D1*
X47319Y20582D1*
X47291Y20596D1*
X48142Y21613D2*
X48113Y21628D1*
X48085Y21656D1*
X48070Y21685D1*
Y21742D1*
X48085Y21771D1*
X48113Y21800D1*
X48142Y21814D1*
X48185Y21829D1*
X48257D1*
X48300Y21814D1*
X48329Y21800D1*
X48357Y21771D1*
X48372Y21742D1*
Y21685D1*
X48357Y21656D1*
X48329Y21628D1*
X48300Y21613D1*
X48257D1*
Y21685D1*
X48070Y21320D2*
X48372D1*
X48070Y21521D1*
X48372D1*
X48070Y21227D2*
X48372D1*
Y21127D1*
X48357Y21083D1*
X48329Y21055D1*
X48300Y21040D1*
X48257Y21026D1*
X48185D1*
X48142Y21040D1*
X48113Y21055D1*
X48085Y21083D1*
X48070Y21127D1*
Y21227D1*
X49094Y21656D2*
Y21800D1*
X49223Y21814D1*
X49209Y21800D1*
X49194Y21757D1*
Y21714D1*
X49209Y21671D1*
X49237Y21642D1*
X49281Y21628D1*
X49309D1*
X49352Y21642D1*
X49381Y21671D1*
X49395Y21714D1*
Y21757D1*
X49381Y21800D1*
X49366Y21814D1*
X49338Y21829D1*
X49366Y21521D2*
X49381Y21535D1*
X49395Y21521D1*
X49381Y21506D1*
X49366Y21521D1*
X49094Y21327D2*
X49108Y21370D1*
X49152Y21399D1*
X49223Y21413D1*
X49266D1*
X49338Y21399D1*
X49381Y21370D1*
X49395Y21327D1*
Y21299D1*
X49381Y21256D1*
X49338Y21227D1*
X49266Y21212D1*
X49223D1*
X49152Y21227D1*
X49108Y21256D1*
X49094Y21299D1*
Y21327D1*
X49152Y21227D2*
X49338Y21399D1*
X49094Y21120D2*
X49395Y21005D1*
X49094Y20890D1*
X51134Y21613D2*
X51106Y21628D1*
X51077Y21656D1*
X51062Y21685D1*
Y21742D1*
X51077Y21771D1*
X51106Y21800D1*
X51134Y21814D1*
X51177Y21829D1*
X51249D1*
X51292Y21814D1*
X51321Y21800D1*
X51349Y21771D1*
X51364Y21742D1*
Y21685D1*
X51349Y21656D1*
X51321Y21628D1*
X51292Y21613D1*
X51249D1*
Y21685D1*
X51062Y21320D2*
X51364D1*
X51062Y21521D1*
X51364D1*
X51062Y21227D2*
X51364D1*
Y21127D1*
X51349Y21083D1*
X51321Y21055D1*
X51292Y21040D1*
X51249Y21026D1*
X51177D1*
X51134Y21040D1*
X51106Y21055D1*
X51077Y21083D1*
X51062Y21127D1*
Y21227D1*
X50078Y21800D2*
Y21642D1*
X50193Y21728D1*
Y21685D1*
X50207Y21656D1*
X50222Y21642D1*
X50265Y21628D1*
X50293D1*
X50336Y21642D1*
X50365Y21671D1*
X50380Y21714D1*
Y21757D1*
X50365Y21800D1*
X50351Y21814D1*
X50322Y21829D1*
X50351Y21521D2*
X50365Y21535D1*
X50380Y21521D1*
X50365Y21506D1*
X50351Y21521D1*
X50078Y21385D2*
Y21227D1*
X50193Y21313D1*
Y21270D1*
X50207Y21241D1*
X50222Y21227D1*
X50265Y21212D1*
X50293D1*
X50336Y21227D1*
X50365Y21256D1*
X50380Y21299D1*
Y21342D1*
X50365Y21385D1*
X50351Y21399D1*
X50322Y21413D1*
X50078Y21120D2*
X50380Y21005D1*
X50078Y20890D1*
X52129Y21509D2*
X52100Y21538D1*
X52086Y21581D1*
Y21638D1*
X52100Y21682D1*
X52129Y21710D1*
X52158D1*
X52187Y21696D1*
X52201Y21682D1*
X52215Y21653D1*
X52244Y21567D1*
X52258Y21538D1*
X52273Y21524D1*
X52301Y21509D1*
X52344D1*
X52373Y21538D1*
X52387Y21581D1*
Y21638D1*
X52373Y21682D1*
X52344Y21710D1*
X52244Y21417D2*
Y21288D1*
X52230Y21245D1*
X52215Y21230D1*
X52187Y21216D1*
X52143D1*
X52115Y21230D1*
X52100Y21245D1*
X52086Y21288D1*
Y21417D1*
X52387D1*
X52086Y21123D2*
X52387D1*
Y21023D1*
X52373Y20980D1*
X52344Y20951D1*
X52316Y20937D1*
X52273Y20922D1*
X52201D1*
X52158Y20937D1*
X52129Y20951D1*
X52100Y20980D1*
X52086Y21023D1*
Y21123D1*
Y20830D2*
X52387D1*
X52086Y20550D2*
Y20737D1*
X52387D1*
X52230D2*
Y20622D1*
X52086Y20080D2*
X52100Y20109D1*
X52129Y20137D1*
X52158Y20152D1*
X52201Y20166D1*
X52273D1*
X52316Y20152D1*
X52344Y20137D1*
X52373Y20109D1*
X52387Y20080D1*
Y20022D1*
X52373Y19994D1*
X52344Y19965D1*
X52316Y19951D1*
X52273Y19937D1*
X52201D1*
X52158Y19951D1*
X52129Y19965D1*
X52100Y19994D1*
X52086Y20022D1*
Y20080D1*
Y19844D2*
X52301D1*
X52344Y19830D1*
X52373Y19801D1*
X52387Y19758D1*
Y19729D1*
X52373Y19686D1*
X52344Y19657D1*
X52301Y19643D1*
X52086D1*
Y19450D2*
X52387D1*
X52086Y19550D2*
Y19349D1*
X6859Y21165D2*
X7160D1*
X6859Y20871D2*
X7160D1*
X6859Y21072D1*
X7160D1*
X6859Y20487D2*
X7160Y20372D1*
X6859Y20257D1*
X7875Y20998D2*
X7847Y21012D1*
X7818Y21041D1*
X7804Y21070D1*
Y21127D1*
X7818Y21156D1*
X7847Y21185D1*
X7875Y21199D1*
X7918Y21213D1*
X7990D1*
X8033Y21199D1*
X8062Y21185D1*
X8091Y21156D1*
X8105Y21127D1*
Y21070D1*
X8091Y21041D1*
X8062Y21012D1*
X8033Y20998D1*
X7990D1*
Y21070D1*
X7804Y20705D2*
X8105D1*
X7804Y20906D1*
X8105D1*
X7804Y20612D2*
X8105D1*
Y20511D1*
X8091Y20468D1*
X8062Y20439D1*
X8033Y20425D1*
X7990Y20411D1*
X7918D1*
X7875Y20425D1*
X7847Y20439D1*
X7818Y20468D1*
X7804Y20511D1*
Y20612D1*
X8847Y21156D2*
Y20999D1*
X8962Y21085D1*
Y21042D1*
X8976Y21013D1*
X8991Y20999D1*
X9034Y20984D1*
X9062D1*
X9105Y20999D1*
X9134Y21027D1*
X9148Y21070D1*
Y21114D1*
X9134Y21156D1*
X9120Y21171D1*
X9091Y21185D1*
X9120Y20877D2*
X9134Y20892D1*
X9148Y20877D1*
X9134Y20863D1*
X9120Y20877D1*
X8847Y20741D2*
Y20584D1*
X8962Y20670D1*
Y20626D1*
X8976Y20598D1*
X8991Y20584D1*
X9034Y20569D1*
X9062D1*
X9105Y20584D1*
X9134Y20612D1*
X9148Y20655D1*
Y20698D1*
X9134Y20741D1*
X9120Y20755D1*
X9091Y20770D1*
X8847Y20476D2*
X9148Y20362D1*
X8847Y20247D1*
X9871Y20998D2*
Y21142D1*
X10000Y21156D1*
X9986Y21142D1*
X9971Y21099D1*
Y21056D1*
X9986Y21013D1*
X10014Y20984D1*
X10057Y20970D1*
X10086D1*
X10129Y20984D1*
X10158Y21013D1*
X10172Y21056D1*
Y21099D1*
X10158Y21142D1*
X10143Y21156D1*
X10115Y21171D1*
X9871Y20877D2*
X10172Y20762D1*
X9871Y20647D1*
X11950Y21003D2*
X11922Y21017D1*
X11893Y21046D1*
X11878Y21075D1*
Y21132D1*
X11893Y21161D1*
X11922Y21190D1*
X11950Y21204D1*
X11993Y21218D1*
X12065D1*
X12108Y21204D1*
X12137Y21190D1*
X12165Y21161D1*
X12180Y21132D1*
Y21075D1*
X12165Y21046D1*
X12137Y21017D1*
X12108Y21003D1*
X11878Y20911D2*
X12180D1*
X11878Y20617D2*
X12180D1*
X11878Y20818D1*
X12180D1*
X11878Y20524D2*
X12180Y20410D1*
X11878Y20295D1*
X10907Y20998D2*
X10878Y21012D1*
X10849Y21041D1*
X10835Y21070D1*
Y21127D1*
X10849Y21156D1*
X10878Y21185D1*
X10907Y21199D1*
X10950Y21213D1*
X11022D1*
X11065Y21199D1*
X11093Y21185D1*
X11122Y21156D1*
X11137Y21127D1*
Y21070D1*
X11122Y21041D1*
X11093Y21012D1*
X11065Y20998D1*
X11022D1*
Y21070D1*
X10835Y20705D2*
X11137D1*
X10835Y20906D1*
X11137D1*
X10835Y20612D2*
X11137D1*
Y20511D1*
X11122Y20468D1*
X11093Y20439D1*
X11065Y20425D1*
X11022Y20411D1*
X10950D1*
X10907Y20425D1*
X10878Y20439D1*
X10849Y20468D1*
X10835Y20511D1*
Y20612D1*
X34807Y23917D2*
D76*
Y23415D1*
X34639D1*
X34567Y23439D1*
X34519Y23487D1*
X34495Y23535D1*
X34472Y23606D1*
Y23726D1*
X34495Y23798D1*
X34519Y23845D1*
X34567Y23894D1*
X34639Y23917D1*
X34807D1*
X34253D2*
Y23415D1*
X34034Y23917D2*
X33699Y23415D1*
Y23917D2*
X34034Y23415D1*
X33337Y23917D2*
X33385Y23894D1*
X33432Y23845D1*
X33457Y23798D1*
X33481Y23726D1*
Y23606D1*
X33457Y23535D1*
X33432Y23487D1*
X33385Y23439D1*
X33337Y23415D1*
X33241D1*
X33194Y23439D1*
X33146Y23487D1*
X33122Y23535D1*
X33098Y23606D1*
Y23726D1*
X33122Y23798D1*
X33146Y23845D1*
X33194Y23894D1*
X33241Y23917D1*
X33337D1*
X32497Y23415D2*
Y23917D1*
X32688Y23415D1*
X32879Y23917D1*
Y23415D1*
X32278Y23666D2*
X32002D1*
X31783Y23917D2*
Y23415D1*
X31616D1*
X31544Y23439D1*
X31496Y23487D1*
X31472Y23535D1*
X31448Y23606D1*
Y23726D1*
X31472Y23798D1*
X31496Y23845D1*
X31544Y23894D1*
X31616Y23917D1*
X31783D1*
X30846Y23415D2*
X31038Y23917D1*
X31229Y23415D1*
X31158Y23582D2*
X30918D1*
X30269Y23798D2*
X30293Y23845D1*
X30341Y23894D1*
X30388Y23917D1*
X30484D1*
X30532Y23894D1*
X30580Y23845D1*
X30604Y23798D1*
X30628Y23726D1*
Y23606D1*
X30604Y23535D1*
X30580Y23487D1*
X30532Y23439D1*
X30484Y23415D1*
X30388D1*
X30341Y23439D1*
X30293Y23487D1*
X30269Y23535D1*
X29117Y23415D2*
X29309Y23917D1*
X29500Y23415D1*
X29428Y23582D2*
X29189D1*
X28898Y23917D2*
Y23415D1*
X28563Y23917D2*
X28898Y23582D1*
X28779Y23702D2*
X28563Y23415D1*
X28105D2*
Y23917D1*
X28345Y23582D1*
X27986D1*
X27528Y23415D2*
Y23917D1*
X27767Y23582D1*
X27408D1*
X26950Y23415D2*
Y23917D1*
X27190Y23582D1*
X26831D1*
X26469Y23917D2*
X26540Y23893D1*
X26589Y23821D1*
X26612Y23702D1*
Y23630D1*
X26589Y23510D1*
X26540Y23439D1*
X26469Y23415D1*
X26421D1*
X26349Y23439D1*
X26302Y23510D1*
X26277Y23630D1*
Y23702D1*
X26302Y23821D1*
X26349Y23893D1*
X26421Y23917D1*
X26469D1*
X26302Y23821D2*
X26589Y23510D1*
X37740Y23467D2*
D77*
Y23869D1*
X37893Y23467D1*
X38046Y23869D1*
Y23467D1*
X37502Y23869D2*
X37540Y23850D1*
X37578Y23811D1*
X37598Y23773D1*
X37617Y23716D1*
Y23620D1*
X37598Y23563D1*
X37578Y23524D1*
X37540Y23486D1*
X37502Y23467D1*
X37426D1*
X37387Y23486D1*
X37349Y23524D1*
X37330Y23563D1*
X37311Y23620D1*
Y23716D1*
X37330Y23773D1*
X37349Y23811D1*
X37387Y23850D1*
X37426Y23869D1*
X37502D1*
X37187D2*
Y23467D1*
X37053D1*
X36996Y23486D1*
X36958Y23524D1*
X36939Y23563D1*
X36920Y23620D1*
Y23716D1*
X36939Y23773D1*
X36958Y23811D1*
X36996Y23850D1*
X37053Y23869D1*
X37187D1*
X36548D2*
X36796D1*
Y23467D1*
X36548D1*
X36796Y23677D2*
X36643D1*
X36424Y23869D2*
Y23467D1*
X36195D1*
X38059Y22832D2*
X37886D1*
X37829Y22851D1*
X37810Y22870D1*
X37791Y22908D1*
Y22966D1*
X37810Y23004D1*
X37829Y23023D1*
X37886Y23042D1*
X38059D1*
Y22640D1*
X37380Y22947D2*
X37399Y22985D1*
X37438Y23023D1*
X37476Y23042D1*
X37552D1*
X37591Y23023D1*
X37629Y22985D1*
X37648Y22947D1*
X37667Y22889D1*
Y22793D1*
X37648Y22736D1*
X37629Y22698D1*
X37591Y22660D1*
X37552Y22640D1*
X37476D1*
X37438Y22660D1*
X37399Y22698D1*
X37380Y22736D1*
X37257Y23042D2*
Y22640D1*
X37084D1*
X37027Y22660D1*
X37008Y22679D1*
X36989Y22717D1*
Y22774D1*
X37008Y22813D1*
X37027Y22832D1*
X37084Y22851D1*
X37027Y22870D1*
X37008Y22889D1*
X36989Y22927D1*
Y22966D1*
X37008Y23004D1*
X37027Y23023D1*
X37084Y23042D1*
X37257D1*
Y22851D2*
X37084D1*
X36477D2*
X36305D1*
X36247Y22870D1*
X36228Y22889D1*
X36209Y22927D1*
Y22966D1*
X36228Y23004D1*
X36247Y23023D1*
X36305Y23042D1*
X36477D1*
Y22640D1*
X36343Y22851D2*
X36209Y22640D1*
X35837Y23042D2*
X36085D1*
Y22640D1*
X35837D1*
X36085Y22851D2*
X35932D1*
X35713Y23042D2*
X35560Y22640D1*
X35407Y23042D1*
X34856Y22975D2*
D76*
X34807Y22999D1*
X34736Y23070D1*
Y22568D1*
X34493Y22617D2*
X34517Y22592D1*
X34493Y22568D1*
X34469Y22592D1*
X34493Y22617D1*
X34226Y22951D2*
Y22975D1*
X34202Y23023D1*
X34178Y23047D1*
X34130Y23070D1*
X34035D1*
X33987Y23047D1*
X33963Y23023D1*
X33939Y22975D1*
Y22927D1*
X33963Y22879D1*
X34011Y22808D1*
X34250Y22568D1*
X33915D1*
M02*
