G04 DipTrace 2.4.0.2*
%IN2_Layer_Bottom.gbr*%
%MOIN*%
%ADD10C,0.0098*%
%ADD14C,0.0079*%
%ADD15C,0.0276*%
%ADD17C,0.013*%
%ADD19C,0.0394*%
%ADD20C,0.0236*%
%ADD21C,0.025*%
%ADD25O,0.122X0.0827*%
%ADD26O,0.1024X0.0669*%
%ADD27C,0.0787*%
%ADD33R,0.0591X0.1142*%
%ADD39C,0.0591*%
%FSLAX44Y44*%
G04*
G70*
G90*
G75*
G01*
%LNBottom*%
%LPD*%
X40177Y20256D2*
D14*
Y22638D1*
X40189D1*
X53465Y22953D2*
D10*
X52520D1*
G03X52205Y22638I0J-315D01*
G01*
X38583Y21732D2*
D14*
Y21752D1*
X39205Y22374D1*
Y22638D1*
X48213Y22283D2*
D17*
Y22630D1*
X48205Y22638D1*
X49197Y22283D2*
Y22630D1*
X49205Y22638D1*
X37031Y13661D2*
D15*
X28307D1*
X16555D1*
G02X15512Y14705I0J1043D01*
G01*
X28307Y14232D2*
D17*
Y13661D1*
X12031Y21654D2*
Y21992D1*
X12016Y22008D1*
X52287Y7579D2*
D10*
Y7358D1*
G03X52598Y7047I311J0D01*
G01*
X55531D1*
G03X55886Y7402I0J354D01*
G01*
Y22539D1*
G03X55472Y22953I-413J0D01*
G01*
X9039Y21654D2*
D17*
Y21953D1*
X8984Y22008D1*
X41161Y20610D2*
D14*
Y22626D1*
X41173Y22638D1*
X47205D2*
Y19311D1*
X39528D1*
X36677Y22161D1*
Y23504D1*
X45181Y19843D2*
X44886Y19547D1*
X39606D1*
X37307Y21846D1*
Y22874D1*
X43220Y22638D2*
Y19953D1*
X43252Y19921D1*
X39547D1*
X37858Y21610D1*
Y22126D1*
X50220Y22283D2*
Y22622D1*
X50205Y22638D1*
X53287Y7579D2*
D17*
Y7913D1*
G02X53524Y8150I236J0D01*
G01*
X55000D1*
G03X55413Y8563I0J413D01*
G01*
Y21102D1*
G03X55020Y21496I-394J0D01*
G01*
X50630D1*
G02X50217Y21909I0J413D01*
G01*
Y22280D1*
X50218Y22282D1*
X50220Y22283D1*
X51205D2*
Y22638D1*
Y22283D2*
Y22083D1*
G03X51575Y21713I370J0D01*
G01*
X55039D1*
G02X55650Y21102I0J-610D01*
G01*
Y7913D1*
G02X55295Y7559I-354J0D01*
G01*
X54307D1*
G02X54287Y7579I0J20D01*
G01*
X10024Y21654D2*
Y21992D1*
X10008Y22008D1*
X7031Y21654D2*
Y21992D1*
X7016Y22008D1*
X8016Y21654D2*
Y21992D1*
X8000Y22008D1*
X11047Y21654D2*
Y21992D1*
X11031Y22008D1*
X11047Y21654D2*
D19*
Y20020D1*
Y19209D1*
G03X12047Y18209I1000J0D01*
G01*
X15472D1*
X15512Y16083D2*
Y18169D1*
X15472Y18209D1*
X15512Y16083D2*
D15*
X35988D1*
G02X37031Y15039I0J-1043D01*
G01*
X8016Y21654D2*
D19*
Y20803D1*
G03X8799Y20020I783J0D01*
G01*
X11047D1*
X11299Y10886D2*
D20*
Y11122D1*
G02X11791Y11614I492J0D01*
G01*
X16791D1*
X22283D1*
X27815D1*
X31673D1*
X37185D1*
X38147D1*
X42697D1*
X47717D1*
G02X48209Y11122I0J-492D01*
G01*
Y10886D1*
X38147Y11614D2*
Y13924D1*
G03X37031Y15039I-1115J0D01*
G01*
X37185Y10886D2*
D17*
Y11614D1*
X42697Y10886D2*
Y11614D1*
X31673Y10886D2*
Y11614D1*
X27815Y10886D2*
Y11614D1*
X22283Y10886D2*
Y11614D1*
X16791Y10886D2*
Y11614D1*
X5906Y14764D2*
X6890D1*
X7874D1*
X8858D1*
X5906D2*
Y15551D1*
Y16339D1*
Y17126D1*
Y17913D1*
X6890D1*
X7874D1*
X8858D1*
X5906Y17126D2*
X6890D1*
X7874D1*
X8858D1*
X5906Y16339D2*
X6890D1*
X7874D1*
X8858D1*
X5906Y15551D2*
X6890D1*
X7874D1*
X8858D1*
D19*
X36677Y23504D3*
X48213Y22992D3*
X49197D3*
X50220D3*
X51205D3*
X53465Y22953D3*
X55472D3*
X37307Y22874D3*
X48213Y22638D3*
X49197D3*
X50220D3*
X51205D3*
X7031Y22362D3*
X8016D3*
X9039D3*
X10024D3*
X11047D3*
X12031Y22323D3*
X48213Y22283D3*
X49197D3*
X50220D3*
X51205D3*
X37858Y22126D3*
X7031Y22008D3*
X8016D3*
X9039D3*
X10024D3*
X11047D3*
X12031Y21969D3*
X7031Y21654D3*
X8016D3*
X9039D3*
X10024D3*
X11047D3*
X12031D3*
X38583Y21732D3*
X41161Y20610D3*
X40177Y20256D3*
X43252Y19921D3*
X45181Y19843D3*
X47205Y19311D3*
X5906Y17913D3*
X6890D3*
X7874D3*
X8858D3*
X5906Y17126D3*
X6890D3*
X7874D3*
X8858D3*
X5906Y16339D3*
X6890D3*
X7874D3*
X8858D3*
X5906Y15551D3*
X6890D3*
X7874D3*
X8858D3*
X5906Y14764D3*
X6890D3*
X7874D3*
X8858D3*
X28307Y14232D3*
X11299Y10886D3*
X16791D3*
X22283D3*
X27815D3*
X31673D3*
X37185D3*
X42697D3*
X48209D3*
X4284Y23898D2*
D21*
X4869D1*
X4284Y23649D2*
X4869D1*
X4284Y23401D2*
X4869D1*
X4284Y23152D2*
X4869D1*
X4284Y22903D2*
X4869D1*
X4284Y22655D2*
X4869D1*
X4284Y22406D2*
X4869D1*
X4284Y22157D2*
X4869D1*
X4284Y21908D2*
X4869D1*
X4284Y21660D2*
X4869D1*
X4284Y21411D2*
X4869D1*
X4594Y21162D2*
X4869D1*
X4782Y20914D2*
X4869D1*
X4649Y19919D2*
X4869D1*
X4284Y19670D2*
X4869D1*
X4284Y19422D2*
X4869D1*
X4284Y19173D2*
X4869D1*
X4284Y18924D2*
X4869D1*
X4284Y18676D2*
X4869D1*
X4284Y18427D2*
X4869D1*
X4284Y18178D2*
X4869D1*
X4284Y17929D2*
X4869D1*
X4284Y17681D2*
X4869D1*
X4284Y17432D2*
X4869D1*
X4284Y17183D2*
X4869D1*
X4284Y16935D2*
X4869D1*
X4284Y16686D2*
X4869D1*
X4284Y16437D2*
X4869D1*
X4284Y16189D2*
X4869D1*
X4284Y15940D2*
X4869D1*
X4284Y15691D2*
X4869D1*
X4284Y15443D2*
X4869D1*
X4284Y15194D2*
X4869D1*
X4284Y14945D2*
X4869D1*
X4284Y14697D2*
X4869D1*
X4284Y14448D2*
X4869D1*
X4284Y14199D2*
X4869D1*
X4284Y13950D2*
X4869D1*
X4284Y13702D2*
X4869D1*
X4284Y13453D2*
X4869D1*
X4284Y13204D2*
X4869D1*
X4284Y12956D2*
X4869D1*
X4284Y12707D2*
X4869D1*
X4284Y12458D2*
X4869D1*
X4284Y12210D2*
X4869D1*
X4284Y11961D2*
X4869D1*
X4284Y11712D2*
X4869D1*
X4284Y11464D2*
X4869D1*
X4284Y11215D2*
X4869D1*
X4284Y10966D2*
X4869D1*
X4284Y10718D2*
X4869D1*
X4284Y10469D2*
X4869D1*
X4284Y10220D2*
X4869D1*
X4284Y9971D2*
X4869D1*
X4284Y9723D2*
X4869D1*
X4284Y9474D2*
X4869D1*
X4284Y9225D2*
X4869D1*
X4284Y8977D2*
X4869D1*
X4329Y8728D2*
X4869D1*
X4676Y8479D2*
X4869D1*
X4673Y7236D2*
X4869D1*
X4284Y6987D2*
X4869D1*
X4284Y6739D2*
X4869D1*
X4284Y6490D2*
X4869D1*
X4284Y6241D2*
X4869D1*
X4284Y5992D2*
X4869D1*
X4284Y5744D2*
X4869D1*
X4284Y5495D2*
X4869D1*
X4284Y5246D2*
X4869D1*
X4284Y4998D2*
X4869D1*
X4284Y4749D2*
X4869D1*
X4284Y4500D2*
X4869D1*
X4384Y4259D2*
X4895D1*
Y24147D1*
X4259D1*
Y21356D1*
X4415Y21288D1*
X4667Y21079D1*
X4803Y20829D1*
X4866Y20513D1*
Y20464D1*
X4799Y20185D1*
X4647Y19945D1*
X4498Y19794D1*
X4347Y19711D1*
X4259Y19686D1*
Y8740D1*
X4358Y8708D1*
X4537Y8592D1*
X4718Y8402D1*
X4828Y8167D1*
X4869Y7863D1*
X4843Y7618D1*
X4750Y7353D1*
X4583Y7164D1*
X4377Y7049D1*
X4259Y7002D1*
Y4259D1*
X4384D1*
X56370Y23878D2*
X56936D1*
X56370Y23630D2*
X56936D1*
X56370Y23381D2*
X56936D1*
X56370Y23132D2*
X56936D1*
X56370Y22884D2*
X56936D1*
X56370Y22635D2*
X56936D1*
X56370Y22386D2*
X56936D1*
X56370Y22137D2*
X56936D1*
X56370Y21889D2*
X56936D1*
X56370Y21640D2*
X56936D1*
X56370Y21391D2*
X56936D1*
X56370Y21143D2*
X56611D1*
X56370Y19899D2*
X56596D1*
X56370Y19651D2*
X56936D1*
X56370Y19402D2*
X56936D1*
X56370Y19153D2*
X56936D1*
X56370Y18905D2*
X56936D1*
X56370Y18656D2*
X56936D1*
X56370Y18407D2*
X56936D1*
X56370Y18158D2*
X56936D1*
X56370Y17910D2*
X56936D1*
X56370Y17661D2*
X56936D1*
X56370Y17412D2*
X56936D1*
X56370Y17164D2*
X56936D1*
X56370Y16915D2*
X56936D1*
X56370Y16666D2*
X56936D1*
X56370Y16418D2*
X56936D1*
X56370Y16169D2*
X56936D1*
X56370Y15920D2*
X56936D1*
X56370Y15672D2*
X56936D1*
X56370Y15423D2*
X56936D1*
X56370Y15174D2*
X56936D1*
X56370Y14926D2*
X56936D1*
X56370Y14677D2*
X56936D1*
X56370Y14428D2*
X56936D1*
X56370Y14179D2*
X56936D1*
X56370Y13931D2*
X56936D1*
X56370Y13682D2*
X56936D1*
X56370Y13433D2*
X56936D1*
X56370Y13185D2*
X56936D1*
X56370Y12936D2*
X56936D1*
X56370Y12687D2*
X56936D1*
X56370Y12439D2*
X56936D1*
X56370Y12190D2*
X56936D1*
X56370Y11941D2*
X56936D1*
X56370Y11693D2*
X56936D1*
X56370Y11444D2*
X56936D1*
X56370Y11195D2*
X56936D1*
X56370Y10947D2*
X56936D1*
X56370Y10698D2*
X56936D1*
X56370Y10449D2*
X56936D1*
X56370Y10200D2*
X56936D1*
X56370Y9952D2*
X56936D1*
X56370Y9703D2*
X56936D1*
X56370Y9454D2*
X56936D1*
X56370Y9206D2*
X56936D1*
X56370Y8957D2*
X56936D1*
X56370Y8708D2*
X56842D1*
X56370Y8460D2*
X56533D1*
X56370Y7216D2*
X56596D1*
X56370Y6968D2*
X56936D1*
X56370Y6719D2*
X56936D1*
X56370Y6470D2*
X56936D1*
X56370Y6221D2*
X56936D1*
X56370Y5973D2*
X56936D1*
X56370Y5724D2*
X56936D1*
X56370Y5475D2*
X56936D1*
X56370Y5227D2*
X56936D1*
X56370Y4978D2*
X56936D1*
X56370Y4729D2*
X56936D1*
X56370Y4481D2*
X56936D1*
X56470Y4279D2*
X56962D1*
Y7001D1*
X56867Y7037D1*
X56703Y7136D1*
X56524Y7322D1*
X56396Y7562D1*
X56351Y7854D1*
X56397Y8169D1*
X56505Y8387D1*
X56649Y8577D1*
X56827Y8691D1*
X56962Y8746D1*
Y19688D1*
X56830Y19733D1*
X56636Y19881D1*
X56522Y20023D1*
X56412Y20253D1*
X56371Y20497D1*
X56413Y20734D1*
X56509Y20993D1*
X56679Y21184D1*
X56854Y21301D1*
X56962Y21333D1*
Y24127D1*
X56345D1*
Y4279D1*
X56470D1*
X5426Y20650D2*
X10264D1*
X5426Y20401D2*
X10264D1*
X5426Y20153D2*
X10264D1*
X5426Y19904D2*
X10268D1*
X5426Y19655D2*
X10268D1*
X5426Y19406D2*
X10268D1*
X5426Y19158D2*
X10268D1*
X5426Y18909D2*
X10268D1*
X5426Y18660D2*
X10272D1*
X5426Y18412D2*
X10272D1*
X5426Y18163D2*
X10272D1*
X5426Y17914D2*
X10272D1*
X5426Y17666D2*
X10276D1*
X5426Y17417D2*
X10276D1*
X5426Y17168D2*
X10276D1*
X5426Y16920D2*
X10276D1*
X5426Y16671D2*
X10276D1*
X5426Y16422D2*
X10280D1*
X5426Y16174D2*
X10280D1*
X5426Y15925D2*
X10280D1*
X5426Y15676D2*
X10280D1*
X5426Y15427D2*
X10280D1*
X5426Y15179D2*
X10284D1*
X5426Y14930D2*
X10284D1*
X5426Y14681D2*
X10284D1*
X5426Y14433D2*
X10284D1*
X5426Y14184D2*
X10284D1*
X5426Y13935D2*
X10288D1*
X5426Y13687D2*
X10288D1*
X5426Y13438D2*
X10288D1*
X5426Y13189D2*
X10288D1*
X5426Y12941D2*
X10288D1*
X5426Y12692D2*
X10292D1*
X5426Y12443D2*
X10292D1*
X5426Y12195D2*
X10292D1*
X5426Y11946D2*
X10292D1*
X5426Y11697D2*
X10292D1*
X5426Y11448D2*
X10296D1*
X5426Y11200D2*
X10296D1*
X5426Y10951D2*
X10296D1*
X5426Y10702D2*
X10296D1*
X5426Y10454D2*
X10296D1*
X5426Y10205D2*
X10299D1*
X5426Y9956D2*
X10299D1*
X5426Y9708D2*
X10299D1*
X5426Y9459D2*
X10299D1*
X5426Y9210D2*
X10299D1*
X5426Y8962D2*
X10303D1*
X5401Y20774D2*
Y8786D1*
X10326D1*
X10288Y20899D1*
X5401D1*
Y20774D1*
D25*
X14173Y5787D3*
D26*
X15748Y7717D3*
X10236D3*
D25*
X8661Y5787D3*
X25197D3*
D26*
X26772Y7717D3*
X21260D3*
D25*
X19685Y5787D3*
X36220D3*
D26*
X37795Y7717D3*
X32283D3*
D25*
X30709Y5787D3*
X47244D3*
D26*
X48819Y7717D3*
X43307D3*
D25*
X41732Y5787D3*
D27*
X15472Y19587D3*
Y18209D3*
X37031Y17657D3*
Y19035D3*
X15512Y14705D3*
Y16083D3*
X37031Y13661D3*
Y15039D3*
D33*
X52205Y22638D3*
X51205D3*
X50205D3*
X49205D3*
X48205D3*
X47205D3*
X46205D3*
X45205D3*
X44205D3*
X43220D3*
X42197D3*
X41173D3*
X40189D3*
X39205D3*
X12016Y22008D3*
X11031D3*
X10008D3*
X8984D3*
X8000D3*
X7016D3*
D39*
X52287Y7579D3*
X53287D3*
X54287D3*
X52287Y6547D3*
X54287D3*
M02*
