M48
INCH
T01C0.0236
T02C0.0315
T03C0.0354
T04C0.0433
%
T01
X+036677Y+023504
X+037307Y+022874
X+037858Y+022126
X+038583Y+021732
X+040177Y+020256
X+041161Y+020610
X+043252Y+019921
X+045181Y+019843
X+047205Y+019311
X+048213Y+022283
X+048213Y+022638
X+048213Y+022992
X+049197Y+022992
X+049197Y+022638
X+049197Y+022283
X+050220Y+022283
X+050220Y+022638
X+050220Y+022992
X+051205Y+022992
X+051205Y+022638
X+051205Y+022283
X+053465Y+022953
X+055472Y+022953
X+048209Y+010886
X+052287Y+007579
X+053287Y+007579
X+054287Y+007579
X+042697Y+010886
X+037185Y+010886
X+031673Y+010886
X+027815Y+010886
X+028307Y+014232
X+022283Y+010886
X+016791Y+010886
X+011299Y+010886
X+008858Y+014764
X+008858Y+015551
X+008858Y+016339
X+008858Y+017126
X+008858Y+017913
X+007874Y+017913
X+007874Y+017126
X+007874Y+016339
X+007874Y+015551
X+007874Y+014764
X+006890Y+014764
X+006890Y+015551
X+006890Y+016339
X+006890Y+017126
X+006890Y+017913
X+005906Y+017913
X+005906Y+017126
X+005906Y+016339
X+005906Y+015551
X+005906Y+014764
X+007031Y+021654
X+007031Y+022008
X+007031Y+022362
X+008016Y+022362
X+008016Y+022008
X+008016Y+021654
X+009039Y+021654
X+009039Y+022008
X+009039Y+022362
X+010024Y+022362
X+010024Y+022008
X+010024Y+021654
X+011047Y+021654
X+011047Y+022008
X+011047Y+022362
X+012031Y+022323
X+012031Y+021969
X+012031Y+021654
T02
X+052287Y+006547
X+054287Y+006547
T03
X+015886Y+007717G85X+015610Y+007717
X+010374Y+007717G85X+010098Y+007717
X+015512Y+014705
X+015512Y+016083
X+015472Y+018209
X+015472Y+019587
X+021398Y+007717G85X+021122Y+007717
X+026909Y+007717G85X+026634Y+007717
X+032421Y+007717G85X+032146Y+007717
X+037933Y+007717G85X+037657Y+007717
X+043445Y+007717G85X+043169Y+007717
X+048957Y+007717G85X+048681Y+007717
X+037031Y+013661
X+037031Y+015039
X+037031Y+017657
X+037031Y+019035
T04
X+014350Y+005787G85X+013996Y+005787
X+008839Y+005787G85X+008484Y+005787
X+019862Y+005787G85X+019508Y+005787
X+025374Y+005787G85X+025020Y+005787
X+030886Y+005787G85X+030531Y+005787
X+036398Y+005787G85X+036043Y+005787
X+041909Y+005787G85X+041555Y+005787
X+047421Y+005787G85X+047067Y+005787
T00
M30
