<?xml version="1.0" encoding="utf-8"?>
<!-- Generator: Adobe Illustrator 23.1.0, SVG Export Plug-In . SVG Version: 6.00 Build 0)  -->
<svg version="1.1" id="Слой_1" xmlns="http://www.w3.org/2000/svg" xmlns:xlink="http://www.w3.org/1999/xlink" x="0px" y="0px"
	 viewBox="0 0 871.91 295.91" style="enable-background:new 0 0 871.91 295.91;" xml:space="preserve">
<style type="text/css">
	.st0{fill:#17FBFF;}
	.st1{fill:#45FF00;}
	.st2{fill:#FFF573;}
	.st3{fill:#6DC7BB;}
	.st4{fill:#F8F9F9;}
</style>
<g>
	<path class="st0" d="M279.8,197.55c0,18.59-0.13,36.21,0.1,53.83c0.06,4.35-0.76,6.41-5.61,5.81c-3.61-0.45-7.32-0.29-10.97-0.07
		c-3.09,0.18-3.91-0.91-3.88-3.98c0.15-13.98,0.05-27.96,0.03-41.94c-0.05-32.62-0.04-65.24-0.27-97.85c-0.03-3.94,1-5.28,4.94-4.89
		c3.46,0.35,7.01,0.37,10.47,0.02c3.98-0.41,5.42,1.08,4.86,4.91c-0.13,0.93-0.02,1.9-0.02,3.67c12.67-9.84,26.49-12.24,41.32-9.03
		c10.4,2.25,19.14,7.51,26.04,15.66c14.36,16.97,15.66,43.51,2.82,62.38c-7.75,11.39-18.55,18.39-32.23,20.72
		C303.84,209.11,291.49,205.82,279.8,197.55z M278.16,157.03c0.11,18.21,12.91,31.49,30.25,31.38
		c17.42-0.11,30.34-13.63,30.15-31.56c-0.18-17.54-13.32-30.93-30.37-30.94C291.04,125.91,278.05,139.36,278.16,157.03z"/>
	<path class="st0" d="M534.61,116.17c1.11-7.71,1.11-7.71,9.21-7.67c11.1,0.05,11.1,0.05,11.1,11.02
		c-0.01,26.93-0.09,53.87,0.06,80.8c0.02,3.51-0.88,4.78-4.41,4.41c-2.63-0.28-5.31-0.06-7.97-0.04c-7.2,0.03-7.2,0.04-8.16-7.56
		c-12.79,10.17-27.03,12.55-42.29,8.4c-10.74-2.92-19.62-8.9-26.21-17.99c-13.96-19.24-12.75-47.03,2.77-64.72
		C484.72,104.54,508.71,102.12,534.61,116.17z M537.03,157.08c-0.31-17.86-13.67-31.4-30.78-31.21
		c-17.05,0.19-30.15,13.95-29.91,31.42c0.24,17.79,13.62,31.27,30.82,31.06C524.48,188.15,537.34,174.69,537.03,157.08z"/>
	<path class="st0" d="M710.03,207.32c-29.74-1.1-50.4-23.38-49-53.37c1.24-26.69,23.72-49.05,54.19-47.48
		c27.09,1.39,47.49,24.17,46.45,52.89C760.67,186.88,737.57,208.34,710.03,207.32z M742.86,156.54
		c-0.17-18.18-13.86-31.83-31.62-31.53c-17.63,0.3-31.56,14.54-31.43,32.15c0.13,17.59,14.35,31.62,31.94,31.52
		C729.44,188.57,743.03,174.54,742.86,156.54z"/>
	<path class="st1" d="M379.06,24.8c0-16.3,0.08,26.64,0.03,10.33c-0.01-1.98-2.3-3.97-2.2-5.93c0.11-2.27,2.3-6.52,5.29-6.38
		c3.07,0.15,5.39,4.99,3.86,8.26c-1.83,3.9-2.08,9.25-1.05,45.07c-0.04,3.13,6.61,8.38,9.71,7.74c2.11-0.44,1.79-2.31,1.59-3.64
		c-0.75-5.16,0.54-10.29,0.03-15.4c-0.36-3.57,1.27-6.09,3.63-8.28c9.46-8.76,19.04-17.4,28.45-26.21c2-1.87,4.05-2.57,6.71-2.46
		c3.82,0.16,7.66-0.11,11.48,0.06c5.82,0.26,10.84,0.19,15.01-5.6c3.89-5.4,12.53-4.21,16.78,1.71c2.29,3.18,4.71,3.93,8.31,3.91
		c24.13-0.12,48.26-0.11,72.4,0.02c3.15,0.02,5.04-0.79,6.82-3.59c5.58-8.79,16.26-7.64,21.17,1.14c1.27,2.26,2.88,2.36,4.92,2.36
		c6.66,0,13.32,0.09,19.97,0c2.38-0.03,3.78,0.41,3.68,3.24c-0.09,2.67-1.34,3.41-3.77,3.37c-6.32-0.11-12.65-0.06-18.97-0.14
		c-2.68-0.03-4.6,0.66-6.11,3.27c-4.12,7.12-15,8.77-20.47,0.44c-1.94-2.96-4.82-3.4-7.78-3.41c-24.63-0.1-49.26-0.07-73.89-0.17
		c-2.28-0.01-3.56,0.95-4.9,2.66c-6.95,8.9-14.68,8.79-21.48-0.32c-1.23-1.65-2.46-2.38-4.52-2.34c-5.82,0.12-11.65,0.09-17.47,0.01
		c-2.49-0.03-4.47,0.83-6.26,2.54c-7.91,7.5-15.78,15.06-23.88,22.35c-2.47,2.22-3.34,4.52-3.5,7.75
		c-0.36,7.38,1.69,14.93-1.71,22.13c-0.77,1.62,0.31,3.57,0.87,5.31c4.39,13.55-0.92,23.78-12.54,28.47
		c-11.71,4.73-24.77-1.3-29.18-13.44c-1.66-4.56-1.66-9.63-0.15-14.24c3.33-10.15,0.86-20.44,1.2-30.64
		c0.07-1.99-1.84-3.76-3.46-5.26c-6.98-6.49-12.3-14.7-20.7-19.73c-2.07-1.24-1.62-3.45-1.45-5.44c0.18-2.14,1.9-2.58,3.5-2.99
		c2.25-0.59,4.29,0.4,5.01,2.34c3.25,8.77,10.49,14.26,16.87,20.24c5.34,4.99,8.07,10.25,6.96,17.46c-0.15,0.98,0,2-0.04,2.99
		c-0.52,11.02,1.62,7.89,8.67,5.75c1.59-0.48,2.06-1.52,2.17-2.93c0.16-1.99,0.39-3.98,0.39-5.96c0.03-15.48,0.02-30.96,0.02-46.43
		C379.08,24.8,379.07,24.8,379.06,24.8z M380.5,113.98c7.03,0.04,12.44-4.91,12.43-11.36c-0.01-6.34-5.69-12.01-12.1-12.08
		c-7.18-0.08-11.65,4.49-11.64,11.92C369.19,109.44,373.6,113.93,380.5,113.98z"/>
	<path class="st0" d="M105.47,117.35c5.98-6.47,13.48-9.91,22.25-10.49c20.15-1.34,33.41,9.22,36.68,29.25
		c0.48,2.95,0.8,5.95,0.81,8.93c0.07,18.63-0.02,37.26,0.1,55.89c0.02,2.98-0.68,4.19-3.86,3.99c-4.14-0.27-8.32-0.28-12.46-0.02
		c-3.07,0.19-3.9-0.75-3.87-3.86c0.12-16.8-0.01-33.6-0.09-50.4c-0.01-2.49-0.11-4.99-0.29-7.48c-0.74-10.15-6.57-16.46-15.92-17.31
		c-11.26-1.02-19.83,4.25-22.51,13.89c-1.08,3.88-1.26,7.87-1.26,11.87c0,16.3-0.1,32.6,0.08,48.9c0.04,3.45-0.81,4.7-4.38,4.4
		c-3.96-0.33-8-0.35-11.96-0.02c-3.68,0.31-4.28-1.16-4.27-4.48c0.06-29.11,0.03-58.22-0.22-87.32c-0.03-3.89,1.15-4.91,4.75-4.6
		c3.14,0.26,6.35,0.29,9.47-0.06c4.67-0.52,7.35,0.51,6.27,5.94C104.63,115.17,104.23,116.32,105.47,117.35z"/>
	<path class="st0" d="M791.88,117.57c6.49-7.19,14.07-10.45,22.91-10.83c21.67-0.93,36.75,11.98,37.73,33.67
		c0.92,20.44,0.5,40.93,0.77,61.4c0.03,2.5-0.9,3.31-3.2,2.99c-0.16-0.02-0.33,0-0.5-0.01c-5.31-0.12-12.22,1.74-15.5-0.9
		c-3.46-2.78-1.03-9.99-1.1-15.25c-0.19-13.98,0-27.96-0.16-41.94c-0.18-15.77-11.27-24.04-26.42-19.97
		c-7.76,2.09-12.01,7.26-13.59,14.95c-1.05,5.11-0.71,10.28-0.73,15.43c-0.04,14.31-0.15,28.63,0.02,42.94
		c0.04,3.51-0.54,5.46-4.52,4.67c-0.64-0.13-1.33,0.02-1.99-0.04c-4.42-0.37-10.09,1.9-12.92-1c-2.6-2.66-0.73-8.25-0.74-12.53
		c-0.09-25.97-0.01-51.93-0.21-77.9c-0.03-3.67,0.77-5.25,4.62-4.7c1.79,0.26,3.66,0.06,5.49,0.06
		C790.67,108.63,790.67,108.63,791.88,117.57z"/>
	<path class="st0" d="M234.01,136.69c-1.33,0.01-2.68-0.11-3.99,0.03c-3.35,0.35-5.4-0.05-5.73-4.4c-0.4-5.31-4.93-8.34-10.7-8.32
		c-6.63,0.03-11.52,3.31-12.6,8.45c-1.18,5.58,1.16,9.92,7.07,12.08c5.3,1.93,10.83,3.25,16.18,5.06
		c14.94,5.07,21.95,16.58,20,32.59c-1.72,14.14-11.74,23.29-27,24.69c-8.67,0.79-16.95-0.25-24.37-5.25
		c-7.14-4.81-10.6-11.68-11.36-20.12c-0.21-2.34,0.48-3.33,2.93-3.28c3.99,0.08,8,0.08,11.98-0.2c2.93-0.21,4.27,0.51,5.07,3.68
		c1.6,6.33,7.89,9.31,15.21,7.86c5.66-1.12,9.19-6.03,8.72-12.16c-0.38-4.95-3.37-7.88-7.74-9.43c-5.64-2-11.45-3.49-17.06-5.56
		c-15.51-5.74-22.44-19.17-18.36-35.12c2.4-9.37,8.58-15.21,17.43-18.37c7.9-2.82,16.05-2.89,24.11-0.83
		c11.19,2.86,18.61,12.22,19.56,23.81c0.29,3.48-0.24,5.51-4.37,4.84C237.38,136.47,235.68,136.69,234.01,136.69z"/>
	<path class="st0" d="M595.94,152.22c0,6.49-0.24,12.99,0.06,19.46c0.43,9.52,4.46,14.38,13.75,16.3c3.18,0.66,4.18,1.85,3.83,4.85
		c-0.21,1.81-0.1,3.66-0.11,5.49c-0.07,8.22-0.07,8.22-8.42,6.89c-17.15-2.72-26.94-13.02-28.07-31.09
		c-0.82-13.1-0.59-26.28-0.37-39.41c0.07-4.66-0.97-6.89-5.93-6.05c-1.13,0.19-2.35-0.11-3.49,0.06c-3.43,0.52-4.73-0.68-4.43-4.29
		c0.35-4.13,0.26-8.32,0.1-12.47c-0.1-2.62,0.78-3.35,3.4-3.42c10.01-0.29,10.01-0.39,10-10.7c0-5.16,0.12-10.32-0.06-15.47
		c-0.09-2.69,0.94-3.48,3.49-3.38c4.15,0.17,8.33,0.28,12.47,0.05c3.07-0.18,3.58,1.17,3.53,3.82c-0.13,7.32,0.09,14.64-0.09,21.96
		c-0.07,3.03,0.84,4.17,3.95,3.94c3.48-0.26,6.99-0.02,10.48-0.12c2.11-0.06,2.96,0.69,2.9,2.9c-0.13,4.82-0.17,9.65,0,14.47
		c0.09,2.63-1.16,3.01-3.33,2.92c-3.49-0.13-6.99,0.06-10.48-0.14c-2.7-0.16-3.41,0.96-3.36,3.47c0.12,6.65,0.04,13.31,0.04,19.96
		C595.83,152.22,595.89,152.22,595.94,152.22z"/>
	<path class="st0" d="M425.21,117.32c6.02-7.07,12.8-10.61,21.3-10.79c2.9-0.06,4.27,0.46,4.11,3.75
		c-0.25,4.98-0.19,9.98,0.01,14.96c0.11,2.67-0.81,3.53-3.41,3.33c-2.83-0.22-5.63,0.21-8.38,0.98c-9.32,2.61-13.6,8.06-13.63,17.68
		c-0.04,17.63-0.12,35.26,0.06,52.89c0.04,3.59-0.66,5.11-4.59,4.73c-3.95-0.38-7.98-0.18-11.97-0.06c-2.4,0.08-3.57-0.45-3.57-3.25
		c0.08-30.1,0.07-60.21,0.01-90.31c0-2.11,0.54-3.03,2.78-2.92c2.82,0.14,5.65,0.04,8.48,0.02
		C424.84,108.28,424.84,108.28,425.21,117.32z"/>
	<path class="st0" d="M648.23,157.17c0,14.46-0.08,28.92,0.06,43.37c0.03,3.08-0.53,4.5-4.03,4.23c-5.12-0.39-11.79,1.64-15-0.9
		c-3.41-2.7-1.02-9.65-1.05-14.73c-0.15-25.26-0.02-50.52-0.23-75.78c-0.03-3.78,0.94-5.04,4.68-4.63
		c5.05,0.56,11.85-2.17,14.72,1.07c2.51,2.84,0.79,9.48,0.81,14.45c0.05,10.97,0.01,21.94,0.01,32.9
		C648.22,157.17,648.22,157.17,648.23,157.17z"/>
	<path class="st0" d="M145,257.15c-33.45,0-66.9-0.03-100.35,0.04c-3.16,0.01-5.2-0.01-5.2-4.31c0-4.18,1.78-4.42,5.07-4.42
		c66.73,0.1,133.46,0.14,200.2,0.08c3.54,0,4.89,0.66,4.88,4.56c-0.01,3.85-1.6,4.22-4.75,4.21c-33.28-0.09-66.57-0.05-99.85-0.05
		C145,257.22,145,257.18,145,257.15z"/>
	<path class="st2" d="M378.65,205.64c-9.2-1.12-9.19-1.12-9.2-10.68c-0.01-19.27,0.07-38.55-0.12-57.82
		c-0.04-3.98,0.79-5.74,5.16-5.36c4.78,0.41,9.63,0.22,14.45,0.14c2.59-0.04,4.03,0.63,4.02,3.6c-0.06,21.93-0.05,43.86,0.02,65.79
		c0.01,2.29-0.85,3.39-3.06,3.61c-1.64,0.17-3.28,0.41-4.92,0.63C382.86,204.23,380.74,204.3,378.65,205.64z"/>
	<path class="st0" d="M764.96,64.16c27.79,0,55.57,0.06,83.36-0.07c3.61-0.02,5.5,0.41,5.25,4.75c-0.2,3.37-1.61,3.66-4.34,3.63
		c-12.64-0.12-25.29-0.09-37.94-0.1c-43.43-0.03-86.86-0.06-130.28-0.06c-2.53,0-4.9,0.58-4.72-3.57c0.16-3.56,0.96-4.75,4.81-4.73
		c27.95,0.19,55.91,0.1,83.86,0.1C764.96,64.13,764.96,64.14,764.96,64.16z"/>
	<path class="st0" d="M608.85,66.52c0.16-16.32,13.14-28.97,29.49-28.74c16.02,0.22,28.67,13.18,28.52,29.2
		c-0.15,15.58-13.5,28-29.89,27.78C620.99,94.54,608.7,82.2,608.85,66.52z M635.73,46.86c-11.44,1.77-17.66,8.93-17.2,19.79
		c-0.22,3.26,0.72,6.22,2.32,9c4.84,8.39,14.76,11.64,24.25,7.97c9.33-3.61,13.92-12.15,11.83-21.97
		C654.94,52.26,646.26,46.21,635.73,46.86z"/>
	<path class="st0" d="M39.84,139.52c0-13.59,0.07-27.19-0.06-40.78c-0.02-2.61,0.73-3.48,3.32-3.42c6.63,0.14,13.27,0.04,19.9,0.09
		c1.22,0.01,3.06-0.45,2.91,1.63c-0.44,6.06,1.41,12.29-3.74,17.78c-7.53,8.02-14.25,16.81-21.31,25.28
		C40.51,139.91,40.17,139.72,39.84,139.52z"/>
	<path class="st0" d="M65.75,162.02c0,13.38-0.05,26.76,0.05,40.13c0.02,2.28-0.86,2.8-2.92,2.77c-6.97-0.09-13.94-0.12-20.91-0.01
		c-2.35,0.04-3.05-0.73-3.21-3.11c-0.36-5.52,0.66-10.14,4.62-14.52c7.44-8.24,14.24-17.05,21.31-25.62
		C65.04,161.78,65.4,161.9,65.75,162.02z"/>
	<path class="st0" d="M186.82,43.7c0,3.19-0.05,6.38,0.02,9.56c0.04,1.71-0.36,2.58-2.28,2.57c-2.02,0-2.17-1.08-2.16-2.68
		c0.05-6.71,0.02-13.43,0.05-20.14c0-0.71-0.37-1.68,0.56-2.03c1.08-0.41,1.53,0.59,2.05,1.29c2.68,3.57,5.59,6.99,7.94,10.78
		c2.02,3.26,3.15,2.42,4.95-0.09c3.12-4.31,6.49-8.43,10.13-13.12c1.14,3.52,0.57,6.45,0.64,9.29c0.13,4.77-0.03,9.56,0.08,14.33
		c0.04,1.92-0.69,2.42-2.42,2.41c-1.64-0.01-2.2-0.62-2.15-2.28c0.08-2.45,0.01-4.91-0.06-7.36c-0.02-0.82,0.32-1.95-0.87-2.22
		c-0.87-0.2-1.29,0.62-1.74,1.22c-1.53,2.04-3.08,4.07-4.53,6.17c-1.23,1.77-2.22,1.62-3.43-0.06c-1.93-2.68-3.99-5.25-5.99-7.87
		C187.35,43.56,187.09,43.63,186.82,43.7z"/>
	<path class="st0" d="M163.49,43.22c0.02,7.55-5.43,13.34-12.62,13.42c-7.21,0.08-12.64-5.68-12.56-13.33
		c0.07-7.51,5.3-13.07,12.39-13.17C158.03,30.04,163.47,35.61,163.49,43.22z M158.65,43.57c0.07-4.94-3.1-8.72-7.45-8.89
		c-4.62-0.18-8.21,3.52-8.25,8.49c-0.04,5.12,3.31,9.13,7.66,9.18C155.13,52.39,158.57,48.63,158.65,43.57z"/>
	<path class="st0" d="M45.76,30.35c1.13,0,2.25,0,3.38,0.07c7.38,0.45,12.06,5.31,12.11,12.54c0.06,7.37-4.71,12.75-11.88,13.44
		c-9.59,0.92-9.6,0.92-9.59-8.82c0-4.39,0-8.61,0.09-13.16c0.18-3.59,1.03-4.11,4.02-4.09C44.55,30.33,45.14,30.35,45.76,30.35
		C45.76,30.37,45.76,30.33,45.76,30.35z M44,43.11c0,2.19-0.03,4.38,0.02,6.57c0.02,0.84-0.15,1.77,0.94,2.27
		c3.65,1.67,9.75-1.25,11.18-5.4c1.71-4.95-0.72-10.34-5.2-11.55C45.21,33.44,44,34.38,44,40.41C44,41.31,44,42.21,44,43.11z"/>
	<path class="st0" d="M710.13,249.39c1.55-4.29,2.69-7.69,4.02-11.02c0.69-1.72,0.87-3.96,3.83-3.69c2.59,0.23,2.64,2.08,3.15,3.78
		c0.99,3.33,1.99,6.66,3.14,10.51c2.26-3.69,2.51-7.5,3.52-11.04c0.59-2.04,1.49-3.48,3.76-2.87c2.82,0.77,0.99,2.63,0.62,3.98
		c-1.4,5.13-2.99,10.21-4.33,15.35c-0.54,2.08-1.43,2.97-3.72,3.04c-2.42,0.07-2.64-1.42-3.1-3.03c-1.03-3.64-2.09-7.28-3.35-11.63
		c-2.24,3.8-2.75,7.38-3.87,10.72c-0.62,1.84-0.64,3.7-3.57,3.82c-3.3,0.14-3.3-2-3.86-4.02c-1.39-4.96-2.84-9.9-4.13-14.89
		c-0.3-1.17-1.9-2.99,0.74-3.53c1.99-0.41,3.5,0.05,4.02,2.49C707.8,241.09,708.9,244.73,710.13,249.39z"/>
	<path class="st0" d="M103.6,55.51c0.03-0.27-0.02-0.59,0.1-0.77c5.54-7.8,6.15-15.63-0.97-23.8c3-0.1,5.09-1.49,6.38,1.35
		c0.89,1.96,1.73,3.94,2.67,6.12c3.16-2.24,1.92-9.35,8.59-7.34c-1.45,3.14-2.7,6.32-4.34,9.28c-1.33,2.4-1.41,4.47,0.03,6.8
		c1.07,1.73,1.97,3.6,2.77,5.48c0.42,0.98,2.09,2.42,0.39,3.09c-1.28,0.5-3.52,1.2-4.54-1.16c-0.8-1.86-1.59-3.72-2.5-5.85
		C109.11,50.99,109.84,57.74,103.6,55.51z"/>
	<path class="st0" d="M673.73,246.66c-1.91,2.7-3.61,5.03-5.23,7.42c-1.39,2.04-2.63,2.23-4.1,0.05c-1.54-2.3-3.23-4.5-5.85-6.65
		c0,2.18,0.07,4.36-0.02,6.53c-0.07,1.5,0.67,3.47-2.15,3.52c-2.56,0.04-2.47-1.49-2.47-3.25c0.01-5.49-0.06-10.98-0.02-16.46
		c0.01-1.03-0.58-2.46,1.07-2.9c1.45-0.39,2.57,0.1,3.4,1.39c2.08,3.21,4.33,6.31,6.26,9.6c1.4,2.4,2.36,2.21,3.77,0.08
		c2.11-3.19,4.34-6.29,6.59-9.38c0.76-1.05,1.53-2.4,3.14-1.99c1.85,0.47,1.26,2.12,1.26,3.33c0.03,5.49-0.03,10.98-0.04,16.46
		c0,1.62-0.14,2.91-2.35,2.96c-2.22,0.05-2.28-1.16-2.36-2.83C674.5,252.13,675.25,249.64,673.73,246.66z"/>
	<path class="st0" d="M378.65,205.64c2.1-1.34,4.21-1.41,6.34-0.08c0.03,21.03,0.05,42.06,0.11,63.1c0.01,1.94-0.54,4,0.8,5.77
		c-2.9,0.07-5.81,0.1-8.6,1.06c0.52-1.33,1.04-2.67,1.56-4c2.16-0.92,1.34-2.85,1.34-4.37c0.05-18.98,0.05-37.95,0.01-56.93
		c0-1.57,0.63-3.4-1.16-4.55l-0.2,0.17L378.65,205.64z"/>
	<path class="st0" d="M629.15,256.74c-3.93,1.98-5.4-0.66-7.02-3.21c-1.02-1.6-1.67-4.15-4.18-3.58c-2.48,0.56-1.38,3.01-1.52,4.65
		c-0.15,1.74-0.42,2.79-2.52,2.75c-2.31-0.03-2.2-1.48-2.2-3.02c0-3.66-0.22-7.33,0.05-10.97c0.2-2.66-1.55-7.04,1.07-7.66
		c4.46-1.06,9.74-1.95,13.99,1.17c3.53,2.59,3.77,6.9,1.27,9.75c-3.01,3.43-1.72,5.65,0.21,8.41
		C628.66,255.54,628.87,256.16,629.15,256.74z M619.88,246.16c2.75,0.01,4.9-0.72,4.69-3.86c-0.2-3.06-2.49-3.37-5.01-3.56
		c-2.97-0.22-3.09,1.41-3.16,3.67C616.32,245.11,617.02,246.63,619.88,246.16z"/>
	<path class="st0" d="M813.83,256.79c-4.01,1.89-5.44-0.9-7.16-3.37c-0.97-1.4-1.62-3.8-3.95-3.01c-1.78,0.61-0.85,2.63-0.95,4
		c-0.12,1.57,0.07,2.92-2.19,3.01c-2.46,0.09-2.63-1.24-2.6-3.13c0.08-5.31,0.15-10.63,0.02-15.94c-0.06-2.39,0.75-3.3,3.15-3.12
		c2.64,0.19,5.35-0.16,7.95,0.24c6.02,0.93,8.93,6.99,4.99,11.47c-2.91,3.31-2.31,5.41-0.09,8.18
		C813.37,255.59,813.55,256.22,813.83,256.79z M801.76,242.28c-0.04,2.28-0.47,4.62,3.07,4.27c2.46-0.24,4.8-0.38,4.86-3.61
		c0.06-3.14-2.12-3.66-4.65-3.92C802.36,238.74,801.32,239.8,801.76,242.28z"/>
	<path class="st0" d="M845.46,235.14c1.98,1.12,6.63-1.97,6.75,1.75c0.12,3.74-4.39,1.34-6.79,1.79c-1.8,0.33-3.18,0.34-3.19,2.73
		c-0.01,2.26,1.07,2.92,3.05,2.84c1.16-0.04,2.33-0.02,3.5-0.02c1.45,0,3.18-0.49,3.09,1.96c-0.09,2.47-1.93,1.72-3.29,1.81
		c-0.99,0.07-2,0.07-3,0.02c-2.14-0.11-3.43,0.41-3.39,3.01c0.05,2.82,1.84,2.39,3.66,2.76c2.27,0.46,6.56-2.08,6.43,1.94
		c-0.11,3.49-4.35,1.5-6.63,1.59c-8.16,0.34-8.17,0.17-8.19-7.77c-0.01-2.33-0.01-4.66-0.03-6.99
		C837.37,235.11,837.37,235.11,845.46,235.14z"/>
	<path class="st0" d="M775.1,254.69c0.58,1.93,0.06,2.45-0.91,2.52c-1.29,0.09-2.48,0.29-3.53-1.08c-3.96-5.2-8.41-5.27-11.89-0.17
		c-1.1,1.61-2.5,1.75-3.87,1.34c-2.34-0.7-0.56-2.19-0.18-3.15c2.21-5.56,4.53-11.08,6.9-16.57c1.1-2.55,4.79-3.49,5.77-1.38
		C770.31,242.54,772.79,249.07,775.1,254.69z M764.3,242.64c0.04,2.07-2.93,3.69-1.01,5.74c0.5,0.53,2.92,0.34,3.15-0.14
		C767.51,246.04,765.73,244.45,764.3,242.64z"/>
	<path class="st0" d="M84.23,43.08c0,3.47-0.04,6.95,0.02,10.42c0.03,1.5-0.19,2.46-1.99,2.4c-1.57-0.05-2.53-0.23-2.5-2.29
		c0.1-6.95,0.06-13.9-0.03-20.84c-0.02-1.71,0.61-2.24,2.19-2.22c1.46,0.02,2.34,0.28,2.29,2.11c-0.1,3.47-0.03,6.95-0.03,10.42
		C84.2,43.08,84.21,43.08,84.23,43.08z"/>
	<path class="st0" d="M545.1,245.99c-0.03-11.42-0.03-11.43,11.23-10.98c1.42,0.06,3.34-0.42,3.35,1.83
		c0.01,2.29-1.95,1.73-3.34,1.81c-1.49,0.09-2.98,0.11-4.47,0.14c-1.93,0.04-1.91,1.4-1.92,2.78c-0.01,1.42,0.08,2.71,1.97,2.73
		c1.32,0.01,2.66-0.06,3.97,0.06c1.13,0.11,2.81-0.75,2.93,1.52c0.12,2.28-1.42,2.45-2.94,2.22c-4.69-0.69-6.78,0.99-5.93,5.88
		c0.31,1.79-0.05,3.26-2.46,3.3c-2.58,0.04-2.4-1.66-2.39-3.34C545.11,251.29,545.11,248.64,545.1,245.99z"/>
	<path class="st0" d="M588.13,246.15c0,2.81-0.05,5.61,0.02,8.42c0.04,1.53-0.21,2.54-2.1,2.49c-1.65-0.04-2.88-0.15-2.85-2.34
		c0.09-5.78,0.07-11.55,0.02-17.33c-0.02-2.17,1.34-2.3,2.94-2.32c1.94-0.02,1.99,1.24,1.97,2.66
		C588.11,240.53,588.13,243.34,588.13,246.15z"/>
	<path class="st3" d="M377.3,275.49c2.79-0.96,5.7-0.99,8.6-1.06c3.56,3.34,4.05,6.56,1.14,9.65c-2.27,2.42-5.13,2.82-8.06,1.09
		C375.61,283.18,375.03,279.65,377.3,275.49z"/>
	<path class="st0" d="M379.05,205.64c1.79,1.15,1.16,2.98,1.16,4.55c0.04,18.98,0.05,37.95-0.01,56.93c0,1.52,0.82,3.45-1.34,4.37
		C378.54,249.54,378.1,227.59,379.05,205.64z"/>
	<path class="st3" d="M635.73,46.86c0.11,5.47,0.02,10.96,0.42,16.41c0.2,2.75-0.62,3.57-3.19,3.5c-4.81-0.12-9.62-0.09-14.43-0.12
		C618.07,55.79,624.28,48.63,635.73,46.86z"/>
	<path class="st0" d="M158.65,43.57"/>
	<path class="st4" d="M142.94,43.17"/>
	<path class="st1" d="M711.71,135.27c12.36-0.02,21.33,8.9,21.41,21.27c0.08,12.84-9,22.25-21.58,22.36
		c-12.28,0.11-21.96-9.7-21.94-22.22C689.63,144.49,699.13,135.29,711.71,135.27z"/>
</g>
</svg>
