G04 DipTrace 2.4.0.2*
%IN1_Layer_Top_Mask.gbr*%
%MOIN*%
%ADD41R,0.0669X0.0315*%
%ADD43R,0.0315X0.0669*%
%ADD45R,0.0787X0.0236*%
%ADD51O,0.0866X0.0492*%
%ADD53O,0.0512X0.0866*%
%ADD55R,0.0669X0.0472*%
%ADD57C,0.0472*%
%ADD59O,0.0866X0.0512*%
%ADD61R,0.0512X0.0669*%
%ADD63R,0.0479X0.0429*%
%ADD65R,0.0669X0.0512*%
%ADD67R,0.0429X0.0479*%
%FSLAX44Y44*%
G04*
G70*
G90*
G75*
G01*
%LNTopMask*%
%LPD*%
D67*
X13976Y14803D3*
X14646D3*
X13976Y15472D3*
X14646D3*
X13976Y16142D3*
X14646D3*
D65*
X6024Y7953D3*
Y8780D3*
D63*
X5709Y12638D3*
Y13307D3*
D67*
X6339Y14567D3*
X5669D3*
D61*
X6772Y9567D3*
X5945D3*
D67*
X12717Y14134D3*
X13386D3*
X6339Y13937D3*
X5669D3*
X6339Y15354D3*
X5669D3*
X6339Y15984D3*
X5669D3*
D63*
X5709Y17283D3*
Y16614D3*
D65*
X6024Y6457D3*
Y7283D3*
X12835Y12638D3*
Y13465D3*
D63*
X7480Y9016D3*
Y9685D3*
X8150Y9016D3*
Y9685D3*
X9409Y9016D3*
Y9685D3*
X10472Y9016D3*
Y9685D3*
X11732Y9016D3*
Y9685D3*
D67*
X11260Y12677D3*
X10591D3*
D63*
X5079Y12638D3*
Y13307D3*
Y16614D3*
Y17283D3*
D59*
X4134Y15157D3*
D57*
X8150Y10118D3*
X13465Y11220D3*
D55*
X4213Y15157D3*
D59*
X4134Y14370D3*
D57*
X13465Y9961D3*
Y8701D3*
D53*
X5531Y19488D3*
D57*
X11220Y17520D3*
D53*
X6319Y19488D3*
D57*
X10709Y17520D3*
D59*
X4134Y5709D3*
D57*
X9685Y17520D3*
D59*
X4134Y6496D3*
D57*
X10197Y17520D3*
D51*
X4134Y7283D3*
D59*
Y8071D3*
D57*
X11732Y10079D3*
X15354Y5709D3*
D59*
X4134Y8858D3*
Y9646D3*
D57*
X4409Y15157D3*
D59*
X4134Y10433D3*
D57*
X8937Y15906D3*
D63*
X6811Y7913D3*
D59*
X15591Y5709D3*
D63*
X6811Y8583D3*
D59*
X15591Y6496D3*
Y7283D3*
D57*
X6614Y11535D3*
D63*
X6811Y6654D3*
D59*
X15591Y8071D3*
D63*
X6811Y7323D3*
D59*
X15591Y8858D3*
Y9646D3*
D57*
X5669Y10906D3*
D59*
X15591Y10433D3*
D57*
X12441Y8622D3*
D59*
X15591Y16732D3*
D57*
X6102Y4882D3*
D59*
X15591Y17520D3*
D57*
X12441Y5669D3*
D59*
X15591Y18307D3*
D57*
X14331Y5984D3*
D59*
X15591Y19094D3*
D57*
X6339Y10906D3*
D59*
X4134Y15945D3*
D57*
X9370Y16732D3*
D59*
X4134D3*
D57*
X6969Y17835D3*
X5118Y18504D3*
X5787Y17913D3*
X6890Y18937D3*
X8583Y16890D3*
X13780Y19055D3*
X10512Y15039D3*
X4528Y12244D3*
X10039Y16024D3*
X4370Y5709D3*
Y4921D3*
X4409Y10433D3*
X8543Y7087D3*
X7874Y18937D3*
X8898Y19134D3*
X11732Y13465D3*
X12835Y12047D3*
X6811Y6142D3*
X5079Y12244D3*
X4409Y16732D3*
X6319Y19252D3*
X5531D3*
X8622Y17717D3*
X4409Y8071D3*
Y7283D3*
Y6496D3*
X15354Y10433D3*
Y9646D3*
Y8858D3*
Y8071D3*
Y17520D3*
Y16732D3*
X4744Y19252D3*
X4409Y14370D3*
X8701Y8425D3*
X4409Y15945D3*
X9134Y8425D3*
X5394Y7953D3*
D45*
X7835Y8268D3*
Y8012D3*
Y7756D3*
Y7500D3*
Y7244D3*
Y6988D3*
Y6732D3*
X10118D3*
Y6988D3*
Y7244D3*
Y7500D3*
Y7756D3*
Y8012D3*
Y8268D3*
D53*
X4744Y19488D3*
D55*
X4213Y16732D3*
D59*
X4134Y4921D3*
D63*
X6339Y17283D3*
Y16614D3*
X5079Y14567D3*
Y13898D3*
X8780Y9016D3*
Y9685D3*
X11102Y9016D3*
Y9685D3*
X6929Y16024D3*
Y15354D3*
Y13898D3*
Y14567D3*
X6339Y12638D3*
Y13307D3*
X5079Y15984D3*
Y15315D3*
D67*
X14646Y11220D3*
X13976D3*
X14646Y10591D3*
X13976D3*
X14646Y9961D3*
X13976D3*
X14646Y9331D3*
X13976D3*
X14646Y8701D3*
X13976D3*
X14646Y8071D3*
X13976D3*
D63*
X11102Y8268D3*
Y7598D3*
X11732Y8268D3*
Y7598D3*
D67*
X14646Y11850D3*
X13976D3*
X14646Y12480D3*
X13976D3*
X14646Y13110D3*
X13976D3*
X8465Y12677D3*
X7795D3*
X9882D3*
X9213D3*
X13465Y18543D3*
X12795D3*
D43*
X10551Y13465D3*
X10945D3*
X11339D3*
X10157D3*
X9370D3*
X8583D3*
X9764D3*
X8976D3*
D41*
X12067Y14154D3*
X7854D3*
X12067Y14547D3*
Y14941D3*
Y15335D3*
Y15728D3*
Y16122D3*
Y16516D3*
Y16909D3*
Y17303D3*
Y17697D3*
X7854Y14547D3*
Y14941D3*
Y15335D3*
Y15728D3*
Y16122D3*
Y16516D3*
Y16909D3*
Y17303D3*
Y17697D3*
D43*
X10945Y18386D3*
X11339D3*
X10551D3*
X10157D3*
X9764D3*
X9370D3*
X8976D3*
X8583D3*
M02*
