G04 DipTrace 2.4.0.2*
%IN1_Layer_Top_PMask.gbr*%
%MOIN*%
%ADD42R,0.0512X0.0157*%
%ADD44R,0.0157X0.0512*%
%ADD46R,0.063X0.0079*%
%ADD52O,0.0709X0.0335*%
%ADD54O,0.0354X0.0709*%
%ADD56R,0.0512X0.0315*%
%ADD60O,0.0709X0.0354*%
%ADD62R,0.0354X0.0512*%
%ADD64R,0.0321X0.0271*%
%ADD66R,0.0512X0.0354*%
%ADD68R,0.0271X0.0321*%
%FSLAX44Y44*%
G04*
G70*
G90*
G75*
G01*
%LNTopPaste*%
%LPD*%
D68*
X13976Y14803D3*
X14646D3*
X13976Y15472D3*
X14646D3*
X13976Y16142D3*
X14646D3*
D66*
X6024Y7953D3*
Y8780D3*
D64*
X5709Y12638D3*
Y13307D3*
D68*
X6339Y14567D3*
X5669D3*
D62*
X6772Y9567D3*
X5945D3*
D68*
X12717Y14134D3*
X13386D3*
X6339Y13937D3*
X5669D3*
X6339Y15354D3*
X5669D3*
X6339Y15984D3*
X5669D3*
D64*
X5709Y17283D3*
Y16614D3*
D66*
X6024Y6457D3*
Y7283D3*
X12835Y12638D3*
Y13465D3*
D64*
X7480Y9016D3*
Y9685D3*
X8150Y9016D3*
Y9685D3*
X9409Y9016D3*
Y9685D3*
X10472Y9016D3*
Y9685D3*
X11732Y9016D3*
Y9685D3*
D68*
X11260Y12677D3*
X10591D3*
D64*
X5079Y12638D3*
Y13307D3*
Y16614D3*
Y17283D3*
D60*
X4134Y15157D3*
D56*
X4213D3*
D60*
X4134Y14370D3*
D54*
X5531Y19488D3*
X6319D3*
D60*
X4134Y5709D3*
Y6496D3*
D52*
Y7283D3*
D60*
Y8071D3*
Y8858D3*
Y9646D3*
Y10433D3*
D64*
X6811Y7913D3*
D60*
X15591Y5709D3*
D64*
X6811Y8583D3*
D60*
X15591Y6496D3*
Y7283D3*
D64*
X6811Y6654D3*
D60*
X15591Y8071D3*
D64*
X6811Y7323D3*
D60*
X15591Y8858D3*
Y9646D3*
Y10433D3*
Y16732D3*
Y17520D3*
Y18307D3*
Y19094D3*
X4134Y15945D3*
Y16732D3*
D46*
X7835Y8268D3*
Y8012D3*
Y7756D3*
Y7500D3*
Y7244D3*
Y6988D3*
Y6732D3*
X10118D3*
Y6988D3*
Y7244D3*
Y7500D3*
Y7756D3*
Y8012D3*
Y8268D3*
D54*
X4744Y19488D3*
D56*
X4213Y16732D3*
D60*
X4134Y4921D3*
D64*
X6339Y17283D3*
Y16614D3*
X5079Y14567D3*
Y13898D3*
X8780Y9016D3*
Y9685D3*
X11102Y9016D3*
Y9685D3*
X6929Y16024D3*
Y15354D3*
Y13898D3*
Y14567D3*
X6339Y12638D3*
Y13307D3*
X5079Y15984D3*
Y15315D3*
D68*
X14646Y11220D3*
X13976D3*
X14646Y10591D3*
X13976D3*
X14646Y9961D3*
X13976D3*
X14646Y9331D3*
X13976D3*
X14646Y8701D3*
X13976D3*
X14646Y8071D3*
X13976D3*
D64*
X11102Y8268D3*
Y7598D3*
X11732Y8268D3*
Y7598D3*
D68*
X14646Y11850D3*
X13976D3*
X14646Y12480D3*
X13976D3*
X14646Y13110D3*
X13976D3*
X8465Y12677D3*
X7795D3*
X9882D3*
X9213D3*
X13465Y18543D3*
X12795D3*
D44*
X10551Y13465D3*
X10945D3*
X11339D3*
X10157D3*
X9370D3*
X8583D3*
X9764D3*
X8976D3*
D42*
X12067Y14154D3*
X7854D3*
X12067Y14547D3*
Y14941D3*
Y15335D3*
Y15728D3*
Y16122D3*
Y16516D3*
Y16909D3*
Y17303D3*
Y17697D3*
X7854Y14547D3*
Y14941D3*
Y15335D3*
Y15728D3*
Y16122D3*
Y16516D3*
Y16909D3*
Y17303D3*
Y17697D3*
D44*
X10945Y18386D3*
X11339D3*
X10551D3*
X10157D3*
X9764D3*
X9370D3*
X8976D3*
X8583D3*
M02*
