G04 DipTrace 2.4.0.2*
%IN1_Layer_Top_Silk.gbr*%
%MOIN*%
%ADD10C,0.0098*%
%ADD15C,0.0118*%
%ADD20C,0.0059*%
%ADD69C,0.0046*%
%ADD70C,0.0066*%
%ADD71C,0.0087*%
%FSLAX44Y44*%
G04*
G70*
G90*
G75*
G01*
%LNTopSilk*%
%LPD*%
G36*
X14411Y15000D2*
Y14606D1*
X14173Y14803D1*
D1*
X14411Y15000D1*
G37*
X13740Y14547D2*
D20*
X14882D1*
Y15059D1*
X13740D1*
Y14547D1*
G36*
X14411Y15669D2*
Y15276D1*
X14173Y15472D1*
D1*
X14411Y15669D1*
G37*
X13740Y15217D2*
D20*
X14882D1*
Y15728D1*
X13740D1*
Y15217D1*
G36*
X14411Y16339D2*
Y15945D1*
X14173Y16142D1*
D1*
X14411Y16339D1*
G37*
X13740Y15886D2*
D20*
X14882D1*
Y16398D1*
X13740D1*
Y15886D1*
X5669Y7677D2*
X6378D1*
Y9055D1*
X5669D1*
Y7677D1*
X5959Y12398D2*
X5459D1*
Y13540D1*
X5959D1*
Y12398D1*
X6578Y14817D2*
X5436D1*
Y14317D1*
X6578D1*
Y14817D1*
X7047Y9213D2*
X5669D1*
Y9921D1*
X7047D1*
Y9213D1*
X12477Y13884D2*
X13619D1*
Y14384D1*
X12477D1*
Y13884D1*
X6578Y14187D2*
X5436D1*
Y13687D1*
X6578D1*
Y14187D1*
Y15604D2*
X5436D1*
Y15104D1*
X6578D1*
Y15604D1*
Y16234D2*
X5436D1*
Y15734D1*
X6578D1*
Y16234D1*
X5459Y17523D2*
X5959D1*
Y16381D1*
X5459D1*
Y17523D1*
X5669Y6181D2*
X6378D1*
Y7559D1*
X5669D1*
Y6181D1*
X12480Y12362D2*
X13189D1*
Y13740D1*
X12480D1*
Y12362D1*
X7730Y8776D2*
X7230D1*
Y9918D1*
X7730D1*
Y8776D1*
X8400D2*
X7900D1*
Y9918D1*
X8400D1*
Y8776D1*
X9659D2*
X9159D1*
Y9918D1*
X9659D1*
Y8776D1*
X10722D2*
X10222D1*
Y9918D1*
X10722D1*
Y8776D1*
X11982D2*
X11482D1*
Y9918D1*
X11982D1*
Y8776D1*
X11499Y12927D2*
X10357D1*
Y12427D1*
X11499D1*
Y12927D1*
X5329Y12398D2*
X4829D1*
Y13540D1*
X5329D1*
Y12398D1*
Y16375D2*
X4829D1*
Y17517D1*
X5329D1*
Y16375D1*
X6089Y17523D2*
X6589D1*
Y16381D1*
X6089D1*
Y17523D1*
X4829Y14806D2*
X5329D1*
Y13665D1*
X4829D1*
Y14806D1*
X9030Y8776D2*
X8530D1*
Y9918D1*
X9030D1*
Y8776D1*
X11352D2*
X10852D1*
Y9918D1*
X11352D1*
Y8776D1*
X6679Y16263D2*
X7179D1*
Y15121D1*
X6679D1*
Y16263D1*
X7179Y13658D2*
X6679D1*
Y14800D1*
X7179D1*
Y13658D1*
X6589Y12398D2*
X6089D1*
Y13540D1*
X6589D1*
Y12398D1*
X4829Y16224D2*
X5329D1*
Y15082D1*
X4829D1*
Y16224D1*
X14885Y11470D2*
X13743D1*
Y10970D1*
X14885D1*
Y11470D1*
Y10841D2*
X13743D1*
Y10341D1*
X14885D1*
Y10841D1*
Y10211D2*
X13743D1*
Y9711D1*
X14885D1*
Y10211D1*
Y9581D2*
X13743D1*
Y9081D1*
X14885D1*
Y9581D1*
Y8951D2*
X13743D1*
Y8451D1*
X14885D1*
Y8951D1*
Y8321D2*
X13743D1*
Y7821D1*
X14885D1*
Y8321D1*
X10852Y8507D2*
X11352D1*
Y7365D1*
X10852D1*
Y8507D1*
X11482D2*
X11982D1*
Y7365D1*
X11482D1*
Y8507D1*
X14885Y12100D2*
X13743D1*
Y11600D1*
X14885D1*
Y12100D1*
Y12730D2*
X13743D1*
Y12230D1*
X14885D1*
Y12730D1*
Y13360D2*
X13743D1*
Y12860D1*
X14885D1*
Y13360D1*
X8704Y12927D2*
X7562D1*
Y12427D1*
X8704D1*
Y12927D1*
X10121D2*
X8980D1*
Y12427D1*
X10121D1*
Y12927D1*
X13704Y18793D2*
X12562D1*
Y18293D1*
X13704D1*
Y18793D1*
X7776Y13504D2*
D10*
X8327D1*
X8130Y13701D1*
X8327Y13504D2*
X8130Y13307D1*
X6561Y8816D2*
D20*
X7061D1*
Y7674D1*
X6561D1*
Y8816D1*
Y7556D2*
X7061D1*
Y6414D1*
X6561D1*
Y7556D1*
X8347Y8484D2*
D10*
Y6516D1*
X9606Y8484D2*
Y6516D1*
X8347D2*
X9606D1*
X8347Y8484D2*
X8780D1*
X9173D2*
X9606D1*
X8780D2*
G03X9173Y8484I197J0D01*
G01*
X10236Y5591D2*
D20*
X14055D1*
X10197Y4449D2*
X14134D1*
X4213Y19409D2*
D15*
X4449D1*
X5039D2*
X5236D1*
X5827D2*
X6024D1*
X6614D2*
X15512D1*
Y19370D1*
Y18819D2*
Y18583D1*
Y18031D2*
Y17795D1*
Y17244D2*
Y17008D1*
Y16417D2*
Y10709D1*
Y10157D2*
Y9921D1*
Y9370D2*
Y9134D1*
Y8583D2*
Y8346D1*
Y7795D2*
Y7559D1*
Y7008D2*
Y6772D1*
Y6220D2*
Y5984D1*
Y5433D2*
Y4213D1*
X4213D1*
Y4646D2*
Y4213D1*
Y5433D2*
Y5197D1*
Y6220D2*
Y5984D1*
Y7008D2*
Y6772D1*
Y7795D2*
Y7559D1*
Y8583D2*
Y8346D1*
Y9370D2*
Y9134D1*
Y10157D2*
Y9921D1*
Y10709D2*
Y14094D1*
Y14882D2*
Y14646D1*
Y15669D2*
Y15433D1*
Y16457D2*
Y16220D1*
Y19409D2*
Y17008D1*
X15104Y14967D2*
D69*
X15061Y14952D1*
X15032Y14909D1*
X15018Y14838D1*
Y14794D1*
X15032Y14723D1*
X15061Y14680D1*
X15104Y14665D1*
X15132D1*
X15175Y14680D1*
X15204Y14723D1*
X15219Y14794D1*
Y14838D1*
X15204Y14909D1*
X15175Y14952D1*
X15132Y14967D1*
X15104D1*
X15204Y14909D2*
X15032Y14723D1*
X15043Y15618D2*
X15072Y15632D1*
X15115Y15675D1*
Y15374D1*
X15032Y16234D2*
Y16248D1*
X15046Y16277D1*
X15061Y16291D1*
X15090Y16305D1*
X15147D1*
X15175Y16291D1*
X15190Y16277D1*
X15204Y16248D1*
Y16219D1*
X15190Y16190D1*
X15161Y16148D1*
X15018Y16004D1*
X15219D1*
X11083Y6577D2*
Y6706D1*
X11069Y6749D1*
X11054Y6763D1*
X11026Y6778D1*
X10997D1*
X10968Y6763D1*
X10954Y6749D1*
X10940Y6706D1*
Y6577D1*
X11241D1*
X11083Y6677D2*
X11241Y6778D1*
X10997Y6870D2*
X10983Y6899D1*
X10940Y6942D1*
X11241D1*
X10940Y7207D2*
Y7064D1*
X11069Y7050D1*
X11055Y7064D1*
X11040Y7107D1*
Y7150D1*
X11055Y7193D1*
X11083Y7222D1*
X11126Y7236D1*
X11155D1*
X11198Y7222D1*
X11227Y7193D1*
X11241Y7150D1*
Y7107D1*
X11227Y7064D1*
X11212Y7050D1*
X11184Y7035D1*
X11713Y6623D2*
Y6752D1*
X11699Y6796D1*
X11684Y6810D1*
X11656Y6824D1*
X11627D1*
X11598Y6810D1*
X11584Y6796D1*
X11570Y6752D1*
Y6623D1*
X11871D1*
X11713Y6724D2*
X11871Y6824D1*
X11627Y6917D2*
X11613Y6946D1*
X11570Y6989D1*
X11871D1*
X11613Y7254D2*
X11584Y7239D1*
X11570Y7196D1*
Y7168D1*
X11584Y7125D1*
X11627Y7096D1*
X11699Y7082D1*
X11771D1*
X11828Y7096D1*
X11857Y7125D1*
X11871Y7168D1*
Y7182D1*
X11857Y7225D1*
X11828Y7254D1*
X11785Y7268D1*
X11771D1*
X11727Y7254D1*
X11699Y7225D1*
X11685Y7182D1*
Y7168D1*
X11699Y7125D1*
X11727Y7096D1*
X11771Y7082D1*
X9778Y19120D2*
Y18905D1*
X9792Y18862D1*
X9821Y18834D1*
X9864Y18819D1*
X9893D1*
X9936Y18834D1*
X9965Y18862D1*
X9979Y18905D1*
Y19120D1*
X10071Y19063D2*
X10100Y19077D1*
X10143Y19120D1*
Y18819D1*
X13465Y16709D2*
D70*
X13594D1*
X13637Y16724D1*
X13652Y16738D1*
X13666Y16767D1*
Y16795D1*
X13652Y16824D1*
X13637Y16839D1*
X13594Y16853D1*
X13465D1*
Y16551D1*
X13566Y16709D2*
X13666Y16551D1*
X13797Y16853D2*
X13998Y16551D1*
Y16853D2*
X13797Y16551D1*
X14359Y16831D2*
X14129Y16702D1*
X14359Y16573D1*
X14591Y16853D2*
Y16551D1*
X14490Y16853D2*
X14691D1*
X14822D2*
X15023Y16551D1*
Y16853D2*
X14822Y16551D1*
X14375Y19172D2*
X14346Y19201D1*
X14303Y19215D1*
X14246D1*
X14203Y19201D1*
X14174Y19172D1*
Y19143D1*
X14188Y19115D1*
X14203Y19100D1*
X14231Y19086D1*
X14317Y19057D1*
X14346Y19043D1*
X14360Y19028D1*
X14375Y19000D1*
Y18957D1*
X14346Y18928D1*
X14303Y18914D1*
X14246D1*
X14203Y18928D1*
X14174Y18957D1*
X14506Y19215D2*
Y18914D1*
X14606D1*
X14650Y18928D1*
X14678Y18957D1*
X14693Y18986D1*
X14707Y19028D1*
Y19100D1*
X14693Y19143D1*
X14678Y19172D1*
X14650Y19201D1*
X14606Y19215D1*
X14506D1*
X15068Y18914D2*
X14953Y19215D1*
X14838Y18914D1*
X14881Y19014D2*
X15025D1*
X14453Y18424D2*
X14425Y18453D1*
X14382Y18467D1*
X14324D1*
X14281Y18453D1*
X14252Y18424D1*
Y18395D1*
X14267Y18367D1*
X14281Y18352D1*
X14310Y18338D1*
X14396Y18309D1*
X14425Y18295D1*
X14439Y18280D1*
X14453Y18252D1*
Y18209D1*
X14425Y18180D1*
X14382Y18166D1*
X14324D1*
X14281Y18180D1*
X14252Y18209D1*
X14800Y18395D2*
X14786Y18424D1*
X14757Y18453D1*
X14728Y18467D1*
X14671D1*
X14642Y18453D1*
X14614Y18424D1*
X14599Y18395D1*
X14585Y18352D1*
Y18280D1*
X14599Y18238D1*
X14614Y18209D1*
X14642Y18180D1*
X14671Y18166D1*
X14728D1*
X14757Y18180D1*
X14786Y18209D1*
X14800Y18238D1*
X14931Y18467D2*
Y18166D1*
X15103D1*
X13566Y17680D2*
Y17378D1*
X13465Y17680D2*
X13666D1*
X13797D2*
X13998Y17378D1*
Y17680D2*
X13797Y17378D1*
X14129Y17658D2*
X14359Y17529D1*
X14129Y17400D1*
X14490Y17536D2*
X14619D1*
X14662Y17551D1*
X14677Y17565D1*
X14691Y17593D1*
Y17622D1*
X14677Y17651D1*
X14662Y17665D1*
X14619Y17680D1*
X14490D1*
Y17378D1*
X14591Y17536D2*
X14691Y17378D1*
X14822Y17680D2*
X15023Y17378D1*
Y17680D2*
X14822Y17378D1*
X5698Y18317D2*
X5397Y18202D1*
X5698Y18087D1*
X5598Y18130D2*
Y18274D1*
X5397Y18649D2*
X5698D1*
X5397Y18448D1*
X5698D1*
X5397Y18881D2*
X5698D1*
X5397Y18781D2*
Y18982D1*
X4642Y18303D2*
X4613Y18288D1*
X4584Y18259D1*
X4570Y18231D1*
Y18174D1*
X4584Y18145D1*
X4613Y18116D1*
X4642Y18102D1*
X4685Y18087D1*
X4757D1*
X4800Y18102D1*
X4828Y18116D1*
X4857Y18145D1*
X4872Y18174D1*
Y18231D1*
X4857Y18259D1*
X4828Y18288D1*
X4800Y18303D1*
X4757D1*
Y18231D1*
X4570Y18635D2*
X4872D1*
X4570Y18434D1*
X4872D1*
X4570Y18766D2*
X4872D1*
Y18866D1*
X4857Y18910D1*
X4828Y18938D1*
X4800Y18953D1*
X4757Y18967D1*
X4685D1*
X4642Y18953D1*
X4613Y18938D1*
X4584Y18910D1*
X4570Y18866D1*
Y18766D1*
X6256Y18303D2*
X6227Y18288D1*
X6199Y18259D1*
X6184Y18231D1*
Y18174D1*
X6199Y18145D1*
X6227Y18116D1*
X6256Y18102D1*
X6299Y18087D1*
X6371D1*
X6414Y18102D1*
X6443Y18116D1*
X6471Y18145D1*
X6486Y18174D1*
Y18231D1*
X6471Y18259D1*
X6443Y18288D1*
X6414Y18303D1*
X6371D1*
Y18231D1*
X6184Y18635D2*
X6486D1*
X6184Y18434D1*
X6486D1*
X6184Y18766D2*
X6486D1*
Y18866D1*
X6471Y18910D1*
X6443Y18938D1*
X6414Y18953D1*
X6371Y18967D1*
X6299D1*
X6256Y18953D1*
X6227Y18938D1*
X6199Y18910D1*
X6184Y18866D1*
Y18766D1*
X4954Y10292D2*
Y10593D1*
X4840Y10292D1*
X4725Y10593D1*
Y10292D1*
X5301Y10521D2*
X5287Y10550D1*
X5258Y10579D1*
X5229Y10593D1*
X5172D1*
X5143Y10579D1*
X5114Y10550D1*
X5100Y10521D1*
X5086Y10478D1*
Y10406D1*
X5100Y10363D1*
X5114Y10335D1*
X5143Y10306D1*
X5172Y10292D1*
X5229D1*
X5258Y10306D1*
X5287Y10335D1*
X5301Y10363D1*
X5432Y10593D2*
Y10292D1*
X5604D1*
X5735Y10593D2*
Y10292D1*
X5936Y10593D2*
X5735Y10392D1*
X5807Y10464D2*
X5936Y10292D1*
X4714Y8230D2*
X4872D1*
X4786Y8116D1*
X4829D1*
X4858Y8101D1*
X4872Y8087D1*
X4887Y8044D1*
Y8016D1*
X4872Y7972D1*
X4843Y7944D1*
X4800Y7929D1*
X4757D1*
X4714Y7944D1*
X4700Y7958D1*
X4686Y7987D1*
X5032Y7958D2*
X5018Y7944D1*
X5032Y7929D1*
X5047Y7944D1*
X5032Y7958D1*
X5207Y8230D2*
X5364D1*
X5278Y8116D1*
X5321D1*
X5350Y8101D1*
X5364Y8087D1*
X5379Y8044D1*
Y8016D1*
X5364Y7972D1*
X5336Y7944D1*
X5293Y7929D1*
X5249D1*
X5207Y7944D1*
X5192Y7958D1*
X5178Y7987D1*
X4714Y7443D2*
X4872D1*
X4786Y7328D1*
X4829D1*
X4858Y7314D1*
X4872Y7300D1*
X4887Y7257D1*
Y7228D1*
X4872Y7185D1*
X4843Y7156D1*
X4800Y7142D1*
X4757D1*
X4714Y7156D1*
X4700Y7171D1*
X4686Y7199D1*
X5032Y7171D2*
X5018Y7156D1*
X5032Y7142D1*
X5047Y7156D1*
X5032Y7171D1*
X5207Y7443D2*
X5364D1*
X5278Y7328D1*
X5321D1*
X5350Y7314D1*
X5364Y7300D1*
X5379Y7257D1*
Y7228D1*
X5364Y7185D1*
X5336Y7156D1*
X5293Y7142D1*
X5249D1*
X5207Y7156D1*
X5192Y7171D1*
X5178Y7199D1*
X4754Y6656D2*
X4911D1*
X4825Y6541D1*
X4869D1*
X4897Y6527D1*
X4911Y6512D1*
X4926Y6469D1*
Y6441D1*
X4911Y6398D1*
X4883Y6369D1*
X4840Y6355D1*
X4797D1*
X4754Y6369D1*
X4740Y6383D1*
X4725Y6412D1*
X5071Y6383D2*
X5057Y6369D1*
X5071Y6355D1*
X5086Y6369D1*
X5071Y6383D1*
X5246Y6656D2*
X5404D1*
X5318Y6541D1*
X5361D1*
X5389Y6527D1*
X5404Y6512D1*
X5418Y6469D1*
Y6441D1*
X5404Y6398D1*
X5375Y6369D1*
X5332Y6355D1*
X5289D1*
X5246Y6369D1*
X5232Y6383D1*
X5217Y6412D1*
X4897Y5908D2*
X4754D1*
X4740Y5779D1*
X4754Y5793D1*
X4797Y5807D1*
X4840D1*
X4883Y5793D1*
X4912Y5764D1*
X4926Y5721D1*
Y5693D1*
X4912Y5650D1*
X4883Y5621D1*
X4840Y5606D1*
X4797D1*
X4754Y5621D1*
X4740Y5635D1*
X4725Y5664D1*
X5071Y5635D2*
X5057Y5621D1*
X5071Y5606D1*
X5086Y5621D1*
X5071Y5635D1*
X5303Y5908D2*
X5260Y5893D1*
X5231Y5850D1*
X5217Y5779D1*
Y5735D1*
X5231Y5664D1*
X5260Y5621D1*
X5303Y5606D1*
X5332D1*
X5375Y5621D1*
X5404Y5664D1*
X5418Y5735D1*
Y5779D1*
X5404Y5850D1*
X5375Y5893D1*
X5332Y5908D1*
X5303D1*
X5404Y5850D2*
X5231Y5664D1*
X4897Y5041D2*
X4754D1*
X4740Y4912D1*
X4754Y4927D1*
X4797Y4941D1*
X4840D1*
X4883Y4927D1*
X4912Y4898D1*
X4926Y4855D1*
Y4827D1*
X4912Y4783D1*
X4883Y4755D1*
X4840Y4740D1*
X4797D1*
X4754Y4755D1*
X4740Y4769D1*
X4725Y4798D1*
X5071Y4769D2*
X5057Y4755D1*
X5071Y4740D1*
X5086Y4755D1*
X5071Y4769D1*
X5303Y5041D2*
X5260Y5027D1*
X5231Y4984D1*
X5217Y4912D1*
Y4869D1*
X5231Y4798D1*
X5260Y4755D1*
X5303Y4740D1*
X5332D1*
X5375Y4755D1*
X5404Y4798D1*
X5418Y4869D1*
Y4912D1*
X5404Y4984D1*
X5375Y5027D1*
X5332Y5041D1*
X5303D1*
X5404Y4984D2*
X5231Y4798D1*
X11341Y4563D2*
D71*
Y4965D1*
X11188Y4563D1*
X11035Y4965D1*
Y4563D1*
X11631Y4965D2*
X11593Y4946D1*
X11554Y4908D1*
X11535Y4870D1*
X11516Y4812D1*
Y4716D1*
X11535Y4659D1*
X11554Y4621D1*
X11593Y4583D1*
X11631Y4563D1*
X11707D1*
X11745Y4583D1*
X11784Y4621D1*
X11803Y4659D1*
X11822Y4716D1*
Y4812D1*
X11803Y4870D1*
X11784Y4908D1*
X11745Y4946D1*
X11707Y4965D1*
X11631D1*
X11997D2*
Y4563D1*
X12131D1*
X12188Y4583D1*
X12227Y4621D1*
X12246Y4659D1*
X12265Y4716D1*
Y4812D1*
X12246Y4870D1*
X12227Y4908D1*
X12188Y4946D1*
X12131Y4965D1*
X11997D1*
X12440D2*
Y4678D1*
X12459Y4621D1*
X12497Y4583D1*
X12555Y4563D1*
X12593D1*
X12650Y4583D1*
X12689Y4621D1*
X12708Y4678D1*
Y4965D1*
X12883D2*
Y4563D1*
X13112D1*
X13536Y4965D2*
X13287D1*
Y4563D1*
X13536D1*
X13287Y4774D2*
X13440D1*
X13979Y4908D2*
X13941Y4946D1*
X13883Y4965D1*
X13807D1*
X13749Y4946D1*
X13711Y4908D1*
Y4870D1*
X13730Y4831D1*
X13749Y4812D1*
X13787Y4793D1*
X13902Y4755D1*
X13941Y4736D1*
X13960Y4716D1*
X13979Y4678D1*
Y4621D1*
X13941Y4583D1*
X13883Y4563D1*
X13807D1*
X13749Y4583D1*
X13711Y4621D1*
X11024Y5435D2*
D70*
Y5134D1*
X11153D1*
X11197Y5149D1*
X11211Y5163D1*
X11225Y5191D1*
Y5235D1*
X11211Y5263D1*
X11197Y5278D1*
X11153Y5292D1*
X11197Y5306D1*
X11211Y5321D1*
X11225Y5349D1*
Y5378D1*
X11211Y5407D1*
X11197Y5421D1*
X11153Y5435D1*
X11024D1*
Y5292D2*
X11153D1*
X11356Y5435D2*
Y5134D1*
X11528D1*
X11660Y5435D2*
Y5220D1*
X11674Y5177D1*
X11703Y5149D1*
X11746Y5134D1*
X11774D1*
X11818Y5149D1*
X11846Y5177D1*
X11861Y5220D1*
Y5435D1*
X12178D2*
X11992D1*
Y5134D1*
X12178D1*
X11992Y5292D2*
X12107D1*
X12410Y5435D2*
Y5134D1*
X12309Y5435D2*
X12510D1*
X12728D2*
X12699Y5421D1*
X12671Y5392D1*
X12656Y5364D1*
X12642Y5321D1*
Y5249D1*
X12656Y5206D1*
X12671Y5177D1*
X12699Y5149D1*
X12728Y5134D1*
X12785D1*
X12814Y5149D1*
X12843Y5177D1*
X12857Y5206D1*
X12871Y5249D1*
Y5321D1*
X12857Y5364D1*
X12843Y5392D1*
X12814Y5421D1*
X12785Y5435D1*
X12728D1*
X13089D2*
X13060Y5421D1*
X13031Y5392D1*
X13017Y5364D1*
X13002Y5321D1*
Y5249D1*
X13017Y5206D1*
X13031Y5177D1*
X13060Y5149D1*
X13089Y5134D1*
X13146D1*
X13174Y5149D1*
X13203Y5177D1*
X13218Y5206D1*
X13232Y5249D1*
Y5321D1*
X13218Y5364D1*
X13203Y5392D1*
X13174Y5421D1*
X13146Y5435D1*
X13089D1*
X13464D2*
Y5134D1*
X13363Y5435D2*
X13564D1*
X13695D2*
Y5134D1*
X13896Y5435D2*
Y5134D1*
X13695Y5292D2*
X13896D1*
M02*
