G04 DipTrace 2.4.0.2*
%IN2_Layer_Bottom_Silk.gbr*%
%MOIN*%
%ADD14C,0.013*%
%ADD15C,0.0118*%
%ADD69C,0.0046*%
%ADD70C,0.0066*%
%FSLAX44Y44*%
G04*
G70*
G90*
G75*
G01*
%LNBotSilk*%
%LPD*%
X4213Y17008D2*
D15*
Y19409D1*
X4488D1*
X5039D2*
X5236D1*
X5827D2*
X6024D1*
X6614D2*
D14*
X15512D1*
D15*
Y19370D1*
Y18819D2*
Y18583D1*
Y18031D2*
Y17795D1*
Y17244D2*
Y17008D1*
Y16417D2*
Y10709D1*
Y10157D2*
Y9921D1*
Y9370D2*
Y9134D1*
Y8583D2*
Y8346D1*
Y7795D2*
Y7559D1*
Y7008D2*
Y6772D1*
Y6220D2*
Y5984D1*
Y5433D2*
Y4213D1*
X4213D1*
Y4646D1*
Y5197D2*
Y5433D1*
Y5984D2*
Y6220D1*
Y6772D2*
Y7008D1*
Y7559D2*
Y7795D1*
Y8346D2*
Y8583D1*
Y9134D2*
Y9370D1*
Y9921D2*
Y10157D1*
Y10709D2*
Y14094D1*
Y15433D2*
Y15669D1*
Y16220D2*
Y16457D1*
X15039Y5709D2*
X6496D1*
X15512Y4961D2*
X6535D1*
X7087Y6457D2*
G03X6496Y5906I-54J-534D01*
G01*
Y4213D1*
X15079Y6457D2*
X7047D1*
X12441D2*
Y4213D1*
X14803Y6575D2*
X15118Y6024D1*
X15197Y6142D1*
X15118Y6024D2*
X14961D1*
X14724Y15630D2*
Y11811D1*
Y15630D2*
G02X15039Y15906I274J5D01*
G01*
X15512D1*
X14724Y11811D2*
G03X15079Y11496I335J20D01*
G01*
X15039D2*
X15079D1*
X15512D1*
X5796Y5088D2*
D69*
Y4830D1*
X5925Y4959D2*
X5667D1*
X5402Y5109D2*
X5545D1*
X5560Y4980D1*
X5545Y4995D1*
X5502Y5009D1*
X5460D1*
X5416Y4995D1*
X5388Y4966D1*
X5373Y4923D1*
Y4895D1*
X5388Y4851D1*
X5416Y4823D1*
X5460Y4808D1*
X5502D1*
X5545Y4823D1*
X5560Y4837D1*
X5574Y4866D1*
X5266Y4837D2*
X5281Y4823D1*
X5266Y4808D1*
X5252Y4823D1*
X5266Y4837D1*
X5073Y5109D2*
X5116Y5095D1*
X5145Y5052D1*
X5159Y4980D1*
Y4937D1*
X5145Y4866D1*
X5116Y4823D1*
X5073Y4808D1*
X5044D1*
X5001Y4823D1*
X4973Y4866D1*
X4958Y4937D1*
Y4980D1*
X4973Y5052D1*
X5001Y5095D1*
X5044Y5109D1*
X5073D1*
X4973Y5052D2*
X5145Y4866D1*
X4866Y5009D2*
X4779Y4808D1*
X4694Y5009D1*
X5757Y5875D2*
Y5617D1*
X5886Y5746D2*
X5628D1*
X5363Y5897D2*
X5506D1*
X5520Y5768D1*
X5506Y5782D1*
X5463Y5797D1*
X5420D1*
X5377Y5782D1*
X5348Y5754D1*
X5334Y5710D1*
Y5682D1*
X5348Y5639D1*
X5377Y5610D1*
X5420Y5596D1*
X5463D1*
X5506Y5610D1*
X5520Y5625D1*
X5535Y5653D1*
X5227Y5625D2*
X5241Y5610D1*
X5227Y5596D1*
X5212Y5610D1*
X5227Y5625D1*
X5034Y5897D2*
X5077Y5883D1*
X5106Y5839D1*
X5120Y5768D1*
Y5725D1*
X5106Y5653D1*
X5077Y5610D1*
X5034Y5596D1*
X5005D1*
X4962Y5610D1*
X4933Y5653D1*
X4919Y5725D1*
Y5768D1*
X4933Y5839D1*
X4962Y5883D1*
X5005Y5897D1*
X5034D1*
X4933Y5839D2*
X5106Y5653D1*
X4826Y5797D2*
X4740Y5596D1*
X4654Y5797D1*
X5757Y6663D2*
Y6405D1*
X5886Y6534D2*
X5628D1*
X5506Y6684D2*
X5349D1*
X5434Y6570D1*
X5391D1*
X5363Y6555D1*
X5349Y6541D1*
X5334Y6498D1*
Y6469D1*
X5349Y6426D1*
X5377Y6397D1*
X5420Y6383D1*
X5463D1*
X5506Y6397D1*
X5520Y6412D1*
X5535Y6441D1*
X5227Y6412D2*
X5241Y6397D1*
X5227Y6383D1*
X5212Y6397D1*
X5227Y6412D1*
X5091Y6684D2*
X4933D1*
X5019Y6570D1*
X4976D1*
X4948Y6555D1*
X4933Y6541D1*
X4919Y6498D1*
Y6469D1*
X4933Y6426D1*
X4962Y6397D1*
X5005Y6383D1*
X5048D1*
X5091Y6397D1*
X5105Y6412D1*
X5120Y6441D1*
X4826Y6584D2*
X4740Y6383D1*
X4654Y6584D1*
X5757Y7450D2*
Y7192D1*
X5886Y7321D2*
X5628D1*
X5506Y7472D2*
X5349D1*
X5434Y7357D1*
X5391D1*
X5363Y7343D1*
X5349Y7328D1*
X5334Y7285D1*
Y7257D1*
X5349Y7214D1*
X5377Y7185D1*
X5420Y7171D1*
X5463D1*
X5506Y7185D1*
X5520Y7199D1*
X5535Y7228D1*
X5227Y7199D2*
X5241Y7185D1*
X5227Y7171D1*
X5212Y7185D1*
X5227Y7199D1*
X5091Y7472D2*
X4933D1*
X5019Y7357D1*
X4976D1*
X4948Y7343D1*
X4933Y7328D1*
X4919Y7285D1*
Y7257D1*
X4933Y7214D1*
X4962Y7185D1*
X5005Y7171D1*
X5048D1*
X5091Y7185D1*
X5105Y7199D1*
X5120Y7228D1*
X4826Y7371D2*
X4740Y7171D1*
X4654Y7371D1*
X5757Y8238D2*
Y7979D1*
X5886Y8108D2*
X5628D1*
X5506Y8259D2*
X5349D1*
X5434Y8144D1*
X5391D1*
X5363Y8130D1*
X5349Y8116D1*
X5334Y8073D1*
Y8044D1*
X5349Y8001D1*
X5377Y7972D1*
X5420Y7958D1*
X5463D1*
X5506Y7972D1*
X5520Y7987D1*
X5535Y8015D1*
X5227Y7987D2*
X5241Y7972D1*
X5227Y7958D1*
X5212Y7972D1*
X5227Y7987D1*
X5091Y8259D2*
X4933D1*
X5019Y8144D1*
X4976D1*
X4948Y8130D1*
X4933Y8116D1*
X4919Y8073D1*
Y8044D1*
X4933Y8001D1*
X4962Y7972D1*
X5005Y7958D1*
X5048D1*
X5091Y7972D1*
X5105Y7987D1*
X5120Y8015D1*
X4826Y8159D2*
X4740Y7958D1*
X4654Y8159D1*
X4833Y18350D2*
X4862Y18335D1*
X4890Y18306D1*
X4905Y18278D1*
Y18221D1*
X4890Y18192D1*
X4862Y18163D1*
X4833Y18149D1*
X4790Y18134D1*
X4718D1*
X4675Y18149D1*
X4646Y18163D1*
X4618Y18192D1*
X4603Y18221D1*
Y18278D1*
X4618Y18306D1*
X4646Y18335D1*
X4675Y18350D1*
X4718D1*
Y18278D1*
X4905Y18643D2*
X4603D1*
X4905Y18442D1*
X4603D1*
X4905Y18736D2*
X4603D1*
Y18836D1*
X4618Y18879D1*
X4646Y18908D1*
X4675Y18923D1*
X4718Y18937D1*
X4790D1*
X4833Y18923D1*
X4862Y18908D1*
X4890Y18879D1*
X4905Y18836D1*
Y18736D1*
X6408Y18350D2*
X6436Y18335D1*
X6465Y18306D1*
X6479Y18278D1*
Y18221D1*
X6465Y18192D1*
X6436Y18163D1*
X6408Y18149D1*
X6365Y18134D1*
X6293D1*
X6250Y18149D1*
X6221Y18163D1*
X6193Y18192D1*
X6178Y18221D1*
Y18278D1*
X6193Y18306D1*
X6221Y18335D1*
X6250Y18350D1*
X6293D1*
Y18278D1*
X6479Y18643D2*
X6178D1*
X6479Y18442D1*
X6178D1*
X6479Y18736D2*
X6178D1*
Y18836D1*
X6193Y18879D1*
X6221Y18908D1*
X6250Y18923D1*
X6293Y18937D1*
X6365D1*
X6408Y18923D1*
X6436Y18908D1*
X6465Y18879D1*
X6479Y18836D1*
Y18736D1*
X5351Y18369D2*
X5653Y18254D1*
X5351Y18139D1*
X5452Y18182D2*
Y18326D1*
X5653Y18663D2*
X5351D1*
X5653Y18462D1*
X5351D1*
X5653Y18856D2*
X5351D1*
X5653Y18755D2*
Y18956D1*
X5628Y16596D2*
X5743Y16898D1*
X5858Y16596D1*
X5814Y16697D2*
X5671D1*
X5320Y16826D2*
X5334Y16855D1*
X5363Y16884D1*
X5392Y16898D1*
X5449D1*
X5478Y16884D1*
X5506Y16855D1*
X5521Y16826D1*
X5535Y16783D1*
Y16711D1*
X5521Y16668D1*
X5506Y16640D1*
X5478Y16611D1*
X5449Y16596D1*
X5392D1*
X5363Y16611D1*
X5334Y16640D1*
X5320Y16668D1*
Y16711D1*
X5392D1*
X5026Y16898D2*
Y16596D1*
X5227Y16898D1*
Y16596D1*
X4934Y16898D2*
Y16596D1*
X4833D1*
X4790Y16611D1*
X4761Y16640D1*
X4747Y16668D1*
X4733Y16711D1*
Y16783D1*
X4747Y16826D1*
X4761Y16855D1*
X4790Y16884D1*
X4833Y16898D1*
X4934D1*
X5628Y15061D2*
X5743Y15362D1*
X5858Y15061D1*
X5814Y15162D2*
X5671D1*
X5320Y15291D2*
X5334Y15319D1*
X5363Y15348D1*
X5392Y15362D1*
X5449D1*
X5478Y15348D1*
X5506Y15319D1*
X5521Y15291D1*
X5535Y15248D1*
Y15176D1*
X5521Y15133D1*
X5506Y15104D1*
X5478Y15076D1*
X5449Y15061D1*
X5392D1*
X5363Y15076D1*
X5334Y15104D1*
X5320Y15133D1*
Y15176D1*
X5392D1*
X5026Y15362D2*
Y15061D1*
X5227Y15362D1*
Y15061D1*
X4934Y15362D2*
Y15061D1*
X4833D1*
X4790Y15076D1*
X4761Y15104D1*
X4747Y15133D1*
X4733Y15176D1*
Y15248D1*
X4747Y15291D1*
X4761Y15319D1*
X4790Y15348D1*
X4833Y15362D1*
X4934D1*
X5686Y15793D2*
Y16094D1*
X5801Y15793D1*
X5916Y16094D1*
Y15793D1*
X5594Y16094D2*
Y15793D1*
X5286Y16022D2*
X5300Y16051D1*
X5329Y16080D1*
X5357Y16094D1*
X5415D1*
X5444Y16080D1*
X5472Y16051D1*
X5487Y16022D1*
X5501Y15979D1*
Y15907D1*
X5487Y15865D1*
X5472Y15836D1*
X5444Y15807D1*
X5415Y15793D1*
X5357D1*
X5329Y15807D1*
X5300Y15836D1*
X5286Y15865D1*
X5193Y15943D2*
X5027D1*
X4935Y15950D2*
X4806D1*
X4763Y15965D1*
X4748Y15979D1*
X4734Y16008D1*
Y16037D1*
X4748Y16065D1*
X4763Y16080D1*
X4806Y16094D1*
X4935D1*
Y15793D1*
X4834Y15950D2*
X4734Y15793D1*
X5657Y14218D2*
Y14519D1*
X5772Y14218D1*
X5887Y14519D1*
Y14218D1*
X5565Y14519D2*
Y14218D1*
X5257Y14448D2*
X5271Y14476D1*
X5300Y14505D1*
X5329Y14519D1*
X5386D1*
X5415Y14505D1*
X5443Y14476D1*
X5458Y14448D1*
X5472Y14404D1*
Y14333D1*
X5458Y14290D1*
X5443Y14261D1*
X5415Y14232D1*
X5386Y14218D1*
X5329D1*
X5300Y14232D1*
X5271Y14261D1*
X5257Y14290D1*
X5164Y14368D2*
X4998D1*
X4906Y14519D2*
Y14218D1*
X4734D1*
X14970Y17669D2*
Y17367D1*
X15071Y17669D2*
X14870D1*
X14777D2*
X14576Y17367D1*
Y17669D2*
X14777Y17367D1*
X14992Y16738D2*
X14863D1*
X14820Y16752D1*
X14805Y16767D1*
X14791Y16795D1*
Y16824D1*
X14805Y16853D1*
X14820Y16867D1*
X14863Y16881D1*
X14992D1*
Y16580D1*
X14892Y16738D2*
X14791Y16580D1*
X14698Y16881D2*
X14498Y16580D1*
Y16881D2*
X14698Y16580D1*
X14873Y19161D2*
X14902Y19190D1*
X14945Y19204D1*
X15002D1*
X15045Y19190D1*
X15074Y19161D1*
Y19133D1*
X15060Y19104D1*
X15045Y19090D1*
X15017Y19075D1*
X14931Y19046D1*
X14902Y19032D1*
X14888Y19018D1*
X14873Y18989D1*
Y18946D1*
X14902Y18917D1*
X14945Y18903D1*
X15002D1*
X15045Y18917D1*
X15074Y18946D1*
X14565Y19133D2*
X14580Y19161D1*
X14609Y19190D1*
X14637Y19204D1*
X14694D1*
X14723Y19190D1*
X14752Y19161D1*
X14766Y19133D1*
X14781Y19090D1*
Y19018D1*
X14766Y18975D1*
X14752Y18946D1*
X14723Y18917D1*
X14694Y18903D1*
X14637D1*
X14609Y18917D1*
X14580Y18946D1*
X14565Y18975D1*
X14473Y19204D2*
Y18903D1*
X14301D1*
X14838Y18413D2*
X14866Y18442D1*
X14910Y18456D1*
X14967D1*
X15010Y18442D1*
X15039Y18413D1*
Y18385D1*
X15024Y18356D1*
X15010Y18341D1*
X14982Y18327D1*
X14895Y18298D1*
X14866Y18284D1*
X14852Y18270D1*
X14838Y18241D1*
Y18198D1*
X14866Y18169D1*
X14910Y18155D1*
X14967D1*
X15010Y18169D1*
X15039Y18198D1*
X14745Y18456D2*
Y18155D1*
X14645D1*
X14602Y18169D1*
X14573Y18198D1*
X14559Y18227D1*
X14544Y18270D1*
Y18341D1*
X14559Y18385D1*
X14573Y18413D1*
X14602Y18442D1*
X14645Y18456D1*
X14745D1*
X14222Y18155D2*
X14337Y18456D1*
X14452Y18155D1*
X14409Y18255D2*
X14265D1*
X15053Y10582D2*
Y10281D1*
X14946Y10510D2*
Y10525D1*
X14932Y10553D1*
X14918Y10568D1*
X14889Y10582D1*
X14831D1*
X14803Y10568D1*
X14789Y10553D1*
X14774Y10525D1*
Y10496D1*
X14789Y10467D1*
X14817Y10424D1*
X14961Y10281D1*
X14760D1*
X14466Y10539D2*
X14495Y10568D1*
X14538Y10582D1*
X14595D1*
X14638Y10568D1*
X14667Y10539D1*
Y10511D1*
X14653Y10482D1*
X14638Y10467D1*
X14610Y10453D1*
X14524Y10424D1*
X14495Y10410D1*
X14480Y10396D1*
X14466Y10367D1*
Y10324D1*
X14495Y10295D1*
X14538Y10281D1*
X14595D1*
X14638Y10295D1*
X14667Y10324D1*
X13996Y10582D2*
X14025Y10568D1*
X14053Y10539D1*
X14068Y10511D1*
X14082Y10467D1*
Y10396D1*
X14068Y10353D1*
X14053Y10324D1*
X14025Y10295D1*
X13996Y10281D1*
X13938D1*
X13910Y10295D1*
X13881Y10324D1*
X13867Y10353D1*
X13852Y10396D1*
Y10467D1*
X13867Y10511D1*
X13881Y10539D1*
X13910Y10568D1*
X13938Y10582D1*
X13996D1*
X13760D2*
Y10367D1*
X13746Y10324D1*
X13717Y10295D1*
X13674Y10281D1*
X13645D1*
X13602Y10295D1*
X13573Y10324D1*
X13559Y10367D1*
Y10582D1*
X13366D2*
Y10281D1*
X13466Y10582D2*
X13265D1*
X12881D2*
Y10281D1*
X12781D1*
X12737Y10295D1*
X12709Y10324D1*
X12694Y10353D1*
X12680Y10396D1*
Y10467D1*
X12694Y10511D1*
X12709Y10539D1*
X12737Y10568D1*
X12781Y10582D1*
X12881D1*
X12358Y10281D2*
X12473Y10582D1*
X12587Y10281D1*
X12544Y10381D2*
X12401D1*
X12165Y10582D2*
Y10281D1*
X12265Y10582D2*
X12064D1*
X11742Y10281D2*
X11857Y10582D1*
X11971Y10281D1*
X11928Y10381D2*
X11785D1*
X15060Y9834D2*
Y9533D1*
X14953Y9762D2*
Y9776D1*
X14938Y9805D1*
X14924Y9820D1*
X14895Y9834D1*
X14838D1*
X14809Y9820D1*
X14795Y9805D1*
X14781Y9776D1*
Y9748D1*
X14795Y9719D1*
X14824Y9676D1*
X14967Y9533D1*
X14766D1*
X14473Y9791D2*
X14501Y9820D1*
X14544Y9834D1*
X14602D1*
X14645Y9820D1*
X14674Y9791D1*
Y9763D1*
X14659Y9734D1*
X14645Y9719D1*
X14616Y9705D1*
X14530Y9676D1*
X14501Y9662D1*
X14487Y9647D1*
X14473Y9619D1*
Y9576D1*
X14501Y9547D1*
X14544Y9533D1*
X14602D1*
X14645Y9547D1*
X14674Y9576D1*
X14002Y9834D2*
X14031Y9820D1*
X14060Y9791D1*
X14074Y9763D1*
X14088Y9719D1*
Y9647D1*
X14074Y9605D1*
X14060Y9576D1*
X14031Y9547D1*
X14002Y9533D1*
X13945D1*
X13916Y9547D1*
X13887Y9576D1*
X13873Y9605D1*
X13859Y9647D1*
Y9719D1*
X13873Y9763D1*
X13887Y9791D1*
X13916Y9820D1*
X13945Y9834D1*
X14002D1*
X13766D2*
Y9619D1*
X13752Y9576D1*
X13723Y9547D1*
X13680Y9533D1*
X13652D1*
X13608Y9547D1*
X13580Y9576D1*
X13565Y9619D1*
Y9834D1*
X13372D2*
Y9533D1*
X13473Y9834D2*
X13272D1*
X12888D2*
Y9533D1*
X12715D1*
X12623Y9691D2*
X12494D1*
X12451Y9705D1*
X12436Y9719D1*
X12422Y9748D1*
Y9777D1*
X12436Y9805D1*
X12451Y9820D1*
X12494Y9834D1*
X12623D1*
Y9533D1*
X12522Y9691D2*
X12422Y9533D1*
X12114Y9763D2*
X12128Y9791D1*
X12157Y9820D1*
X12186Y9834D1*
X12243D1*
X12272Y9820D1*
X12300Y9791D1*
X12315Y9763D1*
X12329Y9719D1*
Y9647D1*
X12315Y9605D1*
X12300Y9576D1*
X12272Y9547D1*
X12243Y9533D1*
X12186D1*
X12157Y9547D1*
X12128Y9576D1*
X12114Y9605D1*
X12021Y9834D2*
Y9533D1*
X11820Y9834D2*
X12021Y9633D1*
X11950Y9705D2*
X11820Y9533D1*
X15060Y9007D2*
Y8706D1*
X14953Y8935D2*
Y8950D1*
X14938Y8979D1*
X14924Y8993D1*
X14895Y9007D1*
X14838D1*
X14809Y8993D1*
X14795Y8979D1*
X14781Y8950D1*
Y8921D1*
X14795Y8892D1*
X14824Y8850D1*
X14967Y8706D1*
X14766D1*
X14473Y8964D2*
X14501Y8993D1*
X14544Y9007D1*
X14602D1*
X14645Y8993D1*
X14674Y8964D1*
Y8936D1*
X14659Y8907D1*
X14645Y8893D1*
X14616Y8878D1*
X14530Y8850D1*
X14501Y8835D1*
X14487Y8821D1*
X14473Y8792D1*
Y8749D1*
X14501Y8721D1*
X14544Y8706D1*
X14602D1*
X14645Y8721D1*
X14674Y8749D1*
X14002Y9007D2*
X14031Y8993D1*
X14060Y8964D1*
X14074Y8936D1*
X14088Y8893D1*
Y8821D1*
X14074Y8778D1*
X14060Y8749D1*
X14031Y8721D1*
X14002Y8706D1*
X13945D1*
X13916Y8721D1*
X13887Y8749D1*
X13873Y8778D1*
X13859Y8821D1*
Y8893D1*
X13873Y8936D1*
X13887Y8964D1*
X13916Y8993D1*
X13945Y9007D1*
X14002D1*
X13766D2*
Y8792D1*
X13752Y8749D1*
X13723Y8721D1*
X13680Y8706D1*
X13652D1*
X13608Y8721D1*
X13580Y8749D1*
X13565Y8792D1*
Y9007D1*
X13372D2*
Y8706D1*
X13473Y9007D2*
X13272D1*
X12888D2*
Y8706D1*
X12758D1*
X12715Y8721D1*
X12701Y8735D1*
X12687Y8763D1*
Y8806D1*
X12701Y8835D1*
X12715Y8850D1*
X12758Y8864D1*
X12715Y8878D1*
X12701Y8893D1*
X12687Y8921D1*
Y8950D1*
X12701Y8979D1*
X12715Y8993D1*
X12758Y9007D1*
X12888D1*
Y8864D2*
X12758D1*
X12379Y8936D2*
X12393Y8964D1*
X12422Y8993D1*
X12450Y9007D1*
X12508D1*
X12537Y8993D1*
X12565Y8964D1*
X12580Y8936D1*
X12594Y8893D1*
Y8821D1*
X12580Y8778D1*
X12565Y8749D1*
X12537Y8721D1*
X12508Y8706D1*
X12450D1*
X12422Y8721D1*
X12393Y8749D1*
X12379Y8778D1*
X12286Y9007D2*
Y8706D1*
X12114D1*
X12021Y9007D2*
Y8706D1*
X11820Y9007D2*
X12021Y8806D1*
X11950Y8878D2*
X11820Y8706D1*
X14809Y8148D2*
X14823Y8177D1*
X14852Y8206D1*
X14881Y8220D1*
X14938D1*
X14967Y8206D1*
X14995Y8177D1*
X15010Y8148D1*
X15024Y8105D1*
Y8033D1*
X15010Y7991D1*
X14995Y7962D1*
X14967Y7933D1*
X14938Y7919D1*
X14881D1*
X14852Y7933D1*
X14823Y7962D1*
X14809Y7991D1*
Y8033D1*
X14881D1*
X14516Y8220D2*
Y7919D1*
X14716Y8220D1*
Y7919D1*
X14423Y8220D2*
Y7919D1*
X14322D1*
X14279Y7933D1*
X14250Y7962D1*
X14236Y7991D1*
X14222Y8033D1*
Y8105D1*
X14236Y8148D1*
X14250Y8177D1*
X14279Y8206D1*
X14322Y8220D1*
X14423D1*
X14806Y7000D2*
Y6698D1*
X14699Y6928D2*
Y6942D1*
X14684Y6971D1*
X14670Y6985D1*
X14641Y6999D1*
X14584D1*
X14555Y6985D1*
X14541Y6971D1*
X14527Y6942D1*
Y6913D1*
X14541Y6884D1*
X14570Y6842D1*
X14713Y6698D1*
X14512D1*
X14219Y6956D2*
X14247Y6985D1*
X14290Y7000D1*
X14348D1*
X14391Y6985D1*
X14420Y6956D1*
Y6928D1*
X14405Y6899D1*
X14391Y6885D1*
X14362Y6871D1*
X14276Y6842D1*
X14247Y6827D1*
X14233Y6813D1*
X14219Y6784D1*
Y6741D1*
X14247Y6713D1*
X14290Y6698D1*
X14348D1*
X14391Y6713D1*
X14420Y6741D1*
X13834Y7000D2*
Y6698D1*
X13541Y7000D2*
Y6698D1*
X13742Y7000D1*
Y6698D1*
X13157Y7000D2*
Y6698D1*
X13056D1*
X13013Y6713D1*
X12984Y6741D1*
X12970Y6770D1*
X12956Y6813D1*
Y6885D1*
X12970Y6928D1*
X12984Y6956D1*
X13013Y6985D1*
X13056Y7000D1*
X13157D1*
X12633Y6698D2*
X12748Y7000D1*
X12863Y6698D1*
X12820Y6799D2*
X12676D1*
X12440Y7000D2*
Y6698D1*
X12541Y7000D2*
X12340D1*
X12017Y6698D2*
X12132Y7000D1*
X12247Y6698D1*
X12204Y6799D2*
X12060D1*
X12159Y5482D2*
D70*
Y5180D1*
X12058D1*
X12015Y5195D1*
X11986Y5223D1*
X11972Y5252D1*
X11958Y5295D1*
Y5367D1*
X11972Y5410D1*
X11986Y5438D1*
X12015Y5467D1*
X12058Y5482D1*
X12159D1*
X11826D2*
Y5180D1*
X11695Y5482D2*
X11494Y5180D1*
Y5482D2*
X11695Y5180D1*
X11277Y5482D2*
X11306Y5467D1*
X11334Y5438D1*
X11349Y5410D1*
X11363Y5367D1*
Y5295D1*
X11349Y5252D1*
X11334Y5223D1*
X11306Y5195D1*
X11277Y5180D1*
X11219D1*
X11191Y5195D1*
X11162Y5223D1*
X11148Y5252D1*
X11134Y5295D1*
Y5367D1*
X11148Y5410D1*
X11162Y5438D1*
X11191Y5467D1*
X11219Y5482D1*
X11277D1*
X10773Y5180D2*
Y5482D1*
X10888Y5180D1*
X11002Y5482D1*
Y5180D1*
X10311Y5482D2*
Y5180D1*
X10110Y5482D2*
Y5180D1*
X10311Y5338D2*
X10110D1*
X9979Y5482D2*
Y5180D1*
X9518Y5338D2*
X9389D1*
X9346Y5353D1*
X9331Y5367D1*
X9317Y5395D1*
Y5424D1*
X9331Y5453D1*
X9346Y5467D1*
X9389Y5482D1*
X9518D1*
Y5180D1*
X9417Y5338D2*
X9317Y5180D1*
X8999Y5482D2*
X9186D1*
Y5180D1*
X8999D1*
X9186Y5338D2*
X9071D1*
X8667Y5438D2*
X8695Y5467D1*
X8739Y5482D1*
X8796D1*
X8839Y5467D1*
X8868Y5438D1*
Y5410D1*
X8853Y5381D1*
X8839Y5367D1*
X8811Y5353D1*
X8724Y5324D1*
X8695Y5309D1*
X8681Y5295D1*
X8667Y5266D1*
Y5223D1*
X8695Y5195D1*
X8739Y5180D1*
X8796D1*
X8839Y5195D1*
X8868Y5223D1*
X7976Y5180D2*
X8091Y5482D1*
X8206Y5180D1*
X8162Y5281D2*
X8019D1*
X7844Y5482D2*
Y5266D1*
X7830Y5223D1*
X7801Y5195D1*
X7758Y5180D1*
X7730D1*
X7687Y5195D1*
X7658Y5223D1*
X7644Y5266D1*
Y5482D1*
X7512D2*
Y5180D1*
X7412D1*
X7369Y5195D1*
X7340Y5223D1*
X7326Y5252D1*
X7311Y5295D1*
Y5367D1*
X7326Y5410D1*
X7340Y5438D1*
X7369Y5467D1*
X7412Y5482D1*
X7512D1*
X7180D2*
Y5180D1*
X6963Y5482D2*
X6991Y5467D1*
X7020Y5438D1*
X7035Y5410D1*
X7049Y5367D1*
Y5295D1*
X7035Y5252D1*
X7020Y5223D1*
X6991Y5195D1*
X6963Y5180D1*
X6905D1*
X6877Y5195D1*
X6848Y5223D1*
X6834Y5252D1*
X6819Y5295D1*
Y5367D1*
X6834Y5410D1*
X6848Y5438D1*
X6877Y5467D1*
X6905Y5482D1*
X6963D1*
X11951Y4734D2*
Y4432D1*
X12152Y4734D1*
Y4432D1*
X11734Y4734D2*
X11763Y4719D1*
X11791Y4690D1*
X11806Y4662D1*
X11820Y4619D1*
Y4547D1*
X11806Y4504D1*
X11791Y4475D1*
X11763Y4447D1*
X11734Y4432D1*
X11677D1*
X11648Y4447D1*
X11619Y4475D1*
X11605Y4504D1*
X11591Y4547D1*
Y4619D1*
X11605Y4662D1*
X11619Y4690D1*
X11648Y4719D1*
X11677Y4734D1*
X11734D1*
X11129Y4812D2*
Y4353D1*
X10998Y4812D2*
Y4353D1*
X10450Y4733D2*
X10493Y4719D1*
X10522Y4676D1*
X10537Y4604D1*
Y4561D1*
X10522Y4489D1*
X10493Y4446D1*
X10450Y4432D1*
X10422D1*
X10379Y4446D1*
X10350Y4489D1*
X10336Y4561D1*
Y4604D1*
X10350Y4676D1*
X10379Y4719D1*
X10422Y4733D1*
X10450D1*
X10350Y4676D2*
X10522Y4489D1*
X10118Y4733D2*
X10161Y4719D1*
X10190Y4676D1*
X10204Y4604D1*
Y4561D1*
X10190Y4489D1*
X10161Y4446D1*
X10118Y4432D1*
X10090D1*
X10047Y4446D1*
X10018Y4489D1*
X10003Y4561D1*
Y4604D1*
X10018Y4676D1*
X10047Y4719D1*
X10090Y4733D1*
X10118D1*
X10018Y4676D2*
X10190Y4489D1*
X9786Y4733D2*
X9829Y4719D1*
X9858Y4676D1*
X9872Y4604D1*
Y4561D1*
X9858Y4489D1*
X9829Y4446D1*
X9786Y4432D1*
X9757D1*
X9714Y4446D1*
X9686Y4489D1*
X9671Y4561D1*
Y4604D1*
X9686Y4676D1*
X9714Y4719D1*
X9757Y4733D1*
X9786D1*
X9686Y4676D2*
X9858Y4489D1*
X9454Y4733D2*
X9497Y4719D1*
X9526Y4676D1*
X9540Y4604D1*
Y4561D1*
X9526Y4489D1*
X9497Y4446D1*
X9454Y4432D1*
X9425D1*
X9382Y4446D1*
X9354Y4489D1*
X9339Y4561D1*
Y4604D1*
X9354Y4676D1*
X9382Y4719D1*
X9425Y4733D1*
X9454D1*
X9354Y4676D2*
X9526Y4489D1*
X13725Y5482D2*
Y5180D1*
X13926Y5482D1*
Y5180D1*
X13364D2*
X13479Y5482D1*
X13594Y5180D1*
X13551Y5281D2*
X13407D1*
X13003Y5180D2*
Y5482D1*
X13118Y5180D1*
X13233Y5482D1*
Y5180D1*
X12686Y5482D2*
X12872D1*
Y5180D1*
X12686D1*
X12872Y5338D2*
X12757D1*
X15316Y4576D2*
X15187D1*
X15144Y4590D1*
X15129Y4605D1*
X15115Y4633D1*
Y4676D1*
X15129Y4705D1*
X15144Y4719D1*
X15187Y4734D1*
X15316D1*
Y4432D1*
X14754D2*
X14869Y4734D1*
X14984Y4432D1*
X14941Y4533D2*
X14797D1*
X14422Y4690D2*
X14450Y4719D1*
X14493Y4734D1*
X14551D1*
X14594Y4719D1*
X14623Y4690D1*
Y4662D1*
X14608Y4633D1*
X14594Y4619D1*
X14565Y4605D1*
X14479Y4576D1*
X14450Y4561D1*
X14436Y4547D1*
X14422Y4518D1*
Y4475D1*
X14450Y4447D1*
X14493Y4432D1*
X14551D1*
X14594Y4447D1*
X14623Y4475D1*
X14090Y4690D2*
X14118Y4719D1*
X14161Y4734D1*
X14219D1*
X14262Y4719D1*
X14291Y4690D1*
Y4662D1*
X14276Y4633D1*
X14262Y4619D1*
X14233Y4605D1*
X14147Y4576D1*
X14118Y4561D1*
X14104Y4547D1*
X14090Y4518D1*
Y4475D1*
X14118Y4447D1*
X14161Y4432D1*
X14219D1*
X14262Y4447D1*
X14291Y4475D1*
X13958Y4734D2*
X13886Y4432D1*
X13815Y4734D1*
X13743Y4432D1*
X13671Y4734D1*
X13454D2*
X13483Y4719D1*
X13511Y4690D1*
X13526Y4662D1*
X13540Y4619D1*
Y4547D1*
X13526Y4504D1*
X13511Y4475D1*
X13483Y4447D1*
X13454Y4432D1*
X13396D1*
X13368Y4447D1*
X13339Y4475D1*
X13325Y4504D1*
X13311Y4547D1*
Y4619D1*
X13325Y4662D1*
X13339Y4690D1*
X13368Y4719D1*
X13396Y4734D1*
X13454D1*
X13179Y4590D2*
X13050D1*
X13007Y4605D1*
X12993Y4619D1*
X12978Y4647D1*
Y4676D1*
X12993Y4705D1*
X13007Y4719D1*
X13050Y4734D1*
X13179D1*
Y4432D1*
X13079Y4590D2*
X12978Y4432D1*
X12847Y4734D2*
Y4432D1*
X12747D1*
X12704Y4447D1*
X12675Y4475D1*
X12660Y4504D1*
X12646Y4547D1*
Y4619D1*
X12660Y4662D1*
X12675Y4690D1*
X12704Y4719D1*
X12747Y4734D1*
X12847D1*
X13999Y5928D2*
Y6230D1*
X14114Y5928D1*
X14229Y6230D1*
Y5928D1*
X13782Y6230D2*
X13811Y6215D1*
X13839Y6186D1*
X13854Y6158D1*
X13868Y6115D1*
Y6043D1*
X13854Y6000D1*
X13839Y5971D1*
X13811Y5943D1*
X13782Y5928D1*
X13725D1*
X13696Y5943D1*
X13667Y5971D1*
X13653Y6000D1*
X13639Y6043D1*
Y6115D1*
X13653Y6158D1*
X13667Y6186D1*
X13696Y6215D1*
X13725Y6230D1*
X13782D1*
X13507D2*
Y5928D1*
X13407D1*
X13364Y5943D1*
X13335Y5971D1*
X13321Y6000D1*
X13306Y6043D1*
Y6115D1*
X13321Y6158D1*
X13335Y6186D1*
X13364Y6215D1*
X13407Y6230D1*
X13507D1*
X12989D2*
X13175D1*
Y5928D1*
X12989D1*
X13175Y6086D2*
X13060D1*
X12858Y6230D2*
Y5928D1*
X12686D1*
X12191Y6230D2*
Y5928D1*
X12090D1*
X12047Y5943D1*
X12018Y5971D1*
X12004Y6000D1*
X11990Y6043D1*
Y6115D1*
X12004Y6158D1*
X12018Y6186D1*
X12047Y6215D1*
X12090Y6230D1*
X12191D1*
X11858D2*
X11657Y5928D1*
Y6230D2*
X11858Y5928D1*
X11297D2*
Y6230D1*
X11411Y5928D1*
X11526Y6230D1*
Y5928D1*
X11166Y6079D2*
X11000D1*
X10868Y6230D2*
Y5928D1*
X10739D1*
X10696Y5943D1*
X10682Y5957D1*
X10668Y5986D1*
Y6029D1*
X10682Y6057D1*
X10696Y6072D1*
X10739Y6086D1*
X10696Y6101D1*
X10682Y6115D1*
X10668Y6143D1*
Y6172D1*
X10682Y6201D1*
X10696Y6215D1*
X10739Y6230D1*
X10868D1*
Y6086D2*
X10739D1*
X10436Y6230D2*
Y5928D1*
X10536Y6230D2*
X10335D1*
X10132Y6229D2*
X10175Y6215D1*
X10190Y6186D1*
Y6158D1*
X10175Y6129D1*
X10147Y6115D1*
X10089Y6100D1*
X10046Y6086D1*
X10018Y6057D1*
X10003Y6029D1*
Y5986D1*
X10018Y5957D1*
X10032Y5942D1*
X10075Y5928D1*
X10132D1*
X10175Y5942D1*
X10190Y5957D1*
X10204Y5986D1*
Y6029D1*
X10190Y6057D1*
X10161Y6086D1*
X10118Y6100D1*
X10061Y6115D1*
X10032Y6129D1*
X10018Y6158D1*
Y6186D1*
X10032Y6215D1*
X10075Y6229D1*
X10132D1*
X9786D2*
X9829Y6215D1*
X9858Y6172D1*
X9872Y6100D1*
Y6057D1*
X9858Y5986D1*
X9829Y5942D1*
X9786Y5928D1*
X9757D1*
X9714Y5942D1*
X9686Y5986D1*
X9671Y6057D1*
Y6100D1*
X9686Y6172D1*
X9714Y6215D1*
X9757Y6229D1*
X9786D1*
X9686Y6172D2*
X9858Y5986D1*
X9525Y6158D2*
Y6172D1*
X9511Y6201D1*
X9497Y6215D1*
X9468Y6229D1*
X9411D1*
X9382Y6215D1*
X9368Y6201D1*
X9353Y6172D1*
Y6143D1*
X9368Y6115D1*
X9396Y6072D1*
X9540Y5928D1*
X9339D1*
X15124Y15497D2*
Y15367D1*
X15110Y15325D1*
X15095Y15310D1*
X15067Y15296D1*
X15023D1*
X14995Y15310D1*
X14980Y15325D1*
X14966Y15367D1*
Y15497D1*
X15268D1*
X15038Y14949D2*
X15009Y14964D1*
X14980Y14992D1*
X14966Y15021D1*
Y15078D1*
X14980Y15107D1*
X15009Y15136D1*
X15038Y15150D1*
X15081Y15164D1*
X15153D1*
X15196Y15150D1*
X15224Y15136D1*
X15253Y15107D1*
X15268Y15078D1*
Y15021D1*
X15253Y14992D1*
X15224Y14964D1*
X15196Y14949D1*
X14966Y14818D2*
X15268D1*
Y14689D1*
X15253Y14646D1*
X15239Y14631D1*
X15210Y14617D1*
X15167D1*
X15138Y14631D1*
X15124Y14646D1*
X15110Y14689D1*
X15095Y14646D1*
X15081Y14631D1*
X15052Y14617D1*
X15023D1*
X14995Y14631D1*
X14980Y14646D1*
X14966Y14689D1*
Y14818D1*
X15110D2*
Y14689D1*
Y14156D2*
Y14027D1*
X15095Y13984D1*
X15081Y13969D1*
X15052Y13955D1*
X15023D1*
X14995Y13969D1*
X14980Y13984D1*
X14966Y14027D1*
Y14156D1*
X15268D1*
X15110Y14055D2*
X15268Y13955D1*
X14966Y13637D2*
Y13823D1*
X15268D1*
Y13637D1*
X15110Y13823D2*
Y13709D1*
X14966Y13506D2*
X15268Y13391D1*
X14966Y13276D1*
X15024Y12815D2*
X15009Y12786D1*
X14966Y12743D1*
X15268D1*
X15239Y12597D2*
X15253Y12612D1*
X15268Y12597D1*
X15253Y12583D1*
X15239Y12597D1*
X14966Y12365D2*
X14981Y12409D1*
X15024Y12437D1*
X15095Y12452D1*
X15139D1*
X15210Y12437D1*
X15253Y12409D1*
X15268Y12365D1*
Y12337D1*
X15253Y12294D1*
X15210Y12265D1*
X15139Y12251D1*
X15095D1*
X15024Y12265D1*
X14981Y12294D1*
X14966Y12337D1*
Y12365D1*
X15024Y12265D2*
X15210Y12437D1*
X14966Y12033D2*
X14981Y12076D1*
X15024Y12105D1*
X15095Y12119D1*
X15139D1*
X15210Y12105D1*
X15253Y12076D1*
X15268Y12033D1*
Y12005D1*
X15253Y11962D1*
X15210Y11933D1*
X15139Y11918D1*
X15095D1*
X15024Y11933D1*
X14981Y11962D1*
X14966Y12005D1*
Y12033D1*
X15024Y11933D2*
X15210Y12105D1*
X9920Y8982D2*
D69*
X10035Y9283D1*
X10150Y8982D1*
X10107Y9082D2*
X9963D1*
X9612Y9211D2*
X9627Y9240D1*
X9655Y9269D1*
X9684Y9283D1*
X9741D1*
X9770Y9269D1*
X9799Y9240D1*
X9813Y9211D1*
X9827Y9168D1*
Y9096D1*
X9813Y9054D1*
X9799Y9025D1*
X9770Y8996D1*
X9741Y8982D1*
X9684D1*
X9655Y8996D1*
X9627Y9025D1*
X9612Y9054D1*
Y9096D1*
X9684D1*
X9319Y9283D2*
Y8982D1*
X9520Y9283D1*
Y8982D1*
X9226Y9283D2*
Y8982D1*
X9126D1*
X9082Y8996D1*
X9054Y9025D1*
X9039Y9054D1*
X9025Y9096D1*
Y9168D1*
X9039Y9211D1*
X9054Y9240D1*
X9082Y9269D1*
X9126Y9283D1*
X9226D1*
X6495Y13234D2*
X6610Y13535D1*
X6725Y13234D1*
X6682Y13334D2*
X6538D1*
X6187Y13463D2*
X6201Y13492D1*
X6230Y13521D1*
X6259Y13535D1*
X6316D1*
X6345Y13521D1*
X6373Y13492D1*
X6388Y13463D1*
X6402Y13420D1*
Y13348D1*
X6388Y13305D1*
X6373Y13277D1*
X6345Y13248D1*
X6316Y13234D1*
X6259D1*
X6230Y13248D1*
X6201Y13277D1*
X6187Y13305D1*
Y13348D1*
X6259D1*
X5893Y13535D2*
Y13234D1*
X6094Y13535D1*
Y13234D1*
X5801Y13535D2*
Y13234D1*
X5700D1*
X5657Y13248D1*
X5628Y13277D1*
X5614Y13305D1*
X5600Y13348D1*
Y13420D1*
X5614Y13463D1*
X5628Y13492D1*
X5657Y13521D1*
X5700Y13535D1*
X5801D1*
X11027Y12629D2*
Y12328D1*
X10926D1*
X10883Y12343D1*
X10854Y12371D1*
X10840Y12400D1*
X10826Y12443D1*
Y12515D1*
X10840Y12558D1*
X10854Y12586D1*
X10883Y12615D1*
X10926Y12629D1*
X11027D1*
X10518Y12558D2*
X10532Y12586D1*
X10561Y12615D1*
X10589Y12629D1*
X10647D1*
X10676Y12615D1*
X10704Y12586D1*
X10719Y12558D1*
X10733Y12515D1*
Y12443D1*
X10719Y12400D1*
X10704Y12371D1*
X10676Y12343D1*
X10647Y12328D1*
X10589D1*
X10561Y12343D1*
X10532Y12371D1*
X10518Y12400D1*
Y12443D1*
X10589D1*
X10224Y12629D2*
Y12328D1*
X10425Y12629D1*
Y12328D1*
X10132Y12629D2*
Y12328D1*
X10031D1*
X9988Y12343D1*
X9959Y12371D1*
X9945Y12400D1*
X9931Y12443D1*
Y12515D1*
X9945Y12558D1*
X9959Y12586D1*
X9988Y12615D1*
X10031Y12629D1*
X10132D1*
X10475Y7236D2*
Y6934D1*
X10375D1*
X10332Y6949D1*
X10303Y6977D1*
X10289Y7006D1*
X10274Y7049D1*
Y7121D1*
X10289Y7164D1*
X10303Y7193D1*
X10332Y7221D1*
X10375Y7236D1*
X10475D1*
X9967Y7164D2*
X9981Y7193D1*
X10010Y7221D1*
X10038Y7236D1*
X10096D1*
X10124Y7221D1*
X10153Y7193D1*
X10168Y7164D1*
X10182Y7121D1*
Y7049D1*
X10168Y7006D1*
X10153Y6977D1*
X10124Y6949D1*
X10096Y6934D1*
X10038D1*
X10010Y6949D1*
X9981Y6977D1*
X9967Y7006D1*
Y7049D1*
X10038D1*
X9673Y7236D2*
Y6934D1*
X9874Y7236D1*
Y6934D1*
X9580Y7236D2*
Y6934D1*
X9480D1*
X9437Y6949D1*
X9408Y6977D1*
X9394Y7006D1*
X9379Y7049D1*
Y7121D1*
X9394Y7164D1*
X9408Y7193D1*
X9437Y7221D1*
X9480Y7236D1*
X9580D1*
M02*
