G04 DipTrace 2.4.0.2*
%IN2_Layer_Bottom.gbr*%
%MOIN*%
%ADD10C,0.0098*%
%ADD13C,0.0197*%
%ADD14C,0.013*%
%ADD17C,0.0394*%
%ADD19C,0.025*%
%ADD29O,0.0787X0.0394*%
%ADD30O,0.0394X0.0787*%
%ADD34C,0.0413*%
%ADD36C,0.0433*%
%FSLAX44Y44*%
G04*
G70*
G90*
G75*
G01*
%LNBottom*%
%LPD*%
X4134Y6496D2*
D13*
X4803D1*
X4961Y6654D1*
Y7283D1*
Y7874D1*
X4764Y8071D1*
X4134D1*
Y7283D2*
X4804D1*
X4961D1*
X4134D2*
D14*
D3*
X4409D2*
X4804D1*
X4134Y14370D2*
X3937D1*
X4409Y10433D2*
X7756Y7087D1*
X8543D1*
X3937Y10433D2*
X4409D1*
X4134D2*
X4409D1*
X3937D2*
X4134D1*
Y15945D2*
X3937D1*
X13465Y8701D2*
D10*
X13819Y9055D1*
Y15079D1*
X11378Y17520D1*
X11220D1*
X13465Y11220D2*
X13622Y11378D1*
Y15000D1*
X11457Y17165D1*
X11063D1*
X10709Y17520D1*
X15354Y5709D2*
X14016Y7047D1*
Y15197D1*
X11339Y17874D1*
X10551D1*
X10197Y17520D1*
X13465Y9961D2*
Y10709D1*
X13110Y11063D1*
Y11339D1*
X13425Y11654D1*
Y14921D1*
X11378Y16969D1*
X10236D1*
X9685Y17520D1*
X5531Y19488D2*
D14*
Y19685D1*
X8937Y15906D2*
Y10591D1*
X9449Y10079D1*
X11732D1*
X8150Y10118D2*
Y16496D1*
X8543Y16890D1*
X8583D1*
X4370Y5709D2*
D13*
X5394D1*
Y7953D1*
X4370Y4921D2*
D14*
X4724D1*
X5394Y5591D1*
Y5709D1*
X4370D1*
X4134Y4921D2*
D13*
X4724D1*
X5394Y5591D1*
Y5709D1*
X4134D2*
X4370D1*
X4134Y15157D2*
D14*
X3937D1*
Y16732D2*
X4409D1*
X4134D2*
X4409D1*
X12835Y12047D2*
Y12362D1*
X11732Y13465D1*
X4744Y19488D2*
Y19685D1*
X15591Y8071D2*
X15787D1*
X4409Y15157D2*
X7192D1*
Y16405D1*
X6865Y16732D1*
X4409D1*
X8622Y17717D2*
X7126D1*
G02X6969Y17835I-30J124D01*
G01*
D34*
X3937Y15945D3*
Y15157D3*
Y14370D3*
Y16732D3*
X4744Y19685D3*
X5531D3*
X6319D3*
X15787Y17520D3*
Y16732D3*
Y18307D3*
Y19094D3*
X3937Y4921D3*
Y5709D3*
Y6496D3*
Y7283D3*
D36*
Y8071D3*
D34*
Y8858D3*
Y9646D3*
Y10433D3*
X15787Y5709D3*
Y6496D3*
Y7283D3*
Y8071D3*
Y8858D3*
Y9646D3*
Y10433D3*
X4347Y19052D2*
D19*
X5092D1*
X5974D2*
X14908D1*
X4347Y18803D2*
X5400D1*
X5661D2*
X15010D1*
X4347Y18554D2*
X14978D1*
X4347Y18305D2*
X14908D1*
X4347Y18057D2*
X10264D1*
X11626D2*
X14982D1*
X4347Y17808D2*
X9299D1*
X11872D2*
X14971D1*
X8329Y17559D2*
X9201D1*
X12122D2*
X14869D1*
X8798Y17311D2*
X9248D1*
X12372D2*
X14916D1*
X4347Y17062D2*
X8131D1*
X9036D2*
X9600D1*
X12618D2*
X15006D1*
X4347Y16813D2*
X7975D1*
X9064D2*
X9924D1*
X12868D2*
X14873D1*
X4347Y16565D2*
X7803D1*
X8935D2*
X11314D1*
X13118D2*
X14900D1*
X4708Y16316D2*
X7795D1*
X8505D2*
X8701D1*
X9173D2*
X11561D1*
X13364D2*
X15131D1*
X4880Y16067D2*
X7795D1*
X9396D2*
X11811D1*
X13614D2*
X15377D1*
X4880Y15819D2*
X7795D1*
X9415D2*
X12061D1*
X13864D2*
X15377D1*
X4704Y15570D2*
X7795D1*
X8505D2*
X8580D1*
X9290D2*
X12307D1*
X14111D2*
X15377D1*
X4347Y15321D2*
X7795D1*
X8505D2*
X8580D1*
X9290D2*
X12557D1*
X14329D2*
X15377D1*
X4347Y15073D2*
X7795D1*
X8505D2*
X8580D1*
X9290D2*
X12807D1*
X14357D2*
X15377D1*
X4521Y14824D2*
X7795D1*
X8505D2*
X8580D1*
X9290D2*
X13053D1*
X14357D2*
X15377D1*
X4849Y14575D2*
X7795D1*
X8505D2*
X8580D1*
X9290D2*
X13088D1*
X14357D2*
X15377D1*
X4896Y14326D2*
X7795D1*
X8505D2*
X8580D1*
X9290D2*
X13088D1*
X14357D2*
X15377D1*
X4790Y14078D2*
X7795D1*
X8505D2*
X8580D1*
X9290D2*
X13088D1*
X14357D2*
X15377D1*
X4347Y13829D2*
X7795D1*
X8505D2*
X8580D1*
X9290D2*
X13088D1*
X14357D2*
X15377D1*
X4347Y13580D2*
X7795D1*
X8505D2*
X8580D1*
X9290D2*
X13088D1*
X14357D2*
X15377D1*
X4347Y13332D2*
X7795D1*
X8505D2*
X8580D1*
X9290D2*
X13088D1*
X14357D2*
X15377D1*
X4347Y13083D2*
X7795D1*
X8505D2*
X8580D1*
X9290D2*
X13088D1*
X14357D2*
X15377D1*
X4347Y12834D2*
X7795D1*
X8505D2*
X8580D1*
X9290D2*
X13088D1*
X14357D2*
X15377D1*
X4347Y12586D2*
X7795D1*
X8505D2*
X8580D1*
X9290D2*
X13088D1*
X14357D2*
X15377D1*
X4347Y12337D2*
X7795D1*
X8505D2*
X8580D1*
X9290D2*
X13088D1*
X14357D2*
X15377D1*
X8505Y12088D2*
X8580D1*
X9290D2*
X13088D1*
X14357D2*
X15377D1*
X8505Y11840D2*
X8580D1*
X9290D2*
X13088D1*
X14357D2*
X15377D1*
X4347Y11591D2*
X7795D1*
X8505D2*
X8580D1*
X9290D2*
X12893D1*
X14357D2*
X15377D1*
X4347Y11342D2*
X7795D1*
X8505D2*
X8580D1*
X9290D2*
X12771D1*
X14357D2*
X15377D1*
X4347Y11094D2*
X7795D1*
X8505D2*
X8580D1*
X9290D2*
X12771D1*
X14357D2*
X15377D1*
X4642Y10845D2*
X7795D1*
X8505D2*
X8580D1*
X9290D2*
X12861D1*
X14357D2*
X15119D1*
X4864Y10596D2*
X7795D1*
X8505D2*
X8580D1*
X9423D2*
X13107D1*
X14357D2*
X14896D1*
X4986Y10347D2*
X7689D1*
X8575D2*
X8689D1*
X12134D2*
X13127D1*
X14357D2*
X14877D1*
X5236Y10099D2*
X7600D1*
X8634D2*
X8936D1*
X12282D2*
X12998D1*
X14357D2*
X15010D1*
X5486Y9850D2*
X7600D1*
X8552D2*
X9186D1*
X12282D2*
X12990D1*
X14357D2*
X14916D1*
X5732Y9601D2*
X7600D1*
X8150D2*
X11732D1*
X12282D2*
X13150D1*
X14357D2*
X14869D1*
X4712Y9353D2*
X4998D1*
X5982D2*
X7600D1*
X8150D2*
X11732D1*
X12282D2*
X13478D1*
X14357D2*
X14971D1*
X4747Y9104D2*
X5248D1*
X6232D2*
X7600D1*
X8150D2*
X11732D1*
X12282D2*
X13213D1*
X14357D2*
X14939D1*
X4818Y8855D2*
X5494D1*
X6478D2*
X7600D1*
X8150D2*
X10525D1*
X12282D2*
X13006D1*
X14357D2*
X14869D1*
X4743Y8607D2*
X5744D1*
X6728D2*
X7600D1*
X8150D2*
X10514D1*
X12212D2*
X12986D1*
X14357D2*
X14943D1*
X5013Y8358D2*
X5149D1*
X5642D2*
X5994D1*
X6978D2*
X7600D1*
X8150D2*
X10514D1*
X11060D2*
X13131D1*
X14357D2*
X15377D1*
X5853Y8109D2*
X6240D1*
X7224D2*
X7631D1*
X11060D2*
X13678D1*
X14357D2*
X15377D1*
X5872Y7861D2*
X6490D1*
X7474D2*
X7865D1*
X11060D2*
X13678D1*
X14357D2*
X15377D1*
X5782Y7612D2*
X6740D1*
X7724D2*
X13678D1*
X14357D2*
X15045D1*
X5782Y7363D2*
X6986D1*
X8939D2*
X13678D1*
X14357D2*
X14912D1*
X5782Y7115D2*
X7236D1*
X9028D2*
X13678D1*
X14419D2*
X14939D1*
X5782Y6866D2*
X7486D1*
X8974D2*
X13736D1*
X14665D2*
X15092D1*
X5782Y6617D2*
X13978D1*
X5782Y6368D2*
X14225D1*
X5782Y6120D2*
X14475D1*
X5782Y5871D2*
X14725D1*
X5782Y5622D2*
X14877D1*
X5708Y5374D2*
X15010D1*
X5466Y5125D2*
X15377D1*
X5220Y4876D2*
X15377D1*
X4962Y4628D2*
X15377D1*
X4347Y4379D2*
X15377D1*
X8482Y10433D2*
X8531Y10378D1*
X8587Y10267D1*
X8611Y10118D1*
X8595Y9995D1*
X8545Y9880D1*
X8467Y9783D1*
X8366Y9710D1*
X8249Y9667D1*
X8121Y9658D1*
X8123Y8333D1*
X8329Y8125D1*
X9478Y8123D1*
X10537D1*
X10538Y8780D1*
X10569Y8899D1*
X10654Y8990D1*
X10787Y9029D1*
X11759Y9030D1*
Y9619D1*
X11708Y9618D1*
X11585Y9641D1*
X11474Y9696D1*
X11413Y9751D1*
X9449Y9749D1*
X9327Y9772D1*
X9216Y9845D1*
X8704Y10357D1*
X8634Y10460D1*
X8607Y10591D1*
Y15579D1*
X8518Y15711D1*
X8481Y15830D1*
X8479Y15969D1*
X8508Y16076D1*
X8569Y16184D1*
X8657Y16273D1*
X8765Y16334D1*
X8886Y16364D1*
X9011Y16361D1*
X9130Y16325D1*
X9235Y16258D1*
X9318Y16166D1*
X9374Y16054D1*
X9399Y15906D1*
X9382Y15782D1*
X9333Y15668D1*
X9267Y15586D1*
Y10730D1*
X9587Y10407D1*
X11406Y10409D1*
X11452Y10446D1*
X11560Y10507D1*
X11681Y10538D1*
X11806Y10535D1*
X11925Y10498D1*
X12030Y10431D1*
X12114Y10339D1*
X12136Y10294D1*
X12209Y10226D1*
X12255Y10111D1*
X12257Y8780D1*
X12226Y8660D1*
X12142Y8569D1*
X12008Y8531D1*
X11036Y8530D1*
Y7890D1*
X11013Y7769D1*
X10934Y7673D1*
X10820Y7627D1*
X8912Y7625D1*
X8228D1*
X8106Y7658D1*
X8052Y7698D1*
X7698Y8052D1*
X7635Y8163D1*
X7625Y8228D1*
Y10157D1*
X7656Y10277D1*
X7740Y10368D1*
X7766Y10376D1*
X7817Y10433D1*
X7820Y11599D1*
X7038Y11601D1*
X4324D1*
X4322Y10898D1*
X4331Y10891D1*
X4483Y10889D1*
X4602Y10853D1*
X4707Y10786D1*
X4791Y10693D1*
X4847Y10582D1*
X4871Y10437D1*
X7894Y7415D1*
X8221Y7416D1*
X8263Y7454D1*
X8371Y7515D1*
X8492Y7546D1*
X8617Y7542D1*
X8736Y7506D1*
X8841Y7439D1*
X8925Y7347D1*
X8980Y7235D1*
X9005Y7087D1*
X8988Y6963D1*
X8939Y6849D1*
X8861Y6751D1*
X8760Y6679D1*
X8643Y6636D1*
X8519Y6626D1*
X8396Y6649D1*
X8285Y6704D1*
X8224Y6759D1*
X7756Y6757D1*
X7634Y6780D1*
X7523Y6853D1*
X4791Y9585D1*
X4776Y9522D1*
X4726Y9408D1*
X4648Y9311D1*
X4569Y9254D1*
X4629Y9211D1*
X4712Y9118D1*
X4768Y9007D1*
X4792Y8858D1*
X4776Y8735D1*
X4726Y8620D1*
X4648Y8523D1*
X4601Y8489D1*
X4764Y8434D1*
X4886Y8413D1*
X5009Y8339D1*
X5068Y8281D1*
X5114Y8320D1*
X5222Y8381D1*
X5343Y8412D1*
X5467Y8409D1*
X5587Y8372D1*
X5692Y8305D1*
X5775Y8213D1*
X5831Y8101D1*
X5855Y7953D1*
X5839Y7829D1*
X5789Y7715D1*
X5758Y7675D1*
X5757Y5591D1*
X5749Y5512D1*
X5723Y5438D1*
X5651Y5334D1*
X4981Y4664D1*
X4880Y4593D1*
X4741Y4558D1*
X4658D1*
X4587Y4513D1*
X4470Y4470D1*
X4319Y4459D1*
X4322Y4322D1*
X15403D1*
Y5248D1*
X15394Y5251D1*
X15330Y5248D1*
X15207Y5271D1*
X15096Y5326D1*
X15003Y5409D1*
X14935Y5514D1*
X14899Y5633D1*
X14896Y5723D1*
X13794Y6825D1*
X13725Y6929D1*
X13702Y7047D1*
Y8301D1*
X13564Y8250D1*
X13440Y8240D1*
X13318Y8263D1*
X13206Y8318D1*
X13113Y8401D1*
X13046Y8506D1*
X13009Y8625D1*
X13005Y8750D1*
X13035Y8871D1*
X13096Y8980D1*
X13184Y9068D1*
X13293Y9129D1*
X13414Y9160D1*
X13480Y9158D1*
X13505Y9305D1*
Y9504D1*
X13440Y9500D1*
X13318Y9523D1*
X13206Y9578D1*
X13113Y9661D1*
X13046Y9766D1*
X13009Y9885D1*
X13005Y10010D1*
X13035Y10131D1*
X13096Y10239D1*
X13149Y10292D1*
X13150Y10582D1*
X12888Y10841D1*
X12819Y10944D1*
X12796Y11063D1*
Y11339D1*
X12821Y11460D1*
X12888Y11561D1*
X13112Y11784D1*
X13111Y14790D1*
X11250Y16652D1*
X10236Y16654D1*
X10114Y16679D1*
X10014Y16746D1*
X9702Y17058D1*
X9538Y17082D1*
X9426Y17137D1*
X9333Y17220D1*
X9266Y17325D1*
X9229Y17444D1*
X9226Y17569D1*
X9256Y17690D1*
X9317Y17798D1*
X9405Y17887D1*
X9513Y17948D1*
X9634Y17979D1*
X9759Y17976D1*
X9878Y17939D1*
X9940Y17900D1*
X10025Y17948D1*
X10146Y17979D1*
X10212Y17977D1*
X10329Y18096D1*
X10432Y18165D1*
X10551Y18188D1*
X11339D1*
X11460Y18164D1*
X11561Y18096D1*
X14238Y15419D1*
X14307Y15316D1*
X14330Y15197D1*
Y7177D1*
X14937Y6571D1*
X14964Y6666D1*
X15026Y6775D1*
X15114Y6863D1*
X15158Y6888D1*
X15042Y6984D1*
X14975Y7089D1*
X14938Y7208D1*
X14935Y7333D1*
X14964Y7454D1*
X15026Y7562D1*
X15114Y7651D1*
X15222Y7712D1*
X15343Y7742D1*
X15405Y7745D1*
X15403Y8396D1*
X15394Y8400D1*
X15330Y8397D1*
X15207Y8421D1*
X15096Y8476D1*
X15003Y8559D1*
X14935Y8664D1*
X14899Y8783D1*
X14895Y8907D1*
X14925Y9028D1*
X14986Y9137D1*
X15074Y9225D1*
X15118Y9250D1*
X15003Y9346D1*
X14935Y9451D1*
X14899Y9570D1*
X14895Y9695D1*
X14925Y9816D1*
X14986Y9924D1*
X15074Y10013D1*
X15118Y10038D1*
X15003Y10134D1*
X14935Y10239D1*
X14899Y10358D1*
X14895Y10482D1*
X14925Y10603D1*
X14986Y10712D1*
X15074Y10800D1*
X15183Y10862D1*
X15303Y10892D1*
X15405Y10895D1*
X15403Y11822D1*
Y16271D1*
X15354Y16274D1*
X15330Y16271D1*
X15207Y16295D1*
X15096Y16350D1*
X15003Y16433D1*
X14935Y16538D1*
X14899Y16657D1*
X14895Y16781D1*
X14925Y16902D1*
X14986Y17011D1*
X15074Y17099D1*
X15118Y17124D1*
X15003Y17220D1*
X14935Y17325D1*
X14899Y17444D1*
X14895Y17569D1*
X14925Y17690D1*
X14986Y17798D1*
X15074Y17887D1*
X15138Y17923D1*
X15042Y18008D1*
X14975Y18113D1*
X14938Y18232D1*
X14935Y18356D1*
X14964Y18477D1*
X15026Y18586D1*
X15114Y18674D1*
X15158Y18699D1*
X15042Y18795D1*
X14975Y18900D1*
X14938Y19019D1*
X14935Y19144D1*
X14964Y19265D1*
X14985Y19302D1*
X10403Y19300D1*
X6594D1*
X6434Y19228D1*
X6310Y19214D1*
X6187Y19232D1*
X6051Y19300D1*
X5992D1*
X5993Y19291D1*
Y19252D1*
X5976Y19128D1*
X5927Y19014D1*
X5849Y18917D1*
X5748Y18844D1*
X5631Y18801D1*
X5507Y18791D1*
X5384Y18814D1*
X5273Y18869D1*
X5180Y18953D1*
X5113Y19058D1*
X5076Y19177D1*
X5070Y19303D1*
X4322Y19300D1*
Y17648D1*
X5516Y17651D1*
X8110D1*
X8230Y17620D1*
X8320Y17535D1*
X8359Y17418D1*
X8336Y17296D1*
X8304Y17257D1*
X8411Y17318D1*
X8532Y17349D1*
X8656Y17346D1*
X8776Y17309D1*
X8881Y17242D1*
X8964Y17150D1*
X9020Y17038D1*
X9044Y16890D1*
X9028Y16766D1*
X8978Y16652D1*
X8900Y16555D1*
X8799Y16482D1*
X8682Y16439D1*
X8547Y16431D1*
X8481Y16361D1*
X8479Y10437D1*
X8646Y10436D1*
X8609Y10554D1*
X8607Y10591D1*
X8124Y16935D2*
X8153Y17060D1*
X8228Y17182D1*
X8110Y17153D1*
X4325D1*
X4322Y16406D1*
X4331Y16403D1*
X4483Y16401D1*
X4602Y16364D1*
X4707Y16298D1*
X4791Y16205D1*
X4847Y16094D1*
X4871Y15945D1*
X4854Y15821D1*
X4805Y15707D1*
X4727Y15610D1*
X4626Y15537D1*
X4509Y15494D1*
X4319Y15483D1*
X4322Y14835D1*
X4331Y14828D1*
X4483Y14826D1*
X4602Y14790D1*
X4707Y14723D1*
X4791Y14630D1*
X4847Y14519D1*
X4871Y14370D1*
X4854Y14247D1*
X4805Y14132D1*
X4727Y14035D1*
X4626Y13962D1*
X4509Y13919D1*
X4319Y13908D1*
X4322Y12425D1*
Y12101D1*
X7817Y12099D1*
X7820Y12618D1*
Y16496D1*
X7843Y16618D1*
X7916Y16729D1*
X8124Y16936D1*
X15357Y16273D2*
X15207Y16295D1*
X15096Y16350D1*
X15003Y16433D1*
X14935Y16538D1*
X14899Y16657D1*
X14895Y16781D1*
X14925Y16902D1*
X14986Y17011D1*
X15074Y17099D1*
X15118Y17124D1*
D17*
X8150Y10118D3*
X13465Y11220D3*
Y9961D3*
Y8701D3*
X11220Y17520D3*
X10709D3*
X9685D3*
X10197D3*
X11732Y10079D3*
X15354Y5709D3*
X4409Y15157D3*
X8937Y15906D3*
X6614Y11535D3*
X5669Y10906D3*
X12441Y8622D3*
X6102Y4882D3*
X12441Y5669D3*
X14331Y5984D3*
X6339Y10906D3*
X9370Y16732D3*
X6969Y17835D3*
D29*
X4134Y5709D3*
D17*
X5118Y18504D3*
D29*
X4134Y6496D3*
D17*
X5787Y17913D3*
D29*
X4134Y7283D3*
D17*
X6890Y18937D3*
X8583Y16890D3*
D29*
X4134Y8071D3*
Y8858D3*
D17*
X13780Y19055D3*
D29*
X4134Y9646D3*
D17*
X10512Y15039D3*
D29*
X4134Y10433D3*
D17*
X4528Y12244D3*
D29*
X4134Y14370D3*
D17*
X10039Y16024D3*
X4370Y5709D3*
D29*
X4134Y15157D3*
D17*
X4370Y4921D3*
D29*
X4134Y15945D3*
D17*
X4409Y10433D3*
D29*
X4134Y16732D3*
D17*
X8543Y7087D3*
D29*
X15591Y19094D3*
Y18307D3*
D17*
X7874Y18937D3*
D29*
X15591Y17520D3*
D17*
X8898Y19134D3*
X11732Y13465D3*
D29*
X15551Y16732D3*
D17*
X12835Y12047D3*
D29*
X15591Y10433D3*
D17*
X6811Y6142D3*
D29*
X15591Y9646D3*
D17*
X5079Y12244D3*
D29*
X15591Y8858D3*
D17*
X4409Y16732D3*
D29*
X15591Y8071D3*
Y7283D3*
D17*
X6319Y19252D3*
D29*
X15591Y6496D3*
D17*
X5531Y19252D3*
D29*
X4134Y4921D3*
D17*
X8622Y17717D3*
D29*
X15591Y5709D3*
D17*
X4409Y8071D3*
D30*
X4744Y19488D3*
D17*
X4409Y7283D3*
D30*
X5531Y19488D3*
D17*
X4409Y6496D3*
D30*
X6319Y19488D3*
D17*
X15354Y10433D3*
Y9646D3*
Y8858D3*
Y8071D3*
Y17520D3*
Y16732D3*
X4744Y19252D3*
X4409Y14370D3*
X8701Y8425D3*
X4409Y15945D3*
X9134Y8425D3*
X5394Y7953D3*
M02*
