G04 DipTrace 2.4.0.2*
%IN2_Layer_Bottom_Mask.gbr*%
%MOIN*%
%ADD47O,0.0472X0.0866*%
%ADD49O,0.0866X0.0472*%
%ADD57C,0.0472*%
%FSLAX44Y44*%
G04*
G70*
G90*
G75*
G01*
%LNBotMask*%
%LPD*%
D57*
X8150Y10118D3*
X13465Y11220D3*
Y9961D3*
Y8701D3*
X11220Y17520D3*
X10709D3*
X9685D3*
X10197D3*
X11732Y10079D3*
X15354Y5709D3*
X4409Y15157D3*
X8937Y15906D3*
X6614Y11535D3*
X5669Y10906D3*
X12441Y8622D3*
X6102Y4882D3*
X12441Y5669D3*
X14331Y5984D3*
X6339Y10906D3*
X9370Y16732D3*
X6969Y17835D3*
D49*
X4134Y5709D3*
D57*
X5118Y18504D3*
D49*
X4134Y6496D3*
D57*
X5787Y17913D3*
D49*
X4134Y7283D3*
D57*
X6890Y18937D3*
X8583Y16890D3*
D49*
X4134Y8071D3*
Y8858D3*
D57*
X13780Y19055D3*
D49*
X4134Y9646D3*
D57*
X10512Y15039D3*
D49*
X4134Y10433D3*
D57*
X4528Y12244D3*
D49*
X4134Y14370D3*
D57*
X10039Y16024D3*
X4370Y5709D3*
D49*
X4134Y15157D3*
D57*
X4370Y4921D3*
D49*
X4134Y15945D3*
D57*
X4409Y10433D3*
D49*
X4134Y16732D3*
D57*
X8543Y7087D3*
D49*
X15591Y19094D3*
Y18307D3*
D57*
X7874Y18937D3*
D49*
X15591Y17520D3*
D57*
X8898Y19134D3*
X11732Y13465D3*
D49*
X15551Y16732D3*
D57*
X12835Y12047D3*
D49*
X15591Y10433D3*
D57*
X6811Y6142D3*
D49*
X15591Y9646D3*
D57*
X5079Y12244D3*
D49*
X15591Y8858D3*
D57*
X4409Y16732D3*
D49*
X15591Y8071D3*
Y7283D3*
D57*
X6319Y19252D3*
D49*
X15591Y6496D3*
D57*
X5531Y19252D3*
D49*
X4134Y4921D3*
D57*
X8622Y17717D3*
D49*
X15591Y5709D3*
D57*
X4409Y8071D3*
D47*
X4744Y19488D3*
D57*
X4409Y7283D3*
D47*
X5531Y19488D3*
D57*
X4409Y6496D3*
D47*
X6319Y19488D3*
D57*
X15354Y10433D3*
Y9646D3*
Y8858D3*
Y8071D3*
Y17520D3*
Y16732D3*
X4744Y19252D3*
X4409Y14370D3*
X8701Y8425D3*
X4409Y15945D3*
X9134Y8425D3*
X5394Y7953D3*
M02*
