M48
INCH
T01C0.0236
T02C0.0335
T03C0.0354
%
T01
X+008150Y+010118
X+008701Y+008425
X+009134Y+008425
X+008543Y+007087
X+006811Y+006142
X+006102Y+004882
X+004370Y+004921
X+004370Y+005709
X+004409Y+006496
X+004409Y+007283
X+004409Y+008071
X+005394Y+007953
X+004409Y+010433
X+005669Y+010906
X+006339Y+010906
X+006614Y+011535
X+005079Y+012244
X+004528Y+012244
X+004409Y+014370
X+004409Y+015157
X+004409Y+015945
X+004409Y+016732
X+005787Y+017913
X+005118Y+018504
X+004744Y+019252
X+005531Y+019252
X+006319Y+019252
X+006890Y+018937
X+007874Y+018937
X+008898Y+019134
X+008622Y+017717
X+008583Y+016890
X+009370Y+016732
X+009685Y+017520
X+010197Y+017520
X+010709Y+017520
X+011220Y+017520
X+010039Y+016024
X+010512Y+015039
X+008937Y+015906
X+006969Y+017835
X+011732Y+013465
X+012835Y+012047
X+013465Y+011220
X+013465Y+009961
X+013465Y+008701
X+012441Y+008622
X+011732Y+010079
X+015354Y+010433
X+015354Y+009646
X+015354Y+008858
X+015354Y+008071
X+014331Y+005984
X+015354Y+005709
X+012441Y+005669
X+015354Y+016732
X+015354Y+017520
X+013780Y+019055
T02
X+003937Y+015945
X+003937Y+015157
X+003937Y+014370
X+003937Y+016732
X+004744Y+019685
X+005531Y+019685
X+006319Y+019685
X+015787Y+019094
X+015787Y+018307
X+015787Y+017520
X+015787Y+016732
X+015787Y+010433
X+015787Y+009646
X+015787Y+008858
X+015787Y+008071
X+015787Y+007283
X+015787Y+006496
X+015787Y+005709
X+003937Y+005709
X+003937Y+006496
X+003937Y+007283
X+003937Y+008858
X+003937Y+009646
X+003937Y+010433
X+003937Y+004921
T03
X+003937Y+008071
T00
M30
